G04 #@! TF.GenerationSoftware,KiCad,Pcbnew,5.0.0+dfsg1-2*
G04 #@! TF.CreationDate,2018-09-16T15:45:03-04:00*
G04 #@! TF.ProjectId,goodwatch30,676F6F64776174636833302E6B696361,30*
G04 #@! TF.SameCoordinates,Original*
G04 #@! TF.FileFunction,Soldermask,Bot*
G04 #@! TF.FilePolarity,Negative*
%FSLAX46Y46*%
G04 Gerber Fmt 4.6, Leading zero omitted, Abs format (unit mm)*
G04 Created by KiCad (PCBNEW 5.0.0+dfsg1-2) date Sun Sep 16 15:45:03 2018*
%MOMM*%
%LPD*%
G01*
G04 APERTURE LIST*
%ADD10C,0.100000*%
%ADD11C,0.690000*%
%ADD12C,2.100000*%
%ADD13C,1.624000*%
%ADD14R,8.400000X2.850000*%
%ADD15C,1.100000*%
%ADD16C,1.300000*%
%ADD17C,6.100000*%
%ADD18O,1.300000X2.800000*%
%ADD19R,1.150000X2.300000*%
%ADD20R,1.100000X1.100000*%
%ADD21R,1.100000X4.100000*%
%ADD22C,0.975000*%
%ADD23R,1.100000X1.900000*%
G04 APERTURE END LIST*
D10*
G04 #@! TO.C,C8*
G36*
X105104408Y-77130831D02*
X105121153Y-77133315D01*
X105137574Y-77137428D01*
X105153513Y-77143131D01*
X105168816Y-77150369D01*
X105183336Y-77159071D01*
X105196933Y-77169156D01*
X105209476Y-77180524D01*
X105220844Y-77193067D01*
X105230929Y-77206664D01*
X105239631Y-77221184D01*
X105246869Y-77236487D01*
X105252572Y-77252426D01*
X105256685Y-77268847D01*
X105259169Y-77285592D01*
X105260000Y-77302500D01*
X105260000Y-77697500D01*
X105259169Y-77714408D01*
X105256685Y-77731153D01*
X105252572Y-77747574D01*
X105246869Y-77763513D01*
X105239631Y-77778816D01*
X105230929Y-77793336D01*
X105220844Y-77806933D01*
X105209476Y-77819476D01*
X105196933Y-77830844D01*
X105183336Y-77840929D01*
X105168816Y-77849631D01*
X105153513Y-77856869D01*
X105137574Y-77862572D01*
X105121153Y-77866685D01*
X105104408Y-77869169D01*
X105087500Y-77870000D01*
X104742500Y-77870000D01*
X104725592Y-77869169D01*
X104708847Y-77866685D01*
X104692426Y-77862572D01*
X104676487Y-77856869D01*
X104661184Y-77849631D01*
X104646664Y-77840929D01*
X104633067Y-77830844D01*
X104620524Y-77819476D01*
X104609156Y-77806933D01*
X104599071Y-77793336D01*
X104590369Y-77778816D01*
X104583131Y-77763513D01*
X104577428Y-77747574D01*
X104573315Y-77731153D01*
X104570831Y-77714408D01*
X104570000Y-77697500D01*
X104570000Y-77302500D01*
X104570831Y-77285592D01*
X104573315Y-77268847D01*
X104577428Y-77252426D01*
X104583131Y-77236487D01*
X104590369Y-77221184D01*
X104599071Y-77206664D01*
X104609156Y-77193067D01*
X104620524Y-77180524D01*
X104633067Y-77169156D01*
X104646664Y-77159071D01*
X104661184Y-77150369D01*
X104676487Y-77143131D01*
X104692426Y-77137428D01*
X104708847Y-77133315D01*
X104725592Y-77130831D01*
X104742500Y-77130000D01*
X105087500Y-77130000D01*
X105104408Y-77130831D01*
X105104408Y-77130831D01*
G37*
D11*
X104915000Y-77500000D03*
D10*
G36*
X106074408Y-77130831D02*
X106091153Y-77133315D01*
X106107574Y-77137428D01*
X106123513Y-77143131D01*
X106138816Y-77150369D01*
X106153336Y-77159071D01*
X106166933Y-77169156D01*
X106179476Y-77180524D01*
X106190844Y-77193067D01*
X106200929Y-77206664D01*
X106209631Y-77221184D01*
X106216869Y-77236487D01*
X106222572Y-77252426D01*
X106226685Y-77268847D01*
X106229169Y-77285592D01*
X106230000Y-77302500D01*
X106230000Y-77697500D01*
X106229169Y-77714408D01*
X106226685Y-77731153D01*
X106222572Y-77747574D01*
X106216869Y-77763513D01*
X106209631Y-77778816D01*
X106200929Y-77793336D01*
X106190844Y-77806933D01*
X106179476Y-77819476D01*
X106166933Y-77830844D01*
X106153336Y-77840929D01*
X106138816Y-77849631D01*
X106123513Y-77856869D01*
X106107574Y-77862572D01*
X106091153Y-77866685D01*
X106074408Y-77869169D01*
X106057500Y-77870000D01*
X105712500Y-77870000D01*
X105695592Y-77869169D01*
X105678847Y-77866685D01*
X105662426Y-77862572D01*
X105646487Y-77856869D01*
X105631184Y-77849631D01*
X105616664Y-77840929D01*
X105603067Y-77830844D01*
X105590524Y-77819476D01*
X105579156Y-77806933D01*
X105569071Y-77793336D01*
X105560369Y-77778816D01*
X105553131Y-77763513D01*
X105547428Y-77747574D01*
X105543315Y-77731153D01*
X105540831Y-77714408D01*
X105540000Y-77697500D01*
X105540000Y-77302500D01*
X105540831Y-77285592D01*
X105543315Y-77268847D01*
X105547428Y-77252426D01*
X105553131Y-77236487D01*
X105560369Y-77221184D01*
X105569071Y-77206664D01*
X105579156Y-77193067D01*
X105590524Y-77180524D01*
X105603067Y-77169156D01*
X105616664Y-77159071D01*
X105631184Y-77150369D01*
X105646487Y-77143131D01*
X105662426Y-77137428D01*
X105678847Y-77133315D01*
X105695592Y-77130831D01*
X105712500Y-77130000D01*
X106057500Y-77130000D01*
X106074408Y-77130831D01*
X106074408Y-77130831D01*
G37*
D11*
X105885000Y-77500000D03*
G04 #@! TD*
D10*
G04 #@! TO.C,C9*
G36*
X106074408Y-75130831D02*
X106091153Y-75133315D01*
X106107574Y-75137428D01*
X106123513Y-75143131D01*
X106138816Y-75150369D01*
X106153336Y-75159071D01*
X106166933Y-75169156D01*
X106179476Y-75180524D01*
X106190844Y-75193067D01*
X106200929Y-75206664D01*
X106209631Y-75221184D01*
X106216869Y-75236487D01*
X106222572Y-75252426D01*
X106226685Y-75268847D01*
X106229169Y-75285592D01*
X106230000Y-75302500D01*
X106230000Y-75697500D01*
X106229169Y-75714408D01*
X106226685Y-75731153D01*
X106222572Y-75747574D01*
X106216869Y-75763513D01*
X106209631Y-75778816D01*
X106200929Y-75793336D01*
X106190844Y-75806933D01*
X106179476Y-75819476D01*
X106166933Y-75830844D01*
X106153336Y-75840929D01*
X106138816Y-75849631D01*
X106123513Y-75856869D01*
X106107574Y-75862572D01*
X106091153Y-75866685D01*
X106074408Y-75869169D01*
X106057500Y-75870000D01*
X105712500Y-75870000D01*
X105695592Y-75869169D01*
X105678847Y-75866685D01*
X105662426Y-75862572D01*
X105646487Y-75856869D01*
X105631184Y-75849631D01*
X105616664Y-75840929D01*
X105603067Y-75830844D01*
X105590524Y-75819476D01*
X105579156Y-75806933D01*
X105569071Y-75793336D01*
X105560369Y-75778816D01*
X105553131Y-75763513D01*
X105547428Y-75747574D01*
X105543315Y-75731153D01*
X105540831Y-75714408D01*
X105540000Y-75697500D01*
X105540000Y-75302500D01*
X105540831Y-75285592D01*
X105543315Y-75268847D01*
X105547428Y-75252426D01*
X105553131Y-75236487D01*
X105560369Y-75221184D01*
X105569071Y-75206664D01*
X105579156Y-75193067D01*
X105590524Y-75180524D01*
X105603067Y-75169156D01*
X105616664Y-75159071D01*
X105631184Y-75150369D01*
X105646487Y-75143131D01*
X105662426Y-75137428D01*
X105678847Y-75133315D01*
X105695592Y-75130831D01*
X105712500Y-75130000D01*
X106057500Y-75130000D01*
X106074408Y-75130831D01*
X106074408Y-75130831D01*
G37*
D11*
X105885000Y-75500000D03*
D10*
G36*
X105104408Y-75130831D02*
X105121153Y-75133315D01*
X105137574Y-75137428D01*
X105153513Y-75143131D01*
X105168816Y-75150369D01*
X105183336Y-75159071D01*
X105196933Y-75169156D01*
X105209476Y-75180524D01*
X105220844Y-75193067D01*
X105230929Y-75206664D01*
X105239631Y-75221184D01*
X105246869Y-75236487D01*
X105252572Y-75252426D01*
X105256685Y-75268847D01*
X105259169Y-75285592D01*
X105260000Y-75302500D01*
X105260000Y-75697500D01*
X105259169Y-75714408D01*
X105256685Y-75731153D01*
X105252572Y-75747574D01*
X105246869Y-75763513D01*
X105239631Y-75778816D01*
X105230929Y-75793336D01*
X105220844Y-75806933D01*
X105209476Y-75819476D01*
X105196933Y-75830844D01*
X105183336Y-75840929D01*
X105168816Y-75849631D01*
X105153513Y-75856869D01*
X105137574Y-75862572D01*
X105121153Y-75866685D01*
X105104408Y-75869169D01*
X105087500Y-75870000D01*
X104742500Y-75870000D01*
X104725592Y-75869169D01*
X104708847Y-75866685D01*
X104692426Y-75862572D01*
X104676487Y-75856869D01*
X104661184Y-75849631D01*
X104646664Y-75840929D01*
X104633067Y-75830844D01*
X104620524Y-75819476D01*
X104609156Y-75806933D01*
X104599071Y-75793336D01*
X104590369Y-75778816D01*
X104583131Y-75763513D01*
X104577428Y-75747574D01*
X104573315Y-75731153D01*
X104570831Y-75714408D01*
X104570000Y-75697500D01*
X104570000Y-75302500D01*
X104570831Y-75285592D01*
X104573315Y-75268847D01*
X104577428Y-75252426D01*
X104583131Y-75236487D01*
X104590369Y-75221184D01*
X104599071Y-75206664D01*
X104609156Y-75193067D01*
X104620524Y-75180524D01*
X104633067Y-75169156D01*
X104646664Y-75159071D01*
X104661184Y-75150369D01*
X104676487Y-75143131D01*
X104692426Y-75137428D01*
X104708847Y-75133315D01*
X104725592Y-75130831D01*
X104742500Y-75130000D01*
X105087500Y-75130000D01*
X105104408Y-75130831D01*
X105104408Y-75130831D01*
G37*
D11*
X104915000Y-75500000D03*
G04 #@! TD*
D10*
G04 #@! TO.C,C3*
G36*
X108514408Y-79140831D02*
X108531153Y-79143315D01*
X108547574Y-79147428D01*
X108563513Y-79153131D01*
X108578816Y-79160369D01*
X108593336Y-79169071D01*
X108606933Y-79179156D01*
X108619476Y-79190524D01*
X108630844Y-79203067D01*
X108640929Y-79216664D01*
X108649631Y-79231184D01*
X108656869Y-79246487D01*
X108662572Y-79262426D01*
X108666685Y-79278847D01*
X108669169Y-79295592D01*
X108670000Y-79312500D01*
X108670000Y-79657500D01*
X108669169Y-79674408D01*
X108666685Y-79691153D01*
X108662572Y-79707574D01*
X108656869Y-79723513D01*
X108649631Y-79738816D01*
X108640929Y-79753336D01*
X108630844Y-79766933D01*
X108619476Y-79779476D01*
X108606933Y-79790844D01*
X108593336Y-79800929D01*
X108578816Y-79809631D01*
X108563513Y-79816869D01*
X108547574Y-79822572D01*
X108531153Y-79826685D01*
X108514408Y-79829169D01*
X108497500Y-79830000D01*
X108102500Y-79830000D01*
X108085592Y-79829169D01*
X108068847Y-79826685D01*
X108052426Y-79822572D01*
X108036487Y-79816869D01*
X108021184Y-79809631D01*
X108006664Y-79800929D01*
X107993067Y-79790844D01*
X107980524Y-79779476D01*
X107969156Y-79766933D01*
X107959071Y-79753336D01*
X107950369Y-79738816D01*
X107943131Y-79723513D01*
X107937428Y-79707574D01*
X107933315Y-79691153D01*
X107930831Y-79674408D01*
X107930000Y-79657500D01*
X107930000Y-79312500D01*
X107930831Y-79295592D01*
X107933315Y-79278847D01*
X107937428Y-79262426D01*
X107943131Y-79246487D01*
X107950369Y-79231184D01*
X107959071Y-79216664D01*
X107969156Y-79203067D01*
X107980524Y-79190524D01*
X107993067Y-79179156D01*
X108006664Y-79169071D01*
X108021184Y-79160369D01*
X108036487Y-79153131D01*
X108052426Y-79147428D01*
X108068847Y-79143315D01*
X108085592Y-79140831D01*
X108102500Y-79140000D01*
X108497500Y-79140000D01*
X108514408Y-79140831D01*
X108514408Y-79140831D01*
G37*
D11*
X108300000Y-79485000D03*
D10*
G36*
X108514408Y-78170831D02*
X108531153Y-78173315D01*
X108547574Y-78177428D01*
X108563513Y-78183131D01*
X108578816Y-78190369D01*
X108593336Y-78199071D01*
X108606933Y-78209156D01*
X108619476Y-78220524D01*
X108630844Y-78233067D01*
X108640929Y-78246664D01*
X108649631Y-78261184D01*
X108656869Y-78276487D01*
X108662572Y-78292426D01*
X108666685Y-78308847D01*
X108669169Y-78325592D01*
X108670000Y-78342500D01*
X108670000Y-78687500D01*
X108669169Y-78704408D01*
X108666685Y-78721153D01*
X108662572Y-78737574D01*
X108656869Y-78753513D01*
X108649631Y-78768816D01*
X108640929Y-78783336D01*
X108630844Y-78796933D01*
X108619476Y-78809476D01*
X108606933Y-78820844D01*
X108593336Y-78830929D01*
X108578816Y-78839631D01*
X108563513Y-78846869D01*
X108547574Y-78852572D01*
X108531153Y-78856685D01*
X108514408Y-78859169D01*
X108497500Y-78860000D01*
X108102500Y-78860000D01*
X108085592Y-78859169D01*
X108068847Y-78856685D01*
X108052426Y-78852572D01*
X108036487Y-78846869D01*
X108021184Y-78839631D01*
X108006664Y-78830929D01*
X107993067Y-78820844D01*
X107980524Y-78809476D01*
X107969156Y-78796933D01*
X107959071Y-78783336D01*
X107950369Y-78768816D01*
X107943131Y-78753513D01*
X107937428Y-78737574D01*
X107933315Y-78721153D01*
X107930831Y-78704408D01*
X107930000Y-78687500D01*
X107930000Y-78342500D01*
X107930831Y-78325592D01*
X107933315Y-78308847D01*
X107937428Y-78292426D01*
X107943131Y-78276487D01*
X107950369Y-78261184D01*
X107959071Y-78246664D01*
X107969156Y-78233067D01*
X107980524Y-78220524D01*
X107993067Y-78209156D01*
X108006664Y-78199071D01*
X108021184Y-78190369D01*
X108036487Y-78183131D01*
X108052426Y-78177428D01*
X108068847Y-78173315D01*
X108085592Y-78170831D01*
X108102500Y-78170000D01*
X108497500Y-78170000D01*
X108514408Y-78170831D01*
X108514408Y-78170831D01*
G37*
D11*
X108300000Y-78515000D03*
G04 #@! TD*
D12*
G04 #@! TO.C,BRD1*
X103350000Y-80900000D03*
D13*
X118600000Y-84400000D03*
X97870000Y-82400000D03*
X99600000Y-84400000D03*
D14*
X109500000Y-60400000D03*
D15*
X101900000Y-59100000D03*
D16*
X98200000Y-72600000D03*
X120500000Y-72600000D03*
D15*
X116900000Y-59100000D03*
D17*
X113900000Y-70000000D03*
D10*
G36*
X110899319Y-73295590D02*
X110420718Y-67214394D01*
X116900681Y-66704410D01*
X117379282Y-72785606D01*
X110899319Y-73295590D01*
X110899319Y-73295590D01*
G37*
D18*
X121800000Y-75100000D03*
X121800000Y-82600000D03*
G04 #@! TD*
D19*
G04 #@! TO.C,J1*
X98325000Y-67050000D03*
X101275000Y-67050000D03*
D20*
X99800000Y-68550000D03*
X99800000Y-65550000D03*
G04 #@! TD*
D21*
G04 #@! TO.C,A1*
X103300000Y-63500000D03*
X115600000Y-63500000D03*
G04 #@! TD*
D10*
G04 #@! TO.C,C1*
G36*
X100017142Y-62127174D02*
X100040803Y-62130684D01*
X100064007Y-62136496D01*
X100086529Y-62144554D01*
X100108153Y-62154782D01*
X100128670Y-62167079D01*
X100147883Y-62181329D01*
X100165607Y-62197393D01*
X100181671Y-62215117D01*
X100195921Y-62234330D01*
X100208218Y-62254847D01*
X100218446Y-62276471D01*
X100226504Y-62298993D01*
X100232316Y-62322197D01*
X100235826Y-62345858D01*
X100237000Y-62369750D01*
X100237000Y-62932250D01*
X100235826Y-62956142D01*
X100232316Y-62979803D01*
X100226504Y-63003007D01*
X100218446Y-63025529D01*
X100208218Y-63047153D01*
X100195921Y-63067670D01*
X100181671Y-63086883D01*
X100165607Y-63104607D01*
X100147883Y-63120671D01*
X100128670Y-63134921D01*
X100108153Y-63147218D01*
X100086529Y-63157446D01*
X100064007Y-63165504D01*
X100040803Y-63171316D01*
X100017142Y-63174826D01*
X99993250Y-63176000D01*
X99505750Y-63176000D01*
X99481858Y-63174826D01*
X99458197Y-63171316D01*
X99434993Y-63165504D01*
X99412471Y-63157446D01*
X99390847Y-63147218D01*
X99370330Y-63134921D01*
X99351117Y-63120671D01*
X99333393Y-63104607D01*
X99317329Y-63086883D01*
X99303079Y-63067670D01*
X99290782Y-63047153D01*
X99280554Y-63025529D01*
X99272496Y-63003007D01*
X99266684Y-62979803D01*
X99263174Y-62956142D01*
X99262000Y-62932250D01*
X99262000Y-62369750D01*
X99263174Y-62345858D01*
X99266684Y-62322197D01*
X99272496Y-62298993D01*
X99280554Y-62276471D01*
X99290782Y-62254847D01*
X99303079Y-62234330D01*
X99317329Y-62215117D01*
X99333393Y-62197393D01*
X99351117Y-62181329D01*
X99370330Y-62167079D01*
X99390847Y-62154782D01*
X99412471Y-62144554D01*
X99434993Y-62136496D01*
X99458197Y-62130684D01*
X99481858Y-62127174D01*
X99505750Y-62126000D01*
X99993250Y-62126000D01*
X100017142Y-62127174D01*
X100017142Y-62127174D01*
G37*
D22*
X99749500Y-62651000D03*
D10*
G36*
X101592142Y-62127174D02*
X101615803Y-62130684D01*
X101639007Y-62136496D01*
X101661529Y-62144554D01*
X101683153Y-62154782D01*
X101703670Y-62167079D01*
X101722883Y-62181329D01*
X101740607Y-62197393D01*
X101756671Y-62215117D01*
X101770921Y-62234330D01*
X101783218Y-62254847D01*
X101793446Y-62276471D01*
X101801504Y-62298993D01*
X101807316Y-62322197D01*
X101810826Y-62345858D01*
X101812000Y-62369750D01*
X101812000Y-62932250D01*
X101810826Y-62956142D01*
X101807316Y-62979803D01*
X101801504Y-63003007D01*
X101793446Y-63025529D01*
X101783218Y-63047153D01*
X101770921Y-63067670D01*
X101756671Y-63086883D01*
X101740607Y-63104607D01*
X101722883Y-63120671D01*
X101703670Y-63134921D01*
X101683153Y-63147218D01*
X101661529Y-63157446D01*
X101639007Y-63165504D01*
X101615803Y-63171316D01*
X101592142Y-63174826D01*
X101568250Y-63176000D01*
X101080750Y-63176000D01*
X101056858Y-63174826D01*
X101033197Y-63171316D01*
X101009993Y-63165504D01*
X100987471Y-63157446D01*
X100965847Y-63147218D01*
X100945330Y-63134921D01*
X100926117Y-63120671D01*
X100908393Y-63104607D01*
X100892329Y-63086883D01*
X100878079Y-63067670D01*
X100865782Y-63047153D01*
X100855554Y-63025529D01*
X100847496Y-63003007D01*
X100841684Y-62979803D01*
X100838174Y-62956142D01*
X100837000Y-62932250D01*
X100837000Y-62369750D01*
X100838174Y-62345858D01*
X100841684Y-62322197D01*
X100847496Y-62298993D01*
X100855554Y-62276471D01*
X100865782Y-62254847D01*
X100878079Y-62234330D01*
X100892329Y-62215117D01*
X100908393Y-62197393D01*
X100926117Y-62181329D01*
X100945330Y-62167079D01*
X100965847Y-62154782D01*
X100987471Y-62144554D01*
X101009993Y-62136496D01*
X101033197Y-62130684D01*
X101056858Y-62127174D01*
X101080750Y-62126000D01*
X101568250Y-62126000D01*
X101592142Y-62127174D01*
X101592142Y-62127174D01*
G37*
D22*
X101324500Y-62651000D03*
G04 #@! TD*
D10*
G04 #@! TO.C,L1*
G36*
X105104408Y-76124831D02*
X105121153Y-76127315D01*
X105137574Y-76131428D01*
X105153513Y-76137131D01*
X105168816Y-76144369D01*
X105183336Y-76153071D01*
X105196933Y-76163156D01*
X105209476Y-76174524D01*
X105220844Y-76187067D01*
X105230929Y-76200664D01*
X105239631Y-76215184D01*
X105246869Y-76230487D01*
X105252572Y-76246426D01*
X105256685Y-76262847D01*
X105259169Y-76279592D01*
X105260000Y-76296500D01*
X105260000Y-76691500D01*
X105259169Y-76708408D01*
X105256685Y-76725153D01*
X105252572Y-76741574D01*
X105246869Y-76757513D01*
X105239631Y-76772816D01*
X105230929Y-76787336D01*
X105220844Y-76800933D01*
X105209476Y-76813476D01*
X105196933Y-76824844D01*
X105183336Y-76834929D01*
X105168816Y-76843631D01*
X105153513Y-76850869D01*
X105137574Y-76856572D01*
X105121153Y-76860685D01*
X105104408Y-76863169D01*
X105087500Y-76864000D01*
X104742500Y-76864000D01*
X104725592Y-76863169D01*
X104708847Y-76860685D01*
X104692426Y-76856572D01*
X104676487Y-76850869D01*
X104661184Y-76843631D01*
X104646664Y-76834929D01*
X104633067Y-76824844D01*
X104620524Y-76813476D01*
X104609156Y-76800933D01*
X104599071Y-76787336D01*
X104590369Y-76772816D01*
X104583131Y-76757513D01*
X104577428Y-76741574D01*
X104573315Y-76725153D01*
X104570831Y-76708408D01*
X104570000Y-76691500D01*
X104570000Y-76296500D01*
X104570831Y-76279592D01*
X104573315Y-76262847D01*
X104577428Y-76246426D01*
X104583131Y-76230487D01*
X104590369Y-76215184D01*
X104599071Y-76200664D01*
X104609156Y-76187067D01*
X104620524Y-76174524D01*
X104633067Y-76163156D01*
X104646664Y-76153071D01*
X104661184Y-76144369D01*
X104676487Y-76137131D01*
X104692426Y-76131428D01*
X104708847Y-76127315D01*
X104725592Y-76124831D01*
X104742500Y-76124000D01*
X105087500Y-76124000D01*
X105104408Y-76124831D01*
X105104408Y-76124831D01*
G37*
D11*
X104915000Y-76494000D03*
D10*
G36*
X106074408Y-76124831D02*
X106091153Y-76127315D01*
X106107574Y-76131428D01*
X106123513Y-76137131D01*
X106138816Y-76144369D01*
X106153336Y-76153071D01*
X106166933Y-76163156D01*
X106179476Y-76174524D01*
X106190844Y-76187067D01*
X106200929Y-76200664D01*
X106209631Y-76215184D01*
X106216869Y-76230487D01*
X106222572Y-76246426D01*
X106226685Y-76262847D01*
X106229169Y-76279592D01*
X106230000Y-76296500D01*
X106230000Y-76691500D01*
X106229169Y-76708408D01*
X106226685Y-76725153D01*
X106222572Y-76741574D01*
X106216869Y-76757513D01*
X106209631Y-76772816D01*
X106200929Y-76787336D01*
X106190844Y-76800933D01*
X106179476Y-76813476D01*
X106166933Y-76824844D01*
X106153336Y-76834929D01*
X106138816Y-76843631D01*
X106123513Y-76850869D01*
X106107574Y-76856572D01*
X106091153Y-76860685D01*
X106074408Y-76863169D01*
X106057500Y-76864000D01*
X105712500Y-76864000D01*
X105695592Y-76863169D01*
X105678847Y-76860685D01*
X105662426Y-76856572D01*
X105646487Y-76850869D01*
X105631184Y-76843631D01*
X105616664Y-76834929D01*
X105603067Y-76824844D01*
X105590524Y-76813476D01*
X105579156Y-76800933D01*
X105569071Y-76787336D01*
X105560369Y-76772816D01*
X105553131Y-76757513D01*
X105547428Y-76741574D01*
X105543315Y-76725153D01*
X105540831Y-76708408D01*
X105540000Y-76691500D01*
X105540000Y-76296500D01*
X105540831Y-76279592D01*
X105543315Y-76262847D01*
X105547428Y-76246426D01*
X105553131Y-76230487D01*
X105560369Y-76215184D01*
X105569071Y-76200664D01*
X105579156Y-76187067D01*
X105590524Y-76174524D01*
X105603067Y-76163156D01*
X105616664Y-76153071D01*
X105631184Y-76144369D01*
X105646487Y-76137131D01*
X105662426Y-76131428D01*
X105678847Y-76127315D01*
X105695592Y-76124831D01*
X105712500Y-76124000D01*
X106057500Y-76124000D01*
X106074408Y-76124831D01*
X106074408Y-76124831D01*
G37*
D11*
X105885000Y-76494000D03*
G04 #@! TD*
D23*
G04 #@! TO.C,Y1*
X112876000Y-84876000D03*
X115376000Y-84876000D03*
G04 #@! TD*
M02*
