G04 #@! TF.GenerationSoftware,KiCad,Pcbnew,5.0.0+dfsg1-2*
G04 #@! TF.CreationDate,2018-09-16T15:45:03-04:00*
G04 #@! TF.ProjectId,goodwatch30,676F6F64776174636833302E6B696361,30*
G04 #@! TF.SameCoordinates,Original*
G04 #@! TF.FileFunction,Legend,Top*
G04 #@! TF.FilePolarity,Positive*
%FSLAX46Y46*%
G04 Gerber Fmt 4.6, Leading zero omitted, Abs format (unit mm)*
G04 Created by KiCad (PCBNEW 5.0.0+dfsg1-2) date Sun Sep 16 15:45:03 2018*
%MOMM*%
%LPD*%
G01*
G04 APERTURE LIST*
%ADD10C,0.125000*%
%ADD11C,0.150000*%
G04 APERTURE END LIST*
D10*
X117555047Y-82594000D02*
X117507428Y-82570190D01*
X117436000Y-82570190D01*
X117364571Y-82594000D01*
X117316952Y-82641619D01*
X117293142Y-82689238D01*
X117269333Y-82784476D01*
X117269333Y-82855904D01*
X117293142Y-82951142D01*
X117316952Y-82998761D01*
X117364571Y-83046380D01*
X117436000Y-83070190D01*
X117483619Y-83070190D01*
X117555047Y-83046380D01*
X117578857Y-83022571D01*
X117578857Y-82855904D01*
X117483619Y-82855904D01*
X117793142Y-83070190D02*
X117793142Y-82570190D01*
X118078857Y-83070190D01*
X118078857Y-82570190D01*
X118316952Y-83070190D02*
X118316952Y-82570190D01*
X118436000Y-82570190D01*
X118507428Y-82594000D01*
X118555047Y-82641619D01*
X118578857Y-82689238D01*
X118602666Y-82784476D01*
X118602666Y-82855904D01*
X118578857Y-82951142D01*
X118555047Y-82998761D01*
X118507428Y-83046380D01*
X118436000Y-83070190D01*
X118316952Y-83070190D01*
X120448190Y-83526380D02*
X119948190Y-83526380D01*
X119948190Y-83335904D01*
X119972000Y-83288285D01*
X119995809Y-83264476D01*
X120043428Y-83240666D01*
X120114857Y-83240666D01*
X120162476Y-83264476D01*
X120186285Y-83288285D01*
X120210095Y-83335904D01*
X120210095Y-83526380D01*
X120448190Y-83026380D02*
X120114857Y-83026380D01*
X120210095Y-83026380D02*
X120162476Y-83002571D01*
X120138666Y-82978761D01*
X120114857Y-82931142D01*
X120114857Y-82883523D01*
X120114857Y-82502571D02*
X120519619Y-82502571D01*
X120567238Y-82526380D01*
X120591047Y-82550190D01*
X120614857Y-82597809D01*
X120614857Y-82669238D01*
X120591047Y-82716857D01*
X120424380Y-82502571D02*
X120448190Y-82550190D01*
X120448190Y-82645428D01*
X120424380Y-82693047D01*
X120400571Y-82716857D01*
X120352952Y-82740666D01*
X120210095Y-82740666D01*
X120162476Y-82716857D01*
X120138666Y-82693047D01*
X120114857Y-82645428D01*
X120114857Y-82550190D01*
X120138666Y-82502571D01*
X120448190Y-82264476D02*
X120114857Y-82264476D01*
X120162476Y-82264476D02*
X120138666Y-82240666D01*
X120114857Y-82193047D01*
X120114857Y-82121619D01*
X120138666Y-82074000D01*
X120186285Y-82050190D01*
X120448190Y-82050190D01*
X120186285Y-82050190D02*
X120138666Y-82026380D01*
X120114857Y-81978761D01*
X120114857Y-81907333D01*
X120138666Y-81859714D01*
X120186285Y-81835904D01*
X120448190Y-81835904D01*
X119924380Y-81240666D02*
X120567238Y-81669238D01*
X120448190Y-81074000D02*
X119948190Y-81074000D01*
X119948190Y-80883523D01*
X119972000Y-80835904D01*
X119995809Y-80812095D01*
X120043428Y-80788285D01*
X120114857Y-80788285D01*
X120162476Y-80812095D01*
X120186285Y-80835904D01*
X120210095Y-80883523D01*
X120210095Y-81074000D01*
X120448190Y-80312095D02*
X120448190Y-80597809D01*
X120448190Y-80454952D02*
X119948190Y-80454952D01*
X120019619Y-80502571D01*
X120067238Y-80550190D01*
X120091047Y-80597809D01*
X120400571Y-80097809D02*
X120424380Y-80074000D01*
X120448190Y-80097809D01*
X120424380Y-80121619D01*
X120400571Y-80097809D01*
X120448190Y-80097809D01*
X119948190Y-79645428D02*
X119948190Y-79740666D01*
X119972000Y-79788285D01*
X119995809Y-79812095D01*
X120067238Y-79859714D01*
X120162476Y-79883523D01*
X120352952Y-79883523D01*
X120400571Y-79859714D01*
X120424380Y-79835904D01*
X120448190Y-79788285D01*
X120448190Y-79693047D01*
X120424380Y-79645428D01*
X120400571Y-79621619D01*
X120352952Y-79597809D01*
X120233904Y-79597809D01*
X120186285Y-79621619D01*
X120162476Y-79645428D01*
X120138666Y-79693047D01*
X120138666Y-79788285D01*
X120162476Y-79835904D01*
X120186285Y-79859714D01*
X120233904Y-79883523D01*
X120194190Y-77672476D02*
X119694190Y-77672476D01*
X120051333Y-77505809D01*
X119694190Y-77339142D01*
X120194190Y-77339142D01*
X120194190Y-77029619D02*
X120170380Y-77077238D01*
X120146571Y-77101047D01*
X120098952Y-77124857D01*
X119956095Y-77124857D01*
X119908476Y-77101047D01*
X119884666Y-77077238D01*
X119860857Y-77029619D01*
X119860857Y-76958190D01*
X119884666Y-76910571D01*
X119908476Y-76886761D01*
X119956095Y-76862952D01*
X120098952Y-76862952D01*
X120146571Y-76886761D01*
X120170380Y-76910571D01*
X120194190Y-76958190D01*
X120194190Y-77029619D01*
X120194190Y-76434380D02*
X119694190Y-76434380D01*
X120170380Y-76434380D02*
X120194190Y-76482000D01*
X120194190Y-76577238D01*
X120170380Y-76624857D01*
X120146571Y-76648666D01*
X120098952Y-76672476D01*
X119956095Y-76672476D01*
X119908476Y-76648666D01*
X119884666Y-76624857D01*
X119860857Y-76577238D01*
X119860857Y-76482000D01*
X119884666Y-76434380D01*
X120170380Y-76005809D02*
X120194190Y-76053428D01*
X120194190Y-76148666D01*
X120170380Y-76196285D01*
X120122761Y-76220095D01*
X119932285Y-76220095D01*
X119884666Y-76196285D01*
X119860857Y-76148666D01*
X119860857Y-76053428D01*
X119884666Y-76005809D01*
X119932285Y-75982000D01*
X119979904Y-75982000D01*
X120027523Y-76220095D01*
X119670380Y-75410571D02*
X120313238Y-75839142D01*
X120194190Y-75243904D02*
X119694190Y-75243904D01*
X119694190Y-75053428D01*
X119718000Y-75005809D01*
X119741809Y-74982000D01*
X119789428Y-74958190D01*
X119860857Y-74958190D01*
X119908476Y-74982000D01*
X119932285Y-75005809D01*
X119956095Y-75053428D01*
X119956095Y-75243904D01*
X120194190Y-74482000D02*
X120194190Y-74767714D01*
X120194190Y-74624857D02*
X119694190Y-74624857D01*
X119765619Y-74672476D01*
X119813238Y-74720095D01*
X119837047Y-74767714D01*
X120146571Y-74267714D02*
X120170380Y-74243904D01*
X120194190Y-74267714D01*
X120170380Y-74291523D01*
X120146571Y-74267714D01*
X120194190Y-74267714D01*
X119694190Y-73791523D02*
X119694190Y-74029619D01*
X119932285Y-74053428D01*
X119908476Y-74029619D01*
X119884666Y-73982000D01*
X119884666Y-73862952D01*
X119908476Y-73815333D01*
X119932285Y-73791523D01*
X119979904Y-73767714D01*
X120098952Y-73767714D01*
X120146571Y-73791523D01*
X120170380Y-73815333D01*
X120194190Y-73862952D01*
X120194190Y-73982000D01*
X120170380Y-74029619D01*
X120146571Y-74053428D01*
X105745154Y-61375000D02*
X105649916Y-61327380D01*
X105507059Y-61327380D01*
X105364202Y-61375000D01*
X105268964Y-61470238D01*
X105221345Y-61565476D01*
X105173726Y-61755952D01*
X105173726Y-61898809D01*
X105221345Y-62089285D01*
X105268964Y-62184523D01*
X105364202Y-62279761D01*
X105507059Y-62327380D01*
X105602297Y-62327380D01*
X105745154Y-62279761D01*
X105792773Y-62232142D01*
X105792773Y-61898809D01*
X105602297Y-61898809D01*
X106364202Y-62327380D02*
X106268964Y-62279761D01*
X106221345Y-62232142D01*
X106173726Y-62136904D01*
X106173726Y-61851190D01*
X106221345Y-61755952D01*
X106268964Y-61708333D01*
X106364202Y-61660714D01*
X106507059Y-61660714D01*
X106602297Y-61708333D01*
X106649916Y-61755952D01*
X106697535Y-61851190D01*
X106697535Y-62136904D01*
X106649916Y-62232142D01*
X106602297Y-62279761D01*
X106507059Y-62327380D01*
X106364202Y-62327380D01*
X107268964Y-62327380D02*
X107173726Y-62279761D01*
X107126107Y-62232142D01*
X107078488Y-62136904D01*
X107078488Y-61851190D01*
X107126107Y-61755952D01*
X107173726Y-61708333D01*
X107268964Y-61660714D01*
X107411821Y-61660714D01*
X107507059Y-61708333D01*
X107554678Y-61755952D01*
X107602297Y-61851190D01*
X107602297Y-62136904D01*
X107554678Y-62232142D01*
X107507059Y-62279761D01*
X107411821Y-62327380D01*
X107268964Y-62327380D01*
X108459440Y-62327380D02*
X108459440Y-61327380D01*
X108459440Y-62279761D02*
X108364202Y-62327380D01*
X108173726Y-62327380D01*
X108078488Y-62279761D01*
X108030869Y-62232142D01*
X107983250Y-62136904D01*
X107983250Y-61851190D01*
X108030869Y-61755952D01*
X108078488Y-61708333D01*
X108173726Y-61660714D01*
X108364202Y-61660714D01*
X108459440Y-61708333D01*
X108840392Y-61327380D02*
X109078488Y-62327380D01*
X109268964Y-61613095D01*
X109459440Y-62327380D01*
X109697535Y-61327380D01*
X110507059Y-62327380D02*
X110507059Y-61803571D01*
X110459440Y-61708333D01*
X110364202Y-61660714D01*
X110173726Y-61660714D01*
X110078488Y-61708333D01*
X110507059Y-62279761D02*
X110411821Y-62327380D01*
X110173726Y-62327380D01*
X110078488Y-62279761D01*
X110030869Y-62184523D01*
X110030869Y-62089285D01*
X110078488Y-61994047D01*
X110173726Y-61946428D01*
X110411821Y-61946428D01*
X110507059Y-61898809D01*
X110840392Y-61660714D02*
X111221345Y-61660714D01*
X110983250Y-61327380D02*
X110983250Y-62184523D01*
X111030869Y-62279761D01*
X111126107Y-62327380D01*
X111221345Y-62327380D01*
X111983250Y-62279761D02*
X111888011Y-62327380D01*
X111697535Y-62327380D01*
X111602297Y-62279761D01*
X111554678Y-62232142D01*
X111507059Y-62136904D01*
X111507059Y-61851190D01*
X111554678Y-61755952D01*
X111602297Y-61708333D01*
X111697535Y-61660714D01*
X111888011Y-61660714D01*
X111983250Y-61708333D01*
X112411821Y-62327380D02*
X112411821Y-61327380D01*
X112840392Y-62327380D02*
X112840392Y-61803571D01*
X112792773Y-61708333D01*
X112697535Y-61660714D01*
X112554678Y-61660714D01*
X112459440Y-61708333D01*
X112411821Y-61755952D01*
X113221345Y-61327380D02*
X113840392Y-61327380D01*
X113507059Y-61708333D01*
X113649916Y-61708333D01*
X113745154Y-61755952D01*
X113792773Y-61803571D01*
X113840392Y-61898809D01*
X113840392Y-62136904D01*
X113792773Y-62232142D01*
X113745154Y-62279761D01*
X113649916Y-62327380D01*
X113364202Y-62327380D01*
X113268964Y-62279761D01*
X113221345Y-62232142D01*
X114459440Y-61327380D02*
X114554678Y-61327380D01*
X114649916Y-61375000D01*
X114697535Y-61422619D01*
X114745154Y-61517857D01*
X114792773Y-61708333D01*
X114792773Y-61946428D01*
X114745154Y-62136904D01*
X114697535Y-62232142D01*
X114649916Y-62279761D01*
X114554678Y-62327380D01*
X114459440Y-62327380D01*
X114364202Y-62279761D01*
X114316583Y-62232142D01*
X114268964Y-62136904D01*
X114221345Y-61946428D01*
X114221345Y-61708333D01*
X114268964Y-61517857D01*
X114316583Y-61422619D01*
X114364202Y-61375000D01*
X114459440Y-61327380D01*
X105078488Y-62952380D02*
X105649916Y-62952380D01*
X105364202Y-63952380D02*
X105364202Y-62952380D01*
X105983250Y-63857142D02*
X106030869Y-63904761D01*
X105983250Y-63952380D01*
X105935630Y-63904761D01*
X105983250Y-63857142D01*
X105983250Y-63952380D01*
X107745154Y-63000000D02*
X107649916Y-62952380D01*
X107507059Y-62952380D01*
X107364202Y-63000000D01*
X107268964Y-63095238D01*
X107221345Y-63190476D01*
X107173726Y-63380952D01*
X107173726Y-63523809D01*
X107221345Y-63714285D01*
X107268964Y-63809523D01*
X107364202Y-63904761D01*
X107507059Y-63952380D01*
X107602297Y-63952380D01*
X107745154Y-63904761D01*
X107792773Y-63857142D01*
X107792773Y-63523809D01*
X107602297Y-63523809D01*
X108364202Y-63952380D02*
X108268964Y-63904761D01*
X108221345Y-63857142D01*
X108173726Y-63761904D01*
X108173726Y-63476190D01*
X108221345Y-63380952D01*
X108268964Y-63333333D01*
X108364202Y-63285714D01*
X108507059Y-63285714D01*
X108602297Y-63333333D01*
X108649916Y-63380952D01*
X108697535Y-63476190D01*
X108697535Y-63761904D01*
X108649916Y-63857142D01*
X108602297Y-63904761D01*
X108507059Y-63952380D01*
X108364202Y-63952380D01*
X109268964Y-63952380D02*
X109173726Y-63904761D01*
X109126107Y-63857142D01*
X109078488Y-63761904D01*
X109078488Y-63476190D01*
X109126107Y-63380952D01*
X109173726Y-63333333D01*
X109268964Y-63285714D01*
X109411821Y-63285714D01*
X109507059Y-63333333D01*
X109554678Y-63380952D01*
X109602297Y-63476190D01*
X109602297Y-63761904D01*
X109554678Y-63857142D01*
X109507059Y-63904761D01*
X109411821Y-63952380D01*
X109268964Y-63952380D01*
X110459440Y-63952380D02*
X110459440Y-62952380D01*
X110459440Y-63904761D02*
X110364202Y-63952380D01*
X110173726Y-63952380D01*
X110078488Y-63904761D01*
X110030869Y-63857142D01*
X109983250Y-63761904D01*
X109983250Y-63476190D01*
X110030869Y-63380952D01*
X110078488Y-63333333D01*
X110173726Y-63285714D01*
X110364202Y-63285714D01*
X110459440Y-63333333D01*
X110888011Y-63904761D02*
X110983250Y-63952380D01*
X111173726Y-63952380D01*
X111268964Y-63904761D01*
X111316583Y-63809523D01*
X111316583Y-63761904D01*
X111268964Y-63666666D01*
X111173726Y-63619047D01*
X111030869Y-63619047D01*
X110935630Y-63571428D01*
X110888011Y-63476190D01*
X110888011Y-63428571D01*
X110935630Y-63333333D01*
X111030869Y-63285714D01*
X111173726Y-63285714D01*
X111268964Y-63333333D01*
X111745154Y-63285714D02*
X111745154Y-64285714D01*
X111745154Y-63333333D02*
X111840392Y-63285714D01*
X112030869Y-63285714D01*
X112126107Y-63333333D01*
X112173726Y-63380952D01*
X112221345Y-63476190D01*
X112221345Y-63761904D01*
X112173726Y-63857142D01*
X112126107Y-63904761D01*
X112030869Y-63952380D01*
X111840392Y-63952380D01*
X111745154Y-63904761D01*
X113030869Y-63904761D02*
X112935630Y-63952380D01*
X112745154Y-63952380D01*
X112649916Y-63904761D01*
X112602297Y-63809523D01*
X112602297Y-63428571D01*
X112649916Y-63333333D01*
X112745154Y-63285714D01*
X112935630Y-63285714D01*
X113030869Y-63333333D01*
X113078488Y-63428571D01*
X113078488Y-63523809D01*
X112602297Y-63619047D01*
X113888011Y-63904761D02*
X113792773Y-63952380D01*
X113602297Y-63952380D01*
X113507059Y-63904761D01*
X113459440Y-63809523D01*
X113459440Y-63428571D01*
X113507059Y-63333333D01*
X113602297Y-63285714D01*
X113792773Y-63285714D01*
X113888011Y-63333333D01*
X113935630Y-63428571D01*
X113935630Y-63523809D01*
X113459440Y-63619047D01*
X114792773Y-63952380D02*
X114792773Y-62952380D01*
X114792773Y-63904761D02*
X114697535Y-63952380D01*
X114507059Y-63952380D01*
X114411821Y-63904761D01*
X114364202Y-63857142D01*
X114316583Y-63761904D01*
X114316583Y-63476190D01*
X114364202Y-63380952D01*
X114411821Y-63333333D01*
X114507059Y-63285714D01*
X114697535Y-63285714D01*
X114792773Y-63333333D01*
X105221345Y-65577380D02*
X105221345Y-64577380D01*
X105792773Y-65577380D02*
X105364202Y-65005952D01*
X105792773Y-64577380D02*
X105221345Y-65148809D01*
X106221345Y-65577380D02*
X106221345Y-64577380D01*
X106792773Y-65577380D02*
X106364202Y-65005952D01*
X106792773Y-64577380D02*
X106221345Y-65148809D01*
X107649916Y-64910714D02*
X107649916Y-65577380D01*
X107411821Y-64529761D02*
X107173726Y-65244047D01*
X107792773Y-65244047D01*
X108030869Y-64577380D02*
X108364202Y-65577380D01*
X108697535Y-64577380D01*
X109602297Y-65482142D02*
X109554678Y-65529761D01*
X109411821Y-65577380D01*
X109316583Y-65577380D01*
X109173726Y-65529761D01*
X109078488Y-65434523D01*
X109030869Y-65339285D01*
X108983250Y-65148809D01*
X108983250Y-65005952D01*
X109030869Y-64815476D01*
X109078488Y-64720238D01*
X109173726Y-64625000D01*
X109316583Y-64577380D01*
X109411821Y-64577380D01*
X109554678Y-64625000D01*
X109602297Y-64672619D01*
X109935630Y-64577380D02*
X110602297Y-64577380D01*
X109935630Y-65577380D01*
X110602297Y-65577380D01*
X98996571Y-85451190D02*
X99282285Y-85451190D01*
X99139428Y-85951190D02*
X99139428Y-85451190D01*
X99425142Y-85927380D02*
X99496571Y-85951190D01*
X99615619Y-85951190D01*
X99663238Y-85927380D01*
X99687047Y-85903571D01*
X99710857Y-85855952D01*
X99710857Y-85808333D01*
X99687047Y-85760714D01*
X99663238Y-85736904D01*
X99615619Y-85713095D01*
X99520380Y-85689285D01*
X99472761Y-85665476D01*
X99448952Y-85641666D01*
X99425142Y-85594047D01*
X99425142Y-85546428D01*
X99448952Y-85498809D01*
X99472761Y-85475000D01*
X99520380Y-85451190D01*
X99639428Y-85451190D01*
X99710857Y-85475000D01*
X99853714Y-85451190D02*
X100139428Y-85451190D01*
X99996571Y-85951190D02*
X99996571Y-85451190D01*
X96984428Y-83871571D02*
X97008238Y-83895380D01*
X96984428Y-83919190D01*
X96960619Y-83895380D01*
X96984428Y-83871571D01*
X96984428Y-83919190D01*
X96984428Y-83728714D02*
X96960619Y-83443000D01*
X96984428Y-83419190D01*
X97008238Y-83443000D01*
X96984428Y-83728714D01*
X96984428Y-83419190D01*
X97508238Y-83919190D02*
X97341571Y-83681095D01*
X97222523Y-83919190D02*
X97222523Y-83419190D01*
X97413000Y-83419190D01*
X97460619Y-83443000D01*
X97484428Y-83466809D01*
X97508238Y-83514428D01*
X97508238Y-83585857D01*
X97484428Y-83633476D01*
X97460619Y-83657285D01*
X97413000Y-83681095D01*
X97222523Y-83681095D01*
X97698714Y-83895380D02*
X97770142Y-83919190D01*
X97889190Y-83919190D01*
X97936809Y-83895380D01*
X97960619Y-83871571D01*
X97984428Y-83823952D01*
X97984428Y-83776333D01*
X97960619Y-83728714D01*
X97936809Y-83704904D01*
X97889190Y-83681095D01*
X97793952Y-83657285D01*
X97746333Y-83633476D01*
X97722523Y-83609666D01*
X97698714Y-83562047D01*
X97698714Y-83514428D01*
X97722523Y-83466809D01*
X97746333Y-83443000D01*
X97793952Y-83419190D01*
X97913000Y-83419190D01*
X97984428Y-83443000D01*
X98127285Y-83419190D02*
X98413000Y-83419190D01*
X98270142Y-83919190D02*
X98270142Y-83419190D01*
D11*
G04 #@! TO.C,U3*
X100215000Y-77343000D02*
X100465000Y-77343000D01*
G04 #@! TO.C,U2*
X100000000Y-79550000D02*
X100000000Y-79300000D01*
G04 #@! TO.C,Y2*
X100800000Y-73525000D02*
X101800000Y-73525000D01*
X101800000Y-73525000D02*
X101800000Y-74525000D01*
X101850000Y-75925000D02*
X98950000Y-75925000D01*
G04 #@! TO.C,U1*
X112500000Y-81250000D02*
X111850000Y-81900000D01*
X103350000Y-81900000D02*
X102700000Y-81900000D01*
X102700000Y-81900000D02*
X102700000Y-81250000D01*
X111850000Y-72100000D02*
X112500000Y-72100000D01*
X112500000Y-72100000D02*
X112500000Y-72750000D01*
X103350000Y-72100000D02*
X102700000Y-72100000D01*
X102700000Y-72100000D02*
X102700000Y-72750000D01*
G04 #@! TO.C,C2*
D10*
X115716666Y-75378571D02*
X115692857Y-75402380D01*
X115621428Y-75426190D01*
X115573809Y-75426190D01*
X115502380Y-75402380D01*
X115454761Y-75354761D01*
X115430952Y-75307142D01*
X115407142Y-75211904D01*
X115407142Y-75140476D01*
X115430952Y-75045238D01*
X115454761Y-74997619D01*
X115502380Y-74950000D01*
X115573809Y-74926190D01*
X115621428Y-74926190D01*
X115692857Y-74950000D01*
X115716666Y-74973809D01*
X115907142Y-74973809D02*
X115930952Y-74950000D01*
X115978571Y-74926190D01*
X116097619Y-74926190D01*
X116145238Y-74950000D01*
X116169047Y-74973809D01*
X116192857Y-75021428D01*
X116192857Y-75069047D01*
X116169047Y-75140476D01*
X115883333Y-75426190D01*
X116192857Y-75426190D01*
G04 #@! TO.C,C5*
X115716666Y-76478571D02*
X115692857Y-76502380D01*
X115621428Y-76526190D01*
X115573809Y-76526190D01*
X115502380Y-76502380D01*
X115454761Y-76454761D01*
X115430952Y-76407142D01*
X115407142Y-76311904D01*
X115407142Y-76240476D01*
X115430952Y-76145238D01*
X115454761Y-76097619D01*
X115502380Y-76050000D01*
X115573809Y-76026190D01*
X115621428Y-76026190D01*
X115692857Y-76050000D01*
X115716666Y-76073809D01*
X116169047Y-76026190D02*
X115930952Y-76026190D01*
X115907142Y-76264285D01*
X115930952Y-76240476D01*
X115978571Y-76216666D01*
X116097619Y-76216666D01*
X116145238Y-76240476D01*
X116169047Y-76264285D01*
X116192857Y-76311904D01*
X116192857Y-76430952D01*
X116169047Y-76478571D01*
X116145238Y-76502380D01*
X116097619Y-76526190D01*
X115978571Y-76526190D01*
X115930952Y-76502380D01*
X115907142Y-76478571D01*
G04 #@! TO.C,C6*
X100516666Y-72378571D02*
X100492857Y-72402380D01*
X100421428Y-72426190D01*
X100373809Y-72426190D01*
X100302380Y-72402380D01*
X100254761Y-72354761D01*
X100230952Y-72307142D01*
X100207142Y-72211904D01*
X100207142Y-72140476D01*
X100230952Y-72045238D01*
X100254761Y-71997619D01*
X100302380Y-71950000D01*
X100373809Y-71926190D01*
X100421428Y-71926190D01*
X100492857Y-71950000D01*
X100516666Y-71973809D01*
X100945238Y-71926190D02*
X100850000Y-71926190D01*
X100802380Y-71950000D01*
X100778571Y-71973809D01*
X100730952Y-72045238D01*
X100707142Y-72140476D01*
X100707142Y-72330952D01*
X100730952Y-72378571D01*
X100754761Y-72402380D01*
X100802380Y-72426190D01*
X100897619Y-72426190D01*
X100945238Y-72402380D01*
X100969047Y-72378571D01*
X100992857Y-72330952D01*
X100992857Y-72211904D01*
X100969047Y-72164285D01*
X100945238Y-72140476D01*
X100897619Y-72116666D01*
X100802380Y-72116666D01*
X100754761Y-72140476D01*
X100730952Y-72164285D01*
X100707142Y-72211904D01*
G04 #@! TO.C,C7*
X97778571Y-75083333D02*
X97802380Y-75107142D01*
X97826190Y-75178571D01*
X97826190Y-75226190D01*
X97802380Y-75297619D01*
X97754761Y-75345238D01*
X97707142Y-75369047D01*
X97611904Y-75392857D01*
X97540476Y-75392857D01*
X97445238Y-75369047D01*
X97397619Y-75345238D01*
X97350000Y-75297619D01*
X97326190Y-75226190D01*
X97326190Y-75178571D01*
X97350000Y-75107142D01*
X97373809Y-75083333D01*
X97326190Y-74916666D02*
X97326190Y-74583333D01*
X97826190Y-74797619D01*
G04 #@! TO.C,C10*
X98078571Y-81378571D02*
X98054761Y-81402380D01*
X97983333Y-81426190D01*
X97935714Y-81426190D01*
X97864285Y-81402380D01*
X97816666Y-81354761D01*
X97792857Y-81307142D01*
X97769047Y-81211904D01*
X97769047Y-81140476D01*
X97792857Y-81045238D01*
X97816666Y-80997619D01*
X97864285Y-80950000D01*
X97935714Y-80926190D01*
X97983333Y-80926190D01*
X98054761Y-80950000D01*
X98078571Y-80973809D01*
X98554761Y-81426190D02*
X98269047Y-81426190D01*
X98411904Y-81426190D02*
X98411904Y-80926190D01*
X98364285Y-80997619D01*
X98316666Y-81045238D01*
X98269047Y-81069047D01*
X98864285Y-80926190D02*
X98911904Y-80926190D01*
X98959523Y-80950000D01*
X98983333Y-80973809D01*
X99007142Y-81021428D01*
X99030952Y-81116666D01*
X99030952Y-81235714D01*
X99007142Y-81330952D01*
X98983333Y-81378571D01*
X98959523Y-81402380D01*
X98911904Y-81426190D01*
X98864285Y-81426190D01*
X98816666Y-81402380D01*
X98792857Y-81378571D01*
X98769047Y-81330952D01*
X98745238Y-81235714D01*
X98745238Y-81116666D01*
X98769047Y-81021428D01*
X98792857Y-80973809D01*
X98816666Y-80950000D01*
X98864285Y-80926190D01*
G04 #@! TO.C,R1*
X101416666Y-83126190D02*
X101250000Y-82888095D01*
X101130952Y-83126190D02*
X101130952Y-82626190D01*
X101321428Y-82626190D01*
X101369047Y-82650000D01*
X101392857Y-82673809D01*
X101416666Y-82721428D01*
X101416666Y-82792857D01*
X101392857Y-82840476D01*
X101369047Y-82864285D01*
X101321428Y-82888095D01*
X101130952Y-82888095D01*
X101892857Y-83126190D02*
X101607142Y-83126190D01*
X101750000Y-83126190D02*
X101750000Y-82626190D01*
X101702380Y-82697619D01*
X101654761Y-82745238D01*
X101607142Y-82769047D01*
G04 #@! TO.C,R2*
X101816666Y-80926190D02*
X101650000Y-80688095D01*
X101530952Y-80926190D02*
X101530952Y-80426190D01*
X101721428Y-80426190D01*
X101769047Y-80450000D01*
X101792857Y-80473809D01*
X101816666Y-80521428D01*
X101816666Y-80592857D01*
X101792857Y-80640476D01*
X101769047Y-80664285D01*
X101721428Y-80688095D01*
X101530952Y-80688095D01*
X102007142Y-80473809D02*
X102030952Y-80450000D01*
X102078571Y-80426190D01*
X102197619Y-80426190D01*
X102245238Y-80450000D01*
X102269047Y-80473809D01*
X102292857Y-80521428D01*
X102292857Y-80569047D01*
X102269047Y-80640476D01*
X101983333Y-80926190D01*
X102292857Y-80926190D01*
G04 #@! TO.C,U3*
X99019047Y-77026190D02*
X99019047Y-77430952D01*
X99042857Y-77478571D01*
X99066666Y-77502380D01*
X99114285Y-77526190D01*
X99209523Y-77526190D01*
X99257142Y-77502380D01*
X99280952Y-77478571D01*
X99304761Y-77430952D01*
X99304761Y-77026190D01*
X99495238Y-77026190D02*
X99804761Y-77026190D01*
X99638095Y-77216666D01*
X99709523Y-77216666D01*
X99757142Y-77240476D01*
X99780952Y-77264285D01*
X99804761Y-77311904D01*
X99804761Y-77430952D01*
X99780952Y-77478571D01*
X99757142Y-77502380D01*
X99709523Y-77526190D01*
X99566666Y-77526190D01*
X99519047Y-77502380D01*
X99495238Y-77478571D01*
G04 #@! TO.C,U2*
X98719047Y-78126190D02*
X98719047Y-78530952D01*
X98742857Y-78578571D01*
X98766666Y-78602380D01*
X98814285Y-78626190D01*
X98909523Y-78626190D01*
X98957142Y-78602380D01*
X98980952Y-78578571D01*
X99004761Y-78530952D01*
X99004761Y-78126190D01*
X99219047Y-78173809D02*
X99242857Y-78150000D01*
X99290476Y-78126190D01*
X99409523Y-78126190D01*
X99457142Y-78150000D01*
X99480952Y-78173809D01*
X99504761Y-78221428D01*
X99504761Y-78269047D01*
X99480952Y-78340476D01*
X99195238Y-78626190D01*
X99504761Y-78626190D01*
G04 #@! TO.C,Y2*
X99061904Y-76388095D02*
X99061904Y-76626190D01*
X98895238Y-76126190D02*
X99061904Y-76388095D01*
X99228571Y-76126190D01*
X99371428Y-76173809D02*
X99395238Y-76150000D01*
X99442857Y-76126190D01*
X99561904Y-76126190D01*
X99609523Y-76150000D01*
X99633333Y-76173809D01*
X99657142Y-76221428D01*
X99657142Y-76269047D01*
X99633333Y-76340476D01*
X99347619Y-76626190D01*
X99657142Y-76626190D01*
G04 #@! TO.C,C4*
X115416666Y-78978571D02*
X115392857Y-79002380D01*
X115321428Y-79026190D01*
X115273809Y-79026190D01*
X115202380Y-79002380D01*
X115154761Y-78954761D01*
X115130952Y-78907142D01*
X115107142Y-78811904D01*
X115107142Y-78740476D01*
X115130952Y-78645238D01*
X115154761Y-78597619D01*
X115202380Y-78550000D01*
X115273809Y-78526190D01*
X115321428Y-78526190D01*
X115392857Y-78550000D01*
X115416666Y-78573809D01*
X115845238Y-78692857D02*
X115845238Y-79026190D01*
X115726190Y-78502380D02*
X115607142Y-78859523D01*
X115916666Y-78859523D01*
G04 #@! TD*
M02*
