G04 #@! TF.GenerationSoftware,KiCad,Pcbnew,5.0.0+dfsg1-2*
G04 #@! TF.CreationDate,2018-09-16T15:45:03-04:00*
G04 #@! TF.ProjectId,goodwatch30,676F6F64776174636833302E6B696361,30*
G04 #@! TF.SameCoordinates,Original*
G04 #@! TF.FileFunction,Copper,L1,Top,Signal*
G04 #@! TF.FilePolarity,Positive*
%FSLAX46Y46*%
G04 Gerber Fmt 4.6, Leading zero omitted, Abs format (unit mm)*
G04 Created by KiCad (PCBNEW 5.0.0+dfsg1-2) date Sun Sep 16 15:45:03 2018*
%MOMM*%
%LPD*%
G01*
G04 APERTURE LIST*
G04 #@! TA.AperFunction,Conductor*
%ADD10C,0.100000*%
G04 #@! TD*
G04 #@! TA.AperFunction,SMDPad,CuDef*
%ADD11C,0.590000*%
G04 #@! TD*
G04 #@! TA.AperFunction,ComponentPad*
%ADD12C,1.524000*%
G04 #@! TD*
G04 #@! TA.AperFunction,ComponentPad*
%ADD13O,1.200000X2.700000*%
G04 #@! TD*
G04 #@! TA.AperFunction,ConnectorPad*
%ADD14R,0.985000X1.750000*%
G04 #@! TD*
G04 #@! TA.AperFunction,ConnectorPad*
%ADD15R,0.310000X1.750000*%
G04 #@! TD*
G04 #@! TA.AperFunction,SMDPad,CuDef*
%ADD16C,0.330000*%
G04 #@! TD*
G04 #@! TA.AperFunction,SMDPad,CuDef*
%ADD17C,0.350000*%
G04 #@! TD*
G04 #@! TA.AperFunction,SMDPad,CuDef*
%ADD18C,0.850000*%
G04 #@! TD*
G04 #@! TA.AperFunction,SMDPad,CuDef*
%ADD19O,0.800000X0.250000*%
G04 #@! TD*
G04 #@! TA.AperFunction,SMDPad,CuDef*
%ADD20O,0.250000X0.800000*%
G04 #@! TD*
G04 #@! TA.AperFunction,SMDPad,CuDef*
%ADD21R,4.250000X4.250000*%
G04 #@! TD*
G04 #@! TA.AperFunction,ViaPad*
%ADD22C,0.500000*%
G04 #@! TD*
G04 #@! TA.AperFunction,Conductor*
%ADD23C,0.150000*%
G04 #@! TD*
G04 APERTURE END LIST*
D10*
G04 #@! TO.N,GND*
G04 #@! TO.C,C2*
G36*
X114899958Y-74904710D02*
X114914276Y-74906834D01*
X114928317Y-74910351D01*
X114941946Y-74915228D01*
X114955031Y-74921417D01*
X114967447Y-74928858D01*
X114979073Y-74937481D01*
X114989798Y-74947202D01*
X114999519Y-74957927D01*
X115008142Y-74969553D01*
X115015583Y-74981969D01*
X115021772Y-74995054D01*
X115026649Y-75008683D01*
X115030166Y-75022724D01*
X115032290Y-75037042D01*
X115033000Y-75051500D01*
X115033000Y-75396500D01*
X115032290Y-75410958D01*
X115030166Y-75425276D01*
X115026649Y-75439317D01*
X115021772Y-75452946D01*
X115015583Y-75466031D01*
X115008142Y-75478447D01*
X114999519Y-75490073D01*
X114989798Y-75500798D01*
X114979073Y-75510519D01*
X114967447Y-75519142D01*
X114955031Y-75526583D01*
X114941946Y-75532772D01*
X114928317Y-75537649D01*
X114914276Y-75541166D01*
X114899958Y-75543290D01*
X114885500Y-75544000D01*
X114590500Y-75544000D01*
X114576042Y-75543290D01*
X114561724Y-75541166D01*
X114547683Y-75537649D01*
X114534054Y-75532772D01*
X114520969Y-75526583D01*
X114508553Y-75519142D01*
X114496927Y-75510519D01*
X114486202Y-75500798D01*
X114476481Y-75490073D01*
X114467858Y-75478447D01*
X114460417Y-75466031D01*
X114454228Y-75452946D01*
X114449351Y-75439317D01*
X114445834Y-75425276D01*
X114443710Y-75410958D01*
X114443000Y-75396500D01*
X114443000Y-75051500D01*
X114443710Y-75037042D01*
X114445834Y-75022724D01*
X114449351Y-75008683D01*
X114454228Y-74995054D01*
X114460417Y-74981969D01*
X114467858Y-74969553D01*
X114476481Y-74957927D01*
X114486202Y-74947202D01*
X114496927Y-74937481D01*
X114508553Y-74928858D01*
X114520969Y-74921417D01*
X114534054Y-74915228D01*
X114547683Y-74910351D01*
X114561724Y-74906834D01*
X114576042Y-74904710D01*
X114590500Y-74904000D01*
X114885500Y-74904000D01*
X114899958Y-74904710D01*
X114899958Y-74904710D01*
G37*
D11*
G04 #@! TD*
G04 #@! TO.P,C2,2*
G04 #@! TO.N,GND*
X114738000Y-75224000D03*
D10*
G04 #@! TO.N,VCC*
G04 #@! TO.C,C2*
G36*
X113929958Y-74904710D02*
X113944276Y-74906834D01*
X113958317Y-74910351D01*
X113971946Y-74915228D01*
X113985031Y-74921417D01*
X113997447Y-74928858D01*
X114009073Y-74937481D01*
X114019798Y-74947202D01*
X114029519Y-74957927D01*
X114038142Y-74969553D01*
X114045583Y-74981969D01*
X114051772Y-74995054D01*
X114056649Y-75008683D01*
X114060166Y-75022724D01*
X114062290Y-75037042D01*
X114063000Y-75051500D01*
X114063000Y-75396500D01*
X114062290Y-75410958D01*
X114060166Y-75425276D01*
X114056649Y-75439317D01*
X114051772Y-75452946D01*
X114045583Y-75466031D01*
X114038142Y-75478447D01*
X114029519Y-75490073D01*
X114019798Y-75500798D01*
X114009073Y-75510519D01*
X113997447Y-75519142D01*
X113985031Y-75526583D01*
X113971946Y-75532772D01*
X113958317Y-75537649D01*
X113944276Y-75541166D01*
X113929958Y-75543290D01*
X113915500Y-75544000D01*
X113620500Y-75544000D01*
X113606042Y-75543290D01*
X113591724Y-75541166D01*
X113577683Y-75537649D01*
X113564054Y-75532772D01*
X113550969Y-75526583D01*
X113538553Y-75519142D01*
X113526927Y-75510519D01*
X113516202Y-75500798D01*
X113506481Y-75490073D01*
X113497858Y-75478447D01*
X113490417Y-75466031D01*
X113484228Y-75452946D01*
X113479351Y-75439317D01*
X113475834Y-75425276D01*
X113473710Y-75410958D01*
X113473000Y-75396500D01*
X113473000Y-75051500D01*
X113473710Y-75037042D01*
X113475834Y-75022724D01*
X113479351Y-75008683D01*
X113484228Y-74995054D01*
X113490417Y-74981969D01*
X113497858Y-74969553D01*
X113506481Y-74957927D01*
X113516202Y-74947202D01*
X113526927Y-74937481D01*
X113538553Y-74928858D01*
X113550969Y-74921417D01*
X113564054Y-74915228D01*
X113577683Y-74910351D01*
X113591724Y-74906834D01*
X113606042Y-74904710D01*
X113620500Y-74904000D01*
X113915500Y-74904000D01*
X113929958Y-74904710D01*
X113929958Y-74904710D01*
G37*
D11*
G04 #@! TD*
G04 #@! TO.P,C2,1*
G04 #@! TO.N,VCC*
X113768000Y-75224000D03*
D10*
G04 #@! TO.N,/VCORE*
G04 #@! TO.C,C5*
G36*
X113929958Y-75920710D02*
X113944276Y-75922834D01*
X113958317Y-75926351D01*
X113971946Y-75931228D01*
X113985031Y-75937417D01*
X113997447Y-75944858D01*
X114009073Y-75953481D01*
X114019798Y-75963202D01*
X114029519Y-75973927D01*
X114038142Y-75985553D01*
X114045583Y-75997969D01*
X114051772Y-76011054D01*
X114056649Y-76024683D01*
X114060166Y-76038724D01*
X114062290Y-76053042D01*
X114063000Y-76067500D01*
X114063000Y-76412500D01*
X114062290Y-76426958D01*
X114060166Y-76441276D01*
X114056649Y-76455317D01*
X114051772Y-76468946D01*
X114045583Y-76482031D01*
X114038142Y-76494447D01*
X114029519Y-76506073D01*
X114019798Y-76516798D01*
X114009073Y-76526519D01*
X113997447Y-76535142D01*
X113985031Y-76542583D01*
X113971946Y-76548772D01*
X113958317Y-76553649D01*
X113944276Y-76557166D01*
X113929958Y-76559290D01*
X113915500Y-76560000D01*
X113620500Y-76560000D01*
X113606042Y-76559290D01*
X113591724Y-76557166D01*
X113577683Y-76553649D01*
X113564054Y-76548772D01*
X113550969Y-76542583D01*
X113538553Y-76535142D01*
X113526927Y-76526519D01*
X113516202Y-76516798D01*
X113506481Y-76506073D01*
X113497858Y-76494447D01*
X113490417Y-76482031D01*
X113484228Y-76468946D01*
X113479351Y-76455317D01*
X113475834Y-76441276D01*
X113473710Y-76426958D01*
X113473000Y-76412500D01*
X113473000Y-76067500D01*
X113473710Y-76053042D01*
X113475834Y-76038724D01*
X113479351Y-76024683D01*
X113484228Y-76011054D01*
X113490417Y-75997969D01*
X113497858Y-75985553D01*
X113506481Y-75973927D01*
X113516202Y-75963202D01*
X113526927Y-75953481D01*
X113538553Y-75944858D01*
X113550969Y-75937417D01*
X113564054Y-75931228D01*
X113577683Y-75926351D01*
X113591724Y-75922834D01*
X113606042Y-75920710D01*
X113620500Y-75920000D01*
X113915500Y-75920000D01*
X113929958Y-75920710D01*
X113929958Y-75920710D01*
G37*
D11*
G04 #@! TD*
G04 #@! TO.P,C5,1*
G04 #@! TO.N,/VCORE*
X113768000Y-76240000D03*
D10*
G04 #@! TO.N,GND*
G04 #@! TO.C,C5*
G36*
X114899958Y-75920710D02*
X114914276Y-75922834D01*
X114928317Y-75926351D01*
X114941946Y-75931228D01*
X114955031Y-75937417D01*
X114967447Y-75944858D01*
X114979073Y-75953481D01*
X114989798Y-75963202D01*
X114999519Y-75973927D01*
X115008142Y-75985553D01*
X115015583Y-75997969D01*
X115021772Y-76011054D01*
X115026649Y-76024683D01*
X115030166Y-76038724D01*
X115032290Y-76053042D01*
X115033000Y-76067500D01*
X115033000Y-76412500D01*
X115032290Y-76426958D01*
X115030166Y-76441276D01*
X115026649Y-76455317D01*
X115021772Y-76468946D01*
X115015583Y-76482031D01*
X115008142Y-76494447D01*
X114999519Y-76506073D01*
X114989798Y-76516798D01*
X114979073Y-76526519D01*
X114967447Y-76535142D01*
X114955031Y-76542583D01*
X114941946Y-76548772D01*
X114928317Y-76553649D01*
X114914276Y-76557166D01*
X114899958Y-76559290D01*
X114885500Y-76560000D01*
X114590500Y-76560000D01*
X114576042Y-76559290D01*
X114561724Y-76557166D01*
X114547683Y-76553649D01*
X114534054Y-76548772D01*
X114520969Y-76542583D01*
X114508553Y-76535142D01*
X114496927Y-76526519D01*
X114486202Y-76516798D01*
X114476481Y-76506073D01*
X114467858Y-76494447D01*
X114460417Y-76482031D01*
X114454228Y-76468946D01*
X114449351Y-76455317D01*
X114445834Y-76441276D01*
X114443710Y-76426958D01*
X114443000Y-76412500D01*
X114443000Y-76067500D01*
X114443710Y-76053042D01*
X114445834Y-76038724D01*
X114449351Y-76024683D01*
X114454228Y-76011054D01*
X114460417Y-75997969D01*
X114467858Y-75985553D01*
X114476481Y-75973927D01*
X114486202Y-75963202D01*
X114496927Y-75953481D01*
X114508553Y-75944858D01*
X114520969Y-75937417D01*
X114534054Y-75931228D01*
X114547683Y-75926351D01*
X114561724Y-75922834D01*
X114576042Y-75920710D01*
X114590500Y-75920000D01*
X114885500Y-75920000D01*
X114899958Y-75920710D01*
X114899958Y-75920710D01*
G37*
D11*
G04 #@! TD*
G04 #@! TO.P,C5,2*
G04 #@! TO.N,GND*
X114738000Y-76240000D03*
D10*
G04 #@! TO.N,GND*
G04 #@! TO.C,C6*
G36*
X100676958Y-72720310D02*
X100691276Y-72722434D01*
X100705317Y-72725951D01*
X100718946Y-72730828D01*
X100732031Y-72737017D01*
X100744447Y-72744458D01*
X100756073Y-72753081D01*
X100766798Y-72762802D01*
X100776519Y-72773527D01*
X100785142Y-72785153D01*
X100792583Y-72797569D01*
X100798772Y-72810654D01*
X100803649Y-72824283D01*
X100807166Y-72838324D01*
X100809290Y-72852642D01*
X100810000Y-72867100D01*
X100810000Y-73212100D01*
X100809290Y-73226558D01*
X100807166Y-73240876D01*
X100803649Y-73254917D01*
X100798772Y-73268546D01*
X100792583Y-73281631D01*
X100785142Y-73294047D01*
X100776519Y-73305673D01*
X100766798Y-73316398D01*
X100756073Y-73326119D01*
X100744447Y-73334742D01*
X100732031Y-73342183D01*
X100718946Y-73348372D01*
X100705317Y-73353249D01*
X100691276Y-73356766D01*
X100676958Y-73358890D01*
X100662500Y-73359600D01*
X100367500Y-73359600D01*
X100353042Y-73358890D01*
X100338724Y-73356766D01*
X100324683Y-73353249D01*
X100311054Y-73348372D01*
X100297969Y-73342183D01*
X100285553Y-73334742D01*
X100273927Y-73326119D01*
X100263202Y-73316398D01*
X100253481Y-73305673D01*
X100244858Y-73294047D01*
X100237417Y-73281631D01*
X100231228Y-73268546D01*
X100226351Y-73254917D01*
X100222834Y-73240876D01*
X100220710Y-73226558D01*
X100220000Y-73212100D01*
X100220000Y-72867100D01*
X100220710Y-72852642D01*
X100222834Y-72838324D01*
X100226351Y-72824283D01*
X100231228Y-72810654D01*
X100237417Y-72797569D01*
X100244858Y-72785153D01*
X100253481Y-72773527D01*
X100263202Y-72762802D01*
X100273927Y-72753081D01*
X100285553Y-72744458D01*
X100297969Y-72737017D01*
X100311054Y-72730828D01*
X100324683Y-72725951D01*
X100338724Y-72722434D01*
X100353042Y-72720310D01*
X100367500Y-72719600D01*
X100662500Y-72719600D01*
X100676958Y-72720310D01*
X100676958Y-72720310D01*
G37*
D11*
G04 #@! TD*
G04 #@! TO.P,C6,2*
G04 #@! TO.N,GND*
X100515000Y-73039600D03*
D10*
G04 #@! TO.N,/RF_XIN*
G04 #@! TO.C,C6*
G36*
X101646958Y-72720310D02*
X101661276Y-72722434D01*
X101675317Y-72725951D01*
X101688946Y-72730828D01*
X101702031Y-72737017D01*
X101714447Y-72744458D01*
X101726073Y-72753081D01*
X101736798Y-72762802D01*
X101746519Y-72773527D01*
X101755142Y-72785153D01*
X101762583Y-72797569D01*
X101768772Y-72810654D01*
X101773649Y-72824283D01*
X101777166Y-72838324D01*
X101779290Y-72852642D01*
X101780000Y-72867100D01*
X101780000Y-73212100D01*
X101779290Y-73226558D01*
X101777166Y-73240876D01*
X101773649Y-73254917D01*
X101768772Y-73268546D01*
X101762583Y-73281631D01*
X101755142Y-73294047D01*
X101746519Y-73305673D01*
X101736798Y-73316398D01*
X101726073Y-73326119D01*
X101714447Y-73334742D01*
X101702031Y-73342183D01*
X101688946Y-73348372D01*
X101675317Y-73353249D01*
X101661276Y-73356766D01*
X101646958Y-73358890D01*
X101632500Y-73359600D01*
X101337500Y-73359600D01*
X101323042Y-73358890D01*
X101308724Y-73356766D01*
X101294683Y-73353249D01*
X101281054Y-73348372D01*
X101267969Y-73342183D01*
X101255553Y-73334742D01*
X101243927Y-73326119D01*
X101233202Y-73316398D01*
X101223481Y-73305673D01*
X101214858Y-73294047D01*
X101207417Y-73281631D01*
X101201228Y-73268546D01*
X101196351Y-73254917D01*
X101192834Y-73240876D01*
X101190710Y-73226558D01*
X101190000Y-73212100D01*
X101190000Y-72867100D01*
X101190710Y-72852642D01*
X101192834Y-72838324D01*
X101196351Y-72824283D01*
X101201228Y-72810654D01*
X101207417Y-72797569D01*
X101214858Y-72785153D01*
X101223481Y-72773527D01*
X101233202Y-72762802D01*
X101243927Y-72753081D01*
X101255553Y-72744458D01*
X101267969Y-72737017D01*
X101281054Y-72730828D01*
X101294683Y-72725951D01*
X101308724Y-72722434D01*
X101323042Y-72720310D01*
X101337500Y-72719600D01*
X101632500Y-72719600D01*
X101646958Y-72720310D01*
X101646958Y-72720310D01*
G37*
D11*
G04 #@! TD*
G04 #@! TO.P,C6,1*
G04 #@! TO.N,/RF_XIN*
X101485000Y-73039600D03*
D10*
G04 #@! TO.N,/RF_XOUT*
G04 #@! TO.C,C7*
G36*
X98666558Y-75190710D02*
X98680876Y-75192834D01*
X98694917Y-75196351D01*
X98708546Y-75201228D01*
X98721631Y-75207417D01*
X98734047Y-75214858D01*
X98745673Y-75223481D01*
X98756398Y-75233202D01*
X98766119Y-75243927D01*
X98774742Y-75255553D01*
X98782183Y-75267969D01*
X98788372Y-75281054D01*
X98793249Y-75294683D01*
X98796766Y-75308724D01*
X98798890Y-75323042D01*
X98799600Y-75337500D01*
X98799600Y-75632500D01*
X98798890Y-75646958D01*
X98796766Y-75661276D01*
X98793249Y-75675317D01*
X98788372Y-75688946D01*
X98782183Y-75702031D01*
X98774742Y-75714447D01*
X98766119Y-75726073D01*
X98756398Y-75736798D01*
X98745673Y-75746519D01*
X98734047Y-75755142D01*
X98721631Y-75762583D01*
X98708546Y-75768772D01*
X98694917Y-75773649D01*
X98680876Y-75777166D01*
X98666558Y-75779290D01*
X98652100Y-75780000D01*
X98307100Y-75780000D01*
X98292642Y-75779290D01*
X98278324Y-75777166D01*
X98264283Y-75773649D01*
X98250654Y-75768772D01*
X98237569Y-75762583D01*
X98225153Y-75755142D01*
X98213527Y-75746519D01*
X98202802Y-75736798D01*
X98193081Y-75726073D01*
X98184458Y-75714447D01*
X98177017Y-75702031D01*
X98170828Y-75688946D01*
X98165951Y-75675317D01*
X98162434Y-75661276D01*
X98160310Y-75646958D01*
X98159600Y-75632500D01*
X98159600Y-75337500D01*
X98160310Y-75323042D01*
X98162434Y-75308724D01*
X98165951Y-75294683D01*
X98170828Y-75281054D01*
X98177017Y-75267969D01*
X98184458Y-75255553D01*
X98193081Y-75243927D01*
X98202802Y-75233202D01*
X98213527Y-75223481D01*
X98225153Y-75214858D01*
X98237569Y-75207417D01*
X98250654Y-75201228D01*
X98264283Y-75196351D01*
X98278324Y-75192834D01*
X98292642Y-75190710D01*
X98307100Y-75190000D01*
X98652100Y-75190000D01*
X98666558Y-75190710D01*
X98666558Y-75190710D01*
G37*
D11*
G04 #@! TD*
G04 #@! TO.P,C7,1*
G04 #@! TO.N,/RF_XOUT*
X98479600Y-75485000D03*
D10*
G04 #@! TO.N,GND*
G04 #@! TO.C,C7*
G36*
X98666558Y-74220710D02*
X98680876Y-74222834D01*
X98694917Y-74226351D01*
X98708546Y-74231228D01*
X98721631Y-74237417D01*
X98734047Y-74244858D01*
X98745673Y-74253481D01*
X98756398Y-74263202D01*
X98766119Y-74273927D01*
X98774742Y-74285553D01*
X98782183Y-74297969D01*
X98788372Y-74311054D01*
X98793249Y-74324683D01*
X98796766Y-74338724D01*
X98798890Y-74353042D01*
X98799600Y-74367500D01*
X98799600Y-74662500D01*
X98798890Y-74676958D01*
X98796766Y-74691276D01*
X98793249Y-74705317D01*
X98788372Y-74718946D01*
X98782183Y-74732031D01*
X98774742Y-74744447D01*
X98766119Y-74756073D01*
X98756398Y-74766798D01*
X98745673Y-74776519D01*
X98734047Y-74785142D01*
X98721631Y-74792583D01*
X98708546Y-74798772D01*
X98694917Y-74803649D01*
X98680876Y-74807166D01*
X98666558Y-74809290D01*
X98652100Y-74810000D01*
X98307100Y-74810000D01*
X98292642Y-74809290D01*
X98278324Y-74807166D01*
X98264283Y-74803649D01*
X98250654Y-74798772D01*
X98237569Y-74792583D01*
X98225153Y-74785142D01*
X98213527Y-74776519D01*
X98202802Y-74766798D01*
X98193081Y-74756073D01*
X98184458Y-74744447D01*
X98177017Y-74732031D01*
X98170828Y-74718946D01*
X98165951Y-74705317D01*
X98162434Y-74691276D01*
X98160310Y-74676958D01*
X98159600Y-74662500D01*
X98159600Y-74367500D01*
X98160310Y-74353042D01*
X98162434Y-74338724D01*
X98165951Y-74324683D01*
X98170828Y-74311054D01*
X98177017Y-74297969D01*
X98184458Y-74285553D01*
X98193081Y-74273927D01*
X98202802Y-74263202D01*
X98213527Y-74253481D01*
X98225153Y-74244858D01*
X98237569Y-74237417D01*
X98250654Y-74231228D01*
X98264283Y-74226351D01*
X98278324Y-74222834D01*
X98292642Y-74220710D01*
X98307100Y-74220000D01*
X98652100Y-74220000D01*
X98666558Y-74220710D01*
X98666558Y-74220710D01*
G37*
D11*
G04 #@! TD*
G04 #@! TO.P,C7,2*
G04 #@! TO.N,GND*
X98479600Y-74515000D03*
D10*
G04 #@! TO.N,Net-(C10-Pad1)*
G04 #@! TO.C,C10*
G36*
X100646958Y-81480710D02*
X100661276Y-81482834D01*
X100675317Y-81486351D01*
X100688946Y-81491228D01*
X100702031Y-81497417D01*
X100714447Y-81504858D01*
X100726073Y-81513481D01*
X100736798Y-81523202D01*
X100746519Y-81533927D01*
X100755142Y-81545553D01*
X100762583Y-81557969D01*
X100768772Y-81571054D01*
X100773649Y-81584683D01*
X100777166Y-81598724D01*
X100779290Y-81613042D01*
X100780000Y-81627500D01*
X100780000Y-81972500D01*
X100779290Y-81986958D01*
X100777166Y-82001276D01*
X100773649Y-82015317D01*
X100768772Y-82028946D01*
X100762583Y-82042031D01*
X100755142Y-82054447D01*
X100746519Y-82066073D01*
X100736798Y-82076798D01*
X100726073Y-82086519D01*
X100714447Y-82095142D01*
X100702031Y-82102583D01*
X100688946Y-82108772D01*
X100675317Y-82113649D01*
X100661276Y-82117166D01*
X100646958Y-82119290D01*
X100632500Y-82120000D01*
X100337500Y-82120000D01*
X100323042Y-82119290D01*
X100308724Y-82117166D01*
X100294683Y-82113649D01*
X100281054Y-82108772D01*
X100267969Y-82102583D01*
X100255553Y-82095142D01*
X100243927Y-82086519D01*
X100233202Y-82076798D01*
X100223481Y-82066073D01*
X100214858Y-82054447D01*
X100207417Y-82042031D01*
X100201228Y-82028946D01*
X100196351Y-82015317D01*
X100192834Y-82001276D01*
X100190710Y-81986958D01*
X100190000Y-81972500D01*
X100190000Y-81627500D01*
X100190710Y-81613042D01*
X100192834Y-81598724D01*
X100196351Y-81584683D01*
X100201228Y-81571054D01*
X100207417Y-81557969D01*
X100214858Y-81545553D01*
X100223481Y-81533927D01*
X100233202Y-81523202D01*
X100243927Y-81513481D01*
X100255553Y-81504858D01*
X100267969Y-81497417D01*
X100281054Y-81491228D01*
X100294683Y-81486351D01*
X100308724Y-81482834D01*
X100323042Y-81480710D01*
X100337500Y-81480000D01*
X100632500Y-81480000D01*
X100646958Y-81480710D01*
X100646958Y-81480710D01*
G37*
D11*
G04 #@! TD*
G04 #@! TO.P,C10,1*
G04 #@! TO.N,Net-(C10-Pad1)*
X100485000Y-81800000D03*
D10*
G04 #@! TO.N,Net-(A1-Pad1)*
G04 #@! TO.C,C10*
G36*
X99676958Y-81480710D02*
X99691276Y-81482834D01*
X99705317Y-81486351D01*
X99718946Y-81491228D01*
X99732031Y-81497417D01*
X99744447Y-81504858D01*
X99756073Y-81513481D01*
X99766798Y-81523202D01*
X99776519Y-81533927D01*
X99785142Y-81545553D01*
X99792583Y-81557969D01*
X99798772Y-81571054D01*
X99803649Y-81584683D01*
X99807166Y-81598724D01*
X99809290Y-81613042D01*
X99810000Y-81627500D01*
X99810000Y-81972500D01*
X99809290Y-81986958D01*
X99807166Y-82001276D01*
X99803649Y-82015317D01*
X99798772Y-82028946D01*
X99792583Y-82042031D01*
X99785142Y-82054447D01*
X99776519Y-82066073D01*
X99766798Y-82076798D01*
X99756073Y-82086519D01*
X99744447Y-82095142D01*
X99732031Y-82102583D01*
X99718946Y-82108772D01*
X99705317Y-82113649D01*
X99691276Y-82117166D01*
X99676958Y-82119290D01*
X99662500Y-82120000D01*
X99367500Y-82120000D01*
X99353042Y-82119290D01*
X99338724Y-82117166D01*
X99324683Y-82113649D01*
X99311054Y-82108772D01*
X99297969Y-82102583D01*
X99285553Y-82095142D01*
X99273927Y-82086519D01*
X99263202Y-82076798D01*
X99253481Y-82066073D01*
X99244858Y-82054447D01*
X99237417Y-82042031D01*
X99231228Y-82028946D01*
X99226351Y-82015317D01*
X99222834Y-82001276D01*
X99220710Y-81986958D01*
X99220000Y-81972500D01*
X99220000Y-81627500D01*
X99220710Y-81613042D01*
X99222834Y-81598724D01*
X99226351Y-81584683D01*
X99231228Y-81571054D01*
X99237417Y-81557969D01*
X99244858Y-81545553D01*
X99253481Y-81533927D01*
X99263202Y-81523202D01*
X99273927Y-81513481D01*
X99285553Y-81504858D01*
X99297969Y-81497417D01*
X99311054Y-81491228D01*
X99324683Y-81486351D01*
X99338724Y-81482834D01*
X99353042Y-81480710D01*
X99367500Y-81480000D01*
X99662500Y-81480000D01*
X99676958Y-81480710D01*
X99676958Y-81480710D01*
G37*
D11*
G04 #@! TD*
G04 #@! TO.P,C10,2*
G04 #@! TO.N,Net-(A1-Pad1)*
X99515000Y-81800000D03*
D10*
G04 #@! TO.N,/!RST*
G04 #@! TO.C,R1*
G36*
X99676958Y-82480710D02*
X99691276Y-82482834D01*
X99705317Y-82486351D01*
X99718946Y-82491228D01*
X99732031Y-82497417D01*
X99744447Y-82504858D01*
X99756073Y-82513481D01*
X99766798Y-82523202D01*
X99776519Y-82533927D01*
X99785142Y-82545553D01*
X99792583Y-82557969D01*
X99798772Y-82571054D01*
X99803649Y-82584683D01*
X99807166Y-82598724D01*
X99809290Y-82613042D01*
X99810000Y-82627500D01*
X99810000Y-82972500D01*
X99809290Y-82986958D01*
X99807166Y-83001276D01*
X99803649Y-83015317D01*
X99798772Y-83028946D01*
X99792583Y-83042031D01*
X99785142Y-83054447D01*
X99776519Y-83066073D01*
X99766798Y-83076798D01*
X99756073Y-83086519D01*
X99744447Y-83095142D01*
X99732031Y-83102583D01*
X99718946Y-83108772D01*
X99705317Y-83113649D01*
X99691276Y-83117166D01*
X99676958Y-83119290D01*
X99662500Y-83120000D01*
X99367500Y-83120000D01*
X99353042Y-83119290D01*
X99338724Y-83117166D01*
X99324683Y-83113649D01*
X99311054Y-83108772D01*
X99297969Y-83102583D01*
X99285553Y-83095142D01*
X99273927Y-83086519D01*
X99263202Y-83076798D01*
X99253481Y-83066073D01*
X99244858Y-83054447D01*
X99237417Y-83042031D01*
X99231228Y-83028946D01*
X99226351Y-83015317D01*
X99222834Y-83001276D01*
X99220710Y-82986958D01*
X99220000Y-82972500D01*
X99220000Y-82627500D01*
X99220710Y-82613042D01*
X99222834Y-82598724D01*
X99226351Y-82584683D01*
X99231228Y-82571054D01*
X99237417Y-82557969D01*
X99244858Y-82545553D01*
X99253481Y-82533927D01*
X99263202Y-82523202D01*
X99273927Y-82513481D01*
X99285553Y-82504858D01*
X99297969Y-82497417D01*
X99311054Y-82491228D01*
X99324683Y-82486351D01*
X99338724Y-82482834D01*
X99353042Y-82480710D01*
X99367500Y-82480000D01*
X99662500Y-82480000D01*
X99676958Y-82480710D01*
X99676958Y-82480710D01*
G37*
D11*
G04 #@! TD*
G04 #@! TO.P,R1,2*
G04 #@! TO.N,/!RST*
X99515000Y-82800000D03*
D10*
G04 #@! TO.N,VCC*
G04 #@! TO.C,R1*
G36*
X100646958Y-82480710D02*
X100661276Y-82482834D01*
X100675317Y-82486351D01*
X100688946Y-82491228D01*
X100702031Y-82497417D01*
X100714447Y-82504858D01*
X100726073Y-82513481D01*
X100736798Y-82523202D01*
X100746519Y-82533927D01*
X100755142Y-82545553D01*
X100762583Y-82557969D01*
X100768772Y-82571054D01*
X100773649Y-82584683D01*
X100777166Y-82598724D01*
X100779290Y-82613042D01*
X100780000Y-82627500D01*
X100780000Y-82972500D01*
X100779290Y-82986958D01*
X100777166Y-83001276D01*
X100773649Y-83015317D01*
X100768772Y-83028946D01*
X100762583Y-83042031D01*
X100755142Y-83054447D01*
X100746519Y-83066073D01*
X100736798Y-83076798D01*
X100726073Y-83086519D01*
X100714447Y-83095142D01*
X100702031Y-83102583D01*
X100688946Y-83108772D01*
X100675317Y-83113649D01*
X100661276Y-83117166D01*
X100646958Y-83119290D01*
X100632500Y-83120000D01*
X100337500Y-83120000D01*
X100323042Y-83119290D01*
X100308724Y-83117166D01*
X100294683Y-83113649D01*
X100281054Y-83108772D01*
X100267969Y-83102583D01*
X100255553Y-83095142D01*
X100243927Y-83086519D01*
X100233202Y-83076798D01*
X100223481Y-83066073D01*
X100214858Y-83054447D01*
X100207417Y-83042031D01*
X100201228Y-83028946D01*
X100196351Y-83015317D01*
X100192834Y-83001276D01*
X100190710Y-82986958D01*
X100190000Y-82972500D01*
X100190000Y-82627500D01*
X100190710Y-82613042D01*
X100192834Y-82598724D01*
X100196351Y-82584683D01*
X100201228Y-82571054D01*
X100207417Y-82557969D01*
X100214858Y-82545553D01*
X100223481Y-82533927D01*
X100233202Y-82523202D01*
X100243927Y-82513481D01*
X100255553Y-82504858D01*
X100267969Y-82497417D01*
X100281054Y-82491228D01*
X100294683Y-82486351D01*
X100308724Y-82482834D01*
X100323042Y-82480710D01*
X100337500Y-82480000D01*
X100632500Y-82480000D01*
X100646958Y-82480710D01*
X100646958Y-82480710D01*
G37*
D11*
G04 #@! TD*
G04 #@! TO.P,R1,1*
G04 #@! TO.N,VCC*
X100485000Y-82800000D03*
D10*
G04 #@! TO.N,Net-(R2-Pad1)*
G04 #@! TO.C,R2*
G36*
X102086958Y-78520710D02*
X102101276Y-78522834D01*
X102115317Y-78526351D01*
X102128946Y-78531228D01*
X102142031Y-78537417D01*
X102154447Y-78544858D01*
X102166073Y-78553481D01*
X102176798Y-78563202D01*
X102186519Y-78573927D01*
X102195142Y-78585553D01*
X102202583Y-78597969D01*
X102208772Y-78611054D01*
X102213649Y-78624683D01*
X102217166Y-78638724D01*
X102219290Y-78653042D01*
X102220000Y-78667500D01*
X102220000Y-78962500D01*
X102219290Y-78976958D01*
X102217166Y-78991276D01*
X102213649Y-79005317D01*
X102208772Y-79018946D01*
X102202583Y-79032031D01*
X102195142Y-79044447D01*
X102186519Y-79056073D01*
X102176798Y-79066798D01*
X102166073Y-79076519D01*
X102154447Y-79085142D01*
X102142031Y-79092583D01*
X102128946Y-79098772D01*
X102115317Y-79103649D01*
X102101276Y-79107166D01*
X102086958Y-79109290D01*
X102072500Y-79110000D01*
X101727500Y-79110000D01*
X101713042Y-79109290D01*
X101698724Y-79107166D01*
X101684683Y-79103649D01*
X101671054Y-79098772D01*
X101657969Y-79092583D01*
X101645553Y-79085142D01*
X101633927Y-79076519D01*
X101623202Y-79066798D01*
X101613481Y-79056073D01*
X101604858Y-79044447D01*
X101597417Y-79032031D01*
X101591228Y-79018946D01*
X101586351Y-79005317D01*
X101582834Y-78991276D01*
X101580710Y-78976958D01*
X101580000Y-78962500D01*
X101580000Y-78667500D01*
X101580710Y-78653042D01*
X101582834Y-78638724D01*
X101586351Y-78624683D01*
X101591228Y-78611054D01*
X101597417Y-78597969D01*
X101604858Y-78585553D01*
X101613481Y-78573927D01*
X101623202Y-78563202D01*
X101633927Y-78553481D01*
X101645553Y-78544858D01*
X101657969Y-78537417D01*
X101671054Y-78531228D01*
X101684683Y-78526351D01*
X101698724Y-78522834D01*
X101713042Y-78520710D01*
X101727500Y-78520000D01*
X102072500Y-78520000D01*
X102086958Y-78520710D01*
X102086958Y-78520710D01*
G37*
D11*
G04 #@! TD*
G04 #@! TO.P,R2,1*
G04 #@! TO.N,Net-(R2-Pad1)*
X101900000Y-78815000D03*
D10*
G04 #@! TO.N,GND*
G04 #@! TO.C,R2*
G36*
X102086958Y-79490710D02*
X102101276Y-79492834D01*
X102115317Y-79496351D01*
X102128946Y-79501228D01*
X102142031Y-79507417D01*
X102154447Y-79514858D01*
X102166073Y-79523481D01*
X102176798Y-79533202D01*
X102186519Y-79543927D01*
X102195142Y-79555553D01*
X102202583Y-79567969D01*
X102208772Y-79581054D01*
X102213649Y-79594683D01*
X102217166Y-79608724D01*
X102219290Y-79623042D01*
X102220000Y-79637500D01*
X102220000Y-79932500D01*
X102219290Y-79946958D01*
X102217166Y-79961276D01*
X102213649Y-79975317D01*
X102208772Y-79988946D01*
X102202583Y-80002031D01*
X102195142Y-80014447D01*
X102186519Y-80026073D01*
X102176798Y-80036798D01*
X102166073Y-80046519D01*
X102154447Y-80055142D01*
X102142031Y-80062583D01*
X102128946Y-80068772D01*
X102115317Y-80073649D01*
X102101276Y-80077166D01*
X102086958Y-80079290D01*
X102072500Y-80080000D01*
X101727500Y-80080000D01*
X101713042Y-80079290D01*
X101698724Y-80077166D01*
X101684683Y-80073649D01*
X101671054Y-80068772D01*
X101657969Y-80062583D01*
X101645553Y-80055142D01*
X101633927Y-80046519D01*
X101623202Y-80036798D01*
X101613481Y-80026073D01*
X101604858Y-80014447D01*
X101597417Y-80002031D01*
X101591228Y-79988946D01*
X101586351Y-79975317D01*
X101582834Y-79961276D01*
X101580710Y-79946958D01*
X101580000Y-79932500D01*
X101580000Y-79637500D01*
X101580710Y-79623042D01*
X101582834Y-79608724D01*
X101586351Y-79594683D01*
X101591228Y-79581054D01*
X101597417Y-79567969D01*
X101604858Y-79555553D01*
X101613481Y-79543927D01*
X101623202Y-79533202D01*
X101633927Y-79523481D01*
X101645553Y-79514858D01*
X101657969Y-79507417D01*
X101671054Y-79501228D01*
X101684683Y-79496351D01*
X101698724Y-79492834D01*
X101713042Y-79490710D01*
X101727500Y-79490000D01*
X102072500Y-79490000D01*
X102086958Y-79490710D01*
X102086958Y-79490710D01*
G37*
D11*
G04 #@! TD*
G04 #@! TO.P,R2,2*
G04 #@! TO.N,GND*
X101900000Y-79785000D03*
D12*
G04 #@! TO.P,BRD1,7*
G04 #@! TO.N,GND*
X118600000Y-84400000D03*
G04 #@! TO.P,BRD1,6*
G04 #@! TO.N,/!RST*
X97870000Y-82400000D03*
G04 #@! TO.P,BRD1,5*
G04 #@! TO.N,/TST*
X99600000Y-84400000D03*
D13*
G04 #@! TO.P,BRD1,3*
G04 #@! TO.N,Net-(BRD1-Pad3)*
X121800000Y-75100000D03*
G04 #@! TO.P,BRD1,4*
G04 #@! TO.N,Net-(BRD1-Pad4)*
X121800000Y-82600000D03*
G04 #@! TD*
D14*
G04 #@! TO.P,KPD1,1*
G04 #@! TO.N,Net-(KPD1-Pad1)*
X103300000Y-83800000D03*
G04 #@! TO.P,KPD1,2*
G04 #@! TO.N,Net-(KPD1-Pad2)*
X104800000Y-83800000D03*
G04 #@! TO.P,KPD1,3*
G04 #@! TO.N,Net-(KPD1-Pad3)*
X106300000Y-83800000D03*
G04 #@! TO.P,KPD1,4*
G04 #@! TO.N,Net-(KPD1-Pad4)*
X107800000Y-83800000D03*
G04 #@! TO.P,KPD1,5*
G04 #@! TO.N,Net-(KPD1-Pad5)*
X109300000Y-83800000D03*
G04 #@! TO.P,KPD1,6*
G04 #@! TO.N,Net-(KPD1-Pad6)*
X110800000Y-83800000D03*
G04 #@! TO.P,KPD1,7*
G04 #@! TO.N,Net-(KPD1-Pad7)*
X112300000Y-83800000D03*
G04 #@! TO.P,KPD1,8*
G04 #@! TO.N,Net-(KPD1-Pad8)*
X113800000Y-83800000D03*
G04 #@! TO.P,KPD1,9*
G04 #@! TO.N,Net-(KPD1-Pad9)*
X115300000Y-83800000D03*
G04 #@! TD*
D15*
G04 #@! TO.P,LCD1,1*
G04 #@! TO.N,Net-(LCD1-Pad1)*
X99200000Y-70200000D03*
G04 #@! TO.P,LCD1,2*
G04 #@! TO.N,/COM0*
X99800000Y-70200000D03*
G04 #@! TO.P,LCD1,3*
G04 #@! TO.N,/COM1*
X100400000Y-70200000D03*
G04 #@! TO.P,LCD1,4*
G04 #@! TO.N,/COM2*
X101000000Y-70200000D03*
G04 #@! TO.P,LCD1,5*
G04 #@! TO.N,Net-(LCD1-Pad5)*
X101600000Y-70200000D03*
G04 #@! TO.P,LCD1,6*
G04 #@! TO.N,Net-(LCD1-Pad6)*
X102200000Y-70200000D03*
G04 #@! TO.P,LCD1,7*
G04 #@! TO.N,Net-(LCD1-Pad7)*
X102800000Y-70200000D03*
G04 #@! TO.P,LCD1,8*
G04 #@! TO.N,Net-(LCD1-Pad8)*
X103400000Y-70200000D03*
G04 #@! TO.P,LCD1,9*
G04 #@! TO.N,Net-(LCD1-Pad9)*
X104000000Y-70200000D03*
G04 #@! TO.P,LCD1,10*
G04 #@! TO.N,Net-(LCD1-Pad10)*
X104600000Y-70200000D03*
G04 #@! TO.P,LCD1,11*
G04 #@! TO.N,Net-(LCD1-Pad11)*
X105200000Y-70200000D03*
G04 #@! TO.P,LCD1,12*
G04 #@! TO.N,Net-(LCD1-Pad12)*
X105800000Y-70200000D03*
G04 #@! TO.P,LCD1,13*
G04 #@! TO.N,Net-(LCD1-Pad13)*
X106400000Y-70200000D03*
G04 #@! TO.P,LCD1,14*
G04 #@! TO.N,Net-(LCD1-Pad14)*
X107000000Y-70200000D03*
G04 #@! TO.P,LCD1,15*
G04 #@! TO.N,Net-(LCD1-Pad15)*
X107600000Y-70200000D03*
G04 #@! TO.P,LCD1,16*
G04 #@! TO.N,Net-(LCD1-Pad16)*
X108200000Y-70200000D03*
G04 #@! TO.P,LCD1,17*
G04 #@! TO.N,Net-(LCD1-Pad17)*
X108800000Y-70200000D03*
G04 #@! TO.P,LCD1,18*
G04 #@! TO.N,Net-(LCD1-Pad18)*
X109400000Y-70200000D03*
G04 #@! TO.P,LCD1,19*
G04 #@! TO.N,Net-(LCD1-Pad19)*
X110000000Y-70200000D03*
G04 #@! TO.P,LCD1,20*
G04 #@! TO.N,Net-(LCD1-Pad20)*
X110600000Y-70200000D03*
G04 #@! TO.P,LCD1,21*
G04 #@! TO.N,Net-(LCD1-Pad21)*
X111200000Y-70200000D03*
G04 #@! TO.P,LCD1,22*
G04 #@! TO.N,Net-(LCD1-Pad22)*
X111800000Y-70200000D03*
G04 #@! TO.P,LCD1,23*
G04 #@! TO.N,Net-(LCD1-Pad23)*
X112400000Y-70200000D03*
G04 #@! TO.P,LCD1,24*
G04 #@! TO.N,Net-(LCD1-Pad24)*
X113000000Y-70200000D03*
G04 #@! TO.P,LCD1,25*
G04 #@! TO.N,Net-(LCD1-Pad25)*
X113600000Y-70200000D03*
G04 #@! TO.P,LCD1,26*
G04 #@! TO.N,Net-(LCD1-Pad26)*
X114200000Y-70200000D03*
G04 #@! TO.P,LCD1,27*
G04 #@! TO.N,Net-(LCD1-Pad27)*
X114800000Y-70200000D03*
G04 #@! TO.P,LCD1,28*
G04 #@! TO.N,Net-(LCD1-Pad28)*
X115400000Y-70200000D03*
G04 #@! TO.P,LCD1,29*
G04 #@! TO.N,Net-(LCD1-Pad29)*
X116000000Y-70200000D03*
G04 #@! TO.P,LCD1,30*
G04 #@! TO.N,Net-(LCD1-Pad30)*
X116600000Y-70200000D03*
G04 #@! TO.P,LCD1,31*
G04 #@! TO.N,Net-(LCD1-Pad31)*
X117200000Y-70200000D03*
G04 #@! TO.P,LCD1,32*
G04 #@! TO.N,Net-(LCD1-Pad32)*
X117800000Y-70200000D03*
G04 #@! TO.P,LCD1,33*
G04 #@! TO.N,Net-(LCD1-Pad33)*
X118400000Y-70200000D03*
G04 #@! TO.P,LCD1,34*
G04 #@! TO.N,Net-(LCD1-Pad34)*
X119000000Y-70200000D03*
G04 #@! TO.P,LCD1,35*
G04 #@! TO.N,Net-(LCD1-Pad35)*
X119600000Y-70200000D03*
G04 #@! TD*
D10*
G04 #@! TO.N,Net-(U3-Pad6)*
G04 #@! TO.C,U3*
G36*
X100445586Y-76678397D02*
X100453595Y-76679585D01*
X100461448Y-76681552D01*
X100469071Y-76684280D01*
X100476390Y-76687741D01*
X100483335Y-76691904D01*
X100489837Y-76696727D01*
X100495836Y-76702164D01*
X100501273Y-76708163D01*
X100506096Y-76714665D01*
X100510259Y-76721610D01*
X100513720Y-76728929D01*
X100516448Y-76736552D01*
X100518415Y-76744405D01*
X100519603Y-76752414D01*
X100520000Y-76760500D01*
X100520000Y-76925500D01*
X100519603Y-76933586D01*
X100518415Y-76941595D01*
X100516448Y-76949448D01*
X100513720Y-76957071D01*
X100510259Y-76964390D01*
X100506096Y-76971335D01*
X100501273Y-76977837D01*
X100495836Y-76983836D01*
X100489837Y-76989273D01*
X100483335Y-76994096D01*
X100476390Y-76998259D01*
X100469071Y-77001720D01*
X100461448Y-77004448D01*
X100453595Y-77006415D01*
X100445586Y-77007603D01*
X100437500Y-77008000D01*
X100192500Y-77008000D01*
X100184414Y-77007603D01*
X100176405Y-77006415D01*
X100168552Y-77004448D01*
X100160929Y-77001720D01*
X100153610Y-76998259D01*
X100146665Y-76994096D01*
X100140163Y-76989273D01*
X100134164Y-76983836D01*
X100128727Y-76977837D01*
X100123904Y-76971335D01*
X100119741Y-76964390D01*
X100116280Y-76957071D01*
X100113552Y-76949448D01*
X100111585Y-76941595D01*
X100110397Y-76933586D01*
X100110000Y-76925500D01*
X100110000Y-76760500D01*
X100110397Y-76752414D01*
X100111585Y-76744405D01*
X100113552Y-76736552D01*
X100116280Y-76728929D01*
X100119741Y-76721610D01*
X100123904Y-76714665D01*
X100128727Y-76708163D01*
X100134164Y-76702164D01*
X100140163Y-76696727D01*
X100146665Y-76691904D01*
X100153610Y-76687741D01*
X100160929Y-76684280D01*
X100168552Y-76681552D01*
X100176405Y-76679585D01*
X100184414Y-76678397D01*
X100192500Y-76678000D01*
X100437500Y-76678000D01*
X100445586Y-76678397D01*
X100445586Y-76678397D01*
G37*
D16*
G04 #@! TD*
G04 #@! TO.P,U3,6*
G04 #@! TO.N,Net-(U3-Pad6)*
X100315000Y-76843000D03*
D10*
G04 #@! TO.N,Net-(U3-Pad5)*
G04 #@! TO.C,U3*
G36*
X101095586Y-76678397D02*
X101103595Y-76679585D01*
X101111448Y-76681552D01*
X101119071Y-76684280D01*
X101126390Y-76687741D01*
X101133335Y-76691904D01*
X101139837Y-76696727D01*
X101145836Y-76702164D01*
X101151273Y-76708163D01*
X101156096Y-76714665D01*
X101160259Y-76721610D01*
X101163720Y-76728929D01*
X101166448Y-76736552D01*
X101168415Y-76744405D01*
X101169603Y-76752414D01*
X101170000Y-76760500D01*
X101170000Y-76925500D01*
X101169603Y-76933586D01*
X101168415Y-76941595D01*
X101166448Y-76949448D01*
X101163720Y-76957071D01*
X101160259Y-76964390D01*
X101156096Y-76971335D01*
X101151273Y-76977837D01*
X101145836Y-76983836D01*
X101139837Y-76989273D01*
X101133335Y-76994096D01*
X101126390Y-76998259D01*
X101119071Y-77001720D01*
X101111448Y-77004448D01*
X101103595Y-77006415D01*
X101095586Y-77007603D01*
X101087500Y-77008000D01*
X100842500Y-77008000D01*
X100834414Y-77007603D01*
X100826405Y-77006415D01*
X100818552Y-77004448D01*
X100810929Y-77001720D01*
X100803610Y-76998259D01*
X100796665Y-76994096D01*
X100790163Y-76989273D01*
X100784164Y-76983836D01*
X100778727Y-76977837D01*
X100773904Y-76971335D01*
X100769741Y-76964390D01*
X100766280Y-76957071D01*
X100763552Y-76949448D01*
X100761585Y-76941595D01*
X100760397Y-76933586D01*
X100760000Y-76925500D01*
X100760000Y-76760500D01*
X100760397Y-76752414D01*
X100761585Y-76744405D01*
X100763552Y-76736552D01*
X100766280Y-76728929D01*
X100769741Y-76721610D01*
X100773904Y-76714665D01*
X100778727Y-76708163D01*
X100784164Y-76702164D01*
X100790163Y-76696727D01*
X100796665Y-76691904D01*
X100803610Y-76687741D01*
X100810929Y-76684280D01*
X100818552Y-76681552D01*
X100826405Y-76679585D01*
X100834414Y-76678397D01*
X100842500Y-76678000D01*
X101087500Y-76678000D01*
X101095586Y-76678397D01*
X101095586Y-76678397D01*
G37*
D16*
G04 #@! TD*
G04 #@! TO.P,U3,5*
G04 #@! TO.N,Net-(U3-Pad5)*
X100965000Y-76843000D03*
D10*
G04 #@! TO.N,/RF_P*
G04 #@! TO.C,U3*
G36*
X101745586Y-76678397D02*
X101753595Y-76679585D01*
X101761448Y-76681552D01*
X101769071Y-76684280D01*
X101776390Y-76687741D01*
X101783335Y-76691904D01*
X101789837Y-76696727D01*
X101795836Y-76702164D01*
X101801273Y-76708163D01*
X101806096Y-76714665D01*
X101810259Y-76721610D01*
X101813720Y-76728929D01*
X101816448Y-76736552D01*
X101818415Y-76744405D01*
X101819603Y-76752414D01*
X101820000Y-76760500D01*
X101820000Y-76925500D01*
X101819603Y-76933586D01*
X101818415Y-76941595D01*
X101816448Y-76949448D01*
X101813720Y-76957071D01*
X101810259Y-76964390D01*
X101806096Y-76971335D01*
X101801273Y-76977837D01*
X101795836Y-76983836D01*
X101789837Y-76989273D01*
X101783335Y-76994096D01*
X101776390Y-76998259D01*
X101769071Y-77001720D01*
X101761448Y-77004448D01*
X101753595Y-77006415D01*
X101745586Y-77007603D01*
X101737500Y-77008000D01*
X101492500Y-77008000D01*
X101484414Y-77007603D01*
X101476405Y-77006415D01*
X101468552Y-77004448D01*
X101460929Y-77001720D01*
X101453610Y-76998259D01*
X101446665Y-76994096D01*
X101440163Y-76989273D01*
X101434164Y-76983836D01*
X101428727Y-76977837D01*
X101423904Y-76971335D01*
X101419741Y-76964390D01*
X101416280Y-76957071D01*
X101413552Y-76949448D01*
X101411585Y-76941595D01*
X101410397Y-76933586D01*
X101410000Y-76925500D01*
X101410000Y-76760500D01*
X101410397Y-76752414D01*
X101411585Y-76744405D01*
X101413552Y-76736552D01*
X101416280Y-76728929D01*
X101419741Y-76721610D01*
X101423904Y-76714665D01*
X101428727Y-76708163D01*
X101434164Y-76702164D01*
X101440163Y-76696727D01*
X101446665Y-76691904D01*
X101453610Y-76687741D01*
X101460929Y-76684280D01*
X101468552Y-76681552D01*
X101476405Y-76679585D01*
X101484414Y-76678397D01*
X101492500Y-76678000D01*
X101737500Y-76678000D01*
X101745586Y-76678397D01*
X101745586Y-76678397D01*
G37*
D16*
G04 #@! TD*
G04 #@! TO.P,U3,4*
G04 #@! TO.N,/RF_P*
X101615000Y-76843000D03*
D10*
G04 #@! TO.N,/RF_N*
G04 #@! TO.C,U3*
G36*
X101745586Y-77678397D02*
X101753595Y-77679585D01*
X101761448Y-77681552D01*
X101769071Y-77684280D01*
X101776390Y-77687741D01*
X101783335Y-77691904D01*
X101789837Y-77696727D01*
X101795836Y-77702164D01*
X101801273Y-77708163D01*
X101806096Y-77714665D01*
X101810259Y-77721610D01*
X101813720Y-77728929D01*
X101816448Y-77736552D01*
X101818415Y-77744405D01*
X101819603Y-77752414D01*
X101820000Y-77760500D01*
X101820000Y-77925500D01*
X101819603Y-77933586D01*
X101818415Y-77941595D01*
X101816448Y-77949448D01*
X101813720Y-77957071D01*
X101810259Y-77964390D01*
X101806096Y-77971335D01*
X101801273Y-77977837D01*
X101795836Y-77983836D01*
X101789837Y-77989273D01*
X101783335Y-77994096D01*
X101776390Y-77998259D01*
X101769071Y-78001720D01*
X101761448Y-78004448D01*
X101753595Y-78006415D01*
X101745586Y-78007603D01*
X101737500Y-78008000D01*
X101492500Y-78008000D01*
X101484414Y-78007603D01*
X101476405Y-78006415D01*
X101468552Y-78004448D01*
X101460929Y-78001720D01*
X101453610Y-77998259D01*
X101446665Y-77994096D01*
X101440163Y-77989273D01*
X101434164Y-77983836D01*
X101428727Y-77977837D01*
X101423904Y-77971335D01*
X101419741Y-77964390D01*
X101416280Y-77957071D01*
X101413552Y-77949448D01*
X101411585Y-77941595D01*
X101410397Y-77933586D01*
X101410000Y-77925500D01*
X101410000Y-77760500D01*
X101410397Y-77752414D01*
X101411585Y-77744405D01*
X101413552Y-77736552D01*
X101416280Y-77728929D01*
X101419741Y-77721610D01*
X101423904Y-77714665D01*
X101428727Y-77708163D01*
X101434164Y-77702164D01*
X101440163Y-77696727D01*
X101446665Y-77691904D01*
X101453610Y-77687741D01*
X101460929Y-77684280D01*
X101468552Y-77681552D01*
X101476405Y-77679585D01*
X101484414Y-77678397D01*
X101492500Y-77678000D01*
X101737500Y-77678000D01*
X101745586Y-77678397D01*
X101745586Y-77678397D01*
G37*
D16*
G04 #@! TD*
G04 #@! TO.P,U3,3*
G04 #@! TO.N,/RF_N*
X101615000Y-77843000D03*
D10*
G04 #@! TO.N,GND*
G04 #@! TO.C,U3*
G36*
X101095586Y-77678397D02*
X101103595Y-77679585D01*
X101111448Y-77681552D01*
X101119071Y-77684280D01*
X101126390Y-77687741D01*
X101133335Y-77691904D01*
X101139837Y-77696727D01*
X101145836Y-77702164D01*
X101151273Y-77708163D01*
X101156096Y-77714665D01*
X101160259Y-77721610D01*
X101163720Y-77728929D01*
X101166448Y-77736552D01*
X101168415Y-77744405D01*
X101169603Y-77752414D01*
X101170000Y-77760500D01*
X101170000Y-77925500D01*
X101169603Y-77933586D01*
X101168415Y-77941595D01*
X101166448Y-77949448D01*
X101163720Y-77957071D01*
X101160259Y-77964390D01*
X101156096Y-77971335D01*
X101151273Y-77977837D01*
X101145836Y-77983836D01*
X101139837Y-77989273D01*
X101133335Y-77994096D01*
X101126390Y-77998259D01*
X101119071Y-78001720D01*
X101111448Y-78004448D01*
X101103595Y-78006415D01*
X101095586Y-78007603D01*
X101087500Y-78008000D01*
X100842500Y-78008000D01*
X100834414Y-78007603D01*
X100826405Y-78006415D01*
X100818552Y-78004448D01*
X100810929Y-78001720D01*
X100803610Y-77998259D01*
X100796665Y-77994096D01*
X100790163Y-77989273D01*
X100784164Y-77983836D01*
X100778727Y-77977837D01*
X100773904Y-77971335D01*
X100769741Y-77964390D01*
X100766280Y-77957071D01*
X100763552Y-77949448D01*
X100761585Y-77941595D01*
X100760397Y-77933586D01*
X100760000Y-77925500D01*
X100760000Y-77760500D01*
X100760397Y-77752414D01*
X100761585Y-77744405D01*
X100763552Y-77736552D01*
X100766280Y-77728929D01*
X100769741Y-77721610D01*
X100773904Y-77714665D01*
X100778727Y-77708163D01*
X100784164Y-77702164D01*
X100790163Y-77696727D01*
X100796665Y-77691904D01*
X100803610Y-77687741D01*
X100810929Y-77684280D01*
X100818552Y-77681552D01*
X100826405Y-77679585D01*
X100834414Y-77678397D01*
X100842500Y-77678000D01*
X101087500Y-77678000D01*
X101095586Y-77678397D01*
X101095586Y-77678397D01*
G37*
D16*
G04 #@! TD*
G04 #@! TO.P,U3,2*
G04 #@! TO.N,GND*
X100965000Y-77843000D03*
D10*
G04 #@! TO.N,Net-(U2-Pad8)*
G04 #@! TO.C,U3*
G36*
X100445586Y-77678397D02*
X100453595Y-77679585D01*
X100461448Y-77681552D01*
X100469071Y-77684280D01*
X100476390Y-77687741D01*
X100483335Y-77691904D01*
X100489837Y-77696727D01*
X100495836Y-77702164D01*
X100501273Y-77708163D01*
X100506096Y-77714665D01*
X100510259Y-77721610D01*
X100513720Y-77728929D01*
X100516448Y-77736552D01*
X100518415Y-77744405D01*
X100519603Y-77752414D01*
X100520000Y-77760500D01*
X100520000Y-77925500D01*
X100519603Y-77933586D01*
X100518415Y-77941595D01*
X100516448Y-77949448D01*
X100513720Y-77957071D01*
X100510259Y-77964390D01*
X100506096Y-77971335D01*
X100501273Y-77977837D01*
X100495836Y-77983836D01*
X100489837Y-77989273D01*
X100483335Y-77994096D01*
X100476390Y-77998259D01*
X100469071Y-78001720D01*
X100461448Y-78004448D01*
X100453595Y-78006415D01*
X100445586Y-78007603D01*
X100437500Y-78008000D01*
X100192500Y-78008000D01*
X100184414Y-78007603D01*
X100176405Y-78006415D01*
X100168552Y-78004448D01*
X100160929Y-78001720D01*
X100153610Y-77998259D01*
X100146665Y-77994096D01*
X100140163Y-77989273D01*
X100134164Y-77983836D01*
X100128727Y-77977837D01*
X100123904Y-77971335D01*
X100119741Y-77964390D01*
X100116280Y-77957071D01*
X100113552Y-77949448D01*
X100111585Y-77941595D01*
X100110397Y-77933586D01*
X100110000Y-77925500D01*
X100110000Y-77760500D01*
X100110397Y-77752414D01*
X100111585Y-77744405D01*
X100113552Y-77736552D01*
X100116280Y-77728929D01*
X100119741Y-77721610D01*
X100123904Y-77714665D01*
X100128727Y-77708163D01*
X100134164Y-77702164D01*
X100140163Y-77696727D01*
X100146665Y-77691904D01*
X100153610Y-77687741D01*
X100160929Y-77684280D01*
X100168552Y-77681552D01*
X100176405Y-77679585D01*
X100184414Y-77678397D01*
X100192500Y-77678000D01*
X100437500Y-77678000D01*
X100445586Y-77678397D01*
X100445586Y-77678397D01*
G37*
D16*
G04 #@! TD*
G04 #@! TO.P,U3,1*
G04 #@! TO.N,Net-(U2-Pad8)*
X100315000Y-77843000D03*
D10*
G04 #@! TO.N,Net-(U2-Pad8)*
G04 #@! TO.C,U2*
G36*
X100096076Y-78575421D02*
X100104570Y-78576681D01*
X100112900Y-78578768D01*
X100120985Y-78581661D01*
X100128747Y-78585332D01*
X100136112Y-78589746D01*
X100143009Y-78594862D01*
X100149372Y-78600628D01*
X100155138Y-78606991D01*
X100160254Y-78613888D01*
X100164668Y-78621253D01*
X100168339Y-78629015D01*
X100171232Y-78637100D01*
X100173319Y-78645430D01*
X100174579Y-78653924D01*
X100175000Y-78662500D01*
X100175000Y-78987500D01*
X100174579Y-78996076D01*
X100173319Y-79004570D01*
X100171232Y-79012900D01*
X100168339Y-79020985D01*
X100164668Y-79028747D01*
X100160254Y-79036112D01*
X100155138Y-79043009D01*
X100149372Y-79049372D01*
X100143009Y-79055138D01*
X100136112Y-79060254D01*
X100128747Y-79064668D01*
X100120985Y-79068339D01*
X100112900Y-79071232D01*
X100104570Y-79073319D01*
X100096076Y-79074579D01*
X100087500Y-79075000D01*
X99912500Y-79075000D01*
X99903924Y-79074579D01*
X99895430Y-79073319D01*
X99887100Y-79071232D01*
X99879015Y-79068339D01*
X99871253Y-79064668D01*
X99863888Y-79060254D01*
X99856991Y-79055138D01*
X99850628Y-79049372D01*
X99844862Y-79043009D01*
X99839746Y-79036112D01*
X99835332Y-79028747D01*
X99831661Y-79020985D01*
X99828768Y-79012900D01*
X99826681Y-79004570D01*
X99825421Y-78996076D01*
X99825000Y-78987500D01*
X99825000Y-78662500D01*
X99825421Y-78653924D01*
X99826681Y-78645430D01*
X99828768Y-78637100D01*
X99831661Y-78629015D01*
X99835332Y-78621253D01*
X99839746Y-78613888D01*
X99844862Y-78606991D01*
X99850628Y-78600628D01*
X99856991Y-78594862D01*
X99863888Y-78589746D01*
X99871253Y-78585332D01*
X99879015Y-78581661D01*
X99887100Y-78578768D01*
X99895430Y-78576681D01*
X99903924Y-78575421D01*
X99912500Y-78575000D01*
X100087500Y-78575000D01*
X100096076Y-78575421D01*
X100096076Y-78575421D01*
G37*
D17*
G04 #@! TD*
G04 #@! TO.P,U2,8*
G04 #@! TO.N,Net-(U2-Pad8)*
X100000000Y-78825000D03*
D10*
G04 #@! TO.N,GND*
G04 #@! TO.C,U2*
G36*
X100971076Y-78975421D02*
X100979570Y-78976681D01*
X100987900Y-78978768D01*
X100995985Y-78981661D01*
X101003747Y-78985332D01*
X101011112Y-78989746D01*
X101018009Y-78994862D01*
X101024372Y-79000628D01*
X101030138Y-79006991D01*
X101035254Y-79013888D01*
X101039668Y-79021253D01*
X101043339Y-79029015D01*
X101046232Y-79037100D01*
X101048319Y-79045430D01*
X101049579Y-79053924D01*
X101050000Y-79062500D01*
X101050000Y-79237500D01*
X101049579Y-79246076D01*
X101048319Y-79254570D01*
X101046232Y-79262900D01*
X101043339Y-79270985D01*
X101039668Y-79278747D01*
X101035254Y-79286112D01*
X101030138Y-79293009D01*
X101024372Y-79299372D01*
X101018009Y-79305138D01*
X101011112Y-79310254D01*
X101003747Y-79314668D01*
X100995985Y-79318339D01*
X100987900Y-79321232D01*
X100979570Y-79323319D01*
X100971076Y-79324579D01*
X100962500Y-79325000D01*
X100637500Y-79325000D01*
X100628924Y-79324579D01*
X100620430Y-79323319D01*
X100612100Y-79321232D01*
X100604015Y-79318339D01*
X100596253Y-79314668D01*
X100588888Y-79310254D01*
X100581991Y-79305138D01*
X100575628Y-79299372D01*
X100569862Y-79293009D01*
X100564746Y-79286112D01*
X100560332Y-79278747D01*
X100556661Y-79270985D01*
X100553768Y-79262900D01*
X100551681Y-79254570D01*
X100550421Y-79246076D01*
X100550000Y-79237500D01*
X100550000Y-79062500D01*
X100550421Y-79053924D01*
X100551681Y-79045430D01*
X100553768Y-79037100D01*
X100556661Y-79029015D01*
X100560332Y-79021253D01*
X100564746Y-79013888D01*
X100569862Y-79006991D01*
X100575628Y-79000628D01*
X100581991Y-78994862D01*
X100588888Y-78989746D01*
X100596253Y-78985332D01*
X100604015Y-78981661D01*
X100612100Y-78978768D01*
X100620430Y-78976681D01*
X100628924Y-78975421D01*
X100637500Y-78975000D01*
X100962500Y-78975000D01*
X100971076Y-78975421D01*
X100971076Y-78975421D01*
G37*
D17*
G04 #@! TD*
G04 #@! TO.P,U2,7*
G04 #@! TO.N,GND*
X100800000Y-79150000D03*
D10*
G04 #@! TO.N,Net-(U2-Pad6)*
G04 #@! TO.C,U2*
G36*
X100971076Y-79625421D02*
X100979570Y-79626681D01*
X100987900Y-79628768D01*
X100995985Y-79631661D01*
X101003747Y-79635332D01*
X101011112Y-79639746D01*
X101018009Y-79644862D01*
X101024372Y-79650628D01*
X101030138Y-79656991D01*
X101035254Y-79663888D01*
X101039668Y-79671253D01*
X101043339Y-79679015D01*
X101046232Y-79687100D01*
X101048319Y-79695430D01*
X101049579Y-79703924D01*
X101050000Y-79712500D01*
X101050000Y-79887500D01*
X101049579Y-79896076D01*
X101048319Y-79904570D01*
X101046232Y-79912900D01*
X101043339Y-79920985D01*
X101039668Y-79928747D01*
X101035254Y-79936112D01*
X101030138Y-79943009D01*
X101024372Y-79949372D01*
X101018009Y-79955138D01*
X101011112Y-79960254D01*
X101003747Y-79964668D01*
X100995985Y-79968339D01*
X100987900Y-79971232D01*
X100979570Y-79973319D01*
X100971076Y-79974579D01*
X100962500Y-79975000D01*
X100637500Y-79975000D01*
X100628924Y-79974579D01*
X100620430Y-79973319D01*
X100612100Y-79971232D01*
X100604015Y-79968339D01*
X100596253Y-79964668D01*
X100588888Y-79960254D01*
X100581991Y-79955138D01*
X100575628Y-79949372D01*
X100569862Y-79943009D01*
X100564746Y-79936112D01*
X100560332Y-79928747D01*
X100556661Y-79920985D01*
X100553768Y-79912900D01*
X100551681Y-79904570D01*
X100550421Y-79896076D01*
X100550000Y-79887500D01*
X100550000Y-79712500D01*
X100550421Y-79703924D01*
X100551681Y-79695430D01*
X100553768Y-79687100D01*
X100556661Y-79679015D01*
X100560332Y-79671253D01*
X100564746Y-79663888D01*
X100569862Y-79656991D01*
X100575628Y-79650628D01*
X100581991Y-79644862D01*
X100588888Y-79639746D01*
X100596253Y-79635332D01*
X100604015Y-79631661D01*
X100612100Y-79628768D01*
X100620430Y-79626681D01*
X100628924Y-79625421D01*
X100637500Y-79625000D01*
X100962500Y-79625000D01*
X100971076Y-79625421D01*
X100971076Y-79625421D01*
G37*
D17*
G04 #@! TD*
G04 #@! TO.P,U2,6*
G04 #@! TO.N,Net-(U2-Pad6)*
X100800000Y-79800000D03*
D10*
G04 #@! TO.N,GND*
G04 #@! TO.C,U2*
G36*
X100971076Y-80275421D02*
X100979570Y-80276681D01*
X100987900Y-80278768D01*
X100995985Y-80281661D01*
X101003747Y-80285332D01*
X101011112Y-80289746D01*
X101018009Y-80294862D01*
X101024372Y-80300628D01*
X101030138Y-80306991D01*
X101035254Y-80313888D01*
X101039668Y-80321253D01*
X101043339Y-80329015D01*
X101046232Y-80337100D01*
X101048319Y-80345430D01*
X101049579Y-80353924D01*
X101050000Y-80362500D01*
X101050000Y-80537500D01*
X101049579Y-80546076D01*
X101048319Y-80554570D01*
X101046232Y-80562900D01*
X101043339Y-80570985D01*
X101039668Y-80578747D01*
X101035254Y-80586112D01*
X101030138Y-80593009D01*
X101024372Y-80599372D01*
X101018009Y-80605138D01*
X101011112Y-80610254D01*
X101003747Y-80614668D01*
X100995985Y-80618339D01*
X100987900Y-80621232D01*
X100979570Y-80623319D01*
X100971076Y-80624579D01*
X100962500Y-80625000D01*
X100637500Y-80625000D01*
X100628924Y-80624579D01*
X100620430Y-80623319D01*
X100612100Y-80621232D01*
X100604015Y-80618339D01*
X100596253Y-80614668D01*
X100588888Y-80610254D01*
X100581991Y-80605138D01*
X100575628Y-80599372D01*
X100569862Y-80593009D01*
X100564746Y-80586112D01*
X100560332Y-80578747D01*
X100556661Y-80570985D01*
X100553768Y-80562900D01*
X100551681Y-80554570D01*
X100550421Y-80546076D01*
X100550000Y-80537500D01*
X100550000Y-80362500D01*
X100550421Y-80353924D01*
X100551681Y-80345430D01*
X100553768Y-80337100D01*
X100556661Y-80329015D01*
X100560332Y-80321253D01*
X100564746Y-80313888D01*
X100569862Y-80306991D01*
X100575628Y-80300628D01*
X100581991Y-80294862D01*
X100588888Y-80289746D01*
X100596253Y-80285332D01*
X100604015Y-80281661D01*
X100612100Y-80278768D01*
X100620430Y-80276681D01*
X100628924Y-80275421D01*
X100637500Y-80275000D01*
X100962500Y-80275000D01*
X100971076Y-80275421D01*
X100971076Y-80275421D01*
G37*
D17*
G04 #@! TD*
G04 #@! TO.P,U2,5*
G04 #@! TO.N,GND*
X100800000Y-80450000D03*
D10*
G04 #@! TO.N,Net-(C10-Pad1)*
G04 #@! TO.C,U2*
G36*
X100096076Y-80525421D02*
X100104570Y-80526681D01*
X100112900Y-80528768D01*
X100120985Y-80531661D01*
X100128747Y-80535332D01*
X100136112Y-80539746D01*
X100143009Y-80544862D01*
X100149372Y-80550628D01*
X100155138Y-80556991D01*
X100160254Y-80563888D01*
X100164668Y-80571253D01*
X100168339Y-80579015D01*
X100171232Y-80587100D01*
X100173319Y-80595430D01*
X100174579Y-80603924D01*
X100175000Y-80612500D01*
X100175000Y-80937500D01*
X100174579Y-80946076D01*
X100173319Y-80954570D01*
X100171232Y-80962900D01*
X100168339Y-80970985D01*
X100164668Y-80978747D01*
X100160254Y-80986112D01*
X100155138Y-80993009D01*
X100149372Y-80999372D01*
X100143009Y-81005138D01*
X100136112Y-81010254D01*
X100128747Y-81014668D01*
X100120985Y-81018339D01*
X100112900Y-81021232D01*
X100104570Y-81023319D01*
X100096076Y-81024579D01*
X100087500Y-81025000D01*
X99912500Y-81025000D01*
X99903924Y-81024579D01*
X99895430Y-81023319D01*
X99887100Y-81021232D01*
X99879015Y-81018339D01*
X99871253Y-81014668D01*
X99863888Y-81010254D01*
X99856991Y-81005138D01*
X99850628Y-80999372D01*
X99844862Y-80993009D01*
X99839746Y-80986112D01*
X99835332Y-80978747D01*
X99831661Y-80970985D01*
X99828768Y-80962900D01*
X99826681Y-80954570D01*
X99825421Y-80946076D01*
X99825000Y-80937500D01*
X99825000Y-80612500D01*
X99825421Y-80603924D01*
X99826681Y-80595430D01*
X99828768Y-80587100D01*
X99831661Y-80579015D01*
X99835332Y-80571253D01*
X99839746Y-80563888D01*
X99844862Y-80556991D01*
X99850628Y-80550628D01*
X99856991Y-80544862D01*
X99863888Y-80539746D01*
X99871253Y-80535332D01*
X99879015Y-80531661D01*
X99887100Y-80528768D01*
X99895430Y-80526681D01*
X99903924Y-80525421D01*
X99912500Y-80525000D01*
X100087500Y-80525000D01*
X100096076Y-80525421D01*
X100096076Y-80525421D01*
G37*
D17*
G04 #@! TD*
G04 #@! TO.P,U2,4*
G04 #@! TO.N,Net-(C10-Pad1)*
X100000000Y-80775000D03*
D10*
G04 #@! TO.N,GND*
G04 #@! TO.C,U2*
G36*
X99371076Y-80275421D02*
X99379570Y-80276681D01*
X99387900Y-80278768D01*
X99395985Y-80281661D01*
X99403747Y-80285332D01*
X99411112Y-80289746D01*
X99418009Y-80294862D01*
X99424372Y-80300628D01*
X99430138Y-80306991D01*
X99435254Y-80313888D01*
X99439668Y-80321253D01*
X99443339Y-80329015D01*
X99446232Y-80337100D01*
X99448319Y-80345430D01*
X99449579Y-80353924D01*
X99450000Y-80362500D01*
X99450000Y-80537500D01*
X99449579Y-80546076D01*
X99448319Y-80554570D01*
X99446232Y-80562900D01*
X99443339Y-80570985D01*
X99439668Y-80578747D01*
X99435254Y-80586112D01*
X99430138Y-80593009D01*
X99424372Y-80599372D01*
X99418009Y-80605138D01*
X99411112Y-80610254D01*
X99403747Y-80614668D01*
X99395985Y-80618339D01*
X99387900Y-80621232D01*
X99379570Y-80623319D01*
X99371076Y-80624579D01*
X99362500Y-80625000D01*
X99037500Y-80625000D01*
X99028924Y-80624579D01*
X99020430Y-80623319D01*
X99012100Y-80621232D01*
X99004015Y-80618339D01*
X98996253Y-80614668D01*
X98988888Y-80610254D01*
X98981991Y-80605138D01*
X98975628Y-80599372D01*
X98969862Y-80593009D01*
X98964746Y-80586112D01*
X98960332Y-80578747D01*
X98956661Y-80570985D01*
X98953768Y-80562900D01*
X98951681Y-80554570D01*
X98950421Y-80546076D01*
X98950000Y-80537500D01*
X98950000Y-80362500D01*
X98950421Y-80353924D01*
X98951681Y-80345430D01*
X98953768Y-80337100D01*
X98956661Y-80329015D01*
X98960332Y-80321253D01*
X98964746Y-80313888D01*
X98969862Y-80306991D01*
X98975628Y-80300628D01*
X98981991Y-80294862D01*
X98988888Y-80289746D01*
X98996253Y-80285332D01*
X99004015Y-80281661D01*
X99012100Y-80278768D01*
X99020430Y-80276681D01*
X99028924Y-80275421D01*
X99037500Y-80275000D01*
X99362500Y-80275000D01*
X99371076Y-80275421D01*
X99371076Y-80275421D01*
G37*
D17*
G04 #@! TD*
G04 #@! TO.P,U2,3*
G04 #@! TO.N,GND*
X99200000Y-80450000D03*
D10*
G04 #@! TO.N,Net-(U2-Pad2)*
G04 #@! TO.C,U2*
G36*
X99371076Y-79625421D02*
X99379570Y-79626681D01*
X99387900Y-79628768D01*
X99395985Y-79631661D01*
X99403747Y-79635332D01*
X99411112Y-79639746D01*
X99418009Y-79644862D01*
X99424372Y-79650628D01*
X99430138Y-79656991D01*
X99435254Y-79663888D01*
X99439668Y-79671253D01*
X99443339Y-79679015D01*
X99446232Y-79687100D01*
X99448319Y-79695430D01*
X99449579Y-79703924D01*
X99450000Y-79712500D01*
X99450000Y-79887500D01*
X99449579Y-79896076D01*
X99448319Y-79904570D01*
X99446232Y-79912900D01*
X99443339Y-79920985D01*
X99439668Y-79928747D01*
X99435254Y-79936112D01*
X99430138Y-79943009D01*
X99424372Y-79949372D01*
X99418009Y-79955138D01*
X99411112Y-79960254D01*
X99403747Y-79964668D01*
X99395985Y-79968339D01*
X99387900Y-79971232D01*
X99379570Y-79973319D01*
X99371076Y-79974579D01*
X99362500Y-79975000D01*
X99037500Y-79975000D01*
X99028924Y-79974579D01*
X99020430Y-79973319D01*
X99012100Y-79971232D01*
X99004015Y-79968339D01*
X98996253Y-79964668D01*
X98988888Y-79960254D01*
X98981991Y-79955138D01*
X98975628Y-79949372D01*
X98969862Y-79943009D01*
X98964746Y-79936112D01*
X98960332Y-79928747D01*
X98956661Y-79920985D01*
X98953768Y-79912900D01*
X98951681Y-79904570D01*
X98950421Y-79896076D01*
X98950000Y-79887500D01*
X98950000Y-79712500D01*
X98950421Y-79703924D01*
X98951681Y-79695430D01*
X98953768Y-79687100D01*
X98956661Y-79679015D01*
X98960332Y-79671253D01*
X98964746Y-79663888D01*
X98969862Y-79656991D01*
X98975628Y-79650628D01*
X98981991Y-79644862D01*
X98988888Y-79639746D01*
X98996253Y-79635332D01*
X99004015Y-79631661D01*
X99012100Y-79628768D01*
X99020430Y-79626681D01*
X99028924Y-79625421D01*
X99037500Y-79625000D01*
X99362500Y-79625000D01*
X99371076Y-79625421D01*
X99371076Y-79625421D01*
G37*
D17*
G04 #@! TD*
G04 #@! TO.P,U2,2*
G04 #@! TO.N,Net-(U2-Pad2)*
X99200000Y-79800000D03*
D10*
G04 #@! TO.N,GND*
G04 #@! TO.C,U2*
G36*
X99371076Y-78975421D02*
X99379570Y-78976681D01*
X99387900Y-78978768D01*
X99395985Y-78981661D01*
X99403747Y-78985332D01*
X99411112Y-78989746D01*
X99418009Y-78994862D01*
X99424372Y-79000628D01*
X99430138Y-79006991D01*
X99435254Y-79013888D01*
X99439668Y-79021253D01*
X99443339Y-79029015D01*
X99446232Y-79037100D01*
X99448319Y-79045430D01*
X99449579Y-79053924D01*
X99450000Y-79062500D01*
X99450000Y-79237500D01*
X99449579Y-79246076D01*
X99448319Y-79254570D01*
X99446232Y-79262900D01*
X99443339Y-79270985D01*
X99439668Y-79278747D01*
X99435254Y-79286112D01*
X99430138Y-79293009D01*
X99424372Y-79299372D01*
X99418009Y-79305138D01*
X99411112Y-79310254D01*
X99403747Y-79314668D01*
X99395985Y-79318339D01*
X99387900Y-79321232D01*
X99379570Y-79323319D01*
X99371076Y-79324579D01*
X99362500Y-79325000D01*
X99037500Y-79325000D01*
X99028924Y-79324579D01*
X99020430Y-79323319D01*
X99012100Y-79321232D01*
X99004015Y-79318339D01*
X98996253Y-79314668D01*
X98988888Y-79310254D01*
X98981991Y-79305138D01*
X98975628Y-79299372D01*
X98969862Y-79293009D01*
X98964746Y-79286112D01*
X98960332Y-79278747D01*
X98956661Y-79270985D01*
X98953768Y-79262900D01*
X98951681Y-79254570D01*
X98950421Y-79246076D01*
X98950000Y-79237500D01*
X98950000Y-79062500D01*
X98950421Y-79053924D01*
X98951681Y-79045430D01*
X98953768Y-79037100D01*
X98956661Y-79029015D01*
X98960332Y-79021253D01*
X98964746Y-79013888D01*
X98969862Y-79006991D01*
X98975628Y-79000628D01*
X98981991Y-78994862D01*
X98988888Y-78989746D01*
X98996253Y-78985332D01*
X99004015Y-78981661D01*
X99012100Y-78978768D01*
X99020430Y-78976681D01*
X99028924Y-78975421D01*
X99037500Y-78975000D01*
X99362500Y-78975000D01*
X99371076Y-78975421D01*
X99371076Y-78975421D01*
G37*
D17*
G04 #@! TD*
G04 #@! TO.P,U2,1*
G04 #@! TO.N,GND*
X99200000Y-79150000D03*
D10*
G04 #@! TO.N,GND*
G04 #@! TO.C,Y2*
G36*
X101408329Y-74876023D02*
X101428957Y-74879083D01*
X101449185Y-74884150D01*
X101468820Y-74891176D01*
X101487672Y-74900092D01*
X101505559Y-74910813D01*
X101522309Y-74923235D01*
X101537760Y-74937240D01*
X101551765Y-74952691D01*
X101564187Y-74969441D01*
X101574908Y-74987328D01*
X101583824Y-75006180D01*
X101590850Y-75025815D01*
X101595917Y-75046043D01*
X101598977Y-75066671D01*
X101600000Y-75087500D01*
X101600000Y-75512500D01*
X101598977Y-75533329D01*
X101595917Y-75553957D01*
X101590850Y-75574185D01*
X101583824Y-75593820D01*
X101574908Y-75612672D01*
X101564187Y-75630559D01*
X101551765Y-75647309D01*
X101537760Y-75662760D01*
X101522309Y-75676765D01*
X101505559Y-75689187D01*
X101487672Y-75699908D01*
X101468820Y-75708824D01*
X101449185Y-75715850D01*
X101428957Y-75720917D01*
X101408329Y-75723977D01*
X101387500Y-75725000D01*
X100862500Y-75725000D01*
X100841671Y-75723977D01*
X100821043Y-75720917D01*
X100800815Y-75715850D01*
X100781180Y-75708824D01*
X100762328Y-75699908D01*
X100744441Y-75689187D01*
X100727691Y-75676765D01*
X100712240Y-75662760D01*
X100698235Y-75647309D01*
X100685813Y-75630559D01*
X100675092Y-75612672D01*
X100666176Y-75593820D01*
X100659150Y-75574185D01*
X100654083Y-75553957D01*
X100651023Y-75533329D01*
X100650000Y-75512500D01*
X100650000Y-75087500D01*
X100651023Y-75066671D01*
X100654083Y-75046043D01*
X100659150Y-75025815D01*
X100666176Y-75006180D01*
X100675092Y-74987328D01*
X100685813Y-74969441D01*
X100698235Y-74952691D01*
X100712240Y-74937240D01*
X100727691Y-74923235D01*
X100744441Y-74910813D01*
X100762328Y-74900092D01*
X100781180Y-74891176D01*
X100800815Y-74884150D01*
X100821043Y-74879083D01*
X100841671Y-74876023D01*
X100862500Y-74875000D01*
X101387500Y-74875000D01*
X101408329Y-74876023D01*
X101408329Y-74876023D01*
G37*
D18*
G04 #@! TD*
G04 #@! TO.P,Y2,4*
G04 #@! TO.N,GND*
X101125000Y-75300000D03*
D10*
G04 #@! TO.N,/RF_XOUT*
G04 #@! TO.C,Y2*
G36*
X99958329Y-74876023D02*
X99978957Y-74879083D01*
X99999185Y-74884150D01*
X100018820Y-74891176D01*
X100037672Y-74900092D01*
X100055559Y-74910813D01*
X100072309Y-74923235D01*
X100087760Y-74937240D01*
X100101765Y-74952691D01*
X100114187Y-74969441D01*
X100124908Y-74987328D01*
X100133824Y-75006180D01*
X100140850Y-75025815D01*
X100145917Y-75046043D01*
X100148977Y-75066671D01*
X100150000Y-75087500D01*
X100150000Y-75512500D01*
X100148977Y-75533329D01*
X100145917Y-75553957D01*
X100140850Y-75574185D01*
X100133824Y-75593820D01*
X100124908Y-75612672D01*
X100114187Y-75630559D01*
X100101765Y-75647309D01*
X100087760Y-75662760D01*
X100072309Y-75676765D01*
X100055559Y-75689187D01*
X100037672Y-75699908D01*
X100018820Y-75708824D01*
X99999185Y-75715850D01*
X99978957Y-75720917D01*
X99958329Y-75723977D01*
X99937500Y-75725000D01*
X99412500Y-75725000D01*
X99391671Y-75723977D01*
X99371043Y-75720917D01*
X99350815Y-75715850D01*
X99331180Y-75708824D01*
X99312328Y-75699908D01*
X99294441Y-75689187D01*
X99277691Y-75676765D01*
X99262240Y-75662760D01*
X99248235Y-75647309D01*
X99235813Y-75630559D01*
X99225092Y-75612672D01*
X99216176Y-75593820D01*
X99209150Y-75574185D01*
X99204083Y-75553957D01*
X99201023Y-75533329D01*
X99200000Y-75512500D01*
X99200000Y-75087500D01*
X99201023Y-75066671D01*
X99204083Y-75046043D01*
X99209150Y-75025815D01*
X99216176Y-75006180D01*
X99225092Y-74987328D01*
X99235813Y-74969441D01*
X99248235Y-74952691D01*
X99262240Y-74937240D01*
X99277691Y-74923235D01*
X99294441Y-74910813D01*
X99312328Y-74900092D01*
X99331180Y-74891176D01*
X99350815Y-74884150D01*
X99371043Y-74879083D01*
X99391671Y-74876023D01*
X99412500Y-74875000D01*
X99937500Y-74875000D01*
X99958329Y-74876023D01*
X99958329Y-74876023D01*
G37*
D18*
G04 #@! TD*
G04 #@! TO.P,Y2,3*
G04 #@! TO.N,/RF_XOUT*
X99675000Y-75300000D03*
D10*
G04 #@! TO.N,GND*
G04 #@! TO.C,Y2*
G36*
X99958329Y-73726023D02*
X99978957Y-73729083D01*
X99999185Y-73734150D01*
X100018820Y-73741176D01*
X100037672Y-73750092D01*
X100055559Y-73760813D01*
X100072309Y-73773235D01*
X100087760Y-73787240D01*
X100101765Y-73802691D01*
X100114187Y-73819441D01*
X100124908Y-73837328D01*
X100133824Y-73856180D01*
X100140850Y-73875815D01*
X100145917Y-73896043D01*
X100148977Y-73916671D01*
X100150000Y-73937500D01*
X100150000Y-74362500D01*
X100148977Y-74383329D01*
X100145917Y-74403957D01*
X100140850Y-74424185D01*
X100133824Y-74443820D01*
X100124908Y-74462672D01*
X100114187Y-74480559D01*
X100101765Y-74497309D01*
X100087760Y-74512760D01*
X100072309Y-74526765D01*
X100055559Y-74539187D01*
X100037672Y-74549908D01*
X100018820Y-74558824D01*
X99999185Y-74565850D01*
X99978957Y-74570917D01*
X99958329Y-74573977D01*
X99937500Y-74575000D01*
X99412500Y-74575000D01*
X99391671Y-74573977D01*
X99371043Y-74570917D01*
X99350815Y-74565850D01*
X99331180Y-74558824D01*
X99312328Y-74549908D01*
X99294441Y-74539187D01*
X99277691Y-74526765D01*
X99262240Y-74512760D01*
X99248235Y-74497309D01*
X99235813Y-74480559D01*
X99225092Y-74462672D01*
X99216176Y-74443820D01*
X99209150Y-74424185D01*
X99204083Y-74403957D01*
X99201023Y-74383329D01*
X99200000Y-74362500D01*
X99200000Y-73937500D01*
X99201023Y-73916671D01*
X99204083Y-73896043D01*
X99209150Y-73875815D01*
X99216176Y-73856180D01*
X99225092Y-73837328D01*
X99235813Y-73819441D01*
X99248235Y-73802691D01*
X99262240Y-73787240D01*
X99277691Y-73773235D01*
X99294441Y-73760813D01*
X99312328Y-73750092D01*
X99331180Y-73741176D01*
X99350815Y-73734150D01*
X99371043Y-73729083D01*
X99391671Y-73726023D01*
X99412500Y-73725000D01*
X99937500Y-73725000D01*
X99958329Y-73726023D01*
X99958329Y-73726023D01*
G37*
D18*
G04 #@! TD*
G04 #@! TO.P,Y2,2*
G04 #@! TO.N,GND*
X99675000Y-74150000D03*
D10*
G04 #@! TO.N,/RF_XIN*
G04 #@! TO.C,Y2*
G36*
X101408329Y-73726023D02*
X101428957Y-73729083D01*
X101449185Y-73734150D01*
X101468820Y-73741176D01*
X101487672Y-73750092D01*
X101505559Y-73760813D01*
X101522309Y-73773235D01*
X101537760Y-73787240D01*
X101551765Y-73802691D01*
X101564187Y-73819441D01*
X101574908Y-73837328D01*
X101583824Y-73856180D01*
X101590850Y-73875815D01*
X101595917Y-73896043D01*
X101598977Y-73916671D01*
X101600000Y-73937500D01*
X101600000Y-74362500D01*
X101598977Y-74383329D01*
X101595917Y-74403957D01*
X101590850Y-74424185D01*
X101583824Y-74443820D01*
X101574908Y-74462672D01*
X101564187Y-74480559D01*
X101551765Y-74497309D01*
X101537760Y-74512760D01*
X101522309Y-74526765D01*
X101505559Y-74539187D01*
X101487672Y-74549908D01*
X101468820Y-74558824D01*
X101449185Y-74565850D01*
X101428957Y-74570917D01*
X101408329Y-74573977D01*
X101387500Y-74575000D01*
X100862500Y-74575000D01*
X100841671Y-74573977D01*
X100821043Y-74570917D01*
X100800815Y-74565850D01*
X100781180Y-74558824D01*
X100762328Y-74549908D01*
X100744441Y-74539187D01*
X100727691Y-74526765D01*
X100712240Y-74512760D01*
X100698235Y-74497309D01*
X100685813Y-74480559D01*
X100675092Y-74462672D01*
X100666176Y-74443820D01*
X100659150Y-74424185D01*
X100654083Y-74403957D01*
X100651023Y-74383329D01*
X100650000Y-74362500D01*
X100650000Y-73937500D01*
X100651023Y-73916671D01*
X100654083Y-73896043D01*
X100659150Y-73875815D01*
X100666176Y-73856180D01*
X100675092Y-73837328D01*
X100685813Y-73819441D01*
X100698235Y-73802691D01*
X100712240Y-73787240D01*
X100727691Y-73773235D01*
X100744441Y-73760813D01*
X100762328Y-73750092D01*
X100781180Y-73741176D01*
X100800815Y-73734150D01*
X100821043Y-73729083D01*
X100841671Y-73726023D01*
X100862500Y-73725000D01*
X101387500Y-73725000D01*
X101408329Y-73726023D01*
X101408329Y-73726023D01*
G37*
D18*
G04 #@! TD*
G04 #@! TO.P,Y2,1*
G04 #@! TO.N,/RF_XIN*
X101125000Y-74150000D03*
D10*
G04 #@! TO.N,/LCDCAP*
G04 #@! TO.C,C4*
G36*
X115199958Y-79349710D02*
X115214276Y-79351834D01*
X115228317Y-79355351D01*
X115241946Y-79360228D01*
X115255031Y-79366417D01*
X115267447Y-79373858D01*
X115279073Y-79382481D01*
X115289798Y-79392202D01*
X115299519Y-79402927D01*
X115308142Y-79414553D01*
X115315583Y-79426969D01*
X115321772Y-79440054D01*
X115326649Y-79453683D01*
X115330166Y-79467724D01*
X115332290Y-79482042D01*
X115333000Y-79496500D01*
X115333000Y-79841500D01*
X115332290Y-79855958D01*
X115330166Y-79870276D01*
X115326649Y-79884317D01*
X115321772Y-79897946D01*
X115315583Y-79911031D01*
X115308142Y-79923447D01*
X115299519Y-79935073D01*
X115289798Y-79945798D01*
X115279073Y-79955519D01*
X115267447Y-79964142D01*
X115255031Y-79971583D01*
X115241946Y-79977772D01*
X115228317Y-79982649D01*
X115214276Y-79986166D01*
X115199958Y-79988290D01*
X115185500Y-79989000D01*
X114890500Y-79989000D01*
X114876042Y-79988290D01*
X114861724Y-79986166D01*
X114847683Y-79982649D01*
X114834054Y-79977772D01*
X114820969Y-79971583D01*
X114808553Y-79964142D01*
X114796927Y-79955519D01*
X114786202Y-79945798D01*
X114776481Y-79935073D01*
X114767858Y-79923447D01*
X114760417Y-79911031D01*
X114754228Y-79897946D01*
X114749351Y-79884317D01*
X114745834Y-79870276D01*
X114743710Y-79855958D01*
X114743000Y-79841500D01*
X114743000Y-79496500D01*
X114743710Y-79482042D01*
X114745834Y-79467724D01*
X114749351Y-79453683D01*
X114754228Y-79440054D01*
X114760417Y-79426969D01*
X114767858Y-79414553D01*
X114776481Y-79402927D01*
X114786202Y-79392202D01*
X114796927Y-79382481D01*
X114808553Y-79373858D01*
X114820969Y-79366417D01*
X114834054Y-79360228D01*
X114847683Y-79355351D01*
X114861724Y-79351834D01*
X114876042Y-79349710D01*
X114890500Y-79349000D01*
X115185500Y-79349000D01*
X115199958Y-79349710D01*
X115199958Y-79349710D01*
G37*
D11*
G04 #@! TD*
G04 #@! TO.P,C4,1*
G04 #@! TO.N,/LCDCAP*
X115038000Y-79669000D03*
D10*
G04 #@! TO.N,GND*
G04 #@! TO.C,C4*
G36*
X116169958Y-79349710D02*
X116184276Y-79351834D01*
X116198317Y-79355351D01*
X116211946Y-79360228D01*
X116225031Y-79366417D01*
X116237447Y-79373858D01*
X116249073Y-79382481D01*
X116259798Y-79392202D01*
X116269519Y-79402927D01*
X116278142Y-79414553D01*
X116285583Y-79426969D01*
X116291772Y-79440054D01*
X116296649Y-79453683D01*
X116300166Y-79467724D01*
X116302290Y-79482042D01*
X116303000Y-79496500D01*
X116303000Y-79841500D01*
X116302290Y-79855958D01*
X116300166Y-79870276D01*
X116296649Y-79884317D01*
X116291772Y-79897946D01*
X116285583Y-79911031D01*
X116278142Y-79923447D01*
X116269519Y-79935073D01*
X116259798Y-79945798D01*
X116249073Y-79955519D01*
X116237447Y-79964142D01*
X116225031Y-79971583D01*
X116211946Y-79977772D01*
X116198317Y-79982649D01*
X116184276Y-79986166D01*
X116169958Y-79988290D01*
X116155500Y-79989000D01*
X115860500Y-79989000D01*
X115846042Y-79988290D01*
X115831724Y-79986166D01*
X115817683Y-79982649D01*
X115804054Y-79977772D01*
X115790969Y-79971583D01*
X115778553Y-79964142D01*
X115766927Y-79955519D01*
X115756202Y-79945798D01*
X115746481Y-79935073D01*
X115737858Y-79923447D01*
X115730417Y-79911031D01*
X115724228Y-79897946D01*
X115719351Y-79884317D01*
X115715834Y-79870276D01*
X115713710Y-79855958D01*
X115713000Y-79841500D01*
X115713000Y-79496500D01*
X115713710Y-79482042D01*
X115715834Y-79467724D01*
X115719351Y-79453683D01*
X115724228Y-79440054D01*
X115730417Y-79426969D01*
X115737858Y-79414553D01*
X115746481Y-79402927D01*
X115756202Y-79392202D01*
X115766927Y-79382481D01*
X115778553Y-79373858D01*
X115790969Y-79366417D01*
X115804054Y-79360228D01*
X115817683Y-79355351D01*
X115831724Y-79351834D01*
X115846042Y-79349710D01*
X115860500Y-79349000D01*
X116155500Y-79349000D01*
X116169958Y-79349710D01*
X116169958Y-79349710D01*
G37*
D11*
G04 #@! TD*
G04 #@! TO.P,C4,2*
G04 #@! TO.N,GND*
X116008000Y-79669000D03*
D19*
G04 #@! TO.P,U1,1*
G04 #@! TO.N,Net-(KPD1-Pad9)*
X112075000Y-80750000D03*
G04 #@! TO.P,U1,2*
G04 #@! TO.N,Net-(BRD1-Pad4)*
X112075000Y-80250000D03*
G04 #@! TO.P,U1,3*
G04 #@! TO.N,Net-(BRD1-Pad3)*
X112075000Y-79750000D03*
G04 #@! TO.P,U1,4*
G04 #@! TO.N,/LCDCAP*
X112075000Y-79250000D03*
G04 #@! TO.P,U1,5*
G04 #@! TO.N,/COM0*
X112075000Y-78750000D03*
G04 #@! TO.P,U1,6*
G04 #@! TO.N,/COM1*
X112075000Y-78250000D03*
G04 #@! TO.P,U1,7*
G04 #@! TO.N,/COM2*
X112075000Y-77750000D03*
G04 #@! TO.P,U1,8*
G04 #@! TO.N,Net-(LCD1-Pad35)*
X112075000Y-77250000D03*
G04 #@! TO.P,U1,9*
G04 #@! TO.N,Net-(LCD1-Pad29)*
X112075000Y-76750000D03*
G04 #@! TO.P,U1,10*
G04 #@! TO.N,/VCORE*
X112075000Y-76250000D03*
G04 #@! TO.P,U1,11*
G04 #@! TO.N,VCC*
X112075000Y-75750000D03*
G04 #@! TO.P,U1,12*
G04 #@! TO.N,Net-(LCD1-Pad28)*
X112075000Y-75250000D03*
G04 #@! TO.P,U1,13*
G04 #@! TO.N,Net-(LCD1-Pad27)*
X112075000Y-74750000D03*
G04 #@! TO.P,U1,14*
G04 #@! TO.N,Net-(LCD1-Pad26)*
X112075000Y-74250000D03*
G04 #@! TO.P,U1,15*
G04 #@! TO.N,Net-(LCD1-Pad25)*
X112075000Y-73750000D03*
G04 #@! TO.P,U1,16*
G04 #@! TO.N,Net-(LCD1-Pad24)*
X112075000Y-73250000D03*
D20*
G04 #@! TO.P,U1,17*
G04 #@! TO.N,Net-(LCD1-Pad23)*
X111350000Y-72525000D03*
G04 #@! TO.P,U1,18*
G04 #@! TO.N,Net-(LCD1-Pad22)*
X110850000Y-72525000D03*
G04 #@! TO.P,U1,19*
G04 #@! TO.N,Net-(LCD1-Pad21)*
X110350000Y-72525000D03*
G04 #@! TO.P,U1,20*
G04 #@! TO.N,Net-(LCD1-Pad20)*
X109850000Y-72525000D03*
G04 #@! TO.P,U1,21*
G04 #@! TO.N,Net-(LCD1-Pad19)*
X109350000Y-72525000D03*
G04 #@! TO.P,U1,22*
G04 #@! TO.N,Net-(LCD1-Pad18)*
X108850000Y-72525000D03*
G04 #@! TO.P,U1,23*
G04 #@! TO.N,Net-(LCD1-Pad17)*
X108350000Y-72525000D03*
G04 #@! TO.P,U1,24*
G04 #@! TO.N,Net-(LCD1-Pad16)*
X107850000Y-72525000D03*
G04 #@! TO.P,U1,25*
G04 #@! TO.N,VCC*
X107350000Y-72525000D03*
G04 #@! TO.P,U1,26*
G04 #@! TO.N,Net-(LCD1-Pad15)*
X106850000Y-72525000D03*
G04 #@! TO.P,U1,27*
G04 #@! TO.N,Net-(LCD1-Pad14)*
X106350000Y-72525000D03*
G04 #@! TO.P,U1,28*
G04 #@! TO.N,Net-(LCD1-Pad13)*
X105850000Y-72525000D03*
G04 #@! TO.P,U1,29*
G04 #@! TO.N,Net-(LCD1-Pad12)*
X105350000Y-72525000D03*
G04 #@! TO.P,U1,30*
G04 #@! TO.N,Net-(LCD1-Pad11)*
X104850000Y-72525000D03*
G04 #@! TO.P,U1,31*
G04 #@! TO.N,Net-(LCD1-Pad10)*
X104350000Y-72525000D03*
G04 #@! TO.P,U1,32*
G04 #@! TO.N,Net-(LCD1-Pad9)*
X103850000Y-72525000D03*
D19*
G04 #@! TO.P,U1,33*
G04 #@! TO.N,Net-(LCD1-Pad8)*
X103125000Y-73250000D03*
G04 #@! TO.P,U1,34*
G04 #@! TO.N,Net-(LCD1-Pad7)*
X103125000Y-73750000D03*
G04 #@! TO.P,U1,35*
G04 #@! TO.N,Net-(LCD1-Pad6)*
X103125000Y-74250000D03*
G04 #@! TO.P,U1,36*
G04 #@! TO.N,/RF_XIN*
X103125000Y-74750000D03*
G04 #@! TO.P,U1,37*
G04 #@! TO.N,/RF_XOUT*
X103125000Y-75250000D03*
G04 #@! TO.P,U1,38*
G04 #@! TO.N,/RFVCC*
X103125000Y-75750000D03*
G04 #@! TO.P,U1,39*
X103125000Y-76250000D03*
G04 #@! TO.P,U1,40*
G04 #@! TO.N,/RF_P*
X103125000Y-76750000D03*
G04 #@! TO.P,U1,41*
G04 #@! TO.N,/RF_N*
X103125000Y-77250000D03*
G04 #@! TO.P,U1,42*
G04 #@! TO.N,/RFVCC*
X103125000Y-77750000D03*
G04 #@! TO.P,U1,43*
X103125000Y-78250000D03*
G04 #@! TO.P,U1,44*
G04 #@! TO.N,Net-(R2-Pad1)*
X103125000Y-78750000D03*
G04 #@! TO.P,U1,45*
G04 #@! TO.N,/RFVCC*
X103125000Y-79250000D03*
G04 #@! TO.P,U1,46*
G04 #@! TO.N,Net-(U1-Pad46)*
X103125000Y-79750000D03*
G04 #@! TO.P,U1,47*
G04 #@! TO.N,Net-(U1-Pad47)*
X103125000Y-80250000D03*
G04 #@! TO.P,U1,48*
G04 #@! TO.N,Net-(U1-Pad48)*
X103125000Y-80750000D03*
D20*
G04 #@! TO.P,U1,49*
G04 #@! TO.N,Net-(U1-Pad49)*
X103850000Y-81475000D03*
G04 #@! TO.P,U1,50*
G04 #@! TO.N,/TST*
X104350000Y-81475000D03*
G04 #@! TO.P,U1,51*
G04 #@! TO.N,/!RST*
X104850000Y-81475000D03*
G04 #@! TO.P,U1,52*
G04 #@! TO.N,VCC*
X105350000Y-81475000D03*
G04 #@! TO.P,U1,53*
G04 #@! TO.N,GND*
X105850000Y-81475000D03*
G04 #@! TO.P,U1,54*
G04 #@! TO.N,Net-(U1-Pad54)*
X106350000Y-81475000D03*
G04 #@! TO.P,U1,55*
G04 #@! TO.N,Net-(U1-Pad55)*
X106850000Y-81475000D03*
G04 #@! TO.P,U1,56*
G04 #@! TO.N,VCC*
X107350000Y-81475000D03*
G04 #@! TO.P,U1,57*
G04 #@! TO.N,/BUZZ*
X107850000Y-81475000D03*
G04 #@! TO.P,U1,58*
G04 #@! TO.N,Net-(KPD1-Pad2)*
X108350000Y-81475000D03*
G04 #@! TO.P,U1,59*
G04 #@! TO.N,Net-(KPD1-Pad3)*
X108850000Y-81475000D03*
G04 #@! TO.P,U1,60*
G04 #@! TO.N,Net-(KPD1-Pad4)*
X109350000Y-81475000D03*
G04 #@! TO.P,U1,61*
G04 #@! TO.N,Net-(KPD1-Pad5)*
X109850000Y-81475000D03*
G04 #@! TO.P,U1,62*
G04 #@! TO.N,Net-(KPD1-Pad6)*
X110350000Y-81475000D03*
G04 #@! TO.P,U1,63*
G04 #@! TO.N,Net-(KPD1-Pad7)*
X110850000Y-81475000D03*
G04 #@! TO.P,U1,64*
G04 #@! TO.N,Net-(KPD1-Pad8)*
X111350000Y-81475000D03*
D21*
G04 #@! TO.P,U1,65*
G04 #@! TO.N,GND*
X107600000Y-77000000D03*
G04 #@! TD*
D22*
G04 #@! TO.N,GND*
X104140000Y-67564000D03*
X100200000Y-67500000D03*
X101346000Y-72136000D03*
X108966000Y-75692000D03*
X108966000Y-76962000D03*
X108966000Y-78486000D03*
X117100000Y-83800000D03*
X117094000Y-85344000D03*
X110998000Y-85344000D03*
X105664000Y-85344000D03*
X97790000Y-70612000D03*
X97790000Y-68850000D03*
X120650000Y-70358000D03*
X120650000Y-67056000D03*
X119888000Y-66294000D03*
X117602000Y-66294000D03*
X113284000Y-66294000D03*
X117856000Y-79502000D03*
X108966000Y-74168000D03*
X110490000Y-74422000D03*
X110744000Y-78486000D03*
X110744000Y-76962000D03*
X104902000Y-73914000D03*
X120396000Y-74422000D03*
X120142000Y-76708000D03*
X119380000Y-78994000D03*
X119380000Y-81280000D03*
X118000000Y-73700000D03*
X117595000Y-75438000D03*
X116793000Y-81320000D03*
X107268000Y-66715000D03*
X102696000Y-66334000D03*
X99400000Y-66650000D03*
X111459000Y-67604000D03*
X106600000Y-77000000D03*
X106760000Y-75351000D03*
X115142000Y-67477000D03*
X116800000Y-77200000D03*
X115269000Y-74135200D03*
X115269000Y-72430000D03*
X107600000Y-77000000D03*
X108458000Y-85344000D03*
X101000000Y-78500000D03*
X98600000Y-77500000D03*
X101600000Y-83900000D03*
X102000000Y-81700000D03*
X102072285Y-75172285D03*
X111500000Y-66400000D03*
X106300000Y-78400000D03*
G04 #@! TO.N,VCC*
X108919000Y-80010000D03*
X107395000Y-73954000D03*
X105296397Y-80099212D03*
X101300000Y-82300000D03*
G04 #@! TO.N,Net-(U1-Pad54)*
X110570000Y-80177000D03*
G04 #@! TO.N,Net-(U1-Pad55)*
X107100000Y-80200000D03*
G04 #@! TO.N,/!RST*
X104753400Y-79516600D03*
G04 #@! TO.N,/COM0*
X118970552Y-67335422D03*
X118974981Y-76489728D03*
G04 #@! TO.N,/COM1*
X118358989Y-67816011D03*
X118200000Y-77000000D03*
G04 #@! TO.N,/COM2*
X117400000Y-77600000D03*
X117821870Y-68382721D03*
G04 #@! TO.N,Net-(A1-Pad1)*
X104700000Y-64100000D03*
X100408282Y-64100000D03*
G04 #@! TO.N,/RFVCC*
X104093000Y-76821200D03*
X104093000Y-75732000D03*
X104474000Y-78526000D03*
G04 #@! TO.N,/BUZZ*
X109681000Y-80304000D03*
G04 #@! TD*
D23*
G04 #@! TO.N,Net-(LCD1-Pad6)*
X102102680Y-72908412D02*
X102200000Y-72811092D01*
X102200000Y-72811092D02*
X102200000Y-70200000D01*
X103125000Y-74250000D02*
X103125000Y-74169000D01*
X103125000Y-74169000D02*
X103097710Y-74141710D01*
X103097710Y-74141710D02*
X102436002Y-74141710D01*
X102436002Y-74141710D02*
X102102680Y-73808388D01*
X102102680Y-73808388D02*
X102102680Y-72908412D01*
G04 #@! TO.N,Net-(LCD1-Pad7)*
X102458290Y-73055710D02*
X102800000Y-72714000D01*
X102800000Y-72714000D02*
X102800000Y-70200000D01*
X103125000Y-73750000D02*
X102547200Y-73750000D01*
X102547200Y-73750000D02*
X102458290Y-73661090D01*
X102458290Y-73661090D02*
X102458290Y-73055710D01*
G04 #@! TO.N,Net-(LCD1-Pad8)*
X103400000Y-70200000D02*
X103400000Y-72975000D01*
X103400000Y-72975000D02*
X103125000Y-73250000D01*
G04 #@! TO.N,Net-(LCD1-Pad9)*
X103850000Y-71350000D02*
X103850000Y-72525000D01*
X104000000Y-70200000D02*
X104000000Y-71200000D01*
X104000000Y-71200000D02*
X103850000Y-71350000D01*
G04 #@! TO.N,Net-(LCD1-Pad10)*
X104350000Y-71450000D02*
X104350000Y-72525000D01*
X104600000Y-70200000D02*
X104600000Y-71200000D01*
X104600000Y-71200000D02*
X104350000Y-71450000D01*
G04 #@! TO.N,Net-(LCD1-Pad11)*
X104850000Y-71550000D02*
X104850000Y-72525000D01*
X105200000Y-71200000D02*
X104850000Y-71550000D01*
X105200000Y-70200000D02*
X105200000Y-71200000D01*
G04 #@! TO.N,Net-(LCD1-Pad12)*
X105800000Y-70200000D02*
X105800000Y-71220807D01*
X105800000Y-71220807D02*
X105350000Y-71670807D01*
X105350000Y-71670807D02*
X105350000Y-72525000D01*
G04 #@! TO.N,Net-(LCD1-Pad13)*
X105850000Y-71750000D02*
X105850000Y-72525000D01*
X106400000Y-70200000D02*
X106400000Y-71200000D01*
X106400000Y-71200000D02*
X105850000Y-71750000D01*
G04 #@! TO.N,Net-(LCD1-Pad14)*
X106350000Y-71850000D02*
X106350000Y-72525000D01*
X107000000Y-70200000D02*
X107000000Y-71200000D01*
X107000000Y-71200000D02*
X106350000Y-71850000D01*
G04 #@! TO.N,Net-(LCD1-Pad15)*
X106850000Y-71950000D02*
X106850000Y-72525000D01*
X107600000Y-70200000D02*
X107600000Y-71200000D01*
X107600000Y-71200000D02*
X106850000Y-71950000D01*
G04 #@! TO.N,Net-(LCD1-Pad16)*
X108200000Y-70200000D02*
X108200000Y-71244000D01*
X107850000Y-71594000D02*
X107850000Y-72525000D01*
X108200000Y-71244000D02*
X107850000Y-71594000D01*
G04 #@! TO.N,Net-(LCD1-Pad17)*
X108800000Y-70200000D02*
X108800000Y-71152000D01*
X108350000Y-71602000D02*
X108350000Y-72525000D01*
X108800000Y-71152000D02*
X108350000Y-71602000D01*
G04 #@! TO.N,Net-(LCD1-Pad18)*
X109400000Y-70200000D02*
X109400000Y-71060000D01*
X109400000Y-71060000D02*
X108850000Y-71610000D01*
X108850000Y-71610000D02*
X108850000Y-72525000D01*
G04 #@! TO.N,Net-(LCD1-Pad19)*
X110000000Y-70200000D02*
X110000000Y-71095000D01*
X109350000Y-71745000D02*
X109350000Y-72525000D01*
X110000000Y-71095000D02*
X109350000Y-71745000D01*
G04 #@! TO.N,Net-(LCD1-Pad20)*
X110600000Y-70200000D02*
X110600000Y-71130000D01*
X109808000Y-71922000D02*
X109808000Y-72483000D01*
X110600000Y-71130000D02*
X109808000Y-71922000D01*
X109808000Y-72483000D02*
X109850000Y-72525000D01*
G04 #@! TO.N,Net-(LCD1-Pad21)*
X111200000Y-70200000D02*
X111200000Y-71032898D01*
X111200000Y-71032898D02*
X110951000Y-71281898D01*
X110951000Y-71281898D02*
X110313449Y-71919449D01*
X110313449Y-71919449D02*
X110313449Y-72488449D01*
X110313449Y-72488449D02*
X110350000Y-72525000D01*
G04 #@! TO.N,Net-(LCD1-Pad22)*
X111800000Y-70200000D02*
X111800000Y-71073000D01*
X111800000Y-71073000D02*
X111400602Y-71472398D01*
X111400602Y-71472398D02*
X111273602Y-71472398D01*
X111273602Y-71472398D02*
X110850000Y-71896000D01*
X110850000Y-71896000D02*
X110850000Y-72525000D01*
G04 #@! TO.N,Net-(LCD1-Pad23)*
X112400000Y-70200000D02*
X112400000Y-71108000D01*
X112400000Y-71108000D02*
X111350000Y-72158000D01*
X111350000Y-72158000D02*
X111350000Y-72525000D01*
G04 #@! TO.N,Net-(LCD1-Pad24)*
X113000000Y-70200000D02*
X113000000Y-71252800D01*
X113000000Y-71252800D02*
X112075000Y-72177800D01*
X112075000Y-72177800D02*
X112075000Y-73250000D01*
G04 #@! TO.N,Net-(LCD1-Pad25)*
X113600000Y-70200000D02*
X113600000Y-70670000D01*
X112750000Y-73750000D02*
X112075000Y-73750000D01*
X113421701Y-73078299D02*
X112750000Y-73750000D01*
X113421701Y-71431099D02*
X113421701Y-73078299D01*
X113600000Y-70200000D02*
X113600000Y-71252800D01*
X113600000Y-71252800D02*
X113421701Y-71431099D01*
G04 #@! TO.N,Net-(LCD1-Pad26)*
X112750000Y-74250000D02*
X112075000Y-74250000D01*
X113777311Y-73222689D02*
X112750000Y-74250000D01*
X113777311Y-71722689D02*
X113777311Y-73222689D01*
X114200000Y-70200000D02*
X114200000Y-71300000D01*
X114200000Y-71300000D02*
X113777311Y-71722689D01*
G04 #@! TO.N,Net-(LCD1-Pad27)*
X112750000Y-74750000D02*
X112075000Y-74750000D01*
X114132920Y-73367080D02*
X112750000Y-74750000D01*
X114132920Y-71967080D02*
X114132920Y-73367080D01*
X114800000Y-70200000D02*
X114800000Y-71300000D01*
X114800000Y-71300000D02*
X114132920Y-71967080D01*
G04 #@! TO.N,Net-(LCD1-Pad28)*
X115400000Y-71252800D02*
X115400000Y-70200000D01*
X114558719Y-72094081D02*
X115400000Y-71252800D01*
X114558719Y-73441281D02*
X114558719Y-72094081D01*
X112075000Y-75250000D02*
X112750000Y-75250000D01*
X112750000Y-75250000D02*
X114558719Y-73441281D01*
G04 #@! TO.N,Net-(LCD1-Pad29)*
X116000000Y-76400000D02*
X116000000Y-71252800D01*
X112075000Y-76750000D02*
X112950000Y-76750000D01*
X116000000Y-71252800D02*
X116000000Y-70200000D01*
X115500000Y-76900000D02*
X116000000Y-76400000D01*
X113100000Y-76900000D02*
X115500000Y-76900000D01*
X112950000Y-76750000D02*
X113100000Y-76900000D01*
G04 #@! TO.N,Net-(BRD1-Pad4)*
X120763562Y-82810438D02*
X120974000Y-82600000D01*
X120974000Y-82600000D02*
X121800000Y-82600000D01*
X116158000Y-82810438D02*
X120763562Y-82810438D01*
X112075000Y-80250000D02*
X113597562Y-80250000D01*
X113597562Y-80250000D02*
X116158000Y-82810438D01*
X121800000Y-81850000D02*
X121800000Y-82600000D01*
G04 #@! TO.N,Net-(BRD1-Pad3)*
X121676000Y-75224000D02*
X121800000Y-75100000D01*
X121238000Y-75224000D02*
X121676000Y-75224000D01*
X121238000Y-77189800D02*
X121238000Y-75224000D01*
X113600470Y-79750000D02*
X116305298Y-82454828D01*
X120600000Y-81800000D02*
X120600000Y-77827800D01*
X112075000Y-79750000D02*
X113600470Y-79750000D01*
X116305298Y-82454828D02*
X119945172Y-82454828D01*
X119945172Y-82454828D02*
X120600000Y-81800000D01*
X120600000Y-77827800D02*
X121238000Y-77189800D01*
G04 #@! TO.N,Net-(KPD1-Pad2)*
X104800000Y-83800000D02*
X104800000Y-83417500D01*
X105559201Y-82658299D02*
X106556293Y-82658299D01*
X104800000Y-83417500D02*
X105559201Y-82658299D01*
X106556293Y-82658299D02*
X106911903Y-82302689D01*
X108350000Y-81896622D02*
X108350000Y-81475000D01*
X106911903Y-82302689D02*
X107943933Y-82302689D01*
X107943933Y-82302689D02*
X108350000Y-81896622D01*
X108350000Y-81475000D02*
X108350000Y-81803961D01*
X104800000Y-84182500D02*
X104800000Y-83800000D01*
G04 #@! TO.N,Net-(KPD1-Pad3)*
X108850000Y-81950000D02*
X108850000Y-81475000D01*
X108141701Y-82658299D02*
X108850000Y-81950000D01*
X107059201Y-82658299D02*
X108141701Y-82658299D01*
X106300000Y-83800000D02*
X106300000Y-83417500D01*
X106300000Y-83417500D02*
X107059201Y-82658299D01*
G04 #@! TO.N,Net-(KPD1-Pad4)*
X109350000Y-81996410D02*
X109350000Y-81475000D01*
X108540799Y-82805611D02*
X109350000Y-81996410D01*
X108540799Y-83500000D02*
X108540799Y-82805611D01*
X107800000Y-83800000D02*
X108240799Y-83800000D01*
X108240799Y-83800000D02*
X108540799Y-83500000D01*
G04 #@! TO.N,Net-(KPD1-Pad5)*
X109350000Y-83750000D02*
X109300000Y-83800000D01*
X109300000Y-83800000D02*
X109300000Y-83098000D01*
X109350000Y-82500000D02*
X109350000Y-83750000D01*
X109850000Y-81475000D02*
X109850000Y-82000000D01*
X109850000Y-82000000D02*
X109350000Y-82500000D01*
G04 #@! TO.N,Net-(KPD1-Pad6)*
X110350000Y-82200000D02*
X110350000Y-81475000D01*
X110800000Y-83800000D02*
X110800000Y-82650000D01*
X110800000Y-82650000D02*
X110350000Y-82200000D01*
G04 #@! TO.N,Net-(KPD1-Pad7)*
X112300000Y-82750000D02*
X112300000Y-83800000D01*
X112000000Y-82450000D02*
X112300000Y-82750000D01*
X111200000Y-82450000D02*
X112000000Y-82450000D01*
X110850000Y-81475000D02*
X110850000Y-82100000D01*
X110850000Y-82100000D02*
X111200000Y-82450000D01*
G04 #@! TO.N,Net-(KPD1-Pad8)*
X111350000Y-81475000D02*
X112630000Y-81475000D01*
X113800000Y-82645000D02*
X113800000Y-83800000D01*
X112630000Y-81475000D02*
X113800000Y-82645000D01*
G04 #@! TO.N,Net-(KPD1-Pad9)*
X112075000Y-80750000D02*
X113429000Y-80750000D01*
X115300000Y-82621000D02*
X115300000Y-83800000D01*
X113429000Y-80750000D02*
X115300000Y-82621000D01*
G04 #@! TO.N,GND*
X101259000Y-72049000D02*
X101346000Y-72136000D01*
X108966000Y-76962000D02*
X107638000Y-76962000D01*
X107638000Y-76962000D02*
X107600000Y-77000000D01*
X119340000Y-81320000D02*
X119380000Y-81280000D01*
X105850000Y-81475000D02*
X105850000Y-82050000D01*
X105850000Y-82050000D02*
X105600000Y-82300000D01*
X105600000Y-82300000D02*
X105100000Y-82300000D01*
X105900000Y-78700000D02*
X107600000Y-77000000D01*
X105850000Y-81475000D02*
X105900000Y-81425000D01*
X105900000Y-81425000D02*
X105900000Y-78700000D01*
X101070400Y-75307200D02*
X101937370Y-75307200D01*
X101937370Y-75307200D02*
X102072285Y-75172285D01*
X99310000Y-74515000D02*
X99675000Y-74150000D01*
X98479600Y-74515000D02*
X99310000Y-74515000D01*
G04 #@! TO.N,VCC*
X107350000Y-81475000D02*
X107350000Y-80894292D01*
X107350000Y-80894292D02*
X108234292Y-80010000D01*
X108234292Y-80010000D02*
X108494736Y-80010000D01*
X108494736Y-80010000D02*
X108919000Y-80010000D01*
X112075000Y-75750000D02*
X111497200Y-75750000D01*
X111497200Y-75750000D02*
X111332000Y-75584800D01*
X111332000Y-75584800D02*
X111332000Y-73335961D01*
X111332000Y-73335961D02*
X111187749Y-73191710D01*
X107350000Y-73909000D02*
X107395000Y-73954000D01*
X107350000Y-73102800D02*
X107350000Y-72525000D01*
X112093000Y-75732000D02*
X112075000Y-75750000D01*
X105350000Y-81475000D02*
X105350000Y-80152815D01*
X105350000Y-80152815D02*
X105296397Y-80099212D01*
X107358290Y-73191710D02*
X107350000Y-73200000D01*
X111187749Y-73191710D02*
X107358290Y-73191710D01*
X107350000Y-73102800D02*
X107350000Y-73200000D01*
X107350000Y-73200000D02*
X107350000Y-73909000D01*
X100485000Y-82800000D02*
X100800000Y-82800000D01*
X100800000Y-82800000D02*
X101300000Y-82300000D01*
X113676000Y-75224000D02*
X113933000Y-75224000D01*
X112075000Y-75750000D02*
X113150000Y-75750000D01*
X113150000Y-75750000D02*
X113676000Y-75224000D01*
G04 #@! TO.N,Net-(U1-Pad54)*
X110570000Y-80170000D02*
X110570000Y-80177000D01*
X109791701Y-79391701D02*
X110570000Y-80170000D01*
X106785207Y-79391701D02*
X109791701Y-79391701D01*
X106350000Y-79826908D02*
X106785207Y-79391701D01*
X106350000Y-81475000D02*
X106350000Y-79826908D01*
G04 #@! TO.N,Net-(U1-Pad55)*
X106850000Y-80450000D02*
X107100000Y-80200000D01*
X106850000Y-81475000D02*
X106850000Y-80450000D01*
G04 #@! TO.N,/TST*
X100361999Y-83638001D02*
X99600000Y-84400000D01*
X101061999Y-83638001D02*
X100361999Y-83638001D01*
X102397311Y-82302689D02*
X101061999Y-83638001D01*
X104350000Y-81475000D02*
X104350000Y-82052800D01*
X104100111Y-82302689D02*
X102397311Y-82302689D01*
X104350000Y-82052800D02*
X104100111Y-82302689D01*
G04 #@! TO.N,/!RST*
X104850000Y-81475000D02*
X104850000Y-80506218D01*
X104850000Y-80506218D02*
X104716599Y-80372817D01*
X104716599Y-80372817D02*
X104716599Y-79553401D01*
X104716599Y-79553401D02*
X104753400Y-79516600D01*
X98270000Y-82800000D02*
X97870000Y-82400000D01*
X99515000Y-82800000D02*
X98270000Y-82800000D01*
G04 #@! TO.N,/COM0*
X99775000Y-70225000D02*
X99800000Y-70200000D01*
X118974981Y-77466648D02*
X118974981Y-76489728D01*
X117691629Y-78750000D02*
X118974981Y-77466648D01*
X112075000Y-78750000D02*
X117691629Y-78750000D01*
X118795532Y-67160402D02*
X117636689Y-67160402D01*
X99800000Y-69147200D02*
X99800000Y-70200000D01*
X118970552Y-67335422D02*
X118795532Y-67160402D01*
X117636689Y-67160402D02*
X116450012Y-68347079D01*
X116450012Y-68347079D02*
X100600120Y-68347080D01*
X100600120Y-68347080D02*
X99800000Y-69147200D01*
G04 #@! TO.N,/COM1*
X100410000Y-70210000D02*
X100400000Y-70200000D01*
X117688720Y-78250000D02*
X118200000Y-77738720D01*
X118200000Y-77738720D02*
X118200000Y-77000000D01*
X112075000Y-78250000D02*
X117688720Y-78250000D01*
X100400000Y-69147200D02*
X100400000Y-70200000D01*
X100844510Y-68702690D02*
X100400000Y-69147200D01*
X118358989Y-67816011D02*
X117583989Y-67816011D01*
X117583989Y-67816011D02*
X116697310Y-68702690D01*
X116697310Y-68702690D02*
X100844510Y-68702690D01*
G04 #@! TO.N,/COM2*
X101045000Y-70245000D02*
X101000000Y-70200000D01*
X117250000Y-77750000D02*
X117400000Y-77600000D01*
X112075000Y-77750000D02*
X117250000Y-77750000D01*
X101088901Y-69058299D02*
X117146292Y-69058299D01*
X101000000Y-69147200D02*
X101088901Y-69058299D01*
X101000000Y-70200000D02*
X101000000Y-69147200D01*
X117146292Y-69058299D02*
X117821870Y-68382721D01*
G04 #@! TO.N,/VCORE*
X113963000Y-76250000D02*
X113973000Y-76240000D01*
X113923000Y-76250000D02*
X113933000Y-76240000D01*
X112075000Y-76250000D02*
X113923000Y-76250000D01*
G04 #@! TO.N,Net-(LCD1-Pad35)*
X119600000Y-71252800D02*
X119600000Y-70200000D01*
X116355610Y-74497190D02*
X119600000Y-71252800D01*
X116355610Y-76544390D02*
X116355610Y-74497190D01*
X112075000Y-77250000D02*
X115650000Y-77250000D01*
X115650000Y-77250000D02*
X116355610Y-76544390D01*
G04 #@! TO.N,/LCDCAP*
X114619000Y-79250000D02*
X115038000Y-79669000D01*
X112075000Y-79250000D02*
X114619000Y-79250000D01*
G04 #@! TO.N,/RF_P*
X103125000Y-76750000D02*
X101750000Y-76750000D01*
X101750000Y-76750000D02*
X101650000Y-76850000D01*
G04 #@! TO.N,/RF_N*
X102547200Y-77250000D02*
X101947200Y-77850000D01*
X103125000Y-77250000D02*
X102547200Y-77250000D01*
X101947200Y-77850000D02*
X101600000Y-77850000D01*
G04 #@! TO.N,Net-(A1-Pad1)*
X100408282Y-64100000D02*
X104700000Y-64100000D01*
X97223299Y-67284983D02*
X100408282Y-64100000D01*
X97223299Y-80230821D02*
X97223299Y-67284983D01*
X97223299Y-80230821D02*
X98792478Y-81800000D01*
X98792478Y-81800000D02*
X99515000Y-81800000D01*
G04 #@! TO.N,Net-(R2-Pad1)*
X101965000Y-78750000D02*
X101900000Y-78815000D01*
X103125000Y-78750000D02*
X101965000Y-78750000D01*
G04 #@! TO.N,/RF_XIN*
X102488720Y-74750000D02*
X102547200Y-74750000D01*
X102547200Y-74750000D02*
X103125000Y-74750000D01*
X101888720Y-74150000D02*
X102488720Y-74750000D01*
X101125000Y-74150000D02*
X101888720Y-74150000D01*
X101485000Y-73790000D02*
X101125000Y-74150000D01*
X101485000Y-73039600D02*
X101485000Y-73790000D01*
G04 #@! TO.N,/RF_XOUT*
X103125000Y-75250000D02*
X102796039Y-75250000D01*
X99725000Y-75300000D02*
X99675000Y-75300000D01*
X100525000Y-76100000D02*
X99725000Y-75300000D01*
X101946039Y-76100000D02*
X100525000Y-76100000D01*
X102796039Y-75250000D02*
X101946039Y-76100000D01*
X99490000Y-75485000D02*
X99675000Y-75300000D01*
X98479600Y-75485000D02*
X99490000Y-75485000D01*
G04 #@! TO.N,/RFVCC*
X103400000Y-75750000D02*
X103125000Y-75750000D01*
G04 #@! TO.N,/BUZZ*
X107850000Y-81475000D02*
X107804000Y-81475000D01*
X109385000Y-80600000D02*
X109681000Y-80304000D01*
X107850000Y-81475000D02*
X107850000Y-80897200D01*
X108147200Y-80600000D02*
X109385000Y-80600000D01*
X107850000Y-80897200D02*
X108147200Y-80600000D01*
G04 #@! TO.N,Net-(C10-Pad1)*
X100000000Y-81315000D02*
X100485000Y-81800000D01*
X100000000Y-80775000D02*
X100000000Y-81315000D01*
G04 #@! TO.N,Net-(U2-Pad8)*
X100000000Y-78158000D02*
X100315000Y-77843000D01*
X100000000Y-78825000D02*
X100000000Y-78158000D01*
G04 #@! TD*
D10*
G04 #@! TO.N,GND*
G36*
X121188000Y-72170478D02*
X121178207Y-72146836D01*
X120953164Y-71921793D01*
X120659130Y-71800000D01*
X120340870Y-71800000D01*
X120046836Y-71921793D01*
X119821793Y-72146836D01*
X119700000Y-72440870D01*
X119700000Y-72759130D01*
X119821793Y-73053164D01*
X120046836Y-73278207D01*
X120340870Y-73400000D01*
X120659130Y-73400000D01*
X120953164Y-73278207D01*
X121178207Y-73053164D01*
X121188000Y-73029522D01*
X121188000Y-73825963D01*
X121046417Y-74037857D01*
X121000000Y-74271212D01*
X121000000Y-75085205D01*
X120978956Y-75116701D01*
X120957613Y-75224000D01*
X120963001Y-75251087D01*
X120963000Y-77075891D01*
X120424697Y-77614195D01*
X120401737Y-77629536D01*
X120340957Y-77720501D01*
X120319613Y-77827800D01*
X120325001Y-77854886D01*
X120325000Y-81686091D01*
X119831264Y-82179828D01*
X116419206Y-82179828D01*
X113814078Y-79574700D01*
X113798734Y-79551736D01*
X113758720Y-79525000D01*
X114505092Y-79525000D01*
X114539082Y-79558990D01*
X114539082Y-79841500D01*
X114565832Y-79975982D01*
X114642010Y-80089990D01*
X114756018Y-80166168D01*
X114890500Y-80192918D01*
X115185500Y-80192918D01*
X115319982Y-80166168D01*
X115433990Y-80089990D01*
X115465006Y-80043571D01*
X115501060Y-80130614D01*
X115571386Y-80200940D01*
X115663272Y-80239000D01*
X115895500Y-80239000D01*
X115958000Y-80176500D01*
X115958000Y-79719000D01*
X116058000Y-79719000D01*
X116058000Y-80176500D01*
X116120500Y-80239000D01*
X116352728Y-80239000D01*
X116444614Y-80200940D01*
X116514940Y-80130614D01*
X116553000Y-80038728D01*
X116553000Y-79781500D01*
X116490500Y-79719000D01*
X116058000Y-79719000D01*
X115958000Y-79719000D01*
X115938000Y-79719000D01*
X115938000Y-79619000D01*
X115958000Y-79619000D01*
X115958000Y-79161500D01*
X116058000Y-79161500D01*
X116058000Y-79619000D01*
X116490500Y-79619000D01*
X116553000Y-79556500D01*
X116553000Y-79299272D01*
X116514940Y-79207386D01*
X116444614Y-79137060D01*
X116352728Y-79099000D01*
X116120500Y-79099000D01*
X116058000Y-79161500D01*
X115958000Y-79161500D01*
X115895500Y-79099000D01*
X115663272Y-79099000D01*
X115571386Y-79137060D01*
X115501060Y-79207386D01*
X115465006Y-79294429D01*
X115433990Y-79248010D01*
X115319982Y-79171832D01*
X115185500Y-79145082D01*
X114902990Y-79145082D01*
X114832608Y-79074700D01*
X114817264Y-79051736D01*
X114777250Y-79025000D01*
X117664548Y-79025000D01*
X117691629Y-79030387D01*
X117718710Y-79025000D01*
X117718711Y-79025000D01*
X117798928Y-79009044D01*
X117889893Y-78948264D01*
X117905236Y-78925301D01*
X119150285Y-77680253D01*
X119173245Y-77664912D01*
X119234025Y-77573947D01*
X119249981Y-77493730D01*
X119249981Y-77493729D01*
X119255368Y-77466648D01*
X119249981Y-77439567D01*
X119249981Y-76851125D01*
X119356473Y-76744633D01*
X119424981Y-76579239D01*
X119424981Y-76400217D01*
X119356473Y-76234823D01*
X119229886Y-76108236D01*
X119064492Y-76039728D01*
X118885470Y-76039728D01*
X118720076Y-76108236D01*
X118593489Y-76234823D01*
X118524981Y-76400217D01*
X118524981Y-76579239D01*
X118593489Y-76744633D01*
X118699982Y-76851126D01*
X118699981Y-77352739D01*
X118475000Y-77577720D01*
X118475000Y-77361397D01*
X118581492Y-77254905D01*
X118650000Y-77089511D01*
X118650000Y-76910489D01*
X118581492Y-76745095D01*
X118454905Y-76618508D01*
X118289511Y-76550000D01*
X118110489Y-76550000D01*
X117945095Y-76618508D01*
X117818508Y-76745095D01*
X117750000Y-76910489D01*
X117750000Y-77089511D01*
X117818508Y-77254905D01*
X117925001Y-77361398D01*
X117925000Y-77624811D01*
X117842717Y-77707095D01*
X117850000Y-77689511D01*
X117850000Y-77510489D01*
X117781492Y-77345095D01*
X117654905Y-77218508D01*
X117489511Y-77150000D01*
X117310489Y-77150000D01*
X117145095Y-77218508D01*
X117018508Y-77345095D01*
X116964700Y-77475000D01*
X115808250Y-77475000D01*
X115848264Y-77448264D01*
X115863607Y-77425301D01*
X116530914Y-76757995D01*
X116553874Y-76742654D01*
X116605311Y-76665672D01*
X116614653Y-76651691D01*
X116614653Y-76651690D01*
X116614654Y-76651689D01*
X116630610Y-76571472D01*
X116630610Y-76571471D01*
X116635997Y-76544391D01*
X116630610Y-76517310D01*
X116630610Y-74611098D01*
X119775301Y-71466407D01*
X119798264Y-71451064D01*
X119859044Y-71360099D01*
X119875000Y-71279882D01*
X119875000Y-71279881D01*
X119880387Y-71252801D01*
X119876692Y-71234226D01*
X119899192Y-71219192D01*
X119943396Y-71153036D01*
X119958918Y-71075000D01*
X119958918Y-69325000D01*
X119943396Y-69246964D01*
X119899192Y-69180808D01*
X119833036Y-69136604D01*
X119755000Y-69121082D01*
X119445000Y-69121082D01*
X119366964Y-69136604D01*
X119300808Y-69180808D01*
X119300000Y-69182017D01*
X119299192Y-69180808D01*
X119233036Y-69136604D01*
X119155000Y-69121082D01*
X118845000Y-69121082D01*
X118766964Y-69136604D01*
X118700808Y-69180808D01*
X118700000Y-69182017D01*
X118699192Y-69180808D01*
X118633036Y-69136604D01*
X118555000Y-69121082D01*
X118245000Y-69121082D01*
X118166964Y-69136604D01*
X118100808Y-69180808D01*
X118100000Y-69182017D01*
X118099192Y-69180808D01*
X118033036Y-69136604D01*
X117955000Y-69121082D01*
X117645000Y-69121082D01*
X117566964Y-69136604D01*
X117500808Y-69180808D01*
X117500000Y-69182017D01*
X117499192Y-69180808D01*
X117447339Y-69146161D01*
X117760779Y-68832721D01*
X117911381Y-68832721D01*
X118076775Y-68764213D01*
X118203362Y-68637626D01*
X118271870Y-68472232D01*
X118271870Y-68293210D01*
X118258766Y-68261574D01*
X118269478Y-68266011D01*
X118448500Y-68266011D01*
X118613894Y-68197503D01*
X118740481Y-68070916D01*
X118808989Y-67905522D01*
X118808989Y-67755577D01*
X118881041Y-67785422D01*
X119060063Y-67785422D01*
X119225457Y-67716914D01*
X119352044Y-67590327D01*
X119420552Y-67424933D01*
X119420552Y-67245911D01*
X119352044Y-67080517D01*
X119225457Y-66953930D01*
X119060063Y-66885422D01*
X118881041Y-66885422D01*
X118862119Y-66893260D01*
X118822614Y-66885402D01*
X118822613Y-66885402D01*
X118795532Y-66880015D01*
X118768451Y-66885402D01*
X117663770Y-66885402D01*
X117636689Y-66880015D01*
X117609608Y-66885402D01*
X117609607Y-66885402D01*
X117529390Y-66901358D01*
X117438425Y-66962138D01*
X117423083Y-66985099D01*
X116336104Y-68072079D01*
X100627206Y-68072081D01*
X100600120Y-68066693D01*
X100492820Y-68088037D01*
X100424815Y-68133476D01*
X100424813Y-68133478D01*
X100401856Y-68148817D01*
X100386516Y-68171775D01*
X99624699Y-68933593D01*
X99601736Y-68948936D01*
X99540956Y-69039902D01*
X99537297Y-69058299D01*
X99519613Y-69147200D01*
X99523308Y-69165774D01*
X99500808Y-69180808D01*
X99500000Y-69182017D01*
X99499192Y-69180808D01*
X99433036Y-69136604D01*
X99355000Y-69121082D01*
X99045000Y-69121082D01*
X98966964Y-69136604D01*
X98900808Y-69180808D01*
X98856604Y-69246964D01*
X98841082Y-69325000D01*
X98841082Y-71075000D01*
X98856604Y-71153036D01*
X98900808Y-71219192D01*
X98966964Y-71263396D01*
X99045000Y-71278918D01*
X99355000Y-71278918D01*
X99433036Y-71263396D01*
X99499192Y-71219192D01*
X99500000Y-71217983D01*
X99500808Y-71219192D01*
X99566964Y-71263396D01*
X99645000Y-71278918D01*
X99955000Y-71278918D01*
X100033036Y-71263396D01*
X100099192Y-71219192D01*
X100100000Y-71217983D01*
X100100808Y-71219192D01*
X100166964Y-71263396D01*
X100245000Y-71278918D01*
X100555000Y-71278918D01*
X100633036Y-71263396D01*
X100699192Y-71219192D01*
X100700000Y-71217983D01*
X100700808Y-71219192D01*
X100766964Y-71263396D01*
X100845000Y-71278918D01*
X101155000Y-71278918D01*
X101233036Y-71263396D01*
X101299192Y-71219192D01*
X101300000Y-71217983D01*
X101300808Y-71219192D01*
X101366964Y-71263396D01*
X101445000Y-71278918D01*
X101755000Y-71278918D01*
X101833036Y-71263396D01*
X101899192Y-71219192D01*
X101900000Y-71217983D01*
X101900808Y-71219192D01*
X101925001Y-71235357D01*
X101925000Y-72684475D01*
X101880990Y-72618610D01*
X101766982Y-72542432D01*
X101632500Y-72515682D01*
X101337500Y-72515682D01*
X101203018Y-72542432D01*
X101089010Y-72618610D01*
X101057994Y-72665029D01*
X101021940Y-72577986D01*
X100951614Y-72507660D01*
X100859728Y-72469600D01*
X100627500Y-72469600D01*
X100565000Y-72532100D01*
X100565000Y-72989600D01*
X100585000Y-72989600D01*
X100585000Y-73089600D01*
X100565000Y-73089600D01*
X100565000Y-73547100D01*
X100623738Y-73605838D01*
X100568048Y-73643048D01*
X100477780Y-73778144D01*
X100446082Y-73937500D01*
X100446082Y-74362500D01*
X100477780Y-74521856D01*
X100558312Y-74642380D01*
X100508386Y-74663060D01*
X100438060Y-74733386D01*
X100400000Y-74825272D01*
X100400000Y-75187500D01*
X100462500Y-75250000D01*
X101075000Y-75250000D01*
X101075000Y-75230000D01*
X101175000Y-75230000D01*
X101175000Y-75250000D01*
X101787500Y-75250000D01*
X101850000Y-75187500D01*
X101850000Y-74825272D01*
X101811940Y-74733386D01*
X101741614Y-74663060D01*
X101691688Y-74642380D01*
X101772220Y-74521856D01*
X101788720Y-74438908D01*
X102275114Y-74925303D01*
X102290456Y-74948264D01*
X102353867Y-74990633D01*
X102381419Y-75009043D01*
X102381420Y-75009043D01*
X102381421Y-75009044D01*
X102461638Y-75025000D01*
X102488719Y-75030387D01*
X102515800Y-75025000D01*
X102609466Y-75025000D01*
X102563828Y-75093302D01*
X101832131Y-75825000D01*
X101829177Y-75825000D01*
X101850000Y-75774728D01*
X101850000Y-75412500D01*
X101787500Y-75350000D01*
X101175000Y-75350000D01*
X101175000Y-75370000D01*
X101075000Y-75370000D01*
X101075000Y-75350000D01*
X100462500Y-75350000D01*
X100400000Y-75412500D01*
X100400000Y-75586091D01*
X100349354Y-75535445D01*
X100353918Y-75512500D01*
X100353918Y-75087500D01*
X100322220Y-74928144D01*
X100241688Y-74807620D01*
X100291614Y-74786940D01*
X100361940Y-74716614D01*
X100400000Y-74624728D01*
X100400000Y-74262500D01*
X100337500Y-74200000D01*
X99725000Y-74200000D01*
X99725000Y-74220000D01*
X99625000Y-74220000D01*
X99625000Y-74200000D01*
X99605000Y-74200000D01*
X99605000Y-74100000D01*
X99625000Y-74100000D01*
X99625000Y-73537500D01*
X99725000Y-73537500D01*
X99725000Y-74100000D01*
X100337500Y-74100000D01*
X100400000Y-74037500D01*
X100400000Y-73675272D01*
X100372798Y-73609600D01*
X100402500Y-73609600D01*
X100465000Y-73547100D01*
X100465000Y-73089600D01*
X100032500Y-73089600D01*
X99970000Y-73152100D01*
X99970000Y-73409328D01*
X99997202Y-73475000D01*
X99787500Y-73475000D01*
X99725000Y-73537500D01*
X99625000Y-73537500D01*
X99562500Y-73475000D01*
X99150272Y-73475000D01*
X99058386Y-73513060D01*
X98988060Y-73583386D01*
X98950000Y-73675272D01*
X98950000Y-74016846D01*
X98941214Y-74008060D01*
X98849328Y-73970000D01*
X98592100Y-73970000D01*
X98529600Y-74032500D01*
X98529600Y-74465000D01*
X98549600Y-74465000D01*
X98549600Y-74565000D01*
X98529600Y-74565000D01*
X98529600Y-74585000D01*
X98429600Y-74585000D01*
X98429600Y-74565000D01*
X97972100Y-74565000D01*
X97909600Y-74627500D01*
X97909600Y-74859728D01*
X97947660Y-74951614D01*
X98017986Y-75021940D01*
X98105029Y-75057994D01*
X98058610Y-75089010D01*
X97982432Y-75203018D01*
X97955682Y-75337500D01*
X97955682Y-75632500D01*
X97982432Y-75766982D01*
X98058610Y-75880990D01*
X98172618Y-75957168D01*
X98307100Y-75983918D01*
X98652100Y-75983918D01*
X98786582Y-75957168D01*
X98900590Y-75880990D01*
X98976768Y-75766982D01*
X98978157Y-75760000D01*
X99086676Y-75760000D01*
X99118048Y-75806952D01*
X99253144Y-75897220D01*
X99412500Y-75928918D01*
X99937500Y-75928918D01*
X99960445Y-75924354D01*
X100311394Y-76275303D01*
X100326736Y-76298264D01*
X100417701Y-76359044D01*
X100497918Y-76375000D01*
X100497919Y-76375000D01*
X100525000Y-76380387D01*
X100552081Y-76375000D01*
X101918958Y-76375000D01*
X101946039Y-76380387D01*
X101973120Y-76375000D01*
X101973121Y-76375000D01*
X102053338Y-76359044D01*
X102144303Y-76298264D01*
X102159646Y-76275301D01*
X102400000Y-76034947D01*
X102400000Y-76475000D01*
X101777080Y-76475000D01*
X101749999Y-76469613D01*
X101727533Y-76474082D01*
X101492500Y-76474082D01*
X101382893Y-76495884D01*
X101290000Y-76557953D01*
X101197107Y-76495884D01*
X101087500Y-76474082D01*
X100842500Y-76474082D01*
X100732893Y-76495884D01*
X100640000Y-76557953D01*
X100547107Y-76495884D01*
X100437500Y-76474082D01*
X100192500Y-76474082D01*
X100082893Y-76495884D01*
X99989972Y-76557972D01*
X99927884Y-76650893D01*
X99906082Y-76760500D01*
X99906082Y-76925500D01*
X99927884Y-77035107D01*
X99989972Y-77128028D01*
X100082893Y-77190116D01*
X100192500Y-77211918D01*
X100437500Y-77211918D01*
X100547107Y-77190116D01*
X100640000Y-77128047D01*
X100732893Y-77190116D01*
X100842500Y-77211918D01*
X101087500Y-77211918D01*
X101197107Y-77190116D01*
X101290000Y-77128047D01*
X101382893Y-77190116D01*
X101492500Y-77211918D01*
X101737500Y-77211918D01*
X101847107Y-77190116D01*
X101940028Y-77128028D01*
X102002116Y-77035107D01*
X102004126Y-77025000D01*
X102388950Y-77025000D01*
X102348936Y-77051736D01*
X102333595Y-77074696D01*
X101886252Y-77522040D01*
X101847107Y-77495884D01*
X101737500Y-77474082D01*
X101492500Y-77474082D01*
X101382893Y-77495884D01*
X101358043Y-77512489D01*
X101311614Y-77466060D01*
X101219728Y-77428000D01*
X101077500Y-77428000D01*
X101015000Y-77490500D01*
X101015000Y-77793000D01*
X101035000Y-77793000D01*
X101035000Y-77893000D01*
X101015000Y-77893000D01*
X101015000Y-78195500D01*
X101077500Y-78258000D01*
X101219728Y-78258000D01*
X101311614Y-78219940D01*
X101358043Y-78173511D01*
X101382893Y-78190116D01*
X101492500Y-78211918D01*
X101737500Y-78211918D01*
X101847107Y-78190116D01*
X101938953Y-78128746D01*
X101947200Y-78130387D01*
X101974281Y-78125000D01*
X101974282Y-78125000D01*
X102054499Y-78109044D01*
X102145464Y-78048264D01*
X102160807Y-78025301D01*
X102400000Y-77786108D01*
X102400000Y-78475000D01*
X102358401Y-78475000D01*
X102320990Y-78419010D01*
X102206982Y-78342832D01*
X102072500Y-78316082D01*
X101727500Y-78316082D01*
X101593018Y-78342832D01*
X101479010Y-78419010D01*
X101402832Y-78533018D01*
X101376082Y-78667500D01*
X101376082Y-78962500D01*
X101402832Y-79096982D01*
X101479010Y-79210990D01*
X101525429Y-79242006D01*
X101438386Y-79278060D01*
X101368060Y-79348386D01*
X101330000Y-79440272D01*
X101330000Y-79672500D01*
X101392500Y-79735000D01*
X101850000Y-79735000D01*
X101850000Y-79715000D01*
X101950000Y-79715000D01*
X101950000Y-79735000D01*
X102407500Y-79735000D01*
X102470000Y-79672500D01*
X102470000Y-79649052D01*
X102523463Y-79684776D01*
X102531297Y-79686334D01*
X102518633Y-79750000D01*
X102543857Y-79876809D01*
X102615688Y-79984312D01*
X102639167Y-80000000D01*
X102615688Y-80015688D01*
X102543857Y-80123191D01*
X102518633Y-80250000D01*
X102543857Y-80376809D01*
X102615688Y-80484312D01*
X102639167Y-80500000D01*
X102615688Y-80515688D01*
X102543857Y-80623191D01*
X102518633Y-80750000D01*
X102543857Y-80876809D01*
X102615688Y-80984312D01*
X102723191Y-81056143D01*
X102817991Y-81075000D01*
X103432009Y-81075000D01*
X103526809Y-81056143D01*
X103578187Y-81021814D01*
X103543858Y-81073191D01*
X103525001Y-81167991D01*
X103525000Y-81782008D01*
X103543857Y-81876808D01*
X103615688Y-81984312D01*
X103680606Y-82027689D01*
X102424391Y-82027689D01*
X102397310Y-82022302D01*
X102370229Y-82027689D01*
X102290012Y-82043645D01*
X102290011Y-82043646D01*
X102290010Y-82043646D01*
X102279723Y-82050520D01*
X102199047Y-82104425D01*
X102183703Y-82127389D01*
X100948091Y-83363001D01*
X100389079Y-83363001D01*
X100361998Y-83357614D01*
X100334917Y-83363001D01*
X100254700Y-83378957D01*
X100254699Y-83378958D01*
X100254698Y-83378958D01*
X100238327Y-83389897D01*
X100163735Y-83439737D01*
X100148394Y-83462697D01*
X100061283Y-83549808D01*
X99791354Y-83438000D01*
X99408646Y-83438000D01*
X99055071Y-83584456D01*
X98784456Y-83855071D01*
X98638000Y-84208646D01*
X98638000Y-84591354D01*
X98784456Y-84944929D01*
X99055071Y-85215544D01*
X99408646Y-85362000D01*
X99791354Y-85362000D01*
X100144929Y-85215544D01*
X100240613Y-85119860D01*
X117950851Y-85119860D01*
X118034671Y-85263174D01*
X118408026Y-85413810D01*
X118810608Y-85410103D01*
X119165329Y-85263174D01*
X119249149Y-85119860D01*
X118600000Y-84470711D01*
X117950851Y-85119860D01*
X100240613Y-85119860D01*
X100415544Y-84944929D01*
X100562000Y-84591354D01*
X100562000Y-84208646D01*
X100450192Y-83938717D01*
X100475908Y-83913001D01*
X101034918Y-83913001D01*
X101061999Y-83918388D01*
X101089080Y-83913001D01*
X101089081Y-83913001D01*
X101169298Y-83897045D01*
X101260263Y-83836265D01*
X101275607Y-83813301D01*
X102163908Y-82925000D01*
X102603582Y-82925000D01*
X102603582Y-84675000D01*
X102619104Y-84753036D01*
X102663308Y-84819192D01*
X102729464Y-84863396D01*
X102807500Y-84878918D01*
X103792500Y-84878918D01*
X103870536Y-84863396D01*
X103936692Y-84819192D01*
X103980896Y-84753036D01*
X103996418Y-84675000D01*
X103996418Y-82925000D01*
X103980896Y-82846964D01*
X103936692Y-82780808D01*
X103870536Y-82736604D01*
X103792500Y-82721082D01*
X102807500Y-82721082D01*
X102729464Y-82736604D01*
X102663308Y-82780808D01*
X102619104Y-82846964D01*
X102603582Y-82925000D01*
X102163908Y-82925000D01*
X102511219Y-82577689D01*
X104073030Y-82577689D01*
X104100111Y-82583076D01*
X104127192Y-82577689D01*
X104127193Y-82577689D01*
X104207410Y-82561733D01*
X104298375Y-82500953D01*
X104313719Y-82477989D01*
X104525300Y-82266408D01*
X104548264Y-82251064D01*
X104609044Y-82160099D01*
X104625000Y-82079882D01*
X104630387Y-82052801D01*
X104625000Y-82025720D01*
X104625000Y-81990534D01*
X104723191Y-82056143D01*
X104850000Y-82081367D01*
X104976808Y-82056143D01*
X105084312Y-81984312D01*
X105100000Y-81960833D01*
X105115688Y-81984312D01*
X105223191Y-82056143D01*
X105350000Y-82081367D01*
X105476808Y-82056143D01*
X105570219Y-81993729D01*
X105620190Y-82050520D01*
X105742476Y-82109255D01*
X105800000Y-82058474D01*
X105800000Y-81525000D01*
X105780000Y-81525000D01*
X105780000Y-81425000D01*
X105800000Y-81425000D01*
X105800000Y-80891526D01*
X105742476Y-80840745D01*
X105625000Y-80897170D01*
X105625000Y-80407006D01*
X105677889Y-80354117D01*
X105746397Y-80188723D01*
X105746397Y-80009701D01*
X105677889Y-79844307D01*
X105551302Y-79717720D01*
X105385908Y-79649212D01*
X105206886Y-79649212D01*
X105181128Y-79659881D01*
X105203400Y-79606111D01*
X105203400Y-79427089D01*
X105134892Y-79261695D01*
X105008305Y-79135108D01*
X104894764Y-79088078D01*
X105041421Y-78941421D01*
X105084776Y-78876537D01*
X105100000Y-78800000D01*
X105100000Y-78300000D01*
X105092098Y-78244337D01*
X105056174Y-78175061D01*
X104700000Y-77729844D01*
X104700000Y-75400000D01*
X104684776Y-75323463D01*
X104641421Y-75258579D01*
X104576537Y-75215224D01*
X104500000Y-75200000D01*
X103721421Y-75200000D01*
X103706143Y-75123191D01*
X103634312Y-75015688D01*
X103610833Y-75000000D01*
X103634312Y-74984312D01*
X103706143Y-74876809D01*
X103716394Y-74825272D01*
X105225000Y-74825272D01*
X105225000Y-76887500D01*
X105287500Y-76950000D01*
X107550000Y-76950000D01*
X107550000Y-74687500D01*
X107650000Y-74687500D01*
X107650000Y-76950000D01*
X109912500Y-76950000D01*
X109975000Y-76887500D01*
X109975000Y-74825272D01*
X109936940Y-74733386D01*
X109866614Y-74663060D01*
X109774728Y-74625000D01*
X107712500Y-74625000D01*
X107650000Y-74687500D01*
X107550000Y-74687500D01*
X107487500Y-74625000D01*
X105425272Y-74625000D01*
X105333386Y-74663060D01*
X105263060Y-74733386D01*
X105225000Y-74825272D01*
X103716394Y-74825272D01*
X103731367Y-74750000D01*
X103706143Y-74623191D01*
X103634312Y-74515688D01*
X103610833Y-74500000D01*
X103634312Y-74484312D01*
X103706143Y-74376809D01*
X103731367Y-74250000D01*
X103706143Y-74123191D01*
X103634312Y-74015688D01*
X103610833Y-74000000D01*
X103634312Y-73984312D01*
X103706143Y-73876809D01*
X103731367Y-73750000D01*
X103706143Y-73623191D01*
X103634312Y-73515688D01*
X103610833Y-73500000D01*
X103634312Y-73484312D01*
X103706143Y-73376809D01*
X103731367Y-73250000D01*
X103706143Y-73123191D01*
X103671814Y-73071814D01*
X103723191Y-73106143D01*
X103850000Y-73131367D01*
X103976808Y-73106143D01*
X104084312Y-73034312D01*
X104100000Y-73010833D01*
X104115688Y-73034312D01*
X104223191Y-73106143D01*
X104350000Y-73131367D01*
X104476808Y-73106143D01*
X104584312Y-73034312D01*
X104600000Y-73010833D01*
X104615688Y-73034312D01*
X104723191Y-73106143D01*
X104850000Y-73131367D01*
X104976808Y-73106143D01*
X105084312Y-73034312D01*
X105100000Y-73010833D01*
X105115688Y-73034312D01*
X105223191Y-73106143D01*
X105350000Y-73131367D01*
X105476808Y-73106143D01*
X105584312Y-73034312D01*
X105600000Y-73010833D01*
X105615688Y-73034312D01*
X105723191Y-73106143D01*
X105850000Y-73131367D01*
X105976808Y-73106143D01*
X106084312Y-73034312D01*
X106100000Y-73010833D01*
X106115688Y-73034312D01*
X106223191Y-73106143D01*
X106350000Y-73131367D01*
X106476808Y-73106143D01*
X106584312Y-73034312D01*
X106600000Y-73010833D01*
X106615688Y-73034312D01*
X106723191Y-73106143D01*
X106850000Y-73131367D01*
X106976808Y-73106143D01*
X107075000Y-73040534D01*
X107075000Y-73172918D01*
X107069613Y-73200000D01*
X107075000Y-73227081D01*
X107075001Y-73637602D01*
X107013508Y-73699095D01*
X106945000Y-73864489D01*
X106945000Y-74043511D01*
X107013508Y-74208905D01*
X107140095Y-74335492D01*
X107305489Y-74404000D01*
X107484511Y-74404000D01*
X107649905Y-74335492D01*
X107776492Y-74208905D01*
X107845000Y-74043511D01*
X107845000Y-73864489D01*
X107776492Y-73699095D01*
X107649905Y-73572508D01*
X107625000Y-73562192D01*
X107625000Y-73466710D01*
X111057001Y-73466710D01*
X111057000Y-75557719D01*
X111051613Y-75584800D01*
X111057000Y-75611881D01*
X111072956Y-75692098D01*
X111133736Y-75783064D01*
X111156700Y-75798408D01*
X111283592Y-75925300D01*
X111298936Y-75948264D01*
X111389901Y-76009044D01*
X111470118Y-76025000D01*
X111497199Y-76030387D01*
X111524280Y-76025000D01*
X111559466Y-76025000D01*
X111493857Y-76123191D01*
X111468633Y-76250000D01*
X111493857Y-76376809D01*
X111565688Y-76484312D01*
X111589167Y-76500000D01*
X111565688Y-76515688D01*
X111493857Y-76623191D01*
X111468633Y-76750000D01*
X111493857Y-76876809D01*
X111565688Y-76984312D01*
X111589167Y-77000000D01*
X111565688Y-77015688D01*
X111493857Y-77123191D01*
X111468633Y-77250000D01*
X111493857Y-77376809D01*
X111565688Y-77484312D01*
X111589167Y-77500000D01*
X111565688Y-77515688D01*
X111493857Y-77623191D01*
X111468633Y-77750000D01*
X111493857Y-77876809D01*
X111565688Y-77984312D01*
X111589167Y-78000000D01*
X111565688Y-78015688D01*
X111493857Y-78123191D01*
X111468633Y-78250000D01*
X111493857Y-78376809D01*
X111565688Y-78484312D01*
X111589167Y-78500000D01*
X111565688Y-78515688D01*
X111493857Y-78623191D01*
X111468633Y-78750000D01*
X111493857Y-78876809D01*
X111565688Y-78984312D01*
X111589167Y-79000000D01*
X111565688Y-79015688D01*
X111493857Y-79123191D01*
X111468633Y-79250000D01*
X111493857Y-79376809D01*
X111565688Y-79484312D01*
X111589167Y-79500000D01*
X111565688Y-79515688D01*
X111493857Y-79623191D01*
X111468633Y-79750000D01*
X111493857Y-79876809D01*
X111565688Y-79984312D01*
X111589167Y-80000000D01*
X111565688Y-80015688D01*
X111493857Y-80123191D01*
X111468633Y-80250000D01*
X111493857Y-80376809D01*
X111565688Y-80484312D01*
X111589167Y-80500000D01*
X111565688Y-80515688D01*
X111493857Y-80623191D01*
X111468633Y-80750000D01*
X111493857Y-80876809D01*
X111528186Y-80928186D01*
X111476809Y-80893857D01*
X111350000Y-80868633D01*
X111223192Y-80893857D01*
X111115689Y-80965688D01*
X111100001Y-80989168D01*
X111084312Y-80965688D01*
X110976809Y-80893857D01*
X110850000Y-80868633D01*
X110723192Y-80893857D01*
X110615689Y-80965688D01*
X110600001Y-80989168D01*
X110584312Y-80965688D01*
X110476809Y-80893857D01*
X110350000Y-80868633D01*
X110223192Y-80893857D01*
X110115689Y-80965688D01*
X110100001Y-80989168D01*
X110084312Y-80965688D01*
X109976809Y-80893857D01*
X109850000Y-80868633D01*
X109723192Y-80893857D01*
X109615689Y-80965688D01*
X109600001Y-80989168D01*
X109584312Y-80965688D01*
X109476809Y-80893857D01*
X109397045Y-80877991D01*
X109412081Y-80875000D01*
X109412082Y-80875000D01*
X109492299Y-80859044D01*
X109583264Y-80798264D01*
X109598607Y-80775301D01*
X109619908Y-80754000D01*
X109770511Y-80754000D01*
X109935905Y-80685492D01*
X110062492Y-80558905D01*
X110131000Y-80393511D01*
X110131000Y-80293068D01*
X110188508Y-80431905D01*
X110315095Y-80558492D01*
X110480489Y-80627000D01*
X110659511Y-80627000D01*
X110824905Y-80558492D01*
X110951492Y-80431905D01*
X111020000Y-80266511D01*
X111020000Y-80087489D01*
X110951492Y-79922095D01*
X110824905Y-79795508D01*
X110659511Y-79727000D01*
X110515909Y-79727000D01*
X110005308Y-79216400D01*
X109989965Y-79193437D01*
X109972174Y-79181550D01*
X109975000Y-79174728D01*
X109975000Y-77112500D01*
X109912500Y-77050000D01*
X107650000Y-77050000D01*
X107650000Y-77070000D01*
X107550000Y-77070000D01*
X107550000Y-77050000D01*
X105287500Y-77050000D01*
X105225000Y-77112500D01*
X105225000Y-79174728D01*
X105263060Y-79266614D01*
X105333386Y-79336940D01*
X105425272Y-79375000D01*
X106412999Y-79375000D01*
X106174697Y-79613303D01*
X106151737Y-79628644D01*
X106124773Y-79668999D01*
X106090957Y-79719609D01*
X106069613Y-79826908D01*
X106075001Y-79853994D01*
X106075000Y-80897170D01*
X105957524Y-80840745D01*
X105900000Y-80891526D01*
X105900000Y-81425000D01*
X105920000Y-81425000D01*
X105920000Y-81525000D01*
X105900000Y-81525000D01*
X105900000Y-82058474D01*
X105957524Y-82109255D01*
X106079810Y-82050520D01*
X106129781Y-81993729D01*
X106223191Y-82056143D01*
X106350000Y-82081367D01*
X106476808Y-82056143D01*
X106584312Y-81984312D01*
X106600000Y-81960833D01*
X106615688Y-81984312D01*
X106723191Y-82056143D01*
X106771514Y-82065755D01*
X106713639Y-82104425D01*
X106698295Y-82127389D01*
X106442385Y-82383299D01*
X105586281Y-82383299D01*
X105559200Y-82377912D01*
X105532119Y-82383299D01*
X105451902Y-82399255D01*
X105451901Y-82399256D01*
X105451900Y-82399256D01*
X105450787Y-82400000D01*
X105360937Y-82460035D01*
X105345593Y-82482999D01*
X105107510Y-82721082D01*
X104307500Y-82721082D01*
X104229464Y-82736604D01*
X104163308Y-82780808D01*
X104119104Y-82846964D01*
X104103582Y-82925000D01*
X104103582Y-84675000D01*
X104119104Y-84753036D01*
X104163308Y-84819192D01*
X104229464Y-84863396D01*
X104307500Y-84878918D01*
X105292500Y-84878918D01*
X105370536Y-84863396D01*
X105436692Y-84819192D01*
X105480896Y-84753036D01*
X105496418Y-84675000D01*
X105496418Y-83109990D01*
X105603582Y-83002826D01*
X105603582Y-84675000D01*
X105619104Y-84753036D01*
X105663308Y-84819192D01*
X105729464Y-84863396D01*
X105807500Y-84878918D01*
X106792500Y-84878918D01*
X106870536Y-84863396D01*
X106936692Y-84819192D01*
X106980896Y-84753036D01*
X106996418Y-84675000D01*
X106996418Y-83109990D01*
X107103582Y-83002826D01*
X107103582Y-84675000D01*
X107119104Y-84753036D01*
X107163308Y-84819192D01*
X107229464Y-84863396D01*
X107307500Y-84878918D01*
X108292500Y-84878918D01*
X108370536Y-84863396D01*
X108436692Y-84819192D01*
X108480896Y-84753036D01*
X108496418Y-84675000D01*
X108496418Y-83933289D01*
X108603582Y-83826126D01*
X108603582Y-84675000D01*
X108619104Y-84753036D01*
X108663308Y-84819192D01*
X108729464Y-84863396D01*
X108807500Y-84878918D01*
X109792500Y-84878918D01*
X109870536Y-84863396D01*
X109936692Y-84819192D01*
X109980896Y-84753036D01*
X109996418Y-84675000D01*
X109996418Y-82925000D01*
X109980896Y-82846964D01*
X109936692Y-82780808D01*
X109870536Y-82736604D01*
X109792500Y-82721082D01*
X109625000Y-82721082D01*
X109625000Y-82613908D01*
X110025303Y-82213606D01*
X110048264Y-82198264D01*
X110075000Y-82158250D01*
X110075000Y-82172919D01*
X110069613Y-82200000D01*
X110075000Y-82227081D01*
X110090956Y-82307298D01*
X110151736Y-82398264D01*
X110174699Y-82413607D01*
X110482173Y-82721082D01*
X110307500Y-82721082D01*
X110229464Y-82736604D01*
X110163308Y-82780808D01*
X110119104Y-82846964D01*
X110103582Y-82925000D01*
X110103582Y-84675000D01*
X110119104Y-84753036D01*
X110163308Y-84819192D01*
X110229464Y-84863396D01*
X110307500Y-84878918D01*
X111292500Y-84878918D01*
X111370536Y-84863396D01*
X111436692Y-84819192D01*
X111480896Y-84753036D01*
X111496418Y-84675000D01*
X111496418Y-82925000D01*
X111480896Y-82846964D01*
X111436692Y-82780808D01*
X111370536Y-82736604D01*
X111312198Y-82725000D01*
X111787802Y-82725000D01*
X111729464Y-82736604D01*
X111663308Y-82780808D01*
X111619104Y-82846964D01*
X111603582Y-82925000D01*
X111603582Y-84675000D01*
X111619104Y-84753036D01*
X111663308Y-84819192D01*
X111729464Y-84863396D01*
X111807500Y-84878918D01*
X112792500Y-84878918D01*
X112870536Y-84863396D01*
X112936692Y-84819192D01*
X112980896Y-84753036D01*
X112996418Y-84675000D01*
X112996418Y-82925000D01*
X112980896Y-82846964D01*
X112936692Y-82780808D01*
X112870536Y-82736604D01*
X112792500Y-82721082D01*
X112574635Y-82721082D01*
X112572240Y-82709043D01*
X112559044Y-82642701D01*
X112498264Y-82551736D01*
X112475304Y-82536395D01*
X112213607Y-82274699D01*
X112198264Y-82251736D01*
X112107299Y-82190956D01*
X112027082Y-82175000D01*
X112027081Y-82175000D01*
X112000000Y-82169613D01*
X111972919Y-82175000D01*
X111313909Y-82175000D01*
X111138388Y-81999479D01*
X111223191Y-82056143D01*
X111350000Y-82081367D01*
X111476808Y-82056143D01*
X111584312Y-81984312D01*
X111656143Y-81876809D01*
X111675000Y-81782009D01*
X111675000Y-81750000D01*
X112516092Y-81750000D01*
X113487173Y-82721082D01*
X113307500Y-82721082D01*
X113229464Y-82736604D01*
X113163308Y-82780808D01*
X113119104Y-82846964D01*
X113103582Y-82925000D01*
X113103582Y-84675000D01*
X113119104Y-84753036D01*
X113163308Y-84819192D01*
X113229464Y-84863396D01*
X113307500Y-84878918D01*
X114292500Y-84878918D01*
X114370536Y-84863396D01*
X114436692Y-84819192D01*
X114480896Y-84753036D01*
X114496418Y-84675000D01*
X114496418Y-82925000D01*
X114480896Y-82846964D01*
X114436692Y-82780808D01*
X114370536Y-82736604D01*
X114292500Y-82721082D01*
X114075000Y-82721082D01*
X114075000Y-82672081D01*
X114080387Y-82645000D01*
X114069716Y-82591354D01*
X114059044Y-82537701D01*
X113998264Y-82446736D01*
X113975304Y-82431395D01*
X112843607Y-81299699D01*
X112828264Y-81276736D01*
X112737299Y-81215956D01*
X112657082Y-81200000D01*
X112657081Y-81200000D01*
X112630000Y-81194613D01*
X112602919Y-81200000D01*
X111675000Y-81200000D01*
X111675000Y-81167991D01*
X111656143Y-81073191D01*
X111621814Y-81021814D01*
X111673191Y-81056143D01*
X111767991Y-81075000D01*
X112382009Y-81075000D01*
X112476809Y-81056143D01*
X112523418Y-81025000D01*
X113315092Y-81025000D01*
X115011173Y-82721082D01*
X114807500Y-82721082D01*
X114729464Y-82736604D01*
X114663308Y-82780808D01*
X114619104Y-82846964D01*
X114603582Y-82925000D01*
X114603582Y-84675000D01*
X114619104Y-84753036D01*
X114663308Y-84819192D01*
X114729464Y-84863396D01*
X114807500Y-84878918D01*
X115792500Y-84878918D01*
X115870536Y-84863396D01*
X115936692Y-84819192D01*
X115980896Y-84753036D01*
X115996418Y-84675000D01*
X115996418Y-84208026D01*
X117586190Y-84208026D01*
X117589897Y-84610608D01*
X117736826Y-84965329D01*
X117880140Y-85049149D01*
X118529289Y-84400000D01*
X118670711Y-84400000D01*
X119319860Y-85049149D01*
X119463174Y-84965329D01*
X119613810Y-84591974D01*
X119610103Y-84189392D01*
X119463174Y-83834671D01*
X119319860Y-83750851D01*
X118670711Y-84400000D01*
X118529289Y-84400000D01*
X117880140Y-83750851D01*
X117736826Y-83834671D01*
X117586190Y-84208026D01*
X115996418Y-84208026D01*
X115996418Y-83680140D01*
X117950851Y-83680140D01*
X118600000Y-84329289D01*
X119249149Y-83680140D01*
X119165329Y-83536826D01*
X118791974Y-83386190D01*
X118389392Y-83389897D01*
X118034671Y-83536826D01*
X117950851Y-83680140D01*
X115996418Y-83680140D01*
X115996418Y-83033212D01*
X116023147Y-83051071D01*
X116050699Y-83069481D01*
X116050700Y-83069481D01*
X116050701Y-83069482D01*
X116130918Y-83085438D01*
X116157999Y-83090825D01*
X116185080Y-83085438D01*
X120736481Y-83085438D01*
X120763562Y-83090825D01*
X120790643Y-83085438D01*
X120790644Y-83085438D01*
X120870861Y-83069482D01*
X120961826Y-83008702D01*
X120977169Y-82985739D01*
X121000001Y-82962908D01*
X121000001Y-83428789D01*
X121046418Y-83662144D01*
X121188000Y-83874036D01*
X121188000Y-85596013D01*
X120918048Y-85819336D01*
X120599996Y-85969000D01*
X98199274Y-85969000D01*
X98004870Y-85892030D01*
X97543879Y-85557100D01*
X97412000Y-85397685D01*
X97412000Y-83251551D01*
X97678646Y-83362000D01*
X98061354Y-83362000D01*
X98414929Y-83215544D01*
X98555473Y-83075000D01*
X99036470Y-83075000D01*
X99042832Y-83106982D01*
X99119010Y-83220990D01*
X99233018Y-83297168D01*
X99367500Y-83323918D01*
X99662500Y-83323918D01*
X99796982Y-83297168D01*
X99910990Y-83220990D01*
X99987168Y-83106982D01*
X100000000Y-83042471D01*
X100012832Y-83106982D01*
X100089010Y-83220990D01*
X100203018Y-83297168D01*
X100337500Y-83323918D01*
X100632500Y-83323918D01*
X100766982Y-83297168D01*
X100880990Y-83220990D01*
X100957168Y-83106982D01*
X100975809Y-83013268D01*
X100998264Y-82998264D01*
X101013607Y-82975301D01*
X101238908Y-82750000D01*
X101389511Y-82750000D01*
X101554905Y-82681492D01*
X101681492Y-82554905D01*
X101750000Y-82389511D01*
X101750000Y-82210489D01*
X101681492Y-82045095D01*
X101554905Y-81918508D01*
X101389511Y-81850000D01*
X101210489Y-81850000D01*
X101045095Y-81918508D01*
X100982134Y-81981469D01*
X100983918Y-81972500D01*
X100983918Y-81627500D01*
X100957168Y-81493018D01*
X100880990Y-81379010D01*
X100766982Y-81302832D01*
X100632500Y-81276082D01*
X100349990Y-81276082D01*
X100275000Y-81201092D01*
X100275000Y-81155968D01*
X100293564Y-81143564D01*
X100356735Y-81049021D01*
X100378918Y-80937500D01*
X100378918Y-80807472D01*
X100408386Y-80836940D01*
X100500272Y-80875000D01*
X100687500Y-80875000D01*
X100750000Y-80812500D01*
X100750000Y-80500000D01*
X100850000Y-80500000D01*
X100850000Y-80812500D01*
X100912500Y-80875000D01*
X101099728Y-80875000D01*
X101191614Y-80836940D01*
X101261940Y-80766614D01*
X101300000Y-80674728D01*
X101300000Y-80562500D01*
X101237500Y-80500000D01*
X100850000Y-80500000D01*
X100750000Y-80500000D01*
X100730000Y-80500000D01*
X100730000Y-80400000D01*
X100750000Y-80400000D01*
X100750000Y-80380000D01*
X100850000Y-80380000D01*
X100850000Y-80400000D01*
X101237500Y-80400000D01*
X101300000Y-80337500D01*
X101300000Y-80225272D01*
X101261940Y-80133386D01*
X101191614Y-80063060D01*
X101189524Y-80062194D01*
X101231735Y-79999021D01*
X101251928Y-79897500D01*
X101330000Y-79897500D01*
X101330000Y-80129728D01*
X101368060Y-80221614D01*
X101438386Y-80291940D01*
X101530272Y-80330000D01*
X101787500Y-80330000D01*
X101850000Y-80267500D01*
X101850000Y-79835000D01*
X101950000Y-79835000D01*
X101950000Y-80267500D01*
X102012500Y-80330000D01*
X102269728Y-80330000D01*
X102361614Y-80291940D01*
X102431940Y-80221614D01*
X102470000Y-80129728D01*
X102470000Y-79897500D01*
X102407500Y-79835000D01*
X101950000Y-79835000D01*
X101850000Y-79835000D01*
X101392500Y-79835000D01*
X101330000Y-79897500D01*
X101251928Y-79897500D01*
X101253918Y-79887500D01*
X101253918Y-79712500D01*
X101231735Y-79600979D01*
X101189524Y-79537806D01*
X101191614Y-79536940D01*
X101261940Y-79466614D01*
X101300000Y-79374728D01*
X101300000Y-79262500D01*
X101237500Y-79200000D01*
X100850000Y-79200000D01*
X100850000Y-79220000D01*
X100750000Y-79220000D01*
X100750000Y-79200000D01*
X100730000Y-79200000D01*
X100730000Y-79100000D01*
X100750000Y-79100000D01*
X100750000Y-78787500D01*
X100850000Y-78787500D01*
X100850000Y-79100000D01*
X101237500Y-79100000D01*
X101300000Y-79037500D01*
X101300000Y-78925272D01*
X101261940Y-78833386D01*
X101191614Y-78763060D01*
X101099728Y-78725000D01*
X100912500Y-78725000D01*
X100850000Y-78787500D01*
X100750000Y-78787500D01*
X100687500Y-78725000D01*
X100500272Y-78725000D01*
X100408386Y-78763060D01*
X100378918Y-78792528D01*
X100378918Y-78662500D01*
X100356735Y-78550979D01*
X100293564Y-78456436D01*
X100275000Y-78444032D01*
X100275000Y-78271908D01*
X100334990Y-78211918D01*
X100437500Y-78211918D01*
X100547107Y-78190116D01*
X100571957Y-78173511D01*
X100618386Y-78219940D01*
X100710272Y-78258000D01*
X100852500Y-78258000D01*
X100915000Y-78195500D01*
X100915000Y-77893000D01*
X100895000Y-77893000D01*
X100895000Y-77793000D01*
X100915000Y-77793000D01*
X100915000Y-77490500D01*
X100852500Y-77428000D01*
X100710272Y-77428000D01*
X100618386Y-77466060D01*
X100571957Y-77512489D01*
X100547107Y-77495884D01*
X100437500Y-77474082D01*
X100192500Y-77474082D01*
X100082893Y-77495884D01*
X99989972Y-77557972D01*
X99927884Y-77650893D01*
X99906082Y-77760500D01*
X99906082Y-77863010D01*
X99824697Y-77944395D01*
X99801737Y-77959736D01*
X99786396Y-77982696D01*
X99740957Y-78050701D01*
X99719613Y-78158000D01*
X99725001Y-78185086D01*
X99725001Y-78444032D01*
X99706436Y-78456436D01*
X99643265Y-78550979D01*
X99621082Y-78662500D01*
X99621082Y-78792528D01*
X99591614Y-78763060D01*
X99499728Y-78725000D01*
X99312500Y-78725000D01*
X99250000Y-78787500D01*
X99250000Y-79100000D01*
X99270000Y-79100000D01*
X99270000Y-79200000D01*
X99250000Y-79200000D01*
X99250000Y-79220000D01*
X99150000Y-79220000D01*
X99150000Y-79200000D01*
X98762500Y-79200000D01*
X98700000Y-79262500D01*
X98700000Y-79374728D01*
X98738060Y-79466614D01*
X98808386Y-79536940D01*
X98810476Y-79537806D01*
X98768265Y-79600979D01*
X98746082Y-79712500D01*
X98746082Y-79887500D01*
X98768265Y-79999021D01*
X98810476Y-80062194D01*
X98808386Y-80063060D01*
X98738060Y-80133386D01*
X98700000Y-80225272D01*
X98700000Y-80337500D01*
X98762500Y-80400000D01*
X99150000Y-80400000D01*
X99150000Y-80380000D01*
X99250000Y-80380000D01*
X99250000Y-80400000D01*
X99270000Y-80400000D01*
X99270000Y-80500000D01*
X99250000Y-80500000D01*
X99250000Y-80812500D01*
X99312500Y-80875000D01*
X99499728Y-80875000D01*
X99591614Y-80836940D01*
X99621082Y-80807472D01*
X99621082Y-80937500D01*
X99643265Y-81049021D01*
X99706436Y-81143564D01*
X99725001Y-81155968D01*
X99725001Y-81287914D01*
X99724886Y-81288491D01*
X99662500Y-81276082D01*
X99367500Y-81276082D01*
X99233018Y-81302832D01*
X99119010Y-81379010D01*
X99042832Y-81493018D01*
X99036470Y-81525000D01*
X98906387Y-81525000D01*
X97943887Y-80562500D01*
X98700000Y-80562500D01*
X98700000Y-80674728D01*
X98738060Y-80766614D01*
X98808386Y-80836940D01*
X98900272Y-80875000D01*
X99087500Y-80875000D01*
X99150000Y-80812500D01*
X99150000Y-80500000D01*
X98762500Y-80500000D01*
X98700000Y-80562500D01*
X97943887Y-80562500D01*
X97498299Y-80116913D01*
X97498299Y-78925272D01*
X98700000Y-78925272D01*
X98700000Y-79037500D01*
X98762500Y-79100000D01*
X99150000Y-79100000D01*
X99150000Y-78787500D01*
X99087500Y-78725000D01*
X98900272Y-78725000D01*
X98808386Y-78763060D01*
X98738060Y-78833386D01*
X98700000Y-78925272D01*
X97498299Y-78925272D01*
X97498299Y-74170272D01*
X97909600Y-74170272D01*
X97909600Y-74402500D01*
X97972100Y-74465000D01*
X98429600Y-74465000D01*
X98429600Y-74032500D01*
X98367100Y-73970000D01*
X98109872Y-73970000D01*
X98017986Y-74008060D01*
X97947660Y-74078386D01*
X97909600Y-74170272D01*
X97498299Y-74170272D01*
X97498299Y-72996445D01*
X97521793Y-73053164D01*
X97746836Y-73278207D01*
X98040870Y-73400000D01*
X98359130Y-73400000D01*
X98653164Y-73278207D01*
X98878207Y-73053164D01*
X99000000Y-72759130D01*
X99000000Y-72669872D01*
X99970000Y-72669872D01*
X99970000Y-72927100D01*
X100032500Y-72989600D01*
X100465000Y-72989600D01*
X100465000Y-72532100D01*
X100402500Y-72469600D01*
X100170272Y-72469600D01*
X100078386Y-72507660D01*
X100008060Y-72577986D01*
X99970000Y-72669872D01*
X99000000Y-72669872D01*
X99000000Y-72440870D01*
X98878207Y-72146836D01*
X98653164Y-71921793D01*
X98359130Y-71800000D01*
X98040870Y-71800000D01*
X97746836Y-71921793D01*
X97521793Y-72146836D01*
X97498299Y-72203555D01*
X97498299Y-67398891D01*
X98894190Y-66003000D01*
X121188000Y-66003000D01*
X121188000Y-72170478D01*
X121188000Y-72170478D01*
G37*
X121188000Y-72170478D02*
X121178207Y-72146836D01*
X120953164Y-71921793D01*
X120659130Y-71800000D01*
X120340870Y-71800000D01*
X120046836Y-71921793D01*
X119821793Y-72146836D01*
X119700000Y-72440870D01*
X119700000Y-72759130D01*
X119821793Y-73053164D01*
X120046836Y-73278207D01*
X120340870Y-73400000D01*
X120659130Y-73400000D01*
X120953164Y-73278207D01*
X121178207Y-73053164D01*
X121188000Y-73029522D01*
X121188000Y-73825963D01*
X121046417Y-74037857D01*
X121000000Y-74271212D01*
X121000000Y-75085205D01*
X120978956Y-75116701D01*
X120957613Y-75224000D01*
X120963001Y-75251087D01*
X120963000Y-77075891D01*
X120424697Y-77614195D01*
X120401737Y-77629536D01*
X120340957Y-77720501D01*
X120319613Y-77827800D01*
X120325001Y-77854886D01*
X120325000Y-81686091D01*
X119831264Y-82179828D01*
X116419206Y-82179828D01*
X113814078Y-79574700D01*
X113798734Y-79551736D01*
X113758720Y-79525000D01*
X114505092Y-79525000D01*
X114539082Y-79558990D01*
X114539082Y-79841500D01*
X114565832Y-79975982D01*
X114642010Y-80089990D01*
X114756018Y-80166168D01*
X114890500Y-80192918D01*
X115185500Y-80192918D01*
X115319982Y-80166168D01*
X115433990Y-80089990D01*
X115465006Y-80043571D01*
X115501060Y-80130614D01*
X115571386Y-80200940D01*
X115663272Y-80239000D01*
X115895500Y-80239000D01*
X115958000Y-80176500D01*
X115958000Y-79719000D01*
X116058000Y-79719000D01*
X116058000Y-80176500D01*
X116120500Y-80239000D01*
X116352728Y-80239000D01*
X116444614Y-80200940D01*
X116514940Y-80130614D01*
X116553000Y-80038728D01*
X116553000Y-79781500D01*
X116490500Y-79719000D01*
X116058000Y-79719000D01*
X115958000Y-79719000D01*
X115938000Y-79719000D01*
X115938000Y-79619000D01*
X115958000Y-79619000D01*
X115958000Y-79161500D01*
X116058000Y-79161500D01*
X116058000Y-79619000D01*
X116490500Y-79619000D01*
X116553000Y-79556500D01*
X116553000Y-79299272D01*
X116514940Y-79207386D01*
X116444614Y-79137060D01*
X116352728Y-79099000D01*
X116120500Y-79099000D01*
X116058000Y-79161500D01*
X115958000Y-79161500D01*
X115895500Y-79099000D01*
X115663272Y-79099000D01*
X115571386Y-79137060D01*
X115501060Y-79207386D01*
X115465006Y-79294429D01*
X115433990Y-79248010D01*
X115319982Y-79171832D01*
X115185500Y-79145082D01*
X114902990Y-79145082D01*
X114832608Y-79074700D01*
X114817264Y-79051736D01*
X114777250Y-79025000D01*
X117664548Y-79025000D01*
X117691629Y-79030387D01*
X117718710Y-79025000D01*
X117718711Y-79025000D01*
X117798928Y-79009044D01*
X117889893Y-78948264D01*
X117905236Y-78925301D01*
X119150285Y-77680253D01*
X119173245Y-77664912D01*
X119234025Y-77573947D01*
X119249981Y-77493730D01*
X119249981Y-77493729D01*
X119255368Y-77466648D01*
X119249981Y-77439567D01*
X119249981Y-76851125D01*
X119356473Y-76744633D01*
X119424981Y-76579239D01*
X119424981Y-76400217D01*
X119356473Y-76234823D01*
X119229886Y-76108236D01*
X119064492Y-76039728D01*
X118885470Y-76039728D01*
X118720076Y-76108236D01*
X118593489Y-76234823D01*
X118524981Y-76400217D01*
X118524981Y-76579239D01*
X118593489Y-76744633D01*
X118699982Y-76851126D01*
X118699981Y-77352739D01*
X118475000Y-77577720D01*
X118475000Y-77361397D01*
X118581492Y-77254905D01*
X118650000Y-77089511D01*
X118650000Y-76910489D01*
X118581492Y-76745095D01*
X118454905Y-76618508D01*
X118289511Y-76550000D01*
X118110489Y-76550000D01*
X117945095Y-76618508D01*
X117818508Y-76745095D01*
X117750000Y-76910489D01*
X117750000Y-77089511D01*
X117818508Y-77254905D01*
X117925001Y-77361398D01*
X117925000Y-77624811D01*
X117842717Y-77707095D01*
X117850000Y-77689511D01*
X117850000Y-77510489D01*
X117781492Y-77345095D01*
X117654905Y-77218508D01*
X117489511Y-77150000D01*
X117310489Y-77150000D01*
X117145095Y-77218508D01*
X117018508Y-77345095D01*
X116964700Y-77475000D01*
X115808250Y-77475000D01*
X115848264Y-77448264D01*
X115863607Y-77425301D01*
X116530914Y-76757995D01*
X116553874Y-76742654D01*
X116605311Y-76665672D01*
X116614653Y-76651691D01*
X116614653Y-76651690D01*
X116614654Y-76651689D01*
X116630610Y-76571472D01*
X116630610Y-76571471D01*
X116635997Y-76544391D01*
X116630610Y-76517310D01*
X116630610Y-74611098D01*
X119775301Y-71466407D01*
X119798264Y-71451064D01*
X119859044Y-71360099D01*
X119875000Y-71279882D01*
X119875000Y-71279881D01*
X119880387Y-71252801D01*
X119876692Y-71234226D01*
X119899192Y-71219192D01*
X119943396Y-71153036D01*
X119958918Y-71075000D01*
X119958918Y-69325000D01*
X119943396Y-69246964D01*
X119899192Y-69180808D01*
X119833036Y-69136604D01*
X119755000Y-69121082D01*
X119445000Y-69121082D01*
X119366964Y-69136604D01*
X119300808Y-69180808D01*
X119300000Y-69182017D01*
X119299192Y-69180808D01*
X119233036Y-69136604D01*
X119155000Y-69121082D01*
X118845000Y-69121082D01*
X118766964Y-69136604D01*
X118700808Y-69180808D01*
X118700000Y-69182017D01*
X118699192Y-69180808D01*
X118633036Y-69136604D01*
X118555000Y-69121082D01*
X118245000Y-69121082D01*
X118166964Y-69136604D01*
X118100808Y-69180808D01*
X118100000Y-69182017D01*
X118099192Y-69180808D01*
X118033036Y-69136604D01*
X117955000Y-69121082D01*
X117645000Y-69121082D01*
X117566964Y-69136604D01*
X117500808Y-69180808D01*
X117500000Y-69182017D01*
X117499192Y-69180808D01*
X117447339Y-69146161D01*
X117760779Y-68832721D01*
X117911381Y-68832721D01*
X118076775Y-68764213D01*
X118203362Y-68637626D01*
X118271870Y-68472232D01*
X118271870Y-68293210D01*
X118258766Y-68261574D01*
X118269478Y-68266011D01*
X118448500Y-68266011D01*
X118613894Y-68197503D01*
X118740481Y-68070916D01*
X118808989Y-67905522D01*
X118808989Y-67755577D01*
X118881041Y-67785422D01*
X119060063Y-67785422D01*
X119225457Y-67716914D01*
X119352044Y-67590327D01*
X119420552Y-67424933D01*
X119420552Y-67245911D01*
X119352044Y-67080517D01*
X119225457Y-66953930D01*
X119060063Y-66885422D01*
X118881041Y-66885422D01*
X118862119Y-66893260D01*
X118822614Y-66885402D01*
X118822613Y-66885402D01*
X118795532Y-66880015D01*
X118768451Y-66885402D01*
X117663770Y-66885402D01*
X117636689Y-66880015D01*
X117609608Y-66885402D01*
X117609607Y-66885402D01*
X117529390Y-66901358D01*
X117438425Y-66962138D01*
X117423083Y-66985099D01*
X116336104Y-68072079D01*
X100627206Y-68072081D01*
X100600120Y-68066693D01*
X100492820Y-68088037D01*
X100424815Y-68133476D01*
X100424813Y-68133478D01*
X100401856Y-68148817D01*
X100386516Y-68171775D01*
X99624699Y-68933593D01*
X99601736Y-68948936D01*
X99540956Y-69039902D01*
X99537297Y-69058299D01*
X99519613Y-69147200D01*
X99523308Y-69165774D01*
X99500808Y-69180808D01*
X99500000Y-69182017D01*
X99499192Y-69180808D01*
X99433036Y-69136604D01*
X99355000Y-69121082D01*
X99045000Y-69121082D01*
X98966964Y-69136604D01*
X98900808Y-69180808D01*
X98856604Y-69246964D01*
X98841082Y-69325000D01*
X98841082Y-71075000D01*
X98856604Y-71153036D01*
X98900808Y-71219192D01*
X98966964Y-71263396D01*
X99045000Y-71278918D01*
X99355000Y-71278918D01*
X99433036Y-71263396D01*
X99499192Y-71219192D01*
X99500000Y-71217983D01*
X99500808Y-71219192D01*
X99566964Y-71263396D01*
X99645000Y-71278918D01*
X99955000Y-71278918D01*
X100033036Y-71263396D01*
X100099192Y-71219192D01*
X100100000Y-71217983D01*
X100100808Y-71219192D01*
X100166964Y-71263396D01*
X100245000Y-71278918D01*
X100555000Y-71278918D01*
X100633036Y-71263396D01*
X100699192Y-71219192D01*
X100700000Y-71217983D01*
X100700808Y-71219192D01*
X100766964Y-71263396D01*
X100845000Y-71278918D01*
X101155000Y-71278918D01*
X101233036Y-71263396D01*
X101299192Y-71219192D01*
X101300000Y-71217983D01*
X101300808Y-71219192D01*
X101366964Y-71263396D01*
X101445000Y-71278918D01*
X101755000Y-71278918D01*
X101833036Y-71263396D01*
X101899192Y-71219192D01*
X101900000Y-71217983D01*
X101900808Y-71219192D01*
X101925001Y-71235357D01*
X101925000Y-72684475D01*
X101880990Y-72618610D01*
X101766982Y-72542432D01*
X101632500Y-72515682D01*
X101337500Y-72515682D01*
X101203018Y-72542432D01*
X101089010Y-72618610D01*
X101057994Y-72665029D01*
X101021940Y-72577986D01*
X100951614Y-72507660D01*
X100859728Y-72469600D01*
X100627500Y-72469600D01*
X100565000Y-72532100D01*
X100565000Y-72989600D01*
X100585000Y-72989600D01*
X100585000Y-73089600D01*
X100565000Y-73089600D01*
X100565000Y-73547100D01*
X100623738Y-73605838D01*
X100568048Y-73643048D01*
X100477780Y-73778144D01*
X100446082Y-73937500D01*
X100446082Y-74362500D01*
X100477780Y-74521856D01*
X100558312Y-74642380D01*
X100508386Y-74663060D01*
X100438060Y-74733386D01*
X100400000Y-74825272D01*
X100400000Y-75187500D01*
X100462500Y-75250000D01*
X101075000Y-75250000D01*
X101075000Y-75230000D01*
X101175000Y-75230000D01*
X101175000Y-75250000D01*
X101787500Y-75250000D01*
X101850000Y-75187500D01*
X101850000Y-74825272D01*
X101811940Y-74733386D01*
X101741614Y-74663060D01*
X101691688Y-74642380D01*
X101772220Y-74521856D01*
X101788720Y-74438908D01*
X102275114Y-74925303D01*
X102290456Y-74948264D01*
X102353867Y-74990633D01*
X102381419Y-75009043D01*
X102381420Y-75009043D01*
X102381421Y-75009044D01*
X102461638Y-75025000D01*
X102488719Y-75030387D01*
X102515800Y-75025000D01*
X102609466Y-75025000D01*
X102563828Y-75093302D01*
X101832131Y-75825000D01*
X101829177Y-75825000D01*
X101850000Y-75774728D01*
X101850000Y-75412500D01*
X101787500Y-75350000D01*
X101175000Y-75350000D01*
X101175000Y-75370000D01*
X101075000Y-75370000D01*
X101075000Y-75350000D01*
X100462500Y-75350000D01*
X100400000Y-75412500D01*
X100400000Y-75586091D01*
X100349354Y-75535445D01*
X100353918Y-75512500D01*
X100353918Y-75087500D01*
X100322220Y-74928144D01*
X100241688Y-74807620D01*
X100291614Y-74786940D01*
X100361940Y-74716614D01*
X100400000Y-74624728D01*
X100400000Y-74262500D01*
X100337500Y-74200000D01*
X99725000Y-74200000D01*
X99725000Y-74220000D01*
X99625000Y-74220000D01*
X99625000Y-74200000D01*
X99605000Y-74200000D01*
X99605000Y-74100000D01*
X99625000Y-74100000D01*
X99625000Y-73537500D01*
X99725000Y-73537500D01*
X99725000Y-74100000D01*
X100337500Y-74100000D01*
X100400000Y-74037500D01*
X100400000Y-73675272D01*
X100372798Y-73609600D01*
X100402500Y-73609600D01*
X100465000Y-73547100D01*
X100465000Y-73089600D01*
X100032500Y-73089600D01*
X99970000Y-73152100D01*
X99970000Y-73409328D01*
X99997202Y-73475000D01*
X99787500Y-73475000D01*
X99725000Y-73537500D01*
X99625000Y-73537500D01*
X99562500Y-73475000D01*
X99150272Y-73475000D01*
X99058386Y-73513060D01*
X98988060Y-73583386D01*
X98950000Y-73675272D01*
X98950000Y-74016846D01*
X98941214Y-74008060D01*
X98849328Y-73970000D01*
X98592100Y-73970000D01*
X98529600Y-74032500D01*
X98529600Y-74465000D01*
X98549600Y-74465000D01*
X98549600Y-74565000D01*
X98529600Y-74565000D01*
X98529600Y-74585000D01*
X98429600Y-74585000D01*
X98429600Y-74565000D01*
X97972100Y-74565000D01*
X97909600Y-74627500D01*
X97909600Y-74859728D01*
X97947660Y-74951614D01*
X98017986Y-75021940D01*
X98105029Y-75057994D01*
X98058610Y-75089010D01*
X97982432Y-75203018D01*
X97955682Y-75337500D01*
X97955682Y-75632500D01*
X97982432Y-75766982D01*
X98058610Y-75880990D01*
X98172618Y-75957168D01*
X98307100Y-75983918D01*
X98652100Y-75983918D01*
X98786582Y-75957168D01*
X98900590Y-75880990D01*
X98976768Y-75766982D01*
X98978157Y-75760000D01*
X99086676Y-75760000D01*
X99118048Y-75806952D01*
X99253144Y-75897220D01*
X99412500Y-75928918D01*
X99937500Y-75928918D01*
X99960445Y-75924354D01*
X100311394Y-76275303D01*
X100326736Y-76298264D01*
X100417701Y-76359044D01*
X100497918Y-76375000D01*
X100497919Y-76375000D01*
X100525000Y-76380387D01*
X100552081Y-76375000D01*
X101918958Y-76375000D01*
X101946039Y-76380387D01*
X101973120Y-76375000D01*
X101973121Y-76375000D01*
X102053338Y-76359044D01*
X102144303Y-76298264D01*
X102159646Y-76275301D01*
X102400000Y-76034947D01*
X102400000Y-76475000D01*
X101777080Y-76475000D01*
X101749999Y-76469613D01*
X101727533Y-76474082D01*
X101492500Y-76474082D01*
X101382893Y-76495884D01*
X101290000Y-76557953D01*
X101197107Y-76495884D01*
X101087500Y-76474082D01*
X100842500Y-76474082D01*
X100732893Y-76495884D01*
X100640000Y-76557953D01*
X100547107Y-76495884D01*
X100437500Y-76474082D01*
X100192500Y-76474082D01*
X100082893Y-76495884D01*
X99989972Y-76557972D01*
X99927884Y-76650893D01*
X99906082Y-76760500D01*
X99906082Y-76925500D01*
X99927884Y-77035107D01*
X99989972Y-77128028D01*
X100082893Y-77190116D01*
X100192500Y-77211918D01*
X100437500Y-77211918D01*
X100547107Y-77190116D01*
X100640000Y-77128047D01*
X100732893Y-77190116D01*
X100842500Y-77211918D01*
X101087500Y-77211918D01*
X101197107Y-77190116D01*
X101290000Y-77128047D01*
X101382893Y-77190116D01*
X101492500Y-77211918D01*
X101737500Y-77211918D01*
X101847107Y-77190116D01*
X101940028Y-77128028D01*
X102002116Y-77035107D01*
X102004126Y-77025000D01*
X102388950Y-77025000D01*
X102348936Y-77051736D01*
X102333595Y-77074696D01*
X101886252Y-77522040D01*
X101847107Y-77495884D01*
X101737500Y-77474082D01*
X101492500Y-77474082D01*
X101382893Y-77495884D01*
X101358043Y-77512489D01*
X101311614Y-77466060D01*
X101219728Y-77428000D01*
X101077500Y-77428000D01*
X101015000Y-77490500D01*
X101015000Y-77793000D01*
X101035000Y-77793000D01*
X101035000Y-77893000D01*
X101015000Y-77893000D01*
X101015000Y-78195500D01*
X101077500Y-78258000D01*
X101219728Y-78258000D01*
X101311614Y-78219940D01*
X101358043Y-78173511D01*
X101382893Y-78190116D01*
X101492500Y-78211918D01*
X101737500Y-78211918D01*
X101847107Y-78190116D01*
X101938953Y-78128746D01*
X101947200Y-78130387D01*
X101974281Y-78125000D01*
X101974282Y-78125000D01*
X102054499Y-78109044D01*
X102145464Y-78048264D01*
X102160807Y-78025301D01*
X102400000Y-77786108D01*
X102400000Y-78475000D01*
X102358401Y-78475000D01*
X102320990Y-78419010D01*
X102206982Y-78342832D01*
X102072500Y-78316082D01*
X101727500Y-78316082D01*
X101593018Y-78342832D01*
X101479010Y-78419010D01*
X101402832Y-78533018D01*
X101376082Y-78667500D01*
X101376082Y-78962500D01*
X101402832Y-79096982D01*
X101479010Y-79210990D01*
X101525429Y-79242006D01*
X101438386Y-79278060D01*
X101368060Y-79348386D01*
X101330000Y-79440272D01*
X101330000Y-79672500D01*
X101392500Y-79735000D01*
X101850000Y-79735000D01*
X101850000Y-79715000D01*
X101950000Y-79715000D01*
X101950000Y-79735000D01*
X102407500Y-79735000D01*
X102470000Y-79672500D01*
X102470000Y-79649052D01*
X102523463Y-79684776D01*
X102531297Y-79686334D01*
X102518633Y-79750000D01*
X102543857Y-79876809D01*
X102615688Y-79984312D01*
X102639167Y-80000000D01*
X102615688Y-80015688D01*
X102543857Y-80123191D01*
X102518633Y-80250000D01*
X102543857Y-80376809D01*
X102615688Y-80484312D01*
X102639167Y-80500000D01*
X102615688Y-80515688D01*
X102543857Y-80623191D01*
X102518633Y-80750000D01*
X102543857Y-80876809D01*
X102615688Y-80984312D01*
X102723191Y-81056143D01*
X102817991Y-81075000D01*
X103432009Y-81075000D01*
X103526809Y-81056143D01*
X103578187Y-81021814D01*
X103543858Y-81073191D01*
X103525001Y-81167991D01*
X103525000Y-81782008D01*
X103543857Y-81876808D01*
X103615688Y-81984312D01*
X103680606Y-82027689D01*
X102424391Y-82027689D01*
X102397310Y-82022302D01*
X102370229Y-82027689D01*
X102290012Y-82043645D01*
X102290011Y-82043646D01*
X102290010Y-82043646D01*
X102279723Y-82050520D01*
X102199047Y-82104425D01*
X102183703Y-82127389D01*
X100948091Y-83363001D01*
X100389079Y-83363001D01*
X100361998Y-83357614D01*
X100334917Y-83363001D01*
X100254700Y-83378957D01*
X100254699Y-83378958D01*
X100254698Y-83378958D01*
X100238327Y-83389897D01*
X100163735Y-83439737D01*
X100148394Y-83462697D01*
X100061283Y-83549808D01*
X99791354Y-83438000D01*
X99408646Y-83438000D01*
X99055071Y-83584456D01*
X98784456Y-83855071D01*
X98638000Y-84208646D01*
X98638000Y-84591354D01*
X98784456Y-84944929D01*
X99055071Y-85215544D01*
X99408646Y-85362000D01*
X99791354Y-85362000D01*
X100144929Y-85215544D01*
X100240613Y-85119860D01*
X117950851Y-85119860D01*
X118034671Y-85263174D01*
X118408026Y-85413810D01*
X118810608Y-85410103D01*
X119165329Y-85263174D01*
X119249149Y-85119860D01*
X118600000Y-84470711D01*
X117950851Y-85119860D01*
X100240613Y-85119860D01*
X100415544Y-84944929D01*
X100562000Y-84591354D01*
X100562000Y-84208646D01*
X100450192Y-83938717D01*
X100475908Y-83913001D01*
X101034918Y-83913001D01*
X101061999Y-83918388D01*
X101089080Y-83913001D01*
X101089081Y-83913001D01*
X101169298Y-83897045D01*
X101260263Y-83836265D01*
X101275607Y-83813301D01*
X102163908Y-82925000D01*
X102603582Y-82925000D01*
X102603582Y-84675000D01*
X102619104Y-84753036D01*
X102663308Y-84819192D01*
X102729464Y-84863396D01*
X102807500Y-84878918D01*
X103792500Y-84878918D01*
X103870536Y-84863396D01*
X103936692Y-84819192D01*
X103980896Y-84753036D01*
X103996418Y-84675000D01*
X103996418Y-82925000D01*
X103980896Y-82846964D01*
X103936692Y-82780808D01*
X103870536Y-82736604D01*
X103792500Y-82721082D01*
X102807500Y-82721082D01*
X102729464Y-82736604D01*
X102663308Y-82780808D01*
X102619104Y-82846964D01*
X102603582Y-82925000D01*
X102163908Y-82925000D01*
X102511219Y-82577689D01*
X104073030Y-82577689D01*
X104100111Y-82583076D01*
X104127192Y-82577689D01*
X104127193Y-82577689D01*
X104207410Y-82561733D01*
X104298375Y-82500953D01*
X104313719Y-82477989D01*
X104525300Y-82266408D01*
X104548264Y-82251064D01*
X104609044Y-82160099D01*
X104625000Y-82079882D01*
X104630387Y-82052801D01*
X104625000Y-82025720D01*
X104625000Y-81990534D01*
X104723191Y-82056143D01*
X104850000Y-82081367D01*
X104976808Y-82056143D01*
X105084312Y-81984312D01*
X105100000Y-81960833D01*
X105115688Y-81984312D01*
X105223191Y-82056143D01*
X105350000Y-82081367D01*
X105476808Y-82056143D01*
X105570219Y-81993729D01*
X105620190Y-82050520D01*
X105742476Y-82109255D01*
X105800000Y-82058474D01*
X105800000Y-81525000D01*
X105780000Y-81525000D01*
X105780000Y-81425000D01*
X105800000Y-81425000D01*
X105800000Y-80891526D01*
X105742476Y-80840745D01*
X105625000Y-80897170D01*
X105625000Y-80407006D01*
X105677889Y-80354117D01*
X105746397Y-80188723D01*
X105746397Y-80009701D01*
X105677889Y-79844307D01*
X105551302Y-79717720D01*
X105385908Y-79649212D01*
X105206886Y-79649212D01*
X105181128Y-79659881D01*
X105203400Y-79606111D01*
X105203400Y-79427089D01*
X105134892Y-79261695D01*
X105008305Y-79135108D01*
X104894764Y-79088078D01*
X105041421Y-78941421D01*
X105084776Y-78876537D01*
X105100000Y-78800000D01*
X105100000Y-78300000D01*
X105092098Y-78244337D01*
X105056174Y-78175061D01*
X104700000Y-77729844D01*
X104700000Y-75400000D01*
X104684776Y-75323463D01*
X104641421Y-75258579D01*
X104576537Y-75215224D01*
X104500000Y-75200000D01*
X103721421Y-75200000D01*
X103706143Y-75123191D01*
X103634312Y-75015688D01*
X103610833Y-75000000D01*
X103634312Y-74984312D01*
X103706143Y-74876809D01*
X103716394Y-74825272D01*
X105225000Y-74825272D01*
X105225000Y-76887500D01*
X105287500Y-76950000D01*
X107550000Y-76950000D01*
X107550000Y-74687500D01*
X107650000Y-74687500D01*
X107650000Y-76950000D01*
X109912500Y-76950000D01*
X109975000Y-76887500D01*
X109975000Y-74825272D01*
X109936940Y-74733386D01*
X109866614Y-74663060D01*
X109774728Y-74625000D01*
X107712500Y-74625000D01*
X107650000Y-74687500D01*
X107550000Y-74687500D01*
X107487500Y-74625000D01*
X105425272Y-74625000D01*
X105333386Y-74663060D01*
X105263060Y-74733386D01*
X105225000Y-74825272D01*
X103716394Y-74825272D01*
X103731367Y-74750000D01*
X103706143Y-74623191D01*
X103634312Y-74515688D01*
X103610833Y-74500000D01*
X103634312Y-74484312D01*
X103706143Y-74376809D01*
X103731367Y-74250000D01*
X103706143Y-74123191D01*
X103634312Y-74015688D01*
X103610833Y-74000000D01*
X103634312Y-73984312D01*
X103706143Y-73876809D01*
X103731367Y-73750000D01*
X103706143Y-73623191D01*
X103634312Y-73515688D01*
X103610833Y-73500000D01*
X103634312Y-73484312D01*
X103706143Y-73376809D01*
X103731367Y-73250000D01*
X103706143Y-73123191D01*
X103671814Y-73071814D01*
X103723191Y-73106143D01*
X103850000Y-73131367D01*
X103976808Y-73106143D01*
X104084312Y-73034312D01*
X104100000Y-73010833D01*
X104115688Y-73034312D01*
X104223191Y-73106143D01*
X104350000Y-73131367D01*
X104476808Y-73106143D01*
X104584312Y-73034312D01*
X104600000Y-73010833D01*
X104615688Y-73034312D01*
X104723191Y-73106143D01*
X104850000Y-73131367D01*
X104976808Y-73106143D01*
X105084312Y-73034312D01*
X105100000Y-73010833D01*
X105115688Y-73034312D01*
X105223191Y-73106143D01*
X105350000Y-73131367D01*
X105476808Y-73106143D01*
X105584312Y-73034312D01*
X105600000Y-73010833D01*
X105615688Y-73034312D01*
X105723191Y-73106143D01*
X105850000Y-73131367D01*
X105976808Y-73106143D01*
X106084312Y-73034312D01*
X106100000Y-73010833D01*
X106115688Y-73034312D01*
X106223191Y-73106143D01*
X106350000Y-73131367D01*
X106476808Y-73106143D01*
X106584312Y-73034312D01*
X106600000Y-73010833D01*
X106615688Y-73034312D01*
X106723191Y-73106143D01*
X106850000Y-73131367D01*
X106976808Y-73106143D01*
X107075000Y-73040534D01*
X107075000Y-73172918D01*
X107069613Y-73200000D01*
X107075000Y-73227081D01*
X107075001Y-73637602D01*
X107013508Y-73699095D01*
X106945000Y-73864489D01*
X106945000Y-74043511D01*
X107013508Y-74208905D01*
X107140095Y-74335492D01*
X107305489Y-74404000D01*
X107484511Y-74404000D01*
X107649905Y-74335492D01*
X107776492Y-74208905D01*
X107845000Y-74043511D01*
X107845000Y-73864489D01*
X107776492Y-73699095D01*
X107649905Y-73572508D01*
X107625000Y-73562192D01*
X107625000Y-73466710D01*
X111057001Y-73466710D01*
X111057000Y-75557719D01*
X111051613Y-75584800D01*
X111057000Y-75611881D01*
X111072956Y-75692098D01*
X111133736Y-75783064D01*
X111156700Y-75798408D01*
X111283592Y-75925300D01*
X111298936Y-75948264D01*
X111389901Y-76009044D01*
X111470118Y-76025000D01*
X111497199Y-76030387D01*
X111524280Y-76025000D01*
X111559466Y-76025000D01*
X111493857Y-76123191D01*
X111468633Y-76250000D01*
X111493857Y-76376809D01*
X111565688Y-76484312D01*
X111589167Y-76500000D01*
X111565688Y-76515688D01*
X111493857Y-76623191D01*
X111468633Y-76750000D01*
X111493857Y-76876809D01*
X111565688Y-76984312D01*
X111589167Y-77000000D01*
X111565688Y-77015688D01*
X111493857Y-77123191D01*
X111468633Y-77250000D01*
X111493857Y-77376809D01*
X111565688Y-77484312D01*
X111589167Y-77500000D01*
X111565688Y-77515688D01*
X111493857Y-77623191D01*
X111468633Y-77750000D01*
X111493857Y-77876809D01*
X111565688Y-77984312D01*
X111589167Y-78000000D01*
X111565688Y-78015688D01*
X111493857Y-78123191D01*
X111468633Y-78250000D01*
X111493857Y-78376809D01*
X111565688Y-78484312D01*
X111589167Y-78500000D01*
X111565688Y-78515688D01*
X111493857Y-78623191D01*
X111468633Y-78750000D01*
X111493857Y-78876809D01*
X111565688Y-78984312D01*
X111589167Y-79000000D01*
X111565688Y-79015688D01*
X111493857Y-79123191D01*
X111468633Y-79250000D01*
X111493857Y-79376809D01*
X111565688Y-79484312D01*
X111589167Y-79500000D01*
X111565688Y-79515688D01*
X111493857Y-79623191D01*
X111468633Y-79750000D01*
X111493857Y-79876809D01*
X111565688Y-79984312D01*
X111589167Y-80000000D01*
X111565688Y-80015688D01*
X111493857Y-80123191D01*
X111468633Y-80250000D01*
X111493857Y-80376809D01*
X111565688Y-80484312D01*
X111589167Y-80500000D01*
X111565688Y-80515688D01*
X111493857Y-80623191D01*
X111468633Y-80750000D01*
X111493857Y-80876809D01*
X111528186Y-80928186D01*
X111476809Y-80893857D01*
X111350000Y-80868633D01*
X111223192Y-80893857D01*
X111115689Y-80965688D01*
X111100001Y-80989168D01*
X111084312Y-80965688D01*
X110976809Y-80893857D01*
X110850000Y-80868633D01*
X110723192Y-80893857D01*
X110615689Y-80965688D01*
X110600001Y-80989168D01*
X110584312Y-80965688D01*
X110476809Y-80893857D01*
X110350000Y-80868633D01*
X110223192Y-80893857D01*
X110115689Y-80965688D01*
X110100001Y-80989168D01*
X110084312Y-80965688D01*
X109976809Y-80893857D01*
X109850000Y-80868633D01*
X109723192Y-80893857D01*
X109615689Y-80965688D01*
X109600001Y-80989168D01*
X109584312Y-80965688D01*
X109476809Y-80893857D01*
X109397045Y-80877991D01*
X109412081Y-80875000D01*
X109412082Y-80875000D01*
X109492299Y-80859044D01*
X109583264Y-80798264D01*
X109598607Y-80775301D01*
X109619908Y-80754000D01*
X109770511Y-80754000D01*
X109935905Y-80685492D01*
X110062492Y-80558905D01*
X110131000Y-80393511D01*
X110131000Y-80293068D01*
X110188508Y-80431905D01*
X110315095Y-80558492D01*
X110480489Y-80627000D01*
X110659511Y-80627000D01*
X110824905Y-80558492D01*
X110951492Y-80431905D01*
X111020000Y-80266511D01*
X111020000Y-80087489D01*
X110951492Y-79922095D01*
X110824905Y-79795508D01*
X110659511Y-79727000D01*
X110515909Y-79727000D01*
X110005308Y-79216400D01*
X109989965Y-79193437D01*
X109972174Y-79181550D01*
X109975000Y-79174728D01*
X109975000Y-77112500D01*
X109912500Y-77050000D01*
X107650000Y-77050000D01*
X107650000Y-77070000D01*
X107550000Y-77070000D01*
X107550000Y-77050000D01*
X105287500Y-77050000D01*
X105225000Y-77112500D01*
X105225000Y-79174728D01*
X105263060Y-79266614D01*
X105333386Y-79336940D01*
X105425272Y-79375000D01*
X106412999Y-79375000D01*
X106174697Y-79613303D01*
X106151737Y-79628644D01*
X106124773Y-79668999D01*
X106090957Y-79719609D01*
X106069613Y-79826908D01*
X106075001Y-79853994D01*
X106075000Y-80897170D01*
X105957524Y-80840745D01*
X105900000Y-80891526D01*
X105900000Y-81425000D01*
X105920000Y-81425000D01*
X105920000Y-81525000D01*
X105900000Y-81525000D01*
X105900000Y-82058474D01*
X105957524Y-82109255D01*
X106079810Y-82050520D01*
X106129781Y-81993729D01*
X106223191Y-82056143D01*
X106350000Y-82081367D01*
X106476808Y-82056143D01*
X106584312Y-81984312D01*
X106600000Y-81960833D01*
X106615688Y-81984312D01*
X106723191Y-82056143D01*
X106771514Y-82065755D01*
X106713639Y-82104425D01*
X106698295Y-82127389D01*
X106442385Y-82383299D01*
X105586281Y-82383299D01*
X105559200Y-82377912D01*
X105532119Y-82383299D01*
X105451902Y-82399255D01*
X105451901Y-82399256D01*
X105451900Y-82399256D01*
X105450787Y-82400000D01*
X105360937Y-82460035D01*
X105345593Y-82482999D01*
X105107510Y-82721082D01*
X104307500Y-82721082D01*
X104229464Y-82736604D01*
X104163308Y-82780808D01*
X104119104Y-82846964D01*
X104103582Y-82925000D01*
X104103582Y-84675000D01*
X104119104Y-84753036D01*
X104163308Y-84819192D01*
X104229464Y-84863396D01*
X104307500Y-84878918D01*
X105292500Y-84878918D01*
X105370536Y-84863396D01*
X105436692Y-84819192D01*
X105480896Y-84753036D01*
X105496418Y-84675000D01*
X105496418Y-83109990D01*
X105603582Y-83002826D01*
X105603582Y-84675000D01*
X105619104Y-84753036D01*
X105663308Y-84819192D01*
X105729464Y-84863396D01*
X105807500Y-84878918D01*
X106792500Y-84878918D01*
X106870536Y-84863396D01*
X106936692Y-84819192D01*
X106980896Y-84753036D01*
X106996418Y-84675000D01*
X106996418Y-83109990D01*
X107103582Y-83002826D01*
X107103582Y-84675000D01*
X107119104Y-84753036D01*
X107163308Y-84819192D01*
X107229464Y-84863396D01*
X107307500Y-84878918D01*
X108292500Y-84878918D01*
X108370536Y-84863396D01*
X108436692Y-84819192D01*
X108480896Y-84753036D01*
X108496418Y-84675000D01*
X108496418Y-83933289D01*
X108603582Y-83826126D01*
X108603582Y-84675000D01*
X108619104Y-84753036D01*
X108663308Y-84819192D01*
X108729464Y-84863396D01*
X108807500Y-84878918D01*
X109792500Y-84878918D01*
X109870536Y-84863396D01*
X109936692Y-84819192D01*
X109980896Y-84753036D01*
X109996418Y-84675000D01*
X109996418Y-82925000D01*
X109980896Y-82846964D01*
X109936692Y-82780808D01*
X109870536Y-82736604D01*
X109792500Y-82721082D01*
X109625000Y-82721082D01*
X109625000Y-82613908D01*
X110025303Y-82213606D01*
X110048264Y-82198264D01*
X110075000Y-82158250D01*
X110075000Y-82172919D01*
X110069613Y-82200000D01*
X110075000Y-82227081D01*
X110090956Y-82307298D01*
X110151736Y-82398264D01*
X110174699Y-82413607D01*
X110482173Y-82721082D01*
X110307500Y-82721082D01*
X110229464Y-82736604D01*
X110163308Y-82780808D01*
X110119104Y-82846964D01*
X110103582Y-82925000D01*
X110103582Y-84675000D01*
X110119104Y-84753036D01*
X110163308Y-84819192D01*
X110229464Y-84863396D01*
X110307500Y-84878918D01*
X111292500Y-84878918D01*
X111370536Y-84863396D01*
X111436692Y-84819192D01*
X111480896Y-84753036D01*
X111496418Y-84675000D01*
X111496418Y-82925000D01*
X111480896Y-82846964D01*
X111436692Y-82780808D01*
X111370536Y-82736604D01*
X111312198Y-82725000D01*
X111787802Y-82725000D01*
X111729464Y-82736604D01*
X111663308Y-82780808D01*
X111619104Y-82846964D01*
X111603582Y-82925000D01*
X111603582Y-84675000D01*
X111619104Y-84753036D01*
X111663308Y-84819192D01*
X111729464Y-84863396D01*
X111807500Y-84878918D01*
X112792500Y-84878918D01*
X112870536Y-84863396D01*
X112936692Y-84819192D01*
X112980896Y-84753036D01*
X112996418Y-84675000D01*
X112996418Y-82925000D01*
X112980896Y-82846964D01*
X112936692Y-82780808D01*
X112870536Y-82736604D01*
X112792500Y-82721082D01*
X112574635Y-82721082D01*
X112572240Y-82709043D01*
X112559044Y-82642701D01*
X112498264Y-82551736D01*
X112475304Y-82536395D01*
X112213607Y-82274699D01*
X112198264Y-82251736D01*
X112107299Y-82190956D01*
X112027082Y-82175000D01*
X112027081Y-82175000D01*
X112000000Y-82169613D01*
X111972919Y-82175000D01*
X111313909Y-82175000D01*
X111138388Y-81999479D01*
X111223191Y-82056143D01*
X111350000Y-82081367D01*
X111476808Y-82056143D01*
X111584312Y-81984312D01*
X111656143Y-81876809D01*
X111675000Y-81782009D01*
X111675000Y-81750000D01*
X112516092Y-81750000D01*
X113487173Y-82721082D01*
X113307500Y-82721082D01*
X113229464Y-82736604D01*
X113163308Y-82780808D01*
X113119104Y-82846964D01*
X113103582Y-82925000D01*
X113103582Y-84675000D01*
X113119104Y-84753036D01*
X113163308Y-84819192D01*
X113229464Y-84863396D01*
X113307500Y-84878918D01*
X114292500Y-84878918D01*
X114370536Y-84863396D01*
X114436692Y-84819192D01*
X114480896Y-84753036D01*
X114496418Y-84675000D01*
X114496418Y-82925000D01*
X114480896Y-82846964D01*
X114436692Y-82780808D01*
X114370536Y-82736604D01*
X114292500Y-82721082D01*
X114075000Y-82721082D01*
X114075000Y-82672081D01*
X114080387Y-82645000D01*
X114069716Y-82591354D01*
X114059044Y-82537701D01*
X113998264Y-82446736D01*
X113975304Y-82431395D01*
X112843607Y-81299699D01*
X112828264Y-81276736D01*
X112737299Y-81215956D01*
X112657082Y-81200000D01*
X112657081Y-81200000D01*
X112630000Y-81194613D01*
X112602919Y-81200000D01*
X111675000Y-81200000D01*
X111675000Y-81167991D01*
X111656143Y-81073191D01*
X111621814Y-81021814D01*
X111673191Y-81056143D01*
X111767991Y-81075000D01*
X112382009Y-81075000D01*
X112476809Y-81056143D01*
X112523418Y-81025000D01*
X113315092Y-81025000D01*
X115011173Y-82721082D01*
X114807500Y-82721082D01*
X114729464Y-82736604D01*
X114663308Y-82780808D01*
X114619104Y-82846964D01*
X114603582Y-82925000D01*
X114603582Y-84675000D01*
X114619104Y-84753036D01*
X114663308Y-84819192D01*
X114729464Y-84863396D01*
X114807500Y-84878918D01*
X115792500Y-84878918D01*
X115870536Y-84863396D01*
X115936692Y-84819192D01*
X115980896Y-84753036D01*
X115996418Y-84675000D01*
X115996418Y-84208026D01*
X117586190Y-84208026D01*
X117589897Y-84610608D01*
X117736826Y-84965329D01*
X117880140Y-85049149D01*
X118529289Y-84400000D01*
X118670711Y-84400000D01*
X119319860Y-85049149D01*
X119463174Y-84965329D01*
X119613810Y-84591974D01*
X119610103Y-84189392D01*
X119463174Y-83834671D01*
X119319860Y-83750851D01*
X118670711Y-84400000D01*
X118529289Y-84400000D01*
X117880140Y-83750851D01*
X117736826Y-83834671D01*
X117586190Y-84208026D01*
X115996418Y-84208026D01*
X115996418Y-83680140D01*
X117950851Y-83680140D01*
X118600000Y-84329289D01*
X119249149Y-83680140D01*
X119165329Y-83536826D01*
X118791974Y-83386190D01*
X118389392Y-83389897D01*
X118034671Y-83536826D01*
X117950851Y-83680140D01*
X115996418Y-83680140D01*
X115996418Y-83033212D01*
X116023147Y-83051071D01*
X116050699Y-83069481D01*
X116050700Y-83069481D01*
X116050701Y-83069482D01*
X116130918Y-83085438D01*
X116157999Y-83090825D01*
X116185080Y-83085438D01*
X120736481Y-83085438D01*
X120763562Y-83090825D01*
X120790643Y-83085438D01*
X120790644Y-83085438D01*
X120870861Y-83069482D01*
X120961826Y-83008702D01*
X120977169Y-82985739D01*
X121000001Y-82962908D01*
X121000001Y-83428789D01*
X121046418Y-83662144D01*
X121188000Y-83874036D01*
X121188000Y-85596013D01*
X120918048Y-85819336D01*
X120599996Y-85969000D01*
X98199274Y-85969000D01*
X98004870Y-85892030D01*
X97543879Y-85557100D01*
X97412000Y-85397685D01*
X97412000Y-83251551D01*
X97678646Y-83362000D01*
X98061354Y-83362000D01*
X98414929Y-83215544D01*
X98555473Y-83075000D01*
X99036470Y-83075000D01*
X99042832Y-83106982D01*
X99119010Y-83220990D01*
X99233018Y-83297168D01*
X99367500Y-83323918D01*
X99662500Y-83323918D01*
X99796982Y-83297168D01*
X99910990Y-83220990D01*
X99987168Y-83106982D01*
X100000000Y-83042471D01*
X100012832Y-83106982D01*
X100089010Y-83220990D01*
X100203018Y-83297168D01*
X100337500Y-83323918D01*
X100632500Y-83323918D01*
X100766982Y-83297168D01*
X100880990Y-83220990D01*
X100957168Y-83106982D01*
X100975809Y-83013268D01*
X100998264Y-82998264D01*
X101013607Y-82975301D01*
X101238908Y-82750000D01*
X101389511Y-82750000D01*
X101554905Y-82681492D01*
X101681492Y-82554905D01*
X101750000Y-82389511D01*
X101750000Y-82210489D01*
X101681492Y-82045095D01*
X101554905Y-81918508D01*
X101389511Y-81850000D01*
X101210489Y-81850000D01*
X101045095Y-81918508D01*
X100982134Y-81981469D01*
X100983918Y-81972500D01*
X100983918Y-81627500D01*
X100957168Y-81493018D01*
X100880990Y-81379010D01*
X100766982Y-81302832D01*
X100632500Y-81276082D01*
X100349990Y-81276082D01*
X100275000Y-81201092D01*
X100275000Y-81155968D01*
X100293564Y-81143564D01*
X100356735Y-81049021D01*
X100378918Y-80937500D01*
X100378918Y-80807472D01*
X100408386Y-80836940D01*
X100500272Y-80875000D01*
X100687500Y-80875000D01*
X100750000Y-80812500D01*
X100750000Y-80500000D01*
X100850000Y-80500000D01*
X100850000Y-80812500D01*
X100912500Y-80875000D01*
X101099728Y-80875000D01*
X101191614Y-80836940D01*
X101261940Y-80766614D01*
X101300000Y-80674728D01*
X101300000Y-80562500D01*
X101237500Y-80500000D01*
X100850000Y-80500000D01*
X100750000Y-80500000D01*
X100730000Y-80500000D01*
X100730000Y-80400000D01*
X100750000Y-80400000D01*
X100750000Y-80380000D01*
X100850000Y-80380000D01*
X100850000Y-80400000D01*
X101237500Y-80400000D01*
X101300000Y-80337500D01*
X101300000Y-80225272D01*
X101261940Y-80133386D01*
X101191614Y-80063060D01*
X101189524Y-80062194D01*
X101231735Y-79999021D01*
X101251928Y-79897500D01*
X101330000Y-79897500D01*
X101330000Y-80129728D01*
X101368060Y-80221614D01*
X101438386Y-80291940D01*
X101530272Y-80330000D01*
X101787500Y-80330000D01*
X101850000Y-80267500D01*
X101850000Y-79835000D01*
X101950000Y-79835000D01*
X101950000Y-80267500D01*
X102012500Y-80330000D01*
X102269728Y-80330000D01*
X102361614Y-80291940D01*
X102431940Y-80221614D01*
X102470000Y-80129728D01*
X102470000Y-79897500D01*
X102407500Y-79835000D01*
X101950000Y-79835000D01*
X101850000Y-79835000D01*
X101392500Y-79835000D01*
X101330000Y-79897500D01*
X101251928Y-79897500D01*
X101253918Y-79887500D01*
X101253918Y-79712500D01*
X101231735Y-79600979D01*
X101189524Y-79537806D01*
X101191614Y-79536940D01*
X101261940Y-79466614D01*
X101300000Y-79374728D01*
X101300000Y-79262500D01*
X101237500Y-79200000D01*
X100850000Y-79200000D01*
X100850000Y-79220000D01*
X100750000Y-79220000D01*
X100750000Y-79200000D01*
X100730000Y-79200000D01*
X100730000Y-79100000D01*
X100750000Y-79100000D01*
X100750000Y-78787500D01*
X100850000Y-78787500D01*
X100850000Y-79100000D01*
X101237500Y-79100000D01*
X101300000Y-79037500D01*
X101300000Y-78925272D01*
X101261940Y-78833386D01*
X101191614Y-78763060D01*
X101099728Y-78725000D01*
X100912500Y-78725000D01*
X100850000Y-78787500D01*
X100750000Y-78787500D01*
X100687500Y-78725000D01*
X100500272Y-78725000D01*
X100408386Y-78763060D01*
X100378918Y-78792528D01*
X100378918Y-78662500D01*
X100356735Y-78550979D01*
X100293564Y-78456436D01*
X100275000Y-78444032D01*
X100275000Y-78271908D01*
X100334990Y-78211918D01*
X100437500Y-78211918D01*
X100547107Y-78190116D01*
X100571957Y-78173511D01*
X100618386Y-78219940D01*
X100710272Y-78258000D01*
X100852500Y-78258000D01*
X100915000Y-78195500D01*
X100915000Y-77893000D01*
X100895000Y-77893000D01*
X100895000Y-77793000D01*
X100915000Y-77793000D01*
X100915000Y-77490500D01*
X100852500Y-77428000D01*
X100710272Y-77428000D01*
X100618386Y-77466060D01*
X100571957Y-77512489D01*
X100547107Y-77495884D01*
X100437500Y-77474082D01*
X100192500Y-77474082D01*
X100082893Y-77495884D01*
X99989972Y-77557972D01*
X99927884Y-77650893D01*
X99906082Y-77760500D01*
X99906082Y-77863010D01*
X99824697Y-77944395D01*
X99801737Y-77959736D01*
X99786396Y-77982696D01*
X99740957Y-78050701D01*
X99719613Y-78158000D01*
X99725001Y-78185086D01*
X99725001Y-78444032D01*
X99706436Y-78456436D01*
X99643265Y-78550979D01*
X99621082Y-78662500D01*
X99621082Y-78792528D01*
X99591614Y-78763060D01*
X99499728Y-78725000D01*
X99312500Y-78725000D01*
X99250000Y-78787500D01*
X99250000Y-79100000D01*
X99270000Y-79100000D01*
X99270000Y-79200000D01*
X99250000Y-79200000D01*
X99250000Y-79220000D01*
X99150000Y-79220000D01*
X99150000Y-79200000D01*
X98762500Y-79200000D01*
X98700000Y-79262500D01*
X98700000Y-79374728D01*
X98738060Y-79466614D01*
X98808386Y-79536940D01*
X98810476Y-79537806D01*
X98768265Y-79600979D01*
X98746082Y-79712500D01*
X98746082Y-79887500D01*
X98768265Y-79999021D01*
X98810476Y-80062194D01*
X98808386Y-80063060D01*
X98738060Y-80133386D01*
X98700000Y-80225272D01*
X98700000Y-80337500D01*
X98762500Y-80400000D01*
X99150000Y-80400000D01*
X99150000Y-80380000D01*
X99250000Y-80380000D01*
X99250000Y-80400000D01*
X99270000Y-80400000D01*
X99270000Y-80500000D01*
X99250000Y-80500000D01*
X99250000Y-80812500D01*
X99312500Y-80875000D01*
X99499728Y-80875000D01*
X99591614Y-80836940D01*
X99621082Y-80807472D01*
X99621082Y-80937500D01*
X99643265Y-81049021D01*
X99706436Y-81143564D01*
X99725001Y-81155968D01*
X99725001Y-81287914D01*
X99724886Y-81288491D01*
X99662500Y-81276082D01*
X99367500Y-81276082D01*
X99233018Y-81302832D01*
X99119010Y-81379010D01*
X99042832Y-81493018D01*
X99036470Y-81525000D01*
X98906387Y-81525000D01*
X97943887Y-80562500D01*
X98700000Y-80562500D01*
X98700000Y-80674728D01*
X98738060Y-80766614D01*
X98808386Y-80836940D01*
X98900272Y-80875000D01*
X99087500Y-80875000D01*
X99150000Y-80812500D01*
X99150000Y-80500000D01*
X98762500Y-80500000D01*
X98700000Y-80562500D01*
X97943887Y-80562500D01*
X97498299Y-80116913D01*
X97498299Y-78925272D01*
X98700000Y-78925272D01*
X98700000Y-79037500D01*
X98762500Y-79100000D01*
X99150000Y-79100000D01*
X99150000Y-78787500D01*
X99087500Y-78725000D01*
X98900272Y-78725000D01*
X98808386Y-78763060D01*
X98738060Y-78833386D01*
X98700000Y-78925272D01*
X97498299Y-78925272D01*
X97498299Y-74170272D01*
X97909600Y-74170272D01*
X97909600Y-74402500D01*
X97972100Y-74465000D01*
X98429600Y-74465000D01*
X98429600Y-74032500D01*
X98367100Y-73970000D01*
X98109872Y-73970000D01*
X98017986Y-74008060D01*
X97947660Y-74078386D01*
X97909600Y-74170272D01*
X97498299Y-74170272D01*
X97498299Y-72996445D01*
X97521793Y-73053164D01*
X97746836Y-73278207D01*
X98040870Y-73400000D01*
X98359130Y-73400000D01*
X98653164Y-73278207D01*
X98878207Y-73053164D01*
X99000000Y-72759130D01*
X99000000Y-72669872D01*
X99970000Y-72669872D01*
X99970000Y-72927100D01*
X100032500Y-72989600D01*
X100465000Y-72989600D01*
X100465000Y-72532100D01*
X100402500Y-72469600D01*
X100170272Y-72469600D01*
X100078386Y-72507660D01*
X100008060Y-72577986D01*
X99970000Y-72669872D01*
X99000000Y-72669872D01*
X99000000Y-72440870D01*
X98878207Y-72146836D01*
X98653164Y-71921793D01*
X98359130Y-71800000D01*
X98040870Y-71800000D01*
X97746836Y-71921793D01*
X97521793Y-72146836D01*
X97498299Y-72203555D01*
X97498299Y-67398891D01*
X98894190Y-66003000D01*
X121188000Y-66003000D01*
X121188000Y-72170478D01*
G36*
X115700808Y-71219192D02*
X115725000Y-71235357D01*
X115725000Y-71279881D01*
X115725001Y-71279886D01*
X115725000Y-76286091D01*
X115386092Y-76625000D01*
X115276674Y-76625000D01*
X115283000Y-76609728D01*
X115283000Y-76352500D01*
X115220500Y-76290000D01*
X114788000Y-76290000D01*
X114788000Y-76310000D01*
X114688000Y-76310000D01*
X114688000Y-76290000D01*
X114668000Y-76290000D01*
X114668000Y-76190000D01*
X114688000Y-76190000D01*
X114688000Y-75732500D01*
X114687500Y-75732000D01*
X114688000Y-75731500D01*
X114688000Y-75274000D01*
X114788000Y-75274000D01*
X114788000Y-75731500D01*
X114788500Y-75732000D01*
X114788000Y-75732500D01*
X114788000Y-76190000D01*
X115220500Y-76190000D01*
X115283000Y-76127500D01*
X115283000Y-75870272D01*
X115244940Y-75778386D01*
X115198554Y-75732000D01*
X115244940Y-75685614D01*
X115283000Y-75593728D01*
X115283000Y-75336500D01*
X115220500Y-75274000D01*
X114788000Y-75274000D01*
X114688000Y-75274000D01*
X114668000Y-75274000D01*
X114668000Y-75174000D01*
X114688000Y-75174000D01*
X114688000Y-74716500D01*
X114788000Y-74716500D01*
X114788000Y-75174000D01*
X115220500Y-75174000D01*
X115283000Y-75111500D01*
X115283000Y-74854272D01*
X115244940Y-74762386D01*
X115174614Y-74692060D01*
X115082728Y-74654000D01*
X114850500Y-74654000D01*
X114788000Y-74716500D01*
X114688000Y-74716500D01*
X114625500Y-74654000D01*
X114393272Y-74654000D01*
X114301386Y-74692060D01*
X114231060Y-74762386D01*
X114195006Y-74849429D01*
X114163990Y-74803010D01*
X114049982Y-74726832D01*
X113915500Y-74700082D01*
X113688826Y-74700082D01*
X114734023Y-73654886D01*
X114756983Y-73639545D01*
X114817763Y-73548580D01*
X114833719Y-73468363D01*
X114833719Y-73468362D01*
X114839106Y-73441281D01*
X114833719Y-73414200D01*
X114833719Y-72207989D01*
X115575304Y-71466405D01*
X115598264Y-71451064D01*
X115659044Y-71360099D01*
X115675000Y-71279882D01*
X115675000Y-71279881D01*
X115680387Y-71252800D01*
X115676692Y-71234226D01*
X115699192Y-71219192D01*
X115700000Y-71217983D01*
X115700808Y-71219192D01*
X115700808Y-71219192D01*
G37*
X115700808Y-71219192D02*
X115725000Y-71235357D01*
X115725000Y-71279881D01*
X115725001Y-71279886D01*
X115725000Y-76286091D01*
X115386092Y-76625000D01*
X115276674Y-76625000D01*
X115283000Y-76609728D01*
X115283000Y-76352500D01*
X115220500Y-76290000D01*
X114788000Y-76290000D01*
X114788000Y-76310000D01*
X114688000Y-76310000D01*
X114688000Y-76290000D01*
X114668000Y-76290000D01*
X114668000Y-76190000D01*
X114688000Y-76190000D01*
X114688000Y-75732500D01*
X114687500Y-75732000D01*
X114688000Y-75731500D01*
X114688000Y-75274000D01*
X114788000Y-75274000D01*
X114788000Y-75731500D01*
X114788500Y-75732000D01*
X114788000Y-75732500D01*
X114788000Y-76190000D01*
X115220500Y-76190000D01*
X115283000Y-76127500D01*
X115283000Y-75870272D01*
X115244940Y-75778386D01*
X115198554Y-75732000D01*
X115244940Y-75685614D01*
X115283000Y-75593728D01*
X115283000Y-75336500D01*
X115220500Y-75274000D01*
X114788000Y-75274000D01*
X114688000Y-75274000D01*
X114668000Y-75274000D01*
X114668000Y-75174000D01*
X114688000Y-75174000D01*
X114688000Y-74716500D01*
X114788000Y-74716500D01*
X114788000Y-75174000D01*
X115220500Y-75174000D01*
X115283000Y-75111500D01*
X115283000Y-74854272D01*
X115244940Y-74762386D01*
X115174614Y-74692060D01*
X115082728Y-74654000D01*
X114850500Y-74654000D01*
X114788000Y-74716500D01*
X114688000Y-74716500D01*
X114625500Y-74654000D01*
X114393272Y-74654000D01*
X114301386Y-74692060D01*
X114231060Y-74762386D01*
X114195006Y-74849429D01*
X114163990Y-74803010D01*
X114049982Y-74726832D01*
X113915500Y-74700082D01*
X113688826Y-74700082D01*
X114734023Y-73654886D01*
X114756983Y-73639545D01*
X114817763Y-73548580D01*
X114833719Y-73468363D01*
X114833719Y-73468362D01*
X114839106Y-73441281D01*
X114833719Y-73414200D01*
X114833719Y-72207989D01*
X115575304Y-71466405D01*
X115598264Y-71451064D01*
X115659044Y-71360099D01*
X115675000Y-71279882D01*
X115675000Y-71279881D01*
X115680387Y-71252800D01*
X115676692Y-71234226D01*
X115699192Y-71219192D01*
X115700000Y-71217983D01*
X115700808Y-71219192D01*
G04 #@! TO.N,/RFVCC*
G36*
X104450000Y-77800000D02*
X104453806Y-77819134D01*
X104460957Y-77831235D01*
X104850000Y-78317539D01*
X104850000Y-78779290D01*
X104179290Y-79450000D01*
X103714838Y-79450000D01*
X103759255Y-79357524D01*
X103708474Y-79300000D01*
X103175000Y-79300000D01*
X103175000Y-79320000D01*
X103075000Y-79320000D01*
X103075000Y-79300000D01*
X103055000Y-79300000D01*
X103055000Y-79200000D01*
X103075000Y-79200000D01*
X103075000Y-79180000D01*
X103175000Y-79180000D01*
X103175000Y-79200000D01*
X103708474Y-79200000D01*
X103759255Y-79142476D01*
X103700520Y-79020190D01*
X103643729Y-78970219D01*
X103706143Y-78876809D01*
X103731367Y-78750000D01*
X103706143Y-78623191D01*
X103643729Y-78529781D01*
X103700520Y-78479810D01*
X103759255Y-78357524D01*
X103708474Y-78300000D01*
X103175000Y-78300000D01*
X103175000Y-78320000D01*
X103075000Y-78320000D01*
X103075000Y-78300000D01*
X103055000Y-78300000D01*
X103055000Y-78200000D01*
X103075000Y-78200000D01*
X103075000Y-77800000D01*
X103175000Y-77800000D01*
X103175000Y-78200000D01*
X103708474Y-78200000D01*
X103759255Y-78142476D01*
X103700520Y-78020190D01*
X103677574Y-78000000D01*
X103700520Y-77979810D01*
X103759255Y-77857524D01*
X103708474Y-77800000D01*
X103175000Y-77800000D01*
X103075000Y-77800000D01*
X103055000Y-77800000D01*
X103055000Y-77700000D01*
X103075000Y-77700000D01*
X103075000Y-77680000D01*
X103175000Y-77680000D01*
X103175000Y-77700000D01*
X103708474Y-77700000D01*
X103759255Y-77642476D01*
X103700520Y-77520190D01*
X103643729Y-77470219D01*
X103706143Y-77376809D01*
X103731367Y-77250000D01*
X103706143Y-77123191D01*
X103634312Y-77015688D01*
X103610833Y-77000000D01*
X103634312Y-76984312D01*
X103706143Y-76876809D01*
X103731367Y-76750000D01*
X103706143Y-76623191D01*
X103643729Y-76529781D01*
X103700520Y-76479810D01*
X103759255Y-76357524D01*
X103708474Y-76300000D01*
X103175000Y-76300000D01*
X103175000Y-76320000D01*
X103075000Y-76320000D01*
X103075000Y-76300000D01*
X103055000Y-76300000D01*
X103055000Y-76200000D01*
X103075000Y-76200000D01*
X103075000Y-75800000D01*
X103175000Y-75800000D01*
X103175000Y-76200000D01*
X103708474Y-76200000D01*
X103759255Y-76142476D01*
X103700520Y-76020190D01*
X103677574Y-76000000D01*
X103700520Y-75979810D01*
X103759255Y-75857524D01*
X103708474Y-75800000D01*
X103175000Y-75800000D01*
X103075000Y-75800000D01*
X103055000Y-75800000D01*
X103055000Y-75700000D01*
X103075000Y-75700000D01*
X103075000Y-75680000D01*
X103175000Y-75680000D01*
X103175000Y-75700000D01*
X103708474Y-75700000D01*
X103759255Y-75642476D01*
X103700520Y-75520190D01*
X103643729Y-75470219D01*
X103657239Y-75450000D01*
X104450000Y-75450000D01*
X104450000Y-77800000D01*
X104450000Y-77800000D01*
G37*
X104450000Y-77800000D02*
X104453806Y-77819134D01*
X104460957Y-77831235D01*
X104850000Y-78317539D01*
X104850000Y-78779290D01*
X104179290Y-79450000D01*
X103714838Y-79450000D01*
X103759255Y-79357524D01*
X103708474Y-79300000D01*
X103175000Y-79300000D01*
X103175000Y-79320000D01*
X103075000Y-79320000D01*
X103075000Y-79300000D01*
X103055000Y-79300000D01*
X103055000Y-79200000D01*
X103075000Y-79200000D01*
X103075000Y-79180000D01*
X103175000Y-79180000D01*
X103175000Y-79200000D01*
X103708474Y-79200000D01*
X103759255Y-79142476D01*
X103700520Y-79020190D01*
X103643729Y-78970219D01*
X103706143Y-78876809D01*
X103731367Y-78750000D01*
X103706143Y-78623191D01*
X103643729Y-78529781D01*
X103700520Y-78479810D01*
X103759255Y-78357524D01*
X103708474Y-78300000D01*
X103175000Y-78300000D01*
X103175000Y-78320000D01*
X103075000Y-78320000D01*
X103075000Y-78300000D01*
X103055000Y-78300000D01*
X103055000Y-78200000D01*
X103075000Y-78200000D01*
X103075000Y-77800000D01*
X103175000Y-77800000D01*
X103175000Y-78200000D01*
X103708474Y-78200000D01*
X103759255Y-78142476D01*
X103700520Y-78020190D01*
X103677574Y-78000000D01*
X103700520Y-77979810D01*
X103759255Y-77857524D01*
X103708474Y-77800000D01*
X103175000Y-77800000D01*
X103075000Y-77800000D01*
X103055000Y-77800000D01*
X103055000Y-77700000D01*
X103075000Y-77700000D01*
X103075000Y-77680000D01*
X103175000Y-77680000D01*
X103175000Y-77700000D01*
X103708474Y-77700000D01*
X103759255Y-77642476D01*
X103700520Y-77520190D01*
X103643729Y-77470219D01*
X103706143Y-77376809D01*
X103731367Y-77250000D01*
X103706143Y-77123191D01*
X103634312Y-77015688D01*
X103610833Y-77000000D01*
X103634312Y-76984312D01*
X103706143Y-76876809D01*
X103731367Y-76750000D01*
X103706143Y-76623191D01*
X103643729Y-76529781D01*
X103700520Y-76479810D01*
X103759255Y-76357524D01*
X103708474Y-76300000D01*
X103175000Y-76300000D01*
X103175000Y-76320000D01*
X103075000Y-76320000D01*
X103075000Y-76300000D01*
X103055000Y-76300000D01*
X103055000Y-76200000D01*
X103075000Y-76200000D01*
X103075000Y-75800000D01*
X103175000Y-75800000D01*
X103175000Y-76200000D01*
X103708474Y-76200000D01*
X103759255Y-76142476D01*
X103700520Y-76020190D01*
X103677574Y-76000000D01*
X103700520Y-75979810D01*
X103759255Y-75857524D01*
X103708474Y-75800000D01*
X103175000Y-75800000D01*
X103075000Y-75800000D01*
X103055000Y-75800000D01*
X103055000Y-75700000D01*
X103075000Y-75700000D01*
X103075000Y-75680000D01*
X103175000Y-75680000D01*
X103175000Y-75700000D01*
X103708474Y-75700000D01*
X103759255Y-75642476D01*
X103700520Y-75520190D01*
X103643729Y-75470219D01*
X103657239Y-75450000D01*
X104450000Y-75450000D01*
X104450000Y-77800000D01*
G04 #@! TD*
M02*
