M48
;DRILL file {KiCad 5.0.0+dfsg1-2} date Sun Sep 16 15:45:12 2018
;FORMAT={-:-/ absolute / inch / decimal}
FMAT,2
INCH,TZ
T1C0.0118
T2C0.0300
T3C0.0315
%
G90
G05
M72
T1
X3.85Y-2.7106
X3.85Y-2.78
X3.8819Y-3.0512
X3.9134Y-2.624
X3.9449Y-2.6575
X3.9531Y-2.5236
X3.9764Y-3.0906
X3.9882Y-3.2402
X3.99Y-2.84
X4.Y-3.3031
X4.0157Y-3.2165
X4.0186Y-2.9595
X4.0431Y-2.6116
X4.0981Y-2.9816
X4.0981Y-3.0245
X4.1Y-2.66
X4.1131Y-3.0916
X4.122Y-2.5236
X4.1241Y-3.1306
X4.13Y-2.91
X4.1455Y-3.1535
X4.16Y-3.36
X4.185Y-3.0866
X4.1969Y-3.0315
X4.2031Y-2.9666
X4.2165Y-3.1575
X4.2231Y-2.6266
X4.2281Y-2.9116
X4.2362Y-3.0315
X4.27Y-3.36
X4.2881Y-3.15
X4.29Y-2.92
X4.29Y-2.98
X4.29Y-3.03
X4.29Y-3.09
X4.3181Y-3.1616
X4.35Y-2.93
X4.3531Y-3.1566
X4.36Y-3.03
X4.36Y-3.09
X4.37Y-3.36
X4.3881Y-2.6616
X4.3898Y-2.6142
X4.46Y-2.61
X4.5331Y-2.6566
X4.5381Y-2.8516
X4.5381Y-2.9187
X4.5981Y-3.2016
X4.5984Y-3.0394
X4.61Y-3.36
X4.6102Y-3.2992
X4.622Y-3.0551
X4.6297Y-2.97
X4.63Y-2.61
X4.6387Y-2.6922
X4.64Y-3.13
X4.6457Y-2.9016
X4.6535Y-3.0315
X4.6598Y-2.6699
X4.6839Y-2.651
X4.6841Y-3.0114
X4.7Y-3.11
X4.7Y-3.2
X4.72Y-2.61
X4.73Y-3.02
X4.74Y-2.93
X4.75Y-2.64
X4.75Y-2.77
T2
X3.8531Y-3.2441
X3.9213Y-3.3228
X4.6693Y-3.3228
T3
X4.7953Y-2.9272G85X4.7953Y-2.9862
G05
X4.7953Y-3.2224G85X4.7953Y-3.2815
G05
T0
M30
