G04 #@! TF.GenerationSoftware,KiCad,Pcbnew,5.0.0+dfsg1-2*
G04 #@! TF.CreationDate,2018-09-16T15:45:03-04:00*
G04 #@! TF.ProjectId,goodwatch30,676F6F64776174636833302E6B696361,30*
G04 #@! TF.SameCoordinates,Original*
G04 #@! TF.FileFunction,Legend,Bot*
G04 #@! TF.FilePolarity,Positive*
%FSLAX46Y46*%
G04 Gerber Fmt 4.6, Leading zero omitted, Abs format (unit mm)*
G04 Created by KiCad (PCBNEW 5.0.0+dfsg1-2) date Sun Sep 16 15:45:03 2018*
%MOMM*%
%LPD*%
G01*
G04 APERTURE LIST*
%ADD10C,0.120000*%
%ADD11C,0.150000*%
%ADD12C,0.125000*%
G04 APERTURE END LIST*
D10*
G04 #@! TO.C,J1*
X100500000Y-65550000D02*
X100500000Y-65050000D01*
X99100000Y-65550000D02*
X99100000Y-65050000D01*
X99100000Y-65550000D02*
X98500000Y-65550000D01*
X98500000Y-65550000D02*
X98300000Y-65750000D01*
X101300000Y-65750000D02*
X101300000Y-65550000D01*
X101300000Y-65550000D02*
X100500000Y-65550000D01*
X100500000Y-68550000D02*
X101300000Y-68550000D01*
X101300000Y-68550000D02*
X101300000Y-68350000D01*
X98300000Y-68350000D02*
X98300000Y-68550000D01*
X98300000Y-68550000D02*
X99100000Y-68550000D01*
D11*
G04 #@! TO.C,A1*
X103900000Y-65500000D02*
X115000000Y-65500000D01*
X103900000Y-61500000D02*
X115000000Y-61500000D01*
D10*
G04 #@! TO.C,C1*
X100374221Y-63161000D02*
X100699779Y-63161000D01*
X100374221Y-62141000D02*
X100699779Y-62141000D01*
G04 #@! TO.C,Y1*
X114801000Y-85751000D02*
X113451000Y-85751000D01*
X114801000Y-84001000D02*
X113451000Y-84001000D01*
G04 #@! TO.C,C8*
D12*
X106883333Y-77778571D02*
X106907142Y-77802380D01*
X106978571Y-77826190D01*
X107026190Y-77826190D01*
X107097619Y-77802380D01*
X107145238Y-77754761D01*
X107169047Y-77707142D01*
X107192857Y-77611904D01*
X107192857Y-77540476D01*
X107169047Y-77445238D01*
X107145238Y-77397619D01*
X107097619Y-77350000D01*
X107026190Y-77326190D01*
X106978571Y-77326190D01*
X106907142Y-77350000D01*
X106883333Y-77373809D01*
X106597619Y-77540476D02*
X106645238Y-77516666D01*
X106669047Y-77492857D01*
X106692857Y-77445238D01*
X106692857Y-77421428D01*
X106669047Y-77373809D01*
X106645238Y-77350000D01*
X106597619Y-77326190D01*
X106502380Y-77326190D01*
X106454761Y-77350000D01*
X106430952Y-77373809D01*
X106407142Y-77421428D01*
X106407142Y-77445238D01*
X106430952Y-77492857D01*
X106454761Y-77516666D01*
X106502380Y-77540476D01*
X106597619Y-77540476D01*
X106645238Y-77564285D01*
X106669047Y-77588095D01*
X106692857Y-77635714D01*
X106692857Y-77730952D01*
X106669047Y-77778571D01*
X106645238Y-77802380D01*
X106597619Y-77826190D01*
X106502380Y-77826190D01*
X106454761Y-77802380D01*
X106430952Y-77778571D01*
X106407142Y-77730952D01*
X106407142Y-77635714D01*
X106430952Y-77588095D01*
X106454761Y-77564285D01*
X106502380Y-77540476D01*
G04 #@! TO.C,C9*
X106883333Y-75978571D02*
X106907142Y-76002380D01*
X106978571Y-76026190D01*
X107026190Y-76026190D01*
X107097619Y-76002380D01*
X107145238Y-75954761D01*
X107169047Y-75907142D01*
X107192857Y-75811904D01*
X107192857Y-75740476D01*
X107169047Y-75645238D01*
X107145238Y-75597619D01*
X107097619Y-75550000D01*
X107026190Y-75526190D01*
X106978571Y-75526190D01*
X106907142Y-75550000D01*
X106883333Y-75573809D01*
X106645238Y-76026190D02*
X106550000Y-76026190D01*
X106502380Y-76002380D01*
X106478571Y-75978571D01*
X106430952Y-75907142D01*
X106407142Y-75811904D01*
X106407142Y-75621428D01*
X106430952Y-75573809D01*
X106454761Y-75550000D01*
X106502380Y-75526190D01*
X106597619Y-75526190D01*
X106645238Y-75550000D01*
X106669047Y-75573809D01*
X106692857Y-75621428D01*
X106692857Y-75740476D01*
X106669047Y-75788095D01*
X106645238Y-75811904D01*
X106597619Y-75835714D01*
X106502380Y-75835714D01*
X106454761Y-75811904D01*
X106430952Y-75788095D01*
X106407142Y-75740476D01*
G04 #@! TO.C,C3*
X108478571Y-77416666D02*
X108502380Y-77392857D01*
X108526190Y-77321428D01*
X108526190Y-77273809D01*
X108502380Y-77202380D01*
X108454761Y-77154761D01*
X108407142Y-77130952D01*
X108311904Y-77107142D01*
X108240476Y-77107142D01*
X108145238Y-77130952D01*
X108097619Y-77154761D01*
X108050000Y-77202380D01*
X108026190Y-77273809D01*
X108026190Y-77321428D01*
X108050000Y-77392857D01*
X108073809Y-77416666D01*
X108026190Y-77583333D02*
X108026190Y-77892857D01*
X108216666Y-77726190D01*
X108216666Y-77797619D01*
X108240476Y-77845238D01*
X108264285Y-77869047D01*
X108311904Y-77892857D01*
X108430952Y-77892857D01*
X108478571Y-77869047D01*
X108502380Y-77845238D01*
X108526190Y-77797619D01*
X108526190Y-77654761D01*
X108502380Y-77607142D01*
X108478571Y-77583333D01*
G04 #@! TO.C,BRD1*
D11*
X114052380Y-59066666D02*
X115052380Y-59400000D01*
X114052380Y-59733333D01*
X114957142Y-60638095D02*
X115004761Y-60590476D01*
X115052380Y-60447619D01*
X115052380Y-60352380D01*
X115004761Y-60209523D01*
X114909523Y-60114285D01*
X114814285Y-60066666D01*
X114623809Y-60019047D01*
X114480952Y-60019047D01*
X114290476Y-60066666D01*
X114195238Y-60114285D01*
X114100000Y-60209523D01*
X114052380Y-60352380D01*
X114052380Y-60447619D01*
X114100000Y-60590476D01*
X114147619Y-60638095D01*
X114957142Y-61638095D02*
X115004761Y-61590476D01*
X115052380Y-61447619D01*
X115052380Y-61352380D01*
X115004761Y-61209523D01*
X114909523Y-61114285D01*
X114814285Y-61066666D01*
X114623809Y-61019047D01*
X114480952Y-61019047D01*
X114290476Y-61066666D01*
X114195238Y-61114285D01*
X114100000Y-61209523D01*
X114052380Y-61352380D01*
X114052380Y-61447619D01*
X114100000Y-61590476D01*
X114147619Y-61638095D01*
X114361904Y-65600000D02*
X114457142Y-65552380D01*
X114600000Y-65552380D01*
X114742857Y-65600000D01*
X114838095Y-65695238D01*
X114885714Y-65790476D01*
X114933333Y-65980952D01*
X114933333Y-66123809D01*
X114885714Y-66314285D01*
X114838095Y-66409523D01*
X114742857Y-66504761D01*
X114600000Y-66552380D01*
X114504761Y-66552380D01*
X114361904Y-66504761D01*
X114314285Y-66457142D01*
X114314285Y-66123809D01*
X114504761Y-66123809D01*
X113885714Y-66552380D02*
X113885714Y-65552380D01*
X113314285Y-66552380D01*
X113314285Y-65552380D01*
X112838095Y-66552380D02*
X112838095Y-65552380D01*
X112600000Y-65552380D01*
X112457142Y-65600000D01*
X112361904Y-65695238D01*
X112314285Y-65790476D01*
X112266666Y-65980952D01*
X112266666Y-66123809D01*
X112314285Y-66314285D01*
X112361904Y-66409523D01*
X112457142Y-66504761D01*
X112600000Y-66552380D01*
X112838095Y-66552380D01*
G04 #@! TO.C,J1*
X101833333Y-68852380D02*
X101833333Y-69566666D01*
X101880952Y-69709523D01*
X101976190Y-69804761D01*
X102119047Y-69852380D01*
X102214285Y-69852380D01*
X100833333Y-69852380D02*
X101404761Y-69852380D01*
X101119047Y-69852380D02*
X101119047Y-68852380D01*
X101214285Y-68995238D01*
X101309523Y-69090476D01*
X101404761Y-69138095D01*
G04 #@! TO.C,A1*
X105614285Y-62966666D02*
X105138095Y-62966666D01*
X105709523Y-63252380D02*
X105376190Y-62252380D01*
X105042857Y-63252380D01*
X104185714Y-63252380D02*
X104757142Y-63252380D01*
X104471428Y-63252380D02*
X104471428Y-62252380D01*
X104566666Y-62395238D01*
X104661904Y-62490476D01*
X104757142Y-62538095D01*
G04 #@! TO.C,C1*
X98216666Y-63007142D02*
X98264285Y-63054761D01*
X98407142Y-63102380D01*
X98502380Y-63102380D01*
X98645238Y-63054761D01*
X98740476Y-62959523D01*
X98788095Y-62864285D01*
X98835714Y-62673809D01*
X98835714Y-62530952D01*
X98788095Y-62340476D01*
X98740476Y-62245238D01*
X98645238Y-62150000D01*
X98502380Y-62102380D01*
X98407142Y-62102380D01*
X98264285Y-62150000D01*
X98216666Y-62197619D01*
X97264285Y-63102380D02*
X97835714Y-63102380D01*
X97550000Y-63102380D02*
X97550000Y-62102380D01*
X97645238Y-62245238D01*
X97740476Y-62340476D01*
X97835714Y-62388095D01*
G04 #@! TO.C,L1*
D12*
X106835333Y-76726190D02*
X107073428Y-76726190D01*
X107073428Y-76226190D01*
X106406761Y-76726190D02*
X106692476Y-76726190D01*
X106549619Y-76726190D02*
X106549619Y-76226190D01*
X106597238Y-76297619D01*
X106644857Y-76345238D01*
X106692476Y-76369047D01*
G04 #@! TO.C,Y1*
D11*
X114602190Y-82852190D02*
X114602190Y-83328380D01*
X114935523Y-82328380D02*
X114602190Y-82852190D01*
X114268857Y-82328380D01*
X113411714Y-83328380D02*
X113983142Y-83328380D01*
X113697428Y-83328380D02*
X113697428Y-82328380D01*
X113792666Y-82471238D01*
X113887904Y-82566476D01*
X113983142Y-82614095D01*
G04 #@! TD*
M02*
