G04 #@! TF.GenerationSoftware,KiCad,Pcbnew,10.0.4*
G04 #@! TF.CreationDate,2026-08-18T18:54:15-06:00*
G04 #@! TF.ProjectId,goodwatch31,676f6f64-7761-4746-9368-33312e6b6963,30*
G04 #@! TF.SameCoordinates,Original*
G04 #@! TF.FileFunction,Paste,Top*
G04 #@! TF.FilePolarity,Positive*
%FSLAX46Y46*%
G04 Gerber Fmt 4.6, Leading zero omitted, Abs format (unit mm)*
G04 Created by KiCad (PCBNEW 10.0.4) date 2026-08-18 18:54:15*
%MOMM*%
%LPD*%
G01*
G04 APERTURE LIST*
G04 Aperture macros list*
%AMRoundRect*
0 Rectangle with rounded corners*
0 $1 Rounding radius*
0 $2 $3 $4 $5 $6 $7 $8 $9 X,Y pos of 4 corners*
0 Add a 4 corners polygon primitive as box body*
4,1,4,$2,$3,$4,$5,$6,$7,$8,$9,$2,$3,0*
0 Add four circle primitives for the rounded corners*
1,1,$1+$1,$2,$3*
1,1,$1+$1,$4,$5*
1,1,$1+$1,$6,$7*
1,1,$1+$1,$8,$9*
0 Add four rect primitives between the rounded corners*
20,1,$1+$1,$2,$3,$4,$5,0*
20,1,$1+$1,$4,$5,$6,$7,0*
20,1,$1+$1,$6,$7,$8,$9,0*
20,1,$1+$1,$8,$9,$2,$3,0*%
G04 Aperture macros list end*
%ADD10RoundRect,0.147500X-0.147500X-0.172500X0.147500X-0.172500X0.147500X0.172500X-0.147500X0.172500X0*%
%ADD11RoundRect,0.147500X0.147500X0.172500X-0.147500X0.172500X-0.147500X-0.172500X0.147500X-0.172500X0*%
%ADD12RoundRect,0.147500X0.172500X-0.147500X0.172500X0.147500X-0.172500X0.147500X-0.172500X-0.147500X0*%
%ADD13RoundRect,0.147500X-0.172500X0.147500X-0.172500X-0.147500X0.172500X-0.147500X0.172500X0.147500X0*%
%ADD14RoundRect,0.082500X0.122500X0.082500X-0.122500X0.082500X-0.122500X-0.082500X0.122500X-0.082500X0*%
%ADD15RoundRect,0.087500X-0.087500X0.162500X-0.087500X-0.162500X0.087500X-0.162500X0.087500X0.162500X0*%
%ADD16RoundRect,0.087500X0.162500X0.087500X-0.162500X0.087500X-0.162500X-0.087500X0.162500X-0.087500X0*%
%ADD17RoundRect,0.212500X0.262500X0.212500X-0.262500X0.212500X-0.262500X-0.212500X0.262500X-0.212500X0*%
%ADD18O,0.800000X0.250000*%
%ADD19O,0.250000X0.800000*%
%ADD20R,4.250000X4.250000*%
G04 APERTURE END LIST*
D10*
X114738000Y-75224000D03*
X113768000Y-75224000D03*
X113768000Y-76240000D03*
X114738000Y-76240000D03*
D11*
X100515000Y-73039600D03*
X101485000Y-73039600D03*
D12*
X98479600Y-75485000D03*
X98479600Y-74515000D03*
D11*
X100485000Y-81800000D03*
X99515000Y-81800000D03*
X99515000Y-82800000D03*
X100485000Y-82800000D03*
D13*
X101900000Y-78815000D03*
X101900000Y-79785000D03*
D14*
X100315000Y-76843000D03*
X100965000Y-76843000D03*
X101615000Y-76843000D03*
X101615000Y-77843000D03*
X100965000Y-77843000D03*
X100315000Y-77843000D03*
D15*
X100000000Y-78825000D03*
D16*
X100800000Y-79150000D03*
X100800000Y-79800000D03*
X100800000Y-80450000D03*
D15*
X100000000Y-80775000D03*
D16*
X99200000Y-80450000D03*
X99200000Y-79800000D03*
X99200000Y-79150000D03*
D17*
X101125000Y-75300000D03*
X99675000Y-75300000D03*
X99675000Y-74150000D03*
X101125000Y-74150000D03*
D10*
X115038000Y-79669000D03*
X116008000Y-79669000D03*
D18*
X112075000Y-80750000D03*
X112075000Y-80250000D03*
X112075000Y-79750000D03*
X112075000Y-79250000D03*
X112075000Y-78750000D03*
X112075000Y-78250000D03*
X112075000Y-77750000D03*
X112075000Y-77250000D03*
X112075000Y-76750000D03*
X112075000Y-76250000D03*
X112075000Y-75750000D03*
X112075000Y-75250000D03*
X112075000Y-74750000D03*
X112075000Y-74250000D03*
X112075000Y-73750000D03*
X112075000Y-73250000D03*
D19*
X111350000Y-72525000D03*
X110850000Y-72525000D03*
X110350000Y-72525000D03*
X109850000Y-72525000D03*
X109350000Y-72525000D03*
X108850000Y-72525000D03*
X108350000Y-72525000D03*
X107850000Y-72525000D03*
X107350000Y-72525000D03*
X106850000Y-72525000D03*
X106350000Y-72525000D03*
X105850000Y-72525000D03*
X105350000Y-72525000D03*
X104850000Y-72525000D03*
X104350000Y-72525000D03*
X103850000Y-72525000D03*
D18*
X103125000Y-73250000D03*
X103125000Y-73750000D03*
X103125000Y-74250000D03*
X103125000Y-74750000D03*
X103125000Y-75250000D03*
X103125000Y-75750000D03*
X103125000Y-76250000D03*
X103125000Y-76750000D03*
X103125000Y-77250000D03*
X103125000Y-77750000D03*
X103125000Y-78250000D03*
X103125000Y-78750000D03*
X103125000Y-79250000D03*
X103125000Y-79750000D03*
X103125000Y-80250000D03*
X103125000Y-80750000D03*
D19*
X103850000Y-81475000D03*
X104350000Y-81475000D03*
X104850000Y-81475000D03*
X105350000Y-81475000D03*
X105850000Y-81475000D03*
X106350000Y-81475000D03*
X106850000Y-81475000D03*
X107350000Y-81475000D03*
X107850000Y-81475000D03*
X108350000Y-81475000D03*
X108850000Y-81475000D03*
X109350000Y-81475000D03*
X109850000Y-81475000D03*
X110350000Y-81475000D03*
X110850000Y-81475000D03*
X111350000Y-81475000D03*
D20*
X107600000Y-77000000D03*
M02*
