G04 #@! TF.GenerationSoftware,KiCad,Pcbnew,5.0.1*
G04 #@! TF.CreationDate,2019-01-01T17:00:48+00:00*
G04 #@! TF.ProjectId,goodwatch30,676F6F64776174636833302E6B696361,30*
G04 #@! TF.SameCoordinates,Original*
G04 #@! TF.FileFunction,Paste,Top*
G04 #@! TF.FilePolarity,Positive*
%FSLAX46Y46*%
G04 Gerber Fmt 4.6, Leading zero omitted, Abs format (unit mm)*
G04 Created by KiCad (PCBNEW 5.0.1) date Tue 01 Jan 2019 05:00:48 PM UTC*
%MOMM*%
%LPD*%
G01*
G04 APERTURE LIST*
%ADD10C,0.100000*%
%ADD11C,0.590000*%
%ADD12C,0.330000*%
%ADD13C,0.350000*%
%ADD14C,0.850000*%
%ADD15O,0.800000X0.250000*%
%ADD16O,0.250000X0.800000*%
%ADD17R,4.250000X4.250000*%
G04 APERTURE END LIST*
D10*
G04 #@! TO.C,C2*
G36*
X114899958Y-74904710D02*
X114914276Y-74906834D01*
X114928317Y-74910351D01*
X114941946Y-74915228D01*
X114955031Y-74921417D01*
X114967447Y-74928858D01*
X114979073Y-74937481D01*
X114989798Y-74947202D01*
X114999519Y-74957927D01*
X115008142Y-74969553D01*
X115015583Y-74981969D01*
X115021772Y-74995054D01*
X115026649Y-75008683D01*
X115030166Y-75022724D01*
X115032290Y-75037042D01*
X115033000Y-75051500D01*
X115033000Y-75396500D01*
X115032290Y-75410958D01*
X115030166Y-75425276D01*
X115026649Y-75439317D01*
X115021772Y-75452946D01*
X115015583Y-75466031D01*
X115008142Y-75478447D01*
X114999519Y-75490073D01*
X114989798Y-75500798D01*
X114979073Y-75510519D01*
X114967447Y-75519142D01*
X114955031Y-75526583D01*
X114941946Y-75532772D01*
X114928317Y-75537649D01*
X114914276Y-75541166D01*
X114899958Y-75543290D01*
X114885500Y-75544000D01*
X114590500Y-75544000D01*
X114576042Y-75543290D01*
X114561724Y-75541166D01*
X114547683Y-75537649D01*
X114534054Y-75532772D01*
X114520969Y-75526583D01*
X114508553Y-75519142D01*
X114496927Y-75510519D01*
X114486202Y-75500798D01*
X114476481Y-75490073D01*
X114467858Y-75478447D01*
X114460417Y-75466031D01*
X114454228Y-75452946D01*
X114449351Y-75439317D01*
X114445834Y-75425276D01*
X114443710Y-75410958D01*
X114443000Y-75396500D01*
X114443000Y-75051500D01*
X114443710Y-75037042D01*
X114445834Y-75022724D01*
X114449351Y-75008683D01*
X114454228Y-74995054D01*
X114460417Y-74981969D01*
X114467858Y-74969553D01*
X114476481Y-74957927D01*
X114486202Y-74947202D01*
X114496927Y-74937481D01*
X114508553Y-74928858D01*
X114520969Y-74921417D01*
X114534054Y-74915228D01*
X114547683Y-74910351D01*
X114561724Y-74906834D01*
X114576042Y-74904710D01*
X114590500Y-74904000D01*
X114885500Y-74904000D01*
X114899958Y-74904710D01*
X114899958Y-74904710D01*
G37*
D11*
X114738000Y-75224000D03*
D10*
G36*
X113929958Y-74904710D02*
X113944276Y-74906834D01*
X113958317Y-74910351D01*
X113971946Y-74915228D01*
X113985031Y-74921417D01*
X113997447Y-74928858D01*
X114009073Y-74937481D01*
X114019798Y-74947202D01*
X114029519Y-74957927D01*
X114038142Y-74969553D01*
X114045583Y-74981969D01*
X114051772Y-74995054D01*
X114056649Y-75008683D01*
X114060166Y-75022724D01*
X114062290Y-75037042D01*
X114063000Y-75051500D01*
X114063000Y-75396500D01*
X114062290Y-75410958D01*
X114060166Y-75425276D01*
X114056649Y-75439317D01*
X114051772Y-75452946D01*
X114045583Y-75466031D01*
X114038142Y-75478447D01*
X114029519Y-75490073D01*
X114019798Y-75500798D01*
X114009073Y-75510519D01*
X113997447Y-75519142D01*
X113985031Y-75526583D01*
X113971946Y-75532772D01*
X113958317Y-75537649D01*
X113944276Y-75541166D01*
X113929958Y-75543290D01*
X113915500Y-75544000D01*
X113620500Y-75544000D01*
X113606042Y-75543290D01*
X113591724Y-75541166D01*
X113577683Y-75537649D01*
X113564054Y-75532772D01*
X113550969Y-75526583D01*
X113538553Y-75519142D01*
X113526927Y-75510519D01*
X113516202Y-75500798D01*
X113506481Y-75490073D01*
X113497858Y-75478447D01*
X113490417Y-75466031D01*
X113484228Y-75452946D01*
X113479351Y-75439317D01*
X113475834Y-75425276D01*
X113473710Y-75410958D01*
X113473000Y-75396500D01*
X113473000Y-75051500D01*
X113473710Y-75037042D01*
X113475834Y-75022724D01*
X113479351Y-75008683D01*
X113484228Y-74995054D01*
X113490417Y-74981969D01*
X113497858Y-74969553D01*
X113506481Y-74957927D01*
X113516202Y-74947202D01*
X113526927Y-74937481D01*
X113538553Y-74928858D01*
X113550969Y-74921417D01*
X113564054Y-74915228D01*
X113577683Y-74910351D01*
X113591724Y-74906834D01*
X113606042Y-74904710D01*
X113620500Y-74904000D01*
X113915500Y-74904000D01*
X113929958Y-74904710D01*
X113929958Y-74904710D01*
G37*
D11*
X113768000Y-75224000D03*
G04 #@! TD*
D10*
G04 #@! TO.C,C5*
G36*
X113929958Y-75920710D02*
X113944276Y-75922834D01*
X113958317Y-75926351D01*
X113971946Y-75931228D01*
X113985031Y-75937417D01*
X113997447Y-75944858D01*
X114009073Y-75953481D01*
X114019798Y-75963202D01*
X114029519Y-75973927D01*
X114038142Y-75985553D01*
X114045583Y-75997969D01*
X114051772Y-76011054D01*
X114056649Y-76024683D01*
X114060166Y-76038724D01*
X114062290Y-76053042D01*
X114063000Y-76067500D01*
X114063000Y-76412500D01*
X114062290Y-76426958D01*
X114060166Y-76441276D01*
X114056649Y-76455317D01*
X114051772Y-76468946D01*
X114045583Y-76482031D01*
X114038142Y-76494447D01*
X114029519Y-76506073D01*
X114019798Y-76516798D01*
X114009073Y-76526519D01*
X113997447Y-76535142D01*
X113985031Y-76542583D01*
X113971946Y-76548772D01*
X113958317Y-76553649D01*
X113944276Y-76557166D01*
X113929958Y-76559290D01*
X113915500Y-76560000D01*
X113620500Y-76560000D01*
X113606042Y-76559290D01*
X113591724Y-76557166D01*
X113577683Y-76553649D01*
X113564054Y-76548772D01*
X113550969Y-76542583D01*
X113538553Y-76535142D01*
X113526927Y-76526519D01*
X113516202Y-76516798D01*
X113506481Y-76506073D01*
X113497858Y-76494447D01*
X113490417Y-76482031D01*
X113484228Y-76468946D01*
X113479351Y-76455317D01*
X113475834Y-76441276D01*
X113473710Y-76426958D01*
X113473000Y-76412500D01*
X113473000Y-76067500D01*
X113473710Y-76053042D01*
X113475834Y-76038724D01*
X113479351Y-76024683D01*
X113484228Y-76011054D01*
X113490417Y-75997969D01*
X113497858Y-75985553D01*
X113506481Y-75973927D01*
X113516202Y-75963202D01*
X113526927Y-75953481D01*
X113538553Y-75944858D01*
X113550969Y-75937417D01*
X113564054Y-75931228D01*
X113577683Y-75926351D01*
X113591724Y-75922834D01*
X113606042Y-75920710D01*
X113620500Y-75920000D01*
X113915500Y-75920000D01*
X113929958Y-75920710D01*
X113929958Y-75920710D01*
G37*
D11*
X113768000Y-76240000D03*
D10*
G36*
X114899958Y-75920710D02*
X114914276Y-75922834D01*
X114928317Y-75926351D01*
X114941946Y-75931228D01*
X114955031Y-75937417D01*
X114967447Y-75944858D01*
X114979073Y-75953481D01*
X114989798Y-75963202D01*
X114999519Y-75973927D01*
X115008142Y-75985553D01*
X115015583Y-75997969D01*
X115021772Y-76011054D01*
X115026649Y-76024683D01*
X115030166Y-76038724D01*
X115032290Y-76053042D01*
X115033000Y-76067500D01*
X115033000Y-76412500D01*
X115032290Y-76426958D01*
X115030166Y-76441276D01*
X115026649Y-76455317D01*
X115021772Y-76468946D01*
X115015583Y-76482031D01*
X115008142Y-76494447D01*
X114999519Y-76506073D01*
X114989798Y-76516798D01*
X114979073Y-76526519D01*
X114967447Y-76535142D01*
X114955031Y-76542583D01*
X114941946Y-76548772D01*
X114928317Y-76553649D01*
X114914276Y-76557166D01*
X114899958Y-76559290D01*
X114885500Y-76560000D01*
X114590500Y-76560000D01*
X114576042Y-76559290D01*
X114561724Y-76557166D01*
X114547683Y-76553649D01*
X114534054Y-76548772D01*
X114520969Y-76542583D01*
X114508553Y-76535142D01*
X114496927Y-76526519D01*
X114486202Y-76516798D01*
X114476481Y-76506073D01*
X114467858Y-76494447D01*
X114460417Y-76482031D01*
X114454228Y-76468946D01*
X114449351Y-76455317D01*
X114445834Y-76441276D01*
X114443710Y-76426958D01*
X114443000Y-76412500D01*
X114443000Y-76067500D01*
X114443710Y-76053042D01*
X114445834Y-76038724D01*
X114449351Y-76024683D01*
X114454228Y-76011054D01*
X114460417Y-75997969D01*
X114467858Y-75985553D01*
X114476481Y-75973927D01*
X114486202Y-75963202D01*
X114496927Y-75953481D01*
X114508553Y-75944858D01*
X114520969Y-75937417D01*
X114534054Y-75931228D01*
X114547683Y-75926351D01*
X114561724Y-75922834D01*
X114576042Y-75920710D01*
X114590500Y-75920000D01*
X114885500Y-75920000D01*
X114899958Y-75920710D01*
X114899958Y-75920710D01*
G37*
D11*
X114738000Y-76240000D03*
G04 #@! TD*
D10*
G04 #@! TO.C,C6*
G36*
X100676958Y-72720310D02*
X100691276Y-72722434D01*
X100705317Y-72725951D01*
X100718946Y-72730828D01*
X100732031Y-72737017D01*
X100744447Y-72744458D01*
X100756073Y-72753081D01*
X100766798Y-72762802D01*
X100776519Y-72773527D01*
X100785142Y-72785153D01*
X100792583Y-72797569D01*
X100798772Y-72810654D01*
X100803649Y-72824283D01*
X100807166Y-72838324D01*
X100809290Y-72852642D01*
X100810000Y-72867100D01*
X100810000Y-73212100D01*
X100809290Y-73226558D01*
X100807166Y-73240876D01*
X100803649Y-73254917D01*
X100798772Y-73268546D01*
X100792583Y-73281631D01*
X100785142Y-73294047D01*
X100776519Y-73305673D01*
X100766798Y-73316398D01*
X100756073Y-73326119D01*
X100744447Y-73334742D01*
X100732031Y-73342183D01*
X100718946Y-73348372D01*
X100705317Y-73353249D01*
X100691276Y-73356766D01*
X100676958Y-73358890D01*
X100662500Y-73359600D01*
X100367500Y-73359600D01*
X100353042Y-73358890D01*
X100338724Y-73356766D01*
X100324683Y-73353249D01*
X100311054Y-73348372D01*
X100297969Y-73342183D01*
X100285553Y-73334742D01*
X100273927Y-73326119D01*
X100263202Y-73316398D01*
X100253481Y-73305673D01*
X100244858Y-73294047D01*
X100237417Y-73281631D01*
X100231228Y-73268546D01*
X100226351Y-73254917D01*
X100222834Y-73240876D01*
X100220710Y-73226558D01*
X100220000Y-73212100D01*
X100220000Y-72867100D01*
X100220710Y-72852642D01*
X100222834Y-72838324D01*
X100226351Y-72824283D01*
X100231228Y-72810654D01*
X100237417Y-72797569D01*
X100244858Y-72785153D01*
X100253481Y-72773527D01*
X100263202Y-72762802D01*
X100273927Y-72753081D01*
X100285553Y-72744458D01*
X100297969Y-72737017D01*
X100311054Y-72730828D01*
X100324683Y-72725951D01*
X100338724Y-72722434D01*
X100353042Y-72720310D01*
X100367500Y-72719600D01*
X100662500Y-72719600D01*
X100676958Y-72720310D01*
X100676958Y-72720310D01*
G37*
D11*
X100515000Y-73039600D03*
D10*
G36*
X101646958Y-72720310D02*
X101661276Y-72722434D01*
X101675317Y-72725951D01*
X101688946Y-72730828D01*
X101702031Y-72737017D01*
X101714447Y-72744458D01*
X101726073Y-72753081D01*
X101736798Y-72762802D01*
X101746519Y-72773527D01*
X101755142Y-72785153D01*
X101762583Y-72797569D01*
X101768772Y-72810654D01*
X101773649Y-72824283D01*
X101777166Y-72838324D01*
X101779290Y-72852642D01*
X101780000Y-72867100D01*
X101780000Y-73212100D01*
X101779290Y-73226558D01*
X101777166Y-73240876D01*
X101773649Y-73254917D01*
X101768772Y-73268546D01*
X101762583Y-73281631D01*
X101755142Y-73294047D01*
X101746519Y-73305673D01*
X101736798Y-73316398D01*
X101726073Y-73326119D01*
X101714447Y-73334742D01*
X101702031Y-73342183D01*
X101688946Y-73348372D01*
X101675317Y-73353249D01*
X101661276Y-73356766D01*
X101646958Y-73358890D01*
X101632500Y-73359600D01*
X101337500Y-73359600D01*
X101323042Y-73358890D01*
X101308724Y-73356766D01*
X101294683Y-73353249D01*
X101281054Y-73348372D01*
X101267969Y-73342183D01*
X101255553Y-73334742D01*
X101243927Y-73326119D01*
X101233202Y-73316398D01*
X101223481Y-73305673D01*
X101214858Y-73294047D01*
X101207417Y-73281631D01*
X101201228Y-73268546D01*
X101196351Y-73254917D01*
X101192834Y-73240876D01*
X101190710Y-73226558D01*
X101190000Y-73212100D01*
X101190000Y-72867100D01*
X101190710Y-72852642D01*
X101192834Y-72838324D01*
X101196351Y-72824283D01*
X101201228Y-72810654D01*
X101207417Y-72797569D01*
X101214858Y-72785153D01*
X101223481Y-72773527D01*
X101233202Y-72762802D01*
X101243927Y-72753081D01*
X101255553Y-72744458D01*
X101267969Y-72737017D01*
X101281054Y-72730828D01*
X101294683Y-72725951D01*
X101308724Y-72722434D01*
X101323042Y-72720310D01*
X101337500Y-72719600D01*
X101632500Y-72719600D01*
X101646958Y-72720310D01*
X101646958Y-72720310D01*
G37*
D11*
X101485000Y-73039600D03*
G04 #@! TD*
D10*
G04 #@! TO.C,C7*
G36*
X98666558Y-75190710D02*
X98680876Y-75192834D01*
X98694917Y-75196351D01*
X98708546Y-75201228D01*
X98721631Y-75207417D01*
X98734047Y-75214858D01*
X98745673Y-75223481D01*
X98756398Y-75233202D01*
X98766119Y-75243927D01*
X98774742Y-75255553D01*
X98782183Y-75267969D01*
X98788372Y-75281054D01*
X98793249Y-75294683D01*
X98796766Y-75308724D01*
X98798890Y-75323042D01*
X98799600Y-75337500D01*
X98799600Y-75632500D01*
X98798890Y-75646958D01*
X98796766Y-75661276D01*
X98793249Y-75675317D01*
X98788372Y-75688946D01*
X98782183Y-75702031D01*
X98774742Y-75714447D01*
X98766119Y-75726073D01*
X98756398Y-75736798D01*
X98745673Y-75746519D01*
X98734047Y-75755142D01*
X98721631Y-75762583D01*
X98708546Y-75768772D01*
X98694917Y-75773649D01*
X98680876Y-75777166D01*
X98666558Y-75779290D01*
X98652100Y-75780000D01*
X98307100Y-75780000D01*
X98292642Y-75779290D01*
X98278324Y-75777166D01*
X98264283Y-75773649D01*
X98250654Y-75768772D01*
X98237569Y-75762583D01*
X98225153Y-75755142D01*
X98213527Y-75746519D01*
X98202802Y-75736798D01*
X98193081Y-75726073D01*
X98184458Y-75714447D01*
X98177017Y-75702031D01*
X98170828Y-75688946D01*
X98165951Y-75675317D01*
X98162434Y-75661276D01*
X98160310Y-75646958D01*
X98159600Y-75632500D01*
X98159600Y-75337500D01*
X98160310Y-75323042D01*
X98162434Y-75308724D01*
X98165951Y-75294683D01*
X98170828Y-75281054D01*
X98177017Y-75267969D01*
X98184458Y-75255553D01*
X98193081Y-75243927D01*
X98202802Y-75233202D01*
X98213527Y-75223481D01*
X98225153Y-75214858D01*
X98237569Y-75207417D01*
X98250654Y-75201228D01*
X98264283Y-75196351D01*
X98278324Y-75192834D01*
X98292642Y-75190710D01*
X98307100Y-75190000D01*
X98652100Y-75190000D01*
X98666558Y-75190710D01*
X98666558Y-75190710D01*
G37*
D11*
X98479600Y-75485000D03*
D10*
G36*
X98666558Y-74220710D02*
X98680876Y-74222834D01*
X98694917Y-74226351D01*
X98708546Y-74231228D01*
X98721631Y-74237417D01*
X98734047Y-74244858D01*
X98745673Y-74253481D01*
X98756398Y-74263202D01*
X98766119Y-74273927D01*
X98774742Y-74285553D01*
X98782183Y-74297969D01*
X98788372Y-74311054D01*
X98793249Y-74324683D01*
X98796766Y-74338724D01*
X98798890Y-74353042D01*
X98799600Y-74367500D01*
X98799600Y-74662500D01*
X98798890Y-74676958D01*
X98796766Y-74691276D01*
X98793249Y-74705317D01*
X98788372Y-74718946D01*
X98782183Y-74732031D01*
X98774742Y-74744447D01*
X98766119Y-74756073D01*
X98756398Y-74766798D01*
X98745673Y-74776519D01*
X98734047Y-74785142D01*
X98721631Y-74792583D01*
X98708546Y-74798772D01*
X98694917Y-74803649D01*
X98680876Y-74807166D01*
X98666558Y-74809290D01*
X98652100Y-74810000D01*
X98307100Y-74810000D01*
X98292642Y-74809290D01*
X98278324Y-74807166D01*
X98264283Y-74803649D01*
X98250654Y-74798772D01*
X98237569Y-74792583D01*
X98225153Y-74785142D01*
X98213527Y-74776519D01*
X98202802Y-74766798D01*
X98193081Y-74756073D01*
X98184458Y-74744447D01*
X98177017Y-74732031D01*
X98170828Y-74718946D01*
X98165951Y-74705317D01*
X98162434Y-74691276D01*
X98160310Y-74676958D01*
X98159600Y-74662500D01*
X98159600Y-74367500D01*
X98160310Y-74353042D01*
X98162434Y-74338724D01*
X98165951Y-74324683D01*
X98170828Y-74311054D01*
X98177017Y-74297969D01*
X98184458Y-74285553D01*
X98193081Y-74273927D01*
X98202802Y-74263202D01*
X98213527Y-74253481D01*
X98225153Y-74244858D01*
X98237569Y-74237417D01*
X98250654Y-74231228D01*
X98264283Y-74226351D01*
X98278324Y-74222834D01*
X98292642Y-74220710D01*
X98307100Y-74220000D01*
X98652100Y-74220000D01*
X98666558Y-74220710D01*
X98666558Y-74220710D01*
G37*
D11*
X98479600Y-74515000D03*
G04 #@! TD*
D10*
G04 #@! TO.C,C10*
G36*
X100646958Y-81480710D02*
X100661276Y-81482834D01*
X100675317Y-81486351D01*
X100688946Y-81491228D01*
X100702031Y-81497417D01*
X100714447Y-81504858D01*
X100726073Y-81513481D01*
X100736798Y-81523202D01*
X100746519Y-81533927D01*
X100755142Y-81545553D01*
X100762583Y-81557969D01*
X100768772Y-81571054D01*
X100773649Y-81584683D01*
X100777166Y-81598724D01*
X100779290Y-81613042D01*
X100780000Y-81627500D01*
X100780000Y-81972500D01*
X100779290Y-81986958D01*
X100777166Y-82001276D01*
X100773649Y-82015317D01*
X100768772Y-82028946D01*
X100762583Y-82042031D01*
X100755142Y-82054447D01*
X100746519Y-82066073D01*
X100736798Y-82076798D01*
X100726073Y-82086519D01*
X100714447Y-82095142D01*
X100702031Y-82102583D01*
X100688946Y-82108772D01*
X100675317Y-82113649D01*
X100661276Y-82117166D01*
X100646958Y-82119290D01*
X100632500Y-82120000D01*
X100337500Y-82120000D01*
X100323042Y-82119290D01*
X100308724Y-82117166D01*
X100294683Y-82113649D01*
X100281054Y-82108772D01*
X100267969Y-82102583D01*
X100255553Y-82095142D01*
X100243927Y-82086519D01*
X100233202Y-82076798D01*
X100223481Y-82066073D01*
X100214858Y-82054447D01*
X100207417Y-82042031D01*
X100201228Y-82028946D01*
X100196351Y-82015317D01*
X100192834Y-82001276D01*
X100190710Y-81986958D01*
X100190000Y-81972500D01*
X100190000Y-81627500D01*
X100190710Y-81613042D01*
X100192834Y-81598724D01*
X100196351Y-81584683D01*
X100201228Y-81571054D01*
X100207417Y-81557969D01*
X100214858Y-81545553D01*
X100223481Y-81533927D01*
X100233202Y-81523202D01*
X100243927Y-81513481D01*
X100255553Y-81504858D01*
X100267969Y-81497417D01*
X100281054Y-81491228D01*
X100294683Y-81486351D01*
X100308724Y-81482834D01*
X100323042Y-81480710D01*
X100337500Y-81480000D01*
X100632500Y-81480000D01*
X100646958Y-81480710D01*
X100646958Y-81480710D01*
G37*
D11*
X100485000Y-81800000D03*
D10*
G36*
X99676958Y-81480710D02*
X99691276Y-81482834D01*
X99705317Y-81486351D01*
X99718946Y-81491228D01*
X99732031Y-81497417D01*
X99744447Y-81504858D01*
X99756073Y-81513481D01*
X99766798Y-81523202D01*
X99776519Y-81533927D01*
X99785142Y-81545553D01*
X99792583Y-81557969D01*
X99798772Y-81571054D01*
X99803649Y-81584683D01*
X99807166Y-81598724D01*
X99809290Y-81613042D01*
X99810000Y-81627500D01*
X99810000Y-81972500D01*
X99809290Y-81986958D01*
X99807166Y-82001276D01*
X99803649Y-82015317D01*
X99798772Y-82028946D01*
X99792583Y-82042031D01*
X99785142Y-82054447D01*
X99776519Y-82066073D01*
X99766798Y-82076798D01*
X99756073Y-82086519D01*
X99744447Y-82095142D01*
X99732031Y-82102583D01*
X99718946Y-82108772D01*
X99705317Y-82113649D01*
X99691276Y-82117166D01*
X99676958Y-82119290D01*
X99662500Y-82120000D01*
X99367500Y-82120000D01*
X99353042Y-82119290D01*
X99338724Y-82117166D01*
X99324683Y-82113649D01*
X99311054Y-82108772D01*
X99297969Y-82102583D01*
X99285553Y-82095142D01*
X99273927Y-82086519D01*
X99263202Y-82076798D01*
X99253481Y-82066073D01*
X99244858Y-82054447D01*
X99237417Y-82042031D01*
X99231228Y-82028946D01*
X99226351Y-82015317D01*
X99222834Y-82001276D01*
X99220710Y-81986958D01*
X99220000Y-81972500D01*
X99220000Y-81627500D01*
X99220710Y-81613042D01*
X99222834Y-81598724D01*
X99226351Y-81584683D01*
X99231228Y-81571054D01*
X99237417Y-81557969D01*
X99244858Y-81545553D01*
X99253481Y-81533927D01*
X99263202Y-81523202D01*
X99273927Y-81513481D01*
X99285553Y-81504858D01*
X99297969Y-81497417D01*
X99311054Y-81491228D01*
X99324683Y-81486351D01*
X99338724Y-81482834D01*
X99353042Y-81480710D01*
X99367500Y-81480000D01*
X99662500Y-81480000D01*
X99676958Y-81480710D01*
X99676958Y-81480710D01*
G37*
D11*
X99515000Y-81800000D03*
G04 #@! TD*
D10*
G04 #@! TO.C,R1*
G36*
X99676958Y-82480710D02*
X99691276Y-82482834D01*
X99705317Y-82486351D01*
X99718946Y-82491228D01*
X99732031Y-82497417D01*
X99744447Y-82504858D01*
X99756073Y-82513481D01*
X99766798Y-82523202D01*
X99776519Y-82533927D01*
X99785142Y-82545553D01*
X99792583Y-82557969D01*
X99798772Y-82571054D01*
X99803649Y-82584683D01*
X99807166Y-82598724D01*
X99809290Y-82613042D01*
X99810000Y-82627500D01*
X99810000Y-82972500D01*
X99809290Y-82986958D01*
X99807166Y-83001276D01*
X99803649Y-83015317D01*
X99798772Y-83028946D01*
X99792583Y-83042031D01*
X99785142Y-83054447D01*
X99776519Y-83066073D01*
X99766798Y-83076798D01*
X99756073Y-83086519D01*
X99744447Y-83095142D01*
X99732031Y-83102583D01*
X99718946Y-83108772D01*
X99705317Y-83113649D01*
X99691276Y-83117166D01*
X99676958Y-83119290D01*
X99662500Y-83120000D01*
X99367500Y-83120000D01*
X99353042Y-83119290D01*
X99338724Y-83117166D01*
X99324683Y-83113649D01*
X99311054Y-83108772D01*
X99297969Y-83102583D01*
X99285553Y-83095142D01*
X99273927Y-83086519D01*
X99263202Y-83076798D01*
X99253481Y-83066073D01*
X99244858Y-83054447D01*
X99237417Y-83042031D01*
X99231228Y-83028946D01*
X99226351Y-83015317D01*
X99222834Y-83001276D01*
X99220710Y-82986958D01*
X99220000Y-82972500D01*
X99220000Y-82627500D01*
X99220710Y-82613042D01*
X99222834Y-82598724D01*
X99226351Y-82584683D01*
X99231228Y-82571054D01*
X99237417Y-82557969D01*
X99244858Y-82545553D01*
X99253481Y-82533927D01*
X99263202Y-82523202D01*
X99273927Y-82513481D01*
X99285553Y-82504858D01*
X99297969Y-82497417D01*
X99311054Y-82491228D01*
X99324683Y-82486351D01*
X99338724Y-82482834D01*
X99353042Y-82480710D01*
X99367500Y-82480000D01*
X99662500Y-82480000D01*
X99676958Y-82480710D01*
X99676958Y-82480710D01*
G37*
D11*
X99515000Y-82800000D03*
D10*
G36*
X100646958Y-82480710D02*
X100661276Y-82482834D01*
X100675317Y-82486351D01*
X100688946Y-82491228D01*
X100702031Y-82497417D01*
X100714447Y-82504858D01*
X100726073Y-82513481D01*
X100736798Y-82523202D01*
X100746519Y-82533927D01*
X100755142Y-82545553D01*
X100762583Y-82557969D01*
X100768772Y-82571054D01*
X100773649Y-82584683D01*
X100777166Y-82598724D01*
X100779290Y-82613042D01*
X100780000Y-82627500D01*
X100780000Y-82972500D01*
X100779290Y-82986958D01*
X100777166Y-83001276D01*
X100773649Y-83015317D01*
X100768772Y-83028946D01*
X100762583Y-83042031D01*
X100755142Y-83054447D01*
X100746519Y-83066073D01*
X100736798Y-83076798D01*
X100726073Y-83086519D01*
X100714447Y-83095142D01*
X100702031Y-83102583D01*
X100688946Y-83108772D01*
X100675317Y-83113649D01*
X100661276Y-83117166D01*
X100646958Y-83119290D01*
X100632500Y-83120000D01*
X100337500Y-83120000D01*
X100323042Y-83119290D01*
X100308724Y-83117166D01*
X100294683Y-83113649D01*
X100281054Y-83108772D01*
X100267969Y-83102583D01*
X100255553Y-83095142D01*
X100243927Y-83086519D01*
X100233202Y-83076798D01*
X100223481Y-83066073D01*
X100214858Y-83054447D01*
X100207417Y-83042031D01*
X100201228Y-83028946D01*
X100196351Y-83015317D01*
X100192834Y-83001276D01*
X100190710Y-82986958D01*
X100190000Y-82972500D01*
X100190000Y-82627500D01*
X100190710Y-82613042D01*
X100192834Y-82598724D01*
X100196351Y-82584683D01*
X100201228Y-82571054D01*
X100207417Y-82557969D01*
X100214858Y-82545553D01*
X100223481Y-82533927D01*
X100233202Y-82523202D01*
X100243927Y-82513481D01*
X100255553Y-82504858D01*
X100267969Y-82497417D01*
X100281054Y-82491228D01*
X100294683Y-82486351D01*
X100308724Y-82482834D01*
X100323042Y-82480710D01*
X100337500Y-82480000D01*
X100632500Y-82480000D01*
X100646958Y-82480710D01*
X100646958Y-82480710D01*
G37*
D11*
X100485000Y-82800000D03*
G04 #@! TD*
D10*
G04 #@! TO.C,R2*
G36*
X102086958Y-78520710D02*
X102101276Y-78522834D01*
X102115317Y-78526351D01*
X102128946Y-78531228D01*
X102142031Y-78537417D01*
X102154447Y-78544858D01*
X102166073Y-78553481D01*
X102176798Y-78563202D01*
X102186519Y-78573927D01*
X102195142Y-78585553D01*
X102202583Y-78597969D01*
X102208772Y-78611054D01*
X102213649Y-78624683D01*
X102217166Y-78638724D01*
X102219290Y-78653042D01*
X102220000Y-78667500D01*
X102220000Y-78962500D01*
X102219290Y-78976958D01*
X102217166Y-78991276D01*
X102213649Y-79005317D01*
X102208772Y-79018946D01*
X102202583Y-79032031D01*
X102195142Y-79044447D01*
X102186519Y-79056073D01*
X102176798Y-79066798D01*
X102166073Y-79076519D01*
X102154447Y-79085142D01*
X102142031Y-79092583D01*
X102128946Y-79098772D01*
X102115317Y-79103649D01*
X102101276Y-79107166D01*
X102086958Y-79109290D01*
X102072500Y-79110000D01*
X101727500Y-79110000D01*
X101713042Y-79109290D01*
X101698724Y-79107166D01*
X101684683Y-79103649D01*
X101671054Y-79098772D01*
X101657969Y-79092583D01*
X101645553Y-79085142D01*
X101633927Y-79076519D01*
X101623202Y-79066798D01*
X101613481Y-79056073D01*
X101604858Y-79044447D01*
X101597417Y-79032031D01*
X101591228Y-79018946D01*
X101586351Y-79005317D01*
X101582834Y-78991276D01*
X101580710Y-78976958D01*
X101580000Y-78962500D01*
X101580000Y-78667500D01*
X101580710Y-78653042D01*
X101582834Y-78638724D01*
X101586351Y-78624683D01*
X101591228Y-78611054D01*
X101597417Y-78597969D01*
X101604858Y-78585553D01*
X101613481Y-78573927D01*
X101623202Y-78563202D01*
X101633927Y-78553481D01*
X101645553Y-78544858D01*
X101657969Y-78537417D01*
X101671054Y-78531228D01*
X101684683Y-78526351D01*
X101698724Y-78522834D01*
X101713042Y-78520710D01*
X101727500Y-78520000D01*
X102072500Y-78520000D01*
X102086958Y-78520710D01*
X102086958Y-78520710D01*
G37*
D11*
X101900000Y-78815000D03*
D10*
G36*
X102086958Y-79490710D02*
X102101276Y-79492834D01*
X102115317Y-79496351D01*
X102128946Y-79501228D01*
X102142031Y-79507417D01*
X102154447Y-79514858D01*
X102166073Y-79523481D01*
X102176798Y-79533202D01*
X102186519Y-79543927D01*
X102195142Y-79555553D01*
X102202583Y-79567969D01*
X102208772Y-79581054D01*
X102213649Y-79594683D01*
X102217166Y-79608724D01*
X102219290Y-79623042D01*
X102220000Y-79637500D01*
X102220000Y-79932500D01*
X102219290Y-79946958D01*
X102217166Y-79961276D01*
X102213649Y-79975317D01*
X102208772Y-79988946D01*
X102202583Y-80002031D01*
X102195142Y-80014447D01*
X102186519Y-80026073D01*
X102176798Y-80036798D01*
X102166073Y-80046519D01*
X102154447Y-80055142D01*
X102142031Y-80062583D01*
X102128946Y-80068772D01*
X102115317Y-80073649D01*
X102101276Y-80077166D01*
X102086958Y-80079290D01*
X102072500Y-80080000D01*
X101727500Y-80080000D01*
X101713042Y-80079290D01*
X101698724Y-80077166D01*
X101684683Y-80073649D01*
X101671054Y-80068772D01*
X101657969Y-80062583D01*
X101645553Y-80055142D01*
X101633927Y-80046519D01*
X101623202Y-80036798D01*
X101613481Y-80026073D01*
X101604858Y-80014447D01*
X101597417Y-80002031D01*
X101591228Y-79988946D01*
X101586351Y-79975317D01*
X101582834Y-79961276D01*
X101580710Y-79946958D01*
X101580000Y-79932500D01*
X101580000Y-79637500D01*
X101580710Y-79623042D01*
X101582834Y-79608724D01*
X101586351Y-79594683D01*
X101591228Y-79581054D01*
X101597417Y-79567969D01*
X101604858Y-79555553D01*
X101613481Y-79543927D01*
X101623202Y-79533202D01*
X101633927Y-79523481D01*
X101645553Y-79514858D01*
X101657969Y-79507417D01*
X101671054Y-79501228D01*
X101684683Y-79496351D01*
X101698724Y-79492834D01*
X101713042Y-79490710D01*
X101727500Y-79490000D01*
X102072500Y-79490000D01*
X102086958Y-79490710D01*
X102086958Y-79490710D01*
G37*
D11*
X101900000Y-79785000D03*
G04 #@! TD*
D10*
G04 #@! TO.C,U3*
G36*
X100445586Y-76678397D02*
X100453595Y-76679585D01*
X100461448Y-76681552D01*
X100469071Y-76684280D01*
X100476390Y-76687741D01*
X100483335Y-76691904D01*
X100489837Y-76696727D01*
X100495836Y-76702164D01*
X100501273Y-76708163D01*
X100506096Y-76714665D01*
X100510259Y-76721610D01*
X100513720Y-76728929D01*
X100516448Y-76736552D01*
X100518415Y-76744405D01*
X100519603Y-76752414D01*
X100520000Y-76760500D01*
X100520000Y-76925500D01*
X100519603Y-76933586D01*
X100518415Y-76941595D01*
X100516448Y-76949448D01*
X100513720Y-76957071D01*
X100510259Y-76964390D01*
X100506096Y-76971335D01*
X100501273Y-76977837D01*
X100495836Y-76983836D01*
X100489837Y-76989273D01*
X100483335Y-76994096D01*
X100476390Y-76998259D01*
X100469071Y-77001720D01*
X100461448Y-77004448D01*
X100453595Y-77006415D01*
X100445586Y-77007603D01*
X100437500Y-77008000D01*
X100192500Y-77008000D01*
X100184414Y-77007603D01*
X100176405Y-77006415D01*
X100168552Y-77004448D01*
X100160929Y-77001720D01*
X100153610Y-76998259D01*
X100146665Y-76994096D01*
X100140163Y-76989273D01*
X100134164Y-76983836D01*
X100128727Y-76977837D01*
X100123904Y-76971335D01*
X100119741Y-76964390D01*
X100116280Y-76957071D01*
X100113552Y-76949448D01*
X100111585Y-76941595D01*
X100110397Y-76933586D01*
X100110000Y-76925500D01*
X100110000Y-76760500D01*
X100110397Y-76752414D01*
X100111585Y-76744405D01*
X100113552Y-76736552D01*
X100116280Y-76728929D01*
X100119741Y-76721610D01*
X100123904Y-76714665D01*
X100128727Y-76708163D01*
X100134164Y-76702164D01*
X100140163Y-76696727D01*
X100146665Y-76691904D01*
X100153610Y-76687741D01*
X100160929Y-76684280D01*
X100168552Y-76681552D01*
X100176405Y-76679585D01*
X100184414Y-76678397D01*
X100192500Y-76678000D01*
X100437500Y-76678000D01*
X100445586Y-76678397D01*
X100445586Y-76678397D01*
G37*
D12*
X100315000Y-76843000D03*
D10*
G36*
X101095586Y-76678397D02*
X101103595Y-76679585D01*
X101111448Y-76681552D01*
X101119071Y-76684280D01*
X101126390Y-76687741D01*
X101133335Y-76691904D01*
X101139837Y-76696727D01*
X101145836Y-76702164D01*
X101151273Y-76708163D01*
X101156096Y-76714665D01*
X101160259Y-76721610D01*
X101163720Y-76728929D01*
X101166448Y-76736552D01*
X101168415Y-76744405D01*
X101169603Y-76752414D01*
X101170000Y-76760500D01*
X101170000Y-76925500D01*
X101169603Y-76933586D01*
X101168415Y-76941595D01*
X101166448Y-76949448D01*
X101163720Y-76957071D01*
X101160259Y-76964390D01*
X101156096Y-76971335D01*
X101151273Y-76977837D01*
X101145836Y-76983836D01*
X101139837Y-76989273D01*
X101133335Y-76994096D01*
X101126390Y-76998259D01*
X101119071Y-77001720D01*
X101111448Y-77004448D01*
X101103595Y-77006415D01*
X101095586Y-77007603D01*
X101087500Y-77008000D01*
X100842500Y-77008000D01*
X100834414Y-77007603D01*
X100826405Y-77006415D01*
X100818552Y-77004448D01*
X100810929Y-77001720D01*
X100803610Y-76998259D01*
X100796665Y-76994096D01*
X100790163Y-76989273D01*
X100784164Y-76983836D01*
X100778727Y-76977837D01*
X100773904Y-76971335D01*
X100769741Y-76964390D01*
X100766280Y-76957071D01*
X100763552Y-76949448D01*
X100761585Y-76941595D01*
X100760397Y-76933586D01*
X100760000Y-76925500D01*
X100760000Y-76760500D01*
X100760397Y-76752414D01*
X100761585Y-76744405D01*
X100763552Y-76736552D01*
X100766280Y-76728929D01*
X100769741Y-76721610D01*
X100773904Y-76714665D01*
X100778727Y-76708163D01*
X100784164Y-76702164D01*
X100790163Y-76696727D01*
X100796665Y-76691904D01*
X100803610Y-76687741D01*
X100810929Y-76684280D01*
X100818552Y-76681552D01*
X100826405Y-76679585D01*
X100834414Y-76678397D01*
X100842500Y-76678000D01*
X101087500Y-76678000D01*
X101095586Y-76678397D01*
X101095586Y-76678397D01*
G37*
D12*
X100965000Y-76843000D03*
D10*
G36*
X101745586Y-76678397D02*
X101753595Y-76679585D01*
X101761448Y-76681552D01*
X101769071Y-76684280D01*
X101776390Y-76687741D01*
X101783335Y-76691904D01*
X101789837Y-76696727D01*
X101795836Y-76702164D01*
X101801273Y-76708163D01*
X101806096Y-76714665D01*
X101810259Y-76721610D01*
X101813720Y-76728929D01*
X101816448Y-76736552D01*
X101818415Y-76744405D01*
X101819603Y-76752414D01*
X101820000Y-76760500D01*
X101820000Y-76925500D01*
X101819603Y-76933586D01*
X101818415Y-76941595D01*
X101816448Y-76949448D01*
X101813720Y-76957071D01*
X101810259Y-76964390D01*
X101806096Y-76971335D01*
X101801273Y-76977837D01*
X101795836Y-76983836D01*
X101789837Y-76989273D01*
X101783335Y-76994096D01*
X101776390Y-76998259D01*
X101769071Y-77001720D01*
X101761448Y-77004448D01*
X101753595Y-77006415D01*
X101745586Y-77007603D01*
X101737500Y-77008000D01*
X101492500Y-77008000D01*
X101484414Y-77007603D01*
X101476405Y-77006415D01*
X101468552Y-77004448D01*
X101460929Y-77001720D01*
X101453610Y-76998259D01*
X101446665Y-76994096D01*
X101440163Y-76989273D01*
X101434164Y-76983836D01*
X101428727Y-76977837D01*
X101423904Y-76971335D01*
X101419741Y-76964390D01*
X101416280Y-76957071D01*
X101413552Y-76949448D01*
X101411585Y-76941595D01*
X101410397Y-76933586D01*
X101410000Y-76925500D01*
X101410000Y-76760500D01*
X101410397Y-76752414D01*
X101411585Y-76744405D01*
X101413552Y-76736552D01*
X101416280Y-76728929D01*
X101419741Y-76721610D01*
X101423904Y-76714665D01*
X101428727Y-76708163D01*
X101434164Y-76702164D01*
X101440163Y-76696727D01*
X101446665Y-76691904D01*
X101453610Y-76687741D01*
X101460929Y-76684280D01*
X101468552Y-76681552D01*
X101476405Y-76679585D01*
X101484414Y-76678397D01*
X101492500Y-76678000D01*
X101737500Y-76678000D01*
X101745586Y-76678397D01*
X101745586Y-76678397D01*
G37*
D12*
X101615000Y-76843000D03*
D10*
G36*
X101745586Y-77678397D02*
X101753595Y-77679585D01*
X101761448Y-77681552D01*
X101769071Y-77684280D01*
X101776390Y-77687741D01*
X101783335Y-77691904D01*
X101789837Y-77696727D01*
X101795836Y-77702164D01*
X101801273Y-77708163D01*
X101806096Y-77714665D01*
X101810259Y-77721610D01*
X101813720Y-77728929D01*
X101816448Y-77736552D01*
X101818415Y-77744405D01*
X101819603Y-77752414D01*
X101820000Y-77760500D01*
X101820000Y-77925500D01*
X101819603Y-77933586D01*
X101818415Y-77941595D01*
X101816448Y-77949448D01*
X101813720Y-77957071D01*
X101810259Y-77964390D01*
X101806096Y-77971335D01*
X101801273Y-77977837D01*
X101795836Y-77983836D01*
X101789837Y-77989273D01*
X101783335Y-77994096D01*
X101776390Y-77998259D01*
X101769071Y-78001720D01*
X101761448Y-78004448D01*
X101753595Y-78006415D01*
X101745586Y-78007603D01*
X101737500Y-78008000D01*
X101492500Y-78008000D01*
X101484414Y-78007603D01*
X101476405Y-78006415D01*
X101468552Y-78004448D01*
X101460929Y-78001720D01*
X101453610Y-77998259D01*
X101446665Y-77994096D01*
X101440163Y-77989273D01*
X101434164Y-77983836D01*
X101428727Y-77977837D01*
X101423904Y-77971335D01*
X101419741Y-77964390D01*
X101416280Y-77957071D01*
X101413552Y-77949448D01*
X101411585Y-77941595D01*
X101410397Y-77933586D01*
X101410000Y-77925500D01*
X101410000Y-77760500D01*
X101410397Y-77752414D01*
X101411585Y-77744405D01*
X101413552Y-77736552D01*
X101416280Y-77728929D01*
X101419741Y-77721610D01*
X101423904Y-77714665D01*
X101428727Y-77708163D01*
X101434164Y-77702164D01*
X101440163Y-77696727D01*
X101446665Y-77691904D01*
X101453610Y-77687741D01*
X101460929Y-77684280D01*
X101468552Y-77681552D01*
X101476405Y-77679585D01*
X101484414Y-77678397D01*
X101492500Y-77678000D01*
X101737500Y-77678000D01*
X101745586Y-77678397D01*
X101745586Y-77678397D01*
G37*
D12*
X101615000Y-77843000D03*
D10*
G36*
X101095586Y-77678397D02*
X101103595Y-77679585D01*
X101111448Y-77681552D01*
X101119071Y-77684280D01*
X101126390Y-77687741D01*
X101133335Y-77691904D01*
X101139837Y-77696727D01*
X101145836Y-77702164D01*
X101151273Y-77708163D01*
X101156096Y-77714665D01*
X101160259Y-77721610D01*
X101163720Y-77728929D01*
X101166448Y-77736552D01*
X101168415Y-77744405D01*
X101169603Y-77752414D01*
X101170000Y-77760500D01*
X101170000Y-77925500D01*
X101169603Y-77933586D01*
X101168415Y-77941595D01*
X101166448Y-77949448D01*
X101163720Y-77957071D01*
X101160259Y-77964390D01*
X101156096Y-77971335D01*
X101151273Y-77977837D01*
X101145836Y-77983836D01*
X101139837Y-77989273D01*
X101133335Y-77994096D01*
X101126390Y-77998259D01*
X101119071Y-78001720D01*
X101111448Y-78004448D01*
X101103595Y-78006415D01*
X101095586Y-78007603D01*
X101087500Y-78008000D01*
X100842500Y-78008000D01*
X100834414Y-78007603D01*
X100826405Y-78006415D01*
X100818552Y-78004448D01*
X100810929Y-78001720D01*
X100803610Y-77998259D01*
X100796665Y-77994096D01*
X100790163Y-77989273D01*
X100784164Y-77983836D01*
X100778727Y-77977837D01*
X100773904Y-77971335D01*
X100769741Y-77964390D01*
X100766280Y-77957071D01*
X100763552Y-77949448D01*
X100761585Y-77941595D01*
X100760397Y-77933586D01*
X100760000Y-77925500D01*
X100760000Y-77760500D01*
X100760397Y-77752414D01*
X100761585Y-77744405D01*
X100763552Y-77736552D01*
X100766280Y-77728929D01*
X100769741Y-77721610D01*
X100773904Y-77714665D01*
X100778727Y-77708163D01*
X100784164Y-77702164D01*
X100790163Y-77696727D01*
X100796665Y-77691904D01*
X100803610Y-77687741D01*
X100810929Y-77684280D01*
X100818552Y-77681552D01*
X100826405Y-77679585D01*
X100834414Y-77678397D01*
X100842500Y-77678000D01*
X101087500Y-77678000D01*
X101095586Y-77678397D01*
X101095586Y-77678397D01*
G37*
D12*
X100965000Y-77843000D03*
D10*
G36*
X100445586Y-77678397D02*
X100453595Y-77679585D01*
X100461448Y-77681552D01*
X100469071Y-77684280D01*
X100476390Y-77687741D01*
X100483335Y-77691904D01*
X100489837Y-77696727D01*
X100495836Y-77702164D01*
X100501273Y-77708163D01*
X100506096Y-77714665D01*
X100510259Y-77721610D01*
X100513720Y-77728929D01*
X100516448Y-77736552D01*
X100518415Y-77744405D01*
X100519603Y-77752414D01*
X100520000Y-77760500D01*
X100520000Y-77925500D01*
X100519603Y-77933586D01*
X100518415Y-77941595D01*
X100516448Y-77949448D01*
X100513720Y-77957071D01*
X100510259Y-77964390D01*
X100506096Y-77971335D01*
X100501273Y-77977837D01*
X100495836Y-77983836D01*
X100489837Y-77989273D01*
X100483335Y-77994096D01*
X100476390Y-77998259D01*
X100469071Y-78001720D01*
X100461448Y-78004448D01*
X100453595Y-78006415D01*
X100445586Y-78007603D01*
X100437500Y-78008000D01*
X100192500Y-78008000D01*
X100184414Y-78007603D01*
X100176405Y-78006415D01*
X100168552Y-78004448D01*
X100160929Y-78001720D01*
X100153610Y-77998259D01*
X100146665Y-77994096D01*
X100140163Y-77989273D01*
X100134164Y-77983836D01*
X100128727Y-77977837D01*
X100123904Y-77971335D01*
X100119741Y-77964390D01*
X100116280Y-77957071D01*
X100113552Y-77949448D01*
X100111585Y-77941595D01*
X100110397Y-77933586D01*
X100110000Y-77925500D01*
X100110000Y-77760500D01*
X100110397Y-77752414D01*
X100111585Y-77744405D01*
X100113552Y-77736552D01*
X100116280Y-77728929D01*
X100119741Y-77721610D01*
X100123904Y-77714665D01*
X100128727Y-77708163D01*
X100134164Y-77702164D01*
X100140163Y-77696727D01*
X100146665Y-77691904D01*
X100153610Y-77687741D01*
X100160929Y-77684280D01*
X100168552Y-77681552D01*
X100176405Y-77679585D01*
X100184414Y-77678397D01*
X100192500Y-77678000D01*
X100437500Y-77678000D01*
X100445586Y-77678397D01*
X100445586Y-77678397D01*
G37*
D12*
X100315000Y-77843000D03*
G04 #@! TD*
D10*
G04 #@! TO.C,U2*
G36*
X100096076Y-78575421D02*
X100104570Y-78576681D01*
X100112900Y-78578768D01*
X100120985Y-78581661D01*
X100128747Y-78585332D01*
X100136112Y-78589746D01*
X100143009Y-78594862D01*
X100149372Y-78600628D01*
X100155138Y-78606991D01*
X100160254Y-78613888D01*
X100164668Y-78621253D01*
X100168339Y-78629015D01*
X100171232Y-78637100D01*
X100173319Y-78645430D01*
X100174579Y-78653924D01*
X100175000Y-78662500D01*
X100175000Y-78987500D01*
X100174579Y-78996076D01*
X100173319Y-79004570D01*
X100171232Y-79012900D01*
X100168339Y-79020985D01*
X100164668Y-79028747D01*
X100160254Y-79036112D01*
X100155138Y-79043009D01*
X100149372Y-79049372D01*
X100143009Y-79055138D01*
X100136112Y-79060254D01*
X100128747Y-79064668D01*
X100120985Y-79068339D01*
X100112900Y-79071232D01*
X100104570Y-79073319D01*
X100096076Y-79074579D01*
X100087500Y-79075000D01*
X99912500Y-79075000D01*
X99903924Y-79074579D01*
X99895430Y-79073319D01*
X99887100Y-79071232D01*
X99879015Y-79068339D01*
X99871253Y-79064668D01*
X99863888Y-79060254D01*
X99856991Y-79055138D01*
X99850628Y-79049372D01*
X99844862Y-79043009D01*
X99839746Y-79036112D01*
X99835332Y-79028747D01*
X99831661Y-79020985D01*
X99828768Y-79012900D01*
X99826681Y-79004570D01*
X99825421Y-78996076D01*
X99825000Y-78987500D01*
X99825000Y-78662500D01*
X99825421Y-78653924D01*
X99826681Y-78645430D01*
X99828768Y-78637100D01*
X99831661Y-78629015D01*
X99835332Y-78621253D01*
X99839746Y-78613888D01*
X99844862Y-78606991D01*
X99850628Y-78600628D01*
X99856991Y-78594862D01*
X99863888Y-78589746D01*
X99871253Y-78585332D01*
X99879015Y-78581661D01*
X99887100Y-78578768D01*
X99895430Y-78576681D01*
X99903924Y-78575421D01*
X99912500Y-78575000D01*
X100087500Y-78575000D01*
X100096076Y-78575421D01*
X100096076Y-78575421D01*
G37*
D13*
X100000000Y-78825000D03*
D10*
G36*
X100971076Y-78975421D02*
X100979570Y-78976681D01*
X100987900Y-78978768D01*
X100995985Y-78981661D01*
X101003747Y-78985332D01*
X101011112Y-78989746D01*
X101018009Y-78994862D01*
X101024372Y-79000628D01*
X101030138Y-79006991D01*
X101035254Y-79013888D01*
X101039668Y-79021253D01*
X101043339Y-79029015D01*
X101046232Y-79037100D01*
X101048319Y-79045430D01*
X101049579Y-79053924D01*
X101050000Y-79062500D01*
X101050000Y-79237500D01*
X101049579Y-79246076D01*
X101048319Y-79254570D01*
X101046232Y-79262900D01*
X101043339Y-79270985D01*
X101039668Y-79278747D01*
X101035254Y-79286112D01*
X101030138Y-79293009D01*
X101024372Y-79299372D01*
X101018009Y-79305138D01*
X101011112Y-79310254D01*
X101003747Y-79314668D01*
X100995985Y-79318339D01*
X100987900Y-79321232D01*
X100979570Y-79323319D01*
X100971076Y-79324579D01*
X100962500Y-79325000D01*
X100637500Y-79325000D01*
X100628924Y-79324579D01*
X100620430Y-79323319D01*
X100612100Y-79321232D01*
X100604015Y-79318339D01*
X100596253Y-79314668D01*
X100588888Y-79310254D01*
X100581991Y-79305138D01*
X100575628Y-79299372D01*
X100569862Y-79293009D01*
X100564746Y-79286112D01*
X100560332Y-79278747D01*
X100556661Y-79270985D01*
X100553768Y-79262900D01*
X100551681Y-79254570D01*
X100550421Y-79246076D01*
X100550000Y-79237500D01*
X100550000Y-79062500D01*
X100550421Y-79053924D01*
X100551681Y-79045430D01*
X100553768Y-79037100D01*
X100556661Y-79029015D01*
X100560332Y-79021253D01*
X100564746Y-79013888D01*
X100569862Y-79006991D01*
X100575628Y-79000628D01*
X100581991Y-78994862D01*
X100588888Y-78989746D01*
X100596253Y-78985332D01*
X100604015Y-78981661D01*
X100612100Y-78978768D01*
X100620430Y-78976681D01*
X100628924Y-78975421D01*
X100637500Y-78975000D01*
X100962500Y-78975000D01*
X100971076Y-78975421D01*
X100971076Y-78975421D01*
G37*
D13*
X100800000Y-79150000D03*
D10*
G36*
X100971076Y-79625421D02*
X100979570Y-79626681D01*
X100987900Y-79628768D01*
X100995985Y-79631661D01*
X101003747Y-79635332D01*
X101011112Y-79639746D01*
X101018009Y-79644862D01*
X101024372Y-79650628D01*
X101030138Y-79656991D01*
X101035254Y-79663888D01*
X101039668Y-79671253D01*
X101043339Y-79679015D01*
X101046232Y-79687100D01*
X101048319Y-79695430D01*
X101049579Y-79703924D01*
X101050000Y-79712500D01*
X101050000Y-79887500D01*
X101049579Y-79896076D01*
X101048319Y-79904570D01*
X101046232Y-79912900D01*
X101043339Y-79920985D01*
X101039668Y-79928747D01*
X101035254Y-79936112D01*
X101030138Y-79943009D01*
X101024372Y-79949372D01*
X101018009Y-79955138D01*
X101011112Y-79960254D01*
X101003747Y-79964668D01*
X100995985Y-79968339D01*
X100987900Y-79971232D01*
X100979570Y-79973319D01*
X100971076Y-79974579D01*
X100962500Y-79975000D01*
X100637500Y-79975000D01*
X100628924Y-79974579D01*
X100620430Y-79973319D01*
X100612100Y-79971232D01*
X100604015Y-79968339D01*
X100596253Y-79964668D01*
X100588888Y-79960254D01*
X100581991Y-79955138D01*
X100575628Y-79949372D01*
X100569862Y-79943009D01*
X100564746Y-79936112D01*
X100560332Y-79928747D01*
X100556661Y-79920985D01*
X100553768Y-79912900D01*
X100551681Y-79904570D01*
X100550421Y-79896076D01*
X100550000Y-79887500D01*
X100550000Y-79712500D01*
X100550421Y-79703924D01*
X100551681Y-79695430D01*
X100553768Y-79687100D01*
X100556661Y-79679015D01*
X100560332Y-79671253D01*
X100564746Y-79663888D01*
X100569862Y-79656991D01*
X100575628Y-79650628D01*
X100581991Y-79644862D01*
X100588888Y-79639746D01*
X100596253Y-79635332D01*
X100604015Y-79631661D01*
X100612100Y-79628768D01*
X100620430Y-79626681D01*
X100628924Y-79625421D01*
X100637500Y-79625000D01*
X100962500Y-79625000D01*
X100971076Y-79625421D01*
X100971076Y-79625421D01*
G37*
D13*
X100800000Y-79800000D03*
D10*
G36*
X100971076Y-80275421D02*
X100979570Y-80276681D01*
X100987900Y-80278768D01*
X100995985Y-80281661D01*
X101003747Y-80285332D01*
X101011112Y-80289746D01*
X101018009Y-80294862D01*
X101024372Y-80300628D01*
X101030138Y-80306991D01*
X101035254Y-80313888D01*
X101039668Y-80321253D01*
X101043339Y-80329015D01*
X101046232Y-80337100D01*
X101048319Y-80345430D01*
X101049579Y-80353924D01*
X101050000Y-80362500D01*
X101050000Y-80537500D01*
X101049579Y-80546076D01*
X101048319Y-80554570D01*
X101046232Y-80562900D01*
X101043339Y-80570985D01*
X101039668Y-80578747D01*
X101035254Y-80586112D01*
X101030138Y-80593009D01*
X101024372Y-80599372D01*
X101018009Y-80605138D01*
X101011112Y-80610254D01*
X101003747Y-80614668D01*
X100995985Y-80618339D01*
X100987900Y-80621232D01*
X100979570Y-80623319D01*
X100971076Y-80624579D01*
X100962500Y-80625000D01*
X100637500Y-80625000D01*
X100628924Y-80624579D01*
X100620430Y-80623319D01*
X100612100Y-80621232D01*
X100604015Y-80618339D01*
X100596253Y-80614668D01*
X100588888Y-80610254D01*
X100581991Y-80605138D01*
X100575628Y-80599372D01*
X100569862Y-80593009D01*
X100564746Y-80586112D01*
X100560332Y-80578747D01*
X100556661Y-80570985D01*
X100553768Y-80562900D01*
X100551681Y-80554570D01*
X100550421Y-80546076D01*
X100550000Y-80537500D01*
X100550000Y-80362500D01*
X100550421Y-80353924D01*
X100551681Y-80345430D01*
X100553768Y-80337100D01*
X100556661Y-80329015D01*
X100560332Y-80321253D01*
X100564746Y-80313888D01*
X100569862Y-80306991D01*
X100575628Y-80300628D01*
X100581991Y-80294862D01*
X100588888Y-80289746D01*
X100596253Y-80285332D01*
X100604015Y-80281661D01*
X100612100Y-80278768D01*
X100620430Y-80276681D01*
X100628924Y-80275421D01*
X100637500Y-80275000D01*
X100962500Y-80275000D01*
X100971076Y-80275421D01*
X100971076Y-80275421D01*
G37*
D13*
X100800000Y-80450000D03*
D10*
G36*
X100096076Y-80525421D02*
X100104570Y-80526681D01*
X100112900Y-80528768D01*
X100120985Y-80531661D01*
X100128747Y-80535332D01*
X100136112Y-80539746D01*
X100143009Y-80544862D01*
X100149372Y-80550628D01*
X100155138Y-80556991D01*
X100160254Y-80563888D01*
X100164668Y-80571253D01*
X100168339Y-80579015D01*
X100171232Y-80587100D01*
X100173319Y-80595430D01*
X100174579Y-80603924D01*
X100175000Y-80612500D01*
X100175000Y-80937500D01*
X100174579Y-80946076D01*
X100173319Y-80954570D01*
X100171232Y-80962900D01*
X100168339Y-80970985D01*
X100164668Y-80978747D01*
X100160254Y-80986112D01*
X100155138Y-80993009D01*
X100149372Y-80999372D01*
X100143009Y-81005138D01*
X100136112Y-81010254D01*
X100128747Y-81014668D01*
X100120985Y-81018339D01*
X100112900Y-81021232D01*
X100104570Y-81023319D01*
X100096076Y-81024579D01*
X100087500Y-81025000D01*
X99912500Y-81025000D01*
X99903924Y-81024579D01*
X99895430Y-81023319D01*
X99887100Y-81021232D01*
X99879015Y-81018339D01*
X99871253Y-81014668D01*
X99863888Y-81010254D01*
X99856991Y-81005138D01*
X99850628Y-80999372D01*
X99844862Y-80993009D01*
X99839746Y-80986112D01*
X99835332Y-80978747D01*
X99831661Y-80970985D01*
X99828768Y-80962900D01*
X99826681Y-80954570D01*
X99825421Y-80946076D01*
X99825000Y-80937500D01*
X99825000Y-80612500D01*
X99825421Y-80603924D01*
X99826681Y-80595430D01*
X99828768Y-80587100D01*
X99831661Y-80579015D01*
X99835332Y-80571253D01*
X99839746Y-80563888D01*
X99844862Y-80556991D01*
X99850628Y-80550628D01*
X99856991Y-80544862D01*
X99863888Y-80539746D01*
X99871253Y-80535332D01*
X99879015Y-80531661D01*
X99887100Y-80528768D01*
X99895430Y-80526681D01*
X99903924Y-80525421D01*
X99912500Y-80525000D01*
X100087500Y-80525000D01*
X100096076Y-80525421D01*
X100096076Y-80525421D01*
G37*
D13*
X100000000Y-80775000D03*
D10*
G36*
X99371076Y-80275421D02*
X99379570Y-80276681D01*
X99387900Y-80278768D01*
X99395985Y-80281661D01*
X99403747Y-80285332D01*
X99411112Y-80289746D01*
X99418009Y-80294862D01*
X99424372Y-80300628D01*
X99430138Y-80306991D01*
X99435254Y-80313888D01*
X99439668Y-80321253D01*
X99443339Y-80329015D01*
X99446232Y-80337100D01*
X99448319Y-80345430D01*
X99449579Y-80353924D01*
X99450000Y-80362500D01*
X99450000Y-80537500D01*
X99449579Y-80546076D01*
X99448319Y-80554570D01*
X99446232Y-80562900D01*
X99443339Y-80570985D01*
X99439668Y-80578747D01*
X99435254Y-80586112D01*
X99430138Y-80593009D01*
X99424372Y-80599372D01*
X99418009Y-80605138D01*
X99411112Y-80610254D01*
X99403747Y-80614668D01*
X99395985Y-80618339D01*
X99387900Y-80621232D01*
X99379570Y-80623319D01*
X99371076Y-80624579D01*
X99362500Y-80625000D01*
X99037500Y-80625000D01*
X99028924Y-80624579D01*
X99020430Y-80623319D01*
X99012100Y-80621232D01*
X99004015Y-80618339D01*
X98996253Y-80614668D01*
X98988888Y-80610254D01*
X98981991Y-80605138D01*
X98975628Y-80599372D01*
X98969862Y-80593009D01*
X98964746Y-80586112D01*
X98960332Y-80578747D01*
X98956661Y-80570985D01*
X98953768Y-80562900D01*
X98951681Y-80554570D01*
X98950421Y-80546076D01*
X98950000Y-80537500D01*
X98950000Y-80362500D01*
X98950421Y-80353924D01*
X98951681Y-80345430D01*
X98953768Y-80337100D01*
X98956661Y-80329015D01*
X98960332Y-80321253D01*
X98964746Y-80313888D01*
X98969862Y-80306991D01*
X98975628Y-80300628D01*
X98981991Y-80294862D01*
X98988888Y-80289746D01*
X98996253Y-80285332D01*
X99004015Y-80281661D01*
X99012100Y-80278768D01*
X99020430Y-80276681D01*
X99028924Y-80275421D01*
X99037500Y-80275000D01*
X99362500Y-80275000D01*
X99371076Y-80275421D01*
X99371076Y-80275421D01*
G37*
D13*
X99200000Y-80450000D03*
D10*
G36*
X99371076Y-79625421D02*
X99379570Y-79626681D01*
X99387900Y-79628768D01*
X99395985Y-79631661D01*
X99403747Y-79635332D01*
X99411112Y-79639746D01*
X99418009Y-79644862D01*
X99424372Y-79650628D01*
X99430138Y-79656991D01*
X99435254Y-79663888D01*
X99439668Y-79671253D01*
X99443339Y-79679015D01*
X99446232Y-79687100D01*
X99448319Y-79695430D01*
X99449579Y-79703924D01*
X99450000Y-79712500D01*
X99450000Y-79887500D01*
X99449579Y-79896076D01*
X99448319Y-79904570D01*
X99446232Y-79912900D01*
X99443339Y-79920985D01*
X99439668Y-79928747D01*
X99435254Y-79936112D01*
X99430138Y-79943009D01*
X99424372Y-79949372D01*
X99418009Y-79955138D01*
X99411112Y-79960254D01*
X99403747Y-79964668D01*
X99395985Y-79968339D01*
X99387900Y-79971232D01*
X99379570Y-79973319D01*
X99371076Y-79974579D01*
X99362500Y-79975000D01*
X99037500Y-79975000D01*
X99028924Y-79974579D01*
X99020430Y-79973319D01*
X99012100Y-79971232D01*
X99004015Y-79968339D01*
X98996253Y-79964668D01*
X98988888Y-79960254D01*
X98981991Y-79955138D01*
X98975628Y-79949372D01*
X98969862Y-79943009D01*
X98964746Y-79936112D01*
X98960332Y-79928747D01*
X98956661Y-79920985D01*
X98953768Y-79912900D01*
X98951681Y-79904570D01*
X98950421Y-79896076D01*
X98950000Y-79887500D01*
X98950000Y-79712500D01*
X98950421Y-79703924D01*
X98951681Y-79695430D01*
X98953768Y-79687100D01*
X98956661Y-79679015D01*
X98960332Y-79671253D01*
X98964746Y-79663888D01*
X98969862Y-79656991D01*
X98975628Y-79650628D01*
X98981991Y-79644862D01*
X98988888Y-79639746D01*
X98996253Y-79635332D01*
X99004015Y-79631661D01*
X99012100Y-79628768D01*
X99020430Y-79626681D01*
X99028924Y-79625421D01*
X99037500Y-79625000D01*
X99362500Y-79625000D01*
X99371076Y-79625421D01*
X99371076Y-79625421D01*
G37*
D13*
X99200000Y-79800000D03*
D10*
G36*
X99371076Y-78975421D02*
X99379570Y-78976681D01*
X99387900Y-78978768D01*
X99395985Y-78981661D01*
X99403747Y-78985332D01*
X99411112Y-78989746D01*
X99418009Y-78994862D01*
X99424372Y-79000628D01*
X99430138Y-79006991D01*
X99435254Y-79013888D01*
X99439668Y-79021253D01*
X99443339Y-79029015D01*
X99446232Y-79037100D01*
X99448319Y-79045430D01*
X99449579Y-79053924D01*
X99450000Y-79062500D01*
X99450000Y-79237500D01*
X99449579Y-79246076D01*
X99448319Y-79254570D01*
X99446232Y-79262900D01*
X99443339Y-79270985D01*
X99439668Y-79278747D01*
X99435254Y-79286112D01*
X99430138Y-79293009D01*
X99424372Y-79299372D01*
X99418009Y-79305138D01*
X99411112Y-79310254D01*
X99403747Y-79314668D01*
X99395985Y-79318339D01*
X99387900Y-79321232D01*
X99379570Y-79323319D01*
X99371076Y-79324579D01*
X99362500Y-79325000D01*
X99037500Y-79325000D01*
X99028924Y-79324579D01*
X99020430Y-79323319D01*
X99012100Y-79321232D01*
X99004015Y-79318339D01*
X98996253Y-79314668D01*
X98988888Y-79310254D01*
X98981991Y-79305138D01*
X98975628Y-79299372D01*
X98969862Y-79293009D01*
X98964746Y-79286112D01*
X98960332Y-79278747D01*
X98956661Y-79270985D01*
X98953768Y-79262900D01*
X98951681Y-79254570D01*
X98950421Y-79246076D01*
X98950000Y-79237500D01*
X98950000Y-79062500D01*
X98950421Y-79053924D01*
X98951681Y-79045430D01*
X98953768Y-79037100D01*
X98956661Y-79029015D01*
X98960332Y-79021253D01*
X98964746Y-79013888D01*
X98969862Y-79006991D01*
X98975628Y-79000628D01*
X98981991Y-78994862D01*
X98988888Y-78989746D01*
X98996253Y-78985332D01*
X99004015Y-78981661D01*
X99012100Y-78978768D01*
X99020430Y-78976681D01*
X99028924Y-78975421D01*
X99037500Y-78975000D01*
X99362500Y-78975000D01*
X99371076Y-78975421D01*
X99371076Y-78975421D01*
G37*
D13*
X99200000Y-79150000D03*
G04 #@! TD*
D10*
G04 #@! TO.C,Y2*
G36*
X101408329Y-74876023D02*
X101428957Y-74879083D01*
X101449185Y-74884150D01*
X101468820Y-74891176D01*
X101487672Y-74900092D01*
X101505559Y-74910813D01*
X101522309Y-74923235D01*
X101537760Y-74937240D01*
X101551765Y-74952691D01*
X101564187Y-74969441D01*
X101574908Y-74987328D01*
X101583824Y-75006180D01*
X101590850Y-75025815D01*
X101595917Y-75046043D01*
X101598977Y-75066671D01*
X101600000Y-75087500D01*
X101600000Y-75512500D01*
X101598977Y-75533329D01*
X101595917Y-75553957D01*
X101590850Y-75574185D01*
X101583824Y-75593820D01*
X101574908Y-75612672D01*
X101564187Y-75630559D01*
X101551765Y-75647309D01*
X101537760Y-75662760D01*
X101522309Y-75676765D01*
X101505559Y-75689187D01*
X101487672Y-75699908D01*
X101468820Y-75708824D01*
X101449185Y-75715850D01*
X101428957Y-75720917D01*
X101408329Y-75723977D01*
X101387500Y-75725000D01*
X100862500Y-75725000D01*
X100841671Y-75723977D01*
X100821043Y-75720917D01*
X100800815Y-75715850D01*
X100781180Y-75708824D01*
X100762328Y-75699908D01*
X100744441Y-75689187D01*
X100727691Y-75676765D01*
X100712240Y-75662760D01*
X100698235Y-75647309D01*
X100685813Y-75630559D01*
X100675092Y-75612672D01*
X100666176Y-75593820D01*
X100659150Y-75574185D01*
X100654083Y-75553957D01*
X100651023Y-75533329D01*
X100650000Y-75512500D01*
X100650000Y-75087500D01*
X100651023Y-75066671D01*
X100654083Y-75046043D01*
X100659150Y-75025815D01*
X100666176Y-75006180D01*
X100675092Y-74987328D01*
X100685813Y-74969441D01*
X100698235Y-74952691D01*
X100712240Y-74937240D01*
X100727691Y-74923235D01*
X100744441Y-74910813D01*
X100762328Y-74900092D01*
X100781180Y-74891176D01*
X100800815Y-74884150D01*
X100821043Y-74879083D01*
X100841671Y-74876023D01*
X100862500Y-74875000D01*
X101387500Y-74875000D01*
X101408329Y-74876023D01*
X101408329Y-74876023D01*
G37*
D14*
X101125000Y-75300000D03*
D10*
G36*
X99958329Y-74876023D02*
X99978957Y-74879083D01*
X99999185Y-74884150D01*
X100018820Y-74891176D01*
X100037672Y-74900092D01*
X100055559Y-74910813D01*
X100072309Y-74923235D01*
X100087760Y-74937240D01*
X100101765Y-74952691D01*
X100114187Y-74969441D01*
X100124908Y-74987328D01*
X100133824Y-75006180D01*
X100140850Y-75025815D01*
X100145917Y-75046043D01*
X100148977Y-75066671D01*
X100150000Y-75087500D01*
X100150000Y-75512500D01*
X100148977Y-75533329D01*
X100145917Y-75553957D01*
X100140850Y-75574185D01*
X100133824Y-75593820D01*
X100124908Y-75612672D01*
X100114187Y-75630559D01*
X100101765Y-75647309D01*
X100087760Y-75662760D01*
X100072309Y-75676765D01*
X100055559Y-75689187D01*
X100037672Y-75699908D01*
X100018820Y-75708824D01*
X99999185Y-75715850D01*
X99978957Y-75720917D01*
X99958329Y-75723977D01*
X99937500Y-75725000D01*
X99412500Y-75725000D01*
X99391671Y-75723977D01*
X99371043Y-75720917D01*
X99350815Y-75715850D01*
X99331180Y-75708824D01*
X99312328Y-75699908D01*
X99294441Y-75689187D01*
X99277691Y-75676765D01*
X99262240Y-75662760D01*
X99248235Y-75647309D01*
X99235813Y-75630559D01*
X99225092Y-75612672D01*
X99216176Y-75593820D01*
X99209150Y-75574185D01*
X99204083Y-75553957D01*
X99201023Y-75533329D01*
X99200000Y-75512500D01*
X99200000Y-75087500D01*
X99201023Y-75066671D01*
X99204083Y-75046043D01*
X99209150Y-75025815D01*
X99216176Y-75006180D01*
X99225092Y-74987328D01*
X99235813Y-74969441D01*
X99248235Y-74952691D01*
X99262240Y-74937240D01*
X99277691Y-74923235D01*
X99294441Y-74910813D01*
X99312328Y-74900092D01*
X99331180Y-74891176D01*
X99350815Y-74884150D01*
X99371043Y-74879083D01*
X99391671Y-74876023D01*
X99412500Y-74875000D01*
X99937500Y-74875000D01*
X99958329Y-74876023D01*
X99958329Y-74876023D01*
G37*
D14*
X99675000Y-75300000D03*
D10*
G36*
X99958329Y-73726023D02*
X99978957Y-73729083D01*
X99999185Y-73734150D01*
X100018820Y-73741176D01*
X100037672Y-73750092D01*
X100055559Y-73760813D01*
X100072309Y-73773235D01*
X100087760Y-73787240D01*
X100101765Y-73802691D01*
X100114187Y-73819441D01*
X100124908Y-73837328D01*
X100133824Y-73856180D01*
X100140850Y-73875815D01*
X100145917Y-73896043D01*
X100148977Y-73916671D01*
X100150000Y-73937500D01*
X100150000Y-74362500D01*
X100148977Y-74383329D01*
X100145917Y-74403957D01*
X100140850Y-74424185D01*
X100133824Y-74443820D01*
X100124908Y-74462672D01*
X100114187Y-74480559D01*
X100101765Y-74497309D01*
X100087760Y-74512760D01*
X100072309Y-74526765D01*
X100055559Y-74539187D01*
X100037672Y-74549908D01*
X100018820Y-74558824D01*
X99999185Y-74565850D01*
X99978957Y-74570917D01*
X99958329Y-74573977D01*
X99937500Y-74575000D01*
X99412500Y-74575000D01*
X99391671Y-74573977D01*
X99371043Y-74570917D01*
X99350815Y-74565850D01*
X99331180Y-74558824D01*
X99312328Y-74549908D01*
X99294441Y-74539187D01*
X99277691Y-74526765D01*
X99262240Y-74512760D01*
X99248235Y-74497309D01*
X99235813Y-74480559D01*
X99225092Y-74462672D01*
X99216176Y-74443820D01*
X99209150Y-74424185D01*
X99204083Y-74403957D01*
X99201023Y-74383329D01*
X99200000Y-74362500D01*
X99200000Y-73937500D01*
X99201023Y-73916671D01*
X99204083Y-73896043D01*
X99209150Y-73875815D01*
X99216176Y-73856180D01*
X99225092Y-73837328D01*
X99235813Y-73819441D01*
X99248235Y-73802691D01*
X99262240Y-73787240D01*
X99277691Y-73773235D01*
X99294441Y-73760813D01*
X99312328Y-73750092D01*
X99331180Y-73741176D01*
X99350815Y-73734150D01*
X99371043Y-73729083D01*
X99391671Y-73726023D01*
X99412500Y-73725000D01*
X99937500Y-73725000D01*
X99958329Y-73726023D01*
X99958329Y-73726023D01*
G37*
D14*
X99675000Y-74150000D03*
D10*
G36*
X101408329Y-73726023D02*
X101428957Y-73729083D01*
X101449185Y-73734150D01*
X101468820Y-73741176D01*
X101487672Y-73750092D01*
X101505559Y-73760813D01*
X101522309Y-73773235D01*
X101537760Y-73787240D01*
X101551765Y-73802691D01*
X101564187Y-73819441D01*
X101574908Y-73837328D01*
X101583824Y-73856180D01*
X101590850Y-73875815D01*
X101595917Y-73896043D01*
X101598977Y-73916671D01*
X101600000Y-73937500D01*
X101600000Y-74362500D01*
X101598977Y-74383329D01*
X101595917Y-74403957D01*
X101590850Y-74424185D01*
X101583824Y-74443820D01*
X101574908Y-74462672D01*
X101564187Y-74480559D01*
X101551765Y-74497309D01*
X101537760Y-74512760D01*
X101522309Y-74526765D01*
X101505559Y-74539187D01*
X101487672Y-74549908D01*
X101468820Y-74558824D01*
X101449185Y-74565850D01*
X101428957Y-74570917D01*
X101408329Y-74573977D01*
X101387500Y-74575000D01*
X100862500Y-74575000D01*
X100841671Y-74573977D01*
X100821043Y-74570917D01*
X100800815Y-74565850D01*
X100781180Y-74558824D01*
X100762328Y-74549908D01*
X100744441Y-74539187D01*
X100727691Y-74526765D01*
X100712240Y-74512760D01*
X100698235Y-74497309D01*
X100685813Y-74480559D01*
X100675092Y-74462672D01*
X100666176Y-74443820D01*
X100659150Y-74424185D01*
X100654083Y-74403957D01*
X100651023Y-74383329D01*
X100650000Y-74362500D01*
X100650000Y-73937500D01*
X100651023Y-73916671D01*
X100654083Y-73896043D01*
X100659150Y-73875815D01*
X100666176Y-73856180D01*
X100675092Y-73837328D01*
X100685813Y-73819441D01*
X100698235Y-73802691D01*
X100712240Y-73787240D01*
X100727691Y-73773235D01*
X100744441Y-73760813D01*
X100762328Y-73750092D01*
X100781180Y-73741176D01*
X100800815Y-73734150D01*
X100821043Y-73729083D01*
X100841671Y-73726023D01*
X100862500Y-73725000D01*
X101387500Y-73725000D01*
X101408329Y-73726023D01*
X101408329Y-73726023D01*
G37*
D14*
X101125000Y-74150000D03*
G04 #@! TD*
D10*
G04 #@! TO.C,C4*
G36*
X115199958Y-79349710D02*
X115214276Y-79351834D01*
X115228317Y-79355351D01*
X115241946Y-79360228D01*
X115255031Y-79366417D01*
X115267447Y-79373858D01*
X115279073Y-79382481D01*
X115289798Y-79392202D01*
X115299519Y-79402927D01*
X115308142Y-79414553D01*
X115315583Y-79426969D01*
X115321772Y-79440054D01*
X115326649Y-79453683D01*
X115330166Y-79467724D01*
X115332290Y-79482042D01*
X115333000Y-79496500D01*
X115333000Y-79841500D01*
X115332290Y-79855958D01*
X115330166Y-79870276D01*
X115326649Y-79884317D01*
X115321772Y-79897946D01*
X115315583Y-79911031D01*
X115308142Y-79923447D01*
X115299519Y-79935073D01*
X115289798Y-79945798D01*
X115279073Y-79955519D01*
X115267447Y-79964142D01*
X115255031Y-79971583D01*
X115241946Y-79977772D01*
X115228317Y-79982649D01*
X115214276Y-79986166D01*
X115199958Y-79988290D01*
X115185500Y-79989000D01*
X114890500Y-79989000D01*
X114876042Y-79988290D01*
X114861724Y-79986166D01*
X114847683Y-79982649D01*
X114834054Y-79977772D01*
X114820969Y-79971583D01*
X114808553Y-79964142D01*
X114796927Y-79955519D01*
X114786202Y-79945798D01*
X114776481Y-79935073D01*
X114767858Y-79923447D01*
X114760417Y-79911031D01*
X114754228Y-79897946D01*
X114749351Y-79884317D01*
X114745834Y-79870276D01*
X114743710Y-79855958D01*
X114743000Y-79841500D01*
X114743000Y-79496500D01*
X114743710Y-79482042D01*
X114745834Y-79467724D01*
X114749351Y-79453683D01*
X114754228Y-79440054D01*
X114760417Y-79426969D01*
X114767858Y-79414553D01*
X114776481Y-79402927D01*
X114786202Y-79392202D01*
X114796927Y-79382481D01*
X114808553Y-79373858D01*
X114820969Y-79366417D01*
X114834054Y-79360228D01*
X114847683Y-79355351D01*
X114861724Y-79351834D01*
X114876042Y-79349710D01*
X114890500Y-79349000D01*
X115185500Y-79349000D01*
X115199958Y-79349710D01*
X115199958Y-79349710D01*
G37*
D11*
X115038000Y-79669000D03*
D10*
G36*
X116169958Y-79349710D02*
X116184276Y-79351834D01*
X116198317Y-79355351D01*
X116211946Y-79360228D01*
X116225031Y-79366417D01*
X116237447Y-79373858D01*
X116249073Y-79382481D01*
X116259798Y-79392202D01*
X116269519Y-79402927D01*
X116278142Y-79414553D01*
X116285583Y-79426969D01*
X116291772Y-79440054D01*
X116296649Y-79453683D01*
X116300166Y-79467724D01*
X116302290Y-79482042D01*
X116303000Y-79496500D01*
X116303000Y-79841500D01*
X116302290Y-79855958D01*
X116300166Y-79870276D01*
X116296649Y-79884317D01*
X116291772Y-79897946D01*
X116285583Y-79911031D01*
X116278142Y-79923447D01*
X116269519Y-79935073D01*
X116259798Y-79945798D01*
X116249073Y-79955519D01*
X116237447Y-79964142D01*
X116225031Y-79971583D01*
X116211946Y-79977772D01*
X116198317Y-79982649D01*
X116184276Y-79986166D01*
X116169958Y-79988290D01*
X116155500Y-79989000D01*
X115860500Y-79989000D01*
X115846042Y-79988290D01*
X115831724Y-79986166D01*
X115817683Y-79982649D01*
X115804054Y-79977772D01*
X115790969Y-79971583D01*
X115778553Y-79964142D01*
X115766927Y-79955519D01*
X115756202Y-79945798D01*
X115746481Y-79935073D01*
X115737858Y-79923447D01*
X115730417Y-79911031D01*
X115724228Y-79897946D01*
X115719351Y-79884317D01*
X115715834Y-79870276D01*
X115713710Y-79855958D01*
X115713000Y-79841500D01*
X115713000Y-79496500D01*
X115713710Y-79482042D01*
X115715834Y-79467724D01*
X115719351Y-79453683D01*
X115724228Y-79440054D01*
X115730417Y-79426969D01*
X115737858Y-79414553D01*
X115746481Y-79402927D01*
X115756202Y-79392202D01*
X115766927Y-79382481D01*
X115778553Y-79373858D01*
X115790969Y-79366417D01*
X115804054Y-79360228D01*
X115817683Y-79355351D01*
X115831724Y-79351834D01*
X115846042Y-79349710D01*
X115860500Y-79349000D01*
X116155500Y-79349000D01*
X116169958Y-79349710D01*
X116169958Y-79349710D01*
G37*
D11*
X116008000Y-79669000D03*
G04 #@! TD*
D15*
G04 #@! TO.C,U1*
X112075000Y-80750000D03*
X112075000Y-80250000D03*
X112075000Y-79750000D03*
X112075000Y-79250000D03*
X112075000Y-78750000D03*
X112075000Y-78250000D03*
X112075000Y-77750000D03*
X112075000Y-77250000D03*
X112075000Y-76750000D03*
X112075000Y-76250000D03*
X112075000Y-75750000D03*
X112075000Y-75250000D03*
X112075000Y-74750000D03*
X112075000Y-74250000D03*
X112075000Y-73750000D03*
X112075000Y-73250000D03*
D16*
X111350000Y-72525000D03*
X110850000Y-72525000D03*
X110350000Y-72525000D03*
X109850000Y-72525000D03*
X109350000Y-72525000D03*
X108850000Y-72525000D03*
X108350000Y-72525000D03*
X107850000Y-72525000D03*
X107350000Y-72525000D03*
X106850000Y-72525000D03*
X106350000Y-72525000D03*
X105850000Y-72525000D03*
X105350000Y-72525000D03*
X104850000Y-72525000D03*
X104350000Y-72525000D03*
X103850000Y-72525000D03*
D15*
X103125000Y-73250000D03*
X103125000Y-73750000D03*
X103125000Y-74250000D03*
X103125000Y-74750000D03*
X103125000Y-75250000D03*
X103125000Y-75750000D03*
X103125000Y-76250000D03*
X103125000Y-76750000D03*
X103125000Y-77250000D03*
X103125000Y-77750000D03*
X103125000Y-78250000D03*
X103125000Y-78750000D03*
X103125000Y-79250000D03*
X103125000Y-79750000D03*
X103125000Y-80250000D03*
X103125000Y-80750000D03*
D16*
X103850000Y-81475000D03*
X104350000Y-81475000D03*
X104850000Y-81475000D03*
X105350000Y-81475000D03*
X105850000Y-81475000D03*
X106350000Y-81475000D03*
X106850000Y-81475000D03*
X107350000Y-81475000D03*
X107850000Y-81475000D03*
X108350000Y-81475000D03*
X108850000Y-81475000D03*
X109350000Y-81475000D03*
X109850000Y-81475000D03*
X110350000Y-81475000D03*
X110850000Y-81475000D03*
X111350000Y-81475000D03*
D17*
X107600000Y-77000000D03*
G04 #@! TD*
M02*
