G04 #@! TF.GenerationSoftware,KiCad,Pcbnew,5.0.1*
G04 #@! TF.CreationDate,2019-01-01T17:00:48+00:00*
G04 #@! TF.ProjectId,goodwatch30,676F6F64776174636833302E6B696361,30*
G04 #@! TF.SameCoordinates,Original*
G04 #@! TF.FileFunction,Paste,Bot*
G04 #@! TF.FilePolarity,Positive*
%FSLAX46Y46*%
G04 Gerber Fmt 4.6, Leading zero omitted, Abs format (unit mm)*
G04 Created by KiCad (PCBNEW 5.0.1) date Tue 01 Jan 2019 05:00:48 PM UTC*
%MOMM*%
%LPD*%
G01*
G04 APERTURE LIST*
%ADD10C,0.100000*%
%ADD11C,0.590000*%
%ADD12R,1.050000X2.200000*%
%ADD13R,1.000000X1.000000*%
%ADD14R,1.000000X4.000000*%
%ADD15C,0.875000*%
%ADD16R,1.000000X1.800000*%
G04 APERTURE END LIST*
D10*
G04 #@! TO.C,C8*
G36*
X105076958Y-77180710D02*
X105091276Y-77182834D01*
X105105317Y-77186351D01*
X105118946Y-77191228D01*
X105132031Y-77197417D01*
X105144447Y-77204858D01*
X105156073Y-77213481D01*
X105166798Y-77223202D01*
X105176519Y-77233927D01*
X105185142Y-77245553D01*
X105192583Y-77257969D01*
X105198772Y-77271054D01*
X105203649Y-77284683D01*
X105207166Y-77298724D01*
X105209290Y-77313042D01*
X105210000Y-77327500D01*
X105210000Y-77672500D01*
X105209290Y-77686958D01*
X105207166Y-77701276D01*
X105203649Y-77715317D01*
X105198772Y-77728946D01*
X105192583Y-77742031D01*
X105185142Y-77754447D01*
X105176519Y-77766073D01*
X105166798Y-77776798D01*
X105156073Y-77786519D01*
X105144447Y-77795142D01*
X105132031Y-77802583D01*
X105118946Y-77808772D01*
X105105317Y-77813649D01*
X105091276Y-77817166D01*
X105076958Y-77819290D01*
X105062500Y-77820000D01*
X104767500Y-77820000D01*
X104753042Y-77819290D01*
X104738724Y-77817166D01*
X104724683Y-77813649D01*
X104711054Y-77808772D01*
X104697969Y-77802583D01*
X104685553Y-77795142D01*
X104673927Y-77786519D01*
X104663202Y-77776798D01*
X104653481Y-77766073D01*
X104644858Y-77754447D01*
X104637417Y-77742031D01*
X104631228Y-77728946D01*
X104626351Y-77715317D01*
X104622834Y-77701276D01*
X104620710Y-77686958D01*
X104620000Y-77672500D01*
X104620000Y-77327500D01*
X104620710Y-77313042D01*
X104622834Y-77298724D01*
X104626351Y-77284683D01*
X104631228Y-77271054D01*
X104637417Y-77257969D01*
X104644858Y-77245553D01*
X104653481Y-77233927D01*
X104663202Y-77223202D01*
X104673927Y-77213481D01*
X104685553Y-77204858D01*
X104697969Y-77197417D01*
X104711054Y-77191228D01*
X104724683Y-77186351D01*
X104738724Y-77182834D01*
X104753042Y-77180710D01*
X104767500Y-77180000D01*
X105062500Y-77180000D01*
X105076958Y-77180710D01*
X105076958Y-77180710D01*
G37*
D11*
X104915000Y-77500000D03*
D10*
G36*
X106046958Y-77180710D02*
X106061276Y-77182834D01*
X106075317Y-77186351D01*
X106088946Y-77191228D01*
X106102031Y-77197417D01*
X106114447Y-77204858D01*
X106126073Y-77213481D01*
X106136798Y-77223202D01*
X106146519Y-77233927D01*
X106155142Y-77245553D01*
X106162583Y-77257969D01*
X106168772Y-77271054D01*
X106173649Y-77284683D01*
X106177166Y-77298724D01*
X106179290Y-77313042D01*
X106180000Y-77327500D01*
X106180000Y-77672500D01*
X106179290Y-77686958D01*
X106177166Y-77701276D01*
X106173649Y-77715317D01*
X106168772Y-77728946D01*
X106162583Y-77742031D01*
X106155142Y-77754447D01*
X106146519Y-77766073D01*
X106136798Y-77776798D01*
X106126073Y-77786519D01*
X106114447Y-77795142D01*
X106102031Y-77802583D01*
X106088946Y-77808772D01*
X106075317Y-77813649D01*
X106061276Y-77817166D01*
X106046958Y-77819290D01*
X106032500Y-77820000D01*
X105737500Y-77820000D01*
X105723042Y-77819290D01*
X105708724Y-77817166D01*
X105694683Y-77813649D01*
X105681054Y-77808772D01*
X105667969Y-77802583D01*
X105655553Y-77795142D01*
X105643927Y-77786519D01*
X105633202Y-77776798D01*
X105623481Y-77766073D01*
X105614858Y-77754447D01*
X105607417Y-77742031D01*
X105601228Y-77728946D01*
X105596351Y-77715317D01*
X105592834Y-77701276D01*
X105590710Y-77686958D01*
X105590000Y-77672500D01*
X105590000Y-77327500D01*
X105590710Y-77313042D01*
X105592834Y-77298724D01*
X105596351Y-77284683D01*
X105601228Y-77271054D01*
X105607417Y-77257969D01*
X105614858Y-77245553D01*
X105623481Y-77233927D01*
X105633202Y-77223202D01*
X105643927Y-77213481D01*
X105655553Y-77204858D01*
X105667969Y-77197417D01*
X105681054Y-77191228D01*
X105694683Y-77186351D01*
X105708724Y-77182834D01*
X105723042Y-77180710D01*
X105737500Y-77180000D01*
X106032500Y-77180000D01*
X106046958Y-77180710D01*
X106046958Y-77180710D01*
G37*
D11*
X105885000Y-77500000D03*
G04 #@! TD*
D10*
G04 #@! TO.C,C9*
G36*
X106046958Y-75180710D02*
X106061276Y-75182834D01*
X106075317Y-75186351D01*
X106088946Y-75191228D01*
X106102031Y-75197417D01*
X106114447Y-75204858D01*
X106126073Y-75213481D01*
X106136798Y-75223202D01*
X106146519Y-75233927D01*
X106155142Y-75245553D01*
X106162583Y-75257969D01*
X106168772Y-75271054D01*
X106173649Y-75284683D01*
X106177166Y-75298724D01*
X106179290Y-75313042D01*
X106180000Y-75327500D01*
X106180000Y-75672500D01*
X106179290Y-75686958D01*
X106177166Y-75701276D01*
X106173649Y-75715317D01*
X106168772Y-75728946D01*
X106162583Y-75742031D01*
X106155142Y-75754447D01*
X106146519Y-75766073D01*
X106136798Y-75776798D01*
X106126073Y-75786519D01*
X106114447Y-75795142D01*
X106102031Y-75802583D01*
X106088946Y-75808772D01*
X106075317Y-75813649D01*
X106061276Y-75817166D01*
X106046958Y-75819290D01*
X106032500Y-75820000D01*
X105737500Y-75820000D01*
X105723042Y-75819290D01*
X105708724Y-75817166D01*
X105694683Y-75813649D01*
X105681054Y-75808772D01*
X105667969Y-75802583D01*
X105655553Y-75795142D01*
X105643927Y-75786519D01*
X105633202Y-75776798D01*
X105623481Y-75766073D01*
X105614858Y-75754447D01*
X105607417Y-75742031D01*
X105601228Y-75728946D01*
X105596351Y-75715317D01*
X105592834Y-75701276D01*
X105590710Y-75686958D01*
X105590000Y-75672500D01*
X105590000Y-75327500D01*
X105590710Y-75313042D01*
X105592834Y-75298724D01*
X105596351Y-75284683D01*
X105601228Y-75271054D01*
X105607417Y-75257969D01*
X105614858Y-75245553D01*
X105623481Y-75233927D01*
X105633202Y-75223202D01*
X105643927Y-75213481D01*
X105655553Y-75204858D01*
X105667969Y-75197417D01*
X105681054Y-75191228D01*
X105694683Y-75186351D01*
X105708724Y-75182834D01*
X105723042Y-75180710D01*
X105737500Y-75180000D01*
X106032500Y-75180000D01*
X106046958Y-75180710D01*
X106046958Y-75180710D01*
G37*
D11*
X105885000Y-75500000D03*
D10*
G36*
X105076958Y-75180710D02*
X105091276Y-75182834D01*
X105105317Y-75186351D01*
X105118946Y-75191228D01*
X105132031Y-75197417D01*
X105144447Y-75204858D01*
X105156073Y-75213481D01*
X105166798Y-75223202D01*
X105176519Y-75233927D01*
X105185142Y-75245553D01*
X105192583Y-75257969D01*
X105198772Y-75271054D01*
X105203649Y-75284683D01*
X105207166Y-75298724D01*
X105209290Y-75313042D01*
X105210000Y-75327500D01*
X105210000Y-75672500D01*
X105209290Y-75686958D01*
X105207166Y-75701276D01*
X105203649Y-75715317D01*
X105198772Y-75728946D01*
X105192583Y-75742031D01*
X105185142Y-75754447D01*
X105176519Y-75766073D01*
X105166798Y-75776798D01*
X105156073Y-75786519D01*
X105144447Y-75795142D01*
X105132031Y-75802583D01*
X105118946Y-75808772D01*
X105105317Y-75813649D01*
X105091276Y-75817166D01*
X105076958Y-75819290D01*
X105062500Y-75820000D01*
X104767500Y-75820000D01*
X104753042Y-75819290D01*
X104738724Y-75817166D01*
X104724683Y-75813649D01*
X104711054Y-75808772D01*
X104697969Y-75802583D01*
X104685553Y-75795142D01*
X104673927Y-75786519D01*
X104663202Y-75776798D01*
X104653481Y-75766073D01*
X104644858Y-75754447D01*
X104637417Y-75742031D01*
X104631228Y-75728946D01*
X104626351Y-75715317D01*
X104622834Y-75701276D01*
X104620710Y-75686958D01*
X104620000Y-75672500D01*
X104620000Y-75327500D01*
X104620710Y-75313042D01*
X104622834Y-75298724D01*
X104626351Y-75284683D01*
X104631228Y-75271054D01*
X104637417Y-75257969D01*
X104644858Y-75245553D01*
X104653481Y-75233927D01*
X104663202Y-75223202D01*
X104673927Y-75213481D01*
X104685553Y-75204858D01*
X104697969Y-75197417D01*
X104711054Y-75191228D01*
X104724683Y-75186351D01*
X104738724Y-75182834D01*
X104753042Y-75180710D01*
X104767500Y-75180000D01*
X105062500Y-75180000D01*
X105076958Y-75180710D01*
X105076958Y-75180710D01*
G37*
D11*
X104915000Y-75500000D03*
G04 #@! TD*
D10*
G04 #@! TO.C,C3*
G36*
X108486958Y-79190710D02*
X108501276Y-79192834D01*
X108515317Y-79196351D01*
X108528946Y-79201228D01*
X108542031Y-79207417D01*
X108554447Y-79214858D01*
X108566073Y-79223481D01*
X108576798Y-79233202D01*
X108586519Y-79243927D01*
X108595142Y-79255553D01*
X108602583Y-79267969D01*
X108608772Y-79281054D01*
X108613649Y-79294683D01*
X108617166Y-79308724D01*
X108619290Y-79323042D01*
X108620000Y-79337500D01*
X108620000Y-79632500D01*
X108619290Y-79646958D01*
X108617166Y-79661276D01*
X108613649Y-79675317D01*
X108608772Y-79688946D01*
X108602583Y-79702031D01*
X108595142Y-79714447D01*
X108586519Y-79726073D01*
X108576798Y-79736798D01*
X108566073Y-79746519D01*
X108554447Y-79755142D01*
X108542031Y-79762583D01*
X108528946Y-79768772D01*
X108515317Y-79773649D01*
X108501276Y-79777166D01*
X108486958Y-79779290D01*
X108472500Y-79780000D01*
X108127500Y-79780000D01*
X108113042Y-79779290D01*
X108098724Y-79777166D01*
X108084683Y-79773649D01*
X108071054Y-79768772D01*
X108057969Y-79762583D01*
X108045553Y-79755142D01*
X108033927Y-79746519D01*
X108023202Y-79736798D01*
X108013481Y-79726073D01*
X108004858Y-79714447D01*
X107997417Y-79702031D01*
X107991228Y-79688946D01*
X107986351Y-79675317D01*
X107982834Y-79661276D01*
X107980710Y-79646958D01*
X107980000Y-79632500D01*
X107980000Y-79337500D01*
X107980710Y-79323042D01*
X107982834Y-79308724D01*
X107986351Y-79294683D01*
X107991228Y-79281054D01*
X107997417Y-79267969D01*
X108004858Y-79255553D01*
X108013481Y-79243927D01*
X108023202Y-79233202D01*
X108033927Y-79223481D01*
X108045553Y-79214858D01*
X108057969Y-79207417D01*
X108071054Y-79201228D01*
X108084683Y-79196351D01*
X108098724Y-79192834D01*
X108113042Y-79190710D01*
X108127500Y-79190000D01*
X108472500Y-79190000D01*
X108486958Y-79190710D01*
X108486958Y-79190710D01*
G37*
D11*
X108300000Y-79485000D03*
D10*
G36*
X108486958Y-78220710D02*
X108501276Y-78222834D01*
X108515317Y-78226351D01*
X108528946Y-78231228D01*
X108542031Y-78237417D01*
X108554447Y-78244858D01*
X108566073Y-78253481D01*
X108576798Y-78263202D01*
X108586519Y-78273927D01*
X108595142Y-78285553D01*
X108602583Y-78297969D01*
X108608772Y-78311054D01*
X108613649Y-78324683D01*
X108617166Y-78338724D01*
X108619290Y-78353042D01*
X108620000Y-78367500D01*
X108620000Y-78662500D01*
X108619290Y-78676958D01*
X108617166Y-78691276D01*
X108613649Y-78705317D01*
X108608772Y-78718946D01*
X108602583Y-78732031D01*
X108595142Y-78744447D01*
X108586519Y-78756073D01*
X108576798Y-78766798D01*
X108566073Y-78776519D01*
X108554447Y-78785142D01*
X108542031Y-78792583D01*
X108528946Y-78798772D01*
X108515317Y-78803649D01*
X108501276Y-78807166D01*
X108486958Y-78809290D01*
X108472500Y-78810000D01*
X108127500Y-78810000D01*
X108113042Y-78809290D01*
X108098724Y-78807166D01*
X108084683Y-78803649D01*
X108071054Y-78798772D01*
X108057969Y-78792583D01*
X108045553Y-78785142D01*
X108033927Y-78776519D01*
X108023202Y-78766798D01*
X108013481Y-78756073D01*
X108004858Y-78744447D01*
X107997417Y-78732031D01*
X107991228Y-78718946D01*
X107986351Y-78705317D01*
X107982834Y-78691276D01*
X107980710Y-78676958D01*
X107980000Y-78662500D01*
X107980000Y-78367500D01*
X107980710Y-78353042D01*
X107982834Y-78338724D01*
X107986351Y-78324683D01*
X107991228Y-78311054D01*
X107997417Y-78297969D01*
X108004858Y-78285553D01*
X108013481Y-78273927D01*
X108023202Y-78263202D01*
X108033927Y-78253481D01*
X108045553Y-78244858D01*
X108057969Y-78237417D01*
X108071054Y-78231228D01*
X108084683Y-78226351D01*
X108098724Y-78222834D01*
X108113042Y-78220710D01*
X108127500Y-78220000D01*
X108472500Y-78220000D01*
X108486958Y-78220710D01*
X108486958Y-78220710D01*
G37*
D11*
X108300000Y-78515000D03*
G04 #@! TD*
D12*
G04 #@! TO.C,J1*
X98325000Y-67050000D03*
X101275000Y-67050000D03*
D13*
X99800000Y-68550000D03*
X99800000Y-65550000D03*
G04 #@! TD*
D14*
G04 #@! TO.C,A1*
X103300000Y-63500000D03*
X115600000Y-63500000D03*
G04 #@! TD*
D10*
G04 #@! TO.C,C1*
G36*
X99989691Y-62177053D02*
X100010926Y-62180203D01*
X100031750Y-62185419D01*
X100051962Y-62192651D01*
X100071368Y-62201830D01*
X100089781Y-62212866D01*
X100107024Y-62225654D01*
X100122930Y-62240070D01*
X100137346Y-62255976D01*
X100150134Y-62273219D01*
X100161170Y-62291632D01*
X100170349Y-62311038D01*
X100177581Y-62331250D01*
X100182797Y-62352074D01*
X100185947Y-62373309D01*
X100187000Y-62394750D01*
X100187000Y-62907250D01*
X100185947Y-62928691D01*
X100182797Y-62949926D01*
X100177581Y-62970750D01*
X100170349Y-62990962D01*
X100161170Y-63010368D01*
X100150134Y-63028781D01*
X100137346Y-63046024D01*
X100122930Y-63061930D01*
X100107024Y-63076346D01*
X100089781Y-63089134D01*
X100071368Y-63100170D01*
X100051962Y-63109349D01*
X100031750Y-63116581D01*
X100010926Y-63121797D01*
X99989691Y-63124947D01*
X99968250Y-63126000D01*
X99530750Y-63126000D01*
X99509309Y-63124947D01*
X99488074Y-63121797D01*
X99467250Y-63116581D01*
X99447038Y-63109349D01*
X99427632Y-63100170D01*
X99409219Y-63089134D01*
X99391976Y-63076346D01*
X99376070Y-63061930D01*
X99361654Y-63046024D01*
X99348866Y-63028781D01*
X99337830Y-63010368D01*
X99328651Y-62990962D01*
X99321419Y-62970750D01*
X99316203Y-62949926D01*
X99313053Y-62928691D01*
X99312000Y-62907250D01*
X99312000Y-62394750D01*
X99313053Y-62373309D01*
X99316203Y-62352074D01*
X99321419Y-62331250D01*
X99328651Y-62311038D01*
X99337830Y-62291632D01*
X99348866Y-62273219D01*
X99361654Y-62255976D01*
X99376070Y-62240070D01*
X99391976Y-62225654D01*
X99409219Y-62212866D01*
X99427632Y-62201830D01*
X99447038Y-62192651D01*
X99467250Y-62185419D01*
X99488074Y-62180203D01*
X99509309Y-62177053D01*
X99530750Y-62176000D01*
X99968250Y-62176000D01*
X99989691Y-62177053D01*
X99989691Y-62177053D01*
G37*
D15*
X99749500Y-62651000D03*
D10*
G36*
X101564691Y-62177053D02*
X101585926Y-62180203D01*
X101606750Y-62185419D01*
X101626962Y-62192651D01*
X101646368Y-62201830D01*
X101664781Y-62212866D01*
X101682024Y-62225654D01*
X101697930Y-62240070D01*
X101712346Y-62255976D01*
X101725134Y-62273219D01*
X101736170Y-62291632D01*
X101745349Y-62311038D01*
X101752581Y-62331250D01*
X101757797Y-62352074D01*
X101760947Y-62373309D01*
X101762000Y-62394750D01*
X101762000Y-62907250D01*
X101760947Y-62928691D01*
X101757797Y-62949926D01*
X101752581Y-62970750D01*
X101745349Y-62990962D01*
X101736170Y-63010368D01*
X101725134Y-63028781D01*
X101712346Y-63046024D01*
X101697930Y-63061930D01*
X101682024Y-63076346D01*
X101664781Y-63089134D01*
X101646368Y-63100170D01*
X101626962Y-63109349D01*
X101606750Y-63116581D01*
X101585926Y-63121797D01*
X101564691Y-63124947D01*
X101543250Y-63126000D01*
X101105750Y-63126000D01*
X101084309Y-63124947D01*
X101063074Y-63121797D01*
X101042250Y-63116581D01*
X101022038Y-63109349D01*
X101002632Y-63100170D01*
X100984219Y-63089134D01*
X100966976Y-63076346D01*
X100951070Y-63061930D01*
X100936654Y-63046024D01*
X100923866Y-63028781D01*
X100912830Y-63010368D01*
X100903651Y-62990962D01*
X100896419Y-62970750D01*
X100891203Y-62949926D01*
X100888053Y-62928691D01*
X100887000Y-62907250D01*
X100887000Y-62394750D01*
X100888053Y-62373309D01*
X100891203Y-62352074D01*
X100896419Y-62331250D01*
X100903651Y-62311038D01*
X100912830Y-62291632D01*
X100923866Y-62273219D01*
X100936654Y-62255976D01*
X100951070Y-62240070D01*
X100966976Y-62225654D01*
X100984219Y-62212866D01*
X101002632Y-62201830D01*
X101022038Y-62192651D01*
X101042250Y-62185419D01*
X101063074Y-62180203D01*
X101084309Y-62177053D01*
X101105750Y-62176000D01*
X101543250Y-62176000D01*
X101564691Y-62177053D01*
X101564691Y-62177053D01*
G37*
D15*
X101324500Y-62651000D03*
G04 #@! TD*
D10*
G04 #@! TO.C,L1*
G36*
X105076958Y-76174710D02*
X105091276Y-76176834D01*
X105105317Y-76180351D01*
X105118946Y-76185228D01*
X105132031Y-76191417D01*
X105144447Y-76198858D01*
X105156073Y-76207481D01*
X105166798Y-76217202D01*
X105176519Y-76227927D01*
X105185142Y-76239553D01*
X105192583Y-76251969D01*
X105198772Y-76265054D01*
X105203649Y-76278683D01*
X105207166Y-76292724D01*
X105209290Y-76307042D01*
X105210000Y-76321500D01*
X105210000Y-76666500D01*
X105209290Y-76680958D01*
X105207166Y-76695276D01*
X105203649Y-76709317D01*
X105198772Y-76722946D01*
X105192583Y-76736031D01*
X105185142Y-76748447D01*
X105176519Y-76760073D01*
X105166798Y-76770798D01*
X105156073Y-76780519D01*
X105144447Y-76789142D01*
X105132031Y-76796583D01*
X105118946Y-76802772D01*
X105105317Y-76807649D01*
X105091276Y-76811166D01*
X105076958Y-76813290D01*
X105062500Y-76814000D01*
X104767500Y-76814000D01*
X104753042Y-76813290D01*
X104738724Y-76811166D01*
X104724683Y-76807649D01*
X104711054Y-76802772D01*
X104697969Y-76796583D01*
X104685553Y-76789142D01*
X104673927Y-76780519D01*
X104663202Y-76770798D01*
X104653481Y-76760073D01*
X104644858Y-76748447D01*
X104637417Y-76736031D01*
X104631228Y-76722946D01*
X104626351Y-76709317D01*
X104622834Y-76695276D01*
X104620710Y-76680958D01*
X104620000Y-76666500D01*
X104620000Y-76321500D01*
X104620710Y-76307042D01*
X104622834Y-76292724D01*
X104626351Y-76278683D01*
X104631228Y-76265054D01*
X104637417Y-76251969D01*
X104644858Y-76239553D01*
X104653481Y-76227927D01*
X104663202Y-76217202D01*
X104673927Y-76207481D01*
X104685553Y-76198858D01*
X104697969Y-76191417D01*
X104711054Y-76185228D01*
X104724683Y-76180351D01*
X104738724Y-76176834D01*
X104753042Y-76174710D01*
X104767500Y-76174000D01*
X105062500Y-76174000D01*
X105076958Y-76174710D01*
X105076958Y-76174710D01*
G37*
D11*
X104915000Y-76494000D03*
D10*
G36*
X106046958Y-76174710D02*
X106061276Y-76176834D01*
X106075317Y-76180351D01*
X106088946Y-76185228D01*
X106102031Y-76191417D01*
X106114447Y-76198858D01*
X106126073Y-76207481D01*
X106136798Y-76217202D01*
X106146519Y-76227927D01*
X106155142Y-76239553D01*
X106162583Y-76251969D01*
X106168772Y-76265054D01*
X106173649Y-76278683D01*
X106177166Y-76292724D01*
X106179290Y-76307042D01*
X106180000Y-76321500D01*
X106180000Y-76666500D01*
X106179290Y-76680958D01*
X106177166Y-76695276D01*
X106173649Y-76709317D01*
X106168772Y-76722946D01*
X106162583Y-76736031D01*
X106155142Y-76748447D01*
X106146519Y-76760073D01*
X106136798Y-76770798D01*
X106126073Y-76780519D01*
X106114447Y-76789142D01*
X106102031Y-76796583D01*
X106088946Y-76802772D01*
X106075317Y-76807649D01*
X106061276Y-76811166D01*
X106046958Y-76813290D01*
X106032500Y-76814000D01*
X105737500Y-76814000D01*
X105723042Y-76813290D01*
X105708724Y-76811166D01*
X105694683Y-76807649D01*
X105681054Y-76802772D01*
X105667969Y-76796583D01*
X105655553Y-76789142D01*
X105643927Y-76780519D01*
X105633202Y-76770798D01*
X105623481Y-76760073D01*
X105614858Y-76748447D01*
X105607417Y-76736031D01*
X105601228Y-76722946D01*
X105596351Y-76709317D01*
X105592834Y-76695276D01*
X105590710Y-76680958D01*
X105590000Y-76666500D01*
X105590000Y-76321500D01*
X105590710Y-76307042D01*
X105592834Y-76292724D01*
X105596351Y-76278683D01*
X105601228Y-76265054D01*
X105607417Y-76251969D01*
X105614858Y-76239553D01*
X105623481Y-76227927D01*
X105633202Y-76217202D01*
X105643927Y-76207481D01*
X105655553Y-76198858D01*
X105667969Y-76191417D01*
X105681054Y-76185228D01*
X105694683Y-76180351D01*
X105708724Y-76176834D01*
X105723042Y-76174710D01*
X105737500Y-76174000D01*
X106032500Y-76174000D01*
X106046958Y-76174710D01*
X106046958Y-76174710D01*
G37*
D11*
X105885000Y-76494000D03*
G04 #@! TD*
D16*
G04 #@! TO.C,Y1*
X112876000Y-84876000D03*
X115376000Y-84876000D03*
G04 #@! TD*
M02*
