G04 #@! TF.GenerationSoftware,KiCad,Pcbnew,5.0.0+dfsg1-2*
G04 #@! TF.CreationDate,2018-09-16T15:45:03-04:00*
G04 #@! TF.ProjectId,goodwatch30,676F6F64776174636833302E6B696361,30*
G04 #@! TF.SameCoordinates,Original*
G04 #@! TF.FileFunction,Copper,L2,Bot,Signal*
G04 #@! TF.FilePolarity,Positive*
%FSLAX46Y46*%
G04 Gerber Fmt 4.6, Leading zero omitted, Abs format (unit mm)*
G04 Created by KiCad (PCBNEW 5.0.0+dfsg1-2) date Sun Sep 16 15:45:03 2018*
%MOMM*%
%LPD*%
G01*
G04 APERTURE LIST*
G04 #@! TA.AperFunction,Conductor*
%ADD10C,0.100000*%
G04 #@! TD*
G04 #@! TA.AperFunction,SMDPad,CuDef*
%ADD11C,0.590000*%
G04 #@! TD*
G04 #@! TA.AperFunction,BGAPad,CuDef*
%ADD12C,2.000000*%
G04 #@! TD*
G04 #@! TA.AperFunction,ComponentPad*
%ADD13C,1.524000*%
G04 #@! TD*
G04 #@! TA.AperFunction,ConnectorPad*
%ADD14R,8.300000X2.750000*%
G04 #@! TD*
G04 #@! TA.AperFunction,ConnectorPad*
%ADD15C,6.000000*%
G04 #@! TD*
G04 #@! TA.AperFunction,ComponentPad*
%ADD16O,1.200000X2.700000*%
G04 #@! TD*
G04 #@! TA.AperFunction,SMDPad,CuDef*
%ADD17R,1.050000X2.200000*%
G04 #@! TD*
G04 #@! TA.AperFunction,SMDPad,CuDef*
%ADD18R,1.000000X1.000000*%
G04 #@! TD*
G04 #@! TA.AperFunction,SMDPad,CuDef*
%ADD19R,1.000000X4.000000*%
G04 #@! TD*
G04 #@! TA.AperFunction,SMDPad,CuDef*
%ADD20C,0.875000*%
G04 #@! TD*
G04 #@! TA.AperFunction,SMDPad,CuDef*
%ADD21R,1.000000X1.800000*%
G04 #@! TD*
G04 #@! TA.AperFunction,ViaPad*
%ADD22C,0.500000*%
G04 #@! TD*
G04 #@! TA.AperFunction,Conductor*
%ADD23C,0.150000*%
G04 #@! TD*
G04 #@! TA.AperFunction,Conductor*
%ADD24C,0.500000*%
G04 #@! TD*
G04 APERTURE END LIST*
D10*
G04 #@! TO.N,/RFVCC*
G04 #@! TO.C,C8*
G36*
X105076958Y-77180710D02*
X105091276Y-77182834D01*
X105105317Y-77186351D01*
X105118946Y-77191228D01*
X105132031Y-77197417D01*
X105144447Y-77204858D01*
X105156073Y-77213481D01*
X105166798Y-77223202D01*
X105176519Y-77233927D01*
X105185142Y-77245553D01*
X105192583Y-77257969D01*
X105198772Y-77271054D01*
X105203649Y-77284683D01*
X105207166Y-77298724D01*
X105209290Y-77313042D01*
X105210000Y-77327500D01*
X105210000Y-77672500D01*
X105209290Y-77686958D01*
X105207166Y-77701276D01*
X105203649Y-77715317D01*
X105198772Y-77728946D01*
X105192583Y-77742031D01*
X105185142Y-77754447D01*
X105176519Y-77766073D01*
X105166798Y-77776798D01*
X105156073Y-77786519D01*
X105144447Y-77795142D01*
X105132031Y-77802583D01*
X105118946Y-77808772D01*
X105105317Y-77813649D01*
X105091276Y-77817166D01*
X105076958Y-77819290D01*
X105062500Y-77820000D01*
X104767500Y-77820000D01*
X104753042Y-77819290D01*
X104738724Y-77817166D01*
X104724683Y-77813649D01*
X104711054Y-77808772D01*
X104697969Y-77802583D01*
X104685553Y-77795142D01*
X104673927Y-77786519D01*
X104663202Y-77776798D01*
X104653481Y-77766073D01*
X104644858Y-77754447D01*
X104637417Y-77742031D01*
X104631228Y-77728946D01*
X104626351Y-77715317D01*
X104622834Y-77701276D01*
X104620710Y-77686958D01*
X104620000Y-77672500D01*
X104620000Y-77327500D01*
X104620710Y-77313042D01*
X104622834Y-77298724D01*
X104626351Y-77284683D01*
X104631228Y-77271054D01*
X104637417Y-77257969D01*
X104644858Y-77245553D01*
X104653481Y-77233927D01*
X104663202Y-77223202D01*
X104673927Y-77213481D01*
X104685553Y-77204858D01*
X104697969Y-77197417D01*
X104711054Y-77191228D01*
X104724683Y-77186351D01*
X104738724Y-77182834D01*
X104753042Y-77180710D01*
X104767500Y-77180000D01*
X105062500Y-77180000D01*
X105076958Y-77180710D01*
X105076958Y-77180710D01*
G37*
D11*
G04 #@! TD*
G04 #@! TO.P,C8,1*
G04 #@! TO.N,/RFVCC*
X104915000Y-77500000D03*
D10*
G04 #@! TO.N,GND*
G04 #@! TO.C,C8*
G36*
X106046958Y-77180710D02*
X106061276Y-77182834D01*
X106075317Y-77186351D01*
X106088946Y-77191228D01*
X106102031Y-77197417D01*
X106114447Y-77204858D01*
X106126073Y-77213481D01*
X106136798Y-77223202D01*
X106146519Y-77233927D01*
X106155142Y-77245553D01*
X106162583Y-77257969D01*
X106168772Y-77271054D01*
X106173649Y-77284683D01*
X106177166Y-77298724D01*
X106179290Y-77313042D01*
X106180000Y-77327500D01*
X106180000Y-77672500D01*
X106179290Y-77686958D01*
X106177166Y-77701276D01*
X106173649Y-77715317D01*
X106168772Y-77728946D01*
X106162583Y-77742031D01*
X106155142Y-77754447D01*
X106146519Y-77766073D01*
X106136798Y-77776798D01*
X106126073Y-77786519D01*
X106114447Y-77795142D01*
X106102031Y-77802583D01*
X106088946Y-77808772D01*
X106075317Y-77813649D01*
X106061276Y-77817166D01*
X106046958Y-77819290D01*
X106032500Y-77820000D01*
X105737500Y-77820000D01*
X105723042Y-77819290D01*
X105708724Y-77817166D01*
X105694683Y-77813649D01*
X105681054Y-77808772D01*
X105667969Y-77802583D01*
X105655553Y-77795142D01*
X105643927Y-77786519D01*
X105633202Y-77776798D01*
X105623481Y-77766073D01*
X105614858Y-77754447D01*
X105607417Y-77742031D01*
X105601228Y-77728946D01*
X105596351Y-77715317D01*
X105592834Y-77701276D01*
X105590710Y-77686958D01*
X105590000Y-77672500D01*
X105590000Y-77327500D01*
X105590710Y-77313042D01*
X105592834Y-77298724D01*
X105596351Y-77284683D01*
X105601228Y-77271054D01*
X105607417Y-77257969D01*
X105614858Y-77245553D01*
X105623481Y-77233927D01*
X105633202Y-77223202D01*
X105643927Y-77213481D01*
X105655553Y-77204858D01*
X105667969Y-77197417D01*
X105681054Y-77191228D01*
X105694683Y-77186351D01*
X105708724Y-77182834D01*
X105723042Y-77180710D01*
X105737500Y-77180000D01*
X106032500Y-77180000D01*
X106046958Y-77180710D01*
X106046958Y-77180710D01*
G37*
D11*
G04 #@! TD*
G04 #@! TO.P,C8,2*
G04 #@! TO.N,GND*
X105885000Y-77500000D03*
D10*
G04 #@! TO.N,GND*
G04 #@! TO.C,C9*
G36*
X106046958Y-75180710D02*
X106061276Y-75182834D01*
X106075317Y-75186351D01*
X106088946Y-75191228D01*
X106102031Y-75197417D01*
X106114447Y-75204858D01*
X106126073Y-75213481D01*
X106136798Y-75223202D01*
X106146519Y-75233927D01*
X106155142Y-75245553D01*
X106162583Y-75257969D01*
X106168772Y-75271054D01*
X106173649Y-75284683D01*
X106177166Y-75298724D01*
X106179290Y-75313042D01*
X106180000Y-75327500D01*
X106180000Y-75672500D01*
X106179290Y-75686958D01*
X106177166Y-75701276D01*
X106173649Y-75715317D01*
X106168772Y-75728946D01*
X106162583Y-75742031D01*
X106155142Y-75754447D01*
X106146519Y-75766073D01*
X106136798Y-75776798D01*
X106126073Y-75786519D01*
X106114447Y-75795142D01*
X106102031Y-75802583D01*
X106088946Y-75808772D01*
X106075317Y-75813649D01*
X106061276Y-75817166D01*
X106046958Y-75819290D01*
X106032500Y-75820000D01*
X105737500Y-75820000D01*
X105723042Y-75819290D01*
X105708724Y-75817166D01*
X105694683Y-75813649D01*
X105681054Y-75808772D01*
X105667969Y-75802583D01*
X105655553Y-75795142D01*
X105643927Y-75786519D01*
X105633202Y-75776798D01*
X105623481Y-75766073D01*
X105614858Y-75754447D01*
X105607417Y-75742031D01*
X105601228Y-75728946D01*
X105596351Y-75715317D01*
X105592834Y-75701276D01*
X105590710Y-75686958D01*
X105590000Y-75672500D01*
X105590000Y-75327500D01*
X105590710Y-75313042D01*
X105592834Y-75298724D01*
X105596351Y-75284683D01*
X105601228Y-75271054D01*
X105607417Y-75257969D01*
X105614858Y-75245553D01*
X105623481Y-75233927D01*
X105633202Y-75223202D01*
X105643927Y-75213481D01*
X105655553Y-75204858D01*
X105667969Y-75197417D01*
X105681054Y-75191228D01*
X105694683Y-75186351D01*
X105708724Y-75182834D01*
X105723042Y-75180710D01*
X105737500Y-75180000D01*
X106032500Y-75180000D01*
X106046958Y-75180710D01*
X106046958Y-75180710D01*
G37*
D11*
G04 #@! TD*
G04 #@! TO.P,C9,2*
G04 #@! TO.N,GND*
X105885000Y-75500000D03*
D10*
G04 #@! TO.N,/RFVCC*
G04 #@! TO.C,C9*
G36*
X105076958Y-75180710D02*
X105091276Y-75182834D01*
X105105317Y-75186351D01*
X105118946Y-75191228D01*
X105132031Y-75197417D01*
X105144447Y-75204858D01*
X105156073Y-75213481D01*
X105166798Y-75223202D01*
X105176519Y-75233927D01*
X105185142Y-75245553D01*
X105192583Y-75257969D01*
X105198772Y-75271054D01*
X105203649Y-75284683D01*
X105207166Y-75298724D01*
X105209290Y-75313042D01*
X105210000Y-75327500D01*
X105210000Y-75672500D01*
X105209290Y-75686958D01*
X105207166Y-75701276D01*
X105203649Y-75715317D01*
X105198772Y-75728946D01*
X105192583Y-75742031D01*
X105185142Y-75754447D01*
X105176519Y-75766073D01*
X105166798Y-75776798D01*
X105156073Y-75786519D01*
X105144447Y-75795142D01*
X105132031Y-75802583D01*
X105118946Y-75808772D01*
X105105317Y-75813649D01*
X105091276Y-75817166D01*
X105076958Y-75819290D01*
X105062500Y-75820000D01*
X104767500Y-75820000D01*
X104753042Y-75819290D01*
X104738724Y-75817166D01*
X104724683Y-75813649D01*
X104711054Y-75808772D01*
X104697969Y-75802583D01*
X104685553Y-75795142D01*
X104673927Y-75786519D01*
X104663202Y-75776798D01*
X104653481Y-75766073D01*
X104644858Y-75754447D01*
X104637417Y-75742031D01*
X104631228Y-75728946D01*
X104626351Y-75715317D01*
X104622834Y-75701276D01*
X104620710Y-75686958D01*
X104620000Y-75672500D01*
X104620000Y-75327500D01*
X104620710Y-75313042D01*
X104622834Y-75298724D01*
X104626351Y-75284683D01*
X104631228Y-75271054D01*
X104637417Y-75257969D01*
X104644858Y-75245553D01*
X104653481Y-75233927D01*
X104663202Y-75223202D01*
X104673927Y-75213481D01*
X104685553Y-75204858D01*
X104697969Y-75197417D01*
X104711054Y-75191228D01*
X104724683Y-75186351D01*
X104738724Y-75182834D01*
X104753042Y-75180710D01*
X104767500Y-75180000D01*
X105062500Y-75180000D01*
X105076958Y-75180710D01*
X105076958Y-75180710D01*
G37*
D11*
G04 #@! TD*
G04 #@! TO.P,C9,1*
G04 #@! TO.N,/RFVCC*
X104915000Y-75500000D03*
D10*
G04 #@! TO.N,VCC*
G04 #@! TO.C,C3*
G36*
X108486958Y-79190710D02*
X108501276Y-79192834D01*
X108515317Y-79196351D01*
X108528946Y-79201228D01*
X108542031Y-79207417D01*
X108554447Y-79214858D01*
X108566073Y-79223481D01*
X108576798Y-79233202D01*
X108586519Y-79243927D01*
X108595142Y-79255553D01*
X108602583Y-79267969D01*
X108608772Y-79281054D01*
X108613649Y-79294683D01*
X108617166Y-79308724D01*
X108619290Y-79323042D01*
X108620000Y-79337500D01*
X108620000Y-79632500D01*
X108619290Y-79646958D01*
X108617166Y-79661276D01*
X108613649Y-79675317D01*
X108608772Y-79688946D01*
X108602583Y-79702031D01*
X108595142Y-79714447D01*
X108586519Y-79726073D01*
X108576798Y-79736798D01*
X108566073Y-79746519D01*
X108554447Y-79755142D01*
X108542031Y-79762583D01*
X108528946Y-79768772D01*
X108515317Y-79773649D01*
X108501276Y-79777166D01*
X108486958Y-79779290D01*
X108472500Y-79780000D01*
X108127500Y-79780000D01*
X108113042Y-79779290D01*
X108098724Y-79777166D01*
X108084683Y-79773649D01*
X108071054Y-79768772D01*
X108057969Y-79762583D01*
X108045553Y-79755142D01*
X108033927Y-79746519D01*
X108023202Y-79736798D01*
X108013481Y-79726073D01*
X108004858Y-79714447D01*
X107997417Y-79702031D01*
X107991228Y-79688946D01*
X107986351Y-79675317D01*
X107982834Y-79661276D01*
X107980710Y-79646958D01*
X107980000Y-79632500D01*
X107980000Y-79337500D01*
X107980710Y-79323042D01*
X107982834Y-79308724D01*
X107986351Y-79294683D01*
X107991228Y-79281054D01*
X107997417Y-79267969D01*
X108004858Y-79255553D01*
X108013481Y-79243927D01*
X108023202Y-79233202D01*
X108033927Y-79223481D01*
X108045553Y-79214858D01*
X108057969Y-79207417D01*
X108071054Y-79201228D01*
X108084683Y-79196351D01*
X108098724Y-79192834D01*
X108113042Y-79190710D01*
X108127500Y-79190000D01*
X108472500Y-79190000D01*
X108486958Y-79190710D01*
X108486958Y-79190710D01*
G37*
D11*
G04 #@! TD*
G04 #@! TO.P,C3,1*
G04 #@! TO.N,VCC*
X108300000Y-79485000D03*
D10*
G04 #@! TO.N,GND*
G04 #@! TO.C,C3*
G36*
X108486958Y-78220710D02*
X108501276Y-78222834D01*
X108515317Y-78226351D01*
X108528946Y-78231228D01*
X108542031Y-78237417D01*
X108554447Y-78244858D01*
X108566073Y-78253481D01*
X108576798Y-78263202D01*
X108586519Y-78273927D01*
X108595142Y-78285553D01*
X108602583Y-78297969D01*
X108608772Y-78311054D01*
X108613649Y-78324683D01*
X108617166Y-78338724D01*
X108619290Y-78353042D01*
X108620000Y-78367500D01*
X108620000Y-78662500D01*
X108619290Y-78676958D01*
X108617166Y-78691276D01*
X108613649Y-78705317D01*
X108608772Y-78718946D01*
X108602583Y-78732031D01*
X108595142Y-78744447D01*
X108586519Y-78756073D01*
X108576798Y-78766798D01*
X108566073Y-78776519D01*
X108554447Y-78785142D01*
X108542031Y-78792583D01*
X108528946Y-78798772D01*
X108515317Y-78803649D01*
X108501276Y-78807166D01*
X108486958Y-78809290D01*
X108472500Y-78810000D01*
X108127500Y-78810000D01*
X108113042Y-78809290D01*
X108098724Y-78807166D01*
X108084683Y-78803649D01*
X108071054Y-78798772D01*
X108057969Y-78792583D01*
X108045553Y-78785142D01*
X108033927Y-78776519D01*
X108023202Y-78766798D01*
X108013481Y-78756073D01*
X108004858Y-78744447D01*
X107997417Y-78732031D01*
X107991228Y-78718946D01*
X107986351Y-78705317D01*
X107982834Y-78691276D01*
X107980710Y-78676958D01*
X107980000Y-78662500D01*
X107980000Y-78367500D01*
X107980710Y-78353042D01*
X107982834Y-78338724D01*
X107986351Y-78324683D01*
X107991228Y-78311054D01*
X107997417Y-78297969D01*
X108004858Y-78285553D01*
X108013481Y-78273927D01*
X108023202Y-78263202D01*
X108033927Y-78253481D01*
X108045553Y-78244858D01*
X108057969Y-78237417D01*
X108071054Y-78231228D01*
X108084683Y-78226351D01*
X108098724Y-78222834D01*
X108113042Y-78220710D01*
X108127500Y-78220000D01*
X108472500Y-78220000D01*
X108486958Y-78220710D01*
X108486958Y-78220710D01*
G37*
D11*
G04 #@! TD*
G04 #@! TO.P,C3,2*
G04 #@! TO.N,GND*
X108300000Y-78515000D03*
D12*
G04 #@! TO.P,BRD1,8*
G04 #@! TO.N,/BUZZ*
X103350000Y-80900000D03*
D13*
G04 #@! TO.P,BRD1,7*
G04 #@! TO.N,GND*
X118600000Y-84400000D03*
G04 #@! TO.P,BRD1,6*
G04 #@! TO.N,/!RST*
X97870000Y-82400000D03*
G04 #@! TO.P,BRD1,5*
G04 #@! TO.N,/TST*
X99600000Y-84400000D03*
D14*
G04 #@! TO.P,BRD1,1*
G04 #@! TO.N,VCC*
X109500000Y-60400000D03*
D15*
G04 #@! TO.P,BRD1,2*
G04 #@! TO.N,GND*
X113900000Y-70000000D03*
D10*
G04 #@! TD*
G04 #@! TO.N,GND*
G04 #@! TO.C,BRD1*
G36*
X110945242Y-73241821D02*
X110474487Y-67260317D01*
X116854758Y-66758179D01*
X117325513Y-72739683D01*
X110945242Y-73241821D01*
X110945242Y-73241821D01*
G37*
D16*
G04 #@! TO.P,BRD1,3*
G04 #@! TO.N,Net-(BRD1-Pad3)*
X121800000Y-75100000D03*
G04 #@! TO.P,BRD1,4*
G04 #@! TO.N,Net-(BRD1-Pad4)*
X121800000Y-82600000D03*
G04 #@! TD*
D17*
G04 #@! TO.P,J1,2*
G04 #@! TO.N,GND*
X98325000Y-67050000D03*
X101275000Y-67050000D03*
D18*
X99800000Y-68550000D03*
G04 #@! TO.P,J1,1*
G04 #@! TO.N,Net-(A1-Pad1)*
X99800000Y-65550000D03*
G04 #@! TD*
D19*
G04 #@! TO.P,A1,1*
G04 #@! TO.N,Net-(A1-Pad1)*
X103300000Y-63500000D03*
G04 #@! TO.P,A1,2*
G04 #@! TO.N,N/C*
X115600000Y-63500000D03*
G04 #@! TD*
D10*
G04 #@! TO.N,VCC*
G04 #@! TO.C,C1*
G36*
X99989691Y-62177053D02*
X100010926Y-62180203D01*
X100031750Y-62185419D01*
X100051962Y-62192651D01*
X100071368Y-62201830D01*
X100089781Y-62212866D01*
X100107024Y-62225654D01*
X100122930Y-62240070D01*
X100137346Y-62255976D01*
X100150134Y-62273219D01*
X100161170Y-62291632D01*
X100170349Y-62311038D01*
X100177581Y-62331250D01*
X100182797Y-62352074D01*
X100185947Y-62373309D01*
X100187000Y-62394750D01*
X100187000Y-62907250D01*
X100185947Y-62928691D01*
X100182797Y-62949926D01*
X100177581Y-62970750D01*
X100170349Y-62990962D01*
X100161170Y-63010368D01*
X100150134Y-63028781D01*
X100137346Y-63046024D01*
X100122930Y-63061930D01*
X100107024Y-63076346D01*
X100089781Y-63089134D01*
X100071368Y-63100170D01*
X100051962Y-63109349D01*
X100031750Y-63116581D01*
X100010926Y-63121797D01*
X99989691Y-63124947D01*
X99968250Y-63126000D01*
X99530750Y-63126000D01*
X99509309Y-63124947D01*
X99488074Y-63121797D01*
X99467250Y-63116581D01*
X99447038Y-63109349D01*
X99427632Y-63100170D01*
X99409219Y-63089134D01*
X99391976Y-63076346D01*
X99376070Y-63061930D01*
X99361654Y-63046024D01*
X99348866Y-63028781D01*
X99337830Y-63010368D01*
X99328651Y-62990962D01*
X99321419Y-62970750D01*
X99316203Y-62949926D01*
X99313053Y-62928691D01*
X99312000Y-62907250D01*
X99312000Y-62394750D01*
X99313053Y-62373309D01*
X99316203Y-62352074D01*
X99321419Y-62331250D01*
X99328651Y-62311038D01*
X99337830Y-62291632D01*
X99348866Y-62273219D01*
X99361654Y-62255976D01*
X99376070Y-62240070D01*
X99391976Y-62225654D01*
X99409219Y-62212866D01*
X99427632Y-62201830D01*
X99447038Y-62192651D01*
X99467250Y-62185419D01*
X99488074Y-62180203D01*
X99509309Y-62177053D01*
X99530750Y-62176000D01*
X99968250Y-62176000D01*
X99989691Y-62177053D01*
X99989691Y-62177053D01*
G37*
D20*
G04 #@! TD*
G04 #@! TO.P,C1,1*
G04 #@! TO.N,VCC*
X99749500Y-62651000D03*
D10*
G04 #@! TO.N,GND*
G04 #@! TO.C,C1*
G36*
X101564691Y-62177053D02*
X101585926Y-62180203D01*
X101606750Y-62185419D01*
X101626962Y-62192651D01*
X101646368Y-62201830D01*
X101664781Y-62212866D01*
X101682024Y-62225654D01*
X101697930Y-62240070D01*
X101712346Y-62255976D01*
X101725134Y-62273219D01*
X101736170Y-62291632D01*
X101745349Y-62311038D01*
X101752581Y-62331250D01*
X101757797Y-62352074D01*
X101760947Y-62373309D01*
X101762000Y-62394750D01*
X101762000Y-62907250D01*
X101760947Y-62928691D01*
X101757797Y-62949926D01*
X101752581Y-62970750D01*
X101745349Y-62990962D01*
X101736170Y-63010368D01*
X101725134Y-63028781D01*
X101712346Y-63046024D01*
X101697930Y-63061930D01*
X101682024Y-63076346D01*
X101664781Y-63089134D01*
X101646368Y-63100170D01*
X101626962Y-63109349D01*
X101606750Y-63116581D01*
X101585926Y-63121797D01*
X101564691Y-63124947D01*
X101543250Y-63126000D01*
X101105750Y-63126000D01*
X101084309Y-63124947D01*
X101063074Y-63121797D01*
X101042250Y-63116581D01*
X101022038Y-63109349D01*
X101002632Y-63100170D01*
X100984219Y-63089134D01*
X100966976Y-63076346D01*
X100951070Y-63061930D01*
X100936654Y-63046024D01*
X100923866Y-63028781D01*
X100912830Y-63010368D01*
X100903651Y-62990962D01*
X100896419Y-62970750D01*
X100891203Y-62949926D01*
X100888053Y-62928691D01*
X100887000Y-62907250D01*
X100887000Y-62394750D01*
X100888053Y-62373309D01*
X100891203Y-62352074D01*
X100896419Y-62331250D01*
X100903651Y-62311038D01*
X100912830Y-62291632D01*
X100923866Y-62273219D01*
X100936654Y-62255976D01*
X100951070Y-62240070D01*
X100966976Y-62225654D01*
X100984219Y-62212866D01*
X101002632Y-62201830D01*
X101022038Y-62192651D01*
X101042250Y-62185419D01*
X101063074Y-62180203D01*
X101084309Y-62177053D01*
X101105750Y-62176000D01*
X101543250Y-62176000D01*
X101564691Y-62177053D01*
X101564691Y-62177053D01*
G37*
D20*
G04 #@! TD*
G04 #@! TO.P,C1,2*
G04 #@! TO.N,GND*
X101324500Y-62651000D03*
D10*
G04 #@! TO.N,/RFVCC*
G04 #@! TO.C,L1*
G36*
X105076958Y-76174710D02*
X105091276Y-76176834D01*
X105105317Y-76180351D01*
X105118946Y-76185228D01*
X105132031Y-76191417D01*
X105144447Y-76198858D01*
X105156073Y-76207481D01*
X105166798Y-76217202D01*
X105176519Y-76227927D01*
X105185142Y-76239553D01*
X105192583Y-76251969D01*
X105198772Y-76265054D01*
X105203649Y-76278683D01*
X105207166Y-76292724D01*
X105209290Y-76307042D01*
X105210000Y-76321500D01*
X105210000Y-76666500D01*
X105209290Y-76680958D01*
X105207166Y-76695276D01*
X105203649Y-76709317D01*
X105198772Y-76722946D01*
X105192583Y-76736031D01*
X105185142Y-76748447D01*
X105176519Y-76760073D01*
X105166798Y-76770798D01*
X105156073Y-76780519D01*
X105144447Y-76789142D01*
X105132031Y-76796583D01*
X105118946Y-76802772D01*
X105105317Y-76807649D01*
X105091276Y-76811166D01*
X105076958Y-76813290D01*
X105062500Y-76814000D01*
X104767500Y-76814000D01*
X104753042Y-76813290D01*
X104738724Y-76811166D01*
X104724683Y-76807649D01*
X104711054Y-76802772D01*
X104697969Y-76796583D01*
X104685553Y-76789142D01*
X104673927Y-76780519D01*
X104663202Y-76770798D01*
X104653481Y-76760073D01*
X104644858Y-76748447D01*
X104637417Y-76736031D01*
X104631228Y-76722946D01*
X104626351Y-76709317D01*
X104622834Y-76695276D01*
X104620710Y-76680958D01*
X104620000Y-76666500D01*
X104620000Y-76321500D01*
X104620710Y-76307042D01*
X104622834Y-76292724D01*
X104626351Y-76278683D01*
X104631228Y-76265054D01*
X104637417Y-76251969D01*
X104644858Y-76239553D01*
X104653481Y-76227927D01*
X104663202Y-76217202D01*
X104673927Y-76207481D01*
X104685553Y-76198858D01*
X104697969Y-76191417D01*
X104711054Y-76185228D01*
X104724683Y-76180351D01*
X104738724Y-76176834D01*
X104753042Y-76174710D01*
X104767500Y-76174000D01*
X105062500Y-76174000D01*
X105076958Y-76174710D01*
X105076958Y-76174710D01*
G37*
D11*
G04 #@! TD*
G04 #@! TO.P,L1,1*
G04 #@! TO.N,/RFVCC*
X104915000Y-76494000D03*
D10*
G04 #@! TO.N,VCC*
G04 #@! TO.C,L1*
G36*
X106046958Y-76174710D02*
X106061276Y-76176834D01*
X106075317Y-76180351D01*
X106088946Y-76185228D01*
X106102031Y-76191417D01*
X106114447Y-76198858D01*
X106126073Y-76207481D01*
X106136798Y-76217202D01*
X106146519Y-76227927D01*
X106155142Y-76239553D01*
X106162583Y-76251969D01*
X106168772Y-76265054D01*
X106173649Y-76278683D01*
X106177166Y-76292724D01*
X106179290Y-76307042D01*
X106180000Y-76321500D01*
X106180000Y-76666500D01*
X106179290Y-76680958D01*
X106177166Y-76695276D01*
X106173649Y-76709317D01*
X106168772Y-76722946D01*
X106162583Y-76736031D01*
X106155142Y-76748447D01*
X106146519Y-76760073D01*
X106136798Y-76770798D01*
X106126073Y-76780519D01*
X106114447Y-76789142D01*
X106102031Y-76796583D01*
X106088946Y-76802772D01*
X106075317Y-76807649D01*
X106061276Y-76811166D01*
X106046958Y-76813290D01*
X106032500Y-76814000D01*
X105737500Y-76814000D01*
X105723042Y-76813290D01*
X105708724Y-76811166D01*
X105694683Y-76807649D01*
X105681054Y-76802772D01*
X105667969Y-76796583D01*
X105655553Y-76789142D01*
X105643927Y-76780519D01*
X105633202Y-76770798D01*
X105623481Y-76760073D01*
X105614858Y-76748447D01*
X105607417Y-76736031D01*
X105601228Y-76722946D01*
X105596351Y-76709317D01*
X105592834Y-76695276D01*
X105590710Y-76680958D01*
X105590000Y-76666500D01*
X105590000Y-76321500D01*
X105590710Y-76307042D01*
X105592834Y-76292724D01*
X105596351Y-76278683D01*
X105601228Y-76265054D01*
X105607417Y-76251969D01*
X105614858Y-76239553D01*
X105623481Y-76227927D01*
X105633202Y-76217202D01*
X105643927Y-76207481D01*
X105655553Y-76198858D01*
X105667969Y-76191417D01*
X105681054Y-76185228D01*
X105694683Y-76180351D01*
X105708724Y-76176834D01*
X105723042Y-76174710D01*
X105737500Y-76174000D01*
X106032500Y-76174000D01*
X106046958Y-76174710D01*
X106046958Y-76174710D01*
G37*
D11*
G04 #@! TD*
G04 #@! TO.P,L1,2*
G04 #@! TO.N,VCC*
X105885000Y-76494000D03*
D21*
G04 #@! TO.P,Y1,1*
G04 #@! TO.N,Net-(U1-Pad55)*
X112876000Y-84876000D03*
G04 #@! TO.P,Y1,2*
G04 #@! TO.N,Net-(U1-Pad54)*
X115376000Y-84876000D03*
G04 #@! TD*
D22*
G04 #@! TO.N,GND*
X104140000Y-67564000D03*
X100200000Y-67500000D03*
X101346000Y-72136000D03*
X108966000Y-75692000D03*
X108966000Y-76962000D03*
X108966000Y-78486000D03*
X117100000Y-83800000D03*
X117094000Y-85344000D03*
X110998000Y-85344000D03*
X105664000Y-85344000D03*
X97790000Y-70612000D03*
X97790000Y-68850000D03*
X120650000Y-70358000D03*
X120650000Y-67056000D03*
X119888000Y-66294000D03*
X117602000Y-66294000D03*
X113284000Y-66294000D03*
X117856000Y-79502000D03*
X108966000Y-74168000D03*
X110490000Y-74422000D03*
X110744000Y-78486000D03*
X110744000Y-76962000D03*
X104902000Y-73914000D03*
X120396000Y-74422000D03*
X120142000Y-76708000D03*
X119380000Y-78994000D03*
X119380000Y-81280000D03*
X118000000Y-73700000D03*
X117595000Y-75438000D03*
X116793000Y-81320000D03*
X107268000Y-66715000D03*
X102696000Y-66334000D03*
X99400000Y-66650000D03*
X111459000Y-67604000D03*
X106600000Y-77000000D03*
X106760000Y-75351000D03*
X115142000Y-67477000D03*
X116800000Y-77200000D03*
X115269000Y-74135200D03*
X115269000Y-72430000D03*
X107600000Y-77000000D03*
X108458000Y-85344000D03*
X101000000Y-78500000D03*
X98600000Y-77500000D03*
X101600000Y-83900000D03*
X102000000Y-81700000D03*
X102072285Y-75172285D03*
X111500000Y-66400000D03*
X106300000Y-78400000D03*
G04 #@! TO.N,VCC*
X108919000Y-80010000D03*
X107395000Y-73954000D03*
X105296397Y-80099212D03*
X101300000Y-82300000D03*
G04 #@! TO.N,Net-(U1-Pad54)*
X110570000Y-80177000D03*
G04 #@! TO.N,Net-(U1-Pad55)*
X107100000Y-80200000D03*
G04 #@! TO.N,/!RST*
X104753400Y-79516600D03*
G04 #@! TO.N,/COM0*
X118970552Y-67335422D03*
X118974981Y-76489728D03*
G04 #@! TO.N,/COM1*
X118358989Y-67816011D03*
X118200000Y-77000000D03*
G04 #@! TO.N,/COM2*
X117400000Y-77600000D03*
X117821870Y-68382721D03*
G04 #@! TO.N,Net-(A1-Pad1)*
X104700000Y-64100000D03*
X100408282Y-64100000D03*
G04 #@! TO.N,/RFVCC*
X104093000Y-76821200D03*
X104093000Y-75732000D03*
X104474000Y-78526000D03*
G04 #@! TO.N,/BUZZ*
X109681000Y-80304000D03*
G04 #@! TD*
D23*
G04 #@! TO.N,GND*
X110706000Y-77000000D02*
X110744000Y-76962000D01*
X107649000Y-77049000D02*
X107600000Y-77000000D01*
X101287000Y-67505000D02*
X101346000Y-67564000D01*
D24*
X101287000Y-62651000D02*
X101287000Y-67505000D01*
D23*
G04 #@! TO.N,VCC*
X99762000Y-62651000D02*
X99787000Y-62651000D01*
X99812000Y-62651000D02*
X99787000Y-62651000D01*
D24*
X105617000Y-62651000D02*
X105617000Y-60844800D01*
D23*
X105617000Y-60844800D02*
X105172200Y-60400000D01*
D24*
X102985200Y-60400000D02*
X105172200Y-60400000D01*
X105172200Y-60400000D02*
X109500000Y-60400000D01*
D23*
X108919000Y-79917200D02*
X108919000Y-79958401D01*
D24*
X105617000Y-67451610D02*
X105617000Y-62651000D01*
X107395000Y-69229610D02*
X105617000Y-67451610D01*
X107395000Y-73954000D02*
X107395000Y-69229610D01*
D23*
X109414000Y-61254000D02*
X109420000Y-61260000D01*
D24*
X102985200Y-60400000D02*
X100700000Y-60400000D01*
X100700000Y-60400000D02*
X99800000Y-61300000D01*
X99800000Y-61300000D02*
X99800000Y-62700000D01*
D23*
X108919000Y-80010000D02*
X108919000Y-79919000D01*
X107027299Y-76494000D02*
X107033299Y-76500000D01*
X105933000Y-76494000D02*
X107027299Y-76494000D01*
X104942844Y-80099212D02*
X105296397Y-80099212D01*
X104499212Y-80099212D02*
X104942844Y-80099212D01*
X101300000Y-82300000D02*
X101300000Y-81724279D01*
X101300000Y-81724279D02*
X102000000Y-81024279D01*
X102000000Y-80436998D02*
X102836998Y-79600000D01*
X102000000Y-81024279D02*
X102000000Y-80436998D01*
X102836998Y-79600000D02*
X104000000Y-79600000D01*
X104000000Y-79600000D02*
X104499212Y-80099212D01*
X105296397Y-80099212D02*
X106295609Y-79100000D01*
X106295609Y-79100000D02*
X107000000Y-79100000D01*
X107915000Y-79100000D02*
X108300000Y-79485000D01*
X108394000Y-79485000D02*
X108919000Y-80010000D01*
X108300000Y-79485000D02*
X108394000Y-79485000D01*
X107100000Y-79000000D02*
X107000000Y-79100000D01*
X107033299Y-76500000D02*
X107100000Y-76566701D01*
X107100000Y-76566701D02*
X107100000Y-79000000D01*
X107100000Y-76100000D02*
X107100000Y-76600000D01*
X107395000Y-73954000D02*
X107395000Y-75805000D01*
X107395000Y-75805000D02*
X107100000Y-76100000D01*
X107100000Y-79000000D02*
X107200000Y-79100000D01*
X107000000Y-79100000D02*
X107200000Y-79100000D01*
X107200000Y-79100000D02*
X107915000Y-79100000D01*
G04 #@! TO.N,Net-(U1-Pad54)*
X114876000Y-84876000D02*
X115376000Y-84876000D01*
X110570000Y-80177000D02*
X110570000Y-80570000D01*
X110570000Y-80570000D02*
X114876000Y-84876000D01*
G04 #@! TO.N,Net-(U1-Pad55)*
X107900000Y-81000000D02*
X107100000Y-80200000D01*
X112876000Y-84876000D02*
X109000000Y-81000000D01*
X109000000Y-81000000D02*
X107900000Y-81000000D01*
G04 #@! TO.N,/!RST*
X100200000Y-82400000D02*
X97850000Y-82400000D01*
X101700000Y-80900000D02*
X100200000Y-82400000D01*
X101700000Y-80312719D02*
X101700000Y-80900000D01*
X102712719Y-79300000D02*
X101700000Y-80312719D01*
X104753400Y-79516600D02*
X104536800Y-79300000D01*
X104536800Y-79300000D02*
X102712719Y-79300000D01*
G04 #@! TO.N,/COM0*
X118974981Y-67339851D02*
X118970552Y-67335422D01*
X119311222Y-76153487D02*
X119311222Y-67676092D01*
X118974981Y-76489728D02*
X119311222Y-76153487D01*
X119311222Y-67676092D02*
X118970552Y-67335422D01*
G04 #@! TO.N,/COM1*
X118375701Y-67832723D02*
X118358989Y-67816011D01*
X118358989Y-67816011D02*
X118955611Y-68412633D01*
X118955611Y-68412633D02*
X118955611Y-75670381D01*
X118200000Y-76425992D02*
X118200000Y-77000000D01*
X118955611Y-75670381D02*
X118200000Y-76425992D01*
G04 #@! TO.N,/COM2*
X117823000Y-68381591D02*
X117821870Y-68382721D01*
X117823000Y-68380000D02*
X117823000Y-68381591D01*
X118600000Y-69160851D02*
X117821870Y-68382721D01*
X117400000Y-77600000D02*
X117400000Y-76723083D01*
X117400000Y-76723083D02*
X118600000Y-75523083D01*
X118600000Y-75523083D02*
X118600000Y-69160851D01*
G04 #@! TO.N,Net-(A1-Pad1)*
X104700000Y-64100000D02*
X103400000Y-64100000D01*
X103400000Y-64100000D02*
X103300000Y-64000000D01*
X103300000Y-64000000D02*
X103300000Y-63500000D01*
X99800000Y-65550000D02*
X99800000Y-64708282D01*
X99800000Y-64708282D02*
X100408282Y-64100000D01*
G04 #@! TO.N,/BUZZ*
X109381001Y-80603999D02*
X109681000Y-80304000D01*
X108403999Y-80603999D02*
X109381001Y-80603999D01*
X107400000Y-79600000D02*
X108403999Y-80603999D01*
X103350000Y-80900000D02*
X105400000Y-80900000D01*
X106700000Y-79600000D02*
X107400000Y-79600000D01*
X105400000Y-80900000D02*
X106700000Y-79600000D01*
G04 #@! TD*
D10*
G04 #@! TO.N,GND*
G36*
X106650000Y-80110489D02*
X106650000Y-80289511D01*
X106718508Y-80454905D01*
X106845095Y-80581492D01*
X107010489Y-80650000D01*
X107161092Y-80650000D01*
X107686394Y-81175303D01*
X107701736Y-81198264D01*
X107792701Y-81259044D01*
X107872918Y-81275000D01*
X107872919Y-81275000D01*
X107900000Y-81280387D01*
X107927081Y-81275000D01*
X108886092Y-81275000D01*
X112172082Y-84560991D01*
X112172082Y-85776000D01*
X112187604Y-85854036D01*
X112231808Y-85920192D01*
X112297964Y-85964396D01*
X112321110Y-85969000D01*
X98199274Y-85969000D01*
X98004870Y-85892030D01*
X97543879Y-85557100D01*
X97412000Y-85397685D01*
X97412000Y-84208646D01*
X98638000Y-84208646D01*
X98638000Y-84591354D01*
X98784456Y-84944929D01*
X99055071Y-85215544D01*
X99408646Y-85362000D01*
X99791354Y-85362000D01*
X100144929Y-85215544D01*
X100415544Y-84944929D01*
X100562000Y-84591354D01*
X100562000Y-84208646D01*
X100415544Y-83855071D01*
X100144929Y-83584456D01*
X99791354Y-83438000D01*
X99408646Y-83438000D01*
X99055071Y-83584456D01*
X98784456Y-83855071D01*
X98638000Y-84208646D01*
X97412000Y-84208646D01*
X97412000Y-83251551D01*
X97678646Y-83362000D01*
X98061354Y-83362000D01*
X98414929Y-83215544D01*
X98685544Y-82944929D01*
X98797353Y-82675000D01*
X100172919Y-82675000D01*
X100200000Y-82680387D01*
X100227081Y-82675000D01*
X100227082Y-82675000D01*
X100307299Y-82659044D01*
X100398264Y-82598264D01*
X100413608Y-82575300D01*
X100900615Y-82088293D01*
X100850000Y-82210489D01*
X100850000Y-82389511D01*
X100918508Y-82554905D01*
X101045095Y-82681492D01*
X101210489Y-82750000D01*
X101389511Y-82750000D01*
X101554905Y-82681492D01*
X101681492Y-82554905D01*
X101750000Y-82389511D01*
X101750000Y-82210489D01*
X101681492Y-82045095D01*
X101575000Y-81938603D01*
X101575000Y-81838187D01*
X102175301Y-81237886D01*
X102187665Y-81229625D01*
X102332689Y-81579745D01*
X102670255Y-81917311D01*
X103111305Y-82100000D01*
X103588695Y-82100000D01*
X104029745Y-81917311D01*
X104367311Y-81579745D01*
X104534962Y-81175000D01*
X105372919Y-81175000D01*
X105400000Y-81180387D01*
X105427081Y-81175000D01*
X105427082Y-81175000D01*
X105507299Y-81159044D01*
X105598264Y-81098264D01*
X105613607Y-81075301D01*
X106700614Y-79988295D01*
X106650000Y-80110489D01*
X106650000Y-80110489D01*
G37*
X106650000Y-80110489D02*
X106650000Y-80289511D01*
X106718508Y-80454905D01*
X106845095Y-80581492D01*
X107010489Y-80650000D01*
X107161092Y-80650000D01*
X107686394Y-81175303D01*
X107701736Y-81198264D01*
X107792701Y-81259044D01*
X107872918Y-81275000D01*
X107872919Y-81275000D01*
X107900000Y-81280387D01*
X107927081Y-81275000D01*
X108886092Y-81275000D01*
X112172082Y-84560991D01*
X112172082Y-85776000D01*
X112187604Y-85854036D01*
X112231808Y-85920192D01*
X112297964Y-85964396D01*
X112321110Y-85969000D01*
X98199274Y-85969000D01*
X98004870Y-85892030D01*
X97543879Y-85557100D01*
X97412000Y-85397685D01*
X97412000Y-84208646D01*
X98638000Y-84208646D01*
X98638000Y-84591354D01*
X98784456Y-84944929D01*
X99055071Y-85215544D01*
X99408646Y-85362000D01*
X99791354Y-85362000D01*
X100144929Y-85215544D01*
X100415544Y-84944929D01*
X100562000Y-84591354D01*
X100562000Y-84208646D01*
X100415544Y-83855071D01*
X100144929Y-83584456D01*
X99791354Y-83438000D01*
X99408646Y-83438000D01*
X99055071Y-83584456D01*
X98784456Y-83855071D01*
X98638000Y-84208646D01*
X97412000Y-84208646D01*
X97412000Y-83251551D01*
X97678646Y-83362000D01*
X98061354Y-83362000D01*
X98414929Y-83215544D01*
X98685544Y-82944929D01*
X98797353Y-82675000D01*
X100172919Y-82675000D01*
X100200000Y-82680387D01*
X100227081Y-82675000D01*
X100227082Y-82675000D01*
X100307299Y-82659044D01*
X100398264Y-82598264D01*
X100413608Y-82575300D01*
X100900615Y-82088293D01*
X100850000Y-82210489D01*
X100850000Y-82389511D01*
X100918508Y-82554905D01*
X101045095Y-82681492D01*
X101210489Y-82750000D01*
X101389511Y-82750000D01*
X101554905Y-82681492D01*
X101681492Y-82554905D01*
X101750000Y-82389511D01*
X101750000Y-82210489D01*
X101681492Y-82045095D01*
X101575000Y-81938603D01*
X101575000Y-81838187D01*
X102175301Y-81237886D01*
X102187665Y-81229625D01*
X102332689Y-81579745D01*
X102670255Y-81917311D01*
X103111305Y-82100000D01*
X103588695Y-82100000D01*
X104029745Y-81917311D01*
X104367311Y-81579745D01*
X104534962Y-81175000D01*
X105372919Y-81175000D01*
X105400000Y-81180387D01*
X105427081Y-81175000D01*
X105427082Y-81175000D01*
X105507299Y-81159044D01*
X105598264Y-81098264D01*
X105613607Y-81075301D01*
X106700614Y-79988295D01*
X106650000Y-80110489D01*
G36*
X121188000Y-72170478D02*
X121178207Y-72146836D01*
X120953164Y-71921793D01*
X120659130Y-71800000D01*
X120340870Y-71800000D01*
X120046836Y-71921793D01*
X119821793Y-72146836D01*
X119700000Y-72440870D01*
X119700000Y-72759130D01*
X119821793Y-73053164D01*
X120046836Y-73278207D01*
X120340870Y-73400000D01*
X120659130Y-73400000D01*
X120953164Y-73278207D01*
X121178207Y-73053164D01*
X121188000Y-73029522D01*
X121188000Y-73825963D01*
X121046417Y-74037857D01*
X121000000Y-74271212D01*
X121000001Y-75928789D01*
X121046418Y-76162144D01*
X121188000Y-76374036D01*
X121188000Y-81325963D01*
X121046417Y-81537857D01*
X121000000Y-81771212D01*
X121000001Y-83428789D01*
X121046418Y-83662144D01*
X121188000Y-83874036D01*
X121188000Y-85596013D01*
X120918048Y-85819336D01*
X120599996Y-85969000D01*
X115930890Y-85969000D01*
X115954036Y-85964396D01*
X116020192Y-85920192D01*
X116064396Y-85854036D01*
X116079918Y-85776000D01*
X116079918Y-85212090D01*
X118070752Y-85212090D01*
X118166814Y-85336491D01*
X118558167Y-85430978D01*
X118955890Y-85368509D01*
X119033186Y-85336491D01*
X119129248Y-85212090D01*
X118600000Y-84682843D01*
X118070752Y-85212090D01*
X116079918Y-85212090D01*
X116079918Y-84358167D01*
X117569022Y-84358167D01*
X117631491Y-84755890D01*
X117663509Y-84833186D01*
X117787910Y-84929248D01*
X118317157Y-84400000D01*
X118882843Y-84400000D01*
X119412090Y-84929248D01*
X119536491Y-84833186D01*
X119630978Y-84441833D01*
X119568509Y-84044110D01*
X119536491Y-83966814D01*
X119412090Y-83870752D01*
X118882843Y-84400000D01*
X118317157Y-84400000D01*
X117787910Y-83870752D01*
X117663509Y-83966814D01*
X117569022Y-84358167D01*
X116079918Y-84358167D01*
X116079918Y-83976000D01*
X116064396Y-83897964D01*
X116020192Y-83831808D01*
X115954036Y-83787604D01*
X115876000Y-83772082D01*
X114876000Y-83772082D01*
X114797964Y-83787604D01*
X114731808Y-83831808D01*
X114687604Y-83897964D01*
X114672082Y-83976000D01*
X114672082Y-84283173D01*
X113976819Y-83587910D01*
X118070752Y-83587910D01*
X118600000Y-84117157D01*
X119129248Y-83587910D01*
X119033186Y-83463509D01*
X118641833Y-83369022D01*
X118244110Y-83431491D01*
X118166814Y-83463509D01*
X118070752Y-83587910D01*
X113976819Y-83587910D01*
X110886153Y-80497244D01*
X110951492Y-80431905D01*
X111020000Y-80266511D01*
X111020000Y-80087489D01*
X110951492Y-79922095D01*
X110824905Y-79795508D01*
X110659511Y-79727000D01*
X110480489Y-79727000D01*
X110315095Y-79795508D01*
X110188508Y-79922095D01*
X110120000Y-80087489D01*
X110120000Y-80187932D01*
X110062492Y-80049095D01*
X109935905Y-79922508D01*
X109770511Y-79854000D01*
X109591489Y-79854000D01*
X109426095Y-79922508D01*
X109369000Y-79979603D01*
X109369000Y-79920489D01*
X109300492Y-79755095D01*
X109173905Y-79628508D01*
X109008511Y-79560000D01*
X108857909Y-79560000D01*
X108823918Y-79526010D01*
X108823918Y-79337500D01*
X108797168Y-79203018D01*
X108720990Y-79089010D01*
X108674571Y-79057994D01*
X108761614Y-79021940D01*
X108831940Y-78951614D01*
X108870000Y-78859728D01*
X108870000Y-78725000D01*
X108807500Y-78662500D01*
X108650000Y-78662500D01*
X108650000Y-78367500D01*
X108807500Y-78367500D01*
X108870000Y-78305000D01*
X108870000Y-78170272D01*
X108831940Y-78078386D01*
X108761614Y-78008060D01*
X108669728Y-77970000D01*
X108650000Y-77970000D01*
X108650000Y-77510489D01*
X116950000Y-77510489D01*
X116950000Y-77689511D01*
X117018508Y-77854905D01*
X117145095Y-77981492D01*
X117310489Y-78050000D01*
X117489511Y-78050000D01*
X117654905Y-77981492D01*
X117781492Y-77854905D01*
X117850000Y-77689511D01*
X117850000Y-77510489D01*
X117781492Y-77345095D01*
X117675000Y-77238603D01*
X117675000Y-76836991D01*
X117925000Y-76586991D01*
X117925000Y-76638603D01*
X117818508Y-76745095D01*
X117750000Y-76910489D01*
X117750000Y-77089511D01*
X117818508Y-77254905D01*
X117945095Y-77381492D01*
X118110489Y-77450000D01*
X118289511Y-77450000D01*
X118454905Y-77381492D01*
X118581492Y-77254905D01*
X118650000Y-77089511D01*
X118650000Y-76910489D01*
X118581492Y-76745095D01*
X118475000Y-76638603D01*
X118475000Y-76539900D01*
X118524981Y-76489919D01*
X118524981Y-76579239D01*
X118593489Y-76744633D01*
X118720076Y-76871220D01*
X118885470Y-76939728D01*
X119064492Y-76939728D01*
X119229886Y-76871220D01*
X119356473Y-76744633D01*
X119424981Y-76579239D01*
X119424981Y-76428637D01*
X119486526Y-76367092D01*
X119509486Y-76351751D01*
X119570266Y-76260786D01*
X119586222Y-76180569D01*
X119586222Y-76180568D01*
X119591609Y-76153487D01*
X119586222Y-76126406D01*
X119586222Y-67703172D01*
X119591609Y-67676091D01*
X119580499Y-67620238D01*
X119570266Y-67568793D01*
X119509486Y-67477828D01*
X119486525Y-67462486D01*
X119420552Y-67396513D01*
X119420552Y-67245911D01*
X119352044Y-67080517D01*
X119225457Y-66953930D01*
X119060063Y-66885422D01*
X118881041Y-66885422D01*
X118715647Y-66953930D01*
X118589060Y-67080517D01*
X118520552Y-67245911D01*
X118520552Y-67395856D01*
X118448500Y-67366011D01*
X118269478Y-67366011D01*
X118104084Y-67434519D01*
X117977497Y-67561106D01*
X117908989Y-67726500D01*
X117908989Y-67905522D01*
X117922093Y-67937158D01*
X117911381Y-67932721D01*
X117732359Y-67932721D01*
X117566965Y-68001229D01*
X117440378Y-68127816D01*
X117371870Y-68293210D01*
X117371870Y-68472232D01*
X117440378Y-68637626D01*
X117566965Y-68764213D01*
X117732359Y-68832721D01*
X117882962Y-68832721D01*
X118325001Y-69274761D01*
X118325000Y-75409174D01*
X117224697Y-76509478D01*
X117201737Y-76524819D01*
X117165375Y-76579239D01*
X117140957Y-76615784D01*
X117119613Y-76723083D01*
X117125001Y-76750169D01*
X117125000Y-77238603D01*
X117018508Y-77345095D01*
X116950000Y-77510489D01*
X108650000Y-77510489D01*
X108650000Y-74500000D01*
X108646194Y-74480866D01*
X108635355Y-74464645D01*
X108619134Y-74453806D01*
X108600000Y-74450000D01*
X107670000Y-74450000D01*
X107670000Y-74315397D01*
X107681861Y-74303536D01*
X107719432Y-74278432D01*
X107744536Y-74240861D01*
X107776492Y-74208905D01*
X107793786Y-74167153D01*
X107818891Y-74129581D01*
X107827707Y-74085261D01*
X107845000Y-74043511D01*
X107845000Y-70532375D01*
X110481231Y-70532375D01*
X110692111Y-73211861D01*
X110699914Y-73311011D01*
X110745066Y-73399627D01*
X110820693Y-73464219D01*
X110915282Y-73494952D01*
X113893301Y-73260577D01*
X113950705Y-73193366D01*
X113716308Y-70215075D01*
X110538634Y-70465164D01*
X110481231Y-70532375D01*
X107845000Y-70532375D01*
X107845000Y-70183692D01*
X114115075Y-70183692D01*
X114349472Y-73161982D01*
X114416683Y-73219386D01*
X117394702Y-72985011D01*
X117483319Y-72939859D01*
X117547910Y-72864232D01*
X117578644Y-72769643D01*
X117570840Y-72670493D01*
X117359960Y-69991007D01*
X117292749Y-69933603D01*
X114115075Y-70183692D01*
X107845000Y-70183692D01*
X107845000Y-69273930D01*
X107853816Y-69229610D01*
X107834752Y-69133769D01*
X107818891Y-69054029D01*
X107719432Y-68905178D01*
X107681858Y-68880072D01*
X106067000Y-67265215D01*
X106067000Y-67230357D01*
X110221356Y-67230357D01*
X110229160Y-67329507D01*
X110440040Y-70008993D01*
X110507251Y-70066397D01*
X113684925Y-69816308D01*
X113450528Y-66838018D01*
X113413783Y-66806634D01*
X113849295Y-66806634D01*
X114083692Y-69784925D01*
X117261366Y-69534836D01*
X117318769Y-69467625D01*
X117107889Y-66788139D01*
X117100086Y-66688989D01*
X117054934Y-66600373D01*
X116979307Y-66535781D01*
X116884718Y-66505048D01*
X113906699Y-66739423D01*
X113849295Y-66806634D01*
X113413783Y-66806634D01*
X113383317Y-66780614D01*
X110405298Y-67014989D01*
X110316681Y-67060141D01*
X110252090Y-67135768D01*
X110221356Y-67230357D01*
X106067000Y-67230357D01*
X106067000Y-66003000D01*
X121188000Y-66003000D01*
X121188000Y-72170478D01*
X121188000Y-72170478D01*
G37*
X121188000Y-72170478D02*
X121178207Y-72146836D01*
X120953164Y-71921793D01*
X120659130Y-71800000D01*
X120340870Y-71800000D01*
X120046836Y-71921793D01*
X119821793Y-72146836D01*
X119700000Y-72440870D01*
X119700000Y-72759130D01*
X119821793Y-73053164D01*
X120046836Y-73278207D01*
X120340870Y-73400000D01*
X120659130Y-73400000D01*
X120953164Y-73278207D01*
X121178207Y-73053164D01*
X121188000Y-73029522D01*
X121188000Y-73825963D01*
X121046417Y-74037857D01*
X121000000Y-74271212D01*
X121000001Y-75928789D01*
X121046418Y-76162144D01*
X121188000Y-76374036D01*
X121188000Y-81325963D01*
X121046417Y-81537857D01*
X121000000Y-81771212D01*
X121000001Y-83428789D01*
X121046418Y-83662144D01*
X121188000Y-83874036D01*
X121188000Y-85596013D01*
X120918048Y-85819336D01*
X120599996Y-85969000D01*
X115930890Y-85969000D01*
X115954036Y-85964396D01*
X116020192Y-85920192D01*
X116064396Y-85854036D01*
X116079918Y-85776000D01*
X116079918Y-85212090D01*
X118070752Y-85212090D01*
X118166814Y-85336491D01*
X118558167Y-85430978D01*
X118955890Y-85368509D01*
X119033186Y-85336491D01*
X119129248Y-85212090D01*
X118600000Y-84682843D01*
X118070752Y-85212090D01*
X116079918Y-85212090D01*
X116079918Y-84358167D01*
X117569022Y-84358167D01*
X117631491Y-84755890D01*
X117663509Y-84833186D01*
X117787910Y-84929248D01*
X118317157Y-84400000D01*
X118882843Y-84400000D01*
X119412090Y-84929248D01*
X119536491Y-84833186D01*
X119630978Y-84441833D01*
X119568509Y-84044110D01*
X119536491Y-83966814D01*
X119412090Y-83870752D01*
X118882843Y-84400000D01*
X118317157Y-84400000D01*
X117787910Y-83870752D01*
X117663509Y-83966814D01*
X117569022Y-84358167D01*
X116079918Y-84358167D01*
X116079918Y-83976000D01*
X116064396Y-83897964D01*
X116020192Y-83831808D01*
X115954036Y-83787604D01*
X115876000Y-83772082D01*
X114876000Y-83772082D01*
X114797964Y-83787604D01*
X114731808Y-83831808D01*
X114687604Y-83897964D01*
X114672082Y-83976000D01*
X114672082Y-84283173D01*
X113976819Y-83587910D01*
X118070752Y-83587910D01*
X118600000Y-84117157D01*
X119129248Y-83587910D01*
X119033186Y-83463509D01*
X118641833Y-83369022D01*
X118244110Y-83431491D01*
X118166814Y-83463509D01*
X118070752Y-83587910D01*
X113976819Y-83587910D01*
X110886153Y-80497244D01*
X110951492Y-80431905D01*
X111020000Y-80266511D01*
X111020000Y-80087489D01*
X110951492Y-79922095D01*
X110824905Y-79795508D01*
X110659511Y-79727000D01*
X110480489Y-79727000D01*
X110315095Y-79795508D01*
X110188508Y-79922095D01*
X110120000Y-80087489D01*
X110120000Y-80187932D01*
X110062492Y-80049095D01*
X109935905Y-79922508D01*
X109770511Y-79854000D01*
X109591489Y-79854000D01*
X109426095Y-79922508D01*
X109369000Y-79979603D01*
X109369000Y-79920489D01*
X109300492Y-79755095D01*
X109173905Y-79628508D01*
X109008511Y-79560000D01*
X108857909Y-79560000D01*
X108823918Y-79526010D01*
X108823918Y-79337500D01*
X108797168Y-79203018D01*
X108720990Y-79089010D01*
X108674571Y-79057994D01*
X108761614Y-79021940D01*
X108831940Y-78951614D01*
X108870000Y-78859728D01*
X108870000Y-78725000D01*
X108807500Y-78662500D01*
X108650000Y-78662500D01*
X108650000Y-78367500D01*
X108807500Y-78367500D01*
X108870000Y-78305000D01*
X108870000Y-78170272D01*
X108831940Y-78078386D01*
X108761614Y-78008060D01*
X108669728Y-77970000D01*
X108650000Y-77970000D01*
X108650000Y-77510489D01*
X116950000Y-77510489D01*
X116950000Y-77689511D01*
X117018508Y-77854905D01*
X117145095Y-77981492D01*
X117310489Y-78050000D01*
X117489511Y-78050000D01*
X117654905Y-77981492D01*
X117781492Y-77854905D01*
X117850000Y-77689511D01*
X117850000Y-77510489D01*
X117781492Y-77345095D01*
X117675000Y-77238603D01*
X117675000Y-76836991D01*
X117925000Y-76586991D01*
X117925000Y-76638603D01*
X117818508Y-76745095D01*
X117750000Y-76910489D01*
X117750000Y-77089511D01*
X117818508Y-77254905D01*
X117945095Y-77381492D01*
X118110489Y-77450000D01*
X118289511Y-77450000D01*
X118454905Y-77381492D01*
X118581492Y-77254905D01*
X118650000Y-77089511D01*
X118650000Y-76910489D01*
X118581492Y-76745095D01*
X118475000Y-76638603D01*
X118475000Y-76539900D01*
X118524981Y-76489919D01*
X118524981Y-76579239D01*
X118593489Y-76744633D01*
X118720076Y-76871220D01*
X118885470Y-76939728D01*
X119064492Y-76939728D01*
X119229886Y-76871220D01*
X119356473Y-76744633D01*
X119424981Y-76579239D01*
X119424981Y-76428637D01*
X119486526Y-76367092D01*
X119509486Y-76351751D01*
X119570266Y-76260786D01*
X119586222Y-76180569D01*
X119586222Y-76180568D01*
X119591609Y-76153487D01*
X119586222Y-76126406D01*
X119586222Y-67703172D01*
X119591609Y-67676091D01*
X119580499Y-67620238D01*
X119570266Y-67568793D01*
X119509486Y-67477828D01*
X119486525Y-67462486D01*
X119420552Y-67396513D01*
X119420552Y-67245911D01*
X119352044Y-67080517D01*
X119225457Y-66953930D01*
X119060063Y-66885422D01*
X118881041Y-66885422D01*
X118715647Y-66953930D01*
X118589060Y-67080517D01*
X118520552Y-67245911D01*
X118520552Y-67395856D01*
X118448500Y-67366011D01*
X118269478Y-67366011D01*
X118104084Y-67434519D01*
X117977497Y-67561106D01*
X117908989Y-67726500D01*
X117908989Y-67905522D01*
X117922093Y-67937158D01*
X117911381Y-67932721D01*
X117732359Y-67932721D01*
X117566965Y-68001229D01*
X117440378Y-68127816D01*
X117371870Y-68293210D01*
X117371870Y-68472232D01*
X117440378Y-68637626D01*
X117566965Y-68764213D01*
X117732359Y-68832721D01*
X117882962Y-68832721D01*
X118325001Y-69274761D01*
X118325000Y-75409174D01*
X117224697Y-76509478D01*
X117201737Y-76524819D01*
X117165375Y-76579239D01*
X117140957Y-76615784D01*
X117119613Y-76723083D01*
X117125001Y-76750169D01*
X117125000Y-77238603D01*
X117018508Y-77345095D01*
X116950000Y-77510489D01*
X108650000Y-77510489D01*
X108650000Y-74500000D01*
X108646194Y-74480866D01*
X108635355Y-74464645D01*
X108619134Y-74453806D01*
X108600000Y-74450000D01*
X107670000Y-74450000D01*
X107670000Y-74315397D01*
X107681861Y-74303536D01*
X107719432Y-74278432D01*
X107744536Y-74240861D01*
X107776492Y-74208905D01*
X107793786Y-74167153D01*
X107818891Y-74129581D01*
X107827707Y-74085261D01*
X107845000Y-74043511D01*
X107845000Y-70532375D01*
X110481231Y-70532375D01*
X110692111Y-73211861D01*
X110699914Y-73311011D01*
X110745066Y-73399627D01*
X110820693Y-73464219D01*
X110915282Y-73494952D01*
X113893301Y-73260577D01*
X113950705Y-73193366D01*
X113716308Y-70215075D01*
X110538634Y-70465164D01*
X110481231Y-70532375D01*
X107845000Y-70532375D01*
X107845000Y-70183692D01*
X114115075Y-70183692D01*
X114349472Y-73161982D01*
X114416683Y-73219386D01*
X117394702Y-72985011D01*
X117483319Y-72939859D01*
X117547910Y-72864232D01*
X117578644Y-72769643D01*
X117570840Y-72670493D01*
X117359960Y-69991007D01*
X117292749Y-69933603D01*
X114115075Y-70183692D01*
X107845000Y-70183692D01*
X107845000Y-69273930D01*
X107853816Y-69229610D01*
X107834752Y-69133769D01*
X107818891Y-69054029D01*
X107719432Y-68905178D01*
X107681858Y-68880072D01*
X106067000Y-67265215D01*
X106067000Y-67230357D01*
X110221356Y-67230357D01*
X110229160Y-67329507D01*
X110440040Y-70008993D01*
X110507251Y-70066397D01*
X113684925Y-69816308D01*
X113450528Y-66838018D01*
X113413783Y-66806634D01*
X113849295Y-66806634D01*
X114083692Y-69784925D01*
X117261366Y-69534836D01*
X117318769Y-69467625D01*
X117107889Y-66788139D01*
X117100086Y-66688989D01*
X117054934Y-66600373D01*
X116979307Y-66535781D01*
X116884718Y-66505048D01*
X113906699Y-66739423D01*
X113849295Y-66806634D01*
X113413783Y-66806634D01*
X113383317Y-66780614D01*
X110405298Y-67014989D01*
X110316681Y-67060141D01*
X110252090Y-67135768D01*
X110221356Y-67230357D01*
X106067000Y-67230357D01*
X106067000Y-66003000D01*
X121188000Y-66003000D01*
X121188000Y-72170478D01*
G36*
X97550000Y-66787500D02*
X97612500Y-66850000D01*
X98125000Y-66850000D01*
X98125000Y-66830000D01*
X98525000Y-66830000D01*
X98525000Y-66850000D01*
X99037500Y-66850000D01*
X99100000Y-66787500D01*
X99100000Y-66069698D01*
X99111604Y-66128036D01*
X99155808Y-66194192D01*
X99221964Y-66238396D01*
X99300000Y-66253918D01*
X100300000Y-66253918D01*
X100378036Y-66238396D01*
X100444192Y-66194192D01*
X100488396Y-66128036D01*
X100500000Y-66069698D01*
X100500000Y-66787500D01*
X100562500Y-66850000D01*
X101075000Y-66850000D01*
X101075000Y-66830000D01*
X101475000Y-66830000D01*
X101475000Y-66850000D01*
X101987500Y-66850000D01*
X102050000Y-66787500D01*
X102050000Y-66003000D01*
X105167000Y-66003000D01*
X105167000Y-67407290D01*
X105158184Y-67451610D01*
X105167000Y-67495930D01*
X105193109Y-67627190D01*
X105292568Y-67776042D01*
X105330145Y-67801150D01*
X106945001Y-69416007D01*
X106945000Y-73864489D01*
X106945000Y-74043511D01*
X106962294Y-74085262D01*
X106971109Y-74129580D01*
X106996213Y-74167151D01*
X107013508Y-74208905D01*
X107045464Y-74240861D01*
X107070568Y-74278432D01*
X107108139Y-74303536D01*
X107120000Y-74315397D01*
X107120000Y-74450000D01*
X103400000Y-74450000D01*
X103380866Y-74453806D01*
X103364645Y-74464645D01*
X103353806Y-74480866D01*
X103350000Y-74500000D01*
X103350000Y-79025000D01*
X102739800Y-79025000D01*
X102712719Y-79019613D01*
X102685638Y-79025000D01*
X102685637Y-79025000D01*
X102605420Y-79040956D01*
X102514455Y-79101736D01*
X102499113Y-79124697D01*
X101524699Y-80099112D01*
X101501736Y-80114455D01*
X101440956Y-80205421D01*
X101434330Y-80238734D01*
X101419613Y-80312719D01*
X101425000Y-80339801D01*
X101425001Y-80786091D01*
X100086092Y-82125000D01*
X98797353Y-82125000D01*
X98685544Y-81855071D01*
X98414929Y-81584456D01*
X98061354Y-81438000D01*
X97678646Y-81438000D01*
X97412000Y-81548449D01*
X97412000Y-72788101D01*
X97521793Y-73053164D01*
X97746836Y-73278207D01*
X98040870Y-73400000D01*
X98359130Y-73400000D01*
X98653164Y-73278207D01*
X98878207Y-73053164D01*
X99000000Y-72759130D01*
X99000000Y-72440870D01*
X98878207Y-72146836D01*
X98653164Y-71921793D01*
X98359130Y-71800000D01*
X98040870Y-71800000D01*
X97746836Y-71921793D01*
X97521793Y-72146836D01*
X97412000Y-72411899D01*
X97412000Y-68812500D01*
X99050000Y-68812500D01*
X99050000Y-69099728D01*
X99088060Y-69191614D01*
X99158386Y-69261940D01*
X99250272Y-69300000D01*
X99537500Y-69300000D01*
X99600000Y-69237500D01*
X99600000Y-68750000D01*
X100000000Y-68750000D01*
X100000000Y-69237500D01*
X100062500Y-69300000D01*
X100349728Y-69300000D01*
X100441614Y-69261940D01*
X100511940Y-69191614D01*
X100550000Y-69099728D01*
X100550000Y-68812500D01*
X100487500Y-68750000D01*
X100000000Y-68750000D01*
X99600000Y-68750000D01*
X99112500Y-68750000D01*
X99050000Y-68812500D01*
X97412000Y-68812500D01*
X97412000Y-67312500D01*
X97550000Y-67312500D01*
X97550000Y-68199728D01*
X97588060Y-68291614D01*
X97658386Y-68361940D01*
X97750272Y-68400000D01*
X98062500Y-68400000D01*
X98125000Y-68337500D01*
X98125000Y-67250000D01*
X98525000Y-67250000D01*
X98525000Y-68337500D01*
X98587500Y-68400000D01*
X98899728Y-68400000D01*
X98991614Y-68361940D01*
X99058027Y-68295527D01*
X99112500Y-68350000D01*
X99600000Y-68350000D01*
X99600000Y-67862500D01*
X100000000Y-67862500D01*
X100000000Y-68350000D01*
X100487500Y-68350000D01*
X100541973Y-68295527D01*
X100608386Y-68361940D01*
X100700272Y-68400000D01*
X101012500Y-68400000D01*
X101075000Y-68337500D01*
X101075000Y-67250000D01*
X101475000Y-67250000D01*
X101475000Y-68337500D01*
X101537500Y-68400000D01*
X101849728Y-68400000D01*
X101941614Y-68361940D01*
X102011940Y-68291614D01*
X102050000Y-68199728D01*
X102050000Y-67312500D01*
X101987500Y-67250000D01*
X101475000Y-67250000D01*
X101075000Y-67250000D01*
X100562500Y-67250000D01*
X100500000Y-67312500D01*
X100500000Y-67896446D01*
X100441614Y-67838060D01*
X100349728Y-67800000D01*
X100062500Y-67800000D01*
X100000000Y-67862500D01*
X99600000Y-67862500D01*
X99537500Y-67800000D01*
X99250272Y-67800000D01*
X99158386Y-67838060D01*
X99100000Y-67896446D01*
X99100000Y-67312500D01*
X99037500Y-67250000D01*
X98525000Y-67250000D01*
X98125000Y-67250000D01*
X97612500Y-67250000D01*
X97550000Y-67312500D01*
X97412000Y-67312500D01*
X97412000Y-66003000D01*
X97550000Y-66003000D01*
X97550000Y-66787500D01*
X97550000Y-66787500D01*
G37*
X97550000Y-66787500D02*
X97612500Y-66850000D01*
X98125000Y-66850000D01*
X98125000Y-66830000D01*
X98525000Y-66830000D01*
X98525000Y-66850000D01*
X99037500Y-66850000D01*
X99100000Y-66787500D01*
X99100000Y-66069698D01*
X99111604Y-66128036D01*
X99155808Y-66194192D01*
X99221964Y-66238396D01*
X99300000Y-66253918D01*
X100300000Y-66253918D01*
X100378036Y-66238396D01*
X100444192Y-66194192D01*
X100488396Y-66128036D01*
X100500000Y-66069698D01*
X100500000Y-66787500D01*
X100562500Y-66850000D01*
X101075000Y-66850000D01*
X101075000Y-66830000D01*
X101475000Y-66830000D01*
X101475000Y-66850000D01*
X101987500Y-66850000D01*
X102050000Y-66787500D01*
X102050000Y-66003000D01*
X105167000Y-66003000D01*
X105167000Y-67407290D01*
X105158184Y-67451610D01*
X105167000Y-67495930D01*
X105193109Y-67627190D01*
X105292568Y-67776042D01*
X105330145Y-67801150D01*
X106945001Y-69416007D01*
X106945000Y-73864489D01*
X106945000Y-74043511D01*
X106962294Y-74085262D01*
X106971109Y-74129580D01*
X106996213Y-74167151D01*
X107013508Y-74208905D01*
X107045464Y-74240861D01*
X107070568Y-74278432D01*
X107108139Y-74303536D01*
X107120000Y-74315397D01*
X107120000Y-74450000D01*
X103400000Y-74450000D01*
X103380866Y-74453806D01*
X103364645Y-74464645D01*
X103353806Y-74480866D01*
X103350000Y-74500000D01*
X103350000Y-79025000D01*
X102739800Y-79025000D01*
X102712719Y-79019613D01*
X102685638Y-79025000D01*
X102685637Y-79025000D01*
X102605420Y-79040956D01*
X102514455Y-79101736D01*
X102499113Y-79124697D01*
X101524699Y-80099112D01*
X101501736Y-80114455D01*
X101440956Y-80205421D01*
X101434330Y-80238734D01*
X101419613Y-80312719D01*
X101425000Y-80339801D01*
X101425001Y-80786091D01*
X100086092Y-82125000D01*
X98797353Y-82125000D01*
X98685544Y-81855071D01*
X98414929Y-81584456D01*
X98061354Y-81438000D01*
X97678646Y-81438000D01*
X97412000Y-81548449D01*
X97412000Y-72788101D01*
X97521793Y-73053164D01*
X97746836Y-73278207D01*
X98040870Y-73400000D01*
X98359130Y-73400000D01*
X98653164Y-73278207D01*
X98878207Y-73053164D01*
X99000000Y-72759130D01*
X99000000Y-72440870D01*
X98878207Y-72146836D01*
X98653164Y-71921793D01*
X98359130Y-71800000D01*
X98040870Y-71800000D01*
X97746836Y-71921793D01*
X97521793Y-72146836D01*
X97412000Y-72411899D01*
X97412000Y-68812500D01*
X99050000Y-68812500D01*
X99050000Y-69099728D01*
X99088060Y-69191614D01*
X99158386Y-69261940D01*
X99250272Y-69300000D01*
X99537500Y-69300000D01*
X99600000Y-69237500D01*
X99600000Y-68750000D01*
X100000000Y-68750000D01*
X100000000Y-69237500D01*
X100062500Y-69300000D01*
X100349728Y-69300000D01*
X100441614Y-69261940D01*
X100511940Y-69191614D01*
X100550000Y-69099728D01*
X100550000Y-68812500D01*
X100487500Y-68750000D01*
X100000000Y-68750000D01*
X99600000Y-68750000D01*
X99112500Y-68750000D01*
X99050000Y-68812500D01*
X97412000Y-68812500D01*
X97412000Y-67312500D01*
X97550000Y-67312500D01*
X97550000Y-68199728D01*
X97588060Y-68291614D01*
X97658386Y-68361940D01*
X97750272Y-68400000D01*
X98062500Y-68400000D01*
X98125000Y-68337500D01*
X98125000Y-67250000D01*
X98525000Y-67250000D01*
X98525000Y-68337500D01*
X98587500Y-68400000D01*
X98899728Y-68400000D01*
X98991614Y-68361940D01*
X99058027Y-68295527D01*
X99112500Y-68350000D01*
X99600000Y-68350000D01*
X99600000Y-67862500D01*
X100000000Y-67862500D01*
X100000000Y-68350000D01*
X100487500Y-68350000D01*
X100541973Y-68295527D01*
X100608386Y-68361940D01*
X100700272Y-68400000D01*
X101012500Y-68400000D01*
X101075000Y-68337500D01*
X101075000Y-67250000D01*
X101475000Y-67250000D01*
X101475000Y-68337500D01*
X101537500Y-68400000D01*
X101849728Y-68400000D01*
X101941614Y-68361940D01*
X102011940Y-68291614D01*
X102050000Y-68199728D01*
X102050000Y-67312500D01*
X101987500Y-67250000D01*
X101475000Y-67250000D01*
X101075000Y-67250000D01*
X100562500Y-67250000D01*
X100500000Y-67312500D01*
X100500000Y-67896446D01*
X100441614Y-67838060D01*
X100349728Y-67800000D01*
X100062500Y-67800000D01*
X100000000Y-67862500D01*
X99600000Y-67862500D01*
X99537500Y-67800000D01*
X99250272Y-67800000D01*
X99158386Y-67838060D01*
X99100000Y-67896446D01*
X99100000Y-67312500D01*
X99037500Y-67250000D01*
X98525000Y-67250000D01*
X98125000Y-67250000D01*
X97612500Y-67250000D01*
X97550000Y-67312500D01*
X97412000Y-67312500D01*
X97412000Y-66003000D01*
X97550000Y-66003000D01*
X97550000Y-66787500D01*
G36*
X105181128Y-79659881D02*
X105185221Y-79650000D01*
X105204984Y-79650000D01*
X105181128Y-79659881D01*
X105181128Y-79659881D01*
G37*
X105181128Y-79659881D02*
X105185221Y-79650000D01*
X105204984Y-79650000D01*
X105181128Y-79659881D01*
G36*
X106825001Y-78825000D02*
X106322689Y-78825000D01*
X106295608Y-78819613D01*
X106268527Y-78825000D01*
X106188310Y-78840956D01*
X106188309Y-78840957D01*
X106188308Y-78840957D01*
X106160756Y-78859367D01*
X106097345Y-78901736D01*
X106082004Y-78924696D01*
X105456701Y-79550000D01*
X105203400Y-79550000D01*
X105203400Y-79427089D01*
X105134892Y-79261695D01*
X105008305Y-79135108D01*
X104923546Y-79100000D01*
X105000000Y-79100000D01*
X105076537Y-79084776D01*
X105141421Y-79041421D01*
X105184776Y-78976537D01*
X105200000Y-78900000D01*
X105200000Y-77995151D01*
X105310990Y-77920990D01*
X105342006Y-77874571D01*
X105378060Y-77961614D01*
X105448386Y-78031940D01*
X105540272Y-78070000D01*
X105772500Y-78070000D01*
X105835000Y-78007500D01*
X105835000Y-77550000D01*
X105935000Y-77550000D01*
X105935000Y-78007500D01*
X105997500Y-78070000D01*
X106229728Y-78070000D01*
X106321614Y-78031940D01*
X106391940Y-77961614D01*
X106430000Y-77869728D01*
X106430000Y-77612500D01*
X106367500Y-77550000D01*
X105935000Y-77550000D01*
X105835000Y-77550000D01*
X105815000Y-77550000D01*
X105815000Y-77450000D01*
X105835000Y-77450000D01*
X105835000Y-77430000D01*
X105935000Y-77430000D01*
X105935000Y-77450000D01*
X106367500Y-77450000D01*
X106430000Y-77387500D01*
X106430000Y-77130272D01*
X106391940Y-77038386D01*
X106321614Y-76968060D01*
X106247506Y-76937364D01*
X106280990Y-76914990D01*
X106357168Y-76800982D01*
X106363530Y-76769000D01*
X106825000Y-76769000D01*
X106825001Y-78825000D01*
X106825001Y-78825000D01*
G37*
X106825001Y-78825000D02*
X106322689Y-78825000D01*
X106295608Y-78819613D01*
X106268527Y-78825000D01*
X106188310Y-78840956D01*
X106188309Y-78840957D01*
X106188308Y-78840957D01*
X106160756Y-78859367D01*
X106097345Y-78901736D01*
X106082004Y-78924696D01*
X105456701Y-79550000D01*
X105203400Y-79550000D01*
X105203400Y-79427089D01*
X105134892Y-79261695D01*
X105008305Y-79135108D01*
X104923546Y-79100000D01*
X105000000Y-79100000D01*
X105076537Y-79084776D01*
X105141421Y-79041421D01*
X105184776Y-78976537D01*
X105200000Y-78900000D01*
X105200000Y-77995151D01*
X105310990Y-77920990D01*
X105342006Y-77874571D01*
X105378060Y-77961614D01*
X105448386Y-78031940D01*
X105540272Y-78070000D01*
X105772500Y-78070000D01*
X105835000Y-78007500D01*
X105835000Y-77550000D01*
X105935000Y-77550000D01*
X105935000Y-78007500D01*
X105997500Y-78070000D01*
X106229728Y-78070000D01*
X106321614Y-78031940D01*
X106391940Y-77961614D01*
X106430000Y-77869728D01*
X106430000Y-77612500D01*
X106367500Y-77550000D01*
X105935000Y-77550000D01*
X105835000Y-77550000D01*
X105815000Y-77550000D01*
X105815000Y-77450000D01*
X105835000Y-77450000D01*
X105835000Y-77430000D01*
X105935000Y-77430000D01*
X105935000Y-77450000D01*
X106367500Y-77450000D01*
X106430000Y-77387500D01*
X106430000Y-77130272D01*
X106391940Y-77038386D01*
X106321614Y-76968060D01*
X106247506Y-76937364D01*
X106280990Y-76914990D01*
X106357168Y-76800982D01*
X106363530Y-76769000D01*
X106825000Y-76769000D01*
X106825001Y-78825000D01*
G36*
X107120001Y-75691090D02*
X106924699Y-75886393D01*
X106901736Y-75901736D01*
X106840956Y-75992702D01*
X106827852Y-76058579D01*
X106819613Y-76100000D01*
X106825000Y-76127082D01*
X106825000Y-76219000D01*
X106363530Y-76219000D01*
X106357168Y-76187018D01*
X106280990Y-76073010D01*
X106258592Y-76058044D01*
X106321614Y-76031940D01*
X106391940Y-75961614D01*
X106430000Y-75869728D01*
X106430000Y-75612500D01*
X106367500Y-75550000D01*
X105935000Y-75550000D01*
X105935000Y-75570000D01*
X105835000Y-75570000D01*
X105835000Y-75550000D01*
X105815000Y-75550000D01*
X105815000Y-75450000D01*
X105835000Y-75450000D01*
X105835000Y-74992500D01*
X105935000Y-74992500D01*
X105935000Y-75450000D01*
X106367500Y-75450000D01*
X106430000Y-75387500D01*
X106430000Y-75130272D01*
X106391940Y-75038386D01*
X106321614Y-74968060D01*
X106229728Y-74930000D01*
X105997500Y-74930000D01*
X105935000Y-74992500D01*
X105835000Y-74992500D01*
X105772500Y-74930000D01*
X105540272Y-74930000D01*
X105448386Y-74968060D01*
X105378060Y-75038386D01*
X105342006Y-75125429D01*
X105310990Y-75079010D01*
X105200000Y-75004849D01*
X105200000Y-75000000D01*
X105184776Y-74923463D01*
X105141421Y-74858579D01*
X105076537Y-74815224D01*
X105000000Y-74800000D01*
X104300000Y-74800000D01*
X104223463Y-74815224D01*
X104158579Y-74858579D01*
X103658579Y-75358579D01*
X103615224Y-75423463D01*
X103600000Y-75500000D01*
X103600000Y-78400000D01*
X103615224Y-78476537D01*
X103658579Y-78541421D01*
X104142158Y-79025000D01*
X103450000Y-79025000D01*
X103450000Y-74550000D01*
X107120000Y-74550000D01*
X107120001Y-75691090D01*
X107120001Y-75691090D01*
G37*
X107120001Y-75691090D02*
X106924699Y-75886393D01*
X106901736Y-75901736D01*
X106840956Y-75992702D01*
X106827852Y-76058579D01*
X106819613Y-76100000D01*
X106825000Y-76127082D01*
X106825000Y-76219000D01*
X106363530Y-76219000D01*
X106357168Y-76187018D01*
X106280990Y-76073010D01*
X106258592Y-76058044D01*
X106321614Y-76031940D01*
X106391940Y-75961614D01*
X106430000Y-75869728D01*
X106430000Y-75612500D01*
X106367500Y-75550000D01*
X105935000Y-75550000D01*
X105935000Y-75570000D01*
X105835000Y-75570000D01*
X105835000Y-75550000D01*
X105815000Y-75550000D01*
X105815000Y-75450000D01*
X105835000Y-75450000D01*
X105835000Y-74992500D01*
X105935000Y-74992500D01*
X105935000Y-75450000D01*
X106367500Y-75450000D01*
X106430000Y-75387500D01*
X106430000Y-75130272D01*
X106391940Y-75038386D01*
X106321614Y-74968060D01*
X106229728Y-74930000D01*
X105997500Y-74930000D01*
X105935000Y-74992500D01*
X105835000Y-74992500D01*
X105772500Y-74930000D01*
X105540272Y-74930000D01*
X105448386Y-74968060D01*
X105378060Y-75038386D01*
X105342006Y-75125429D01*
X105310990Y-75079010D01*
X105200000Y-75004849D01*
X105200000Y-75000000D01*
X105184776Y-74923463D01*
X105141421Y-74858579D01*
X105076537Y-74815224D01*
X105000000Y-74800000D01*
X104300000Y-74800000D01*
X104223463Y-74815224D01*
X104158579Y-74858579D01*
X103658579Y-75358579D01*
X103615224Y-75423463D01*
X103600000Y-75500000D01*
X103600000Y-78400000D01*
X103615224Y-78476537D01*
X103658579Y-78541421D01*
X104142158Y-79025000D01*
X103450000Y-79025000D01*
X103450000Y-74550000D01*
X107120000Y-74550000D01*
X107120001Y-75691090D01*
G36*
X108550000Y-77970000D02*
X108412500Y-77970000D01*
X108350000Y-78032500D01*
X108350000Y-78465000D01*
X108370000Y-78465000D01*
X108370000Y-78565000D01*
X108350000Y-78565000D01*
X108350000Y-78585000D01*
X108250000Y-78585000D01*
X108250000Y-78565000D01*
X107792500Y-78565000D01*
X107730000Y-78627500D01*
X107730000Y-78825000D01*
X107375000Y-78825000D01*
X107375000Y-78170272D01*
X107730000Y-78170272D01*
X107730000Y-78402500D01*
X107792500Y-78465000D01*
X108250000Y-78465000D01*
X108250000Y-78032500D01*
X108187500Y-77970000D01*
X107930272Y-77970000D01*
X107838386Y-78008060D01*
X107768060Y-78078386D01*
X107730000Y-78170272D01*
X107375000Y-78170272D01*
X107375000Y-76593781D01*
X107380387Y-76566700D01*
X107375000Y-76539619D01*
X107375000Y-76213908D01*
X107570303Y-76018606D01*
X107593264Y-76003264D01*
X107654044Y-75912299D01*
X107670000Y-75832082D01*
X107675387Y-75805001D01*
X107670000Y-75777920D01*
X107670000Y-74550000D01*
X108550000Y-74550000D01*
X108550000Y-77970000D01*
X108550000Y-77970000D01*
G37*
X108550000Y-77970000D02*
X108412500Y-77970000D01*
X108350000Y-78032500D01*
X108350000Y-78465000D01*
X108370000Y-78465000D01*
X108370000Y-78565000D01*
X108350000Y-78565000D01*
X108350000Y-78585000D01*
X108250000Y-78585000D01*
X108250000Y-78565000D01*
X107792500Y-78565000D01*
X107730000Y-78627500D01*
X107730000Y-78825000D01*
X107375000Y-78825000D01*
X107375000Y-78170272D01*
X107730000Y-78170272D01*
X107730000Y-78402500D01*
X107792500Y-78465000D01*
X108250000Y-78465000D01*
X108250000Y-78032500D01*
X108187500Y-77970000D01*
X107930272Y-77970000D01*
X107838386Y-78008060D01*
X107768060Y-78078386D01*
X107730000Y-78170272D01*
X107375000Y-78170272D01*
X107375000Y-76593781D01*
X107380387Y-76566700D01*
X107375000Y-76539619D01*
X107375000Y-76213908D01*
X107570303Y-76018606D01*
X107593264Y-76003264D01*
X107654044Y-75912299D01*
X107670000Y-75832082D01*
X107675387Y-75805001D01*
X107670000Y-75777920D01*
X107670000Y-74550000D01*
X108550000Y-74550000D01*
X108550000Y-77970000D01*
G04 #@! TO.N,/RFVCC*
G36*
X104370000Y-75130272D02*
X104370000Y-75387500D01*
X104432500Y-75450000D01*
X104865000Y-75450000D01*
X104865000Y-75430000D01*
X104950000Y-75430000D01*
X104950000Y-75800000D01*
X104953806Y-75819134D01*
X104964645Y-75835355D01*
X104965000Y-75835710D01*
X104965000Y-76444000D01*
X104985000Y-76444000D01*
X104985000Y-76544000D01*
X104965000Y-76544000D01*
X104965000Y-77064290D01*
X104964645Y-77064645D01*
X104953806Y-77080866D01*
X104950000Y-77100000D01*
X104950000Y-78850000D01*
X104320710Y-78850000D01*
X103850000Y-78379290D01*
X103850000Y-77612500D01*
X104370000Y-77612500D01*
X104370000Y-77869728D01*
X104408060Y-77961614D01*
X104478386Y-78031940D01*
X104570272Y-78070000D01*
X104802500Y-78070000D01*
X104865000Y-78007500D01*
X104865000Y-77550000D01*
X104432500Y-77550000D01*
X104370000Y-77612500D01*
X103850000Y-77612500D01*
X103850000Y-76606500D01*
X104370000Y-76606500D01*
X104370000Y-76863728D01*
X104408060Y-76955614D01*
X104449446Y-76997000D01*
X104408060Y-77038386D01*
X104370000Y-77130272D01*
X104370000Y-77387500D01*
X104432500Y-77450000D01*
X104865000Y-77450000D01*
X104865000Y-76544000D01*
X104432500Y-76544000D01*
X104370000Y-76606500D01*
X103850000Y-76606500D01*
X103850000Y-75612500D01*
X104370000Y-75612500D01*
X104370000Y-75869728D01*
X104408060Y-75961614D01*
X104443446Y-75997000D01*
X104408060Y-76032386D01*
X104370000Y-76124272D01*
X104370000Y-76381500D01*
X104432500Y-76444000D01*
X104865000Y-76444000D01*
X104865000Y-75550000D01*
X104432500Y-75550000D01*
X104370000Y-75612500D01*
X103850000Y-75612500D01*
X103850000Y-75520710D01*
X104320710Y-75050000D01*
X104403249Y-75050000D01*
X104370000Y-75130272D01*
X104370000Y-75130272D01*
G37*
X104370000Y-75130272D02*
X104370000Y-75387500D01*
X104432500Y-75450000D01*
X104865000Y-75450000D01*
X104865000Y-75430000D01*
X104950000Y-75430000D01*
X104950000Y-75800000D01*
X104953806Y-75819134D01*
X104964645Y-75835355D01*
X104965000Y-75835710D01*
X104965000Y-76444000D01*
X104985000Y-76444000D01*
X104985000Y-76544000D01*
X104965000Y-76544000D01*
X104965000Y-77064290D01*
X104964645Y-77064645D01*
X104953806Y-77080866D01*
X104950000Y-77100000D01*
X104950000Y-78850000D01*
X104320710Y-78850000D01*
X103850000Y-78379290D01*
X103850000Y-77612500D01*
X104370000Y-77612500D01*
X104370000Y-77869728D01*
X104408060Y-77961614D01*
X104478386Y-78031940D01*
X104570272Y-78070000D01*
X104802500Y-78070000D01*
X104865000Y-78007500D01*
X104865000Y-77550000D01*
X104432500Y-77550000D01*
X104370000Y-77612500D01*
X103850000Y-77612500D01*
X103850000Y-76606500D01*
X104370000Y-76606500D01*
X104370000Y-76863728D01*
X104408060Y-76955614D01*
X104449446Y-76997000D01*
X104408060Y-77038386D01*
X104370000Y-77130272D01*
X104370000Y-77387500D01*
X104432500Y-77450000D01*
X104865000Y-77450000D01*
X104865000Y-76544000D01*
X104432500Y-76544000D01*
X104370000Y-76606500D01*
X103850000Y-76606500D01*
X103850000Y-75612500D01*
X104370000Y-75612500D01*
X104370000Y-75869728D01*
X104408060Y-75961614D01*
X104443446Y-75997000D01*
X104408060Y-76032386D01*
X104370000Y-76124272D01*
X104370000Y-76381500D01*
X104432500Y-76444000D01*
X104865000Y-76444000D01*
X104865000Y-75550000D01*
X104432500Y-75550000D01*
X104370000Y-75612500D01*
X103850000Y-75612500D01*
X103850000Y-75520710D01*
X104320710Y-75050000D01*
X104403249Y-75050000D01*
X104370000Y-75130272D01*
G04 #@! TD*
M02*
