G04 #@! TF.GenerationSoftware,KiCad,Pcbnew,5.0.0+dfsg1-2*
G04 #@! TF.CreationDate,2018-09-16T15:45:03-04:00*
G04 #@! TF.ProjectId,goodwatch30,676F6F64776174636833302E6B696361,30*
G04 #@! TF.SameCoordinates,Original*
G04 #@! TF.FileFunction,Soldermask,Top*
G04 #@! TF.FilePolarity,Negative*
%FSLAX46Y46*%
G04 Gerber Fmt 4.6, Leading zero omitted, Abs format (unit mm)*
G04 Created by KiCad (PCBNEW 5.0.0+dfsg1-2) date Sun Sep 16 15:45:03 2018*
%MOMM*%
%LPD*%
G01*
G04 APERTURE LIST*
%ADD10C,0.100000*%
%ADD11C,0.690000*%
%ADD12C,1.624000*%
%ADD13C,1.100000*%
%ADD14C,1.300000*%
%ADD15O,1.300000X2.800000*%
%ADD16R,1.085000X1.850000*%
%ADD17R,0.410000X1.850000*%
%ADD18C,0.430000*%
%ADD19C,0.450000*%
%ADD20C,0.950000*%
%ADD21O,0.900000X0.350000*%
%ADD22O,0.350000X0.900000*%
%ADD23R,4.350000X4.350000*%
G04 APERTURE END LIST*
D10*
G04 #@! TO.C,C2*
G36*
X114927408Y-74854831D02*
X114944153Y-74857315D01*
X114960574Y-74861428D01*
X114976513Y-74867131D01*
X114991816Y-74874369D01*
X115006336Y-74883071D01*
X115019933Y-74893156D01*
X115032476Y-74904524D01*
X115043844Y-74917067D01*
X115053929Y-74930664D01*
X115062631Y-74945184D01*
X115069869Y-74960487D01*
X115075572Y-74976426D01*
X115079685Y-74992847D01*
X115082169Y-75009592D01*
X115083000Y-75026500D01*
X115083000Y-75421500D01*
X115082169Y-75438408D01*
X115079685Y-75455153D01*
X115075572Y-75471574D01*
X115069869Y-75487513D01*
X115062631Y-75502816D01*
X115053929Y-75517336D01*
X115043844Y-75530933D01*
X115032476Y-75543476D01*
X115019933Y-75554844D01*
X115006336Y-75564929D01*
X114991816Y-75573631D01*
X114976513Y-75580869D01*
X114960574Y-75586572D01*
X114944153Y-75590685D01*
X114927408Y-75593169D01*
X114910500Y-75594000D01*
X114565500Y-75594000D01*
X114548592Y-75593169D01*
X114531847Y-75590685D01*
X114515426Y-75586572D01*
X114499487Y-75580869D01*
X114484184Y-75573631D01*
X114469664Y-75564929D01*
X114456067Y-75554844D01*
X114443524Y-75543476D01*
X114432156Y-75530933D01*
X114422071Y-75517336D01*
X114413369Y-75502816D01*
X114406131Y-75487513D01*
X114400428Y-75471574D01*
X114396315Y-75455153D01*
X114393831Y-75438408D01*
X114393000Y-75421500D01*
X114393000Y-75026500D01*
X114393831Y-75009592D01*
X114396315Y-74992847D01*
X114400428Y-74976426D01*
X114406131Y-74960487D01*
X114413369Y-74945184D01*
X114422071Y-74930664D01*
X114432156Y-74917067D01*
X114443524Y-74904524D01*
X114456067Y-74893156D01*
X114469664Y-74883071D01*
X114484184Y-74874369D01*
X114499487Y-74867131D01*
X114515426Y-74861428D01*
X114531847Y-74857315D01*
X114548592Y-74854831D01*
X114565500Y-74854000D01*
X114910500Y-74854000D01*
X114927408Y-74854831D01*
X114927408Y-74854831D01*
G37*
D11*
X114738000Y-75224000D03*
D10*
G36*
X113957408Y-74854831D02*
X113974153Y-74857315D01*
X113990574Y-74861428D01*
X114006513Y-74867131D01*
X114021816Y-74874369D01*
X114036336Y-74883071D01*
X114049933Y-74893156D01*
X114062476Y-74904524D01*
X114073844Y-74917067D01*
X114083929Y-74930664D01*
X114092631Y-74945184D01*
X114099869Y-74960487D01*
X114105572Y-74976426D01*
X114109685Y-74992847D01*
X114112169Y-75009592D01*
X114113000Y-75026500D01*
X114113000Y-75421500D01*
X114112169Y-75438408D01*
X114109685Y-75455153D01*
X114105572Y-75471574D01*
X114099869Y-75487513D01*
X114092631Y-75502816D01*
X114083929Y-75517336D01*
X114073844Y-75530933D01*
X114062476Y-75543476D01*
X114049933Y-75554844D01*
X114036336Y-75564929D01*
X114021816Y-75573631D01*
X114006513Y-75580869D01*
X113990574Y-75586572D01*
X113974153Y-75590685D01*
X113957408Y-75593169D01*
X113940500Y-75594000D01*
X113595500Y-75594000D01*
X113578592Y-75593169D01*
X113561847Y-75590685D01*
X113545426Y-75586572D01*
X113529487Y-75580869D01*
X113514184Y-75573631D01*
X113499664Y-75564929D01*
X113486067Y-75554844D01*
X113473524Y-75543476D01*
X113462156Y-75530933D01*
X113452071Y-75517336D01*
X113443369Y-75502816D01*
X113436131Y-75487513D01*
X113430428Y-75471574D01*
X113426315Y-75455153D01*
X113423831Y-75438408D01*
X113423000Y-75421500D01*
X113423000Y-75026500D01*
X113423831Y-75009592D01*
X113426315Y-74992847D01*
X113430428Y-74976426D01*
X113436131Y-74960487D01*
X113443369Y-74945184D01*
X113452071Y-74930664D01*
X113462156Y-74917067D01*
X113473524Y-74904524D01*
X113486067Y-74893156D01*
X113499664Y-74883071D01*
X113514184Y-74874369D01*
X113529487Y-74867131D01*
X113545426Y-74861428D01*
X113561847Y-74857315D01*
X113578592Y-74854831D01*
X113595500Y-74854000D01*
X113940500Y-74854000D01*
X113957408Y-74854831D01*
X113957408Y-74854831D01*
G37*
D11*
X113768000Y-75224000D03*
G04 #@! TD*
D10*
G04 #@! TO.C,C5*
G36*
X113957408Y-75870831D02*
X113974153Y-75873315D01*
X113990574Y-75877428D01*
X114006513Y-75883131D01*
X114021816Y-75890369D01*
X114036336Y-75899071D01*
X114049933Y-75909156D01*
X114062476Y-75920524D01*
X114073844Y-75933067D01*
X114083929Y-75946664D01*
X114092631Y-75961184D01*
X114099869Y-75976487D01*
X114105572Y-75992426D01*
X114109685Y-76008847D01*
X114112169Y-76025592D01*
X114113000Y-76042500D01*
X114113000Y-76437500D01*
X114112169Y-76454408D01*
X114109685Y-76471153D01*
X114105572Y-76487574D01*
X114099869Y-76503513D01*
X114092631Y-76518816D01*
X114083929Y-76533336D01*
X114073844Y-76546933D01*
X114062476Y-76559476D01*
X114049933Y-76570844D01*
X114036336Y-76580929D01*
X114021816Y-76589631D01*
X114006513Y-76596869D01*
X113990574Y-76602572D01*
X113974153Y-76606685D01*
X113957408Y-76609169D01*
X113940500Y-76610000D01*
X113595500Y-76610000D01*
X113578592Y-76609169D01*
X113561847Y-76606685D01*
X113545426Y-76602572D01*
X113529487Y-76596869D01*
X113514184Y-76589631D01*
X113499664Y-76580929D01*
X113486067Y-76570844D01*
X113473524Y-76559476D01*
X113462156Y-76546933D01*
X113452071Y-76533336D01*
X113443369Y-76518816D01*
X113436131Y-76503513D01*
X113430428Y-76487574D01*
X113426315Y-76471153D01*
X113423831Y-76454408D01*
X113423000Y-76437500D01*
X113423000Y-76042500D01*
X113423831Y-76025592D01*
X113426315Y-76008847D01*
X113430428Y-75992426D01*
X113436131Y-75976487D01*
X113443369Y-75961184D01*
X113452071Y-75946664D01*
X113462156Y-75933067D01*
X113473524Y-75920524D01*
X113486067Y-75909156D01*
X113499664Y-75899071D01*
X113514184Y-75890369D01*
X113529487Y-75883131D01*
X113545426Y-75877428D01*
X113561847Y-75873315D01*
X113578592Y-75870831D01*
X113595500Y-75870000D01*
X113940500Y-75870000D01*
X113957408Y-75870831D01*
X113957408Y-75870831D01*
G37*
D11*
X113768000Y-76240000D03*
D10*
G36*
X114927408Y-75870831D02*
X114944153Y-75873315D01*
X114960574Y-75877428D01*
X114976513Y-75883131D01*
X114991816Y-75890369D01*
X115006336Y-75899071D01*
X115019933Y-75909156D01*
X115032476Y-75920524D01*
X115043844Y-75933067D01*
X115053929Y-75946664D01*
X115062631Y-75961184D01*
X115069869Y-75976487D01*
X115075572Y-75992426D01*
X115079685Y-76008847D01*
X115082169Y-76025592D01*
X115083000Y-76042500D01*
X115083000Y-76437500D01*
X115082169Y-76454408D01*
X115079685Y-76471153D01*
X115075572Y-76487574D01*
X115069869Y-76503513D01*
X115062631Y-76518816D01*
X115053929Y-76533336D01*
X115043844Y-76546933D01*
X115032476Y-76559476D01*
X115019933Y-76570844D01*
X115006336Y-76580929D01*
X114991816Y-76589631D01*
X114976513Y-76596869D01*
X114960574Y-76602572D01*
X114944153Y-76606685D01*
X114927408Y-76609169D01*
X114910500Y-76610000D01*
X114565500Y-76610000D01*
X114548592Y-76609169D01*
X114531847Y-76606685D01*
X114515426Y-76602572D01*
X114499487Y-76596869D01*
X114484184Y-76589631D01*
X114469664Y-76580929D01*
X114456067Y-76570844D01*
X114443524Y-76559476D01*
X114432156Y-76546933D01*
X114422071Y-76533336D01*
X114413369Y-76518816D01*
X114406131Y-76503513D01*
X114400428Y-76487574D01*
X114396315Y-76471153D01*
X114393831Y-76454408D01*
X114393000Y-76437500D01*
X114393000Y-76042500D01*
X114393831Y-76025592D01*
X114396315Y-76008847D01*
X114400428Y-75992426D01*
X114406131Y-75976487D01*
X114413369Y-75961184D01*
X114422071Y-75946664D01*
X114432156Y-75933067D01*
X114443524Y-75920524D01*
X114456067Y-75909156D01*
X114469664Y-75899071D01*
X114484184Y-75890369D01*
X114499487Y-75883131D01*
X114515426Y-75877428D01*
X114531847Y-75873315D01*
X114548592Y-75870831D01*
X114565500Y-75870000D01*
X114910500Y-75870000D01*
X114927408Y-75870831D01*
X114927408Y-75870831D01*
G37*
D11*
X114738000Y-76240000D03*
G04 #@! TD*
D10*
G04 #@! TO.C,C6*
G36*
X100704408Y-72670431D02*
X100721153Y-72672915D01*
X100737574Y-72677028D01*
X100753513Y-72682731D01*
X100768816Y-72689969D01*
X100783336Y-72698671D01*
X100796933Y-72708756D01*
X100809476Y-72720124D01*
X100820844Y-72732667D01*
X100830929Y-72746264D01*
X100839631Y-72760784D01*
X100846869Y-72776087D01*
X100852572Y-72792026D01*
X100856685Y-72808447D01*
X100859169Y-72825192D01*
X100860000Y-72842100D01*
X100860000Y-73237100D01*
X100859169Y-73254008D01*
X100856685Y-73270753D01*
X100852572Y-73287174D01*
X100846869Y-73303113D01*
X100839631Y-73318416D01*
X100830929Y-73332936D01*
X100820844Y-73346533D01*
X100809476Y-73359076D01*
X100796933Y-73370444D01*
X100783336Y-73380529D01*
X100768816Y-73389231D01*
X100753513Y-73396469D01*
X100737574Y-73402172D01*
X100721153Y-73406285D01*
X100704408Y-73408769D01*
X100687500Y-73409600D01*
X100342500Y-73409600D01*
X100325592Y-73408769D01*
X100308847Y-73406285D01*
X100292426Y-73402172D01*
X100276487Y-73396469D01*
X100261184Y-73389231D01*
X100246664Y-73380529D01*
X100233067Y-73370444D01*
X100220524Y-73359076D01*
X100209156Y-73346533D01*
X100199071Y-73332936D01*
X100190369Y-73318416D01*
X100183131Y-73303113D01*
X100177428Y-73287174D01*
X100173315Y-73270753D01*
X100170831Y-73254008D01*
X100170000Y-73237100D01*
X100170000Y-72842100D01*
X100170831Y-72825192D01*
X100173315Y-72808447D01*
X100177428Y-72792026D01*
X100183131Y-72776087D01*
X100190369Y-72760784D01*
X100199071Y-72746264D01*
X100209156Y-72732667D01*
X100220524Y-72720124D01*
X100233067Y-72708756D01*
X100246664Y-72698671D01*
X100261184Y-72689969D01*
X100276487Y-72682731D01*
X100292426Y-72677028D01*
X100308847Y-72672915D01*
X100325592Y-72670431D01*
X100342500Y-72669600D01*
X100687500Y-72669600D01*
X100704408Y-72670431D01*
X100704408Y-72670431D01*
G37*
D11*
X100515000Y-73039600D03*
D10*
G36*
X101674408Y-72670431D02*
X101691153Y-72672915D01*
X101707574Y-72677028D01*
X101723513Y-72682731D01*
X101738816Y-72689969D01*
X101753336Y-72698671D01*
X101766933Y-72708756D01*
X101779476Y-72720124D01*
X101790844Y-72732667D01*
X101800929Y-72746264D01*
X101809631Y-72760784D01*
X101816869Y-72776087D01*
X101822572Y-72792026D01*
X101826685Y-72808447D01*
X101829169Y-72825192D01*
X101830000Y-72842100D01*
X101830000Y-73237100D01*
X101829169Y-73254008D01*
X101826685Y-73270753D01*
X101822572Y-73287174D01*
X101816869Y-73303113D01*
X101809631Y-73318416D01*
X101800929Y-73332936D01*
X101790844Y-73346533D01*
X101779476Y-73359076D01*
X101766933Y-73370444D01*
X101753336Y-73380529D01*
X101738816Y-73389231D01*
X101723513Y-73396469D01*
X101707574Y-73402172D01*
X101691153Y-73406285D01*
X101674408Y-73408769D01*
X101657500Y-73409600D01*
X101312500Y-73409600D01*
X101295592Y-73408769D01*
X101278847Y-73406285D01*
X101262426Y-73402172D01*
X101246487Y-73396469D01*
X101231184Y-73389231D01*
X101216664Y-73380529D01*
X101203067Y-73370444D01*
X101190524Y-73359076D01*
X101179156Y-73346533D01*
X101169071Y-73332936D01*
X101160369Y-73318416D01*
X101153131Y-73303113D01*
X101147428Y-73287174D01*
X101143315Y-73270753D01*
X101140831Y-73254008D01*
X101140000Y-73237100D01*
X101140000Y-72842100D01*
X101140831Y-72825192D01*
X101143315Y-72808447D01*
X101147428Y-72792026D01*
X101153131Y-72776087D01*
X101160369Y-72760784D01*
X101169071Y-72746264D01*
X101179156Y-72732667D01*
X101190524Y-72720124D01*
X101203067Y-72708756D01*
X101216664Y-72698671D01*
X101231184Y-72689969D01*
X101246487Y-72682731D01*
X101262426Y-72677028D01*
X101278847Y-72672915D01*
X101295592Y-72670431D01*
X101312500Y-72669600D01*
X101657500Y-72669600D01*
X101674408Y-72670431D01*
X101674408Y-72670431D01*
G37*
D11*
X101485000Y-73039600D03*
G04 #@! TD*
D10*
G04 #@! TO.C,C7*
G36*
X98694008Y-75140831D02*
X98710753Y-75143315D01*
X98727174Y-75147428D01*
X98743113Y-75153131D01*
X98758416Y-75160369D01*
X98772936Y-75169071D01*
X98786533Y-75179156D01*
X98799076Y-75190524D01*
X98810444Y-75203067D01*
X98820529Y-75216664D01*
X98829231Y-75231184D01*
X98836469Y-75246487D01*
X98842172Y-75262426D01*
X98846285Y-75278847D01*
X98848769Y-75295592D01*
X98849600Y-75312500D01*
X98849600Y-75657500D01*
X98848769Y-75674408D01*
X98846285Y-75691153D01*
X98842172Y-75707574D01*
X98836469Y-75723513D01*
X98829231Y-75738816D01*
X98820529Y-75753336D01*
X98810444Y-75766933D01*
X98799076Y-75779476D01*
X98786533Y-75790844D01*
X98772936Y-75800929D01*
X98758416Y-75809631D01*
X98743113Y-75816869D01*
X98727174Y-75822572D01*
X98710753Y-75826685D01*
X98694008Y-75829169D01*
X98677100Y-75830000D01*
X98282100Y-75830000D01*
X98265192Y-75829169D01*
X98248447Y-75826685D01*
X98232026Y-75822572D01*
X98216087Y-75816869D01*
X98200784Y-75809631D01*
X98186264Y-75800929D01*
X98172667Y-75790844D01*
X98160124Y-75779476D01*
X98148756Y-75766933D01*
X98138671Y-75753336D01*
X98129969Y-75738816D01*
X98122731Y-75723513D01*
X98117028Y-75707574D01*
X98112915Y-75691153D01*
X98110431Y-75674408D01*
X98109600Y-75657500D01*
X98109600Y-75312500D01*
X98110431Y-75295592D01*
X98112915Y-75278847D01*
X98117028Y-75262426D01*
X98122731Y-75246487D01*
X98129969Y-75231184D01*
X98138671Y-75216664D01*
X98148756Y-75203067D01*
X98160124Y-75190524D01*
X98172667Y-75179156D01*
X98186264Y-75169071D01*
X98200784Y-75160369D01*
X98216087Y-75153131D01*
X98232026Y-75147428D01*
X98248447Y-75143315D01*
X98265192Y-75140831D01*
X98282100Y-75140000D01*
X98677100Y-75140000D01*
X98694008Y-75140831D01*
X98694008Y-75140831D01*
G37*
D11*
X98479600Y-75485000D03*
D10*
G36*
X98694008Y-74170831D02*
X98710753Y-74173315D01*
X98727174Y-74177428D01*
X98743113Y-74183131D01*
X98758416Y-74190369D01*
X98772936Y-74199071D01*
X98786533Y-74209156D01*
X98799076Y-74220524D01*
X98810444Y-74233067D01*
X98820529Y-74246664D01*
X98829231Y-74261184D01*
X98836469Y-74276487D01*
X98842172Y-74292426D01*
X98846285Y-74308847D01*
X98848769Y-74325592D01*
X98849600Y-74342500D01*
X98849600Y-74687500D01*
X98848769Y-74704408D01*
X98846285Y-74721153D01*
X98842172Y-74737574D01*
X98836469Y-74753513D01*
X98829231Y-74768816D01*
X98820529Y-74783336D01*
X98810444Y-74796933D01*
X98799076Y-74809476D01*
X98786533Y-74820844D01*
X98772936Y-74830929D01*
X98758416Y-74839631D01*
X98743113Y-74846869D01*
X98727174Y-74852572D01*
X98710753Y-74856685D01*
X98694008Y-74859169D01*
X98677100Y-74860000D01*
X98282100Y-74860000D01*
X98265192Y-74859169D01*
X98248447Y-74856685D01*
X98232026Y-74852572D01*
X98216087Y-74846869D01*
X98200784Y-74839631D01*
X98186264Y-74830929D01*
X98172667Y-74820844D01*
X98160124Y-74809476D01*
X98148756Y-74796933D01*
X98138671Y-74783336D01*
X98129969Y-74768816D01*
X98122731Y-74753513D01*
X98117028Y-74737574D01*
X98112915Y-74721153D01*
X98110431Y-74704408D01*
X98109600Y-74687500D01*
X98109600Y-74342500D01*
X98110431Y-74325592D01*
X98112915Y-74308847D01*
X98117028Y-74292426D01*
X98122731Y-74276487D01*
X98129969Y-74261184D01*
X98138671Y-74246664D01*
X98148756Y-74233067D01*
X98160124Y-74220524D01*
X98172667Y-74209156D01*
X98186264Y-74199071D01*
X98200784Y-74190369D01*
X98216087Y-74183131D01*
X98232026Y-74177428D01*
X98248447Y-74173315D01*
X98265192Y-74170831D01*
X98282100Y-74170000D01*
X98677100Y-74170000D01*
X98694008Y-74170831D01*
X98694008Y-74170831D01*
G37*
D11*
X98479600Y-74515000D03*
G04 #@! TD*
D10*
G04 #@! TO.C,C10*
G36*
X100674408Y-81430831D02*
X100691153Y-81433315D01*
X100707574Y-81437428D01*
X100723513Y-81443131D01*
X100738816Y-81450369D01*
X100753336Y-81459071D01*
X100766933Y-81469156D01*
X100779476Y-81480524D01*
X100790844Y-81493067D01*
X100800929Y-81506664D01*
X100809631Y-81521184D01*
X100816869Y-81536487D01*
X100822572Y-81552426D01*
X100826685Y-81568847D01*
X100829169Y-81585592D01*
X100830000Y-81602500D01*
X100830000Y-81997500D01*
X100829169Y-82014408D01*
X100826685Y-82031153D01*
X100822572Y-82047574D01*
X100816869Y-82063513D01*
X100809631Y-82078816D01*
X100800929Y-82093336D01*
X100790844Y-82106933D01*
X100779476Y-82119476D01*
X100766933Y-82130844D01*
X100753336Y-82140929D01*
X100738816Y-82149631D01*
X100723513Y-82156869D01*
X100707574Y-82162572D01*
X100691153Y-82166685D01*
X100674408Y-82169169D01*
X100657500Y-82170000D01*
X100312500Y-82170000D01*
X100295592Y-82169169D01*
X100278847Y-82166685D01*
X100262426Y-82162572D01*
X100246487Y-82156869D01*
X100231184Y-82149631D01*
X100216664Y-82140929D01*
X100203067Y-82130844D01*
X100190524Y-82119476D01*
X100179156Y-82106933D01*
X100169071Y-82093336D01*
X100160369Y-82078816D01*
X100153131Y-82063513D01*
X100147428Y-82047574D01*
X100143315Y-82031153D01*
X100140831Y-82014408D01*
X100140000Y-81997500D01*
X100140000Y-81602500D01*
X100140831Y-81585592D01*
X100143315Y-81568847D01*
X100147428Y-81552426D01*
X100153131Y-81536487D01*
X100160369Y-81521184D01*
X100169071Y-81506664D01*
X100179156Y-81493067D01*
X100190524Y-81480524D01*
X100203067Y-81469156D01*
X100216664Y-81459071D01*
X100231184Y-81450369D01*
X100246487Y-81443131D01*
X100262426Y-81437428D01*
X100278847Y-81433315D01*
X100295592Y-81430831D01*
X100312500Y-81430000D01*
X100657500Y-81430000D01*
X100674408Y-81430831D01*
X100674408Y-81430831D01*
G37*
D11*
X100485000Y-81800000D03*
D10*
G36*
X99704408Y-81430831D02*
X99721153Y-81433315D01*
X99737574Y-81437428D01*
X99753513Y-81443131D01*
X99768816Y-81450369D01*
X99783336Y-81459071D01*
X99796933Y-81469156D01*
X99809476Y-81480524D01*
X99820844Y-81493067D01*
X99830929Y-81506664D01*
X99839631Y-81521184D01*
X99846869Y-81536487D01*
X99852572Y-81552426D01*
X99856685Y-81568847D01*
X99859169Y-81585592D01*
X99860000Y-81602500D01*
X99860000Y-81997500D01*
X99859169Y-82014408D01*
X99856685Y-82031153D01*
X99852572Y-82047574D01*
X99846869Y-82063513D01*
X99839631Y-82078816D01*
X99830929Y-82093336D01*
X99820844Y-82106933D01*
X99809476Y-82119476D01*
X99796933Y-82130844D01*
X99783336Y-82140929D01*
X99768816Y-82149631D01*
X99753513Y-82156869D01*
X99737574Y-82162572D01*
X99721153Y-82166685D01*
X99704408Y-82169169D01*
X99687500Y-82170000D01*
X99342500Y-82170000D01*
X99325592Y-82169169D01*
X99308847Y-82166685D01*
X99292426Y-82162572D01*
X99276487Y-82156869D01*
X99261184Y-82149631D01*
X99246664Y-82140929D01*
X99233067Y-82130844D01*
X99220524Y-82119476D01*
X99209156Y-82106933D01*
X99199071Y-82093336D01*
X99190369Y-82078816D01*
X99183131Y-82063513D01*
X99177428Y-82047574D01*
X99173315Y-82031153D01*
X99170831Y-82014408D01*
X99170000Y-81997500D01*
X99170000Y-81602500D01*
X99170831Y-81585592D01*
X99173315Y-81568847D01*
X99177428Y-81552426D01*
X99183131Y-81536487D01*
X99190369Y-81521184D01*
X99199071Y-81506664D01*
X99209156Y-81493067D01*
X99220524Y-81480524D01*
X99233067Y-81469156D01*
X99246664Y-81459071D01*
X99261184Y-81450369D01*
X99276487Y-81443131D01*
X99292426Y-81437428D01*
X99308847Y-81433315D01*
X99325592Y-81430831D01*
X99342500Y-81430000D01*
X99687500Y-81430000D01*
X99704408Y-81430831D01*
X99704408Y-81430831D01*
G37*
D11*
X99515000Y-81800000D03*
G04 #@! TD*
D10*
G04 #@! TO.C,R1*
G36*
X99704408Y-82430831D02*
X99721153Y-82433315D01*
X99737574Y-82437428D01*
X99753513Y-82443131D01*
X99768816Y-82450369D01*
X99783336Y-82459071D01*
X99796933Y-82469156D01*
X99809476Y-82480524D01*
X99820844Y-82493067D01*
X99830929Y-82506664D01*
X99839631Y-82521184D01*
X99846869Y-82536487D01*
X99852572Y-82552426D01*
X99856685Y-82568847D01*
X99859169Y-82585592D01*
X99860000Y-82602500D01*
X99860000Y-82997500D01*
X99859169Y-83014408D01*
X99856685Y-83031153D01*
X99852572Y-83047574D01*
X99846869Y-83063513D01*
X99839631Y-83078816D01*
X99830929Y-83093336D01*
X99820844Y-83106933D01*
X99809476Y-83119476D01*
X99796933Y-83130844D01*
X99783336Y-83140929D01*
X99768816Y-83149631D01*
X99753513Y-83156869D01*
X99737574Y-83162572D01*
X99721153Y-83166685D01*
X99704408Y-83169169D01*
X99687500Y-83170000D01*
X99342500Y-83170000D01*
X99325592Y-83169169D01*
X99308847Y-83166685D01*
X99292426Y-83162572D01*
X99276487Y-83156869D01*
X99261184Y-83149631D01*
X99246664Y-83140929D01*
X99233067Y-83130844D01*
X99220524Y-83119476D01*
X99209156Y-83106933D01*
X99199071Y-83093336D01*
X99190369Y-83078816D01*
X99183131Y-83063513D01*
X99177428Y-83047574D01*
X99173315Y-83031153D01*
X99170831Y-83014408D01*
X99170000Y-82997500D01*
X99170000Y-82602500D01*
X99170831Y-82585592D01*
X99173315Y-82568847D01*
X99177428Y-82552426D01*
X99183131Y-82536487D01*
X99190369Y-82521184D01*
X99199071Y-82506664D01*
X99209156Y-82493067D01*
X99220524Y-82480524D01*
X99233067Y-82469156D01*
X99246664Y-82459071D01*
X99261184Y-82450369D01*
X99276487Y-82443131D01*
X99292426Y-82437428D01*
X99308847Y-82433315D01*
X99325592Y-82430831D01*
X99342500Y-82430000D01*
X99687500Y-82430000D01*
X99704408Y-82430831D01*
X99704408Y-82430831D01*
G37*
D11*
X99515000Y-82800000D03*
D10*
G36*
X100674408Y-82430831D02*
X100691153Y-82433315D01*
X100707574Y-82437428D01*
X100723513Y-82443131D01*
X100738816Y-82450369D01*
X100753336Y-82459071D01*
X100766933Y-82469156D01*
X100779476Y-82480524D01*
X100790844Y-82493067D01*
X100800929Y-82506664D01*
X100809631Y-82521184D01*
X100816869Y-82536487D01*
X100822572Y-82552426D01*
X100826685Y-82568847D01*
X100829169Y-82585592D01*
X100830000Y-82602500D01*
X100830000Y-82997500D01*
X100829169Y-83014408D01*
X100826685Y-83031153D01*
X100822572Y-83047574D01*
X100816869Y-83063513D01*
X100809631Y-83078816D01*
X100800929Y-83093336D01*
X100790844Y-83106933D01*
X100779476Y-83119476D01*
X100766933Y-83130844D01*
X100753336Y-83140929D01*
X100738816Y-83149631D01*
X100723513Y-83156869D01*
X100707574Y-83162572D01*
X100691153Y-83166685D01*
X100674408Y-83169169D01*
X100657500Y-83170000D01*
X100312500Y-83170000D01*
X100295592Y-83169169D01*
X100278847Y-83166685D01*
X100262426Y-83162572D01*
X100246487Y-83156869D01*
X100231184Y-83149631D01*
X100216664Y-83140929D01*
X100203067Y-83130844D01*
X100190524Y-83119476D01*
X100179156Y-83106933D01*
X100169071Y-83093336D01*
X100160369Y-83078816D01*
X100153131Y-83063513D01*
X100147428Y-83047574D01*
X100143315Y-83031153D01*
X100140831Y-83014408D01*
X100140000Y-82997500D01*
X100140000Y-82602500D01*
X100140831Y-82585592D01*
X100143315Y-82568847D01*
X100147428Y-82552426D01*
X100153131Y-82536487D01*
X100160369Y-82521184D01*
X100169071Y-82506664D01*
X100179156Y-82493067D01*
X100190524Y-82480524D01*
X100203067Y-82469156D01*
X100216664Y-82459071D01*
X100231184Y-82450369D01*
X100246487Y-82443131D01*
X100262426Y-82437428D01*
X100278847Y-82433315D01*
X100295592Y-82430831D01*
X100312500Y-82430000D01*
X100657500Y-82430000D01*
X100674408Y-82430831D01*
X100674408Y-82430831D01*
G37*
D11*
X100485000Y-82800000D03*
G04 #@! TD*
D10*
G04 #@! TO.C,R2*
G36*
X102114408Y-78470831D02*
X102131153Y-78473315D01*
X102147574Y-78477428D01*
X102163513Y-78483131D01*
X102178816Y-78490369D01*
X102193336Y-78499071D01*
X102206933Y-78509156D01*
X102219476Y-78520524D01*
X102230844Y-78533067D01*
X102240929Y-78546664D01*
X102249631Y-78561184D01*
X102256869Y-78576487D01*
X102262572Y-78592426D01*
X102266685Y-78608847D01*
X102269169Y-78625592D01*
X102270000Y-78642500D01*
X102270000Y-78987500D01*
X102269169Y-79004408D01*
X102266685Y-79021153D01*
X102262572Y-79037574D01*
X102256869Y-79053513D01*
X102249631Y-79068816D01*
X102240929Y-79083336D01*
X102230844Y-79096933D01*
X102219476Y-79109476D01*
X102206933Y-79120844D01*
X102193336Y-79130929D01*
X102178816Y-79139631D01*
X102163513Y-79146869D01*
X102147574Y-79152572D01*
X102131153Y-79156685D01*
X102114408Y-79159169D01*
X102097500Y-79160000D01*
X101702500Y-79160000D01*
X101685592Y-79159169D01*
X101668847Y-79156685D01*
X101652426Y-79152572D01*
X101636487Y-79146869D01*
X101621184Y-79139631D01*
X101606664Y-79130929D01*
X101593067Y-79120844D01*
X101580524Y-79109476D01*
X101569156Y-79096933D01*
X101559071Y-79083336D01*
X101550369Y-79068816D01*
X101543131Y-79053513D01*
X101537428Y-79037574D01*
X101533315Y-79021153D01*
X101530831Y-79004408D01*
X101530000Y-78987500D01*
X101530000Y-78642500D01*
X101530831Y-78625592D01*
X101533315Y-78608847D01*
X101537428Y-78592426D01*
X101543131Y-78576487D01*
X101550369Y-78561184D01*
X101559071Y-78546664D01*
X101569156Y-78533067D01*
X101580524Y-78520524D01*
X101593067Y-78509156D01*
X101606664Y-78499071D01*
X101621184Y-78490369D01*
X101636487Y-78483131D01*
X101652426Y-78477428D01*
X101668847Y-78473315D01*
X101685592Y-78470831D01*
X101702500Y-78470000D01*
X102097500Y-78470000D01*
X102114408Y-78470831D01*
X102114408Y-78470831D01*
G37*
D11*
X101900000Y-78815000D03*
D10*
G36*
X102114408Y-79440831D02*
X102131153Y-79443315D01*
X102147574Y-79447428D01*
X102163513Y-79453131D01*
X102178816Y-79460369D01*
X102193336Y-79469071D01*
X102206933Y-79479156D01*
X102219476Y-79490524D01*
X102230844Y-79503067D01*
X102240929Y-79516664D01*
X102249631Y-79531184D01*
X102256869Y-79546487D01*
X102262572Y-79562426D01*
X102266685Y-79578847D01*
X102269169Y-79595592D01*
X102270000Y-79612500D01*
X102270000Y-79957500D01*
X102269169Y-79974408D01*
X102266685Y-79991153D01*
X102262572Y-80007574D01*
X102256869Y-80023513D01*
X102249631Y-80038816D01*
X102240929Y-80053336D01*
X102230844Y-80066933D01*
X102219476Y-80079476D01*
X102206933Y-80090844D01*
X102193336Y-80100929D01*
X102178816Y-80109631D01*
X102163513Y-80116869D01*
X102147574Y-80122572D01*
X102131153Y-80126685D01*
X102114408Y-80129169D01*
X102097500Y-80130000D01*
X101702500Y-80130000D01*
X101685592Y-80129169D01*
X101668847Y-80126685D01*
X101652426Y-80122572D01*
X101636487Y-80116869D01*
X101621184Y-80109631D01*
X101606664Y-80100929D01*
X101593067Y-80090844D01*
X101580524Y-80079476D01*
X101569156Y-80066933D01*
X101559071Y-80053336D01*
X101550369Y-80038816D01*
X101543131Y-80023513D01*
X101537428Y-80007574D01*
X101533315Y-79991153D01*
X101530831Y-79974408D01*
X101530000Y-79957500D01*
X101530000Y-79612500D01*
X101530831Y-79595592D01*
X101533315Y-79578847D01*
X101537428Y-79562426D01*
X101543131Y-79546487D01*
X101550369Y-79531184D01*
X101559071Y-79516664D01*
X101569156Y-79503067D01*
X101580524Y-79490524D01*
X101593067Y-79479156D01*
X101606664Y-79469071D01*
X101621184Y-79460369D01*
X101636487Y-79453131D01*
X101652426Y-79447428D01*
X101668847Y-79443315D01*
X101685592Y-79440831D01*
X101702500Y-79440000D01*
X102097500Y-79440000D01*
X102114408Y-79440831D01*
X102114408Y-79440831D01*
G37*
D11*
X101900000Y-79785000D03*
G04 #@! TD*
D12*
G04 #@! TO.C,BRD1*
X118600000Y-84400000D03*
X97870000Y-82400000D03*
X99600000Y-84400000D03*
D13*
X101900000Y-59100000D03*
D14*
X98200000Y-72600000D03*
X120500000Y-72600000D03*
D13*
X116900000Y-59100000D03*
D15*
X121800000Y-75100000D03*
X121800000Y-82600000D03*
G04 #@! TD*
D16*
G04 #@! TO.C,KPD1*
X103300000Y-83800000D03*
X104800000Y-83800000D03*
X106300000Y-83800000D03*
X107800000Y-83800000D03*
X109300000Y-83800000D03*
X110800000Y-83800000D03*
X112300000Y-83800000D03*
X113800000Y-83800000D03*
X115300000Y-83800000D03*
G04 #@! TD*
D17*
G04 #@! TO.C,LCD1*
X99200000Y-70200000D03*
X99800000Y-70200000D03*
X100400000Y-70200000D03*
X101000000Y-70200000D03*
X101600000Y-70200000D03*
X102200000Y-70200000D03*
X102800000Y-70200000D03*
X103400000Y-70200000D03*
X104000000Y-70200000D03*
X104600000Y-70200000D03*
X105200000Y-70200000D03*
X105800000Y-70200000D03*
X106400000Y-70200000D03*
X107000000Y-70200000D03*
X107600000Y-70200000D03*
X108200000Y-70200000D03*
X108800000Y-70200000D03*
X109400000Y-70200000D03*
X110000000Y-70200000D03*
X110600000Y-70200000D03*
X111200000Y-70200000D03*
X111800000Y-70200000D03*
X112400000Y-70200000D03*
X113000000Y-70200000D03*
X113600000Y-70200000D03*
X114200000Y-70200000D03*
X114800000Y-70200000D03*
X115400000Y-70200000D03*
X116000000Y-70200000D03*
X116600000Y-70200000D03*
X117200000Y-70200000D03*
X117800000Y-70200000D03*
X118400000Y-70200000D03*
X119000000Y-70200000D03*
X119600000Y-70200000D03*
G04 #@! TD*
D10*
G04 #@! TO.C,U3*
G36*
X100473037Y-76628518D02*
X100483472Y-76630066D01*
X100493706Y-76632629D01*
X100503638Y-76636183D01*
X100513175Y-76640693D01*
X100522224Y-76646117D01*
X100530697Y-76652401D01*
X100538514Y-76659486D01*
X100545599Y-76667303D01*
X100551883Y-76675776D01*
X100557307Y-76684825D01*
X100561817Y-76694362D01*
X100565371Y-76704294D01*
X100567934Y-76714528D01*
X100569482Y-76724963D01*
X100570000Y-76735500D01*
X100570000Y-76950500D01*
X100569482Y-76961037D01*
X100567934Y-76971472D01*
X100565371Y-76981706D01*
X100561817Y-76991638D01*
X100557307Y-77001175D01*
X100551883Y-77010224D01*
X100545599Y-77018697D01*
X100538514Y-77026514D01*
X100530697Y-77033599D01*
X100522224Y-77039883D01*
X100513175Y-77045307D01*
X100503638Y-77049817D01*
X100493706Y-77053371D01*
X100483472Y-77055934D01*
X100473037Y-77057482D01*
X100462500Y-77058000D01*
X100167500Y-77058000D01*
X100156963Y-77057482D01*
X100146528Y-77055934D01*
X100136294Y-77053371D01*
X100126362Y-77049817D01*
X100116825Y-77045307D01*
X100107776Y-77039883D01*
X100099303Y-77033599D01*
X100091486Y-77026514D01*
X100084401Y-77018697D01*
X100078117Y-77010224D01*
X100072693Y-77001175D01*
X100068183Y-76991638D01*
X100064629Y-76981706D01*
X100062066Y-76971472D01*
X100060518Y-76961037D01*
X100060000Y-76950500D01*
X100060000Y-76735500D01*
X100060518Y-76724963D01*
X100062066Y-76714528D01*
X100064629Y-76704294D01*
X100068183Y-76694362D01*
X100072693Y-76684825D01*
X100078117Y-76675776D01*
X100084401Y-76667303D01*
X100091486Y-76659486D01*
X100099303Y-76652401D01*
X100107776Y-76646117D01*
X100116825Y-76640693D01*
X100126362Y-76636183D01*
X100136294Y-76632629D01*
X100146528Y-76630066D01*
X100156963Y-76628518D01*
X100167500Y-76628000D01*
X100462500Y-76628000D01*
X100473037Y-76628518D01*
X100473037Y-76628518D01*
G37*
D18*
X100315000Y-76843000D03*
D10*
G36*
X101123037Y-76628518D02*
X101133472Y-76630066D01*
X101143706Y-76632629D01*
X101153638Y-76636183D01*
X101163175Y-76640693D01*
X101172224Y-76646117D01*
X101180697Y-76652401D01*
X101188514Y-76659486D01*
X101195599Y-76667303D01*
X101201883Y-76675776D01*
X101207307Y-76684825D01*
X101211817Y-76694362D01*
X101215371Y-76704294D01*
X101217934Y-76714528D01*
X101219482Y-76724963D01*
X101220000Y-76735500D01*
X101220000Y-76950500D01*
X101219482Y-76961037D01*
X101217934Y-76971472D01*
X101215371Y-76981706D01*
X101211817Y-76991638D01*
X101207307Y-77001175D01*
X101201883Y-77010224D01*
X101195599Y-77018697D01*
X101188514Y-77026514D01*
X101180697Y-77033599D01*
X101172224Y-77039883D01*
X101163175Y-77045307D01*
X101153638Y-77049817D01*
X101143706Y-77053371D01*
X101133472Y-77055934D01*
X101123037Y-77057482D01*
X101112500Y-77058000D01*
X100817500Y-77058000D01*
X100806963Y-77057482D01*
X100796528Y-77055934D01*
X100786294Y-77053371D01*
X100776362Y-77049817D01*
X100766825Y-77045307D01*
X100757776Y-77039883D01*
X100749303Y-77033599D01*
X100741486Y-77026514D01*
X100734401Y-77018697D01*
X100728117Y-77010224D01*
X100722693Y-77001175D01*
X100718183Y-76991638D01*
X100714629Y-76981706D01*
X100712066Y-76971472D01*
X100710518Y-76961037D01*
X100710000Y-76950500D01*
X100710000Y-76735500D01*
X100710518Y-76724963D01*
X100712066Y-76714528D01*
X100714629Y-76704294D01*
X100718183Y-76694362D01*
X100722693Y-76684825D01*
X100728117Y-76675776D01*
X100734401Y-76667303D01*
X100741486Y-76659486D01*
X100749303Y-76652401D01*
X100757776Y-76646117D01*
X100766825Y-76640693D01*
X100776362Y-76636183D01*
X100786294Y-76632629D01*
X100796528Y-76630066D01*
X100806963Y-76628518D01*
X100817500Y-76628000D01*
X101112500Y-76628000D01*
X101123037Y-76628518D01*
X101123037Y-76628518D01*
G37*
D18*
X100965000Y-76843000D03*
D10*
G36*
X101773037Y-76628518D02*
X101783472Y-76630066D01*
X101793706Y-76632629D01*
X101803638Y-76636183D01*
X101813175Y-76640693D01*
X101822224Y-76646117D01*
X101830697Y-76652401D01*
X101838514Y-76659486D01*
X101845599Y-76667303D01*
X101851883Y-76675776D01*
X101857307Y-76684825D01*
X101861817Y-76694362D01*
X101865371Y-76704294D01*
X101867934Y-76714528D01*
X101869482Y-76724963D01*
X101870000Y-76735500D01*
X101870000Y-76950500D01*
X101869482Y-76961037D01*
X101867934Y-76971472D01*
X101865371Y-76981706D01*
X101861817Y-76991638D01*
X101857307Y-77001175D01*
X101851883Y-77010224D01*
X101845599Y-77018697D01*
X101838514Y-77026514D01*
X101830697Y-77033599D01*
X101822224Y-77039883D01*
X101813175Y-77045307D01*
X101803638Y-77049817D01*
X101793706Y-77053371D01*
X101783472Y-77055934D01*
X101773037Y-77057482D01*
X101762500Y-77058000D01*
X101467500Y-77058000D01*
X101456963Y-77057482D01*
X101446528Y-77055934D01*
X101436294Y-77053371D01*
X101426362Y-77049817D01*
X101416825Y-77045307D01*
X101407776Y-77039883D01*
X101399303Y-77033599D01*
X101391486Y-77026514D01*
X101384401Y-77018697D01*
X101378117Y-77010224D01*
X101372693Y-77001175D01*
X101368183Y-76991638D01*
X101364629Y-76981706D01*
X101362066Y-76971472D01*
X101360518Y-76961037D01*
X101360000Y-76950500D01*
X101360000Y-76735500D01*
X101360518Y-76724963D01*
X101362066Y-76714528D01*
X101364629Y-76704294D01*
X101368183Y-76694362D01*
X101372693Y-76684825D01*
X101378117Y-76675776D01*
X101384401Y-76667303D01*
X101391486Y-76659486D01*
X101399303Y-76652401D01*
X101407776Y-76646117D01*
X101416825Y-76640693D01*
X101426362Y-76636183D01*
X101436294Y-76632629D01*
X101446528Y-76630066D01*
X101456963Y-76628518D01*
X101467500Y-76628000D01*
X101762500Y-76628000D01*
X101773037Y-76628518D01*
X101773037Y-76628518D01*
G37*
D18*
X101615000Y-76843000D03*
D10*
G36*
X101773037Y-77628518D02*
X101783472Y-77630066D01*
X101793706Y-77632629D01*
X101803638Y-77636183D01*
X101813175Y-77640693D01*
X101822224Y-77646117D01*
X101830697Y-77652401D01*
X101838514Y-77659486D01*
X101845599Y-77667303D01*
X101851883Y-77675776D01*
X101857307Y-77684825D01*
X101861817Y-77694362D01*
X101865371Y-77704294D01*
X101867934Y-77714528D01*
X101869482Y-77724963D01*
X101870000Y-77735500D01*
X101870000Y-77950500D01*
X101869482Y-77961037D01*
X101867934Y-77971472D01*
X101865371Y-77981706D01*
X101861817Y-77991638D01*
X101857307Y-78001175D01*
X101851883Y-78010224D01*
X101845599Y-78018697D01*
X101838514Y-78026514D01*
X101830697Y-78033599D01*
X101822224Y-78039883D01*
X101813175Y-78045307D01*
X101803638Y-78049817D01*
X101793706Y-78053371D01*
X101783472Y-78055934D01*
X101773037Y-78057482D01*
X101762500Y-78058000D01*
X101467500Y-78058000D01*
X101456963Y-78057482D01*
X101446528Y-78055934D01*
X101436294Y-78053371D01*
X101426362Y-78049817D01*
X101416825Y-78045307D01*
X101407776Y-78039883D01*
X101399303Y-78033599D01*
X101391486Y-78026514D01*
X101384401Y-78018697D01*
X101378117Y-78010224D01*
X101372693Y-78001175D01*
X101368183Y-77991638D01*
X101364629Y-77981706D01*
X101362066Y-77971472D01*
X101360518Y-77961037D01*
X101360000Y-77950500D01*
X101360000Y-77735500D01*
X101360518Y-77724963D01*
X101362066Y-77714528D01*
X101364629Y-77704294D01*
X101368183Y-77694362D01*
X101372693Y-77684825D01*
X101378117Y-77675776D01*
X101384401Y-77667303D01*
X101391486Y-77659486D01*
X101399303Y-77652401D01*
X101407776Y-77646117D01*
X101416825Y-77640693D01*
X101426362Y-77636183D01*
X101436294Y-77632629D01*
X101446528Y-77630066D01*
X101456963Y-77628518D01*
X101467500Y-77628000D01*
X101762500Y-77628000D01*
X101773037Y-77628518D01*
X101773037Y-77628518D01*
G37*
D18*
X101615000Y-77843000D03*
D10*
G36*
X101123037Y-77628518D02*
X101133472Y-77630066D01*
X101143706Y-77632629D01*
X101153638Y-77636183D01*
X101163175Y-77640693D01*
X101172224Y-77646117D01*
X101180697Y-77652401D01*
X101188514Y-77659486D01*
X101195599Y-77667303D01*
X101201883Y-77675776D01*
X101207307Y-77684825D01*
X101211817Y-77694362D01*
X101215371Y-77704294D01*
X101217934Y-77714528D01*
X101219482Y-77724963D01*
X101220000Y-77735500D01*
X101220000Y-77950500D01*
X101219482Y-77961037D01*
X101217934Y-77971472D01*
X101215371Y-77981706D01*
X101211817Y-77991638D01*
X101207307Y-78001175D01*
X101201883Y-78010224D01*
X101195599Y-78018697D01*
X101188514Y-78026514D01*
X101180697Y-78033599D01*
X101172224Y-78039883D01*
X101163175Y-78045307D01*
X101153638Y-78049817D01*
X101143706Y-78053371D01*
X101133472Y-78055934D01*
X101123037Y-78057482D01*
X101112500Y-78058000D01*
X100817500Y-78058000D01*
X100806963Y-78057482D01*
X100796528Y-78055934D01*
X100786294Y-78053371D01*
X100776362Y-78049817D01*
X100766825Y-78045307D01*
X100757776Y-78039883D01*
X100749303Y-78033599D01*
X100741486Y-78026514D01*
X100734401Y-78018697D01*
X100728117Y-78010224D01*
X100722693Y-78001175D01*
X100718183Y-77991638D01*
X100714629Y-77981706D01*
X100712066Y-77971472D01*
X100710518Y-77961037D01*
X100710000Y-77950500D01*
X100710000Y-77735500D01*
X100710518Y-77724963D01*
X100712066Y-77714528D01*
X100714629Y-77704294D01*
X100718183Y-77694362D01*
X100722693Y-77684825D01*
X100728117Y-77675776D01*
X100734401Y-77667303D01*
X100741486Y-77659486D01*
X100749303Y-77652401D01*
X100757776Y-77646117D01*
X100766825Y-77640693D01*
X100776362Y-77636183D01*
X100786294Y-77632629D01*
X100796528Y-77630066D01*
X100806963Y-77628518D01*
X100817500Y-77628000D01*
X101112500Y-77628000D01*
X101123037Y-77628518D01*
X101123037Y-77628518D01*
G37*
D18*
X100965000Y-77843000D03*
D10*
G36*
X100473037Y-77628518D02*
X100483472Y-77630066D01*
X100493706Y-77632629D01*
X100503638Y-77636183D01*
X100513175Y-77640693D01*
X100522224Y-77646117D01*
X100530697Y-77652401D01*
X100538514Y-77659486D01*
X100545599Y-77667303D01*
X100551883Y-77675776D01*
X100557307Y-77684825D01*
X100561817Y-77694362D01*
X100565371Y-77704294D01*
X100567934Y-77714528D01*
X100569482Y-77724963D01*
X100570000Y-77735500D01*
X100570000Y-77950500D01*
X100569482Y-77961037D01*
X100567934Y-77971472D01*
X100565371Y-77981706D01*
X100561817Y-77991638D01*
X100557307Y-78001175D01*
X100551883Y-78010224D01*
X100545599Y-78018697D01*
X100538514Y-78026514D01*
X100530697Y-78033599D01*
X100522224Y-78039883D01*
X100513175Y-78045307D01*
X100503638Y-78049817D01*
X100493706Y-78053371D01*
X100483472Y-78055934D01*
X100473037Y-78057482D01*
X100462500Y-78058000D01*
X100167500Y-78058000D01*
X100156963Y-78057482D01*
X100146528Y-78055934D01*
X100136294Y-78053371D01*
X100126362Y-78049817D01*
X100116825Y-78045307D01*
X100107776Y-78039883D01*
X100099303Y-78033599D01*
X100091486Y-78026514D01*
X100084401Y-78018697D01*
X100078117Y-78010224D01*
X100072693Y-78001175D01*
X100068183Y-77991638D01*
X100064629Y-77981706D01*
X100062066Y-77971472D01*
X100060518Y-77961037D01*
X100060000Y-77950500D01*
X100060000Y-77735500D01*
X100060518Y-77724963D01*
X100062066Y-77714528D01*
X100064629Y-77704294D01*
X100068183Y-77694362D01*
X100072693Y-77684825D01*
X100078117Y-77675776D01*
X100084401Y-77667303D01*
X100091486Y-77659486D01*
X100099303Y-77652401D01*
X100107776Y-77646117D01*
X100116825Y-77640693D01*
X100126362Y-77636183D01*
X100136294Y-77632629D01*
X100146528Y-77630066D01*
X100156963Y-77628518D01*
X100167500Y-77628000D01*
X100462500Y-77628000D01*
X100473037Y-77628518D01*
X100473037Y-77628518D01*
G37*
D18*
X100315000Y-77843000D03*
G04 #@! TD*
D10*
G04 #@! TO.C,U2*
G36*
X100123527Y-78525542D02*
X100134448Y-78527162D01*
X100145157Y-78529844D01*
X100155552Y-78533564D01*
X100165532Y-78538284D01*
X100175002Y-78543960D01*
X100183869Y-78550536D01*
X100192050Y-78557950D01*
X100199464Y-78566131D01*
X100206040Y-78574998D01*
X100211716Y-78584468D01*
X100216436Y-78594448D01*
X100220156Y-78604843D01*
X100222838Y-78615552D01*
X100224458Y-78626473D01*
X100225000Y-78637500D01*
X100225000Y-79012500D01*
X100224458Y-79023527D01*
X100222838Y-79034448D01*
X100220156Y-79045157D01*
X100216436Y-79055552D01*
X100211716Y-79065532D01*
X100206040Y-79075002D01*
X100199464Y-79083869D01*
X100192050Y-79092050D01*
X100183869Y-79099464D01*
X100175002Y-79106040D01*
X100165532Y-79111716D01*
X100155552Y-79116436D01*
X100145157Y-79120156D01*
X100134448Y-79122838D01*
X100123527Y-79124458D01*
X100112500Y-79125000D01*
X99887500Y-79125000D01*
X99876473Y-79124458D01*
X99865552Y-79122838D01*
X99854843Y-79120156D01*
X99844448Y-79116436D01*
X99834468Y-79111716D01*
X99824998Y-79106040D01*
X99816131Y-79099464D01*
X99807950Y-79092050D01*
X99800536Y-79083869D01*
X99793960Y-79075002D01*
X99788284Y-79065532D01*
X99783564Y-79055552D01*
X99779844Y-79045157D01*
X99777162Y-79034448D01*
X99775542Y-79023527D01*
X99775000Y-79012500D01*
X99775000Y-78637500D01*
X99775542Y-78626473D01*
X99777162Y-78615552D01*
X99779844Y-78604843D01*
X99783564Y-78594448D01*
X99788284Y-78584468D01*
X99793960Y-78574998D01*
X99800536Y-78566131D01*
X99807950Y-78557950D01*
X99816131Y-78550536D01*
X99824998Y-78543960D01*
X99834468Y-78538284D01*
X99844448Y-78533564D01*
X99854843Y-78529844D01*
X99865552Y-78527162D01*
X99876473Y-78525542D01*
X99887500Y-78525000D01*
X100112500Y-78525000D01*
X100123527Y-78525542D01*
X100123527Y-78525542D01*
G37*
D19*
X100000000Y-78825000D03*
D10*
G36*
X100998527Y-78925542D02*
X101009448Y-78927162D01*
X101020157Y-78929844D01*
X101030552Y-78933564D01*
X101040532Y-78938284D01*
X101050002Y-78943960D01*
X101058869Y-78950536D01*
X101067050Y-78957950D01*
X101074464Y-78966131D01*
X101081040Y-78974998D01*
X101086716Y-78984468D01*
X101091436Y-78994448D01*
X101095156Y-79004843D01*
X101097838Y-79015552D01*
X101099458Y-79026473D01*
X101100000Y-79037500D01*
X101100000Y-79262500D01*
X101099458Y-79273527D01*
X101097838Y-79284448D01*
X101095156Y-79295157D01*
X101091436Y-79305552D01*
X101086716Y-79315532D01*
X101081040Y-79325002D01*
X101074464Y-79333869D01*
X101067050Y-79342050D01*
X101058869Y-79349464D01*
X101050002Y-79356040D01*
X101040532Y-79361716D01*
X101030552Y-79366436D01*
X101020157Y-79370156D01*
X101009448Y-79372838D01*
X100998527Y-79374458D01*
X100987500Y-79375000D01*
X100612500Y-79375000D01*
X100601473Y-79374458D01*
X100590552Y-79372838D01*
X100579843Y-79370156D01*
X100569448Y-79366436D01*
X100559468Y-79361716D01*
X100549998Y-79356040D01*
X100541131Y-79349464D01*
X100532950Y-79342050D01*
X100525536Y-79333869D01*
X100518960Y-79325002D01*
X100513284Y-79315532D01*
X100508564Y-79305552D01*
X100504844Y-79295157D01*
X100502162Y-79284448D01*
X100500542Y-79273527D01*
X100500000Y-79262500D01*
X100500000Y-79037500D01*
X100500542Y-79026473D01*
X100502162Y-79015552D01*
X100504844Y-79004843D01*
X100508564Y-78994448D01*
X100513284Y-78984468D01*
X100518960Y-78974998D01*
X100525536Y-78966131D01*
X100532950Y-78957950D01*
X100541131Y-78950536D01*
X100549998Y-78943960D01*
X100559468Y-78938284D01*
X100569448Y-78933564D01*
X100579843Y-78929844D01*
X100590552Y-78927162D01*
X100601473Y-78925542D01*
X100612500Y-78925000D01*
X100987500Y-78925000D01*
X100998527Y-78925542D01*
X100998527Y-78925542D01*
G37*
D19*
X100800000Y-79150000D03*
D10*
G36*
X100998527Y-79575542D02*
X101009448Y-79577162D01*
X101020157Y-79579844D01*
X101030552Y-79583564D01*
X101040532Y-79588284D01*
X101050002Y-79593960D01*
X101058869Y-79600536D01*
X101067050Y-79607950D01*
X101074464Y-79616131D01*
X101081040Y-79624998D01*
X101086716Y-79634468D01*
X101091436Y-79644448D01*
X101095156Y-79654843D01*
X101097838Y-79665552D01*
X101099458Y-79676473D01*
X101100000Y-79687500D01*
X101100000Y-79912500D01*
X101099458Y-79923527D01*
X101097838Y-79934448D01*
X101095156Y-79945157D01*
X101091436Y-79955552D01*
X101086716Y-79965532D01*
X101081040Y-79975002D01*
X101074464Y-79983869D01*
X101067050Y-79992050D01*
X101058869Y-79999464D01*
X101050002Y-80006040D01*
X101040532Y-80011716D01*
X101030552Y-80016436D01*
X101020157Y-80020156D01*
X101009448Y-80022838D01*
X100998527Y-80024458D01*
X100987500Y-80025000D01*
X100612500Y-80025000D01*
X100601473Y-80024458D01*
X100590552Y-80022838D01*
X100579843Y-80020156D01*
X100569448Y-80016436D01*
X100559468Y-80011716D01*
X100549998Y-80006040D01*
X100541131Y-79999464D01*
X100532950Y-79992050D01*
X100525536Y-79983869D01*
X100518960Y-79975002D01*
X100513284Y-79965532D01*
X100508564Y-79955552D01*
X100504844Y-79945157D01*
X100502162Y-79934448D01*
X100500542Y-79923527D01*
X100500000Y-79912500D01*
X100500000Y-79687500D01*
X100500542Y-79676473D01*
X100502162Y-79665552D01*
X100504844Y-79654843D01*
X100508564Y-79644448D01*
X100513284Y-79634468D01*
X100518960Y-79624998D01*
X100525536Y-79616131D01*
X100532950Y-79607950D01*
X100541131Y-79600536D01*
X100549998Y-79593960D01*
X100559468Y-79588284D01*
X100569448Y-79583564D01*
X100579843Y-79579844D01*
X100590552Y-79577162D01*
X100601473Y-79575542D01*
X100612500Y-79575000D01*
X100987500Y-79575000D01*
X100998527Y-79575542D01*
X100998527Y-79575542D01*
G37*
D19*
X100800000Y-79800000D03*
D10*
G36*
X100998527Y-80225542D02*
X101009448Y-80227162D01*
X101020157Y-80229844D01*
X101030552Y-80233564D01*
X101040532Y-80238284D01*
X101050002Y-80243960D01*
X101058869Y-80250536D01*
X101067050Y-80257950D01*
X101074464Y-80266131D01*
X101081040Y-80274998D01*
X101086716Y-80284468D01*
X101091436Y-80294448D01*
X101095156Y-80304843D01*
X101097838Y-80315552D01*
X101099458Y-80326473D01*
X101100000Y-80337500D01*
X101100000Y-80562500D01*
X101099458Y-80573527D01*
X101097838Y-80584448D01*
X101095156Y-80595157D01*
X101091436Y-80605552D01*
X101086716Y-80615532D01*
X101081040Y-80625002D01*
X101074464Y-80633869D01*
X101067050Y-80642050D01*
X101058869Y-80649464D01*
X101050002Y-80656040D01*
X101040532Y-80661716D01*
X101030552Y-80666436D01*
X101020157Y-80670156D01*
X101009448Y-80672838D01*
X100998527Y-80674458D01*
X100987500Y-80675000D01*
X100612500Y-80675000D01*
X100601473Y-80674458D01*
X100590552Y-80672838D01*
X100579843Y-80670156D01*
X100569448Y-80666436D01*
X100559468Y-80661716D01*
X100549998Y-80656040D01*
X100541131Y-80649464D01*
X100532950Y-80642050D01*
X100525536Y-80633869D01*
X100518960Y-80625002D01*
X100513284Y-80615532D01*
X100508564Y-80605552D01*
X100504844Y-80595157D01*
X100502162Y-80584448D01*
X100500542Y-80573527D01*
X100500000Y-80562500D01*
X100500000Y-80337500D01*
X100500542Y-80326473D01*
X100502162Y-80315552D01*
X100504844Y-80304843D01*
X100508564Y-80294448D01*
X100513284Y-80284468D01*
X100518960Y-80274998D01*
X100525536Y-80266131D01*
X100532950Y-80257950D01*
X100541131Y-80250536D01*
X100549998Y-80243960D01*
X100559468Y-80238284D01*
X100569448Y-80233564D01*
X100579843Y-80229844D01*
X100590552Y-80227162D01*
X100601473Y-80225542D01*
X100612500Y-80225000D01*
X100987500Y-80225000D01*
X100998527Y-80225542D01*
X100998527Y-80225542D01*
G37*
D19*
X100800000Y-80450000D03*
D10*
G36*
X100123527Y-80475542D02*
X100134448Y-80477162D01*
X100145157Y-80479844D01*
X100155552Y-80483564D01*
X100165532Y-80488284D01*
X100175002Y-80493960D01*
X100183869Y-80500536D01*
X100192050Y-80507950D01*
X100199464Y-80516131D01*
X100206040Y-80524998D01*
X100211716Y-80534468D01*
X100216436Y-80544448D01*
X100220156Y-80554843D01*
X100222838Y-80565552D01*
X100224458Y-80576473D01*
X100225000Y-80587500D01*
X100225000Y-80962500D01*
X100224458Y-80973527D01*
X100222838Y-80984448D01*
X100220156Y-80995157D01*
X100216436Y-81005552D01*
X100211716Y-81015532D01*
X100206040Y-81025002D01*
X100199464Y-81033869D01*
X100192050Y-81042050D01*
X100183869Y-81049464D01*
X100175002Y-81056040D01*
X100165532Y-81061716D01*
X100155552Y-81066436D01*
X100145157Y-81070156D01*
X100134448Y-81072838D01*
X100123527Y-81074458D01*
X100112500Y-81075000D01*
X99887500Y-81075000D01*
X99876473Y-81074458D01*
X99865552Y-81072838D01*
X99854843Y-81070156D01*
X99844448Y-81066436D01*
X99834468Y-81061716D01*
X99824998Y-81056040D01*
X99816131Y-81049464D01*
X99807950Y-81042050D01*
X99800536Y-81033869D01*
X99793960Y-81025002D01*
X99788284Y-81015532D01*
X99783564Y-81005552D01*
X99779844Y-80995157D01*
X99777162Y-80984448D01*
X99775542Y-80973527D01*
X99775000Y-80962500D01*
X99775000Y-80587500D01*
X99775542Y-80576473D01*
X99777162Y-80565552D01*
X99779844Y-80554843D01*
X99783564Y-80544448D01*
X99788284Y-80534468D01*
X99793960Y-80524998D01*
X99800536Y-80516131D01*
X99807950Y-80507950D01*
X99816131Y-80500536D01*
X99824998Y-80493960D01*
X99834468Y-80488284D01*
X99844448Y-80483564D01*
X99854843Y-80479844D01*
X99865552Y-80477162D01*
X99876473Y-80475542D01*
X99887500Y-80475000D01*
X100112500Y-80475000D01*
X100123527Y-80475542D01*
X100123527Y-80475542D01*
G37*
D19*
X100000000Y-80775000D03*
D10*
G36*
X99398527Y-80225542D02*
X99409448Y-80227162D01*
X99420157Y-80229844D01*
X99430552Y-80233564D01*
X99440532Y-80238284D01*
X99450002Y-80243960D01*
X99458869Y-80250536D01*
X99467050Y-80257950D01*
X99474464Y-80266131D01*
X99481040Y-80274998D01*
X99486716Y-80284468D01*
X99491436Y-80294448D01*
X99495156Y-80304843D01*
X99497838Y-80315552D01*
X99499458Y-80326473D01*
X99500000Y-80337500D01*
X99500000Y-80562500D01*
X99499458Y-80573527D01*
X99497838Y-80584448D01*
X99495156Y-80595157D01*
X99491436Y-80605552D01*
X99486716Y-80615532D01*
X99481040Y-80625002D01*
X99474464Y-80633869D01*
X99467050Y-80642050D01*
X99458869Y-80649464D01*
X99450002Y-80656040D01*
X99440532Y-80661716D01*
X99430552Y-80666436D01*
X99420157Y-80670156D01*
X99409448Y-80672838D01*
X99398527Y-80674458D01*
X99387500Y-80675000D01*
X99012500Y-80675000D01*
X99001473Y-80674458D01*
X98990552Y-80672838D01*
X98979843Y-80670156D01*
X98969448Y-80666436D01*
X98959468Y-80661716D01*
X98949998Y-80656040D01*
X98941131Y-80649464D01*
X98932950Y-80642050D01*
X98925536Y-80633869D01*
X98918960Y-80625002D01*
X98913284Y-80615532D01*
X98908564Y-80605552D01*
X98904844Y-80595157D01*
X98902162Y-80584448D01*
X98900542Y-80573527D01*
X98900000Y-80562500D01*
X98900000Y-80337500D01*
X98900542Y-80326473D01*
X98902162Y-80315552D01*
X98904844Y-80304843D01*
X98908564Y-80294448D01*
X98913284Y-80284468D01*
X98918960Y-80274998D01*
X98925536Y-80266131D01*
X98932950Y-80257950D01*
X98941131Y-80250536D01*
X98949998Y-80243960D01*
X98959468Y-80238284D01*
X98969448Y-80233564D01*
X98979843Y-80229844D01*
X98990552Y-80227162D01*
X99001473Y-80225542D01*
X99012500Y-80225000D01*
X99387500Y-80225000D01*
X99398527Y-80225542D01*
X99398527Y-80225542D01*
G37*
D19*
X99200000Y-80450000D03*
D10*
G36*
X99398527Y-79575542D02*
X99409448Y-79577162D01*
X99420157Y-79579844D01*
X99430552Y-79583564D01*
X99440532Y-79588284D01*
X99450002Y-79593960D01*
X99458869Y-79600536D01*
X99467050Y-79607950D01*
X99474464Y-79616131D01*
X99481040Y-79624998D01*
X99486716Y-79634468D01*
X99491436Y-79644448D01*
X99495156Y-79654843D01*
X99497838Y-79665552D01*
X99499458Y-79676473D01*
X99500000Y-79687500D01*
X99500000Y-79912500D01*
X99499458Y-79923527D01*
X99497838Y-79934448D01*
X99495156Y-79945157D01*
X99491436Y-79955552D01*
X99486716Y-79965532D01*
X99481040Y-79975002D01*
X99474464Y-79983869D01*
X99467050Y-79992050D01*
X99458869Y-79999464D01*
X99450002Y-80006040D01*
X99440532Y-80011716D01*
X99430552Y-80016436D01*
X99420157Y-80020156D01*
X99409448Y-80022838D01*
X99398527Y-80024458D01*
X99387500Y-80025000D01*
X99012500Y-80025000D01*
X99001473Y-80024458D01*
X98990552Y-80022838D01*
X98979843Y-80020156D01*
X98969448Y-80016436D01*
X98959468Y-80011716D01*
X98949998Y-80006040D01*
X98941131Y-79999464D01*
X98932950Y-79992050D01*
X98925536Y-79983869D01*
X98918960Y-79975002D01*
X98913284Y-79965532D01*
X98908564Y-79955552D01*
X98904844Y-79945157D01*
X98902162Y-79934448D01*
X98900542Y-79923527D01*
X98900000Y-79912500D01*
X98900000Y-79687500D01*
X98900542Y-79676473D01*
X98902162Y-79665552D01*
X98904844Y-79654843D01*
X98908564Y-79644448D01*
X98913284Y-79634468D01*
X98918960Y-79624998D01*
X98925536Y-79616131D01*
X98932950Y-79607950D01*
X98941131Y-79600536D01*
X98949998Y-79593960D01*
X98959468Y-79588284D01*
X98969448Y-79583564D01*
X98979843Y-79579844D01*
X98990552Y-79577162D01*
X99001473Y-79575542D01*
X99012500Y-79575000D01*
X99387500Y-79575000D01*
X99398527Y-79575542D01*
X99398527Y-79575542D01*
G37*
D19*
X99200000Y-79800000D03*
D10*
G36*
X99398527Y-78925542D02*
X99409448Y-78927162D01*
X99420157Y-78929844D01*
X99430552Y-78933564D01*
X99440532Y-78938284D01*
X99450002Y-78943960D01*
X99458869Y-78950536D01*
X99467050Y-78957950D01*
X99474464Y-78966131D01*
X99481040Y-78974998D01*
X99486716Y-78984468D01*
X99491436Y-78994448D01*
X99495156Y-79004843D01*
X99497838Y-79015552D01*
X99499458Y-79026473D01*
X99500000Y-79037500D01*
X99500000Y-79262500D01*
X99499458Y-79273527D01*
X99497838Y-79284448D01*
X99495156Y-79295157D01*
X99491436Y-79305552D01*
X99486716Y-79315532D01*
X99481040Y-79325002D01*
X99474464Y-79333869D01*
X99467050Y-79342050D01*
X99458869Y-79349464D01*
X99450002Y-79356040D01*
X99440532Y-79361716D01*
X99430552Y-79366436D01*
X99420157Y-79370156D01*
X99409448Y-79372838D01*
X99398527Y-79374458D01*
X99387500Y-79375000D01*
X99012500Y-79375000D01*
X99001473Y-79374458D01*
X98990552Y-79372838D01*
X98979843Y-79370156D01*
X98969448Y-79366436D01*
X98959468Y-79361716D01*
X98949998Y-79356040D01*
X98941131Y-79349464D01*
X98932950Y-79342050D01*
X98925536Y-79333869D01*
X98918960Y-79325002D01*
X98913284Y-79315532D01*
X98908564Y-79305552D01*
X98904844Y-79295157D01*
X98902162Y-79284448D01*
X98900542Y-79273527D01*
X98900000Y-79262500D01*
X98900000Y-79037500D01*
X98900542Y-79026473D01*
X98902162Y-79015552D01*
X98904844Y-79004843D01*
X98908564Y-78994448D01*
X98913284Y-78984468D01*
X98918960Y-78974998D01*
X98925536Y-78966131D01*
X98932950Y-78957950D01*
X98941131Y-78950536D01*
X98949998Y-78943960D01*
X98959468Y-78938284D01*
X98969448Y-78933564D01*
X98979843Y-78929844D01*
X98990552Y-78927162D01*
X99001473Y-78925542D01*
X99012500Y-78925000D01*
X99387500Y-78925000D01*
X99398527Y-78925542D01*
X99398527Y-78925542D01*
G37*
D19*
X99200000Y-79150000D03*
G04 #@! TD*
D10*
G04 #@! TO.C,Y2*
G36*
X101435779Y-74826144D02*
X101458834Y-74829563D01*
X101481443Y-74835227D01*
X101503387Y-74843079D01*
X101524457Y-74853044D01*
X101544448Y-74865026D01*
X101563168Y-74878910D01*
X101580438Y-74894562D01*
X101596090Y-74911832D01*
X101609974Y-74930552D01*
X101621956Y-74950543D01*
X101631921Y-74971613D01*
X101639773Y-74993557D01*
X101645437Y-75016166D01*
X101648856Y-75039221D01*
X101650000Y-75062500D01*
X101650000Y-75537500D01*
X101648856Y-75560779D01*
X101645437Y-75583834D01*
X101639773Y-75606443D01*
X101631921Y-75628387D01*
X101621956Y-75649457D01*
X101609974Y-75669448D01*
X101596090Y-75688168D01*
X101580438Y-75705438D01*
X101563168Y-75721090D01*
X101544448Y-75734974D01*
X101524457Y-75746956D01*
X101503387Y-75756921D01*
X101481443Y-75764773D01*
X101458834Y-75770437D01*
X101435779Y-75773856D01*
X101412500Y-75775000D01*
X100837500Y-75775000D01*
X100814221Y-75773856D01*
X100791166Y-75770437D01*
X100768557Y-75764773D01*
X100746613Y-75756921D01*
X100725543Y-75746956D01*
X100705552Y-75734974D01*
X100686832Y-75721090D01*
X100669562Y-75705438D01*
X100653910Y-75688168D01*
X100640026Y-75669448D01*
X100628044Y-75649457D01*
X100618079Y-75628387D01*
X100610227Y-75606443D01*
X100604563Y-75583834D01*
X100601144Y-75560779D01*
X100600000Y-75537500D01*
X100600000Y-75062500D01*
X100601144Y-75039221D01*
X100604563Y-75016166D01*
X100610227Y-74993557D01*
X100618079Y-74971613D01*
X100628044Y-74950543D01*
X100640026Y-74930552D01*
X100653910Y-74911832D01*
X100669562Y-74894562D01*
X100686832Y-74878910D01*
X100705552Y-74865026D01*
X100725543Y-74853044D01*
X100746613Y-74843079D01*
X100768557Y-74835227D01*
X100791166Y-74829563D01*
X100814221Y-74826144D01*
X100837500Y-74825000D01*
X101412500Y-74825000D01*
X101435779Y-74826144D01*
X101435779Y-74826144D01*
G37*
D20*
X101125000Y-75300000D03*
D10*
G36*
X99985779Y-74826144D02*
X100008834Y-74829563D01*
X100031443Y-74835227D01*
X100053387Y-74843079D01*
X100074457Y-74853044D01*
X100094448Y-74865026D01*
X100113168Y-74878910D01*
X100130438Y-74894562D01*
X100146090Y-74911832D01*
X100159974Y-74930552D01*
X100171956Y-74950543D01*
X100181921Y-74971613D01*
X100189773Y-74993557D01*
X100195437Y-75016166D01*
X100198856Y-75039221D01*
X100200000Y-75062500D01*
X100200000Y-75537500D01*
X100198856Y-75560779D01*
X100195437Y-75583834D01*
X100189773Y-75606443D01*
X100181921Y-75628387D01*
X100171956Y-75649457D01*
X100159974Y-75669448D01*
X100146090Y-75688168D01*
X100130438Y-75705438D01*
X100113168Y-75721090D01*
X100094448Y-75734974D01*
X100074457Y-75746956D01*
X100053387Y-75756921D01*
X100031443Y-75764773D01*
X100008834Y-75770437D01*
X99985779Y-75773856D01*
X99962500Y-75775000D01*
X99387500Y-75775000D01*
X99364221Y-75773856D01*
X99341166Y-75770437D01*
X99318557Y-75764773D01*
X99296613Y-75756921D01*
X99275543Y-75746956D01*
X99255552Y-75734974D01*
X99236832Y-75721090D01*
X99219562Y-75705438D01*
X99203910Y-75688168D01*
X99190026Y-75669448D01*
X99178044Y-75649457D01*
X99168079Y-75628387D01*
X99160227Y-75606443D01*
X99154563Y-75583834D01*
X99151144Y-75560779D01*
X99150000Y-75537500D01*
X99150000Y-75062500D01*
X99151144Y-75039221D01*
X99154563Y-75016166D01*
X99160227Y-74993557D01*
X99168079Y-74971613D01*
X99178044Y-74950543D01*
X99190026Y-74930552D01*
X99203910Y-74911832D01*
X99219562Y-74894562D01*
X99236832Y-74878910D01*
X99255552Y-74865026D01*
X99275543Y-74853044D01*
X99296613Y-74843079D01*
X99318557Y-74835227D01*
X99341166Y-74829563D01*
X99364221Y-74826144D01*
X99387500Y-74825000D01*
X99962500Y-74825000D01*
X99985779Y-74826144D01*
X99985779Y-74826144D01*
G37*
D20*
X99675000Y-75300000D03*
D10*
G36*
X99985779Y-73676144D02*
X100008834Y-73679563D01*
X100031443Y-73685227D01*
X100053387Y-73693079D01*
X100074457Y-73703044D01*
X100094448Y-73715026D01*
X100113168Y-73728910D01*
X100130438Y-73744562D01*
X100146090Y-73761832D01*
X100159974Y-73780552D01*
X100171956Y-73800543D01*
X100181921Y-73821613D01*
X100189773Y-73843557D01*
X100195437Y-73866166D01*
X100198856Y-73889221D01*
X100200000Y-73912500D01*
X100200000Y-74387500D01*
X100198856Y-74410779D01*
X100195437Y-74433834D01*
X100189773Y-74456443D01*
X100181921Y-74478387D01*
X100171956Y-74499457D01*
X100159974Y-74519448D01*
X100146090Y-74538168D01*
X100130438Y-74555438D01*
X100113168Y-74571090D01*
X100094448Y-74584974D01*
X100074457Y-74596956D01*
X100053387Y-74606921D01*
X100031443Y-74614773D01*
X100008834Y-74620437D01*
X99985779Y-74623856D01*
X99962500Y-74625000D01*
X99387500Y-74625000D01*
X99364221Y-74623856D01*
X99341166Y-74620437D01*
X99318557Y-74614773D01*
X99296613Y-74606921D01*
X99275543Y-74596956D01*
X99255552Y-74584974D01*
X99236832Y-74571090D01*
X99219562Y-74555438D01*
X99203910Y-74538168D01*
X99190026Y-74519448D01*
X99178044Y-74499457D01*
X99168079Y-74478387D01*
X99160227Y-74456443D01*
X99154563Y-74433834D01*
X99151144Y-74410779D01*
X99150000Y-74387500D01*
X99150000Y-73912500D01*
X99151144Y-73889221D01*
X99154563Y-73866166D01*
X99160227Y-73843557D01*
X99168079Y-73821613D01*
X99178044Y-73800543D01*
X99190026Y-73780552D01*
X99203910Y-73761832D01*
X99219562Y-73744562D01*
X99236832Y-73728910D01*
X99255552Y-73715026D01*
X99275543Y-73703044D01*
X99296613Y-73693079D01*
X99318557Y-73685227D01*
X99341166Y-73679563D01*
X99364221Y-73676144D01*
X99387500Y-73675000D01*
X99962500Y-73675000D01*
X99985779Y-73676144D01*
X99985779Y-73676144D01*
G37*
D20*
X99675000Y-74150000D03*
D10*
G36*
X101435779Y-73676144D02*
X101458834Y-73679563D01*
X101481443Y-73685227D01*
X101503387Y-73693079D01*
X101524457Y-73703044D01*
X101544448Y-73715026D01*
X101563168Y-73728910D01*
X101580438Y-73744562D01*
X101596090Y-73761832D01*
X101609974Y-73780552D01*
X101621956Y-73800543D01*
X101631921Y-73821613D01*
X101639773Y-73843557D01*
X101645437Y-73866166D01*
X101648856Y-73889221D01*
X101650000Y-73912500D01*
X101650000Y-74387500D01*
X101648856Y-74410779D01*
X101645437Y-74433834D01*
X101639773Y-74456443D01*
X101631921Y-74478387D01*
X101621956Y-74499457D01*
X101609974Y-74519448D01*
X101596090Y-74538168D01*
X101580438Y-74555438D01*
X101563168Y-74571090D01*
X101544448Y-74584974D01*
X101524457Y-74596956D01*
X101503387Y-74606921D01*
X101481443Y-74614773D01*
X101458834Y-74620437D01*
X101435779Y-74623856D01*
X101412500Y-74625000D01*
X100837500Y-74625000D01*
X100814221Y-74623856D01*
X100791166Y-74620437D01*
X100768557Y-74614773D01*
X100746613Y-74606921D01*
X100725543Y-74596956D01*
X100705552Y-74584974D01*
X100686832Y-74571090D01*
X100669562Y-74555438D01*
X100653910Y-74538168D01*
X100640026Y-74519448D01*
X100628044Y-74499457D01*
X100618079Y-74478387D01*
X100610227Y-74456443D01*
X100604563Y-74433834D01*
X100601144Y-74410779D01*
X100600000Y-74387500D01*
X100600000Y-73912500D01*
X100601144Y-73889221D01*
X100604563Y-73866166D01*
X100610227Y-73843557D01*
X100618079Y-73821613D01*
X100628044Y-73800543D01*
X100640026Y-73780552D01*
X100653910Y-73761832D01*
X100669562Y-73744562D01*
X100686832Y-73728910D01*
X100705552Y-73715026D01*
X100725543Y-73703044D01*
X100746613Y-73693079D01*
X100768557Y-73685227D01*
X100791166Y-73679563D01*
X100814221Y-73676144D01*
X100837500Y-73675000D01*
X101412500Y-73675000D01*
X101435779Y-73676144D01*
X101435779Y-73676144D01*
G37*
D20*
X101125000Y-74150000D03*
G04 #@! TD*
D10*
G04 #@! TO.C,C4*
G36*
X115227408Y-79299831D02*
X115244153Y-79302315D01*
X115260574Y-79306428D01*
X115276513Y-79312131D01*
X115291816Y-79319369D01*
X115306336Y-79328071D01*
X115319933Y-79338156D01*
X115332476Y-79349524D01*
X115343844Y-79362067D01*
X115353929Y-79375664D01*
X115362631Y-79390184D01*
X115369869Y-79405487D01*
X115375572Y-79421426D01*
X115379685Y-79437847D01*
X115382169Y-79454592D01*
X115383000Y-79471500D01*
X115383000Y-79866500D01*
X115382169Y-79883408D01*
X115379685Y-79900153D01*
X115375572Y-79916574D01*
X115369869Y-79932513D01*
X115362631Y-79947816D01*
X115353929Y-79962336D01*
X115343844Y-79975933D01*
X115332476Y-79988476D01*
X115319933Y-79999844D01*
X115306336Y-80009929D01*
X115291816Y-80018631D01*
X115276513Y-80025869D01*
X115260574Y-80031572D01*
X115244153Y-80035685D01*
X115227408Y-80038169D01*
X115210500Y-80039000D01*
X114865500Y-80039000D01*
X114848592Y-80038169D01*
X114831847Y-80035685D01*
X114815426Y-80031572D01*
X114799487Y-80025869D01*
X114784184Y-80018631D01*
X114769664Y-80009929D01*
X114756067Y-79999844D01*
X114743524Y-79988476D01*
X114732156Y-79975933D01*
X114722071Y-79962336D01*
X114713369Y-79947816D01*
X114706131Y-79932513D01*
X114700428Y-79916574D01*
X114696315Y-79900153D01*
X114693831Y-79883408D01*
X114693000Y-79866500D01*
X114693000Y-79471500D01*
X114693831Y-79454592D01*
X114696315Y-79437847D01*
X114700428Y-79421426D01*
X114706131Y-79405487D01*
X114713369Y-79390184D01*
X114722071Y-79375664D01*
X114732156Y-79362067D01*
X114743524Y-79349524D01*
X114756067Y-79338156D01*
X114769664Y-79328071D01*
X114784184Y-79319369D01*
X114799487Y-79312131D01*
X114815426Y-79306428D01*
X114831847Y-79302315D01*
X114848592Y-79299831D01*
X114865500Y-79299000D01*
X115210500Y-79299000D01*
X115227408Y-79299831D01*
X115227408Y-79299831D01*
G37*
D11*
X115038000Y-79669000D03*
D10*
G36*
X116197408Y-79299831D02*
X116214153Y-79302315D01*
X116230574Y-79306428D01*
X116246513Y-79312131D01*
X116261816Y-79319369D01*
X116276336Y-79328071D01*
X116289933Y-79338156D01*
X116302476Y-79349524D01*
X116313844Y-79362067D01*
X116323929Y-79375664D01*
X116332631Y-79390184D01*
X116339869Y-79405487D01*
X116345572Y-79421426D01*
X116349685Y-79437847D01*
X116352169Y-79454592D01*
X116353000Y-79471500D01*
X116353000Y-79866500D01*
X116352169Y-79883408D01*
X116349685Y-79900153D01*
X116345572Y-79916574D01*
X116339869Y-79932513D01*
X116332631Y-79947816D01*
X116323929Y-79962336D01*
X116313844Y-79975933D01*
X116302476Y-79988476D01*
X116289933Y-79999844D01*
X116276336Y-80009929D01*
X116261816Y-80018631D01*
X116246513Y-80025869D01*
X116230574Y-80031572D01*
X116214153Y-80035685D01*
X116197408Y-80038169D01*
X116180500Y-80039000D01*
X115835500Y-80039000D01*
X115818592Y-80038169D01*
X115801847Y-80035685D01*
X115785426Y-80031572D01*
X115769487Y-80025869D01*
X115754184Y-80018631D01*
X115739664Y-80009929D01*
X115726067Y-79999844D01*
X115713524Y-79988476D01*
X115702156Y-79975933D01*
X115692071Y-79962336D01*
X115683369Y-79947816D01*
X115676131Y-79932513D01*
X115670428Y-79916574D01*
X115666315Y-79900153D01*
X115663831Y-79883408D01*
X115663000Y-79866500D01*
X115663000Y-79471500D01*
X115663831Y-79454592D01*
X115666315Y-79437847D01*
X115670428Y-79421426D01*
X115676131Y-79405487D01*
X115683369Y-79390184D01*
X115692071Y-79375664D01*
X115702156Y-79362067D01*
X115713524Y-79349524D01*
X115726067Y-79338156D01*
X115739664Y-79328071D01*
X115754184Y-79319369D01*
X115769487Y-79312131D01*
X115785426Y-79306428D01*
X115801847Y-79302315D01*
X115818592Y-79299831D01*
X115835500Y-79299000D01*
X116180500Y-79299000D01*
X116197408Y-79299831D01*
X116197408Y-79299831D01*
G37*
D11*
X116008000Y-79669000D03*
G04 #@! TD*
D21*
G04 #@! TO.C,U1*
X112075000Y-80750000D03*
X112075000Y-80250000D03*
X112075000Y-79750000D03*
X112075000Y-79250000D03*
X112075000Y-78750000D03*
X112075000Y-78250000D03*
X112075000Y-77750000D03*
X112075000Y-77250000D03*
X112075000Y-76750000D03*
X112075000Y-76250000D03*
X112075000Y-75750000D03*
X112075000Y-75250000D03*
X112075000Y-74750000D03*
X112075000Y-74250000D03*
X112075000Y-73750000D03*
X112075000Y-73250000D03*
D22*
X111350000Y-72525000D03*
X110850000Y-72525000D03*
X110350000Y-72525000D03*
X109850000Y-72525000D03*
X109350000Y-72525000D03*
X108850000Y-72525000D03*
X108350000Y-72525000D03*
X107850000Y-72525000D03*
X107350000Y-72525000D03*
X106850000Y-72525000D03*
X106350000Y-72525000D03*
X105850000Y-72525000D03*
X105350000Y-72525000D03*
X104850000Y-72525000D03*
X104350000Y-72525000D03*
X103850000Y-72525000D03*
D21*
X103125000Y-73250000D03*
X103125000Y-73750000D03*
X103125000Y-74250000D03*
X103125000Y-74750000D03*
X103125000Y-75250000D03*
X103125000Y-75750000D03*
X103125000Y-76250000D03*
X103125000Y-76750000D03*
X103125000Y-77250000D03*
X103125000Y-77750000D03*
X103125000Y-78250000D03*
X103125000Y-78750000D03*
X103125000Y-79250000D03*
X103125000Y-79750000D03*
X103125000Y-80250000D03*
X103125000Y-80750000D03*
D22*
X103850000Y-81475000D03*
X104350000Y-81475000D03*
X104850000Y-81475000D03*
X105350000Y-81475000D03*
X105850000Y-81475000D03*
X106350000Y-81475000D03*
X106850000Y-81475000D03*
X107350000Y-81475000D03*
X107850000Y-81475000D03*
X108350000Y-81475000D03*
X108850000Y-81475000D03*
X109350000Y-81475000D03*
X109850000Y-81475000D03*
X110350000Y-81475000D03*
X110850000Y-81475000D03*
X111350000Y-81475000D03*
D23*
X107600000Y-77000000D03*
G04 #@! TD*
M02*
