G04 #@! TF.FileFunction,Legend,Bot*
%FSLAX46Y46*%
G04 Gerber Fmt 4.6, Leading zero omitted, Abs format (unit mm)*
G04 Created by KiCad (PCBNEW 4.0.5+dfsg1-4) date Mon Jul 30 14:02:08 2018*
%MOMM*%
%LPD*%
G01*
G04 APERTURE LIST*
%ADD10C,0.100000*%
%ADD11C,0.120000*%
%ADD12C,0.150000*%
%ADD13C,0.125000*%
G04 APERTURE END LIST*
D10*
D11*
X114801000Y-85751000D02*
X113451000Y-85751000D01*
X114801000Y-84001000D02*
X113451000Y-84001000D01*
D12*
X105698000Y-76969000D02*
X105198000Y-76969000D01*
X105198000Y-76019000D02*
X105698000Y-76019000D01*
D11*
X105258000Y-74951000D02*
X104758000Y-74951000D01*
X104758000Y-75751000D02*
X105258000Y-75751000D01*
X105232000Y-77237000D02*
X104732000Y-77237000D01*
X104732000Y-78037000D02*
X105232000Y-78037000D01*
X105624000Y-78086000D02*
X105864000Y-78086000D01*
X105864000Y-78966000D02*
X105624000Y-78966000D01*
X108089000Y-78660000D02*
X108089000Y-78900000D01*
X107209000Y-78900000D02*
X107209000Y-78660000D01*
D12*
X100887000Y-62051000D02*
X100187000Y-62051000D01*
X100187000Y-63251000D02*
X100887000Y-63251000D01*
X114602191Y-82852190D02*
X114602191Y-83328381D01*
X114935524Y-82328381D02*
X114602191Y-82852190D01*
X114268857Y-82328381D01*
X113411714Y-83328381D02*
X113983143Y-83328381D01*
X113697429Y-83328381D02*
X113697429Y-82328381D01*
X113792667Y-82471238D01*
X113887905Y-82566476D01*
X113983143Y-82614095D01*
D13*
X107271333Y-76426190D02*
X107509428Y-76426190D01*
X107509428Y-75926190D01*
X106842762Y-76426190D02*
X107128476Y-76426190D01*
X106985619Y-76426190D02*
X106985619Y-75926190D01*
X107033238Y-75997619D01*
X107080857Y-76045238D01*
X107128476Y-76069048D01*
X103715333Y-75108571D02*
X103739143Y-75132381D01*
X103810571Y-75156190D01*
X103858190Y-75156190D01*
X103929619Y-75132381D01*
X103977238Y-75084762D01*
X104001047Y-75037143D01*
X104024857Y-74941905D01*
X104024857Y-74870476D01*
X104001047Y-74775238D01*
X103977238Y-74727619D01*
X103929619Y-74680000D01*
X103858190Y-74656190D01*
X103810571Y-74656190D01*
X103739143Y-74680000D01*
X103715333Y-74703810D01*
X103477238Y-75156190D02*
X103382000Y-75156190D01*
X103334381Y-75132381D01*
X103310571Y-75108571D01*
X103262952Y-75037143D01*
X103239143Y-74941905D01*
X103239143Y-74751429D01*
X103262952Y-74703810D01*
X103286762Y-74680000D01*
X103334381Y-74656190D01*
X103429619Y-74656190D01*
X103477238Y-74680000D01*
X103501047Y-74703810D01*
X103524857Y-74751429D01*
X103524857Y-74870476D01*
X103501047Y-74918095D01*
X103477238Y-74941905D01*
X103429619Y-74965714D01*
X103334381Y-74965714D01*
X103286762Y-74941905D01*
X103262952Y-74918095D01*
X103239143Y-74870476D01*
X103715333Y-77902571D02*
X103739143Y-77926381D01*
X103810571Y-77950190D01*
X103858190Y-77950190D01*
X103929619Y-77926381D01*
X103977238Y-77878762D01*
X104001047Y-77831143D01*
X104024857Y-77735905D01*
X104024857Y-77664476D01*
X104001047Y-77569238D01*
X103977238Y-77521619D01*
X103929619Y-77474000D01*
X103858190Y-77450190D01*
X103810571Y-77450190D01*
X103739143Y-77474000D01*
X103715333Y-77497810D01*
X103429619Y-77664476D02*
X103477238Y-77640667D01*
X103501047Y-77616857D01*
X103524857Y-77569238D01*
X103524857Y-77545429D01*
X103501047Y-77497810D01*
X103477238Y-77474000D01*
X103429619Y-77450190D01*
X103334381Y-77450190D01*
X103286762Y-77474000D01*
X103262952Y-77497810D01*
X103239143Y-77545429D01*
X103239143Y-77569238D01*
X103262952Y-77616857D01*
X103286762Y-77640667D01*
X103334381Y-77664476D01*
X103429619Y-77664476D01*
X103477238Y-77688286D01*
X103501047Y-77712095D01*
X103524857Y-77759714D01*
X103524857Y-77854952D01*
X103501047Y-77902571D01*
X103477238Y-77926381D01*
X103429619Y-77950190D01*
X103334381Y-77950190D01*
X103286762Y-77926381D01*
X103262952Y-77902571D01*
X103239143Y-77854952D01*
X103239143Y-77759714D01*
X103262952Y-77712095D01*
X103286762Y-77688286D01*
X103334381Y-77664476D01*
X106763333Y-78204190D02*
X106930000Y-77966095D01*
X107049047Y-78204190D02*
X107049047Y-77704190D01*
X106858571Y-77704190D01*
X106810952Y-77728000D01*
X106787143Y-77751810D01*
X106763333Y-77799429D01*
X106763333Y-77870857D01*
X106787143Y-77918476D01*
X106810952Y-77942286D01*
X106858571Y-77966095D01*
X107049047Y-77966095D01*
X106287143Y-78204190D02*
X106572857Y-78204190D01*
X106430000Y-78204190D02*
X106430000Y-77704190D01*
X106477619Y-77775619D01*
X106525238Y-77823238D01*
X106572857Y-77847048D01*
X108795333Y-79426571D02*
X108819143Y-79450381D01*
X108890571Y-79474190D01*
X108938190Y-79474190D01*
X109009619Y-79450381D01*
X109057238Y-79402762D01*
X109081047Y-79355143D01*
X109104857Y-79259905D01*
X109104857Y-79188476D01*
X109081047Y-79093238D01*
X109057238Y-79045619D01*
X109009619Y-78998000D01*
X108938190Y-78974190D01*
X108890571Y-78974190D01*
X108819143Y-78998000D01*
X108795333Y-79021810D01*
X108628666Y-78974190D02*
X108319143Y-78974190D01*
X108485809Y-79164667D01*
X108414381Y-79164667D01*
X108366762Y-79188476D01*
X108342952Y-79212286D01*
X108319143Y-79259905D01*
X108319143Y-79378952D01*
X108342952Y-79426571D01*
X108366762Y-79450381D01*
X108414381Y-79474190D01*
X108557238Y-79474190D01*
X108604857Y-79450381D01*
X108628666Y-79426571D01*
D12*
X104814667Y-62785714D02*
X104814667Y-63261905D01*
X105100381Y-62690476D02*
X104100381Y-63023809D01*
X105100381Y-63357143D01*
X105100381Y-64214286D02*
X105100381Y-63642857D01*
X105100381Y-63928571D02*
X104100381Y-63928571D01*
X104243238Y-63833333D01*
X104338476Y-63738095D01*
X104386095Y-63642857D01*
X100703666Y-61108143D02*
X100751285Y-61155762D01*
X100894142Y-61203381D01*
X100989380Y-61203381D01*
X101132238Y-61155762D01*
X101227476Y-61060524D01*
X101275095Y-60965286D01*
X101322714Y-60774810D01*
X101322714Y-60631952D01*
X101275095Y-60441476D01*
X101227476Y-60346238D01*
X101132238Y-60251000D01*
X100989380Y-60203381D01*
X100894142Y-60203381D01*
X100751285Y-60251000D01*
X100703666Y-60298619D01*
X99751285Y-61203381D02*
X100322714Y-61203381D01*
X100037000Y-61203381D02*
X100037000Y-60203381D01*
X100132238Y-60346238D01*
X100227476Y-60441476D01*
X100322714Y-60489095D01*
X114045904Y-73922000D02*
X114141142Y-73874381D01*
X114283999Y-73874381D01*
X114426857Y-73922000D01*
X114522095Y-74017238D01*
X114569714Y-74112476D01*
X114617333Y-74302952D01*
X114617333Y-74445810D01*
X114569714Y-74636286D01*
X114522095Y-74731524D01*
X114426857Y-74826762D01*
X114283999Y-74874381D01*
X114188761Y-74874381D01*
X114045904Y-74826762D01*
X113998285Y-74779143D01*
X113998285Y-74445810D01*
X114188761Y-74445810D01*
X113569714Y-74874381D02*
X113569714Y-73874381D01*
X112998285Y-74874381D01*
X112998285Y-73874381D01*
X112522095Y-74874381D02*
X112522095Y-73874381D01*
X112284000Y-73874381D01*
X112141142Y-73922000D01*
X112045904Y-74017238D01*
X111998285Y-74112476D01*
X111950666Y-74302952D01*
X111950666Y-74445810D01*
X111998285Y-74636286D01*
X112045904Y-74731524D01*
X112141142Y-74826762D01*
X112284000Y-74874381D01*
X112522095Y-74874381D01*
X114052381Y-59066667D02*
X115052381Y-59400000D01*
X114052381Y-59733334D01*
X114957143Y-60638096D02*
X115004762Y-60590477D01*
X115052381Y-60447620D01*
X115052381Y-60352382D01*
X115004762Y-60209524D01*
X114909524Y-60114286D01*
X114814286Y-60066667D01*
X114623810Y-60019048D01*
X114480952Y-60019048D01*
X114290476Y-60066667D01*
X114195238Y-60114286D01*
X114100000Y-60209524D01*
X114052381Y-60352382D01*
X114052381Y-60447620D01*
X114100000Y-60590477D01*
X114147619Y-60638096D01*
X114957143Y-61638096D02*
X115004762Y-61590477D01*
X115052381Y-61447620D01*
X115052381Y-61352382D01*
X115004762Y-61209524D01*
X114909524Y-61114286D01*
X114814286Y-61066667D01*
X114623810Y-61019048D01*
X114480952Y-61019048D01*
X114290476Y-61066667D01*
X114195238Y-61114286D01*
X114100000Y-61209524D01*
X114052381Y-61352382D01*
X114052381Y-61447620D01*
X114100000Y-61590477D01*
X114147619Y-61638096D01*
M02*
