G04 #@! TF.FileFunction,Copper,L1,Top,Signal*
%FSLAX46Y46*%
G04 Gerber Fmt 4.6, Leading zero omitted, Abs format (unit mm)*
G04 Created by KiCad (PCBNEW 4.0.5+dfsg1-4) date Mon Jul 30 14:02:08 2018*
%MOMM*%
%LPD*%
G01*
G04 APERTURE LIST*
%ADD10C,0.100000*%
%ADD11R,0.310000X1.750000*%
%ADD12R,0.300000X0.700000*%
%ADD13R,0.350000X0.300000*%
%ADD14R,0.300000X0.350000*%
%ADD15R,0.280000X0.430000*%
%ADD16R,0.950000X0.850000*%
%ADD17R,0.600000X0.500000*%
%ADD18R,0.985000X1.750000*%
%ADD19O,0.800000X0.250000*%
%ADD20O,0.250000X0.800000*%
%ADD21R,4.250000X4.250000*%
%ADD22O,1.200000X2.700000*%
%ADD23C,1.524000*%
%ADD24C,0.600000*%
%ADD25C,0.177800*%
G04 APERTURE END LIST*
D10*
D11*
X99200000Y-70200000D03*
X99800000Y-70200000D03*
X100400000Y-70200000D03*
X101000000Y-70200000D03*
X101600000Y-70200000D03*
X102200000Y-70200000D03*
X102800000Y-70200000D03*
X103400000Y-70200000D03*
X104000000Y-70200000D03*
X104600000Y-70200000D03*
X105200000Y-70200000D03*
X105800000Y-70200000D03*
X106400000Y-70200000D03*
X107000000Y-70200000D03*
X107600000Y-70200000D03*
X108200000Y-70200000D03*
X108800000Y-70200000D03*
X109400000Y-70200000D03*
X110000000Y-70200000D03*
X110600000Y-70200000D03*
X111200000Y-70200000D03*
X111800000Y-70200000D03*
X112400000Y-70200000D03*
X113000000Y-70200000D03*
X113600000Y-70200000D03*
X114200000Y-70200000D03*
X114800000Y-70200000D03*
X115400000Y-70200000D03*
X116000000Y-70200000D03*
X116600000Y-70200000D03*
X117200000Y-70200000D03*
X117800000Y-70200000D03*
X118400000Y-70200000D03*
X119000000Y-70200000D03*
X119600000Y-70200000D03*
D12*
X99973200Y-78780000D03*
X100613200Y-78780000D03*
X101253200Y-78780000D03*
X101253200Y-77530000D03*
X100613200Y-77530000D03*
X99973200Y-77530000D03*
D13*
X98479600Y-74996000D03*
X98479600Y-74436000D03*
D14*
X100613200Y-73039600D03*
X100053200Y-73039600D03*
D15*
X101273600Y-80050000D03*
X100753600Y-80050000D03*
X113993000Y-76240000D03*
X114513000Y-76240000D03*
X113993000Y-75224000D03*
X114513000Y-75224000D03*
D16*
X101070400Y-74157200D03*
X99620400Y-74157200D03*
X99620400Y-75307200D03*
X101070400Y-75307200D03*
D17*
X114973000Y-79669000D03*
X116073000Y-79669000D03*
D18*
X103300000Y-83800000D03*
X104800000Y-83800000D03*
X106300000Y-83800000D03*
X107800000Y-83800000D03*
X109300000Y-83800000D03*
X110800000Y-83800000D03*
X112300000Y-83800000D03*
X113800000Y-83800000D03*
X115300000Y-83800000D03*
D19*
X112075000Y-80750000D03*
X112075000Y-80250000D03*
X112075000Y-79750000D03*
X112075000Y-79250000D03*
X112075000Y-78750000D03*
X112075000Y-78250000D03*
X112075000Y-77750000D03*
X112075000Y-77250000D03*
X112075000Y-76750000D03*
X112075000Y-76250000D03*
X112075000Y-75750000D03*
X112075000Y-75250000D03*
X112075000Y-74750000D03*
X112075000Y-74250000D03*
X112075000Y-73750000D03*
X112075000Y-73250000D03*
D20*
X111350000Y-72525000D03*
X110850000Y-72525000D03*
X110350000Y-72525000D03*
X109850000Y-72525000D03*
X109350000Y-72525000D03*
X108850000Y-72525000D03*
X108350000Y-72525000D03*
X107850000Y-72525000D03*
X107350000Y-72525000D03*
X106850000Y-72525000D03*
X106350000Y-72525000D03*
X105850000Y-72525000D03*
X105350000Y-72525000D03*
X104850000Y-72525000D03*
X104350000Y-72525000D03*
X103850000Y-72525000D03*
D19*
X103125000Y-73250000D03*
X103125000Y-73750000D03*
X103125000Y-74250000D03*
X103125000Y-74750000D03*
X103125000Y-75250000D03*
X103125000Y-75750000D03*
X103125000Y-76250000D03*
X103125000Y-76750000D03*
X103125000Y-77250000D03*
X103125000Y-77750000D03*
X103125000Y-78250000D03*
X103125000Y-78750000D03*
X103125000Y-79250000D03*
X103125000Y-79750000D03*
X103125000Y-80250000D03*
X103125000Y-80750000D03*
D20*
X103850000Y-81475000D03*
X104350000Y-81475000D03*
X104850000Y-81475000D03*
X105350000Y-81475000D03*
X105850000Y-81475000D03*
X106350000Y-81475000D03*
X106850000Y-81475000D03*
X107350000Y-81475000D03*
X107850000Y-81475000D03*
X108350000Y-81475000D03*
X108850000Y-81475000D03*
X109350000Y-81475000D03*
X109850000Y-81475000D03*
X110350000Y-81475000D03*
X110850000Y-81475000D03*
X111350000Y-81475000D03*
D21*
X107600000Y-77000000D03*
D22*
X121800000Y-82600000D03*
X121800000Y-75100000D03*
D23*
X99600000Y-84400000D03*
X97870000Y-82400000D03*
X118600000Y-84400000D03*
D24*
X104140000Y-67564000D03*
X101346000Y-67564000D03*
X101346000Y-72136000D03*
X108966000Y-75692000D03*
X108966000Y-76962000D03*
X108966000Y-78486000D03*
X116840000Y-83820000D03*
X117094000Y-85344000D03*
X110998000Y-85344000D03*
X108458000Y-85344000D03*
X105664000Y-85344000D03*
X101854000Y-85344000D03*
X97790000Y-70612000D03*
X97790000Y-68072000D03*
X120650000Y-70358000D03*
X120650000Y-67056000D03*
X119888000Y-66294000D03*
X117602000Y-66294000D03*
X113284000Y-66294000D03*
X110490000Y-66294000D03*
X117856000Y-79502000D03*
X108966000Y-74168000D03*
X110490000Y-74422000D03*
X110744000Y-78486000D03*
X110744000Y-76962000D03*
X104902000Y-73914000D03*
X120396000Y-74422000D03*
X120142000Y-76708000D03*
X119380000Y-78994000D03*
X119380000Y-81280000D03*
X117602000Y-73660000D03*
X117595000Y-75438000D03*
X116793000Y-81320000D03*
X107268000Y-66715000D03*
X102696000Y-66334000D03*
X101426000Y-83098000D03*
X98632000Y-66715000D03*
X111459000Y-67604000D03*
X99775000Y-80050000D03*
X106125000Y-77637000D03*
X106760000Y-75351000D03*
X115142000Y-67477000D03*
X116031000Y-77002000D03*
X98759000Y-76875000D03*
X100156000Y-72049000D03*
X101870519Y-75085707D03*
X115269000Y-74135200D03*
X115269000Y-72430000D03*
X107600000Y-77000000D03*
X105484146Y-79783034D03*
X108919000Y-80010000D03*
X107395000Y-73954000D03*
X110570000Y-80177000D03*
X107188000Y-80068700D03*
X101426000Y-81701000D03*
X104753400Y-79516600D03*
X118970552Y-67335422D03*
X118974981Y-76489728D03*
X118358989Y-67816011D03*
X118063000Y-77129000D03*
X117809000Y-68366000D03*
X117301000Y-77750000D03*
X99013000Y-78399000D03*
X104093000Y-76821200D03*
X104093000Y-75732000D03*
X104474000Y-78526000D03*
X109681000Y-80304000D03*
D25*
X102102680Y-72908412D02*
X102200000Y-72811092D01*
X102200000Y-72811092D02*
X102200000Y-70200000D01*
X103125000Y-74250000D02*
X103125000Y-74169000D01*
X103125000Y-74169000D02*
X103097710Y-74141710D01*
X103097710Y-74141710D02*
X102436002Y-74141710D01*
X102436002Y-74141710D02*
X102102680Y-73808388D01*
X102102680Y-73808388D02*
X102102680Y-72908412D01*
X102458290Y-73055710D02*
X102800000Y-72714000D01*
X102800000Y-72714000D02*
X102800000Y-70200000D01*
X103125000Y-73750000D02*
X102547200Y-73750000D01*
X102547200Y-73750000D02*
X102458290Y-73661090D01*
X102458290Y-73661090D02*
X102458290Y-73055710D01*
X103400000Y-70200000D02*
X103400000Y-72975000D01*
X103400000Y-72975000D02*
X103125000Y-73250000D01*
X104000000Y-70200000D02*
X104000000Y-71507000D01*
X103850000Y-71657000D02*
X103850000Y-72525000D01*
X104000000Y-71507000D02*
X103850000Y-71657000D01*
X104600000Y-70200000D02*
X104600000Y-71415000D01*
X104350000Y-71665000D02*
X104350000Y-72525000D01*
X104600000Y-71415000D02*
X104350000Y-71665000D01*
X105200000Y-70200000D02*
X105200000Y-71317898D01*
X104850000Y-71667898D02*
X104850000Y-72525000D01*
X105200000Y-71317898D02*
X104850000Y-71667898D01*
X105800000Y-70200000D02*
X105800000Y-71220796D01*
X105350000Y-71670796D02*
X105350000Y-72525000D01*
X105800000Y-71220796D02*
X105350000Y-71670796D01*
X106400000Y-70200000D02*
X106400000Y-71123694D01*
X105850000Y-71673694D02*
X105850000Y-72525000D01*
X106400000Y-71123694D02*
X105850000Y-71673694D01*
X107000000Y-70200000D02*
X107000000Y-71026592D01*
X107000000Y-71026592D02*
X106350000Y-71676592D01*
X106350000Y-71676592D02*
X106350000Y-72525000D01*
X107600000Y-70200000D02*
X107600000Y-71082000D01*
X106850000Y-71679490D02*
X106850000Y-72525000D01*
X106937745Y-71591745D02*
X106850000Y-71679490D01*
X107090255Y-71591745D02*
X106937745Y-71591745D01*
X107600000Y-71082000D02*
X107090255Y-71591745D01*
X108200000Y-70200000D02*
X108200000Y-71244000D01*
X107850000Y-71594000D02*
X107850000Y-72525000D01*
X108200000Y-71244000D02*
X107850000Y-71594000D01*
X108800000Y-70200000D02*
X108800000Y-71152000D01*
X108350000Y-71602000D02*
X108350000Y-72525000D01*
X108800000Y-71152000D02*
X108350000Y-71602000D01*
X109400000Y-70200000D02*
X109400000Y-71060000D01*
X109400000Y-71060000D02*
X108850000Y-71610000D01*
X108850000Y-71610000D02*
X108850000Y-72525000D01*
X110000000Y-70200000D02*
X110000000Y-71095000D01*
X109350000Y-71745000D02*
X109350000Y-72525000D01*
X110000000Y-71095000D02*
X109350000Y-71745000D01*
X110600000Y-70200000D02*
X110600000Y-71130000D01*
X109808000Y-71922000D02*
X109808000Y-72483000D01*
X110600000Y-71130000D02*
X109808000Y-71922000D01*
X109808000Y-72483000D02*
X109850000Y-72525000D01*
X111200000Y-70200000D02*
X111200000Y-71032898D01*
X111200000Y-71032898D02*
X110951000Y-71281898D01*
X110951000Y-71281898D02*
X110313449Y-71919449D01*
X110313449Y-71919449D02*
X110313449Y-72488449D01*
X110313449Y-72488449D02*
X110350000Y-72525000D01*
X111800000Y-70200000D02*
X111800000Y-71073000D01*
X111800000Y-71073000D02*
X111400602Y-71472398D01*
X111400602Y-71472398D02*
X111273602Y-71472398D01*
X111273602Y-71472398D02*
X110850000Y-71896000D01*
X110850000Y-71896000D02*
X110850000Y-72525000D01*
X112400000Y-70200000D02*
X112400000Y-71108000D01*
X112400000Y-71108000D02*
X111350000Y-72158000D01*
X111350000Y-72158000D02*
X111350000Y-72525000D01*
X113000000Y-70200000D02*
X113000000Y-71252800D01*
X113000000Y-71252800D02*
X112075000Y-72177800D01*
X112075000Y-72177800D02*
X112075000Y-73250000D01*
X113600000Y-70200000D02*
X113600000Y-71252800D01*
X113600000Y-71252800D02*
X113421701Y-71431099D01*
X113421701Y-71431099D02*
X113421701Y-73261299D01*
X113421701Y-73261299D02*
X112933000Y-73750000D01*
X112933000Y-73750000D02*
X112075000Y-73750000D01*
X113600000Y-70200000D02*
X113600000Y-70670000D01*
X113777311Y-73540689D02*
X113068000Y-74250000D01*
X113068000Y-74250000D02*
X112075000Y-74250000D01*
X114200000Y-70200000D02*
X114200000Y-71252800D01*
X113777311Y-71675489D02*
X113777311Y-73540689D01*
X114200000Y-71252800D02*
X113777311Y-71675489D01*
X114800000Y-70200000D02*
X114800000Y-71248000D01*
X114800000Y-71248000D02*
X114132921Y-71915079D01*
X114132921Y-71915079D02*
X114132920Y-73687988D01*
X114132920Y-73687988D02*
X113070908Y-74750000D01*
X113070908Y-74750000D02*
X112075000Y-74750000D01*
X112075000Y-75250000D02*
X113073816Y-75250000D01*
X113073816Y-75250000D02*
X114558719Y-73765097D01*
X114558719Y-73765097D02*
X114558719Y-71992189D01*
X114558719Y-71992189D02*
X115155610Y-71395298D01*
X115155610Y-71395298D02*
X115257502Y-71395298D01*
X115257502Y-71395298D02*
X115400000Y-71252800D01*
X115400000Y-71252800D02*
X115400000Y-70200000D01*
X112075000Y-76750000D02*
X114828062Y-76750000D01*
X114828062Y-76750000D02*
X116000000Y-75578062D01*
X116000000Y-75578062D02*
X116000000Y-71252800D01*
X116000000Y-71252800D02*
X116000000Y-70200000D01*
X120763562Y-82810438D02*
X120974000Y-82600000D01*
X120974000Y-82600000D02*
X121800000Y-82600000D01*
X116158000Y-82810438D02*
X120763562Y-82810438D01*
X112075000Y-80250000D02*
X113597562Y-80250000D01*
X113597562Y-80250000D02*
X116158000Y-82810438D01*
X121800000Y-81850000D02*
X121800000Y-82600000D01*
X121238000Y-75224000D02*
X121676000Y-75224000D01*
X121676000Y-75224000D02*
X121800000Y-75100000D01*
X121238000Y-77189800D02*
X121238000Y-75224000D01*
X120616264Y-82454828D02*
X120616264Y-77811536D01*
X120616264Y-77811536D02*
X121238000Y-77189800D01*
X116305298Y-82454828D02*
X120616264Y-82454828D01*
X112075000Y-79750000D02*
X113600470Y-79750000D01*
X113600470Y-79750000D02*
X116305298Y-82454828D01*
X104800000Y-83800000D02*
X104800000Y-83417500D01*
X105559201Y-82658299D02*
X106556293Y-82658299D01*
X104800000Y-83417500D02*
X105559201Y-82658299D01*
X106556293Y-82658299D02*
X106911903Y-82302689D01*
X108350000Y-81896622D02*
X108350000Y-81475000D01*
X106911903Y-82302689D02*
X107943933Y-82302689D01*
X107943933Y-82302689D02*
X108350000Y-81896622D01*
X108350000Y-81475000D02*
X108350000Y-81803961D01*
X104800000Y-84182500D02*
X104800000Y-83800000D01*
X108850000Y-81475000D02*
X108850000Y-82052800D01*
X108712000Y-82190800D02*
X108558730Y-82190800D01*
X108558730Y-82190800D02*
X108182391Y-82567139D01*
X108850000Y-82052800D02*
X108712000Y-82190800D01*
X108182391Y-82567139D02*
X108182391Y-82571609D01*
X107059201Y-82658299D02*
X106300000Y-83417500D01*
X108182391Y-82571609D02*
X108095701Y-82658299D01*
X108095701Y-82658299D02*
X107059201Y-82658299D01*
X106300000Y-83417500D02*
X106300000Y-83800000D01*
X109104701Y-82658299D02*
X108594139Y-82658299D01*
X108594139Y-82658299D02*
X108538000Y-82714438D01*
X108538000Y-82714438D02*
X108538000Y-83732300D01*
X109350000Y-82413000D02*
X109249200Y-82513800D01*
X109249200Y-82513800D02*
X109173000Y-82590000D01*
X109104701Y-82658299D02*
X109249200Y-82513800D01*
X107800000Y-83800000D02*
X108470300Y-83800000D01*
X108470300Y-83800000D02*
X108538000Y-83732300D01*
X109350000Y-81475000D02*
X109350000Y-82413000D01*
X109850000Y-81475000D02*
X109850000Y-83250000D01*
X109850000Y-83250000D02*
X109300000Y-83800000D01*
X109350000Y-83750000D02*
X109300000Y-83800000D01*
X109300000Y-83800000D02*
X109300000Y-83098000D01*
X110800000Y-83800000D02*
X110800000Y-82439000D01*
X110350000Y-81989000D02*
X110350000Y-81475000D01*
X110800000Y-82439000D02*
X110350000Y-81989000D01*
X110850000Y-81475000D02*
X110850000Y-81854000D01*
X110850000Y-81854000D02*
X112300000Y-83304000D01*
X112300000Y-83304000D02*
X112300000Y-83800000D01*
X111350000Y-81475000D02*
X112630000Y-81475000D01*
X113800000Y-82645000D02*
X113800000Y-83800000D01*
X112630000Y-81475000D02*
X113800000Y-82645000D01*
X112075000Y-80750000D02*
X113429000Y-80750000D01*
X115300000Y-82621000D02*
X115300000Y-83800000D01*
X113429000Y-80750000D02*
X115300000Y-82621000D01*
X115570000Y-75500800D02*
X115570000Y-74436200D01*
X115570000Y-74436200D02*
X115269000Y-74135200D01*
X114513000Y-76240000D02*
X114830800Y-76240000D01*
X114830800Y-76240000D02*
X115570000Y-75500800D01*
X100484511Y-76354511D02*
X99822000Y-76354511D01*
X99822000Y-76354511D02*
X99279489Y-76354511D01*
X99973200Y-77530000D02*
X99973200Y-77002200D01*
X99973200Y-77002200D02*
X99822000Y-76851000D01*
X99822000Y-76851000D02*
X99822000Y-76354511D01*
X100584000Y-76723708D02*
X100584000Y-76454000D01*
X100584000Y-76454000D02*
X100484511Y-76354511D01*
X99058999Y-76575001D02*
X98759000Y-76875000D01*
X99279489Y-76354511D02*
X99058999Y-76575001D01*
X100613200Y-77530000D02*
X100613200Y-76752908D01*
X100613200Y-76752908D02*
X100584000Y-76723708D01*
X105850000Y-80255898D02*
X106050847Y-80055051D01*
X106050847Y-80055051D02*
X106050847Y-79623153D01*
X105850000Y-81475000D02*
X105850000Y-80255898D01*
X107600000Y-77000000D02*
X107600000Y-78074000D01*
X107600000Y-78074000D02*
X106050847Y-79623153D01*
X105850000Y-78750000D02*
X107600000Y-77000000D01*
X102696000Y-66334000D02*
X101466000Y-67564000D01*
X101466000Y-67564000D02*
X101346000Y-67564000D01*
X100156000Y-72049000D02*
X101259000Y-72049000D01*
X101259000Y-72049000D02*
X101346000Y-72136000D01*
X108966000Y-76962000D02*
X108966000Y-75692000D01*
X108966000Y-76962000D02*
X107638000Y-76962000D01*
X107638000Y-76962000D02*
X107600000Y-77000000D01*
X104902000Y-73914000D02*
X106339000Y-75351000D01*
X106339000Y-75351000D02*
X106760000Y-75351000D01*
X110998000Y-85344000D02*
X117094000Y-85344000D01*
X105664000Y-85344000D02*
X108458000Y-85344000D01*
X101426000Y-83098000D02*
X101426000Y-84916000D01*
X101426000Y-84916000D02*
X101854000Y-85344000D01*
X98632000Y-66715000D02*
X98632000Y-67230000D01*
X98632000Y-67230000D02*
X97790000Y-68072000D01*
X117602000Y-73660000D02*
X119564689Y-71697311D01*
X119564689Y-71697311D02*
X119658398Y-71697310D01*
X119658398Y-71697310D02*
X120350001Y-71005707D01*
X120350001Y-71005707D02*
X120350001Y-70657999D01*
X120350001Y-70657999D02*
X120650000Y-70358000D01*
X120650000Y-67056000D02*
X120650000Y-70358000D01*
X117602000Y-66294000D02*
X119888000Y-66294000D01*
X110490000Y-66294000D02*
X113284000Y-66294000D01*
X110490000Y-74422000D02*
X109220000Y-74422000D01*
X109220000Y-74422000D02*
X108966000Y-74168000D01*
X110744000Y-76962000D02*
X110744000Y-78486000D01*
X120142000Y-74676000D02*
X120396000Y-74422000D01*
X120142000Y-76708000D02*
X120142000Y-74676000D01*
X116793000Y-81320000D02*
X119340000Y-81320000D01*
X119340000Y-81320000D02*
X119380000Y-81280000D01*
X117595000Y-75438000D02*
X117595000Y-73667000D01*
X117595000Y-73667000D02*
X117602000Y-73660000D01*
X102696000Y-66334000D02*
X106887000Y-66334000D01*
X106887000Y-66334000D02*
X107268000Y-66715000D01*
X98632000Y-66715000D02*
X102315000Y-66715000D01*
X102315000Y-66715000D02*
X102696000Y-66334000D01*
X97743000Y-74462000D02*
X97743000Y-75859000D01*
X97743000Y-75859000D02*
X98759000Y-76875000D01*
X98100800Y-74462000D02*
X97743000Y-74462000D01*
X98479600Y-74436000D02*
X98126800Y-74436000D01*
X98126800Y-74436000D02*
X98100800Y-74462000D01*
X116073000Y-79669000D02*
X116073000Y-80600000D01*
X116073000Y-80600000D02*
X116793000Y-81320000D01*
X107600000Y-78326092D02*
X107600000Y-77000000D01*
X100053200Y-73039600D02*
X100053200Y-72151800D01*
X100053200Y-72151800D02*
X100156000Y-72049000D01*
X99973200Y-77530000D02*
X99973200Y-77330000D01*
X99973200Y-77330000D02*
X99518200Y-76875000D01*
X99518200Y-76875000D02*
X99140000Y-76875000D01*
X107268000Y-66715000D02*
X110570000Y-66715000D01*
X110570000Y-66715000D02*
X111459000Y-67604000D01*
X116073000Y-77044000D02*
X116031000Y-77002000D01*
X105850000Y-82052800D02*
X105693800Y-82209000D01*
X105693800Y-82209000D02*
X104696708Y-82209000D01*
X104696708Y-82209000D02*
X104247409Y-82658299D01*
X104247409Y-82658299D02*
X101865701Y-82658299D01*
X101865701Y-82658299D02*
X101426000Y-83098000D01*
X105850000Y-81475000D02*
X105850000Y-82052800D01*
X107600000Y-78109792D02*
X107600000Y-77000000D01*
X99775000Y-80050000D02*
X100753600Y-80050000D01*
X98759000Y-76875000D02*
X99140000Y-76875000D01*
X98479600Y-74436000D02*
X98504600Y-74436000D01*
X101070400Y-75307200D02*
X101649026Y-75307200D01*
X101649026Y-75307200D02*
X101870519Y-75085707D01*
X98479600Y-74436000D02*
X99341600Y-74436000D01*
X99341600Y-74436000D02*
X99620400Y-74157200D01*
X99973200Y-77530000D02*
X100613200Y-77530000D01*
X100613200Y-78780000D02*
X100613200Y-77530000D01*
X100053200Y-73039600D02*
X100053200Y-73724400D01*
X100053200Y-73724400D02*
X99620400Y-74157200D01*
X100613200Y-78780000D02*
X100613200Y-79909600D01*
X100613200Y-79909600D02*
X100753600Y-80050000D01*
X114533000Y-75224000D02*
X114533000Y-74871200D01*
X115269000Y-74135200D02*
X115269000Y-72854264D01*
X115269000Y-72854264D02*
X115269000Y-72430000D01*
X114533000Y-76240000D02*
X114533000Y-75224000D01*
X107350000Y-81475000D02*
X107350000Y-80894292D01*
X107350000Y-80894292D02*
X108234292Y-80010000D01*
X108234292Y-80010000D02*
X108494736Y-80010000D01*
X108494736Y-80010000D02*
X108919000Y-80010000D01*
X105350000Y-81475000D02*
X105350000Y-79917180D01*
X105350000Y-79917180D02*
X105484146Y-79783034D01*
X112075000Y-75750000D02*
X111497200Y-75750000D01*
X111497200Y-75750000D02*
X111332000Y-75584800D01*
X111332000Y-75584800D02*
X111332000Y-73335961D01*
X111332000Y-73335961D02*
X111187749Y-73191710D01*
X111187749Y-73191710D02*
X107438910Y-73191710D01*
X107438910Y-73191710D02*
X107350000Y-73102800D01*
X107350000Y-73102800D02*
X107350000Y-73909000D01*
X107350000Y-73909000D02*
X107395000Y-73954000D01*
X112983000Y-75750000D02*
X113076724Y-75750000D01*
X113119200Y-75750000D02*
X113645200Y-75224000D01*
X112075000Y-75750000D02*
X112983000Y-75750000D01*
X112983000Y-75750000D02*
X113119200Y-75750000D01*
X113645200Y-75224000D02*
X113973000Y-75224000D01*
X107350000Y-73102800D02*
X107350000Y-72525000D01*
X112093000Y-75732000D02*
X112075000Y-75750000D01*
X106350000Y-81475000D02*
X106350000Y-80258806D01*
X106350000Y-80258806D02*
X106426000Y-80182806D01*
X106426000Y-80182806D02*
X106426000Y-79750908D01*
X106426000Y-79750908D02*
X106766185Y-79410723D01*
X106766185Y-79410723D02*
X107037299Y-79410723D01*
X107037299Y-79410723D02*
X107037299Y-79391701D01*
X110570000Y-79542000D02*
X110570000Y-80177000D01*
X107037299Y-79391701D02*
X110419701Y-79391701D01*
X110419701Y-79391701D02*
X110570000Y-79542000D01*
X106850000Y-81475000D02*
X106850000Y-80406700D01*
X106850000Y-80406700D02*
X107188000Y-80068700D01*
X104350000Y-81475000D02*
X104350000Y-82052800D01*
X104350000Y-82052800D02*
X104100111Y-82302689D01*
X104100111Y-82302689D02*
X101382593Y-82302689D01*
X101382593Y-82302689D02*
X100361999Y-83323283D01*
X100361999Y-83323283D02*
X100361999Y-83638001D01*
X100361999Y-83638001D02*
X99600000Y-84400000D01*
X101426000Y-81701000D02*
X101126001Y-82000999D01*
X101126001Y-82000999D02*
X100746001Y-82000999D01*
X100746001Y-82000999D02*
X100347000Y-82400000D01*
X100347000Y-82400000D02*
X97870000Y-82400000D01*
X104850000Y-81475000D02*
X104850000Y-80506218D01*
X104850000Y-80506218D02*
X104716599Y-80372817D01*
X104716599Y-80372817D02*
X104716599Y-79553401D01*
X104716599Y-79553401D02*
X104753400Y-79516600D01*
X112075000Y-78750000D02*
X117642626Y-78750000D01*
X117642626Y-78750000D02*
X118629701Y-77762925D01*
X118629701Y-77762925D02*
X118629701Y-76835008D01*
X118629701Y-76835008D02*
X118974981Y-76489728D01*
X117672971Y-67160403D02*
X116486294Y-68347080D01*
X116486294Y-68347080D02*
X100600120Y-68347080D01*
X100600120Y-68347080D02*
X99800000Y-69147200D01*
X99800000Y-69147200D02*
X99800000Y-70200000D01*
X118970552Y-67335422D02*
X118795532Y-67160402D01*
X118795532Y-67160402D02*
X117672971Y-67160403D01*
X99775000Y-70225000D02*
X99800000Y-70200000D01*
X112075000Y-78250000D02*
X116962282Y-78250000D01*
X116962282Y-78250000D02*
X117028983Y-78316701D01*
X117028983Y-78316701D02*
X117573017Y-78316701D01*
X117573017Y-78316701D02*
X118063000Y-77826718D01*
X118063000Y-77826718D02*
X118063000Y-77553264D01*
X118063000Y-77553264D02*
X118063000Y-77129000D01*
X118358989Y-67816011D02*
X118058990Y-67516012D01*
X118058990Y-67516012D02*
X117820270Y-67516012D01*
X117820270Y-67516012D02*
X116633592Y-68702690D01*
X116633592Y-68702690D02*
X100844510Y-68702690D01*
X100844510Y-68702690D02*
X100400000Y-69147200D01*
X100400000Y-69147200D02*
X100400000Y-70200000D01*
X100410000Y-70210000D02*
X100400000Y-70200000D01*
X112075000Y-77750000D02*
X117301000Y-77750000D01*
X117809000Y-68366000D02*
X117116701Y-69058299D01*
X117116701Y-69058299D02*
X101088901Y-69058299D01*
X101088901Y-69058299D02*
X101000000Y-69147200D01*
X101000000Y-69147200D02*
X101000000Y-70200000D01*
X101045000Y-70245000D02*
X101000000Y-70200000D01*
X112075000Y-76250000D02*
X113963000Y-76250000D01*
X113963000Y-76250000D02*
X113973000Y-76240000D01*
X112075000Y-77250000D02*
X114830970Y-77250000D01*
X116357299Y-71341701D02*
X119511099Y-71341701D01*
X114830970Y-77250000D02*
X116355610Y-75725360D01*
X116355610Y-75725360D02*
X116355610Y-71343390D01*
X116355610Y-71343390D02*
X116357299Y-71341701D01*
X119511099Y-71341701D02*
X119600000Y-71252800D01*
X119600000Y-71252800D02*
X119600000Y-70200000D01*
X112075000Y-79250000D02*
X112437000Y-79250000D01*
X112437000Y-79250000D02*
X112581390Y-79394390D01*
X112581390Y-79394390D02*
X114220590Y-79394390D01*
X114220590Y-79394390D02*
X114495200Y-79669000D01*
X114495200Y-79669000D02*
X114973000Y-79669000D01*
X101424000Y-76750000D02*
X101253200Y-76920800D01*
X101253200Y-76920800D02*
X101253200Y-77530000D01*
X103125000Y-76750000D02*
X101424000Y-76750000D01*
X101253200Y-78780000D02*
X101253200Y-78544000D01*
X101253200Y-78544000D02*
X102547200Y-77250000D01*
X102547200Y-77250000D02*
X103125000Y-77250000D01*
X99264400Y-78399000D02*
X99013000Y-78399000D01*
X99973200Y-78780000D02*
X99645400Y-78780000D01*
X99645400Y-78780000D02*
X99264400Y-78399000D01*
X101273600Y-80050000D02*
X101273600Y-79975000D01*
X101273600Y-79975000D02*
X102498600Y-78750000D01*
X102498600Y-78750000D02*
X102547200Y-78750000D01*
X102547200Y-78750000D02*
X103125000Y-78750000D01*
X101070400Y-74157200D02*
X101948584Y-74157200D01*
X101948584Y-74157200D02*
X102396994Y-74605610D01*
X102396994Y-74605610D02*
X102651649Y-74605610D01*
X102651649Y-74605610D02*
X102796039Y-74750000D01*
X102796039Y-74750000D02*
X103125000Y-74750000D01*
X100613200Y-73039600D02*
X100613200Y-73700000D01*
X100613200Y-73700000D02*
X101070400Y-74157200D01*
X103125000Y-75250000D02*
X102796039Y-75250000D01*
X102796039Y-75250000D02*
X102442000Y-75604039D01*
X102442000Y-75604039D02*
X102442000Y-75605000D01*
X102442000Y-75605000D02*
X102048099Y-75998901D01*
X102048099Y-75998901D02*
X100362101Y-75998901D01*
X100362101Y-75998901D02*
X99670400Y-75307200D01*
X99670400Y-75307200D02*
X99620400Y-75307200D01*
X99620400Y-75307200D02*
X98790800Y-75307200D01*
X98790800Y-75307200D02*
X98479600Y-74996000D01*
X104093000Y-76443000D02*
X104093000Y-76821200D01*
X104017000Y-76367000D02*
X103839000Y-76189000D01*
X103839000Y-76189000D02*
X103400000Y-75750000D01*
X104093000Y-75732000D02*
X103793001Y-76031999D01*
X103793001Y-76031999D02*
X103793001Y-76143001D01*
X103793001Y-76143001D02*
X103839000Y-76189000D01*
X104093000Y-78859800D02*
X104093000Y-78526000D01*
X104093000Y-78526000D02*
X104093000Y-78272000D01*
X104474000Y-78526000D02*
X104093000Y-78526000D01*
X104093000Y-78272000D02*
X104093000Y-77764000D01*
X104093000Y-77764000D02*
X104093000Y-76443000D01*
X103125000Y-77750000D02*
X103702800Y-77750000D01*
X103702800Y-77750000D02*
X103716800Y-77764000D01*
X103716800Y-77764000D02*
X104093000Y-77764000D01*
X103724800Y-78272000D02*
X104093000Y-78272000D01*
X103125000Y-78250000D02*
X103702800Y-78250000D01*
X103702800Y-78250000D02*
X103724800Y-78272000D01*
X104093000Y-76443000D02*
X104017000Y-76367000D01*
X103125000Y-76250000D02*
X103702800Y-76250000D01*
X103702800Y-76250000D02*
X103819800Y-76367000D01*
X103819800Y-76367000D02*
X104017000Y-76367000D01*
X103400000Y-75750000D02*
X103125000Y-75750000D01*
X103125000Y-79250000D02*
X103702800Y-79250000D01*
X103702800Y-79250000D02*
X104093000Y-78859800D01*
X107850000Y-81475000D02*
X107850000Y-80897200D01*
X107850000Y-80897200D02*
X107938910Y-80808290D01*
X107938910Y-80808290D02*
X109176710Y-80808290D01*
X109176710Y-80808290D02*
X109681000Y-80304000D01*
X107850000Y-81475000D02*
X107804000Y-81475000D01*
D10*
G36*
X114923857Y-82692738D02*
X114807500Y-82692738D01*
X114723083Y-82708622D01*
X114645550Y-82758513D01*
X114593537Y-82834637D01*
X114575238Y-82925000D01*
X114575238Y-84675000D01*
X114591122Y-84759417D01*
X114641013Y-84836950D01*
X114717137Y-84888963D01*
X114807500Y-84907262D01*
X115792500Y-84907262D01*
X115876917Y-84891378D01*
X115954450Y-84841487D01*
X116006463Y-84765363D01*
X116024762Y-84675000D01*
X116024762Y-84658501D01*
X117287511Y-84658501D01*
X117486342Y-85141092D01*
X117489142Y-85145282D01*
X117716709Y-85212580D01*
X118529289Y-84400000D01*
X118670711Y-84400000D01*
X119483291Y-85212580D01*
X119710858Y-85145282D01*
X119911506Y-84663444D01*
X119912489Y-84141499D01*
X119713658Y-83658908D01*
X119710858Y-83654718D01*
X119483291Y-83587420D01*
X118670711Y-84400000D01*
X118529289Y-84400000D01*
X117716709Y-83587420D01*
X117489142Y-83654718D01*
X117288494Y-84136556D01*
X117287511Y-84658501D01*
X116024762Y-84658501D01*
X116024762Y-83094985D01*
X116036804Y-83103031D01*
X116158000Y-83127138D01*
X118245319Y-83127138D01*
X117858908Y-83286342D01*
X117854718Y-83289142D01*
X117787420Y-83516709D01*
X118600000Y-84329289D01*
X119412580Y-83516709D01*
X119345282Y-83289142D01*
X118956244Y-83127138D01*
X120763562Y-83127138D01*
X120884758Y-83103031D01*
X120972200Y-83044604D01*
X120972200Y-83380911D01*
X121035213Y-83697696D01*
X121188000Y-83926359D01*
X121188000Y-85969000D01*
X97412000Y-85969000D01*
X97412000Y-83281561D01*
X97672253Y-83389627D01*
X98066020Y-83389971D01*
X98429944Y-83239601D01*
X98708622Y-82961409D01*
X98810234Y-82716700D01*
X100347000Y-82716700D01*
X100468196Y-82692593D01*
X100570941Y-82623941D01*
X100877182Y-82317699D01*
X100919701Y-82317699D01*
X100138058Y-83099342D01*
X100069406Y-83202087D01*
X100045299Y-83323283D01*
X100045299Y-83506820D01*
X100040815Y-83511303D01*
X99797747Y-83410373D01*
X99403980Y-83410029D01*
X99040056Y-83560399D01*
X98761378Y-83838591D01*
X98610373Y-84202253D01*
X98610029Y-84596020D01*
X98760399Y-84959944D01*
X99038591Y-85238622D01*
X99402253Y-85389627D01*
X99796020Y-85389971D01*
X100054205Y-85283291D01*
X117787420Y-85283291D01*
X117854718Y-85510858D01*
X118336556Y-85711506D01*
X118858501Y-85712489D01*
X119341092Y-85513658D01*
X119345282Y-85510858D01*
X119412580Y-85283291D01*
X118600000Y-84470711D01*
X117787420Y-85283291D01*
X100054205Y-85283291D01*
X100159944Y-85239601D01*
X100438622Y-84961409D01*
X100589627Y-84597747D01*
X100589971Y-84203980D01*
X100488787Y-83959095D01*
X100585937Y-83861944D01*
X100585940Y-83861942D01*
X100654592Y-83759197D01*
X100678699Y-83638001D01*
X100678699Y-83454465D01*
X101208164Y-82925000D01*
X102575238Y-82925000D01*
X102575238Y-84675000D01*
X102591122Y-84759417D01*
X102641013Y-84836950D01*
X102717137Y-84888963D01*
X102807500Y-84907262D01*
X103792500Y-84907262D01*
X103876917Y-84891378D01*
X103954450Y-84841487D01*
X104006463Y-84765363D01*
X104024762Y-84675000D01*
X104024762Y-82925000D01*
X104008878Y-82840583D01*
X103958987Y-82763050D01*
X103882863Y-82711037D01*
X103792500Y-82692738D01*
X102807500Y-82692738D01*
X102723083Y-82708622D01*
X102645550Y-82758513D01*
X102593537Y-82834637D01*
X102575238Y-82925000D01*
X101208164Y-82925000D01*
X101513775Y-82619389D01*
X104100111Y-82619389D01*
X104221307Y-82595282D01*
X104324052Y-82526630D01*
X104573938Y-82276743D01*
X104573941Y-82276741D01*
X104642593Y-82173996D01*
X104666142Y-82055605D01*
X104714989Y-82088244D01*
X104850000Y-82115099D01*
X104985011Y-82088244D01*
X105099467Y-82011766D01*
X105100000Y-82010968D01*
X105100533Y-82011766D01*
X105214989Y-82088244D01*
X105282321Y-82101637D01*
X105408058Y-82262652D01*
X105550556Y-82343319D01*
X105438005Y-82365706D01*
X105335260Y-82434358D01*
X105335258Y-82434361D01*
X105076881Y-82692738D01*
X104307500Y-82692738D01*
X104223083Y-82708622D01*
X104145550Y-82758513D01*
X104093537Y-82834637D01*
X104075238Y-82925000D01*
X104075238Y-84675000D01*
X104091122Y-84759417D01*
X104141013Y-84836950D01*
X104217137Y-84888963D01*
X104307500Y-84907262D01*
X105292500Y-84907262D01*
X105376917Y-84891378D01*
X105454450Y-84841487D01*
X105506463Y-84765363D01*
X105524762Y-84675000D01*
X105524762Y-83140619D01*
X105575238Y-83090143D01*
X105575238Y-84675000D01*
X105591122Y-84759417D01*
X105641013Y-84836950D01*
X105717137Y-84888963D01*
X105807500Y-84907262D01*
X106792500Y-84907262D01*
X106876917Y-84891378D01*
X106954450Y-84841487D01*
X107006463Y-84765363D01*
X107024762Y-84675000D01*
X107024762Y-83140619D01*
X107075238Y-83090143D01*
X107075238Y-84675000D01*
X107091122Y-84759417D01*
X107141013Y-84836950D01*
X107217137Y-84888963D01*
X107307500Y-84907262D01*
X108292500Y-84907262D01*
X108376917Y-84891378D01*
X108454450Y-84841487D01*
X108506463Y-84765363D01*
X108524762Y-84675000D01*
X108524762Y-84105867D01*
X108575238Y-84095827D01*
X108575238Y-84675000D01*
X108591122Y-84759417D01*
X108641013Y-84836950D01*
X108717137Y-84888963D01*
X108807500Y-84907262D01*
X109792500Y-84907262D01*
X109876917Y-84891378D01*
X109954450Y-84841487D01*
X110006463Y-84765363D01*
X110024762Y-84675000D01*
X110024762Y-83523119D01*
X110073938Y-83473943D01*
X110073941Y-83473941D01*
X110075238Y-83472000D01*
X110075238Y-84675000D01*
X110091122Y-84759417D01*
X110141013Y-84836950D01*
X110217137Y-84888963D01*
X110307500Y-84907262D01*
X111292500Y-84907262D01*
X111376917Y-84891378D01*
X111454450Y-84841487D01*
X111506463Y-84765363D01*
X111524762Y-84675000D01*
X111524762Y-82976643D01*
X111575238Y-83027119D01*
X111575238Y-84675000D01*
X111591122Y-84759417D01*
X111641013Y-84836950D01*
X111717137Y-84888963D01*
X111807500Y-84907262D01*
X112792500Y-84907262D01*
X112876917Y-84891378D01*
X112954450Y-84841487D01*
X113006463Y-84765363D01*
X113024762Y-84675000D01*
X113024762Y-82925000D01*
X113008878Y-82840583D01*
X112958987Y-82763050D01*
X112882863Y-82711037D01*
X112792500Y-82692738D01*
X112136619Y-82692738D01*
X111513254Y-82069372D01*
X111599467Y-82011766D01*
X111675945Y-81897310D01*
X111696952Y-81791700D01*
X112498818Y-81791700D01*
X113399856Y-82692738D01*
X113307500Y-82692738D01*
X113223083Y-82708622D01*
X113145550Y-82758513D01*
X113093537Y-82834637D01*
X113075238Y-82925000D01*
X113075238Y-84675000D01*
X113091122Y-84759417D01*
X113141013Y-84836950D01*
X113217137Y-84888963D01*
X113307500Y-84907262D01*
X114292500Y-84907262D01*
X114376917Y-84891378D01*
X114454450Y-84841487D01*
X114506463Y-84765363D01*
X114524762Y-84675000D01*
X114524762Y-82925000D01*
X114508878Y-82840583D01*
X114458987Y-82763050D01*
X114382863Y-82711037D01*
X114292500Y-82692738D01*
X114116700Y-82692738D01*
X114116700Y-82645000D01*
X114092593Y-82523804D01*
X114023941Y-82421059D01*
X112853941Y-81251059D01*
X112751196Y-81182407D01*
X112630000Y-81158300D01*
X111696952Y-81158300D01*
X111681719Y-81081719D01*
X111787701Y-81102800D01*
X112362299Y-81102800D01*
X112497310Y-81075945D01*
X112511146Y-81066700D01*
X113297818Y-81066700D01*
X114923857Y-82692738D01*
X114923857Y-82692738D01*
G37*
X114923857Y-82692738D02*
X114807500Y-82692738D01*
X114723083Y-82708622D01*
X114645550Y-82758513D01*
X114593537Y-82834637D01*
X114575238Y-82925000D01*
X114575238Y-84675000D01*
X114591122Y-84759417D01*
X114641013Y-84836950D01*
X114717137Y-84888963D01*
X114807500Y-84907262D01*
X115792500Y-84907262D01*
X115876917Y-84891378D01*
X115954450Y-84841487D01*
X116006463Y-84765363D01*
X116024762Y-84675000D01*
X116024762Y-84658501D01*
X117287511Y-84658501D01*
X117486342Y-85141092D01*
X117489142Y-85145282D01*
X117716709Y-85212580D01*
X118529289Y-84400000D01*
X118670711Y-84400000D01*
X119483291Y-85212580D01*
X119710858Y-85145282D01*
X119911506Y-84663444D01*
X119912489Y-84141499D01*
X119713658Y-83658908D01*
X119710858Y-83654718D01*
X119483291Y-83587420D01*
X118670711Y-84400000D01*
X118529289Y-84400000D01*
X117716709Y-83587420D01*
X117489142Y-83654718D01*
X117288494Y-84136556D01*
X117287511Y-84658501D01*
X116024762Y-84658501D01*
X116024762Y-83094985D01*
X116036804Y-83103031D01*
X116158000Y-83127138D01*
X118245319Y-83127138D01*
X117858908Y-83286342D01*
X117854718Y-83289142D01*
X117787420Y-83516709D01*
X118600000Y-84329289D01*
X119412580Y-83516709D01*
X119345282Y-83289142D01*
X118956244Y-83127138D01*
X120763562Y-83127138D01*
X120884758Y-83103031D01*
X120972200Y-83044604D01*
X120972200Y-83380911D01*
X121035213Y-83697696D01*
X121188000Y-83926359D01*
X121188000Y-85969000D01*
X97412000Y-85969000D01*
X97412000Y-83281561D01*
X97672253Y-83389627D01*
X98066020Y-83389971D01*
X98429944Y-83239601D01*
X98708622Y-82961409D01*
X98810234Y-82716700D01*
X100347000Y-82716700D01*
X100468196Y-82692593D01*
X100570941Y-82623941D01*
X100877182Y-82317699D01*
X100919701Y-82317699D01*
X100138058Y-83099342D01*
X100069406Y-83202087D01*
X100045299Y-83323283D01*
X100045299Y-83506820D01*
X100040815Y-83511303D01*
X99797747Y-83410373D01*
X99403980Y-83410029D01*
X99040056Y-83560399D01*
X98761378Y-83838591D01*
X98610373Y-84202253D01*
X98610029Y-84596020D01*
X98760399Y-84959944D01*
X99038591Y-85238622D01*
X99402253Y-85389627D01*
X99796020Y-85389971D01*
X100054205Y-85283291D01*
X117787420Y-85283291D01*
X117854718Y-85510858D01*
X118336556Y-85711506D01*
X118858501Y-85712489D01*
X119341092Y-85513658D01*
X119345282Y-85510858D01*
X119412580Y-85283291D01*
X118600000Y-84470711D01*
X117787420Y-85283291D01*
X100054205Y-85283291D01*
X100159944Y-85239601D01*
X100438622Y-84961409D01*
X100589627Y-84597747D01*
X100589971Y-84203980D01*
X100488787Y-83959095D01*
X100585937Y-83861944D01*
X100585940Y-83861942D01*
X100654592Y-83759197D01*
X100678699Y-83638001D01*
X100678699Y-83454465D01*
X101208164Y-82925000D01*
X102575238Y-82925000D01*
X102575238Y-84675000D01*
X102591122Y-84759417D01*
X102641013Y-84836950D01*
X102717137Y-84888963D01*
X102807500Y-84907262D01*
X103792500Y-84907262D01*
X103876917Y-84891378D01*
X103954450Y-84841487D01*
X104006463Y-84765363D01*
X104024762Y-84675000D01*
X104024762Y-82925000D01*
X104008878Y-82840583D01*
X103958987Y-82763050D01*
X103882863Y-82711037D01*
X103792500Y-82692738D01*
X102807500Y-82692738D01*
X102723083Y-82708622D01*
X102645550Y-82758513D01*
X102593537Y-82834637D01*
X102575238Y-82925000D01*
X101208164Y-82925000D01*
X101513775Y-82619389D01*
X104100111Y-82619389D01*
X104221307Y-82595282D01*
X104324052Y-82526630D01*
X104573938Y-82276743D01*
X104573941Y-82276741D01*
X104642593Y-82173996D01*
X104666142Y-82055605D01*
X104714989Y-82088244D01*
X104850000Y-82115099D01*
X104985011Y-82088244D01*
X105099467Y-82011766D01*
X105100000Y-82010968D01*
X105100533Y-82011766D01*
X105214989Y-82088244D01*
X105282321Y-82101637D01*
X105408058Y-82262652D01*
X105550556Y-82343319D01*
X105438005Y-82365706D01*
X105335260Y-82434358D01*
X105335258Y-82434361D01*
X105076881Y-82692738D01*
X104307500Y-82692738D01*
X104223083Y-82708622D01*
X104145550Y-82758513D01*
X104093537Y-82834637D01*
X104075238Y-82925000D01*
X104075238Y-84675000D01*
X104091122Y-84759417D01*
X104141013Y-84836950D01*
X104217137Y-84888963D01*
X104307500Y-84907262D01*
X105292500Y-84907262D01*
X105376917Y-84891378D01*
X105454450Y-84841487D01*
X105506463Y-84765363D01*
X105524762Y-84675000D01*
X105524762Y-83140619D01*
X105575238Y-83090143D01*
X105575238Y-84675000D01*
X105591122Y-84759417D01*
X105641013Y-84836950D01*
X105717137Y-84888963D01*
X105807500Y-84907262D01*
X106792500Y-84907262D01*
X106876917Y-84891378D01*
X106954450Y-84841487D01*
X107006463Y-84765363D01*
X107024762Y-84675000D01*
X107024762Y-83140619D01*
X107075238Y-83090143D01*
X107075238Y-84675000D01*
X107091122Y-84759417D01*
X107141013Y-84836950D01*
X107217137Y-84888963D01*
X107307500Y-84907262D01*
X108292500Y-84907262D01*
X108376917Y-84891378D01*
X108454450Y-84841487D01*
X108506463Y-84765363D01*
X108524762Y-84675000D01*
X108524762Y-84105867D01*
X108575238Y-84095827D01*
X108575238Y-84675000D01*
X108591122Y-84759417D01*
X108641013Y-84836950D01*
X108717137Y-84888963D01*
X108807500Y-84907262D01*
X109792500Y-84907262D01*
X109876917Y-84891378D01*
X109954450Y-84841487D01*
X110006463Y-84765363D01*
X110024762Y-84675000D01*
X110024762Y-83523119D01*
X110073938Y-83473943D01*
X110073941Y-83473941D01*
X110075238Y-83472000D01*
X110075238Y-84675000D01*
X110091122Y-84759417D01*
X110141013Y-84836950D01*
X110217137Y-84888963D01*
X110307500Y-84907262D01*
X111292500Y-84907262D01*
X111376917Y-84891378D01*
X111454450Y-84841487D01*
X111506463Y-84765363D01*
X111524762Y-84675000D01*
X111524762Y-82976643D01*
X111575238Y-83027119D01*
X111575238Y-84675000D01*
X111591122Y-84759417D01*
X111641013Y-84836950D01*
X111717137Y-84888963D01*
X111807500Y-84907262D01*
X112792500Y-84907262D01*
X112876917Y-84891378D01*
X112954450Y-84841487D01*
X113006463Y-84765363D01*
X113024762Y-84675000D01*
X113024762Y-82925000D01*
X113008878Y-82840583D01*
X112958987Y-82763050D01*
X112882863Y-82711037D01*
X112792500Y-82692738D01*
X112136619Y-82692738D01*
X111513254Y-82069372D01*
X111599467Y-82011766D01*
X111675945Y-81897310D01*
X111696952Y-81791700D01*
X112498818Y-81791700D01*
X113399856Y-82692738D01*
X113307500Y-82692738D01*
X113223083Y-82708622D01*
X113145550Y-82758513D01*
X113093537Y-82834637D01*
X113075238Y-82925000D01*
X113075238Y-84675000D01*
X113091122Y-84759417D01*
X113141013Y-84836950D01*
X113217137Y-84888963D01*
X113307500Y-84907262D01*
X114292500Y-84907262D01*
X114376917Y-84891378D01*
X114454450Y-84841487D01*
X114506463Y-84765363D01*
X114524762Y-84675000D01*
X114524762Y-82925000D01*
X114508878Y-82840583D01*
X114458987Y-82763050D01*
X114382863Y-82711037D01*
X114292500Y-82692738D01*
X114116700Y-82692738D01*
X114116700Y-82645000D01*
X114092593Y-82523804D01*
X114023941Y-82421059D01*
X112853941Y-81251059D01*
X112751196Y-81182407D01*
X112630000Y-81158300D01*
X111696952Y-81158300D01*
X111681719Y-81081719D01*
X111787701Y-81102800D01*
X112362299Y-81102800D01*
X112497310Y-81075945D01*
X112511146Y-81066700D01*
X113297818Y-81066700D01*
X114923857Y-82692738D01*
G36*
X121188000Y-72117492D02*
X120969524Y-71898634D01*
X120665382Y-71772344D01*
X120336063Y-71772056D01*
X120031701Y-71897816D01*
X119798634Y-72130476D01*
X119672344Y-72434618D01*
X119672056Y-72763937D01*
X119797816Y-73068299D01*
X120030476Y-73301366D01*
X120334618Y-73427656D01*
X120663937Y-73427944D01*
X120968299Y-73302184D01*
X121188000Y-73082867D01*
X121188000Y-73773641D01*
X121035213Y-74002304D01*
X120972200Y-74319089D01*
X120972200Y-75062705D01*
X120945407Y-75102804D01*
X120921300Y-75224000D01*
X120921300Y-77058619D01*
X120392323Y-77587595D01*
X120323671Y-77690340D01*
X120299564Y-77811536D01*
X120299564Y-82138128D01*
X116436479Y-82138128D01*
X114009442Y-79711090D01*
X114089408Y-79711090D01*
X114271259Y-79892941D01*
X114374004Y-79961593D01*
X114451659Y-79977039D01*
X114456622Y-80003417D01*
X114506513Y-80080950D01*
X114582637Y-80132963D01*
X114673000Y-80151262D01*
X115273000Y-80151262D01*
X115273826Y-80151107D01*
X115306732Y-80230550D01*
X115461450Y-80385267D01*
X115663598Y-80469000D01*
X115885500Y-80469000D01*
X116023000Y-80331500D01*
X116023000Y-79719000D01*
X116123000Y-79719000D01*
X116123000Y-80331500D01*
X116260500Y-80469000D01*
X116482402Y-80469000D01*
X116684550Y-80385267D01*
X116839268Y-80230550D01*
X116923000Y-80028402D01*
X116923000Y-79856500D01*
X116785500Y-79719000D01*
X116123000Y-79719000D01*
X116023000Y-79719000D01*
X116003000Y-79719000D01*
X116003000Y-79619000D01*
X116023000Y-79619000D01*
X116023000Y-79599000D01*
X116123000Y-79599000D01*
X116123000Y-79619000D01*
X116785500Y-79619000D01*
X116923000Y-79481500D01*
X116923000Y-79309598D01*
X116839268Y-79107450D01*
X116798518Y-79066700D01*
X117642626Y-79066700D01*
X117763822Y-79042593D01*
X117866567Y-78973941D01*
X118853642Y-77986866D01*
X118922294Y-77884121D01*
X118946402Y-77762925D01*
X118946401Y-77762920D01*
X118946401Y-77017503D01*
X119079506Y-77017619D01*
X119273565Y-76937436D01*
X119422167Y-76789093D01*
X119502689Y-76595174D01*
X119502872Y-76385203D01*
X119422689Y-76191144D01*
X119274346Y-76042542D01*
X119080427Y-75962020D01*
X118870456Y-75961837D01*
X118676397Y-76042020D01*
X118527795Y-76190363D01*
X118447273Y-76384282D01*
X118447111Y-76569716D01*
X118405760Y-76611067D01*
X118359330Y-76680554D01*
X118168446Y-76601292D01*
X117958475Y-76601109D01*
X117764416Y-76681292D01*
X117615814Y-76829635D01*
X117535292Y-77023554D01*
X117535109Y-77233525D01*
X117556153Y-77284456D01*
X117406446Y-77222292D01*
X117196475Y-77222109D01*
X117002416Y-77302292D01*
X116871179Y-77433300D01*
X115095552Y-77433300D01*
X116579548Y-75949303D01*
X116579551Y-75949301D01*
X116648203Y-75846556D01*
X116652232Y-75826301D01*
X116672311Y-75725360D01*
X116672310Y-75725355D01*
X116672310Y-71658401D01*
X119511099Y-71658401D01*
X119632295Y-71634294D01*
X119735040Y-71565642D01*
X119823941Y-71476741D01*
X119892593Y-71373996D01*
X119916700Y-71252800D01*
X119916700Y-71241648D01*
X119916950Y-71241487D01*
X119968963Y-71165363D01*
X119987262Y-71075000D01*
X119987262Y-69325000D01*
X119971378Y-69240583D01*
X119921487Y-69163050D01*
X119845363Y-69111037D01*
X119755000Y-69092738D01*
X119445000Y-69092738D01*
X119360583Y-69108622D01*
X119299425Y-69147976D01*
X119245363Y-69111037D01*
X119155000Y-69092738D01*
X118845000Y-69092738D01*
X118760583Y-69108622D01*
X118699425Y-69147976D01*
X118645363Y-69111037D01*
X118555000Y-69092738D01*
X118245000Y-69092738D01*
X118160583Y-69108622D01*
X118099425Y-69147976D01*
X118045363Y-69111037D01*
X117955000Y-69092738D01*
X117645000Y-69092738D01*
X117560583Y-69108622D01*
X117499425Y-69147976D01*
X117484859Y-69138023D01*
X117729151Y-68893730D01*
X117913525Y-68893891D01*
X118107584Y-68813708D01*
X118256186Y-68665365D01*
X118336708Y-68471446D01*
X118336819Y-68343792D01*
X118463514Y-68343902D01*
X118657573Y-68263719D01*
X118806175Y-68115376D01*
X118886697Y-67921457D01*
X118886748Y-67863149D01*
X119075077Y-67863313D01*
X119269136Y-67783130D01*
X119417738Y-67634787D01*
X119498260Y-67440868D01*
X119498443Y-67230897D01*
X119418260Y-67036838D01*
X119269917Y-66888236D01*
X119075998Y-66807714D01*
X118866027Y-66807531D01*
X118778486Y-66843702D01*
X117672976Y-66843703D01*
X117672971Y-66843702D01*
X117551775Y-66867810D01*
X117449030Y-66936462D01*
X116355112Y-68030380D01*
X100600125Y-68030380D01*
X100600120Y-68030379D01*
X100478924Y-68054487D01*
X100376179Y-68123139D01*
X100376177Y-68123142D01*
X99576059Y-68923259D01*
X99507407Y-69026004D01*
X99485093Y-69138184D01*
X99445363Y-69111037D01*
X99355000Y-69092738D01*
X99045000Y-69092738D01*
X98960583Y-69108622D01*
X98883050Y-69158513D01*
X98831037Y-69234637D01*
X98812738Y-69325000D01*
X98812738Y-71075000D01*
X98828622Y-71159417D01*
X98878513Y-71236950D01*
X98954637Y-71288963D01*
X99045000Y-71307262D01*
X99355000Y-71307262D01*
X99439417Y-71291378D01*
X99500575Y-71252024D01*
X99554637Y-71288963D01*
X99645000Y-71307262D01*
X99955000Y-71307262D01*
X100039417Y-71291378D01*
X100100575Y-71252024D01*
X100154637Y-71288963D01*
X100245000Y-71307262D01*
X100555000Y-71307262D01*
X100639417Y-71291378D01*
X100700575Y-71252024D01*
X100754637Y-71288963D01*
X100845000Y-71307262D01*
X101155000Y-71307262D01*
X101239417Y-71291378D01*
X101300575Y-71252024D01*
X101354637Y-71288963D01*
X101445000Y-71307262D01*
X101755000Y-71307262D01*
X101839417Y-71291378D01*
X101883300Y-71263140D01*
X101883300Y-72679910D01*
X101878739Y-72684471D01*
X101810087Y-72787216D01*
X101785980Y-72908412D01*
X101785980Y-73808388D01*
X101792367Y-73840500D01*
X101777662Y-73840500D01*
X101777662Y-73732200D01*
X101761778Y-73647783D01*
X101711887Y-73570250D01*
X101635763Y-73518237D01*
X101545400Y-73499938D01*
X100929900Y-73499938D01*
X100929900Y-73374135D01*
X100977163Y-73304963D01*
X100995462Y-73214600D01*
X100995462Y-72864600D01*
X100979578Y-72780183D01*
X100929687Y-72702650D01*
X100853563Y-72650637D01*
X100763200Y-72632338D01*
X100702310Y-72632338D01*
X100669468Y-72553050D01*
X100514750Y-72398333D01*
X100312602Y-72314600D01*
X100240700Y-72314600D01*
X100103200Y-72452100D01*
X100103200Y-72989600D01*
X100123200Y-72989600D01*
X100123200Y-73089600D01*
X100103200Y-73089600D01*
X100103200Y-73109600D01*
X100003200Y-73109600D01*
X100003200Y-73089600D01*
X99490700Y-73089600D01*
X99398100Y-73182200D01*
X99035998Y-73182200D01*
X98833850Y-73265933D01*
X98679132Y-73420650D01*
X98595400Y-73622798D01*
X98595400Y-73807700D01*
X98529600Y-73873500D01*
X98529600Y-74386000D01*
X98549600Y-74386000D01*
X98549600Y-74486000D01*
X98529600Y-74486000D01*
X98529600Y-74506000D01*
X98429600Y-74506000D01*
X98429600Y-74486000D01*
X97892100Y-74486000D01*
X97754600Y-74623500D01*
X97754600Y-74695402D01*
X97838333Y-74897550D01*
X97993050Y-75052268D01*
X98072338Y-75085110D01*
X98072338Y-75146000D01*
X98088222Y-75230417D01*
X98138113Y-75307950D01*
X98214237Y-75359963D01*
X98304600Y-75378262D01*
X98413980Y-75378262D01*
X98566859Y-75531141D01*
X98669604Y-75599793D01*
X98790800Y-75623900D01*
X98913138Y-75623900D01*
X98913138Y-75732200D01*
X98929022Y-75816617D01*
X98978913Y-75894150D01*
X99055037Y-75946163D01*
X99145400Y-75964462D01*
X99879780Y-75964462D01*
X100138160Y-76222842D01*
X100240905Y-76291494D01*
X100362101Y-76315601D01*
X102048099Y-76315601D01*
X102169295Y-76291494D01*
X102272040Y-76222842D01*
X102551056Y-75943826D01*
X102588234Y-75999467D01*
X102589032Y-76000000D01*
X102588234Y-76000533D01*
X102511756Y-76114989D01*
X102484901Y-76250000D01*
X102511756Y-76385011D01*
X102544022Y-76433300D01*
X101424005Y-76433300D01*
X101424000Y-76433299D01*
X101302804Y-76457407D01*
X101200059Y-76526059D01*
X101200057Y-76526062D01*
X101030651Y-76695467D01*
X100872602Y-76630000D01*
X100800700Y-76630000D01*
X100663200Y-76767500D01*
X100663200Y-77046456D01*
X100589468Y-76868450D01*
X100563200Y-76842182D01*
X100563200Y-76767500D01*
X100425700Y-76630000D01*
X100353798Y-76630000D01*
X100293200Y-76655101D01*
X100232602Y-76630000D01*
X100160700Y-76630000D01*
X100023200Y-76767500D01*
X100023200Y-76842182D01*
X99996932Y-76868450D01*
X99923200Y-77046456D01*
X99923200Y-76767500D01*
X99785700Y-76630000D01*
X99713798Y-76630000D01*
X99511650Y-76713733D01*
X99356932Y-76868450D01*
X99273200Y-77070598D01*
X99273200Y-77342500D01*
X99410700Y-77480000D01*
X99923200Y-77480000D01*
X99923200Y-77352500D01*
X100023200Y-77452500D01*
X100023200Y-77480000D01*
X100563200Y-77480000D01*
X100563200Y-77452500D01*
X100663200Y-77352500D01*
X100663200Y-77480000D01*
X100683200Y-77480000D01*
X100683200Y-77580000D01*
X100663200Y-77580000D01*
X100663200Y-77707500D01*
X100563200Y-77607500D01*
X100563200Y-77580000D01*
X100023200Y-77580000D01*
X100023200Y-77600000D01*
X99923200Y-77600000D01*
X99923200Y-77580000D01*
X99410700Y-77580000D01*
X99273200Y-77717500D01*
X99273200Y-77935551D01*
X99118446Y-77871292D01*
X98908475Y-77871109D01*
X98714416Y-77951292D01*
X98565814Y-78099635D01*
X98485292Y-78293554D01*
X98485109Y-78503525D01*
X98565292Y-78697584D01*
X98713635Y-78846186D01*
X98907554Y-78926708D01*
X99117525Y-78926891D01*
X99278073Y-78860554D01*
X99421457Y-79003938D01*
X99421459Y-79003941D01*
X99515385Y-79066700D01*
X99524204Y-79072593D01*
X99590938Y-79085867D01*
X99590938Y-79130000D01*
X99606822Y-79214417D01*
X99656713Y-79291950D01*
X99732837Y-79343963D01*
X99823200Y-79362262D01*
X99964090Y-79362262D01*
X99996932Y-79441550D01*
X100127269Y-79571886D01*
X100063600Y-79725598D01*
X100063600Y-79862500D01*
X100201100Y-80000000D01*
X100703600Y-80000000D01*
X100703600Y-79980000D01*
X100803600Y-79980000D01*
X100803600Y-80000000D01*
X100823600Y-80000000D01*
X100823600Y-80100000D01*
X100803600Y-80100000D01*
X100803600Y-80677500D01*
X100941100Y-80815000D01*
X101003002Y-80815000D01*
X101205150Y-80731267D01*
X101359868Y-80576550D01*
X101392710Y-80497262D01*
X101413600Y-80497262D01*
X101498017Y-80481378D01*
X101575550Y-80431487D01*
X101627563Y-80355363D01*
X101645862Y-80265000D01*
X101645862Y-80050620D01*
X102494441Y-79202041D01*
X102484901Y-79250000D01*
X102511756Y-79385011D01*
X102588234Y-79499467D01*
X102589032Y-79500000D01*
X102588234Y-79500533D01*
X102511756Y-79614989D01*
X102484901Y-79750000D01*
X102511756Y-79885011D01*
X102588234Y-79999467D01*
X102589032Y-80000000D01*
X102588234Y-80000533D01*
X102511756Y-80114989D01*
X102484901Y-80250000D01*
X102511756Y-80385011D01*
X102588234Y-80499467D01*
X102589032Y-80500000D01*
X102588234Y-80500533D01*
X102511756Y-80614989D01*
X102484901Y-80750000D01*
X102511756Y-80885011D01*
X102588234Y-80999467D01*
X102702690Y-81075945D01*
X102837701Y-81102800D01*
X103412299Y-81102800D01*
X103518281Y-81081719D01*
X103497200Y-81187701D01*
X103497200Y-81762299D01*
X103524055Y-81897310D01*
X103583309Y-81985989D01*
X101879155Y-81985989D01*
X101953708Y-81806446D01*
X101953891Y-81596475D01*
X101873708Y-81402416D01*
X101725365Y-81253814D01*
X101531446Y-81173292D01*
X101321475Y-81173109D01*
X101127416Y-81253292D01*
X100978814Y-81401635D01*
X100898292Y-81595554D01*
X100898215Y-81684299D01*
X100746006Y-81684299D01*
X100746001Y-81684298D01*
X100624805Y-81708406D01*
X100522060Y-81777058D01*
X100522058Y-81777061D01*
X100215818Y-82083300D01*
X98810107Y-82083300D01*
X98709601Y-81840056D01*
X98431409Y-81561378D01*
X98067747Y-81410373D01*
X97673980Y-81410029D01*
X97412000Y-81518277D01*
X97412000Y-80237500D01*
X100063600Y-80237500D01*
X100063600Y-80374402D01*
X100147332Y-80576550D01*
X100302050Y-80731267D01*
X100504198Y-80815000D01*
X100566100Y-80815000D01*
X100703600Y-80677500D01*
X100703600Y-80100000D01*
X100201100Y-80100000D01*
X100063600Y-80237500D01*
X97412000Y-80237500D01*
X97412000Y-74176598D01*
X97754600Y-74176598D01*
X97754600Y-74248500D01*
X97892100Y-74386000D01*
X98429600Y-74386000D01*
X98429600Y-73873500D01*
X98292100Y-73736000D01*
X98195198Y-73736000D01*
X97993050Y-73819732D01*
X97838333Y-73974450D01*
X97754600Y-74176598D01*
X97412000Y-74176598D01*
X97412000Y-72860609D01*
X97497816Y-73068299D01*
X97730476Y-73301366D01*
X98034618Y-73427656D01*
X98363937Y-73427944D01*
X98668299Y-73302184D01*
X98901366Y-73069524D01*
X99027656Y-72765382D01*
X99027664Y-72755198D01*
X99353200Y-72755198D01*
X99353200Y-72852100D01*
X99490700Y-72989600D01*
X100003200Y-72989600D01*
X100003200Y-72452100D01*
X99865700Y-72314600D01*
X99793798Y-72314600D01*
X99591650Y-72398333D01*
X99436932Y-72553050D01*
X99353200Y-72755198D01*
X99027664Y-72755198D01*
X99027944Y-72436063D01*
X98902184Y-72131701D01*
X98669524Y-71898634D01*
X98365382Y-71772344D01*
X98036063Y-71772056D01*
X97731701Y-71897816D01*
X97498634Y-72130476D01*
X97412000Y-72339115D01*
X97412000Y-66003000D01*
X121188000Y-66003000D01*
X121188000Y-72117492D01*
X121188000Y-72117492D01*
G37*
X121188000Y-72117492D02*
X120969524Y-71898634D01*
X120665382Y-71772344D01*
X120336063Y-71772056D01*
X120031701Y-71897816D01*
X119798634Y-72130476D01*
X119672344Y-72434618D01*
X119672056Y-72763937D01*
X119797816Y-73068299D01*
X120030476Y-73301366D01*
X120334618Y-73427656D01*
X120663937Y-73427944D01*
X120968299Y-73302184D01*
X121188000Y-73082867D01*
X121188000Y-73773641D01*
X121035213Y-74002304D01*
X120972200Y-74319089D01*
X120972200Y-75062705D01*
X120945407Y-75102804D01*
X120921300Y-75224000D01*
X120921300Y-77058619D01*
X120392323Y-77587595D01*
X120323671Y-77690340D01*
X120299564Y-77811536D01*
X120299564Y-82138128D01*
X116436479Y-82138128D01*
X114009442Y-79711090D01*
X114089408Y-79711090D01*
X114271259Y-79892941D01*
X114374004Y-79961593D01*
X114451659Y-79977039D01*
X114456622Y-80003417D01*
X114506513Y-80080950D01*
X114582637Y-80132963D01*
X114673000Y-80151262D01*
X115273000Y-80151262D01*
X115273826Y-80151107D01*
X115306732Y-80230550D01*
X115461450Y-80385267D01*
X115663598Y-80469000D01*
X115885500Y-80469000D01*
X116023000Y-80331500D01*
X116023000Y-79719000D01*
X116123000Y-79719000D01*
X116123000Y-80331500D01*
X116260500Y-80469000D01*
X116482402Y-80469000D01*
X116684550Y-80385267D01*
X116839268Y-80230550D01*
X116923000Y-80028402D01*
X116923000Y-79856500D01*
X116785500Y-79719000D01*
X116123000Y-79719000D01*
X116023000Y-79719000D01*
X116003000Y-79719000D01*
X116003000Y-79619000D01*
X116023000Y-79619000D01*
X116023000Y-79599000D01*
X116123000Y-79599000D01*
X116123000Y-79619000D01*
X116785500Y-79619000D01*
X116923000Y-79481500D01*
X116923000Y-79309598D01*
X116839268Y-79107450D01*
X116798518Y-79066700D01*
X117642626Y-79066700D01*
X117763822Y-79042593D01*
X117866567Y-78973941D01*
X118853642Y-77986866D01*
X118922294Y-77884121D01*
X118946402Y-77762925D01*
X118946401Y-77762920D01*
X118946401Y-77017503D01*
X119079506Y-77017619D01*
X119273565Y-76937436D01*
X119422167Y-76789093D01*
X119502689Y-76595174D01*
X119502872Y-76385203D01*
X119422689Y-76191144D01*
X119274346Y-76042542D01*
X119080427Y-75962020D01*
X118870456Y-75961837D01*
X118676397Y-76042020D01*
X118527795Y-76190363D01*
X118447273Y-76384282D01*
X118447111Y-76569716D01*
X118405760Y-76611067D01*
X118359330Y-76680554D01*
X118168446Y-76601292D01*
X117958475Y-76601109D01*
X117764416Y-76681292D01*
X117615814Y-76829635D01*
X117535292Y-77023554D01*
X117535109Y-77233525D01*
X117556153Y-77284456D01*
X117406446Y-77222292D01*
X117196475Y-77222109D01*
X117002416Y-77302292D01*
X116871179Y-77433300D01*
X115095552Y-77433300D01*
X116579548Y-75949303D01*
X116579551Y-75949301D01*
X116648203Y-75846556D01*
X116652232Y-75826301D01*
X116672311Y-75725360D01*
X116672310Y-75725355D01*
X116672310Y-71658401D01*
X119511099Y-71658401D01*
X119632295Y-71634294D01*
X119735040Y-71565642D01*
X119823941Y-71476741D01*
X119892593Y-71373996D01*
X119916700Y-71252800D01*
X119916700Y-71241648D01*
X119916950Y-71241487D01*
X119968963Y-71165363D01*
X119987262Y-71075000D01*
X119987262Y-69325000D01*
X119971378Y-69240583D01*
X119921487Y-69163050D01*
X119845363Y-69111037D01*
X119755000Y-69092738D01*
X119445000Y-69092738D01*
X119360583Y-69108622D01*
X119299425Y-69147976D01*
X119245363Y-69111037D01*
X119155000Y-69092738D01*
X118845000Y-69092738D01*
X118760583Y-69108622D01*
X118699425Y-69147976D01*
X118645363Y-69111037D01*
X118555000Y-69092738D01*
X118245000Y-69092738D01*
X118160583Y-69108622D01*
X118099425Y-69147976D01*
X118045363Y-69111037D01*
X117955000Y-69092738D01*
X117645000Y-69092738D01*
X117560583Y-69108622D01*
X117499425Y-69147976D01*
X117484859Y-69138023D01*
X117729151Y-68893730D01*
X117913525Y-68893891D01*
X118107584Y-68813708D01*
X118256186Y-68665365D01*
X118336708Y-68471446D01*
X118336819Y-68343792D01*
X118463514Y-68343902D01*
X118657573Y-68263719D01*
X118806175Y-68115376D01*
X118886697Y-67921457D01*
X118886748Y-67863149D01*
X119075077Y-67863313D01*
X119269136Y-67783130D01*
X119417738Y-67634787D01*
X119498260Y-67440868D01*
X119498443Y-67230897D01*
X119418260Y-67036838D01*
X119269917Y-66888236D01*
X119075998Y-66807714D01*
X118866027Y-66807531D01*
X118778486Y-66843702D01*
X117672976Y-66843703D01*
X117672971Y-66843702D01*
X117551775Y-66867810D01*
X117449030Y-66936462D01*
X116355112Y-68030380D01*
X100600125Y-68030380D01*
X100600120Y-68030379D01*
X100478924Y-68054487D01*
X100376179Y-68123139D01*
X100376177Y-68123142D01*
X99576059Y-68923259D01*
X99507407Y-69026004D01*
X99485093Y-69138184D01*
X99445363Y-69111037D01*
X99355000Y-69092738D01*
X99045000Y-69092738D01*
X98960583Y-69108622D01*
X98883050Y-69158513D01*
X98831037Y-69234637D01*
X98812738Y-69325000D01*
X98812738Y-71075000D01*
X98828622Y-71159417D01*
X98878513Y-71236950D01*
X98954637Y-71288963D01*
X99045000Y-71307262D01*
X99355000Y-71307262D01*
X99439417Y-71291378D01*
X99500575Y-71252024D01*
X99554637Y-71288963D01*
X99645000Y-71307262D01*
X99955000Y-71307262D01*
X100039417Y-71291378D01*
X100100575Y-71252024D01*
X100154637Y-71288963D01*
X100245000Y-71307262D01*
X100555000Y-71307262D01*
X100639417Y-71291378D01*
X100700575Y-71252024D01*
X100754637Y-71288963D01*
X100845000Y-71307262D01*
X101155000Y-71307262D01*
X101239417Y-71291378D01*
X101300575Y-71252024D01*
X101354637Y-71288963D01*
X101445000Y-71307262D01*
X101755000Y-71307262D01*
X101839417Y-71291378D01*
X101883300Y-71263140D01*
X101883300Y-72679910D01*
X101878739Y-72684471D01*
X101810087Y-72787216D01*
X101785980Y-72908412D01*
X101785980Y-73808388D01*
X101792367Y-73840500D01*
X101777662Y-73840500D01*
X101777662Y-73732200D01*
X101761778Y-73647783D01*
X101711887Y-73570250D01*
X101635763Y-73518237D01*
X101545400Y-73499938D01*
X100929900Y-73499938D01*
X100929900Y-73374135D01*
X100977163Y-73304963D01*
X100995462Y-73214600D01*
X100995462Y-72864600D01*
X100979578Y-72780183D01*
X100929687Y-72702650D01*
X100853563Y-72650637D01*
X100763200Y-72632338D01*
X100702310Y-72632338D01*
X100669468Y-72553050D01*
X100514750Y-72398333D01*
X100312602Y-72314600D01*
X100240700Y-72314600D01*
X100103200Y-72452100D01*
X100103200Y-72989600D01*
X100123200Y-72989600D01*
X100123200Y-73089600D01*
X100103200Y-73089600D01*
X100103200Y-73109600D01*
X100003200Y-73109600D01*
X100003200Y-73089600D01*
X99490700Y-73089600D01*
X99398100Y-73182200D01*
X99035998Y-73182200D01*
X98833850Y-73265933D01*
X98679132Y-73420650D01*
X98595400Y-73622798D01*
X98595400Y-73807700D01*
X98529600Y-73873500D01*
X98529600Y-74386000D01*
X98549600Y-74386000D01*
X98549600Y-74486000D01*
X98529600Y-74486000D01*
X98529600Y-74506000D01*
X98429600Y-74506000D01*
X98429600Y-74486000D01*
X97892100Y-74486000D01*
X97754600Y-74623500D01*
X97754600Y-74695402D01*
X97838333Y-74897550D01*
X97993050Y-75052268D01*
X98072338Y-75085110D01*
X98072338Y-75146000D01*
X98088222Y-75230417D01*
X98138113Y-75307950D01*
X98214237Y-75359963D01*
X98304600Y-75378262D01*
X98413980Y-75378262D01*
X98566859Y-75531141D01*
X98669604Y-75599793D01*
X98790800Y-75623900D01*
X98913138Y-75623900D01*
X98913138Y-75732200D01*
X98929022Y-75816617D01*
X98978913Y-75894150D01*
X99055037Y-75946163D01*
X99145400Y-75964462D01*
X99879780Y-75964462D01*
X100138160Y-76222842D01*
X100240905Y-76291494D01*
X100362101Y-76315601D01*
X102048099Y-76315601D01*
X102169295Y-76291494D01*
X102272040Y-76222842D01*
X102551056Y-75943826D01*
X102588234Y-75999467D01*
X102589032Y-76000000D01*
X102588234Y-76000533D01*
X102511756Y-76114989D01*
X102484901Y-76250000D01*
X102511756Y-76385011D01*
X102544022Y-76433300D01*
X101424005Y-76433300D01*
X101424000Y-76433299D01*
X101302804Y-76457407D01*
X101200059Y-76526059D01*
X101200057Y-76526062D01*
X101030651Y-76695467D01*
X100872602Y-76630000D01*
X100800700Y-76630000D01*
X100663200Y-76767500D01*
X100663200Y-77046456D01*
X100589468Y-76868450D01*
X100563200Y-76842182D01*
X100563200Y-76767500D01*
X100425700Y-76630000D01*
X100353798Y-76630000D01*
X100293200Y-76655101D01*
X100232602Y-76630000D01*
X100160700Y-76630000D01*
X100023200Y-76767500D01*
X100023200Y-76842182D01*
X99996932Y-76868450D01*
X99923200Y-77046456D01*
X99923200Y-76767500D01*
X99785700Y-76630000D01*
X99713798Y-76630000D01*
X99511650Y-76713733D01*
X99356932Y-76868450D01*
X99273200Y-77070598D01*
X99273200Y-77342500D01*
X99410700Y-77480000D01*
X99923200Y-77480000D01*
X99923200Y-77352500D01*
X100023200Y-77452500D01*
X100023200Y-77480000D01*
X100563200Y-77480000D01*
X100563200Y-77452500D01*
X100663200Y-77352500D01*
X100663200Y-77480000D01*
X100683200Y-77480000D01*
X100683200Y-77580000D01*
X100663200Y-77580000D01*
X100663200Y-77707500D01*
X100563200Y-77607500D01*
X100563200Y-77580000D01*
X100023200Y-77580000D01*
X100023200Y-77600000D01*
X99923200Y-77600000D01*
X99923200Y-77580000D01*
X99410700Y-77580000D01*
X99273200Y-77717500D01*
X99273200Y-77935551D01*
X99118446Y-77871292D01*
X98908475Y-77871109D01*
X98714416Y-77951292D01*
X98565814Y-78099635D01*
X98485292Y-78293554D01*
X98485109Y-78503525D01*
X98565292Y-78697584D01*
X98713635Y-78846186D01*
X98907554Y-78926708D01*
X99117525Y-78926891D01*
X99278073Y-78860554D01*
X99421457Y-79003938D01*
X99421459Y-79003941D01*
X99515385Y-79066700D01*
X99524204Y-79072593D01*
X99590938Y-79085867D01*
X99590938Y-79130000D01*
X99606822Y-79214417D01*
X99656713Y-79291950D01*
X99732837Y-79343963D01*
X99823200Y-79362262D01*
X99964090Y-79362262D01*
X99996932Y-79441550D01*
X100127269Y-79571886D01*
X100063600Y-79725598D01*
X100063600Y-79862500D01*
X100201100Y-80000000D01*
X100703600Y-80000000D01*
X100703600Y-79980000D01*
X100803600Y-79980000D01*
X100803600Y-80000000D01*
X100823600Y-80000000D01*
X100823600Y-80100000D01*
X100803600Y-80100000D01*
X100803600Y-80677500D01*
X100941100Y-80815000D01*
X101003002Y-80815000D01*
X101205150Y-80731267D01*
X101359868Y-80576550D01*
X101392710Y-80497262D01*
X101413600Y-80497262D01*
X101498017Y-80481378D01*
X101575550Y-80431487D01*
X101627563Y-80355363D01*
X101645862Y-80265000D01*
X101645862Y-80050620D01*
X102494441Y-79202041D01*
X102484901Y-79250000D01*
X102511756Y-79385011D01*
X102588234Y-79499467D01*
X102589032Y-79500000D01*
X102588234Y-79500533D01*
X102511756Y-79614989D01*
X102484901Y-79750000D01*
X102511756Y-79885011D01*
X102588234Y-79999467D01*
X102589032Y-80000000D01*
X102588234Y-80000533D01*
X102511756Y-80114989D01*
X102484901Y-80250000D01*
X102511756Y-80385011D01*
X102588234Y-80499467D01*
X102589032Y-80500000D01*
X102588234Y-80500533D01*
X102511756Y-80614989D01*
X102484901Y-80750000D01*
X102511756Y-80885011D01*
X102588234Y-80999467D01*
X102702690Y-81075945D01*
X102837701Y-81102800D01*
X103412299Y-81102800D01*
X103518281Y-81081719D01*
X103497200Y-81187701D01*
X103497200Y-81762299D01*
X103524055Y-81897310D01*
X103583309Y-81985989D01*
X101879155Y-81985989D01*
X101953708Y-81806446D01*
X101953891Y-81596475D01*
X101873708Y-81402416D01*
X101725365Y-81253814D01*
X101531446Y-81173292D01*
X101321475Y-81173109D01*
X101127416Y-81253292D01*
X100978814Y-81401635D01*
X100898292Y-81595554D01*
X100898215Y-81684299D01*
X100746006Y-81684299D01*
X100746001Y-81684298D01*
X100624805Y-81708406D01*
X100522060Y-81777058D01*
X100522058Y-81777061D01*
X100215818Y-82083300D01*
X98810107Y-82083300D01*
X98709601Y-81840056D01*
X98431409Y-81561378D01*
X98067747Y-81410373D01*
X97673980Y-81410029D01*
X97412000Y-81518277D01*
X97412000Y-80237500D01*
X100063600Y-80237500D01*
X100063600Y-80374402D01*
X100147332Y-80576550D01*
X100302050Y-80731267D01*
X100504198Y-80815000D01*
X100566100Y-80815000D01*
X100703600Y-80677500D01*
X100703600Y-80100000D01*
X100201100Y-80100000D01*
X100063600Y-80237500D01*
X97412000Y-80237500D01*
X97412000Y-74176598D01*
X97754600Y-74176598D01*
X97754600Y-74248500D01*
X97892100Y-74386000D01*
X98429600Y-74386000D01*
X98429600Y-73873500D01*
X98292100Y-73736000D01*
X98195198Y-73736000D01*
X97993050Y-73819732D01*
X97838333Y-73974450D01*
X97754600Y-74176598D01*
X97412000Y-74176598D01*
X97412000Y-72860609D01*
X97497816Y-73068299D01*
X97730476Y-73301366D01*
X98034618Y-73427656D01*
X98363937Y-73427944D01*
X98668299Y-73302184D01*
X98901366Y-73069524D01*
X99027656Y-72765382D01*
X99027664Y-72755198D01*
X99353200Y-72755198D01*
X99353200Y-72852100D01*
X99490700Y-72989600D01*
X100003200Y-72989600D01*
X100003200Y-72452100D01*
X99865700Y-72314600D01*
X99793798Y-72314600D01*
X99591650Y-72398333D01*
X99436932Y-72553050D01*
X99353200Y-72755198D01*
X99027664Y-72755198D01*
X99027944Y-72436063D01*
X98902184Y-72131701D01*
X98669524Y-71898634D01*
X98365382Y-71772344D01*
X98036063Y-71772056D01*
X97731701Y-71897816D01*
X97498634Y-72130476D01*
X97412000Y-72339115D01*
X97412000Y-66003000D01*
X121188000Y-66003000D01*
X121188000Y-72117492D01*
G36*
X106109300Y-79750908D02*
X106109300Y-80059947D01*
X106057407Y-80137610D01*
X106033300Y-80258806D01*
X106033300Y-80550079D01*
X106004688Y-80542963D01*
X105900000Y-80664831D01*
X105900000Y-81425000D01*
X105920000Y-81425000D01*
X105920000Y-81525000D01*
X105900000Y-81525000D01*
X105900000Y-81545000D01*
X105800000Y-81545000D01*
X105800000Y-81525000D01*
X105780000Y-81525000D01*
X105780000Y-81425000D01*
X105800000Y-81425000D01*
X105800000Y-80664831D01*
X105695312Y-80542963D01*
X105666700Y-80550079D01*
X105666700Y-80278684D01*
X105782730Y-80230742D01*
X105931332Y-80082399D01*
X106011854Y-79888480D01*
X106012037Y-79678509D01*
X106010587Y-79675000D01*
X106124399Y-79675000D01*
X106109300Y-79750908D01*
X106109300Y-79750908D01*
G37*
X106109300Y-79750908D02*
X106109300Y-80059947D01*
X106057407Y-80137610D01*
X106033300Y-80258806D01*
X106033300Y-80550079D01*
X106004688Y-80542963D01*
X105900000Y-80664831D01*
X105900000Y-81425000D01*
X105920000Y-81425000D01*
X105920000Y-81525000D01*
X105900000Y-81525000D01*
X105900000Y-81545000D01*
X105800000Y-81545000D01*
X105800000Y-81525000D01*
X105780000Y-81525000D01*
X105780000Y-81425000D01*
X105800000Y-81425000D01*
X105800000Y-80664831D01*
X105695312Y-80542963D01*
X105666700Y-80550079D01*
X105666700Y-80278684D01*
X105782730Y-80230742D01*
X105931332Y-80082399D01*
X106011854Y-79888480D01*
X106012037Y-79678509D01*
X106010587Y-79675000D01*
X106124399Y-79675000D01*
X106109300Y-79750908D01*
G36*
X106600533Y-73061766D02*
X106714989Y-73138244D01*
X106850000Y-73165099D01*
X106985011Y-73138244D01*
X107033300Y-73105978D01*
X107033300Y-73569298D01*
X106947814Y-73654635D01*
X106867292Y-73848554D01*
X106867109Y-74058525D01*
X106947292Y-74252584D01*
X107019582Y-74325000D01*
X105365598Y-74325000D01*
X105163450Y-74408733D01*
X105008732Y-74563450D01*
X104925000Y-74765598D01*
X104925000Y-76812500D01*
X105062500Y-76950000D01*
X107550000Y-76950000D01*
X107550000Y-76930000D01*
X107650000Y-76930000D01*
X107650000Y-76950000D01*
X110137500Y-76950000D01*
X110275000Y-76812500D01*
X110275000Y-74765598D01*
X110191268Y-74563450D01*
X110036550Y-74408733D01*
X109834402Y-74325000D01*
X107787500Y-74325000D01*
X107650002Y-74462498D01*
X107650002Y-74419716D01*
X107693584Y-74401708D01*
X107842186Y-74253365D01*
X107922708Y-74059446D01*
X107922891Y-73849475D01*
X107842708Y-73655416D01*
X107695958Y-73508410D01*
X111015300Y-73508410D01*
X111015300Y-75584800D01*
X111039407Y-75705996D01*
X111108059Y-75808741D01*
X111273259Y-75973941D01*
X111376004Y-76042593D01*
X111494395Y-76066142D01*
X111461756Y-76114989D01*
X111434901Y-76250000D01*
X111461756Y-76385011D01*
X111538234Y-76499467D01*
X111539032Y-76500000D01*
X111538234Y-76500533D01*
X111461756Y-76614989D01*
X111434901Y-76750000D01*
X111461756Y-76885011D01*
X111538234Y-76999467D01*
X111539032Y-77000000D01*
X111538234Y-77000533D01*
X111461756Y-77114989D01*
X111434901Y-77250000D01*
X111461756Y-77385011D01*
X111538234Y-77499467D01*
X111539032Y-77500000D01*
X111538234Y-77500533D01*
X111461756Y-77614989D01*
X111434901Y-77750000D01*
X111461756Y-77885011D01*
X111538234Y-77999467D01*
X111539032Y-78000000D01*
X111538234Y-78000533D01*
X111461756Y-78114989D01*
X111434901Y-78250000D01*
X111461756Y-78385011D01*
X111538234Y-78499467D01*
X111539032Y-78500000D01*
X111538234Y-78500533D01*
X111461756Y-78614989D01*
X111434901Y-78750000D01*
X111461756Y-78885011D01*
X111538234Y-78999467D01*
X111539032Y-79000000D01*
X111538234Y-79000533D01*
X111461756Y-79114989D01*
X111434901Y-79250000D01*
X111461756Y-79385011D01*
X111538234Y-79499467D01*
X111539032Y-79500000D01*
X111538234Y-79500533D01*
X111461756Y-79614989D01*
X111434901Y-79750000D01*
X111461756Y-79885011D01*
X111538234Y-79999467D01*
X111539032Y-80000000D01*
X111538234Y-80000533D01*
X111461756Y-80114989D01*
X111434901Y-80250000D01*
X111461756Y-80385011D01*
X111538234Y-80499467D01*
X111539032Y-80500000D01*
X111538234Y-80500533D01*
X111461756Y-80614989D01*
X111434901Y-80750000D01*
X111455982Y-80855982D01*
X111350000Y-80834901D01*
X111214989Y-80861756D01*
X111100533Y-80938234D01*
X111100000Y-80939032D01*
X111099467Y-80938234D01*
X110985011Y-80861756D01*
X110850000Y-80834901D01*
X110714989Y-80861756D01*
X110600533Y-80938234D01*
X110600000Y-80939032D01*
X110599467Y-80938234D01*
X110485011Y-80861756D01*
X110350000Y-80834901D01*
X110214989Y-80861756D01*
X110100533Y-80938234D01*
X110100000Y-80939032D01*
X110099467Y-80938234D01*
X109985011Y-80861756D01*
X109850000Y-80834901D01*
X109714989Y-80861756D01*
X109600533Y-80938234D01*
X109600000Y-80939032D01*
X109599467Y-80938234D01*
X109536633Y-80896249D01*
X109601152Y-80831730D01*
X109785525Y-80831891D01*
X109979584Y-80751708D01*
X110128186Y-80603365D01*
X110163927Y-80517291D01*
X110270635Y-80624186D01*
X110464554Y-80704708D01*
X110674525Y-80704891D01*
X110868584Y-80624708D01*
X111017186Y-80476365D01*
X111097708Y-80282446D01*
X111097891Y-80072475D01*
X111017708Y-79878416D01*
X110886700Y-79747179D01*
X110886700Y-79542000D01*
X110862593Y-79420804D01*
X110793941Y-79318059D01*
X110643642Y-79167760D01*
X110540897Y-79099108D01*
X110419701Y-79075001D01*
X110275000Y-79075001D01*
X110275000Y-77187500D01*
X110137500Y-77050000D01*
X107650000Y-77050000D01*
X107650000Y-77070000D01*
X107550000Y-77070000D01*
X107550000Y-77050000D01*
X105062500Y-77050000D01*
X104925000Y-77187500D01*
X104925000Y-78235383D01*
X104921708Y-78227416D01*
X104773365Y-78078814D01*
X104579446Y-77998292D01*
X104409700Y-77998144D01*
X104409700Y-77250824D01*
X104540186Y-77120565D01*
X104620708Y-76926646D01*
X104620891Y-76716675D01*
X104540708Y-76522616D01*
X104396877Y-76378534D01*
X104385593Y-76321804D01*
X104316941Y-76219059D01*
X104310920Y-76213038D01*
X104391584Y-76179708D01*
X104540186Y-76031365D01*
X104620708Y-75837446D01*
X104620891Y-75627475D01*
X104540708Y-75433416D01*
X104392365Y-75284814D01*
X104198446Y-75204292D01*
X103988475Y-75204109D01*
X103794416Y-75284292D01*
X103749324Y-75329305D01*
X103765099Y-75250000D01*
X103738244Y-75114989D01*
X103661766Y-75000533D01*
X103660968Y-75000000D01*
X103661766Y-74999467D01*
X103738244Y-74885011D01*
X103765099Y-74750000D01*
X103738244Y-74614989D01*
X103661766Y-74500533D01*
X103660968Y-74500000D01*
X103661766Y-74499467D01*
X103738244Y-74385011D01*
X103765099Y-74250000D01*
X103738244Y-74114989D01*
X103661766Y-74000533D01*
X103660968Y-74000000D01*
X103661766Y-73999467D01*
X103738244Y-73885011D01*
X103765099Y-73750000D01*
X103738244Y-73614989D01*
X103661766Y-73500533D01*
X103660968Y-73500000D01*
X103661766Y-73499467D01*
X103738244Y-73385011D01*
X103765099Y-73250000D01*
X103744018Y-73144018D01*
X103850000Y-73165099D01*
X103985011Y-73138244D01*
X104099467Y-73061766D01*
X104100000Y-73060968D01*
X104100533Y-73061766D01*
X104214989Y-73138244D01*
X104350000Y-73165099D01*
X104485011Y-73138244D01*
X104599467Y-73061766D01*
X104600000Y-73060968D01*
X104600533Y-73061766D01*
X104714989Y-73138244D01*
X104850000Y-73165099D01*
X104985011Y-73138244D01*
X105099467Y-73061766D01*
X105100000Y-73060968D01*
X105100533Y-73061766D01*
X105214989Y-73138244D01*
X105350000Y-73165099D01*
X105485011Y-73138244D01*
X105599467Y-73061766D01*
X105600000Y-73060968D01*
X105600533Y-73061766D01*
X105714989Y-73138244D01*
X105850000Y-73165099D01*
X105985011Y-73138244D01*
X106099467Y-73061766D01*
X106100000Y-73060968D01*
X106100533Y-73061766D01*
X106214989Y-73138244D01*
X106350000Y-73165099D01*
X106485011Y-73138244D01*
X106599467Y-73061766D01*
X106600000Y-73060968D01*
X106600533Y-73061766D01*
X106600533Y-73061766D01*
G37*
X106600533Y-73061766D02*
X106714989Y-73138244D01*
X106850000Y-73165099D01*
X106985011Y-73138244D01*
X107033300Y-73105978D01*
X107033300Y-73569298D01*
X106947814Y-73654635D01*
X106867292Y-73848554D01*
X106867109Y-74058525D01*
X106947292Y-74252584D01*
X107019582Y-74325000D01*
X105365598Y-74325000D01*
X105163450Y-74408733D01*
X105008732Y-74563450D01*
X104925000Y-74765598D01*
X104925000Y-76812500D01*
X105062500Y-76950000D01*
X107550000Y-76950000D01*
X107550000Y-76930000D01*
X107650000Y-76930000D01*
X107650000Y-76950000D01*
X110137500Y-76950000D01*
X110275000Y-76812500D01*
X110275000Y-74765598D01*
X110191268Y-74563450D01*
X110036550Y-74408733D01*
X109834402Y-74325000D01*
X107787500Y-74325000D01*
X107650002Y-74462498D01*
X107650002Y-74419716D01*
X107693584Y-74401708D01*
X107842186Y-74253365D01*
X107922708Y-74059446D01*
X107922891Y-73849475D01*
X107842708Y-73655416D01*
X107695958Y-73508410D01*
X111015300Y-73508410D01*
X111015300Y-75584800D01*
X111039407Y-75705996D01*
X111108059Y-75808741D01*
X111273259Y-75973941D01*
X111376004Y-76042593D01*
X111494395Y-76066142D01*
X111461756Y-76114989D01*
X111434901Y-76250000D01*
X111461756Y-76385011D01*
X111538234Y-76499467D01*
X111539032Y-76500000D01*
X111538234Y-76500533D01*
X111461756Y-76614989D01*
X111434901Y-76750000D01*
X111461756Y-76885011D01*
X111538234Y-76999467D01*
X111539032Y-77000000D01*
X111538234Y-77000533D01*
X111461756Y-77114989D01*
X111434901Y-77250000D01*
X111461756Y-77385011D01*
X111538234Y-77499467D01*
X111539032Y-77500000D01*
X111538234Y-77500533D01*
X111461756Y-77614989D01*
X111434901Y-77750000D01*
X111461756Y-77885011D01*
X111538234Y-77999467D01*
X111539032Y-78000000D01*
X111538234Y-78000533D01*
X111461756Y-78114989D01*
X111434901Y-78250000D01*
X111461756Y-78385011D01*
X111538234Y-78499467D01*
X111539032Y-78500000D01*
X111538234Y-78500533D01*
X111461756Y-78614989D01*
X111434901Y-78750000D01*
X111461756Y-78885011D01*
X111538234Y-78999467D01*
X111539032Y-79000000D01*
X111538234Y-79000533D01*
X111461756Y-79114989D01*
X111434901Y-79250000D01*
X111461756Y-79385011D01*
X111538234Y-79499467D01*
X111539032Y-79500000D01*
X111538234Y-79500533D01*
X111461756Y-79614989D01*
X111434901Y-79750000D01*
X111461756Y-79885011D01*
X111538234Y-79999467D01*
X111539032Y-80000000D01*
X111538234Y-80000533D01*
X111461756Y-80114989D01*
X111434901Y-80250000D01*
X111461756Y-80385011D01*
X111538234Y-80499467D01*
X111539032Y-80500000D01*
X111538234Y-80500533D01*
X111461756Y-80614989D01*
X111434901Y-80750000D01*
X111455982Y-80855982D01*
X111350000Y-80834901D01*
X111214989Y-80861756D01*
X111100533Y-80938234D01*
X111100000Y-80939032D01*
X111099467Y-80938234D01*
X110985011Y-80861756D01*
X110850000Y-80834901D01*
X110714989Y-80861756D01*
X110600533Y-80938234D01*
X110600000Y-80939032D01*
X110599467Y-80938234D01*
X110485011Y-80861756D01*
X110350000Y-80834901D01*
X110214989Y-80861756D01*
X110100533Y-80938234D01*
X110100000Y-80939032D01*
X110099467Y-80938234D01*
X109985011Y-80861756D01*
X109850000Y-80834901D01*
X109714989Y-80861756D01*
X109600533Y-80938234D01*
X109600000Y-80939032D01*
X109599467Y-80938234D01*
X109536633Y-80896249D01*
X109601152Y-80831730D01*
X109785525Y-80831891D01*
X109979584Y-80751708D01*
X110128186Y-80603365D01*
X110163927Y-80517291D01*
X110270635Y-80624186D01*
X110464554Y-80704708D01*
X110674525Y-80704891D01*
X110868584Y-80624708D01*
X111017186Y-80476365D01*
X111097708Y-80282446D01*
X111097891Y-80072475D01*
X111017708Y-79878416D01*
X110886700Y-79747179D01*
X110886700Y-79542000D01*
X110862593Y-79420804D01*
X110793941Y-79318059D01*
X110643642Y-79167760D01*
X110540897Y-79099108D01*
X110419701Y-79075001D01*
X110275000Y-79075001D01*
X110275000Y-77187500D01*
X110137500Y-77050000D01*
X107650000Y-77050000D01*
X107650000Y-77070000D01*
X107550000Y-77070000D01*
X107550000Y-77050000D01*
X105062500Y-77050000D01*
X104925000Y-77187500D01*
X104925000Y-78235383D01*
X104921708Y-78227416D01*
X104773365Y-78078814D01*
X104579446Y-77998292D01*
X104409700Y-77998144D01*
X104409700Y-77250824D01*
X104540186Y-77120565D01*
X104620708Y-76926646D01*
X104620891Y-76716675D01*
X104540708Y-76522616D01*
X104396877Y-76378534D01*
X104385593Y-76321804D01*
X104316941Y-76219059D01*
X104310920Y-76213038D01*
X104391584Y-76179708D01*
X104540186Y-76031365D01*
X104620708Y-75837446D01*
X104620891Y-75627475D01*
X104540708Y-75433416D01*
X104392365Y-75284814D01*
X104198446Y-75204292D01*
X103988475Y-75204109D01*
X103794416Y-75284292D01*
X103749324Y-75329305D01*
X103765099Y-75250000D01*
X103738244Y-75114989D01*
X103661766Y-75000533D01*
X103660968Y-75000000D01*
X103661766Y-74999467D01*
X103738244Y-74885011D01*
X103765099Y-74750000D01*
X103738244Y-74614989D01*
X103661766Y-74500533D01*
X103660968Y-74500000D01*
X103661766Y-74499467D01*
X103738244Y-74385011D01*
X103765099Y-74250000D01*
X103738244Y-74114989D01*
X103661766Y-74000533D01*
X103660968Y-74000000D01*
X103661766Y-73999467D01*
X103738244Y-73885011D01*
X103765099Y-73750000D01*
X103738244Y-73614989D01*
X103661766Y-73500533D01*
X103660968Y-73500000D01*
X103661766Y-73499467D01*
X103738244Y-73385011D01*
X103765099Y-73250000D01*
X103744018Y-73144018D01*
X103850000Y-73165099D01*
X103985011Y-73138244D01*
X104099467Y-73061766D01*
X104100000Y-73060968D01*
X104100533Y-73061766D01*
X104214989Y-73138244D01*
X104350000Y-73165099D01*
X104485011Y-73138244D01*
X104599467Y-73061766D01*
X104600000Y-73060968D01*
X104600533Y-73061766D01*
X104714989Y-73138244D01*
X104850000Y-73165099D01*
X104985011Y-73138244D01*
X105099467Y-73061766D01*
X105100000Y-73060968D01*
X105100533Y-73061766D01*
X105214989Y-73138244D01*
X105350000Y-73165099D01*
X105485011Y-73138244D01*
X105599467Y-73061766D01*
X105600000Y-73060968D01*
X105600533Y-73061766D01*
X105714989Y-73138244D01*
X105850000Y-73165099D01*
X105985011Y-73138244D01*
X106099467Y-73061766D01*
X106100000Y-73060968D01*
X106100533Y-73061766D01*
X106214989Y-73138244D01*
X106350000Y-73165099D01*
X106485011Y-73138244D01*
X106599467Y-73061766D01*
X106600000Y-73060968D01*
X106600533Y-73061766D01*
G36*
X100663200Y-78730000D02*
X100683200Y-78730000D01*
X100683200Y-78830000D01*
X100663200Y-78830000D01*
X100663200Y-78850000D01*
X100563200Y-78850000D01*
X100563200Y-78830000D01*
X100543200Y-78830000D01*
X100543200Y-78730000D01*
X100563200Y-78730000D01*
X100563200Y-78710000D01*
X100663200Y-78710000D01*
X100663200Y-78730000D01*
X100663200Y-78730000D01*
G37*
X100663200Y-78730000D02*
X100683200Y-78730000D01*
X100683200Y-78830000D01*
X100663200Y-78830000D01*
X100663200Y-78850000D01*
X100563200Y-78850000D01*
X100563200Y-78830000D01*
X100543200Y-78830000D01*
X100543200Y-78730000D01*
X100563200Y-78730000D01*
X100563200Y-78710000D01*
X100663200Y-78710000D01*
X100663200Y-78730000D01*
G36*
X115683300Y-75446881D02*
X115203000Y-75927181D01*
X115203000Y-75915598D01*
X115126952Y-75732000D01*
X115203000Y-75548402D01*
X115203000Y-75411500D01*
X115065500Y-75274000D01*
X114563000Y-75274000D01*
X114563000Y-76190000D01*
X114583000Y-76190000D01*
X114583000Y-76290000D01*
X114563000Y-76290000D01*
X114563000Y-76310000D01*
X114463000Y-76310000D01*
X114463000Y-76290000D01*
X114443000Y-76290000D01*
X114443000Y-76190000D01*
X114463000Y-76190000D01*
X114463000Y-75274000D01*
X114443000Y-75274000D01*
X114443000Y-75174000D01*
X114463000Y-75174000D01*
X114463000Y-74596500D01*
X114563000Y-74596500D01*
X114563000Y-75174000D01*
X115065500Y-75174000D01*
X115203000Y-75036500D01*
X115203000Y-74899598D01*
X115119268Y-74697450D01*
X114964550Y-74542733D01*
X114762402Y-74459000D01*
X114700500Y-74459000D01*
X114563000Y-74596500D01*
X114463000Y-74596500D01*
X114325500Y-74459000D01*
X114312698Y-74459000D01*
X114782660Y-73989038D01*
X114851312Y-73886293D01*
X114875419Y-73765097D01*
X114875419Y-72123371D01*
X115294064Y-71704726D01*
X115378698Y-71687891D01*
X115481443Y-71619239D01*
X115623938Y-71476743D01*
X115623941Y-71476741D01*
X115683300Y-71387904D01*
X115683300Y-75446881D01*
X115683300Y-75446881D01*
G37*
X115683300Y-75446881D02*
X115203000Y-75927181D01*
X115203000Y-75915598D01*
X115126952Y-75732000D01*
X115203000Y-75548402D01*
X115203000Y-75411500D01*
X115065500Y-75274000D01*
X114563000Y-75274000D01*
X114563000Y-76190000D01*
X114583000Y-76190000D01*
X114583000Y-76290000D01*
X114563000Y-76290000D01*
X114563000Y-76310000D01*
X114463000Y-76310000D01*
X114463000Y-76290000D01*
X114443000Y-76290000D01*
X114443000Y-76190000D01*
X114463000Y-76190000D01*
X114463000Y-75274000D01*
X114443000Y-75274000D01*
X114443000Y-75174000D01*
X114463000Y-75174000D01*
X114463000Y-74596500D01*
X114563000Y-74596500D01*
X114563000Y-75174000D01*
X115065500Y-75174000D01*
X115203000Y-75036500D01*
X115203000Y-74899598D01*
X115119268Y-74697450D01*
X114964550Y-74542733D01*
X114762402Y-74459000D01*
X114700500Y-74459000D01*
X114563000Y-74596500D01*
X114463000Y-74596500D01*
X114325500Y-74459000D01*
X114312698Y-74459000D01*
X114782660Y-73989038D01*
X114851312Y-73886293D01*
X114875419Y-73765097D01*
X114875419Y-72123371D01*
X115294064Y-71704726D01*
X115378698Y-71687891D01*
X115481443Y-71619239D01*
X115623938Y-71476743D01*
X115623941Y-71476741D01*
X115683300Y-71387904D01*
X115683300Y-75446881D01*
G36*
X102173051Y-74829548D02*
X102173053Y-74829551D01*
X102240779Y-74874804D01*
X102275798Y-74898203D01*
X102396994Y-74922311D01*
X102396999Y-74922310D01*
X102520467Y-74922310D01*
X102569325Y-74971168D01*
X102588234Y-74999467D01*
X102589032Y-75000000D01*
X102588234Y-75000533D01*
X102569325Y-75028832D01*
X102218059Y-75380098D01*
X102216124Y-75382994D01*
X102095400Y-75503718D01*
X102095400Y-75494700D01*
X101957900Y-75357200D01*
X101120400Y-75357200D01*
X101120400Y-75377200D01*
X101020400Y-75377200D01*
X101020400Y-75357200D01*
X101000400Y-75357200D01*
X101000400Y-75257200D01*
X101020400Y-75257200D01*
X101020400Y-75237200D01*
X101120400Y-75237200D01*
X101120400Y-75257200D01*
X101957900Y-75257200D01*
X102095400Y-75119700D01*
X102095400Y-74772798D01*
X102080621Y-74737118D01*
X102173051Y-74829548D01*
X102173051Y-74829548D01*
G37*
X102173051Y-74829548D02*
X102173053Y-74829551D01*
X102240779Y-74874804D01*
X102275798Y-74898203D01*
X102396994Y-74922311D01*
X102396999Y-74922310D01*
X102520467Y-74922310D01*
X102569325Y-74971168D01*
X102588234Y-74999467D01*
X102589032Y-75000000D01*
X102588234Y-75000533D01*
X102569325Y-75028832D01*
X102218059Y-75380098D01*
X102216124Y-75382994D01*
X102095400Y-75503718D01*
X102095400Y-75494700D01*
X101957900Y-75357200D01*
X101120400Y-75357200D01*
X101120400Y-75377200D01*
X101020400Y-75377200D01*
X101020400Y-75357200D01*
X101000400Y-75357200D01*
X101000400Y-75257200D01*
X101020400Y-75257200D01*
X101020400Y-75237200D01*
X101120400Y-75237200D01*
X101120400Y-75257200D01*
X101957900Y-75257200D01*
X102095400Y-75119700D01*
X102095400Y-74772798D01*
X102080621Y-74737118D01*
X102173051Y-74829548D01*
G36*
X99670400Y-74107200D02*
X99690400Y-74107200D01*
X99690400Y-74207200D01*
X99670400Y-74207200D01*
X99670400Y-74227200D01*
X99570400Y-74227200D01*
X99570400Y-74207200D01*
X99550400Y-74207200D01*
X99550400Y-74107200D01*
X99570400Y-74107200D01*
X99570400Y-74087200D01*
X99670400Y-74087200D01*
X99670400Y-74107200D01*
X99670400Y-74107200D01*
G37*
X99670400Y-74107200D02*
X99690400Y-74107200D01*
X99690400Y-74207200D01*
X99670400Y-74207200D01*
X99670400Y-74227200D01*
X99570400Y-74227200D01*
X99570400Y-74207200D01*
X99550400Y-74207200D01*
X99550400Y-74107200D01*
X99570400Y-74107200D01*
X99570400Y-74087200D01*
X99670400Y-74087200D01*
X99670400Y-74107200D01*
M02*
