G04 #@! TF.FileFunction,Legend,Top*
%FSLAX46Y46*%
G04 Gerber Fmt 4.6, Leading zero omitted, Abs format (unit mm)*
G04 Created by KiCad (PCBNEW 4.0.5+dfsg1-4) date Mon Jul 30 14:02:08 2018*
%MOMM*%
%LPD*%
G01*
G04 APERTURE LIST*
%ADD10C,0.100000*%
%ADD11C,0.125000*%
%ADD12C,0.120000*%
%ADD13C,0.150000*%
G04 APERTURE END LIST*
D10*
X100076000Y-78105000D02*
X99822000Y-78105000D01*
D11*
X117555047Y-82594000D02*
X117507428Y-82570190D01*
X117436000Y-82570190D01*
X117364571Y-82594000D01*
X117316952Y-82641619D01*
X117293143Y-82689238D01*
X117269333Y-82784476D01*
X117269333Y-82855905D01*
X117293143Y-82951143D01*
X117316952Y-82998762D01*
X117364571Y-83046381D01*
X117436000Y-83070190D01*
X117483619Y-83070190D01*
X117555047Y-83046381D01*
X117578857Y-83022571D01*
X117578857Y-82855905D01*
X117483619Y-82855905D01*
X117793143Y-83070190D02*
X117793143Y-82570190D01*
X118078857Y-83070190D01*
X118078857Y-82570190D01*
X118316953Y-83070190D02*
X118316953Y-82570190D01*
X118436000Y-82570190D01*
X118507429Y-82594000D01*
X118555048Y-82641619D01*
X118578857Y-82689238D01*
X118602667Y-82784476D01*
X118602667Y-82855905D01*
X118578857Y-82951143D01*
X118555048Y-82998762D01*
X118507429Y-83046381D01*
X118436000Y-83070190D01*
X118316953Y-83070190D01*
X120448190Y-83526380D02*
X119948190Y-83526380D01*
X119948190Y-83335904D01*
X119972000Y-83288285D01*
X119995810Y-83264476D01*
X120043429Y-83240666D01*
X120114857Y-83240666D01*
X120162476Y-83264476D01*
X120186286Y-83288285D01*
X120210095Y-83335904D01*
X120210095Y-83526380D01*
X120448190Y-83026380D02*
X120114857Y-83026380D01*
X120210095Y-83026380D02*
X120162476Y-83002571D01*
X120138667Y-82978761D01*
X120114857Y-82931142D01*
X120114857Y-82883523D01*
X120114857Y-82502571D02*
X120519619Y-82502571D01*
X120567238Y-82526380D01*
X120591048Y-82550190D01*
X120614857Y-82597809D01*
X120614857Y-82669237D01*
X120591048Y-82716856D01*
X120424381Y-82502571D02*
X120448190Y-82550190D01*
X120448190Y-82645428D01*
X120424381Y-82693047D01*
X120400571Y-82716856D01*
X120352952Y-82740666D01*
X120210095Y-82740666D01*
X120162476Y-82716856D01*
X120138667Y-82693047D01*
X120114857Y-82645428D01*
X120114857Y-82550190D01*
X120138667Y-82502571D01*
X120448190Y-82264475D02*
X120114857Y-82264475D01*
X120162476Y-82264475D02*
X120138667Y-82240666D01*
X120114857Y-82193047D01*
X120114857Y-82121618D01*
X120138667Y-82073999D01*
X120186286Y-82050190D01*
X120448190Y-82050190D01*
X120186286Y-82050190D02*
X120138667Y-82026380D01*
X120114857Y-81978761D01*
X120114857Y-81907333D01*
X120138667Y-81859713D01*
X120186286Y-81835904D01*
X120448190Y-81835904D01*
X119924381Y-81240666D02*
X120567238Y-81669237D01*
X120448190Y-81073998D02*
X119948190Y-81073998D01*
X119948190Y-80883522D01*
X119972000Y-80835903D01*
X119995810Y-80812094D01*
X120043429Y-80788284D01*
X120114857Y-80788284D01*
X120162476Y-80812094D01*
X120186286Y-80835903D01*
X120210095Y-80883522D01*
X120210095Y-81073998D01*
X120448190Y-80312094D02*
X120448190Y-80597808D01*
X120448190Y-80454951D02*
X119948190Y-80454951D01*
X120019619Y-80502570D01*
X120067238Y-80550189D01*
X120091048Y-80597808D01*
X120400571Y-80097808D02*
X120424381Y-80073999D01*
X120448190Y-80097808D01*
X120424381Y-80121618D01*
X120400571Y-80097808D01*
X120448190Y-80097808D01*
X119948190Y-79645428D02*
X119948190Y-79740666D01*
X119972000Y-79788285D01*
X119995810Y-79812094D01*
X120067238Y-79859713D01*
X120162476Y-79883523D01*
X120352952Y-79883523D01*
X120400571Y-79859713D01*
X120424381Y-79835904D01*
X120448190Y-79788285D01*
X120448190Y-79693047D01*
X120424381Y-79645428D01*
X120400571Y-79621618D01*
X120352952Y-79597809D01*
X120233905Y-79597809D01*
X120186286Y-79621618D01*
X120162476Y-79645428D01*
X120138667Y-79693047D01*
X120138667Y-79788285D01*
X120162476Y-79835904D01*
X120186286Y-79859713D01*
X120233905Y-79883523D01*
X120194190Y-77672475D02*
X119694190Y-77672475D01*
X120051333Y-77505809D01*
X119694190Y-77339142D01*
X120194190Y-77339142D01*
X120194190Y-77029618D02*
X120170381Y-77077237D01*
X120146571Y-77101046D01*
X120098952Y-77124856D01*
X119956095Y-77124856D01*
X119908476Y-77101046D01*
X119884667Y-77077237D01*
X119860857Y-77029618D01*
X119860857Y-76958189D01*
X119884667Y-76910570D01*
X119908476Y-76886761D01*
X119956095Y-76862951D01*
X120098952Y-76862951D01*
X120146571Y-76886761D01*
X120170381Y-76910570D01*
X120194190Y-76958189D01*
X120194190Y-77029618D01*
X120194190Y-76434380D02*
X119694190Y-76434380D01*
X120170381Y-76434380D02*
X120194190Y-76481999D01*
X120194190Y-76577237D01*
X120170381Y-76624856D01*
X120146571Y-76648665D01*
X120098952Y-76672475D01*
X119956095Y-76672475D01*
X119908476Y-76648665D01*
X119884667Y-76624856D01*
X119860857Y-76577237D01*
X119860857Y-76481999D01*
X119884667Y-76434380D01*
X120170381Y-76005808D02*
X120194190Y-76053427D01*
X120194190Y-76148665D01*
X120170381Y-76196284D01*
X120122762Y-76220094D01*
X119932286Y-76220094D01*
X119884667Y-76196284D01*
X119860857Y-76148665D01*
X119860857Y-76053427D01*
X119884667Y-76005808D01*
X119932286Y-75981999D01*
X119979905Y-75981999D01*
X120027524Y-76220094D01*
X119670381Y-75410571D02*
X120313238Y-75839142D01*
X120194190Y-75243903D02*
X119694190Y-75243903D01*
X119694190Y-75053427D01*
X119718000Y-75005808D01*
X119741810Y-74981999D01*
X119789429Y-74958189D01*
X119860857Y-74958189D01*
X119908476Y-74981999D01*
X119932286Y-75005808D01*
X119956095Y-75053427D01*
X119956095Y-75243903D01*
X120194190Y-74481999D02*
X120194190Y-74767713D01*
X120194190Y-74624856D02*
X119694190Y-74624856D01*
X119765619Y-74672475D01*
X119813238Y-74720094D01*
X119837048Y-74767713D01*
X120146571Y-74267713D02*
X120170381Y-74243904D01*
X120194190Y-74267713D01*
X120170381Y-74291523D01*
X120146571Y-74267713D01*
X120194190Y-74267713D01*
X119694190Y-73791523D02*
X119694190Y-74029618D01*
X119932286Y-74053428D01*
X119908476Y-74029618D01*
X119884667Y-73981999D01*
X119884667Y-73862952D01*
X119908476Y-73815333D01*
X119932286Y-73791523D01*
X119979905Y-73767714D01*
X120098952Y-73767714D01*
X120146571Y-73791523D01*
X120170381Y-73815333D01*
X120194190Y-73862952D01*
X120194190Y-73981999D01*
X120170381Y-74029618D01*
X120146571Y-74053428D01*
X105663905Y-61375000D02*
X105568667Y-61327381D01*
X105425810Y-61327381D01*
X105282952Y-61375000D01*
X105187714Y-61470238D01*
X105140095Y-61565476D01*
X105092476Y-61755952D01*
X105092476Y-61898810D01*
X105140095Y-62089286D01*
X105187714Y-62184524D01*
X105282952Y-62279762D01*
X105425810Y-62327381D01*
X105521048Y-62327381D01*
X105663905Y-62279762D01*
X105711524Y-62232143D01*
X105711524Y-61898810D01*
X105521048Y-61898810D01*
X106282952Y-62327381D02*
X106187714Y-62279762D01*
X106140095Y-62232143D01*
X106092476Y-62136905D01*
X106092476Y-61851190D01*
X106140095Y-61755952D01*
X106187714Y-61708333D01*
X106282952Y-61660714D01*
X106425810Y-61660714D01*
X106521048Y-61708333D01*
X106568667Y-61755952D01*
X106616286Y-61851190D01*
X106616286Y-62136905D01*
X106568667Y-62232143D01*
X106521048Y-62279762D01*
X106425810Y-62327381D01*
X106282952Y-62327381D01*
X107187714Y-62327381D02*
X107092476Y-62279762D01*
X107044857Y-62232143D01*
X106997238Y-62136905D01*
X106997238Y-61851190D01*
X107044857Y-61755952D01*
X107092476Y-61708333D01*
X107187714Y-61660714D01*
X107330572Y-61660714D01*
X107425810Y-61708333D01*
X107473429Y-61755952D01*
X107521048Y-61851190D01*
X107521048Y-62136905D01*
X107473429Y-62232143D01*
X107425810Y-62279762D01*
X107330572Y-62327381D01*
X107187714Y-62327381D01*
X108378191Y-62327381D02*
X108378191Y-61327381D01*
X108378191Y-62279762D02*
X108282953Y-62327381D01*
X108092476Y-62327381D01*
X107997238Y-62279762D01*
X107949619Y-62232143D01*
X107902000Y-62136905D01*
X107902000Y-61851190D01*
X107949619Y-61755952D01*
X107997238Y-61708333D01*
X108092476Y-61660714D01*
X108282953Y-61660714D01*
X108378191Y-61708333D01*
X108759143Y-61327381D02*
X108997238Y-62327381D01*
X109187715Y-61613095D01*
X109378191Y-62327381D01*
X109616286Y-61327381D01*
X110425810Y-62327381D02*
X110425810Y-61803571D01*
X110378191Y-61708333D01*
X110282953Y-61660714D01*
X110092476Y-61660714D01*
X109997238Y-61708333D01*
X110425810Y-62279762D02*
X110330572Y-62327381D01*
X110092476Y-62327381D01*
X109997238Y-62279762D01*
X109949619Y-62184524D01*
X109949619Y-62089286D01*
X109997238Y-61994048D01*
X110092476Y-61946429D01*
X110330572Y-61946429D01*
X110425810Y-61898810D01*
X110759143Y-61660714D02*
X111140095Y-61660714D01*
X110902000Y-61327381D02*
X110902000Y-62184524D01*
X110949619Y-62279762D01*
X111044857Y-62327381D01*
X111140095Y-62327381D01*
X111902001Y-62279762D02*
X111806763Y-62327381D01*
X111616286Y-62327381D01*
X111521048Y-62279762D01*
X111473429Y-62232143D01*
X111425810Y-62136905D01*
X111425810Y-61851190D01*
X111473429Y-61755952D01*
X111521048Y-61708333D01*
X111616286Y-61660714D01*
X111806763Y-61660714D01*
X111902001Y-61708333D01*
X112330572Y-62327381D02*
X112330572Y-61327381D01*
X112759144Y-62327381D02*
X112759144Y-61803571D01*
X112711525Y-61708333D01*
X112616287Y-61660714D01*
X112473429Y-61660714D01*
X112378191Y-61708333D01*
X112330572Y-61755952D01*
X113187715Y-61422619D02*
X113235334Y-61375000D01*
X113330572Y-61327381D01*
X113568668Y-61327381D01*
X113663906Y-61375000D01*
X113711525Y-61422619D01*
X113759144Y-61517857D01*
X113759144Y-61613095D01*
X113711525Y-61755952D01*
X113140096Y-62327381D01*
X113759144Y-62327381D01*
X114140096Y-61422619D02*
X114187715Y-61375000D01*
X114282953Y-61327381D01*
X114521049Y-61327381D01*
X114616287Y-61375000D01*
X114663906Y-61422619D01*
X114711525Y-61517857D01*
X114711525Y-61613095D01*
X114663906Y-61755952D01*
X114092477Y-62327381D01*
X114711525Y-62327381D01*
X104997238Y-62952381D02*
X105568667Y-62952381D01*
X105282952Y-63952381D02*
X105282952Y-62952381D01*
X105902000Y-63857143D02*
X105949619Y-63904762D01*
X105902000Y-63952381D01*
X105854381Y-63904762D01*
X105902000Y-63857143D01*
X105902000Y-63952381D01*
X107663905Y-63000000D02*
X107568667Y-62952381D01*
X107425810Y-62952381D01*
X107282952Y-63000000D01*
X107187714Y-63095238D01*
X107140095Y-63190476D01*
X107092476Y-63380952D01*
X107092476Y-63523810D01*
X107140095Y-63714286D01*
X107187714Y-63809524D01*
X107282952Y-63904762D01*
X107425810Y-63952381D01*
X107521048Y-63952381D01*
X107663905Y-63904762D01*
X107711524Y-63857143D01*
X107711524Y-63523810D01*
X107521048Y-63523810D01*
X108282952Y-63952381D02*
X108187714Y-63904762D01*
X108140095Y-63857143D01*
X108092476Y-63761905D01*
X108092476Y-63476190D01*
X108140095Y-63380952D01*
X108187714Y-63333333D01*
X108282952Y-63285714D01*
X108425810Y-63285714D01*
X108521048Y-63333333D01*
X108568667Y-63380952D01*
X108616286Y-63476190D01*
X108616286Y-63761905D01*
X108568667Y-63857143D01*
X108521048Y-63904762D01*
X108425810Y-63952381D01*
X108282952Y-63952381D01*
X109187714Y-63952381D02*
X109092476Y-63904762D01*
X109044857Y-63857143D01*
X108997238Y-63761905D01*
X108997238Y-63476190D01*
X109044857Y-63380952D01*
X109092476Y-63333333D01*
X109187714Y-63285714D01*
X109330572Y-63285714D01*
X109425810Y-63333333D01*
X109473429Y-63380952D01*
X109521048Y-63476190D01*
X109521048Y-63761905D01*
X109473429Y-63857143D01*
X109425810Y-63904762D01*
X109330572Y-63952381D01*
X109187714Y-63952381D01*
X110378191Y-63952381D02*
X110378191Y-62952381D01*
X110378191Y-63904762D02*
X110282953Y-63952381D01*
X110092476Y-63952381D01*
X109997238Y-63904762D01*
X109949619Y-63857143D01*
X109902000Y-63761905D01*
X109902000Y-63476190D01*
X109949619Y-63380952D01*
X109997238Y-63333333D01*
X110092476Y-63285714D01*
X110282953Y-63285714D01*
X110378191Y-63333333D01*
X110806762Y-63904762D02*
X110902000Y-63952381D01*
X111092476Y-63952381D01*
X111187715Y-63904762D01*
X111235334Y-63809524D01*
X111235334Y-63761905D01*
X111187715Y-63666667D01*
X111092476Y-63619048D01*
X110949619Y-63619048D01*
X110854381Y-63571429D01*
X110806762Y-63476190D01*
X110806762Y-63428571D01*
X110854381Y-63333333D01*
X110949619Y-63285714D01*
X111092476Y-63285714D01*
X111187715Y-63333333D01*
X111663905Y-63285714D02*
X111663905Y-64285714D01*
X111663905Y-63333333D02*
X111759143Y-63285714D01*
X111949620Y-63285714D01*
X112044858Y-63333333D01*
X112092477Y-63380952D01*
X112140096Y-63476190D01*
X112140096Y-63761905D01*
X112092477Y-63857143D01*
X112044858Y-63904762D01*
X111949620Y-63952381D01*
X111759143Y-63952381D01*
X111663905Y-63904762D01*
X112949620Y-63904762D02*
X112854382Y-63952381D01*
X112663905Y-63952381D01*
X112568667Y-63904762D01*
X112521048Y-63809524D01*
X112521048Y-63428571D01*
X112568667Y-63333333D01*
X112663905Y-63285714D01*
X112854382Y-63285714D01*
X112949620Y-63333333D01*
X112997239Y-63428571D01*
X112997239Y-63523810D01*
X112521048Y-63619048D01*
X113806763Y-63904762D02*
X113711525Y-63952381D01*
X113521048Y-63952381D01*
X113425810Y-63904762D01*
X113378191Y-63809524D01*
X113378191Y-63428571D01*
X113425810Y-63333333D01*
X113521048Y-63285714D01*
X113711525Y-63285714D01*
X113806763Y-63333333D01*
X113854382Y-63428571D01*
X113854382Y-63523810D01*
X113378191Y-63619048D01*
X114711525Y-63952381D02*
X114711525Y-62952381D01*
X114711525Y-63904762D02*
X114616287Y-63952381D01*
X114425810Y-63952381D01*
X114330572Y-63904762D01*
X114282953Y-63857143D01*
X114235334Y-63761905D01*
X114235334Y-63476190D01*
X114282953Y-63380952D01*
X114330572Y-63333333D01*
X114425810Y-63285714D01*
X114616287Y-63285714D01*
X114711525Y-63333333D01*
X105140095Y-65577381D02*
X105140095Y-64577381D01*
X105711524Y-65577381D02*
X105282952Y-65005952D01*
X105711524Y-64577381D02*
X105140095Y-65148810D01*
X106140095Y-65577381D02*
X106140095Y-64577381D01*
X106711524Y-65577381D02*
X106282952Y-65005952D01*
X106711524Y-64577381D02*
X106140095Y-65148810D01*
X107568667Y-64910714D02*
X107568667Y-65577381D01*
X107330571Y-64529762D02*
X107092476Y-65244048D01*
X107711524Y-65244048D01*
X107949619Y-64577381D02*
X108282952Y-65577381D01*
X108616286Y-64577381D01*
X109521048Y-65482143D02*
X109473429Y-65529762D01*
X109330572Y-65577381D01*
X109235334Y-65577381D01*
X109092476Y-65529762D01*
X108997238Y-65434524D01*
X108949619Y-65339286D01*
X108902000Y-65148810D01*
X108902000Y-65005952D01*
X108949619Y-64815476D01*
X108997238Y-64720238D01*
X109092476Y-64625000D01*
X109235334Y-64577381D01*
X109330572Y-64577381D01*
X109473429Y-64625000D01*
X109521048Y-64672619D01*
X109854381Y-64577381D02*
X110521048Y-64577381D01*
X109854381Y-65577381D01*
X110521048Y-65577381D01*
X100012572Y-85324190D02*
X100298286Y-85324190D01*
X100155429Y-85824190D02*
X100155429Y-85324190D01*
X100441143Y-85800381D02*
X100512572Y-85824190D01*
X100631619Y-85824190D01*
X100679238Y-85800381D01*
X100703048Y-85776571D01*
X100726857Y-85728952D01*
X100726857Y-85681333D01*
X100703048Y-85633714D01*
X100679238Y-85609905D01*
X100631619Y-85586095D01*
X100536381Y-85562286D01*
X100488762Y-85538476D01*
X100464953Y-85514667D01*
X100441143Y-85467048D01*
X100441143Y-85419429D01*
X100464953Y-85371810D01*
X100488762Y-85348000D01*
X100536381Y-85324190D01*
X100655429Y-85324190D01*
X100726857Y-85348000D01*
X100869714Y-85324190D02*
X101155428Y-85324190D01*
X101012571Y-85824190D02*
X101012571Y-85324190D01*
X97365430Y-81204571D02*
X97389239Y-81228381D01*
X97365430Y-81252190D01*
X97341620Y-81228381D01*
X97365430Y-81204571D01*
X97365430Y-81252190D01*
X97365430Y-81061714D02*
X97341620Y-80776000D01*
X97365430Y-80752190D01*
X97389239Y-80776000D01*
X97365430Y-81061714D01*
X97365430Y-80752190D01*
X97889239Y-81252190D02*
X97722572Y-81014095D01*
X97603525Y-81252190D02*
X97603525Y-80752190D01*
X97794001Y-80752190D01*
X97841620Y-80776000D01*
X97865429Y-80799810D01*
X97889239Y-80847429D01*
X97889239Y-80918857D01*
X97865429Y-80966476D01*
X97841620Y-80990286D01*
X97794001Y-81014095D01*
X97603525Y-81014095D01*
X98079715Y-81228381D02*
X98151144Y-81252190D01*
X98270191Y-81252190D01*
X98317810Y-81228381D01*
X98341620Y-81204571D01*
X98365429Y-81156952D01*
X98365429Y-81109333D01*
X98341620Y-81061714D01*
X98317810Y-81037905D01*
X98270191Y-81014095D01*
X98174953Y-80990286D01*
X98127334Y-80966476D01*
X98103525Y-80942667D01*
X98079715Y-80895048D01*
X98079715Y-80847429D01*
X98103525Y-80799810D01*
X98127334Y-80776000D01*
X98174953Y-80752190D01*
X98294001Y-80752190D01*
X98365429Y-80776000D01*
X98508286Y-80752190D02*
X98794000Y-80752190D01*
X98651143Y-81252190D02*
X98651143Y-80752190D01*
D12*
X98879600Y-74466000D02*
X98879600Y-74966000D01*
X98079600Y-74966000D02*
X98079600Y-74466000D01*
X100083200Y-72639600D02*
X100583200Y-72639600D01*
X100583200Y-73439600D02*
X100083200Y-73439600D01*
X100893600Y-80490000D02*
X101133600Y-80490000D01*
X101133600Y-79610000D02*
X100893600Y-79610000D01*
X114373000Y-75800000D02*
X114133000Y-75800000D01*
X114133000Y-76680000D02*
X114373000Y-76680000D01*
X114373000Y-74784000D02*
X114133000Y-74784000D01*
X114133000Y-75664000D02*
X114373000Y-75664000D01*
D13*
X102070400Y-76157200D02*
X99070400Y-76157200D01*
X102070400Y-73157200D02*
X102070400Y-74157200D01*
X101070400Y-73157200D02*
X102070400Y-73157200D01*
X115773000Y-79194000D02*
X115273000Y-79194000D01*
X115273000Y-80144000D02*
X115773000Y-80144000D01*
X112500000Y-81250000D02*
X111850000Y-81900000D01*
X103350000Y-81900000D02*
X102700000Y-81900000D01*
X102700000Y-81900000D02*
X102700000Y-81250000D01*
X111850000Y-72100000D02*
X112500000Y-72100000D01*
X112500000Y-72100000D02*
X112500000Y-72750000D01*
X103350000Y-72100000D02*
X102700000Y-72100000D01*
X102700000Y-72100000D02*
X102700000Y-72750000D01*
D11*
X98008286Y-78561381D02*
X98032095Y-78489952D01*
X98055905Y-78466143D01*
X98103524Y-78442333D01*
X98174952Y-78442333D01*
X98222571Y-78466143D01*
X98246381Y-78489952D01*
X98270190Y-78537571D01*
X98270190Y-78728047D01*
X97770190Y-78728047D01*
X97770190Y-78561381D01*
X97794000Y-78513762D01*
X97817810Y-78489952D01*
X97865429Y-78466143D01*
X97913048Y-78466143D01*
X97960667Y-78489952D01*
X97984476Y-78513762D01*
X98008286Y-78561381D01*
X98008286Y-78728047D01*
X98270190Y-77966143D02*
X98270190Y-78251857D01*
X98270190Y-78109000D02*
X97770190Y-78109000D01*
X97841619Y-78156619D01*
X97889238Y-78204238D01*
X97913048Y-78251857D01*
X97714571Y-74759333D02*
X97738381Y-74783143D01*
X97762190Y-74854571D01*
X97762190Y-74902190D01*
X97738381Y-74973619D01*
X97690762Y-75021238D01*
X97643143Y-75045047D01*
X97547905Y-75068857D01*
X97476476Y-75068857D01*
X97381238Y-75045047D01*
X97333619Y-75021238D01*
X97286000Y-74973619D01*
X97262190Y-74902190D01*
X97262190Y-74854571D01*
X97286000Y-74783143D01*
X97309810Y-74759333D01*
X97262190Y-74592666D02*
X97262190Y-74259333D01*
X97762190Y-74473619D01*
X99492571Y-72981333D02*
X99516381Y-73005143D01*
X99540190Y-73076571D01*
X99540190Y-73124190D01*
X99516381Y-73195619D01*
X99468762Y-73243238D01*
X99421143Y-73267047D01*
X99325905Y-73290857D01*
X99254476Y-73290857D01*
X99159238Y-73267047D01*
X99111619Y-73243238D01*
X99064000Y-73195619D01*
X99040190Y-73124190D01*
X99040190Y-73076571D01*
X99064000Y-73005143D01*
X99087810Y-72981333D01*
X99040190Y-72552762D02*
X99040190Y-72648000D01*
X99064000Y-72695619D01*
X99087810Y-72719428D01*
X99159238Y-72767047D01*
X99254476Y-72790857D01*
X99444952Y-72790857D01*
X99492571Y-72767047D01*
X99516381Y-72743238D01*
X99540190Y-72695619D01*
X99540190Y-72600381D01*
X99516381Y-72552762D01*
X99492571Y-72528952D01*
X99444952Y-72505143D01*
X99325905Y-72505143D01*
X99278286Y-72528952D01*
X99254476Y-72552762D01*
X99230667Y-72600381D01*
X99230667Y-72695619D01*
X99254476Y-72743238D01*
X99278286Y-72767047D01*
X99325905Y-72790857D01*
D13*
X100846934Y-81752381D02*
X100513600Y-81276190D01*
X100275505Y-81752381D02*
X100275505Y-80752381D01*
X100656458Y-80752381D01*
X100751696Y-80800000D01*
X100799315Y-80847619D01*
X100846934Y-80942857D01*
X100846934Y-81085714D01*
X100799315Y-81180952D01*
X100751696Y-81228571D01*
X100656458Y-81276190D01*
X100275505Y-81276190D01*
X101227886Y-80847619D02*
X101275505Y-80800000D01*
X101370743Y-80752381D01*
X101608839Y-80752381D01*
X101704077Y-80800000D01*
X101751696Y-80847619D01*
X101799315Y-80942857D01*
X101799315Y-81038095D01*
X101751696Y-81180952D01*
X101180267Y-81752381D01*
X101799315Y-81752381D01*
D11*
X115486667Y-76378571D02*
X115462857Y-76402381D01*
X115391429Y-76426190D01*
X115343810Y-76426190D01*
X115272381Y-76402381D01*
X115224762Y-76354762D01*
X115200953Y-76307143D01*
X115177143Y-76211905D01*
X115177143Y-76140476D01*
X115200953Y-76045238D01*
X115224762Y-75997619D01*
X115272381Y-75950000D01*
X115343810Y-75926190D01*
X115391429Y-75926190D01*
X115462857Y-75950000D01*
X115486667Y-75973810D01*
X115939048Y-75926190D02*
X115700953Y-75926190D01*
X115677143Y-76164286D01*
X115700953Y-76140476D01*
X115748572Y-76116667D01*
X115867619Y-76116667D01*
X115915238Y-76140476D01*
X115939048Y-76164286D01*
X115962857Y-76211905D01*
X115962857Y-76330952D01*
X115939048Y-76378571D01*
X115915238Y-76402381D01*
X115867619Y-76426190D01*
X115748572Y-76426190D01*
X115700953Y-76402381D01*
X115677143Y-76378571D01*
X115486667Y-75362571D02*
X115462857Y-75386381D01*
X115391429Y-75410190D01*
X115343810Y-75410190D01*
X115272381Y-75386381D01*
X115224762Y-75338762D01*
X115200953Y-75291143D01*
X115177143Y-75195905D01*
X115177143Y-75124476D01*
X115200953Y-75029238D01*
X115224762Y-74981619D01*
X115272381Y-74934000D01*
X115343810Y-74910190D01*
X115391429Y-74910190D01*
X115462857Y-74934000D01*
X115486667Y-74957810D01*
X115677143Y-74957810D02*
X115700953Y-74934000D01*
X115748572Y-74910190D01*
X115867619Y-74910190D01*
X115915238Y-74934000D01*
X115939048Y-74957810D01*
X115962857Y-75005429D01*
X115962857Y-75053048D01*
X115939048Y-75124476D01*
X115653334Y-75410190D01*
X115962857Y-75410190D01*
X98313906Y-75934095D02*
X98313906Y-76172190D01*
X98147239Y-75672190D02*
X98313906Y-75934095D01*
X98480572Y-75672190D01*
X98623429Y-75719810D02*
X98647239Y-75696000D01*
X98694858Y-75672190D01*
X98813905Y-75672190D01*
X98861524Y-75696000D01*
X98885334Y-75719810D01*
X98909143Y-75767429D01*
X98909143Y-75815048D01*
X98885334Y-75886476D01*
X98599620Y-76172190D01*
X98909143Y-76172190D01*
X115232667Y-78918571D02*
X115208857Y-78942381D01*
X115137429Y-78966190D01*
X115089810Y-78966190D01*
X115018381Y-78942381D01*
X114970762Y-78894762D01*
X114946953Y-78847143D01*
X114923143Y-78751905D01*
X114923143Y-78680476D01*
X114946953Y-78585238D01*
X114970762Y-78537619D01*
X115018381Y-78490000D01*
X115089810Y-78466190D01*
X115137429Y-78466190D01*
X115208857Y-78490000D01*
X115232667Y-78513810D01*
X115661238Y-78632857D02*
X115661238Y-78966190D01*
X115542191Y-78442381D02*
X115423143Y-78799524D01*
X115732667Y-78799524D01*
M02*
