G04 #@! TF.FileFunction,Soldermask,Top*
%FSLAX46Y46*%
G04 Gerber Fmt 4.6, Leading zero omitted, Abs format (unit mm)*
G04 Created by KiCad (PCBNEW 4.0.5+dfsg1-4) date Sun Sep  3 17:31:00 2017*
%MOMM*%
%LPD*%
G01*
G04 APERTURE LIST*
%ADD10C,0.100000*%
%ADD11O,1.200000X0.650000*%
%ADD12O,0.650000X1.200000*%
%ADD13R,4.650000X4.650000*%
%ADD14R,1.385000X2.150000*%
%ADD15R,0.710000X2.150000*%
%ADD16R,0.700000X0.750000*%
%ADD17R,0.750000X0.700000*%
%ADD18R,0.830000X0.680000*%
%ADD19O,1.600000X3.100000*%
%ADD20C,1.400000*%
%ADD21C,1.924000*%
%ADD22R,0.900000X1.000000*%
G04 APERTURE END LIST*
D10*
D11*
X112075000Y-80750000D03*
X112075000Y-80250000D03*
X112075000Y-79750000D03*
X112075000Y-79250000D03*
X112075000Y-78750000D03*
X112075000Y-78250000D03*
X112075000Y-77750000D03*
X112075000Y-77250000D03*
X112075000Y-76750000D03*
X112075000Y-76250000D03*
X112075000Y-75750000D03*
X112075000Y-75250000D03*
X112075000Y-74750000D03*
X112075000Y-74250000D03*
X112075000Y-73750000D03*
X112075000Y-73250000D03*
D12*
X111350000Y-72525000D03*
X110850000Y-72525000D03*
X110350000Y-72525000D03*
X109850000Y-72525000D03*
X109350000Y-72525000D03*
X108850000Y-72525000D03*
X108350000Y-72525000D03*
X107850000Y-72525000D03*
X107350000Y-72525000D03*
X106850000Y-72525000D03*
X106350000Y-72525000D03*
X105850000Y-72525000D03*
X105350000Y-72525000D03*
X104850000Y-72525000D03*
X104350000Y-72525000D03*
X103850000Y-72525000D03*
D11*
X103125000Y-73250000D03*
X103125000Y-73750000D03*
X103125000Y-74250000D03*
X103125000Y-74750000D03*
X103125000Y-75250000D03*
X103125000Y-75750000D03*
X103125000Y-76250000D03*
X103125000Y-76750000D03*
X103125000Y-77250000D03*
X103125000Y-77750000D03*
X103125000Y-78250000D03*
X103125000Y-78750000D03*
X103125000Y-79250000D03*
X103125000Y-79750000D03*
X103125000Y-80250000D03*
X103125000Y-80750000D03*
D12*
X103850000Y-81475000D03*
X104350000Y-81475000D03*
X104850000Y-81475000D03*
X105350000Y-81475000D03*
X105850000Y-81475000D03*
X106350000Y-81475000D03*
X106850000Y-81475000D03*
X107350000Y-81475000D03*
X107850000Y-81475000D03*
X108350000Y-81475000D03*
X108850000Y-81475000D03*
X109350000Y-81475000D03*
X109850000Y-81475000D03*
X110350000Y-81475000D03*
X110850000Y-81475000D03*
X111350000Y-81475000D03*
D13*
X107600000Y-77000000D03*
D14*
X103300000Y-83800000D03*
X104800000Y-83800000D03*
X106300000Y-83800000D03*
X107800000Y-83800000D03*
X109300000Y-83800000D03*
X110800000Y-83800000D03*
X112300000Y-83800000D03*
X113800000Y-83800000D03*
X115300000Y-83800000D03*
D15*
X99200000Y-70200000D03*
X99800000Y-70200000D03*
X100400000Y-70200000D03*
X101000000Y-70200000D03*
X101600000Y-70200000D03*
X102200000Y-70200000D03*
X102800000Y-70200000D03*
X103400000Y-70200000D03*
X104000000Y-70200000D03*
X104600000Y-70200000D03*
X105200000Y-70200000D03*
X105800000Y-70200000D03*
X106400000Y-70200000D03*
X107000000Y-70200000D03*
X107600000Y-70200000D03*
X108200000Y-70200000D03*
X108800000Y-70200000D03*
X109400000Y-70200000D03*
X110000000Y-70200000D03*
X110600000Y-70200000D03*
X111200000Y-70200000D03*
X111800000Y-70200000D03*
X112400000Y-70200000D03*
X113000000Y-70200000D03*
X113600000Y-70200000D03*
X114200000Y-70200000D03*
X114800000Y-70200000D03*
X115400000Y-70200000D03*
X116000000Y-70200000D03*
X116600000Y-70200000D03*
X117200000Y-70200000D03*
X117800000Y-70200000D03*
X118400000Y-70200000D03*
X119000000Y-70200000D03*
X119600000Y-70200000D03*
D16*
X113973000Y-75224000D03*
X114533000Y-75224000D03*
D17*
X100156000Y-78347000D03*
X100156000Y-78907000D03*
D18*
X99292400Y-76716600D03*
X99292400Y-77236600D03*
D16*
X113973000Y-76240000D03*
X114533000Y-76240000D03*
D19*
X121900000Y-82600000D03*
X121800000Y-75100000D03*
D20*
X116900000Y-59100000D03*
X120500000Y-72500000D03*
X98200000Y-72600000D03*
X101900000Y-59100000D03*
D21*
X97870000Y-82590000D03*
X97870000Y-80050000D03*
D22*
X116285000Y-78822000D03*
X116285000Y-77722000D03*
M02*
