M48
;DRILL file {KiCad 4.0.5+dfsg1-4} date Wed Sep  6 13:50:56 2017
;FORMAT={-:-/ absolute / inch / decimal}
FMAT,2
INCH,TZ
T1C0.016
T2C0.030
T3C0.031
%
G90
G05
M72
T1
X3.9281Y-2.9366
X3.9531Y-2.9066
X3.9781Y-2.8766
X3.9931Y-3.1066
X3.9981Y-3.0216
X4.1131Y-2.9366
X4.1181Y-3.0816
X4.1241Y-3.1306
X4.1281Y-2.9066
X4.145Y-3.1536
X4.163Y-2.8993
X4.2155Y-3.158
X4.2362Y-3.0315
X4.2531Y-3.158
X4.2581Y-3.3666
X4.2891Y-3.1616
X4.3187Y-3.1538
X4.3684Y-2.9063
X4.4881Y-3.0716
X4.5381Y-2.8516
X4.5381Y-2.9187
T2
X3.8531Y-3.1516
X3.8531Y-3.2516
T3
X4.7953Y-2.9272G85X4.7953Y-2.9862
G05
X4.7953Y-3.2224G85X4.7953Y-3.2815
G05
T0
M30
