G04 #@! TF.FileFunction,Legend,Bot*
%FSLAX46Y46*%
G04 Gerber Fmt 4.6, Leading zero omitted, Abs format (unit mm)*
G04 Created by KiCad (PCBNEW 4.0.5+dfsg1-4) date Sun Sep  3 17:12:53 2017*
%MOMM*%
%LPD*%
G01*
G04 APERTURE LIST*
%ADD10C,0.100000*%
%ADD11C,0.120000*%
%ADD12C,0.150000*%
G04 APERTURE END LIST*
D10*
D11*
X119246000Y-85751000D02*
X117896000Y-85751000D01*
X119246000Y-84001000D02*
X117896000Y-84001000D01*
D12*
X100887000Y-62051000D02*
X100187000Y-62051000D01*
X100187000Y-63251000D02*
X100887000Y-63251000D01*
X119047191Y-82852190D02*
X119047191Y-83328381D01*
X119380524Y-82328381D02*
X119047191Y-82852190D01*
X118713857Y-82328381D01*
X117856714Y-83328381D02*
X118428143Y-83328381D01*
X118142429Y-83328381D02*
X118142429Y-82328381D01*
X118237667Y-82471238D01*
X118332905Y-82566476D01*
X118428143Y-82614095D01*
X114361904Y-65600000D02*
X114457142Y-65552381D01*
X114599999Y-65552381D01*
X114742857Y-65600000D01*
X114838095Y-65695238D01*
X114885714Y-65790476D01*
X114933333Y-65980952D01*
X114933333Y-66123810D01*
X114885714Y-66314286D01*
X114838095Y-66409524D01*
X114742857Y-66504762D01*
X114599999Y-66552381D01*
X114504761Y-66552381D01*
X114361904Y-66504762D01*
X114314285Y-66457143D01*
X114314285Y-66123810D01*
X114504761Y-66123810D01*
X113885714Y-66552381D02*
X113885714Y-65552381D01*
X113314285Y-66552381D01*
X113314285Y-65552381D01*
X112838095Y-66552381D02*
X112838095Y-65552381D01*
X112600000Y-65552381D01*
X112457142Y-65600000D01*
X112361904Y-65695238D01*
X112314285Y-65790476D01*
X112266666Y-65980952D01*
X112266666Y-66123810D01*
X112314285Y-66314286D01*
X112361904Y-66409524D01*
X112457142Y-66504762D01*
X112600000Y-66552381D01*
X112838095Y-66552381D01*
X103952381Y-61166667D02*
X104952381Y-61500000D01*
X103952381Y-61833334D01*
X104857143Y-62738096D02*
X104904762Y-62690477D01*
X104952381Y-62547620D01*
X104952381Y-62452382D01*
X104904762Y-62309524D01*
X104809524Y-62214286D01*
X104714286Y-62166667D01*
X104523810Y-62119048D01*
X104380952Y-62119048D01*
X104190476Y-62166667D01*
X104095238Y-62214286D01*
X104000000Y-62309524D01*
X103952381Y-62452382D01*
X103952381Y-62547620D01*
X104000000Y-62690477D01*
X104047619Y-62738096D01*
X104857143Y-63738096D02*
X104904762Y-63690477D01*
X104952381Y-63547620D01*
X104952381Y-63452382D01*
X104904762Y-63309524D01*
X104809524Y-63214286D01*
X104714286Y-63166667D01*
X104523810Y-63119048D01*
X104380952Y-63119048D01*
X104190476Y-63166667D01*
X104095238Y-63214286D01*
X104000000Y-63309524D01*
X103952381Y-63452382D01*
X103952381Y-63547620D01*
X104000000Y-63690477D01*
X104047619Y-63738096D01*
X100703666Y-61108143D02*
X100751285Y-61155762D01*
X100894142Y-61203381D01*
X100989380Y-61203381D01*
X101132238Y-61155762D01*
X101227476Y-61060524D01*
X101275095Y-60965286D01*
X101322714Y-60774810D01*
X101322714Y-60631952D01*
X101275095Y-60441476D01*
X101227476Y-60346238D01*
X101132238Y-60251000D01*
X100989380Y-60203381D01*
X100894142Y-60203381D01*
X100751285Y-60251000D01*
X100703666Y-60298619D01*
X99751285Y-61203381D02*
X100322714Y-61203381D01*
X100037000Y-61203381D02*
X100037000Y-60203381D01*
X100132238Y-60346238D01*
X100227476Y-60441476D01*
X100322714Y-60489095D01*
M02*
