G04 #@! TF.FileFunction,Legend,Top*
%FSLAX46Y46*%
G04 Gerber Fmt 4.6, Leading zero omitted, Abs format (unit mm)*
G04 Created by KiCad (PCBNEW 4.0.5+dfsg1-4) date Wed Sep  6 13:50:53 2017*
%MOMM*%
%LPD*%
G01*
G04 APERTURE LIST*
%ADD10C,0.100000*%
%ADD11C,0.150000*%
%ADD12C,0.120000*%
G04 APERTURE END LIST*
D10*
D11*
X112500000Y-81250000D02*
X111850000Y-81900000D01*
X103350000Y-81900000D02*
X102700000Y-81900000D01*
X102700000Y-81900000D02*
X102700000Y-81250000D01*
X111850000Y-72100000D02*
X112500000Y-72100000D01*
X112500000Y-72100000D02*
X112500000Y-72750000D01*
X103350000Y-72100000D02*
X102700000Y-72100000D01*
X102700000Y-72100000D02*
X102700000Y-72750000D01*
D12*
X114503000Y-75624000D02*
X114003000Y-75624000D01*
X114003000Y-74824000D02*
X114503000Y-74824000D01*
X99756000Y-78877000D02*
X99756000Y-78377000D01*
X100556000Y-78377000D02*
X100556000Y-78877000D01*
X99732400Y-77096600D02*
X99732400Y-76856600D01*
X98852400Y-76856600D02*
X98852400Y-77096600D01*
X114503000Y-76640000D02*
X114003000Y-76640000D01*
X114003000Y-75840000D02*
X114503000Y-75840000D01*
D11*
X115810000Y-78022000D02*
X115810000Y-78522000D01*
X116760000Y-78522000D02*
X116760000Y-78022000D01*
X116245334Y-75200143D02*
X116197715Y-75247762D01*
X116054858Y-75295381D01*
X115959620Y-75295381D01*
X115816762Y-75247762D01*
X115721524Y-75152524D01*
X115673905Y-75057286D01*
X115626286Y-74866810D01*
X115626286Y-74723952D01*
X115673905Y-74533476D01*
X115721524Y-74438238D01*
X115816762Y-74343000D01*
X115959620Y-74295381D01*
X116054858Y-74295381D01*
X116197715Y-74343000D01*
X116245334Y-74390619D01*
X116626286Y-74390619D02*
X116673905Y-74343000D01*
X116769143Y-74295381D01*
X117007239Y-74295381D01*
X117102477Y-74343000D01*
X117150096Y-74390619D01*
X117197715Y-74485857D01*
X117197715Y-74581095D01*
X117150096Y-74723952D01*
X116578667Y-75295381D01*
X117197715Y-75295381D01*
X100497334Y-81042143D02*
X100449715Y-81089762D01*
X100306858Y-81137381D01*
X100211620Y-81137381D01*
X100068762Y-81089762D01*
X99973524Y-80994524D01*
X99925905Y-80899286D01*
X99878286Y-80708810D01*
X99878286Y-80565952D01*
X99925905Y-80375476D01*
X99973524Y-80280238D01*
X100068762Y-80185000D01*
X100211620Y-80137381D01*
X100306858Y-80137381D01*
X100449715Y-80185000D01*
X100497334Y-80232619D01*
X100830667Y-80137381D02*
X101449715Y-80137381D01*
X101116381Y-80518333D01*
X101259239Y-80518333D01*
X101354477Y-80565952D01*
X101402096Y-80613571D01*
X101449715Y-80708810D01*
X101449715Y-80946905D01*
X101402096Y-81042143D01*
X101354477Y-81089762D01*
X101259239Y-81137381D01*
X100973524Y-81137381D01*
X100878286Y-81089762D01*
X100830667Y-81042143D01*
X99354334Y-76057381D02*
X99021000Y-75581190D01*
X98782905Y-76057381D02*
X98782905Y-75057381D01*
X99163858Y-75057381D01*
X99259096Y-75105000D01*
X99306715Y-75152619D01*
X99354334Y-75247857D01*
X99354334Y-75390714D01*
X99306715Y-75485952D01*
X99259096Y-75533571D01*
X99163858Y-75581190D01*
X98782905Y-75581190D01*
X100306715Y-76057381D02*
X99735286Y-76057381D01*
X100021000Y-76057381D02*
X100021000Y-75057381D01*
X99925762Y-75200238D01*
X99830524Y-75295476D01*
X99735286Y-75343095D01*
X116372334Y-76597143D02*
X116324715Y-76644762D01*
X116181858Y-76692381D01*
X116086620Y-76692381D01*
X115943762Y-76644762D01*
X115848524Y-76549524D01*
X115800905Y-76454286D01*
X115753286Y-76263810D01*
X115753286Y-76120952D01*
X115800905Y-75930476D01*
X115848524Y-75835238D01*
X115943762Y-75740000D01*
X116086620Y-75692381D01*
X116181858Y-75692381D01*
X116324715Y-75740000D01*
X116372334Y-75787619D01*
X117277096Y-75692381D02*
X116800905Y-75692381D01*
X116753286Y-76168571D01*
X116800905Y-76120952D01*
X116896143Y-76073333D01*
X117134239Y-76073333D01*
X117229477Y-76120952D01*
X117277096Y-76168571D01*
X117324715Y-76263810D01*
X117324715Y-76501905D01*
X117277096Y-76597143D01*
X117229477Y-76644762D01*
X117134239Y-76692381D01*
X116896143Y-76692381D01*
X116800905Y-76644762D01*
X116753286Y-76597143D01*
X117896334Y-77867143D02*
X117848715Y-77914762D01*
X117705858Y-77962381D01*
X117610620Y-77962381D01*
X117467762Y-77914762D01*
X117372524Y-77819524D01*
X117324905Y-77724286D01*
X117277286Y-77533810D01*
X117277286Y-77390952D01*
X117324905Y-77200476D01*
X117372524Y-77105238D01*
X117467762Y-77010000D01*
X117610620Y-76962381D01*
X117705858Y-76962381D01*
X117848715Y-77010000D01*
X117896334Y-77057619D01*
X118753477Y-77295714D02*
X118753477Y-77962381D01*
X118515381Y-76914762D02*
X118277286Y-77629048D01*
X118896334Y-77629048D01*
M02*
