G04 #@! TF.FileFunction,Copper,L2,Bot,Signal*
%FSLAX46Y46*%
G04 Gerber Fmt 4.6, Leading zero omitted, Abs format (unit mm)*
G04 Created by KiCad (PCBNEW 4.0.5+dfsg1-4) date Sun Sep  3 17:12:52 2017*
%MOMM*%
%LPD*%
G01*
G04 APERTURE LIST*
%ADD10C,0.100000*%
%ADD11R,1.000000X1.800000*%
%ADD12O,1.200000X2.700000*%
%ADD13R,8.300000X4.400000*%
%ADD14C,1.524000*%
%ADD15R,0.800000X0.750000*%
%ADD16C,0.600000*%
%ADD17C,0.177800*%
G04 APERTURE END LIST*
D10*
D11*
X117321000Y-84876000D03*
X119821000Y-84876000D03*
D12*
X121900000Y-82600000D03*
X121800000Y-75100000D03*
D10*
G36*
X110945242Y-73241821D02*
X110474487Y-67260317D01*
X116854758Y-66758179D01*
X117325513Y-72739683D01*
X110945242Y-73241821D01*
X110945242Y-73241821D01*
G37*
D13*
X109500000Y-61300000D03*
D14*
X97870000Y-82590000D03*
X97870000Y-80050000D03*
D15*
X101287000Y-62651000D03*
X99787000Y-62651000D03*
D16*
X108157000Y-85511000D03*
X108943200Y-80304000D03*
X104601000Y-78272000D03*
X101426000Y-78907000D03*
X113999000Y-78018000D03*
X115269000Y-74135200D03*
X115269000Y-72430000D03*
X107600000Y-77000000D03*
X101553000Y-76748000D03*
X105283300Y-80100800D03*
X108030000Y-80214285D03*
X110957657Y-73820343D03*
X109695513Y-80106514D03*
X107072454Y-80214286D03*
X104753400Y-79516600D03*
X99775000Y-74589000D03*
X104474000Y-74589000D03*
X100410000Y-73827000D03*
X104855000Y-73827000D03*
X101045000Y-73065000D03*
X105739834Y-73641300D03*
D17*
X108643201Y-85024799D02*
X108157000Y-85511000D01*
X108943200Y-80304000D02*
X108643201Y-80603999D01*
X108643201Y-80603999D02*
X108643201Y-85024799D01*
X107759000Y-70000000D02*
X107903000Y-70000000D01*
X107903000Y-70000000D02*
X113900000Y-70000000D01*
X99787000Y-62651000D02*
X99812000Y-62651000D01*
X99812000Y-62651000D02*
X107161000Y-70000000D01*
X107161000Y-70000000D02*
X107903000Y-70000000D01*
X101426000Y-78907000D02*
X103966000Y-78907000D01*
X103966000Y-78907000D02*
X104601000Y-78272000D01*
X113999000Y-78018000D02*
X113699001Y-77718001D01*
X113699001Y-77718001D02*
X113195001Y-77718001D01*
X113195001Y-77718001D02*
X112477000Y-77000000D01*
X112477000Y-77000000D02*
X115269000Y-74208000D01*
X115269000Y-74208000D02*
X115269000Y-74135200D01*
X107600000Y-77000000D02*
X112477000Y-77000000D01*
X114844736Y-72430000D02*
X115269000Y-72430000D01*
X101287000Y-62651000D02*
X108149000Y-62651000D01*
X108149000Y-62651000D02*
X109500000Y-61300000D01*
X101553000Y-76748000D02*
X107013282Y-76748000D01*
X107013282Y-76748000D02*
X107033299Y-76727983D01*
X105283300Y-80100800D02*
X107033299Y-78350801D01*
X107033299Y-78350801D02*
X107033299Y-77272017D01*
X111257656Y-73520344D02*
X115396000Y-73520344D01*
X112132183Y-76433299D02*
X115045138Y-73520344D01*
X115396000Y-73520344D02*
X116802038Y-73520344D01*
X107327983Y-76433299D02*
X112132183Y-76433299D01*
X115045138Y-73520344D02*
X115396000Y-73520344D01*
X108030000Y-80214285D02*
X108030000Y-78268718D01*
X108030000Y-78268718D02*
X107033299Y-77272017D01*
X107033299Y-76727983D02*
X107327983Y-76433299D01*
X107033299Y-77272017D02*
X107033299Y-76727983D01*
X110957657Y-73820343D02*
X111257656Y-73520344D01*
X116802038Y-73520344D02*
X117512223Y-72810159D01*
X117512223Y-72810159D02*
X117512223Y-65024423D01*
X117512223Y-65024423D02*
X113747800Y-61260000D01*
X113747800Y-61260000D02*
X109420000Y-61260000D01*
X109414000Y-61254000D02*
X109420000Y-61260000D01*
X109554000Y-83431598D02*
X109831701Y-83709299D01*
X109554000Y-80076082D02*
X109554000Y-83431598D01*
X117976499Y-83709299D02*
X119143200Y-84876000D01*
X119143200Y-84876000D02*
X119821000Y-84876000D01*
X109831701Y-83709299D02*
X117976499Y-83709299D01*
X117321000Y-84876000D02*
X116643200Y-84876000D01*
X116643200Y-84876000D02*
X115441499Y-86077701D01*
X115441499Y-86077701D02*
X107884983Y-86077701D01*
X107884983Y-86077701D02*
X107072454Y-85265172D01*
X107072454Y-85265172D02*
X107072454Y-80638550D01*
X107072454Y-80638550D02*
X107072454Y-80214286D01*
X104753400Y-79516600D02*
X104220000Y-80050000D01*
X104220000Y-80050000D02*
X97870000Y-80050000D01*
X104474000Y-74589000D02*
X99775000Y-74589000D01*
X104855000Y-73827000D02*
X100410000Y-73827000D01*
X105739834Y-73641300D02*
X105163534Y-73065000D01*
X105163534Y-73065000D02*
X101045000Y-73065000D01*
M02*
