<?xml version="1.0" encoding="UTF-8" standalone="no"?>
<svg
   xmlns:dc="http://purl.org/dc/elements/1.1/"
   xmlns:cc="http://creativecommons.org/ns#"
   xmlns:rdf="http://www.w3.org/1999/02/22-rdf-syntax-ns#"
   xmlns:svg="http://www.w3.org/2000/svg"
   xmlns="http://www.w3.org/2000/svg"
   xmlns:sodipodi="http://sodipodi.sourceforge.net/DTD/sodipodi-0.dtd"
   xmlns:inkscape="http://www.inkscape.org/namespaces/inkscape"
   width="27.234mm"
   height="30.184mm"
   viewBox="0 0 27.234 30.184"
   version="1.1"
   id="svg1371"
   sodipodi:docname="LCD_2D.svg"
   inkscape:version="0.92.3 (2405546, 2018-03-11)">
  <metadata
     id="metadata1377">
    <rdf:RDF>
      <cc:Work
         rdf:about="">
        <dc:format>image/svg+xml</dc:format>
        <dc:type
           rdf:resource="http://purl.org/dc/dcmitype/StillImage" />
      </cc:Work>
    </rdf:RDF>
  </metadata>
  <defs
     id="defs1375" />
  <sodipodi:namedview
     pagecolor="#ffffff"
     bordercolor="#666666"
     borderopacity="1"
     objecttolerance="10"
     gridtolerance="10"
     guidetolerance="10"
     inkscape:pageopacity="0"
     inkscape:pageshadow="2"
     inkscape:window-width="1920"
     inkscape:window-height="1080"
     id="namedview1373"
     showgrid="false"
     inkscape:zoom="11.313709"
     inkscape:cx="52.624518"
     inkscape:cy="56.0683"
     inkscape:window-x="0"
     inkscape:window-y="0"
     inkscape:window-maximized="0"
     inkscape:current-layer="svg1371" />
  <path
     inkscape:connector-curvature="0"
     style="fill:none;fill-rule:evenodd;stroke:#191919;stroke-width:0.02645833;stroke-miterlimit:4;stroke-dasharray:none"
     d="M 1.179297,13.942 H 0.887 v -0.9 h 0.279446"
     id="Shape2DView_nwe0000"
     sodipodi:nodetypes="cccc" />
  <path
     inkscape:connector-curvature="0"
     style="fill:none;fill-rule:evenodd;stroke:#191919;stroke-width:0.02645833;stroke-miterlimit:4;stroke-dasharray:none"
     d="m 1.917,3.492 h -0.6 v 6.5 h 0.6"
     id="Shape2DView_nwe0050"
     sodipodi:nodetypes="cccc" />
  <path
     inkscape:connector-curvature="0"
     style="fill:none;fill-rule:evenodd;stroke:#191919;stroke-width:0.02645833;stroke-miterlimit:4;stroke-dasharray:none"
     d="m 2.917,12.992 v -0.5 h -1 l 0,-10.5 h 23.655796"
     id="Shape2DView_nwe0059"
     sodipodi:nodetypes="ccccc" />
  <path
     inkscape:connector-curvature="0"
     style="fill:none;fill-rule:evenodd;stroke:#191919;stroke-width:0.02645833;stroke-miterlimit:4;stroke-dasharray:none"
     d="m 25.617,12.992 h -23.7 v 0.6 h 23.7 z"
     id="Shape2DView_nwe0066"
     sodipodi:nodetypes="ccccc" />
  <path
     inkscape:connector-curvature="0"
     style="fill:none;fill-rule:evenodd;stroke:#191919;stroke-width:0.02645833;stroke-miterlimit:4;stroke-dasharray:none"
     d="m 24.517,12.992 v -0.5 h 1.1 V 2.033729"
     id="Shape2DView_nwe0070"
     sodipodi:nodetypes="cccc" />
  <path
     inkscape:connector-curvature="0"
     style="fill:none;fill-rule:evenodd;stroke:#191919;stroke-width:0.02645833;stroke-miterlimit:4;stroke-dasharray:0.07937499,0.07937499;stroke-dashoffset:0"
     d="m 25.727282,26.130186 -1.3e-5,-4.590716 c 9.22e-4,-0.217628 -0.175044,-0.394645 -0.392698,-0.395021 h -0.4698 c -1.813705,0.02555 -1.832934,-2.701635 -0.01902,-2.701665 h 0.372863 c 0.235572,-7e-6 0.427084,-0.189881 0.429184,-0.425445 l -2e-6,-1.093653 C 25.64526,16.69538 25.458817,16.51201 25.230482,16.51321 l -1.714895,-1e-6 c -0.122667,4.4e-5 -0.222156,-0.09934 -0.222247,-0.222007 v -1.79991 c 7.8e-5,-0.24576 -0.198621,-0.445297 -0.444378,-0.446251 l -18.6364304,1e-6 C 3.9512539,14.044495 3.7393406,14.2565 3.7400002,14.517777 l 1e-7,12.993106 c -0.00237,0.284323 0.2263154,0.516672 0.5106391,0.518828 l 1.5457127,1.1e-5 c 0.2858138,-8.13e-4 0.5163974,-0.234017 0.5139874,-0.519838 v -2.963792 c -3.9e-6,-0.0832 0.067458,-0.150636 0.1506547,-0.150602 H 21.413548 c 0.121096,3.71e-4 0.218754,0.09923 0.217649,0.220317 v 2.94342 c -0.0088,0.238747 0.182916,0.436809 0.421821,0.435759 l 1.825543,-1.4e-5 c 1.022487,-0.01147 1.846121,-0.842222 1.848721,-1.864786 z"
     id="Shape2DView_nwe0079"
     sodipodi:nodetypes="ccccccccccccccccccccccccccc" />
  <path
     inkscape:connector-curvature="0"
     style="fill:none;fill-rule:evenodd;stroke:#191919;stroke-width:0.02645833;stroke-miterlimit:4;stroke-dasharray:none"
     d="m 14.717,27.092 v -0.6 c 0,-0.05523 -0.04477,-0.1 -0.1,-0.1 h -2.7 c -0.05523,0 -0.1,0.04477 -0.1,0.1 v 0.6 c 0,0.05523 0.04477,0.1 0.1,0.1 h 2.7 c 0.05523,0 0.1,-0.04477 0.1,-0.1 z"
     id="Shape2DView_nwe0110"
     sodipodi:nodetypes="ccccccccc" />
  <circle
     id="circle1255"
     style="fill:none;stroke:#191919;stroke-width:0.02645833;stroke-miterlimit:4;stroke-dasharray:none"
     r="0.5"
     cy="-19.792"
     cx="24.816999"
     transform="scale(1,-1)" />
  <path
     inkscape:connector-curvature="0"
     style="fill:none;fill-rule:evenodd;stroke:#191919;stroke-width:0.02645833;stroke-miterlimit:4;stroke-dasharray:none"
     d="m 7.217,25.692 v 0.6 h 13.5 v -0.6 z"
     id="Shape2DView_nwe0113"
     sodipodi:nodetypes="ccccc" />
  <circle
     id="circle1261"
     style="fill:none;stroke:#191919;stroke-width:0.02645833;stroke-miterlimit:4;stroke-dasharray:none"
     r="0.5"
     cy="-19.792"
     cx="2.9170003"
     transform="scale(1,-1)" />
  <path
     inkscape:connector-curvature="0"
     style="fill:none;fill-rule:evenodd;stroke:#191919;stroke-width:0.02645833;stroke-miterlimit:4;stroke-dasharray:none"
     d="m 14.817,13.592 v -0.3 h -1.7 v 0.3"
     id="Shape2DView_nwe0118"
     sodipodi:nodetypes="cccc" />
  <path
     inkscape:connector-curvature="0"
     style="fill:none;fill-rule:evenodd;stroke:#191919;stroke-width:0.02645833;stroke-miterlimit:4;stroke-dasharray:none"
     d="M 14.817,14.045042 V 14.792 h -1.7 v -0.746958"
     id="Shape2DView_nwe0119"
     sodipodi:nodetypes="cccc" />
  <path
     inkscape:connector-curvature="0"
     style="fill:none;fill-rule:evenodd;stroke:#191919;stroke-width:0.02645833;stroke-miterlimit:4;stroke-dasharray:none"
     d="m 2.917,12.792 h 21.6"
     id="Shape2DView_nwe0126" />
  <path
     inkscape:connector-curvature="0"
     style="fill:none;fill-rule:evenodd;stroke:#191919;stroke-width:0.02645833;stroke-miterlimit:4;stroke-dasharray:0.07937499,0.07937499;stroke-dashoffset:0"
     d="m 1.317,5.092 h 0.6"
     id="Shape2DView_nwe0128" />
  <path
     inkscape:connector-curvature="0"
     style="fill:none;fill-rule:evenodd;stroke:#191919;stroke-width:0.02645833;stroke-miterlimit:4;stroke-dasharray:none"
     d="M 0.667,12.162679 V 4.267 c 0,-1.7120827 1.3879173,-3.1 3.1,-3.1 h 1.7"
     id="Shape2DView_nwe0130"
     sodipodi:nodetypes="cccc" />
  <path
     inkscape:connector-curvature="0"
     style="fill:none;fill-rule:evenodd;stroke:#191919;stroke-width:0.02645833;stroke-miterlimit:4;stroke-dasharray:none"
     d="m 7.317,1.217 v -0.3 h -1.08 v 0.3"
     id="Shape2DView_nwe0136"
     sodipodi:nodetypes="cccc" />
  <path
     inkscape:connector-curvature="0"
     style="fill:none;fill-rule:evenodd;stroke:#191919;stroke-width:0.02645833;stroke-miterlimit:4;stroke-dasharray:none"
     d="m 8.067,1.167 h 11.55"
     id="Shape2DView_nwe0138"
     sodipodi:nodetypes="cc" />
  <path
     inkscape:connector-curvature="0"
     style="fill:none;fill-rule:evenodd;stroke:#191919;stroke-width:0.02645833;stroke-miterlimit:4;stroke-dasharray:none"
     d="m 20.337,1.217 v -0.3 h 1.08 v 0.3"
     id="Shape2DView_nwe0145"
     sodipodi:nodetypes="cccc" />
  <path
     inkscape:connector-curvature="0"
     style="fill:none;fill-rule:evenodd;stroke:#191919;stroke-width:0.02645833;stroke-miterlimit:4;stroke-dasharray:none"
     d="M 0.670425,26.062679 A 3.1,3.1 0 0 0 3.767,29.017"
     id="Shape2DView_nwe0148" />
  <path
     inkscape:connector-curvature="0"
     style="fill:none;fill-rule:evenodd;stroke:#191919;stroke-width:0.02645833;stroke-miterlimit:4;stroke-dasharray:none"
     d="m 3.767,29.017 h 1.7"
     id="Shape2DView_nwe0149" />
  <path
     inkscape:connector-curvature="0"
     style="fill:none;fill-rule:evenodd;stroke:#191919;stroke-width:0.02645833;stroke-miterlimit:4;stroke-dasharray:none"
     d="m 6.237,28.967 v 0.3 h 1.08 v -0.3"
     id="Shape2DView_nwe0156"
     sodipodi:nodetypes="cccc" />
  <path
     inkscape:connector-curvature="0"
     style="fill:none;fill-rule:evenodd;stroke:#191919;stroke-width:0.02645833;stroke-miterlimit:4;stroke-dasharray:none"
     d="m 8.067,29.017 11.55,0"
     id="Shape2DView_nwe0158"
     sodipodi:nodetypes="cc" />
  <path
     inkscape:connector-curvature="0"
     style="fill:none;fill-rule:evenodd;stroke:#191919;stroke-width:0.02645833;stroke-miterlimit:4;stroke-dasharray:none"
     d="m 21.417,28.967 v 0.3 h -1.08 v -0.3"
     id="Shape2DView_nwe0164"
     sodipodi:nodetypes="cccc" />
  <path
     inkscape:connector-curvature="0"
     style="fill:none;fill-rule:evenodd;stroke:#191919;stroke-width:0.02645833;stroke-miterlimit:4;stroke-dasharray:none"
     d="m 22.217,29.017 1.25,0 c 1.712083,0 3.1,-1.387917 3.1,-3.1 V 14.692"
     id="Shape2DView_nwe0168"
     sodipodi:nodetypes="cccc" />
  <path
     inkscape:connector-curvature="0"
     style="fill:none;fill-rule:evenodd;stroke:#191919;stroke-width:0.02645833;stroke-miterlimit:4;stroke-dasharray:none"
     d="M 26.567,12.092 V 4.267 c 0,-1.7120827 -1.387917,-3.1 -3.1,-3.1 h -1.25"
     id="Shape2DView_nwe0172"
     sodipodi:nodetypes="cccc" />
  <circle
     id="circle1322"
     style="fill:none;stroke:#191919;stroke-width:0.02645833;stroke-miterlimit:4;stroke-dasharray:0.07937499,0.07937499;stroke-dashoffset:0"
     r="0.5"
     cy="-15.092"
     cx="24.617001"
     transform="scale(1,-1)" />
  <circle
     id="circle1324"
     style="fill:none;stroke:#191919;stroke-width:0.02645833;stroke-miterlimit:4;stroke-dasharray:0.07937499,0.07937499;stroke-dashoffset:0"
     r="0.5"
     cy="-15.092"
     cx="2.6170001"
     transform="scale(1,-1)" />
  <path
     inkscape:connector-curvature="0"
     style="fill:none;fill-rule:evenodd;stroke:#191919;stroke-width:0.02645833;stroke-miterlimit:4;stroke-dasharray:none"
     d="m 23.467,0.767 h -1.25 v 0.45 h -2.6 V 0.767 H 8.067 v 0.45 h -2.6 v -0.45 h -1.7 c -1.9329966,0 -3.5,1.5670034 -3.5,3.5 v 7.895679 h 0.727972 c 0.088744,2.37e-4 0.1607063,0.07197 0.16122,0.16071 l 0.032852,2.301278 0.5883655,1.614431 c 0.039139,0.09836 0.1340753,0.163117 0.2399405,0.163664 H 2.1839 c 0.162373,-0.002 0.2956035,0.128055 0.2976195,0.290428 l 1.95e-5,2.157792 c 0.00481,0.12788 -0.095146,0.23531 -0.2230425,0.23981 H 1.350224 c -0.085346,-1.15e-4 -0.15495,0.0683 -0.15632,0.153606 v 2.250871 l 0.6100775,1.673929 c 0.030215,0.09185 0.1157605,0.154097 0.2124425,0.154574 H 2.30828 c 0.13056,-0.0037 0.238975,0.09999 0.2410025,0.230585 l -1.75e-5,2.212158 c 0.00194,0.160754 -0.1261313,0.292974 -0.286878,0.296174 l -1.992354,-10e-6 C 0.34813073,27.937384 1.8906687,29.417 3.767,29.417 h 1.7 v -0.45 h 2.6 v 0.45 h 11.55 v -0.45 h 2.6 v 0.45 h 1.25 c 1.932997,0 3.5,-1.567003 3.5,-3.5 V 14.692 h -0.45 v -2.6 h 0.45 V 4.267 c 0,-1.9329966 -1.567003,-3.5 -3.5,-3.5"
     id="Shape2DView_nwe0179"
     sodipodi:nodetypes="cccccccccccccccccccccccccccccccccccccccccccccccc" />
  <path
     inkscape:connector-curvature="0"
     style="fill:none;fill-rule:evenodd;stroke:#191919;stroke-width:0.02645833;stroke-miterlimit:4;stroke-dasharray:0.07937499,0.07937499;stroke-dashoffset:0"
     d="m 12.017,1.167 v -0.4"
     id="Shape2DView_nwe0196" />
  <path
     inkscape:connector-curvature="0"
     style="fill:none;fill-rule:evenodd;stroke:#191919;stroke-width:0.02645833;stroke-miterlimit:4;stroke-dasharray:none"
     d="M 15.217,0.76943932 V 0.267 h -2.9 c 0,0.16747977 0,0.33495954 0,0.50243932"
     id="Shape2DView_nwe0200"
     sodipodi:nodetypes="cccc" />
  <path
     inkscape:connector-curvature="0"
     style="fill:none;fill-rule:evenodd;stroke:#191919;stroke-width:0.02645833;stroke-miterlimit:4;stroke-dasharray:0.07937499,0.07937499;stroke-dashoffset:0"
     d="m 15.517,1.167 v -0.4"
     id="Shape2DView_nwe0203" />
  <path
     inkscape:connector-curvature="0"
     style="fill:none;fill-rule:evenodd;stroke:#191919;stroke-width:0.02645833;stroke-miterlimit:4;stroke-dasharray:0.07937499,0.07937499;stroke-dashoffset:0"
     d="m 12.017,29.417 v -0.4"
     id="Shape2DView_nwe0206" />
  <path
     inkscape:connector-curvature="0"
     style="fill:none;fill-rule:evenodd;stroke:#191919;stroke-width:0.02645833;stroke-miterlimit:4;stroke-dasharray:0.07937499,0.07937499;stroke-dashoffset:0"
     d="m 15.217,29.417 v -0.4"
     id="Shape2DView_nwe0207" />
  <path
     inkscape:connector-curvature="0"
     style="fill:none;fill-rule:evenodd;stroke:#191919;stroke-width:0.02645833;stroke-miterlimit:4;stroke-dasharray:0.07937499,0.07937499;stroke-dashoffset:0"
     d="m 12.317,29.417 v -0.4"
     id="Shape2DView_nwe0208" />
  <path
     inkscape:connector-curvature="0"
     style="fill:none;fill-rule:evenodd;stroke:#191919;stroke-width:0.02645833;stroke-miterlimit:4;stroke-dasharray:0.07937499,0.07937499;stroke-dashoffset:0"
     d="m 15.517,29.417 v -0.4"
     id="Shape2DView_nwe0210" />
  <path
     inkscape:connector-curvature="0"
     style="fill:none;fill-rule:evenodd;stroke:#191919;stroke-width:0.02645833;stroke-miterlimit:4;stroke-dasharray:none"
     d="m 12.317,29.417 v 0.5 h 2.9 v -0.5"
     id="Shape2DView_nwe0213"
     sodipodi:nodetypes="cccc" />
  <path
     inkscape:connector-curvature="0"
     style="fill:none;fill-rule:evenodd;stroke:#191919;stroke-width:0.02645833;stroke-miterlimit:4;stroke-dasharray:none"
     d="m 1.187,19.892 -0.3,0 v 0.9 h 0.3"
     id="Shape2DView_nwe0218"
     sodipodi:nodetypes="cccc" />
  <path
     inkscape:connector-curvature="0"
     style="fill:none;fill-rule:evenodd;stroke:#191919;stroke-width:0.02645833;stroke-miterlimit:4;stroke-dasharray:none"
     d="m 1.187,20.792 v -0.9"
     id="Shape2DView_nwe0219" />
  <path
     inkscape:connector-curvature="0"
     style="fill:none;fill-rule:evenodd;stroke:#191919;stroke-width:0.02645833;stroke-miterlimit:4;stroke-dasharray:0.07937499,0.07937499;stroke-dashoffset:0"
     d="M 12.317,1.1694394 V 0.76943932"
     id="Shape2DView_nwe0196-3" />
  <path
     inkscape:connector-curvature="0"
     style="fill:none;fill-rule:evenodd;stroke:#191919;stroke-width:0.02645833;stroke-miterlimit:4;stroke-dasharray:0.07937499,0.07937499;stroke-dashoffset:0"
     d="M 15.217,1.1694394 V 0.76943932"
     id="Shape2DView_nwe0196-3-6" />
  <path
     inkscape:connector-curvature="0"
     style="fill:none;fill-rule:evenodd;stroke:#191919;stroke-width:0.02645833;stroke-miterlimit:4;stroke-dasharray:none"
     d="m 26.515039,12.852 h 0.3 v 1.08 h -0.3"
     id="Shape2DView_nwe0145-7"
     sodipodi:nodetypes="cccc" />
</svg>
