G04 #@! TF.FileFunction,Soldermask,Top*
%FSLAX46Y46*%
G04 Gerber Fmt 4.6, Leading zero omitted, Abs format (unit mm)*
G04 Created by KiCad (PCBNEW 4.0.5+dfsg1-4) date Sat Mar 31 12:22:37 2018*
%MOMM*%
%LPD*%
G01*
G04 APERTURE LIST*
%ADD10C,0.100000*%
%ADD11R,0.410000X1.850000*%
%ADD12R,0.400000X0.800000*%
%ADD13R,0.450000X0.400000*%
%ADD14R,0.400000X0.450000*%
%ADD15R,0.380000X0.530000*%
%ADD16R,1.050000X0.950000*%
%ADD17R,1.100000X4.100000*%
%ADD18R,0.700000X0.600000*%
%ADD19R,1.085000X1.850000*%
%ADD20O,0.900000X0.350000*%
%ADD21O,0.350000X0.900000*%
%ADD22R,4.350000X4.350000*%
%ADD23O,1.300000X2.800000*%
%ADD24C,1.100000*%
%ADD25C,1.300000*%
%ADD26C,1.624000*%
G04 APERTURE END LIST*
D10*
D11*
X99200000Y-70200000D03*
X99800000Y-70200000D03*
X100400000Y-70200000D03*
X101000000Y-70200000D03*
X101600000Y-70200000D03*
X102200000Y-70200000D03*
X102800000Y-70200000D03*
X103400000Y-70200000D03*
X104000000Y-70200000D03*
X104600000Y-70200000D03*
X105200000Y-70200000D03*
X105800000Y-70200000D03*
X106400000Y-70200000D03*
X107000000Y-70200000D03*
X107600000Y-70200000D03*
X108200000Y-70200000D03*
X108800000Y-70200000D03*
X109400000Y-70200000D03*
X110000000Y-70200000D03*
X110600000Y-70200000D03*
X111200000Y-70200000D03*
X111800000Y-70200000D03*
X112400000Y-70200000D03*
X113000000Y-70200000D03*
X113600000Y-70200000D03*
X114200000Y-70200000D03*
X114800000Y-70200000D03*
X115400000Y-70200000D03*
X116000000Y-70200000D03*
X116600000Y-70200000D03*
X117200000Y-70200000D03*
X117800000Y-70200000D03*
X118400000Y-70200000D03*
X119000000Y-70200000D03*
X119600000Y-70200000D03*
D12*
X99973200Y-78780000D03*
X100613200Y-78780000D03*
X101253200Y-78780000D03*
X101253200Y-77530000D03*
X100613200Y-77530000D03*
X99973200Y-77530000D03*
D13*
X98479600Y-74996000D03*
X98479600Y-74436000D03*
D14*
X100613200Y-73039600D03*
X100053200Y-73039600D03*
D15*
X101273600Y-80050000D03*
X100753600Y-80050000D03*
X113993000Y-76240000D03*
X114513000Y-76240000D03*
X113993000Y-75224000D03*
X114513000Y-75224000D03*
D16*
X101070400Y-74157200D03*
X99620400Y-74157200D03*
X99620400Y-75307200D03*
X101070400Y-75307200D03*
D17*
X102950000Y-63540000D03*
X115250000Y-63540000D03*
D18*
X114973000Y-79669000D03*
X116073000Y-79669000D03*
D19*
X103300000Y-83800000D03*
X104800000Y-83800000D03*
X106300000Y-83800000D03*
X107800000Y-83800000D03*
X109300000Y-83800000D03*
X110800000Y-83800000D03*
X112300000Y-83800000D03*
X113800000Y-83800000D03*
X115300000Y-83800000D03*
D20*
X112075000Y-80750000D03*
X112075000Y-80250000D03*
X112075000Y-79750000D03*
X112075000Y-79250000D03*
X112075000Y-78750000D03*
X112075000Y-78250000D03*
X112075000Y-77750000D03*
X112075000Y-77250000D03*
X112075000Y-76750000D03*
X112075000Y-76250000D03*
X112075000Y-75750000D03*
X112075000Y-75250000D03*
X112075000Y-74750000D03*
X112075000Y-74250000D03*
X112075000Y-73750000D03*
X112075000Y-73250000D03*
D21*
X111350000Y-72525000D03*
X110850000Y-72525000D03*
X110350000Y-72525000D03*
X109850000Y-72525000D03*
X109350000Y-72525000D03*
X108850000Y-72525000D03*
X108350000Y-72525000D03*
X107850000Y-72525000D03*
X107350000Y-72525000D03*
X106850000Y-72525000D03*
X106350000Y-72525000D03*
X105850000Y-72525000D03*
X105350000Y-72525000D03*
X104850000Y-72525000D03*
X104350000Y-72525000D03*
X103850000Y-72525000D03*
D20*
X103125000Y-73250000D03*
X103125000Y-73750000D03*
X103125000Y-74250000D03*
X103125000Y-74750000D03*
X103125000Y-75250000D03*
X103125000Y-75750000D03*
X103125000Y-76250000D03*
X103125000Y-76750000D03*
X103125000Y-77250000D03*
X103125000Y-77750000D03*
X103125000Y-78250000D03*
X103125000Y-78750000D03*
X103125000Y-79250000D03*
X103125000Y-79750000D03*
X103125000Y-80250000D03*
X103125000Y-80750000D03*
D21*
X103850000Y-81475000D03*
X104350000Y-81475000D03*
X104850000Y-81475000D03*
X105350000Y-81475000D03*
X105850000Y-81475000D03*
X106350000Y-81475000D03*
X106850000Y-81475000D03*
X107350000Y-81475000D03*
X107850000Y-81475000D03*
X108350000Y-81475000D03*
X108850000Y-81475000D03*
X109350000Y-81475000D03*
X109850000Y-81475000D03*
X110350000Y-81475000D03*
X110850000Y-81475000D03*
X111350000Y-81475000D03*
D22*
X107600000Y-77000000D03*
D23*
X121800000Y-82600000D03*
X121800000Y-75100000D03*
D24*
X116900000Y-59100000D03*
D25*
X120500000Y-72600000D03*
X98200000Y-72600000D03*
D24*
X101900000Y-59100000D03*
D26*
X99600000Y-84400000D03*
X97870000Y-82400000D03*
X118600000Y-84400000D03*
M02*
