G04 #@! TF.FileFunction,Copper,L1,Top,Signal*
%FSLAX46Y46*%
G04 Gerber Fmt 4.6, Leading zero omitted, Abs format (unit mm)*
G04 Created by KiCad (PCBNEW 4.0.5+dfsg1-4) date Sat Mar 31 12:22:37 2018*
%MOMM*%
%LPD*%
G01*
G04 APERTURE LIST*
%ADD10C,0.100000*%
%ADD11R,0.310000X1.750000*%
%ADD12R,0.300000X0.700000*%
%ADD13R,0.350000X0.300000*%
%ADD14R,0.300000X0.350000*%
%ADD15R,0.280000X0.430000*%
%ADD16R,0.950000X0.850000*%
%ADD17R,1.000000X4.000000*%
%ADD18R,0.600000X0.500000*%
%ADD19R,0.985000X1.750000*%
%ADD20O,0.800000X0.250000*%
%ADD21O,0.250000X0.800000*%
%ADD22R,4.250000X4.250000*%
%ADD23O,1.200000X2.700000*%
%ADD24C,1.524000*%
%ADD25C,0.600000*%
%ADD26C,0.177800*%
%ADD27C,0.254000*%
G04 APERTURE END LIST*
D10*
D11*
X99200000Y-70200000D03*
X99800000Y-70200000D03*
X100400000Y-70200000D03*
X101000000Y-70200000D03*
X101600000Y-70200000D03*
X102200000Y-70200000D03*
X102800000Y-70200000D03*
X103400000Y-70200000D03*
X104000000Y-70200000D03*
X104600000Y-70200000D03*
X105200000Y-70200000D03*
X105800000Y-70200000D03*
X106400000Y-70200000D03*
X107000000Y-70200000D03*
X107600000Y-70200000D03*
X108200000Y-70200000D03*
X108800000Y-70200000D03*
X109400000Y-70200000D03*
X110000000Y-70200000D03*
X110600000Y-70200000D03*
X111200000Y-70200000D03*
X111800000Y-70200000D03*
X112400000Y-70200000D03*
X113000000Y-70200000D03*
X113600000Y-70200000D03*
X114200000Y-70200000D03*
X114800000Y-70200000D03*
X115400000Y-70200000D03*
X116000000Y-70200000D03*
X116600000Y-70200000D03*
X117200000Y-70200000D03*
X117800000Y-70200000D03*
X118400000Y-70200000D03*
X119000000Y-70200000D03*
X119600000Y-70200000D03*
D12*
X99973200Y-78780000D03*
X100613200Y-78780000D03*
X101253200Y-78780000D03*
X101253200Y-77530000D03*
X100613200Y-77530000D03*
X99973200Y-77530000D03*
D13*
X98479600Y-74996000D03*
X98479600Y-74436000D03*
D14*
X100613200Y-73039600D03*
X100053200Y-73039600D03*
D15*
X101273600Y-80050000D03*
X100753600Y-80050000D03*
X113993000Y-76240000D03*
X114513000Y-76240000D03*
X113993000Y-75224000D03*
X114513000Y-75224000D03*
D16*
X101070400Y-74157200D03*
X99620400Y-74157200D03*
X99620400Y-75307200D03*
X101070400Y-75307200D03*
D17*
X102950000Y-63540000D03*
X115250000Y-63540000D03*
D18*
X114973000Y-79669000D03*
X116073000Y-79669000D03*
D19*
X103300000Y-83800000D03*
X104800000Y-83800000D03*
X106300000Y-83800000D03*
X107800000Y-83800000D03*
X109300000Y-83800000D03*
X110800000Y-83800000D03*
X112300000Y-83800000D03*
X113800000Y-83800000D03*
X115300000Y-83800000D03*
D20*
X112075000Y-80750000D03*
X112075000Y-80250000D03*
X112075000Y-79750000D03*
X112075000Y-79250000D03*
X112075000Y-78750000D03*
X112075000Y-78250000D03*
X112075000Y-77750000D03*
X112075000Y-77250000D03*
X112075000Y-76750000D03*
X112075000Y-76250000D03*
X112075000Y-75750000D03*
X112075000Y-75250000D03*
X112075000Y-74750000D03*
X112075000Y-74250000D03*
X112075000Y-73750000D03*
X112075000Y-73250000D03*
D21*
X111350000Y-72525000D03*
X110850000Y-72525000D03*
X110350000Y-72525000D03*
X109850000Y-72525000D03*
X109350000Y-72525000D03*
X108850000Y-72525000D03*
X108350000Y-72525000D03*
X107850000Y-72525000D03*
X107350000Y-72525000D03*
X106850000Y-72525000D03*
X106350000Y-72525000D03*
X105850000Y-72525000D03*
X105350000Y-72525000D03*
X104850000Y-72525000D03*
X104350000Y-72525000D03*
X103850000Y-72525000D03*
D20*
X103125000Y-73250000D03*
X103125000Y-73750000D03*
X103125000Y-74250000D03*
X103125000Y-74750000D03*
X103125000Y-75250000D03*
X103125000Y-75750000D03*
X103125000Y-76250000D03*
X103125000Y-76750000D03*
X103125000Y-77250000D03*
X103125000Y-77750000D03*
X103125000Y-78250000D03*
X103125000Y-78750000D03*
X103125000Y-79250000D03*
X103125000Y-79750000D03*
X103125000Y-80250000D03*
X103125000Y-80750000D03*
D21*
X103850000Y-81475000D03*
X104350000Y-81475000D03*
X104850000Y-81475000D03*
X105350000Y-81475000D03*
X105850000Y-81475000D03*
X106350000Y-81475000D03*
X106850000Y-81475000D03*
X107350000Y-81475000D03*
X107850000Y-81475000D03*
X108350000Y-81475000D03*
X108850000Y-81475000D03*
X109350000Y-81475000D03*
X109850000Y-81475000D03*
X110350000Y-81475000D03*
X110850000Y-81475000D03*
X111350000Y-81475000D03*
D22*
X107600000Y-77000000D03*
D23*
X121800000Y-82600000D03*
X121800000Y-75100000D03*
D24*
X99600000Y-84400000D03*
X97870000Y-82400000D03*
X118600000Y-84400000D03*
D25*
X116793000Y-81320000D03*
X107268000Y-66715000D03*
X102696000Y-66334000D03*
X101426000Y-83098000D03*
X98632000Y-66715000D03*
X111459000Y-67604000D03*
X99775000Y-80050000D03*
X106125000Y-77637000D03*
X106760000Y-75351000D03*
X115142000Y-67477000D03*
X116031000Y-77002000D03*
X98759000Y-76875000D03*
X100156000Y-72049000D03*
X101870519Y-75085707D03*
X115269000Y-74135200D03*
X115269000Y-72430000D03*
X107600000Y-77000000D03*
X108919000Y-80010000D03*
X107395000Y-73954000D03*
X105283300Y-80100800D03*
X110570000Y-80177000D03*
X107072454Y-80214286D03*
X101426000Y-81701000D03*
X104753400Y-79516600D03*
X118970552Y-67335422D03*
X118974981Y-76489728D03*
X118358989Y-67816011D03*
X118063000Y-77129000D03*
X117809000Y-68366000D03*
X117301000Y-77750000D03*
X101299000Y-64810000D03*
X99013000Y-78399000D03*
X104093000Y-76821200D03*
X104093000Y-75732000D03*
X104474000Y-78526000D03*
X109681000Y-80304000D03*
D26*
X102200000Y-70200000D02*
X102200000Y-72296092D01*
X102200000Y-72296092D02*
X101959390Y-72536702D01*
X101959390Y-72536702D02*
X101959390Y-73665098D01*
X101959390Y-73665098D02*
X102544292Y-74250000D01*
X102544292Y-74250000D02*
X103125000Y-74250000D01*
X102315000Y-72684000D02*
X102315000Y-73517800D01*
X102315000Y-73517800D02*
X102547200Y-73750000D01*
X102547200Y-73750000D02*
X103125000Y-73750000D01*
X102800000Y-72199000D02*
X102315000Y-72684000D01*
X102800000Y-70200000D02*
X102800000Y-72199000D01*
X103400000Y-70200000D02*
X103400000Y-72975000D01*
X103400000Y-72975000D02*
X103125000Y-73250000D01*
X104000000Y-70200000D02*
X104000000Y-71507000D01*
X103850000Y-71657000D02*
X103850000Y-72525000D01*
X104000000Y-71507000D02*
X103850000Y-71657000D01*
X104600000Y-70200000D02*
X104600000Y-71415000D01*
X104350000Y-71665000D02*
X104350000Y-72525000D01*
X104600000Y-71415000D02*
X104350000Y-71665000D01*
X105200000Y-70200000D02*
X105200000Y-71317898D01*
X104850000Y-71667898D02*
X104850000Y-72525000D01*
X105200000Y-71317898D02*
X104850000Y-71667898D01*
X105800000Y-70200000D02*
X105800000Y-71220796D01*
X105350000Y-71670796D02*
X105350000Y-72525000D01*
X105800000Y-71220796D02*
X105350000Y-71670796D01*
X106400000Y-70200000D02*
X106400000Y-71123694D01*
X105850000Y-71673694D02*
X105850000Y-72525000D01*
X106400000Y-71123694D02*
X105850000Y-71673694D01*
X107000000Y-70200000D02*
X107000000Y-71026592D01*
X107000000Y-71026592D02*
X106350000Y-71676592D01*
X106350000Y-71676592D02*
X106350000Y-72525000D01*
X107600000Y-70200000D02*
X107600000Y-71082000D01*
X106850000Y-71679490D02*
X106850000Y-72525000D01*
X106937745Y-71591745D02*
X106850000Y-71679490D01*
X107090255Y-71591745D02*
X106937745Y-71591745D01*
X107600000Y-71082000D02*
X107090255Y-71591745D01*
X108200000Y-70200000D02*
X108200000Y-71244000D01*
X107850000Y-71594000D02*
X107850000Y-72525000D01*
X108200000Y-71244000D02*
X107850000Y-71594000D01*
X108800000Y-70200000D02*
X108800000Y-71152000D01*
X108350000Y-71602000D02*
X108350000Y-72525000D01*
X108800000Y-71152000D02*
X108350000Y-71602000D01*
X109400000Y-70200000D02*
X109400000Y-71060000D01*
X109400000Y-71060000D02*
X108850000Y-71610000D01*
X108850000Y-71610000D02*
X108850000Y-72525000D01*
X110000000Y-70200000D02*
X110000000Y-71095000D01*
X109350000Y-71745000D02*
X109350000Y-72525000D01*
X110000000Y-71095000D02*
X109350000Y-71745000D01*
X110600000Y-70200000D02*
X110600000Y-71130000D01*
X109808000Y-71922000D02*
X109808000Y-72483000D01*
X110600000Y-71130000D02*
X109808000Y-71922000D01*
X109808000Y-72483000D02*
X109850000Y-72525000D01*
X111200000Y-70200000D02*
X111200000Y-71032898D01*
X111200000Y-71032898D02*
X110951000Y-71281898D01*
X110951000Y-71281898D02*
X110313449Y-71919449D01*
X110313449Y-71919449D02*
X110313449Y-72488449D01*
X110313449Y-72488449D02*
X110350000Y-72525000D01*
X111800000Y-70200000D02*
X111800000Y-71073000D01*
X111800000Y-71073000D02*
X111400602Y-71472398D01*
X111400602Y-71472398D02*
X111273602Y-71472398D01*
X111273602Y-71472398D02*
X110850000Y-71896000D01*
X110850000Y-71896000D02*
X110850000Y-72525000D01*
X112400000Y-70200000D02*
X112400000Y-71108000D01*
X112400000Y-71108000D02*
X111350000Y-72158000D01*
X111350000Y-72158000D02*
X111350000Y-72525000D01*
X113000000Y-70200000D02*
X113000000Y-71252800D01*
X113000000Y-71252800D02*
X112075000Y-72177800D01*
X112075000Y-72177800D02*
X112075000Y-73250000D01*
X113600000Y-70200000D02*
X113600000Y-71252800D01*
X113600000Y-71252800D02*
X113421701Y-71431099D01*
X113421701Y-71431099D02*
X113421701Y-73261299D01*
X113421701Y-73261299D02*
X112933000Y-73750000D01*
X112933000Y-73750000D02*
X112075000Y-73750000D01*
X113600000Y-70200000D02*
X113600000Y-70670000D01*
X113777311Y-73540689D02*
X113068000Y-74250000D01*
X113068000Y-74250000D02*
X112075000Y-74250000D01*
X114200000Y-70200000D02*
X114200000Y-71252800D01*
X113777311Y-71675489D02*
X113777311Y-73540689D01*
X114200000Y-71252800D02*
X113777311Y-71675489D01*
X114800000Y-70200000D02*
X114800000Y-71248000D01*
X114800000Y-71248000D02*
X114132921Y-71915079D01*
X114132921Y-71915079D02*
X114132920Y-73687988D01*
X114132920Y-73687988D02*
X113070908Y-74750000D01*
X113070908Y-74750000D02*
X112075000Y-74750000D01*
X112075000Y-75250000D02*
X113073816Y-75250000D01*
X113073816Y-75250000D02*
X114558719Y-73765097D01*
X114558719Y-73765097D02*
X114558719Y-71992189D01*
X114558719Y-71992189D02*
X115155610Y-71395298D01*
X115155610Y-71395298D02*
X115257502Y-71395298D01*
X115257502Y-71395298D02*
X115400000Y-71252800D01*
X115400000Y-71252800D02*
X115400000Y-70200000D01*
X112075000Y-76750000D02*
X114828062Y-76750000D01*
X114828062Y-76750000D02*
X116000000Y-75578062D01*
X116000000Y-75578062D02*
X116000000Y-71252800D01*
X116000000Y-71252800D02*
X116000000Y-70200000D01*
X120763562Y-82810438D02*
X120974000Y-82600000D01*
X120974000Y-82600000D02*
X121800000Y-82600000D01*
X116158000Y-82810438D02*
X120763562Y-82810438D01*
X112075000Y-80250000D02*
X113597562Y-80250000D01*
X113597562Y-80250000D02*
X116158000Y-82810438D01*
X121800000Y-81850000D02*
X121800000Y-82600000D01*
X121238000Y-75224000D02*
X121676000Y-75224000D01*
X121676000Y-75224000D02*
X121800000Y-75100000D01*
X121238000Y-77189800D02*
X121238000Y-75224000D01*
X120616264Y-82454828D02*
X120616264Y-77811536D01*
X120616264Y-77811536D02*
X121238000Y-77189800D01*
X116305298Y-82454828D02*
X120616264Y-82454828D01*
X112075000Y-79750000D02*
X113600470Y-79750000D01*
X113600470Y-79750000D02*
X116305298Y-82454828D01*
X104800000Y-83800000D02*
X104800000Y-83417500D01*
X105559201Y-82658299D02*
X106556293Y-82658299D01*
X104800000Y-83417500D02*
X105559201Y-82658299D01*
X106556293Y-82658299D02*
X106911903Y-82302689D01*
X108350000Y-81896622D02*
X108350000Y-81475000D01*
X106911903Y-82302689D02*
X107943933Y-82302689D01*
X107943933Y-82302689D02*
X108350000Y-81896622D01*
X108350000Y-81475000D02*
X108350000Y-81803961D01*
X104800000Y-84182500D02*
X104800000Y-83800000D01*
X108850000Y-81475000D02*
X108850000Y-81899530D01*
X108091231Y-82658299D02*
X107059201Y-82658299D01*
X108850000Y-81899530D02*
X108091231Y-82658299D01*
X107059201Y-82658299D02*
X106300000Y-83417500D01*
X106300000Y-83417500D02*
X106300000Y-83800000D01*
X109350000Y-82413000D02*
X109249200Y-82513800D01*
X109249200Y-82513800D02*
X109173000Y-82590000D01*
X108594139Y-82658299D02*
X109104701Y-82658299D01*
X109104701Y-82658299D02*
X109249200Y-82513800D01*
X108538000Y-83732300D02*
X108538000Y-82714438D01*
X108538000Y-82714438D02*
X108594139Y-82658299D01*
X107800000Y-83800000D02*
X108470300Y-83800000D01*
X108470300Y-83800000D02*
X108538000Y-83732300D01*
X109350000Y-81475000D02*
X109350000Y-82413000D01*
X109850000Y-81475000D02*
X109850000Y-83250000D01*
X109850000Y-83250000D02*
X109300000Y-83800000D01*
X109350000Y-83750000D02*
X109300000Y-83800000D01*
X109300000Y-83800000D02*
X109300000Y-83098000D01*
X110800000Y-83800000D02*
X110800000Y-82439000D01*
X110350000Y-81989000D02*
X110350000Y-81475000D01*
X110800000Y-82439000D02*
X110350000Y-81989000D01*
X110850000Y-81475000D02*
X110850000Y-81854000D01*
X110850000Y-81854000D02*
X112300000Y-83304000D01*
X112300000Y-83304000D02*
X112300000Y-83800000D01*
X111350000Y-81475000D02*
X112630000Y-81475000D01*
X113800000Y-82645000D02*
X113800000Y-83800000D01*
X112630000Y-81475000D02*
X113800000Y-82645000D01*
X112075000Y-80750000D02*
X113429000Y-80750000D01*
X115300000Y-82621000D02*
X115300000Y-83800000D01*
X113429000Y-80750000D02*
X115300000Y-82621000D01*
X102696000Y-66334000D02*
X106887000Y-66334000D01*
X106887000Y-66334000D02*
X107268000Y-66715000D01*
X98632000Y-66715000D02*
X102315000Y-66715000D01*
X102315000Y-66715000D02*
X102696000Y-66334000D01*
X97743000Y-74462000D02*
X97743000Y-75859000D01*
X97743000Y-75859000D02*
X98759000Y-76875000D01*
X98100800Y-74462000D02*
X97743000Y-74462000D01*
X98479600Y-74436000D02*
X98126800Y-74436000D01*
X98126800Y-74436000D02*
X98100800Y-74462000D01*
X116073000Y-79669000D02*
X116073000Y-80600000D01*
X116073000Y-80600000D02*
X116793000Y-81320000D01*
X107600000Y-78326092D02*
X107600000Y-77000000D01*
X100053200Y-73039600D02*
X100053200Y-72151800D01*
X100053200Y-72151800D02*
X100156000Y-72049000D01*
X99973200Y-77530000D02*
X99973200Y-77330000D01*
X99973200Y-77330000D02*
X99518200Y-76875000D01*
X99518200Y-76875000D02*
X99140000Y-76875000D01*
X107268000Y-66715000D02*
X110570000Y-66715000D01*
X110570000Y-66715000D02*
X111459000Y-67604000D01*
X116073000Y-77044000D02*
X116031000Y-77002000D01*
X105850000Y-82052800D02*
X105693800Y-82209000D01*
X105693800Y-82209000D02*
X104696708Y-82209000D01*
X104696708Y-82209000D02*
X104247409Y-82658299D01*
X104247409Y-82658299D02*
X101865701Y-82658299D01*
X101865701Y-82658299D02*
X101426000Y-83098000D01*
X105850000Y-81475000D02*
X105850000Y-82052800D01*
X107600000Y-78109792D02*
X107600000Y-77000000D01*
X99775000Y-80050000D02*
X100753600Y-80050000D01*
X98759000Y-76875000D02*
X99140000Y-76875000D01*
X98479600Y-74436000D02*
X98504600Y-74436000D01*
X101070400Y-75307200D02*
X101649026Y-75307200D01*
X101649026Y-75307200D02*
X101870519Y-75085707D01*
X98479600Y-74436000D02*
X99341600Y-74436000D01*
X99341600Y-74436000D02*
X99620400Y-74157200D01*
X99973200Y-77530000D02*
X100613200Y-77530000D01*
X100613200Y-78780000D02*
X100613200Y-77530000D01*
X100053200Y-73039600D02*
X100053200Y-73724400D01*
X100053200Y-73724400D02*
X99620400Y-74157200D01*
X100613200Y-78780000D02*
X100613200Y-79909600D01*
X100613200Y-79909600D02*
X100753600Y-80050000D01*
X114533000Y-75224000D02*
X114533000Y-74871200D01*
X114533000Y-74871200D02*
X115269000Y-74135200D01*
X115269000Y-74135200D02*
X115269000Y-72854264D01*
X115269000Y-72854264D02*
X115269000Y-72430000D01*
X114533000Y-76240000D02*
X114533000Y-75224000D01*
X108919000Y-80010000D02*
X108494736Y-80010000D01*
X108494736Y-80010000D02*
X108232047Y-79747311D01*
X108232047Y-79747311D02*
X107951689Y-79747311D01*
X107639155Y-80186845D02*
X107816000Y-80010000D01*
X107816000Y-80010000D02*
X107816000Y-79883000D01*
X107816000Y-79883000D02*
X107951689Y-79747311D01*
X107639155Y-80486303D02*
X107639155Y-80186845D01*
X107350000Y-80775458D02*
X107639155Y-80486303D01*
X107350000Y-81475000D02*
X107350000Y-80775458D01*
X107350000Y-73102800D02*
X107350000Y-73909000D01*
X107350000Y-73909000D02*
X107395000Y-73954000D01*
X105350000Y-81475000D02*
X105350000Y-80167500D01*
X105350000Y-80167500D02*
X105283300Y-80100800D01*
X109066200Y-73319000D02*
X109427000Y-73319000D01*
X109427000Y-73319000D02*
X109604780Y-73496780D01*
X110657658Y-73520344D02*
X110957657Y-73820343D01*
X109604780Y-73496780D02*
X110634094Y-73496780D01*
X110634094Y-73496780D02*
X110657658Y-73520344D01*
X111332000Y-75584800D02*
X111332000Y-74194686D01*
X111332000Y-74194686D02*
X110957657Y-73820343D01*
X112983000Y-75750000D02*
X113076724Y-75750000D01*
X113119200Y-75750000D02*
X113645200Y-75224000D01*
X112075000Y-75750000D02*
X112983000Y-75750000D01*
X112983000Y-75750000D02*
X113119200Y-75750000D01*
X113645200Y-75224000D02*
X113973000Y-75224000D01*
X109066200Y-73319000D02*
X108938910Y-73191710D01*
X111497200Y-75750000D02*
X111332000Y-75584800D01*
X112075000Y-75750000D02*
X111497200Y-75750000D01*
X107438910Y-73191710D02*
X107350000Y-73102800D01*
X108938910Y-73191710D02*
X107438910Y-73191710D01*
X107350000Y-73102800D02*
X107350000Y-72525000D01*
X112093000Y-75732000D02*
X112075000Y-75750000D01*
X106350000Y-81475000D02*
X106350000Y-80098022D01*
X106350000Y-80098022D02*
X107037299Y-79410723D01*
X107037299Y-79410723D02*
X107037299Y-79391701D01*
X110570000Y-79542000D02*
X110570000Y-80177000D01*
X110419701Y-79391701D02*
X110570000Y-79542000D01*
X107037299Y-79391701D02*
X110419701Y-79391701D01*
X106850000Y-81475000D02*
X106850000Y-80436740D01*
X106850000Y-80436740D02*
X107072454Y-80214286D01*
X104350000Y-81475000D02*
X104350000Y-82052800D01*
X104350000Y-82052800D02*
X104100111Y-82302689D01*
X104100111Y-82302689D02*
X101382593Y-82302689D01*
X101382593Y-82302689D02*
X100361999Y-83323283D01*
X100361999Y-83323283D02*
X100361999Y-83638001D01*
X100361999Y-83638001D02*
X99600000Y-84400000D01*
X101426000Y-81701000D02*
X101126001Y-82000999D01*
X101126001Y-82000999D02*
X100746001Y-82000999D01*
X100746001Y-82000999D02*
X100347000Y-82400000D01*
X100347000Y-82400000D02*
X97870000Y-82400000D01*
X104850000Y-81475000D02*
X104850000Y-80506218D01*
X104850000Y-80506218D02*
X104716599Y-80372817D01*
X104716599Y-80372817D02*
X104716599Y-79553401D01*
X104716599Y-79553401D02*
X104753400Y-79516600D01*
X117672971Y-67160403D02*
X116486294Y-68347080D01*
X116486294Y-68347080D02*
X100600120Y-68347080D01*
X100600120Y-68347080D02*
X99800000Y-69147200D01*
X99800000Y-69147200D02*
X99800000Y-70200000D01*
X118970552Y-67335422D02*
X118795532Y-67160402D01*
X118795532Y-67160402D02*
X117672971Y-67160403D01*
X112075000Y-78750000D02*
X118164626Y-78750000D01*
X118164626Y-78750000D02*
X118974981Y-77939645D01*
X118974981Y-77939645D02*
X118974981Y-76489728D01*
X99775000Y-70225000D02*
X99800000Y-70200000D01*
X112075000Y-78250000D02*
X112652800Y-78250000D01*
X118063000Y-77826718D02*
X118063000Y-77553264D01*
X112652800Y-78250000D02*
X112719501Y-78316701D01*
X112719501Y-78316701D02*
X117573017Y-78316701D01*
X117573017Y-78316701D02*
X118063000Y-77826718D01*
X118063000Y-77553264D02*
X118063000Y-77129000D01*
X118358989Y-67816011D02*
X118058990Y-67516012D01*
X118058990Y-67516012D02*
X117820270Y-67516012D01*
X117820270Y-67516012D02*
X116633592Y-68702690D01*
X116633592Y-68702690D02*
X100844510Y-68702690D01*
X100844510Y-68702690D02*
X100400000Y-69147200D01*
X100400000Y-69147200D02*
X100400000Y-70200000D01*
X100410000Y-70210000D02*
X100400000Y-70200000D01*
X112075000Y-77750000D02*
X117301000Y-77750000D01*
X117809000Y-68366000D02*
X117116701Y-69058299D01*
X117116701Y-69058299D02*
X101088901Y-69058299D01*
X101088901Y-69058299D02*
X101000000Y-69147200D01*
X101000000Y-69147200D02*
X101000000Y-70200000D01*
X101045000Y-70245000D02*
X101000000Y-70200000D01*
X112075000Y-76250000D02*
X113963000Y-76250000D01*
X113963000Y-76250000D02*
X113973000Y-76240000D01*
X112075000Y-77250000D02*
X114830970Y-77250000D01*
X116357299Y-71341701D02*
X119511099Y-71341701D01*
X114830970Y-77250000D02*
X116355610Y-75725360D01*
X116355610Y-75725360D02*
X116355610Y-71343390D01*
X116355610Y-71343390D02*
X116357299Y-71341701D01*
X119511099Y-71341701D02*
X119600000Y-71252800D01*
X119600000Y-71252800D02*
X119600000Y-70200000D01*
X112075000Y-79250000D02*
X112437000Y-79250000D01*
X112437000Y-79250000D02*
X112581390Y-79394390D01*
X112581390Y-79394390D02*
X114220590Y-79394390D01*
X114220590Y-79394390D02*
X114495200Y-79669000D01*
X114495200Y-79669000D02*
X114973000Y-79669000D01*
X101424000Y-76750000D02*
X101253200Y-76920800D01*
X101253200Y-76920800D02*
X101253200Y-77530000D01*
X103125000Y-76750000D02*
X101424000Y-76750000D01*
X101253200Y-78780000D02*
X101253200Y-78544000D01*
X101253200Y-78544000D02*
X102547200Y-77250000D01*
X102547200Y-77250000D02*
X103125000Y-77250000D01*
X101299000Y-64810000D02*
X102569000Y-63540000D01*
X102569000Y-63540000D02*
X102950000Y-63540000D01*
X99264400Y-78399000D02*
X99013000Y-78399000D01*
X99973200Y-78780000D02*
X99645400Y-78780000D01*
X99645400Y-78780000D02*
X99264400Y-78399000D01*
X101273600Y-80050000D02*
X101273600Y-79975000D01*
X101273600Y-79975000D02*
X102498600Y-78750000D01*
X102498600Y-78750000D02*
X102547200Y-78750000D01*
X102547200Y-78750000D02*
X103125000Y-78750000D01*
X101070400Y-74157200D02*
X101948584Y-74157200D01*
X101948584Y-74157200D02*
X102396994Y-74605610D01*
X102396994Y-74605610D02*
X102651649Y-74605610D01*
X102651649Y-74605610D02*
X102796039Y-74750000D01*
X102796039Y-74750000D02*
X103125000Y-74750000D01*
X100613200Y-73039600D02*
X100613200Y-73700000D01*
X100613200Y-73700000D02*
X101070400Y-74157200D01*
X103125000Y-75250000D02*
X102796039Y-75250000D01*
X102796039Y-75250000D02*
X102442000Y-75604039D01*
X102442000Y-75604039D02*
X102442000Y-75605000D01*
X102442000Y-75605000D02*
X102048099Y-75998901D01*
X102048099Y-75998901D02*
X100362101Y-75998901D01*
X100362101Y-75998901D02*
X99670400Y-75307200D01*
X99670400Y-75307200D02*
X99620400Y-75307200D01*
X99620400Y-75307200D02*
X98790800Y-75307200D01*
X98790800Y-75307200D02*
X98479600Y-74996000D01*
X104093000Y-76443000D02*
X104093000Y-76821200D01*
X104017000Y-76367000D02*
X103839000Y-76189000D01*
X103839000Y-76189000D02*
X103400000Y-75750000D01*
X104093000Y-75732000D02*
X103793001Y-76031999D01*
X103793001Y-76031999D02*
X103793001Y-76143001D01*
X103793001Y-76143001D02*
X103839000Y-76189000D01*
X104093000Y-78859800D02*
X104093000Y-78526000D01*
X104093000Y-78526000D02*
X104093000Y-78272000D01*
X104474000Y-78526000D02*
X104093000Y-78526000D01*
X104093000Y-78272000D02*
X104093000Y-77764000D01*
X104093000Y-77764000D02*
X104093000Y-76443000D01*
X103125000Y-77750000D02*
X103702800Y-77750000D01*
X103702800Y-77750000D02*
X103716800Y-77764000D01*
X103716800Y-77764000D02*
X104093000Y-77764000D01*
X103724800Y-78272000D02*
X104093000Y-78272000D01*
X103125000Y-78250000D02*
X103702800Y-78250000D01*
X103702800Y-78250000D02*
X103724800Y-78272000D01*
X104093000Y-76443000D02*
X104017000Y-76367000D01*
X103125000Y-76250000D02*
X103702800Y-76250000D01*
X103702800Y-76250000D02*
X103819800Y-76367000D01*
X103819800Y-76367000D02*
X104017000Y-76367000D01*
X103400000Y-75750000D02*
X103125000Y-75750000D01*
X103125000Y-79250000D02*
X103702800Y-79250000D01*
X103702800Y-79250000D02*
X104093000Y-78859800D01*
X107850000Y-81475000D02*
X107850000Y-80897200D01*
X107850000Y-80897200D02*
X107938910Y-80808290D01*
X107938910Y-80808290D02*
X109176710Y-80808290D01*
X109176710Y-80808290D02*
X109681000Y-80304000D01*
X107850000Y-81475000D02*
X107804000Y-81475000D01*
D27*
G36*
X102160060Y-84675000D02*
X102204338Y-84910317D01*
X102343410Y-85126441D01*
X102555610Y-85271431D01*
X102807500Y-85322440D01*
X103792500Y-85322440D01*
X104027817Y-85278162D01*
X104047204Y-85265687D01*
X104055610Y-85271431D01*
X104307500Y-85322440D01*
X105292500Y-85322440D01*
X105527817Y-85278162D01*
X105547204Y-85265687D01*
X105555610Y-85271431D01*
X105807500Y-85322440D01*
X106792500Y-85322440D01*
X107027817Y-85278162D01*
X107047204Y-85265687D01*
X107055610Y-85271431D01*
X107307500Y-85322440D01*
X108292500Y-85322440D01*
X108527817Y-85278162D01*
X108547204Y-85265687D01*
X108555610Y-85271431D01*
X108807500Y-85322440D01*
X109792500Y-85322440D01*
X110027817Y-85278162D01*
X110047204Y-85265687D01*
X110055610Y-85271431D01*
X110307500Y-85322440D01*
X111292500Y-85322440D01*
X111527817Y-85278162D01*
X111547204Y-85265687D01*
X111555610Y-85271431D01*
X111807500Y-85322440D01*
X112792500Y-85322440D01*
X113027817Y-85278162D01*
X113047204Y-85265687D01*
X113055610Y-85271431D01*
X113307500Y-85322440D01*
X114292500Y-85322440D01*
X114527817Y-85278162D01*
X114547204Y-85265687D01*
X114555610Y-85271431D01*
X114807500Y-85322440D01*
X115792500Y-85322440D01*
X116027817Y-85278162D01*
X116243941Y-85139090D01*
X116388931Y-84926890D01*
X116439940Y-84675000D01*
X116439940Y-83534338D01*
X117554730Y-83534338D01*
X117619785Y-83599393D01*
X117377603Y-83668857D01*
X117190856Y-84192302D01*
X117218638Y-84747368D01*
X117377603Y-85131143D01*
X117619787Y-85200608D01*
X118420395Y-84400000D01*
X118406253Y-84385858D01*
X118585858Y-84206253D01*
X118600000Y-84220395D01*
X118614143Y-84206253D01*
X118793748Y-84385858D01*
X118779605Y-84400000D01*
X119580213Y-85200608D01*
X119822397Y-85131143D01*
X120009144Y-84607698D01*
X119981362Y-84052632D01*
X119822397Y-83668857D01*
X119580215Y-83599393D01*
X119645270Y-83534338D01*
X120593932Y-83534338D01*
X120659009Y-83861502D01*
X120926723Y-84262165D01*
X121111000Y-84385295D01*
X121111000Y-85690000D01*
X119167935Y-85690000D01*
X119331143Y-85622397D01*
X119400608Y-85380213D01*
X118600000Y-84579605D01*
X117799392Y-85380213D01*
X117868857Y-85622397D01*
X118058346Y-85690000D01*
X100136207Y-85690000D01*
X100390303Y-85585010D01*
X100783629Y-85192370D01*
X100996757Y-84679100D01*
X100997242Y-84123339D01*
X100956878Y-84025651D01*
X101030795Y-83915026D01*
X101085899Y-83638001D01*
X101085899Y-83623133D01*
X101682443Y-83026589D01*
X102160060Y-83026589D01*
X102160060Y-84675000D01*
X102160060Y-84675000D01*
G37*
X102160060Y-84675000D02*
X102204338Y-84910317D01*
X102343410Y-85126441D01*
X102555610Y-85271431D01*
X102807500Y-85322440D01*
X103792500Y-85322440D01*
X104027817Y-85278162D01*
X104047204Y-85265687D01*
X104055610Y-85271431D01*
X104307500Y-85322440D01*
X105292500Y-85322440D01*
X105527817Y-85278162D01*
X105547204Y-85265687D01*
X105555610Y-85271431D01*
X105807500Y-85322440D01*
X106792500Y-85322440D01*
X107027817Y-85278162D01*
X107047204Y-85265687D01*
X107055610Y-85271431D01*
X107307500Y-85322440D01*
X108292500Y-85322440D01*
X108527817Y-85278162D01*
X108547204Y-85265687D01*
X108555610Y-85271431D01*
X108807500Y-85322440D01*
X109792500Y-85322440D01*
X110027817Y-85278162D01*
X110047204Y-85265687D01*
X110055610Y-85271431D01*
X110307500Y-85322440D01*
X111292500Y-85322440D01*
X111527817Y-85278162D01*
X111547204Y-85265687D01*
X111555610Y-85271431D01*
X111807500Y-85322440D01*
X112792500Y-85322440D01*
X113027817Y-85278162D01*
X113047204Y-85265687D01*
X113055610Y-85271431D01*
X113307500Y-85322440D01*
X114292500Y-85322440D01*
X114527817Y-85278162D01*
X114547204Y-85265687D01*
X114555610Y-85271431D01*
X114807500Y-85322440D01*
X115792500Y-85322440D01*
X116027817Y-85278162D01*
X116243941Y-85139090D01*
X116388931Y-84926890D01*
X116439940Y-84675000D01*
X116439940Y-83534338D01*
X117554730Y-83534338D01*
X117619785Y-83599393D01*
X117377603Y-83668857D01*
X117190856Y-84192302D01*
X117218638Y-84747368D01*
X117377603Y-85131143D01*
X117619787Y-85200608D01*
X118420395Y-84400000D01*
X118406253Y-84385858D01*
X118585858Y-84206253D01*
X118600000Y-84220395D01*
X118614143Y-84206253D01*
X118793748Y-84385858D01*
X118779605Y-84400000D01*
X119580213Y-85200608D01*
X119822397Y-85131143D01*
X120009144Y-84607698D01*
X119981362Y-84052632D01*
X119822397Y-83668857D01*
X119580215Y-83599393D01*
X119645270Y-83534338D01*
X120593932Y-83534338D01*
X120659009Y-83861502D01*
X120926723Y-84262165D01*
X121111000Y-84385295D01*
X121111000Y-85690000D01*
X119167935Y-85690000D01*
X119331143Y-85622397D01*
X119400608Y-85380213D01*
X118600000Y-84579605D01*
X117799392Y-85380213D01*
X117868857Y-85622397D01*
X118058346Y-85690000D01*
X100136207Y-85690000D01*
X100390303Y-85585010D01*
X100783629Y-85192370D01*
X100996757Y-84679100D01*
X100997242Y-84123339D01*
X100956878Y-84025651D01*
X101030795Y-83915026D01*
X101085899Y-83638001D01*
X101085899Y-83623133D01*
X101682443Y-83026589D01*
X102160060Y-83026589D01*
X102160060Y-84675000D01*
G36*
X119265215Y-72353266D02*
X119264786Y-72844579D01*
X119452408Y-73298657D01*
X119799515Y-73646371D01*
X120253266Y-73834785D01*
X120661252Y-73835141D01*
X120659009Y-73838498D01*
X120565000Y-74311112D01*
X120565000Y-74968110D01*
X120514100Y-75224000D01*
X120514100Y-76889951D01*
X120104389Y-77299661D01*
X119947468Y-77534511D01*
X119947468Y-77534512D01*
X119892363Y-77811536D01*
X119892364Y-77811541D01*
X119892364Y-81730928D01*
X116605147Y-81730928D01*
X115414108Y-80539889D01*
X115508317Y-80522162D01*
X115532406Y-80506661D01*
X115646691Y-80554000D01*
X115787250Y-80554000D01*
X115946000Y-80395250D01*
X115946000Y-79794000D01*
X116200000Y-79794000D01*
X116200000Y-80395250D01*
X116358750Y-80554000D01*
X116499309Y-80554000D01*
X116732698Y-80457327D01*
X116911327Y-80278699D01*
X117008000Y-80045310D01*
X117008000Y-79952750D01*
X116849250Y-79794000D01*
X116200000Y-79794000D01*
X115946000Y-79794000D01*
X115926000Y-79794000D01*
X115926000Y-79544000D01*
X115946000Y-79544000D01*
X115946000Y-79522000D01*
X116200000Y-79522000D01*
X116200000Y-79544000D01*
X116849250Y-79544000D01*
X116919350Y-79473900D01*
X118164621Y-79473900D01*
X118164626Y-79473901D01*
X118395689Y-79427939D01*
X118441651Y-79418796D01*
X118676501Y-79261875D01*
X119486856Y-78451520D01*
X119509035Y-78418327D01*
X119643777Y-78216670D01*
X119662613Y-78121975D01*
X119698882Y-77939645D01*
X119698881Y-77939640D01*
X119698881Y-77088228D01*
X119767173Y-77020055D01*
X119909819Y-76676527D01*
X119910143Y-76304561D01*
X119768098Y-75960785D01*
X119505308Y-75697536D01*
X119161780Y-75554890D01*
X118789814Y-75554566D01*
X118446038Y-75696611D01*
X118182789Y-75959401D01*
X118085367Y-76194019D01*
X117877833Y-76193838D01*
X117534057Y-76335883D01*
X117270808Y-76598673D01*
X117181024Y-76814895D01*
X117115833Y-76814838D01*
X116772057Y-76956883D01*
X116702719Y-77026100D01*
X116078620Y-77026100D01*
X116867482Y-76237237D01*
X116867485Y-76237235D01*
X116998712Y-76040839D01*
X117024407Y-76002384D01*
X117079511Y-75725360D01*
X117079510Y-75725355D01*
X117079510Y-72065601D01*
X119384664Y-72065601D01*
X119265215Y-72353266D01*
X119265215Y-72353266D01*
G37*
X119265215Y-72353266D02*
X119264786Y-72844579D01*
X119452408Y-73298657D01*
X119799515Y-73646371D01*
X120253266Y-73834785D01*
X120661252Y-73835141D01*
X120659009Y-73838498D01*
X120565000Y-74311112D01*
X120565000Y-74968110D01*
X120514100Y-75224000D01*
X120514100Y-76889951D01*
X120104389Y-77299661D01*
X119947468Y-77534511D01*
X119947468Y-77534512D01*
X119892363Y-77811536D01*
X119892364Y-77811541D01*
X119892364Y-81730928D01*
X116605147Y-81730928D01*
X115414108Y-80539889D01*
X115508317Y-80522162D01*
X115532406Y-80506661D01*
X115646691Y-80554000D01*
X115787250Y-80554000D01*
X115946000Y-80395250D01*
X115946000Y-79794000D01*
X116200000Y-79794000D01*
X116200000Y-80395250D01*
X116358750Y-80554000D01*
X116499309Y-80554000D01*
X116732698Y-80457327D01*
X116911327Y-80278699D01*
X117008000Y-80045310D01*
X117008000Y-79952750D01*
X116849250Y-79794000D01*
X116200000Y-79794000D01*
X115946000Y-79794000D01*
X115926000Y-79794000D01*
X115926000Y-79544000D01*
X115946000Y-79544000D01*
X115946000Y-79522000D01*
X116200000Y-79522000D01*
X116200000Y-79544000D01*
X116849250Y-79544000D01*
X116919350Y-79473900D01*
X118164621Y-79473900D01*
X118164626Y-79473901D01*
X118395689Y-79427939D01*
X118441651Y-79418796D01*
X118676501Y-79261875D01*
X119486856Y-78451520D01*
X119509035Y-78418327D01*
X119643777Y-78216670D01*
X119662613Y-78121975D01*
X119698882Y-77939645D01*
X119698881Y-77939640D01*
X119698881Y-77088228D01*
X119767173Y-77020055D01*
X119909819Y-76676527D01*
X119910143Y-76304561D01*
X119768098Y-75960785D01*
X119505308Y-75697536D01*
X119161780Y-75554890D01*
X118789814Y-75554566D01*
X118446038Y-75696611D01*
X118182789Y-75959401D01*
X118085367Y-76194019D01*
X117877833Y-76193838D01*
X117534057Y-76335883D01*
X117270808Y-76598673D01*
X117181024Y-76814895D01*
X117115833Y-76814838D01*
X116772057Y-76956883D01*
X116702719Y-77026100D01*
X116078620Y-77026100D01*
X116867482Y-76237237D01*
X116867485Y-76237235D01*
X116998712Y-76040839D01*
X117024407Y-76002384D01*
X117079511Y-75725360D01*
X117079510Y-75725355D01*
X117079510Y-72065601D01*
X119384664Y-72065601D01*
X119265215Y-72353266D01*
G36*
X97499515Y-73646371D02*
X97885803Y-73806772D01*
X97766273Y-73926302D01*
X97669600Y-74159691D01*
X97669600Y-74202250D01*
X97828350Y-74361000D01*
X97885654Y-74361000D01*
X97853159Y-74381910D01*
X97708169Y-74594110D01*
X97698756Y-74640594D01*
X97669600Y-74669750D01*
X97669600Y-74712309D01*
X97679428Y-74736036D01*
X97657160Y-74846000D01*
X97657160Y-75146000D01*
X97701438Y-75381317D01*
X97840510Y-75597441D01*
X98052710Y-75742431D01*
X98240262Y-75780411D01*
X98278923Y-75819072D01*
X98278925Y-75819075D01*
X98513775Y-75975996D01*
X98552673Y-75983733D01*
X98681310Y-76183641D01*
X98893510Y-76328631D01*
X99145400Y-76379640D01*
X99719090Y-76379640D01*
X99850226Y-76510776D01*
X99901446Y-76545000D01*
X99846198Y-76545000D01*
X99846198Y-76651748D01*
X99739450Y-76545000D01*
X99696891Y-76545000D01*
X99463502Y-76641673D01*
X99284873Y-76820301D01*
X99188200Y-77053690D01*
X99188200Y-77244250D01*
X99346948Y-77402998D01*
X99188200Y-77402998D01*
X99188200Y-77464152D01*
X98827833Y-77463838D01*
X98484057Y-77605883D01*
X98220808Y-77868673D01*
X98078162Y-78212201D01*
X98077838Y-78584167D01*
X98219883Y-78927943D01*
X98482673Y-79191192D01*
X98826201Y-79333838D01*
X99196811Y-79334161D01*
X99216673Y-79347432D01*
X99220038Y-79365317D01*
X99359110Y-79581441D01*
X99571310Y-79726431D01*
X99823200Y-79777440D01*
X99978600Y-79777440D01*
X99978600Y-79783750D01*
X100137350Y-79942500D01*
X100486160Y-79942500D01*
X100486160Y-80157500D01*
X100137350Y-80157500D01*
X99978600Y-80316250D01*
X99978600Y-80391310D01*
X100075273Y-80624699D01*
X100253902Y-80803327D01*
X100487291Y-80900000D01*
X100524850Y-80900000D01*
X100683600Y-80741250D01*
X100683600Y-80726068D01*
X100881710Y-80861431D01*
X100959542Y-80877192D01*
X100962990Y-80880640D01*
X100897057Y-80907883D01*
X100633808Y-81170673D01*
X100575536Y-81311006D01*
X100468977Y-81332202D01*
X100445334Y-81348000D01*
X100234126Y-81489124D01*
X100234124Y-81489127D01*
X100047151Y-81676100D01*
X99082447Y-81676100D01*
X99055010Y-81609697D01*
X98662370Y-81216371D01*
X98149100Y-81003243D01*
X97593339Y-81002758D01*
X97489000Y-81045870D01*
X97489000Y-73635838D01*
X97499515Y-73646371D01*
X97499515Y-73646371D01*
G37*
X97499515Y-73646371D02*
X97885803Y-73806772D01*
X97766273Y-73926302D01*
X97669600Y-74159691D01*
X97669600Y-74202250D01*
X97828350Y-74361000D01*
X97885654Y-74361000D01*
X97853159Y-74381910D01*
X97708169Y-74594110D01*
X97698756Y-74640594D01*
X97669600Y-74669750D01*
X97669600Y-74712309D01*
X97679428Y-74736036D01*
X97657160Y-74846000D01*
X97657160Y-75146000D01*
X97701438Y-75381317D01*
X97840510Y-75597441D01*
X98052710Y-75742431D01*
X98240262Y-75780411D01*
X98278923Y-75819072D01*
X98278925Y-75819075D01*
X98513775Y-75975996D01*
X98552673Y-75983733D01*
X98681310Y-76183641D01*
X98893510Y-76328631D01*
X99145400Y-76379640D01*
X99719090Y-76379640D01*
X99850226Y-76510776D01*
X99901446Y-76545000D01*
X99846198Y-76545000D01*
X99846198Y-76651748D01*
X99739450Y-76545000D01*
X99696891Y-76545000D01*
X99463502Y-76641673D01*
X99284873Y-76820301D01*
X99188200Y-77053690D01*
X99188200Y-77244250D01*
X99346948Y-77402998D01*
X99188200Y-77402998D01*
X99188200Y-77464152D01*
X98827833Y-77463838D01*
X98484057Y-77605883D01*
X98220808Y-77868673D01*
X98078162Y-78212201D01*
X98077838Y-78584167D01*
X98219883Y-78927943D01*
X98482673Y-79191192D01*
X98826201Y-79333838D01*
X99196811Y-79334161D01*
X99216673Y-79347432D01*
X99220038Y-79365317D01*
X99359110Y-79581441D01*
X99571310Y-79726431D01*
X99823200Y-79777440D01*
X99978600Y-79777440D01*
X99978600Y-79783750D01*
X100137350Y-79942500D01*
X100486160Y-79942500D01*
X100486160Y-80157500D01*
X100137350Y-80157500D01*
X99978600Y-80316250D01*
X99978600Y-80391310D01*
X100075273Y-80624699D01*
X100253902Y-80803327D01*
X100487291Y-80900000D01*
X100524850Y-80900000D01*
X100683600Y-80741250D01*
X100683600Y-80726068D01*
X100881710Y-80861431D01*
X100959542Y-80877192D01*
X100962990Y-80880640D01*
X100897057Y-80907883D01*
X100633808Y-81170673D01*
X100575536Y-81311006D01*
X100468977Y-81332202D01*
X100445334Y-81348000D01*
X100234126Y-81489124D01*
X100234124Y-81489127D01*
X100047151Y-81676100D01*
X99082447Y-81676100D01*
X99055010Y-81609697D01*
X98662370Y-81216371D01*
X98149100Y-81003243D01*
X97593339Y-81002758D01*
X97489000Y-81045870D01*
X97489000Y-73635838D01*
X97499515Y-73646371D01*
G36*
X108789175Y-73987796D02*
X109066200Y-74042900D01*
X109144156Y-74042900D01*
X109327756Y-74165577D01*
X109604780Y-74220681D01*
X109604785Y-74220680D01*
X110334245Y-74220680D01*
X110445780Y-74332215D01*
X110445782Y-74332218D01*
X110608100Y-74494536D01*
X110608100Y-75584795D01*
X110608099Y-75584800D01*
X110644109Y-75765828D01*
X110663204Y-75861825D01*
X110776910Y-76031999D01*
X110820125Y-76096675D01*
X110985325Y-76261875D01*
X111027720Y-76290202D01*
X111069452Y-76500000D01*
X111019723Y-76750000D01*
X111069452Y-77000000D01*
X111019723Y-77250000D01*
X111069452Y-77500000D01*
X111019723Y-77750000D01*
X111069452Y-78000000D01*
X111019723Y-78250000D01*
X111069452Y-78500000D01*
X111019723Y-78750000D01*
X111069452Y-79000000D01*
X111066515Y-79014765D01*
X110931576Y-78879826D01*
X110856259Y-78829501D01*
X110696726Y-78722905D01*
X110644915Y-78712599D01*
X110419701Y-78667800D01*
X110419696Y-78667801D01*
X110360000Y-78667801D01*
X110360000Y-77285750D01*
X110201250Y-77127000D01*
X107727000Y-77127000D01*
X107727000Y-77147000D01*
X107473000Y-77147000D01*
X107473000Y-77127000D01*
X107453000Y-77127000D01*
X107453000Y-76873000D01*
X107473000Y-76873000D01*
X107473000Y-76853000D01*
X107727000Y-76853000D01*
X107727000Y-76873000D01*
X110201250Y-76873000D01*
X110360000Y-76714250D01*
X110360000Y-74748690D01*
X110263327Y-74515301D01*
X110084698Y-74336673D01*
X109851309Y-74240000D01*
X108288646Y-74240000D01*
X108329838Y-74140799D01*
X108330034Y-73915610D01*
X108681140Y-73915610D01*
X108789175Y-73987796D01*
X108789175Y-73987796D01*
G37*
X108789175Y-73987796D02*
X109066200Y-74042900D01*
X109144156Y-74042900D01*
X109327756Y-74165577D01*
X109604780Y-74220681D01*
X109604785Y-74220680D01*
X110334245Y-74220680D01*
X110445780Y-74332215D01*
X110445782Y-74332218D01*
X110608100Y-74494536D01*
X110608100Y-75584795D01*
X110608099Y-75584800D01*
X110644109Y-75765828D01*
X110663204Y-75861825D01*
X110776910Y-76031999D01*
X110820125Y-76096675D01*
X110985325Y-76261875D01*
X111027720Y-76290202D01*
X111069452Y-76500000D01*
X111019723Y-76750000D01*
X111069452Y-77000000D01*
X111019723Y-77250000D01*
X111069452Y-77500000D01*
X111019723Y-77750000D01*
X111069452Y-78000000D01*
X111019723Y-78250000D01*
X111069452Y-78500000D01*
X111019723Y-78750000D01*
X111069452Y-79000000D01*
X111066515Y-79014765D01*
X110931576Y-78879826D01*
X110856259Y-78829501D01*
X110696726Y-78722905D01*
X110644915Y-78712599D01*
X110419701Y-78667800D01*
X110419696Y-78667801D01*
X110360000Y-78667801D01*
X110360000Y-77285750D01*
X110201250Y-77127000D01*
X107727000Y-77127000D01*
X107727000Y-77147000D01*
X107473000Y-77147000D01*
X107473000Y-77127000D01*
X107453000Y-77127000D01*
X107453000Y-76873000D01*
X107473000Y-76873000D01*
X107473000Y-76853000D01*
X107727000Y-76853000D01*
X107727000Y-76873000D01*
X110201250Y-76873000D01*
X110360000Y-76714250D01*
X110360000Y-74748690D01*
X110263327Y-74515301D01*
X110084698Y-74336673D01*
X109851309Y-74240000D01*
X108288646Y-74240000D01*
X108329838Y-74140799D01*
X108330034Y-73915610D01*
X108681140Y-73915610D01*
X108789175Y-73987796D01*
G36*
X99986950Y-77403000D02*
X100120200Y-77403000D01*
X100120200Y-77657000D01*
X99986950Y-77657000D01*
X99966950Y-77677000D01*
X99898200Y-77677000D01*
X99898200Y-77657000D01*
X99826200Y-77657000D01*
X99826200Y-77403000D01*
X99898200Y-77403000D01*
X99898200Y-77383000D01*
X99966950Y-77383000D01*
X99986950Y-77403000D01*
X99986950Y-77403000D01*
G37*
X99986950Y-77403000D02*
X100120200Y-77403000D01*
X100120200Y-77657000D01*
X99986950Y-77657000D01*
X99966950Y-77677000D01*
X99898200Y-77677000D01*
X99898200Y-77657000D01*
X99826200Y-77657000D01*
X99826200Y-77403000D01*
X99898200Y-77403000D01*
X99898200Y-77383000D01*
X99966950Y-77383000D01*
X99986950Y-77403000D01*
G36*
X115276100Y-74853961D02*
X115191327Y-74649301D01*
X115012698Y-74470673D01*
X114916669Y-74430897D01*
X115070594Y-74276972D01*
X115092461Y-74244245D01*
X115227515Y-74042122D01*
X115247406Y-73942123D01*
X115276100Y-73797874D01*
X115276100Y-74853961D01*
X115276100Y-74853961D01*
G37*
X115276100Y-74853961D02*
X115191327Y-74649301D01*
X115012698Y-74470673D01*
X114916669Y-74430897D01*
X115070594Y-74276972D01*
X115092461Y-74244245D01*
X115227515Y-74042122D01*
X115247406Y-73942123D01*
X115276100Y-73797874D01*
X115276100Y-74853961D01*
G36*
X99747400Y-74030200D02*
X99767400Y-74030200D01*
X99767400Y-74234760D01*
X99473400Y-74234760D01*
X99473400Y-74030200D01*
X99493400Y-74030200D01*
X99493400Y-74010200D01*
X99747400Y-74010200D01*
X99747400Y-74030200D01*
X99747400Y-74030200D01*
G37*
X99747400Y-74030200D02*
X99767400Y-74030200D01*
X99767400Y-74234760D01*
X99473400Y-74234760D01*
X99473400Y-74030200D01*
X99493400Y-74030200D01*
X99493400Y-74010200D01*
X99747400Y-74010200D01*
X99747400Y-74030200D01*
G36*
X101445000Y-71722440D02*
X101476100Y-71722440D01*
X101476100Y-71996242D01*
X101447515Y-72024827D01*
X101290594Y-72259677D01*
X101290594Y-72259678D01*
X101252325Y-72452064D01*
X101227290Y-72413159D01*
X101015090Y-72268169D01*
X100763200Y-72217160D01*
X100463200Y-72217160D01*
X100350618Y-72238344D01*
X100329509Y-72229600D01*
X100286950Y-72229600D01*
X100261423Y-72255127D01*
X100227883Y-72261438D01*
X100011759Y-72400510D01*
X99978200Y-72449625D01*
X99978200Y-72388350D01*
X99819450Y-72229600D01*
X99776891Y-72229600D01*
X99543502Y-72326273D01*
X99435145Y-72434630D01*
X99435214Y-72355421D01*
X99247592Y-71901343D01*
X99069001Y-71722440D01*
X99355000Y-71722440D01*
X99505323Y-71694155D01*
X99645000Y-71722440D01*
X99955000Y-71722440D01*
X100105323Y-71694155D01*
X100245000Y-71722440D01*
X100555000Y-71722440D01*
X100705323Y-71694155D01*
X100845000Y-71722440D01*
X101155000Y-71722440D01*
X101305323Y-71694155D01*
X101445000Y-71722440D01*
X101445000Y-71722440D01*
G37*
X101445000Y-71722440D02*
X101476100Y-71722440D01*
X101476100Y-71996242D01*
X101447515Y-72024827D01*
X101290594Y-72259677D01*
X101290594Y-72259678D01*
X101252325Y-72452064D01*
X101227290Y-72413159D01*
X101015090Y-72268169D01*
X100763200Y-72217160D01*
X100463200Y-72217160D01*
X100350618Y-72238344D01*
X100329509Y-72229600D01*
X100286950Y-72229600D01*
X100261423Y-72255127D01*
X100227883Y-72261438D01*
X100011759Y-72400510D01*
X99978200Y-72449625D01*
X99978200Y-72388350D01*
X99819450Y-72229600D01*
X99776891Y-72229600D01*
X99543502Y-72326273D01*
X99435145Y-72434630D01*
X99435214Y-72355421D01*
X99247592Y-71901343D01*
X99069001Y-71722440D01*
X99355000Y-71722440D01*
X99505323Y-71694155D01*
X99645000Y-71722440D01*
X99955000Y-71722440D01*
X100105323Y-71694155D01*
X100245000Y-71722440D01*
X100555000Y-71722440D01*
X100705323Y-71694155D01*
X100845000Y-71722440D01*
X101155000Y-71722440D01*
X101305323Y-71694155D01*
X101445000Y-71722440D01*
G36*
X102198110Y-66136431D02*
X102450000Y-66187440D01*
X103450000Y-66187440D01*
X103685317Y-66143162D01*
X103783474Y-66080000D01*
X114415520Y-66080000D01*
X114498110Y-66136431D01*
X114750000Y-66187440D01*
X115750000Y-66187440D01*
X115985317Y-66143162D01*
X116083474Y-66080000D01*
X121111000Y-66080000D01*
X121111000Y-71516472D01*
X120746734Y-71365215D01*
X120325496Y-71364847D01*
X120351431Y-71326890D01*
X120402440Y-71075000D01*
X120402440Y-69325000D01*
X120358162Y-69089683D01*
X120219090Y-68873559D01*
X120006890Y-68728569D01*
X119755000Y-68677560D01*
X119445000Y-68677560D01*
X119294677Y-68705845D01*
X119155000Y-68677560D01*
X118845000Y-68677560D01*
X118694677Y-68705845D01*
X118681403Y-68703157D01*
X118685761Y-68692663D01*
X118887932Y-68609128D01*
X119151181Y-68346338D01*
X119188212Y-68257158D01*
X119499495Y-68128539D01*
X119762744Y-67865749D01*
X119905390Y-67522221D01*
X119905714Y-67150255D01*
X119763669Y-66806479D01*
X119500879Y-66543230D01*
X119157351Y-66400584D01*
X118785385Y-66400260D01*
X118697672Y-66436502D01*
X117672976Y-66436503D01*
X117672971Y-66436502D01*
X117395947Y-66491606D01*
X117395946Y-66491607D01*
X117395945Y-66491607D01*
X117161096Y-66648528D01*
X117161094Y-66648531D01*
X116186444Y-67623180D01*
X100600125Y-67623180D01*
X100600120Y-67623179D01*
X100323096Y-67678283D01*
X100245167Y-67730354D01*
X100088245Y-67835205D01*
X100088243Y-67835208D01*
X99288125Y-68635325D01*
X99259905Y-68677560D01*
X99045000Y-68677560D01*
X98809683Y-68721838D01*
X98593559Y-68860910D01*
X98448569Y-69073110D01*
X98397560Y-69325000D01*
X98397560Y-71075000D01*
X98441838Y-71310317D01*
X98488259Y-71382458D01*
X98446734Y-71365215D01*
X97955421Y-71364786D01*
X97501343Y-71552408D01*
X97489000Y-71564729D01*
X97489000Y-66080000D01*
X102115520Y-66080000D01*
X102198110Y-66136431D01*
X102198110Y-66136431D01*
G37*
X102198110Y-66136431D02*
X102450000Y-66187440D01*
X103450000Y-66187440D01*
X103685317Y-66143162D01*
X103783474Y-66080000D01*
X114415520Y-66080000D01*
X114498110Y-66136431D01*
X114750000Y-66187440D01*
X115750000Y-66187440D01*
X115985317Y-66143162D01*
X116083474Y-66080000D01*
X121111000Y-66080000D01*
X121111000Y-71516472D01*
X120746734Y-71365215D01*
X120325496Y-71364847D01*
X120351431Y-71326890D01*
X120402440Y-71075000D01*
X120402440Y-69325000D01*
X120358162Y-69089683D01*
X120219090Y-68873559D01*
X120006890Y-68728569D01*
X119755000Y-68677560D01*
X119445000Y-68677560D01*
X119294677Y-68705845D01*
X119155000Y-68677560D01*
X118845000Y-68677560D01*
X118694677Y-68705845D01*
X118681403Y-68703157D01*
X118685761Y-68692663D01*
X118887932Y-68609128D01*
X119151181Y-68346338D01*
X119188212Y-68257158D01*
X119499495Y-68128539D01*
X119762744Y-67865749D01*
X119905390Y-67522221D01*
X119905714Y-67150255D01*
X119763669Y-66806479D01*
X119500879Y-66543230D01*
X119157351Y-66400584D01*
X118785385Y-66400260D01*
X118697672Y-66436502D01*
X117672976Y-66436503D01*
X117672971Y-66436502D01*
X117395947Y-66491606D01*
X117395946Y-66491607D01*
X117395945Y-66491607D01*
X117161096Y-66648528D01*
X117161094Y-66648531D01*
X116186444Y-67623180D01*
X100600125Y-67623180D01*
X100600120Y-67623179D01*
X100323096Y-67678283D01*
X100245167Y-67730354D01*
X100088245Y-67835205D01*
X100088243Y-67835208D01*
X99288125Y-68635325D01*
X99259905Y-68677560D01*
X99045000Y-68677560D01*
X98809683Y-68721838D01*
X98593559Y-68860910D01*
X98448569Y-69073110D01*
X98397560Y-69325000D01*
X98397560Y-71075000D01*
X98441838Y-71310317D01*
X98488259Y-71382458D01*
X98446734Y-71365215D01*
X97955421Y-71364786D01*
X97501343Y-71552408D01*
X97489000Y-71564729D01*
X97489000Y-66080000D01*
X102115520Y-66080000D01*
X102198110Y-66136431D01*
M02*
