G04 #@! TF.FileFunction,Legend,Top*
%FSLAX46Y46*%
G04 Gerber Fmt 4.6, Leading zero omitted, Abs format (unit mm)*
G04 Created by KiCad (PCBNEW 4.0.5+dfsg1-4) date Sat Mar 31 12:22:37 2018*
%MOMM*%
%LPD*%
G01*
G04 APERTURE LIST*
%ADD10C,0.100000*%
%ADD11C,0.125000*%
%ADD12C,0.120000*%
%ADD13C,0.150000*%
G04 APERTURE END LIST*
D10*
D11*
X117555047Y-82594000D02*
X117507428Y-82570190D01*
X117436000Y-82570190D01*
X117364571Y-82594000D01*
X117316952Y-82641619D01*
X117293143Y-82689238D01*
X117269333Y-82784476D01*
X117269333Y-82855905D01*
X117293143Y-82951143D01*
X117316952Y-82998762D01*
X117364571Y-83046381D01*
X117436000Y-83070190D01*
X117483619Y-83070190D01*
X117555047Y-83046381D01*
X117578857Y-83022571D01*
X117578857Y-82855905D01*
X117483619Y-82855905D01*
X117793143Y-83070190D02*
X117793143Y-82570190D01*
X118078857Y-83070190D01*
X118078857Y-82570190D01*
X118316953Y-83070190D02*
X118316953Y-82570190D01*
X118436000Y-82570190D01*
X118507429Y-82594000D01*
X118555048Y-82641619D01*
X118578857Y-82689238D01*
X118602667Y-82784476D01*
X118602667Y-82855905D01*
X118578857Y-82951143D01*
X118555048Y-82998762D01*
X118507429Y-83046381D01*
X118436000Y-83070190D01*
X118316953Y-83070190D01*
X120448190Y-83526380D02*
X119948190Y-83526380D01*
X119948190Y-83335904D01*
X119972000Y-83288285D01*
X119995810Y-83264476D01*
X120043429Y-83240666D01*
X120114857Y-83240666D01*
X120162476Y-83264476D01*
X120186286Y-83288285D01*
X120210095Y-83335904D01*
X120210095Y-83526380D01*
X120448190Y-83026380D02*
X120114857Y-83026380D01*
X120210095Y-83026380D02*
X120162476Y-83002571D01*
X120138667Y-82978761D01*
X120114857Y-82931142D01*
X120114857Y-82883523D01*
X120114857Y-82502571D02*
X120519619Y-82502571D01*
X120567238Y-82526380D01*
X120591048Y-82550190D01*
X120614857Y-82597809D01*
X120614857Y-82669237D01*
X120591048Y-82716856D01*
X120424381Y-82502571D02*
X120448190Y-82550190D01*
X120448190Y-82645428D01*
X120424381Y-82693047D01*
X120400571Y-82716856D01*
X120352952Y-82740666D01*
X120210095Y-82740666D01*
X120162476Y-82716856D01*
X120138667Y-82693047D01*
X120114857Y-82645428D01*
X120114857Y-82550190D01*
X120138667Y-82502571D01*
X120448190Y-82264475D02*
X120114857Y-82264475D01*
X120162476Y-82264475D02*
X120138667Y-82240666D01*
X120114857Y-82193047D01*
X120114857Y-82121618D01*
X120138667Y-82073999D01*
X120186286Y-82050190D01*
X120448190Y-82050190D01*
X120186286Y-82050190D02*
X120138667Y-82026380D01*
X120114857Y-81978761D01*
X120114857Y-81907333D01*
X120138667Y-81859713D01*
X120186286Y-81835904D01*
X120448190Y-81835904D01*
X119924381Y-81240666D02*
X120567238Y-81669237D01*
X120448190Y-81073998D02*
X119948190Y-81073998D01*
X119948190Y-80883522D01*
X119972000Y-80835903D01*
X119995810Y-80812094D01*
X120043429Y-80788284D01*
X120114857Y-80788284D01*
X120162476Y-80812094D01*
X120186286Y-80835903D01*
X120210095Y-80883522D01*
X120210095Y-81073998D01*
X120448190Y-80312094D02*
X120448190Y-80597808D01*
X120448190Y-80454951D02*
X119948190Y-80454951D01*
X120019619Y-80502570D01*
X120067238Y-80550189D01*
X120091048Y-80597808D01*
X120400571Y-80097808D02*
X120424381Y-80073999D01*
X120448190Y-80097808D01*
X120424381Y-80121618D01*
X120400571Y-80097808D01*
X120448190Y-80097808D01*
X119948190Y-79645428D02*
X119948190Y-79740666D01*
X119972000Y-79788285D01*
X119995810Y-79812094D01*
X120067238Y-79859713D01*
X120162476Y-79883523D01*
X120352952Y-79883523D01*
X120400571Y-79859713D01*
X120424381Y-79835904D01*
X120448190Y-79788285D01*
X120448190Y-79693047D01*
X120424381Y-79645428D01*
X120400571Y-79621618D01*
X120352952Y-79597809D01*
X120233905Y-79597809D01*
X120186286Y-79621618D01*
X120162476Y-79645428D01*
X120138667Y-79693047D01*
X120138667Y-79788285D01*
X120162476Y-79835904D01*
X120186286Y-79859713D01*
X120233905Y-79883523D01*
X120194190Y-77672475D02*
X119694190Y-77672475D01*
X120051333Y-77505809D01*
X119694190Y-77339142D01*
X120194190Y-77339142D01*
X120194190Y-77029618D02*
X120170381Y-77077237D01*
X120146571Y-77101046D01*
X120098952Y-77124856D01*
X119956095Y-77124856D01*
X119908476Y-77101046D01*
X119884667Y-77077237D01*
X119860857Y-77029618D01*
X119860857Y-76958189D01*
X119884667Y-76910570D01*
X119908476Y-76886761D01*
X119956095Y-76862951D01*
X120098952Y-76862951D01*
X120146571Y-76886761D01*
X120170381Y-76910570D01*
X120194190Y-76958189D01*
X120194190Y-77029618D01*
X120194190Y-76434380D02*
X119694190Y-76434380D01*
X120170381Y-76434380D02*
X120194190Y-76481999D01*
X120194190Y-76577237D01*
X120170381Y-76624856D01*
X120146571Y-76648665D01*
X120098952Y-76672475D01*
X119956095Y-76672475D01*
X119908476Y-76648665D01*
X119884667Y-76624856D01*
X119860857Y-76577237D01*
X119860857Y-76481999D01*
X119884667Y-76434380D01*
X120170381Y-76005808D02*
X120194190Y-76053427D01*
X120194190Y-76148665D01*
X120170381Y-76196284D01*
X120122762Y-76220094D01*
X119932286Y-76220094D01*
X119884667Y-76196284D01*
X119860857Y-76148665D01*
X119860857Y-76053427D01*
X119884667Y-76005808D01*
X119932286Y-75981999D01*
X119979905Y-75981999D01*
X120027524Y-76220094D01*
X119670381Y-75410571D02*
X120313238Y-75839142D01*
X120194190Y-75243903D02*
X119694190Y-75243903D01*
X119694190Y-75053427D01*
X119718000Y-75005808D01*
X119741810Y-74981999D01*
X119789429Y-74958189D01*
X119860857Y-74958189D01*
X119908476Y-74981999D01*
X119932286Y-75005808D01*
X119956095Y-75053427D01*
X119956095Y-75243903D01*
X120194190Y-74481999D02*
X120194190Y-74767713D01*
X120194190Y-74624856D02*
X119694190Y-74624856D01*
X119765619Y-74672475D01*
X119813238Y-74720094D01*
X119837048Y-74767713D01*
X120146571Y-74267713D02*
X120170381Y-74243904D01*
X120194190Y-74267713D01*
X120170381Y-74291523D01*
X120146571Y-74267713D01*
X120194190Y-74267713D01*
X119694190Y-73791523D02*
X119694190Y-74029618D01*
X119932286Y-74053428D01*
X119908476Y-74029618D01*
X119884667Y-73981999D01*
X119884667Y-73862952D01*
X119908476Y-73815333D01*
X119932286Y-73791523D01*
X119979905Y-73767714D01*
X120098952Y-73767714D01*
X120146571Y-73791523D01*
X120170381Y-73815333D01*
X120194190Y-73862952D01*
X120194190Y-73981999D01*
X120170381Y-74029618D01*
X120146571Y-74053428D01*
X116705953Y-61893000D02*
X116658334Y-61869190D01*
X116586906Y-61869190D01*
X116515477Y-61893000D01*
X116467858Y-61940619D01*
X116444049Y-61988238D01*
X116420239Y-62083476D01*
X116420239Y-62154905D01*
X116444049Y-62250143D01*
X116467858Y-62297762D01*
X116515477Y-62345381D01*
X116586906Y-62369190D01*
X116634525Y-62369190D01*
X116705953Y-62345381D01*
X116729763Y-62321571D01*
X116729763Y-62154905D01*
X116634525Y-62154905D01*
X117015477Y-62369190D02*
X116967858Y-62345381D01*
X116944049Y-62321571D01*
X116920239Y-62273952D01*
X116920239Y-62131095D01*
X116944049Y-62083476D01*
X116967858Y-62059667D01*
X117015477Y-62035857D01*
X117086906Y-62035857D01*
X117134525Y-62059667D01*
X117158334Y-62083476D01*
X117182144Y-62131095D01*
X117182144Y-62273952D01*
X117158334Y-62321571D01*
X117134525Y-62345381D01*
X117086906Y-62369190D01*
X117015477Y-62369190D01*
X117467858Y-62369190D02*
X117420239Y-62345381D01*
X117396430Y-62321571D01*
X117372620Y-62273952D01*
X117372620Y-62131095D01*
X117396430Y-62083476D01*
X117420239Y-62059667D01*
X117467858Y-62035857D01*
X117539287Y-62035857D01*
X117586906Y-62059667D01*
X117610715Y-62083476D01*
X117634525Y-62131095D01*
X117634525Y-62273952D01*
X117610715Y-62321571D01*
X117586906Y-62345381D01*
X117539287Y-62369190D01*
X117467858Y-62369190D01*
X118063096Y-62369190D02*
X118063096Y-61869190D01*
X118063096Y-62345381D02*
X118015477Y-62369190D01*
X117920239Y-62369190D01*
X117872620Y-62345381D01*
X117848811Y-62321571D01*
X117825001Y-62273952D01*
X117825001Y-62131095D01*
X117848811Y-62083476D01*
X117872620Y-62059667D01*
X117920239Y-62035857D01*
X118015477Y-62035857D01*
X118063096Y-62059667D01*
X118253573Y-61869190D02*
X118372620Y-62369190D01*
X118467858Y-62012048D01*
X118563096Y-62369190D01*
X118682144Y-61869190D01*
X119086906Y-62369190D02*
X119086906Y-62107286D01*
X119063097Y-62059667D01*
X119015478Y-62035857D01*
X118920240Y-62035857D01*
X118872621Y-62059667D01*
X119086906Y-62345381D02*
X119039287Y-62369190D01*
X118920240Y-62369190D01*
X118872621Y-62345381D01*
X118848811Y-62297762D01*
X118848811Y-62250143D01*
X118872621Y-62202524D01*
X118920240Y-62178714D01*
X119039287Y-62178714D01*
X119086906Y-62154905D01*
X119253573Y-62035857D02*
X119444049Y-62035857D01*
X119325002Y-61869190D02*
X119325002Y-62297762D01*
X119348811Y-62345381D01*
X119396430Y-62369190D01*
X119444049Y-62369190D01*
X119825001Y-62345381D02*
X119777382Y-62369190D01*
X119682144Y-62369190D01*
X119634525Y-62345381D01*
X119610716Y-62321571D01*
X119586906Y-62273952D01*
X119586906Y-62131095D01*
X119610716Y-62083476D01*
X119634525Y-62059667D01*
X119682144Y-62035857D01*
X119777382Y-62035857D01*
X119825001Y-62059667D01*
X120039287Y-62369190D02*
X120039287Y-61869190D01*
X120253572Y-62369190D02*
X120253572Y-62107286D01*
X120229763Y-62059667D01*
X120182144Y-62035857D01*
X120110715Y-62035857D01*
X120063096Y-62059667D01*
X120039287Y-62083476D01*
X120467858Y-61916810D02*
X120491668Y-61893000D01*
X120539287Y-61869190D01*
X120658334Y-61869190D01*
X120705953Y-61893000D01*
X120729763Y-61916810D01*
X120753572Y-61964429D01*
X120753572Y-62012048D01*
X120729763Y-62083476D01*
X120444049Y-62369190D01*
X120753572Y-62369190D01*
X121229762Y-62369190D02*
X120944048Y-62369190D01*
X121086905Y-62369190D02*
X121086905Y-61869190D01*
X121039286Y-61940619D01*
X120991667Y-61988238D01*
X120944048Y-62012048D01*
X100981572Y-84221190D02*
X101267286Y-84221190D01*
X101124429Y-84721190D02*
X101124429Y-84221190D01*
X101410143Y-84697381D02*
X101481572Y-84721190D01*
X101600619Y-84721190D01*
X101648238Y-84697381D01*
X101672048Y-84673571D01*
X101695857Y-84625952D01*
X101695857Y-84578333D01*
X101672048Y-84530714D01*
X101648238Y-84506905D01*
X101600619Y-84483095D01*
X101505381Y-84459286D01*
X101457762Y-84435476D01*
X101433953Y-84411667D01*
X101410143Y-84364048D01*
X101410143Y-84316429D01*
X101433953Y-84268810D01*
X101457762Y-84245000D01*
X101505381Y-84221190D01*
X101624429Y-84221190D01*
X101695857Y-84245000D01*
X101838714Y-84221190D02*
X102124428Y-84221190D01*
X101981571Y-84721190D02*
X101981571Y-84221190D01*
X97699430Y-80863571D02*
X97723239Y-80887381D01*
X97699430Y-80911190D01*
X97675620Y-80887381D01*
X97699430Y-80863571D01*
X97699430Y-80911190D01*
X97699430Y-80720714D02*
X97675620Y-80435000D01*
X97699430Y-80411190D01*
X97723239Y-80435000D01*
X97699430Y-80720714D01*
X97699430Y-80411190D01*
X98223239Y-80911190D02*
X98056572Y-80673095D01*
X97937525Y-80911190D02*
X97937525Y-80411190D01*
X98128001Y-80411190D01*
X98175620Y-80435000D01*
X98199429Y-80458810D01*
X98223239Y-80506429D01*
X98223239Y-80577857D01*
X98199429Y-80625476D01*
X98175620Y-80649286D01*
X98128001Y-80673095D01*
X97937525Y-80673095D01*
X98413715Y-80887381D02*
X98485144Y-80911190D01*
X98604191Y-80911190D01*
X98651810Y-80887381D01*
X98675620Y-80863571D01*
X98699429Y-80815952D01*
X98699429Y-80768333D01*
X98675620Y-80720714D01*
X98651810Y-80696905D01*
X98604191Y-80673095D01*
X98508953Y-80649286D01*
X98461334Y-80625476D01*
X98437525Y-80601667D01*
X98413715Y-80554048D01*
X98413715Y-80506429D01*
X98437525Y-80458810D01*
X98461334Y-80435000D01*
X98508953Y-80411190D01*
X98628001Y-80411190D01*
X98699429Y-80435000D01*
X98842286Y-80411190D02*
X99128000Y-80411190D01*
X98985143Y-80911190D02*
X98985143Y-80411190D01*
D12*
X98879600Y-74466000D02*
X98879600Y-74966000D01*
X98079600Y-74966000D02*
X98079600Y-74466000D01*
X100083200Y-72639600D02*
X100583200Y-72639600D01*
X100583200Y-73439600D02*
X100083200Y-73439600D01*
X100893600Y-80490000D02*
X101133600Y-80490000D01*
X101133600Y-79610000D02*
X100893600Y-79610000D01*
X114373000Y-75800000D02*
X114133000Y-75800000D01*
X114133000Y-76680000D02*
X114373000Y-76680000D01*
X114373000Y-74784000D02*
X114133000Y-74784000D01*
X114133000Y-75664000D02*
X114373000Y-75664000D01*
D13*
X102070400Y-76157200D02*
X99070400Y-76157200D01*
X102070400Y-73157200D02*
X102070400Y-74157200D01*
X101070400Y-73157200D02*
X102070400Y-73157200D01*
X115773000Y-79194000D02*
X115273000Y-79194000D01*
X115273000Y-80144000D02*
X115773000Y-80144000D01*
X112500000Y-81250000D02*
X111850000Y-81900000D01*
X103350000Y-81900000D02*
X102700000Y-81900000D01*
X102700000Y-81900000D02*
X102700000Y-81250000D01*
X111850000Y-72100000D02*
X112500000Y-72100000D01*
X112500000Y-72100000D02*
X112500000Y-72750000D01*
X103350000Y-72100000D02*
X102700000Y-72100000D01*
X102700000Y-72100000D02*
X102700000Y-72750000D01*
X97972571Y-78763761D02*
X98020190Y-78620904D01*
X98067810Y-78573285D01*
X98163048Y-78525666D01*
X98305905Y-78525666D01*
X98401143Y-78573285D01*
X98448762Y-78620904D01*
X98496381Y-78716142D01*
X98496381Y-79097095D01*
X97496381Y-79097095D01*
X97496381Y-78763761D01*
X97544000Y-78668523D01*
X97591619Y-78620904D01*
X97686857Y-78573285D01*
X97782095Y-78573285D01*
X97877333Y-78620904D01*
X97924952Y-78668523D01*
X97972571Y-78763761D01*
X97972571Y-79097095D01*
X98496381Y-77573285D02*
X98496381Y-78144714D01*
X98496381Y-77859000D02*
X97496381Y-77859000D01*
X97639238Y-77954238D01*
X97734476Y-78049476D01*
X97782095Y-78144714D01*
X97766143Y-74882666D02*
X97813762Y-74930285D01*
X97861381Y-75073142D01*
X97861381Y-75168380D01*
X97813762Y-75311238D01*
X97718524Y-75406476D01*
X97623286Y-75454095D01*
X97432810Y-75501714D01*
X97289952Y-75501714D01*
X97099476Y-75454095D01*
X97004238Y-75406476D01*
X96909000Y-75311238D01*
X96861381Y-75168380D01*
X96861381Y-75073142D01*
X96909000Y-74930285D01*
X96956619Y-74882666D01*
X96861381Y-74549333D02*
X96861381Y-73882666D01*
X97861381Y-74311238D01*
X100036334Y-72366143D02*
X99988715Y-72413762D01*
X99845858Y-72461381D01*
X99750620Y-72461381D01*
X99607762Y-72413762D01*
X99512524Y-72318524D01*
X99464905Y-72223286D01*
X99417286Y-72032810D01*
X99417286Y-71889952D01*
X99464905Y-71699476D01*
X99512524Y-71604238D01*
X99607762Y-71509000D01*
X99750620Y-71461381D01*
X99845858Y-71461381D01*
X99988715Y-71509000D01*
X100036334Y-71556619D01*
X100893477Y-71461381D02*
X100703000Y-71461381D01*
X100607762Y-71509000D01*
X100560143Y-71556619D01*
X100464905Y-71699476D01*
X100417286Y-71889952D01*
X100417286Y-72270905D01*
X100464905Y-72366143D01*
X100512524Y-72413762D01*
X100607762Y-72461381D01*
X100798239Y-72461381D01*
X100893477Y-72413762D01*
X100941096Y-72366143D01*
X100988715Y-72270905D01*
X100988715Y-72032810D01*
X100941096Y-71937571D01*
X100893477Y-71889952D01*
X100798239Y-71842333D01*
X100607762Y-71842333D01*
X100512524Y-71889952D01*
X100464905Y-71937571D01*
X100417286Y-72032810D01*
X100846934Y-81752381D02*
X100513600Y-81276190D01*
X100275505Y-81752381D02*
X100275505Y-80752381D01*
X100656458Y-80752381D01*
X100751696Y-80800000D01*
X100799315Y-80847619D01*
X100846934Y-80942857D01*
X100846934Y-81085714D01*
X100799315Y-81180952D01*
X100751696Y-81228571D01*
X100656458Y-81276190D01*
X100275505Y-81276190D01*
X101227886Y-80847619D02*
X101275505Y-80800000D01*
X101370743Y-80752381D01*
X101608839Y-80752381D01*
X101704077Y-80800000D01*
X101751696Y-80847619D01*
X101799315Y-80942857D01*
X101799315Y-81038095D01*
X101751696Y-81180952D01*
X101180267Y-81752381D01*
X101799315Y-81752381D01*
X116165334Y-76684143D02*
X116117715Y-76731762D01*
X115974858Y-76779381D01*
X115879620Y-76779381D01*
X115736762Y-76731762D01*
X115641524Y-76636524D01*
X115593905Y-76541286D01*
X115546286Y-76350810D01*
X115546286Y-76207952D01*
X115593905Y-76017476D01*
X115641524Y-75922238D01*
X115736762Y-75827000D01*
X115879620Y-75779381D01*
X115974858Y-75779381D01*
X116117715Y-75827000D01*
X116165334Y-75874619D01*
X117070096Y-75779381D02*
X116593905Y-75779381D01*
X116546286Y-76255571D01*
X116593905Y-76207952D01*
X116689143Y-76160333D01*
X116927239Y-76160333D01*
X117022477Y-76207952D01*
X117070096Y-76255571D01*
X117117715Y-76350810D01*
X117117715Y-76588905D01*
X117070096Y-76684143D01*
X117022477Y-76731762D01*
X116927239Y-76779381D01*
X116689143Y-76779381D01*
X116593905Y-76731762D01*
X116546286Y-76684143D01*
X116038334Y-75414143D02*
X115990715Y-75461762D01*
X115847858Y-75509381D01*
X115752620Y-75509381D01*
X115609762Y-75461762D01*
X115514524Y-75366524D01*
X115466905Y-75271286D01*
X115419286Y-75080810D01*
X115419286Y-74937952D01*
X115466905Y-74747476D01*
X115514524Y-74652238D01*
X115609762Y-74557000D01*
X115752620Y-74509381D01*
X115847858Y-74509381D01*
X115990715Y-74557000D01*
X116038334Y-74604619D01*
X116419286Y-74604619D02*
X116466905Y-74557000D01*
X116562143Y-74509381D01*
X116800239Y-74509381D01*
X116895477Y-74557000D01*
X116943096Y-74604619D01*
X116990715Y-74699857D01*
X116990715Y-74795095D01*
X116943096Y-74937952D01*
X116371667Y-75509381D01*
X116990715Y-75509381D01*
X97567809Y-76557190D02*
X97567809Y-77033381D01*
X97234476Y-76033381D02*
X97567809Y-76557190D01*
X97901143Y-76033381D01*
X98186857Y-76128619D02*
X98234476Y-76081000D01*
X98329714Y-76033381D01*
X98567810Y-76033381D01*
X98663048Y-76081000D01*
X98710667Y-76128619D01*
X98758286Y-76223857D01*
X98758286Y-76319095D01*
X98710667Y-76461952D01*
X98139238Y-77033381D01*
X98758286Y-77033381D01*
X108235714Y-64706667D02*
X108711905Y-64706667D01*
X108140476Y-64992381D02*
X108473809Y-63992381D01*
X108807143Y-64992381D01*
X109664286Y-64992381D02*
X109092857Y-64992381D01*
X109378571Y-64992381D02*
X109378571Y-63992381D01*
X109283333Y-64135238D01*
X109188095Y-64230476D01*
X109092857Y-64278095D01*
X117943334Y-80113143D02*
X117895715Y-80160762D01*
X117752858Y-80208381D01*
X117657620Y-80208381D01*
X117514762Y-80160762D01*
X117419524Y-80065524D01*
X117371905Y-79970286D01*
X117324286Y-79779810D01*
X117324286Y-79636952D01*
X117371905Y-79446476D01*
X117419524Y-79351238D01*
X117514762Y-79256000D01*
X117657620Y-79208381D01*
X117752858Y-79208381D01*
X117895715Y-79256000D01*
X117943334Y-79303619D01*
X118800477Y-79541714D02*
X118800477Y-80208381D01*
X118562381Y-79160762D02*
X118324286Y-79875048D01*
X118943334Y-79875048D01*
M02*
