G04 #@! TF.FileFunction,Legend,Bot*
%FSLAX46Y46*%
G04 Gerber Fmt 4.6, Leading zero omitted, Abs format (unit mm)*
G04 Created by KiCad (PCBNEW 4.0.5+dfsg1-4) date Sat Mar 31 12:22:37 2018*
%MOMM*%
%LPD*%
G01*
G04 APERTURE LIST*
%ADD10C,0.100000*%
%ADD11C,0.120000*%
%ADD12C,0.150000*%
G04 APERTURE END LIST*
D10*
D11*
X114801000Y-85751000D02*
X113451000Y-85751000D01*
X114801000Y-84001000D02*
X113451000Y-84001000D01*
D12*
X105698000Y-76969000D02*
X105198000Y-76969000D01*
X105198000Y-76019000D02*
X105698000Y-76019000D01*
D11*
X105258000Y-74951000D02*
X104758000Y-74951000D01*
X104758000Y-75751000D02*
X105258000Y-75751000D01*
X105232000Y-77237000D02*
X104732000Y-77237000D01*
X104732000Y-78037000D02*
X105232000Y-78037000D01*
X105624000Y-78086000D02*
X105864000Y-78086000D01*
X105864000Y-78966000D02*
X105624000Y-78966000D01*
X108089000Y-78660000D02*
X108089000Y-78900000D01*
X107209000Y-78900000D02*
X107209000Y-78660000D01*
D12*
X100887000Y-62051000D02*
X100187000Y-62051000D01*
X100187000Y-63251000D02*
X100887000Y-63251000D01*
X114602191Y-82852190D02*
X114602191Y-83328381D01*
X114935524Y-82328381D02*
X114602191Y-82852190D01*
X114268857Y-82328381D01*
X113411714Y-83328381D02*
X113983143Y-83328381D01*
X113697429Y-83328381D02*
X113697429Y-82328381D01*
X113792667Y-82471238D01*
X113887905Y-82566476D01*
X113983143Y-82614095D01*
X103163666Y-76906381D02*
X103639857Y-76906381D01*
X103639857Y-75906381D01*
X102306523Y-76906381D02*
X102877952Y-76906381D01*
X102592238Y-76906381D02*
X102592238Y-75906381D01*
X102687476Y-76049238D01*
X102782714Y-76144476D01*
X102877952Y-76192095D01*
X103163666Y-75541143D02*
X103211285Y-75588762D01*
X103354142Y-75636381D01*
X103449380Y-75636381D01*
X103592238Y-75588762D01*
X103687476Y-75493524D01*
X103735095Y-75398286D01*
X103782714Y-75207810D01*
X103782714Y-75064952D01*
X103735095Y-74874476D01*
X103687476Y-74779238D01*
X103592238Y-74684000D01*
X103449380Y-74636381D01*
X103354142Y-74636381D01*
X103211285Y-74684000D01*
X103163666Y-74731619D01*
X102687476Y-75636381D02*
X102497000Y-75636381D01*
X102401761Y-75588762D01*
X102354142Y-75541143D01*
X102258904Y-75398286D01*
X102211285Y-75207810D01*
X102211285Y-74826857D01*
X102258904Y-74731619D01*
X102306523Y-74684000D01*
X102401761Y-74636381D01*
X102592238Y-74636381D01*
X102687476Y-74684000D01*
X102735095Y-74731619D01*
X102782714Y-74826857D01*
X102782714Y-75064952D01*
X102735095Y-75160190D01*
X102687476Y-75207810D01*
X102592238Y-75255429D01*
X102401761Y-75255429D01*
X102306523Y-75207810D01*
X102258904Y-75160190D01*
X102211285Y-75064952D01*
X103290666Y-78081143D02*
X103338285Y-78128762D01*
X103481142Y-78176381D01*
X103576380Y-78176381D01*
X103719238Y-78128762D01*
X103814476Y-78033524D01*
X103862095Y-77938286D01*
X103909714Y-77747810D01*
X103909714Y-77604952D01*
X103862095Y-77414476D01*
X103814476Y-77319238D01*
X103719238Y-77224000D01*
X103576380Y-77176381D01*
X103481142Y-77176381D01*
X103338285Y-77224000D01*
X103290666Y-77271619D01*
X102719238Y-77604952D02*
X102814476Y-77557333D01*
X102862095Y-77509714D01*
X102909714Y-77414476D01*
X102909714Y-77366857D01*
X102862095Y-77271619D01*
X102814476Y-77224000D01*
X102719238Y-77176381D01*
X102528761Y-77176381D01*
X102433523Y-77224000D01*
X102385904Y-77271619D01*
X102338285Y-77366857D01*
X102338285Y-77414476D01*
X102385904Y-77509714D01*
X102433523Y-77557333D01*
X102528761Y-77604952D01*
X102719238Y-77604952D01*
X102814476Y-77652571D01*
X102862095Y-77700190D01*
X102909714Y-77795429D01*
X102909714Y-77985905D01*
X102862095Y-78081143D01*
X102814476Y-78128762D01*
X102719238Y-78176381D01*
X102528761Y-78176381D01*
X102433523Y-78128762D01*
X102385904Y-78081143D01*
X102338285Y-77985905D01*
X102338285Y-77795429D01*
X102385904Y-77700190D01*
X102433523Y-77652571D01*
X102528761Y-77604952D01*
X105830666Y-80335381D02*
X106164000Y-79859190D01*
X106402095Y-80335381D02*
X106402095Y-79335381D01*
X106021142Y-79335381D01*
X105925904Y-79383000D01*
X105878285Y-79430619D01*
X105830666Y-79525857D01*
X105830666Y-79668714D01*
X105878285Y-79763952D01*
X105925904Y-79811571D01*
X106021142Y-79859190D01*
X106402095Y-79859190D01*
X104878285Y-80335381D02*
X105449714Y-80335381D01*
X105164000Y-80335381D02*
X105164000Y-79335381D01*
X105259238Y-79478238D01*
X105354476Y-79573476D01*
X105449714Y-79621095D01*
X109640666Y-79097143D02*
X109688285Y-79144762D01*
X109831142Y-79192381D01*
X109926380Y-79192381D01*
X110069238Y-79144762D01*
X110164476Y-79049524D01*
X110212095Y-78954286D01*
X110259714Y-78763810D01*
X110259714Y-78620952D01*
X110212095Y-78430476D01*
X110164476Y-78335238D01*
X110069238Y-78240000D01*
X109926380Y-78192381D01*
X109831142Y-78192381D01*
X109688285Y-78240000D01*
X109640666Y-78287619D01*
X109307333Y-78192381D02*
X108688285Y-78192381D01*
X109021619Y-78573333D01*
X108878761Y-78573333D01*
X108783523Y-78620952D01*
X108735904Y-78668571D01*
X108688285Y-78763810D01*
X108688285Y-79001905D01*
X108735904Y-79097143D01*
X108783523Y-79144762D01*
X108878761Y-79192381D01*
X109164476Y-79192381D01*
X109259714Y-79144762D01*
X109307333Y-79097143D01*
X100703666Y-61108143D02*
X100751285Y-61155762D01*
X100894142Y-61203381D01*
X100989380Y-61203381D01*
X101132238Y-61155762D01*
X101227476Y-61060524D01*
X101275095Y-60965286D01*
X101322714Y-60774810D01*
X101322714Y-60631952D01*
X101275095Y-60441476D01*
X101227476Y-60346238D01*
X101132238Y-60251000D01*
X100989380Y-60203381D01*
X100894142Y-60203381D01*
X100751285Y-60251000D01*
X100703666Y-60298619D01*
X99751285Y-61203381D02*
X100322714Y-61203381D01*
X100037000Y-61203381D02*
X100037000Y-60203381D01*
X100132238Y-60346238D01*
X100227476Y-60441476D01*
X100322714Y-60489095D01*
X114361904Y-65600000D02*
X114457142Y-65552381D01*
X114599999Y-65552381D01*
X114742857Y-65600000D01*
X114838095Y-65695238D01*
X114885714Y-65790476D01*
X114933333Y-65980952D01*
X114933333Y-66123810D01*
X114885714Y-66314286D01*
X114838095Y-66409524D01*
X114742857Y-66504762D01*
X114599999Y-66552381D01*
X114504761Y-66552381D01*
X114361904Y-66504762D01*
X114314285Y-66457143D01*
X114314285Y-66123810D01*
X114504761Y-66123810D01*
X113885714Y-66552381D02*
X113885714Y-65552381D01*
X113314285Y-66552381D01*
X113314285Y-65552381D01*
X112838095Y-66552381D02*
X112838095Y-65552381D01*
X112600000Y-65552381D01*
X112457142Y-65600000D01*
X112361904Y-65695238D01*
X112314285Y-65790476D01*
X112266666Y-65980952D01*
X112266666Y-66123810D01*
X112314285Y-66314286D01*
X112361904Y-66409524D01*
X112457142Y-66504762D01*
X112600000Y-66552381D01*
X112838095Y-66552381D01*
X114052381Y-59066667D02*
X115052381Y-59400000D01*
X114052381Y-59733334D01*
X114957143Y-60638096D02*
X115004762Y-60590477D01*
X115052381Y-60447620D01*
X115052381Y-60352382D01*
X115004762Y-60209524D01*
X114909524Y-60114286D01*
X114814286Y-60066667D01*
X114623810Y-60019048D01*
X114480952Y-60019048D01*
X114290476Y-60066667D01*
X114195238Y-60114286D01*
X114100000Y-60209524D01*
X114052381Y-60352382D01*
X114052381Y-60447620D01*
X114100000Y-60590477D01*
X114147619Y-60638096D01*
X114957143Y-61638096D02*
X115004762Y-61590477D01*
X115052381Y-61447620D01*
X115052381Y-61352382D01*
X115004762Y-61209524D01*
X114909524Y-61114286D01*
X114814286Y-61066667D01*
X114623810Y-61019048D01*
X114480952Y-61019048D01*
X114290476Y-61066667D01*
X114195238Y-61114286D01*
X114100000Y-61209524D01*
X114052381Y-61352382D01*
X114052381Y-61447620D01*
X114100000Y-61590477D01*
X114147619Y-61638096D01*
M02*
