M48
;DRILL file {KiCad 4.0.5+dfsg1-4} date Thu Nov  2 15:49:49 2017
;FORMAT={-:-/ absolute / inch / decimal}
FMAT,2
INCH,TZ
T1C0.016
T2C0.030
T3C0.031
%
G90
G05
M72
T1
X3.8831Y-2.6266
X3.8881Y-3.0266
X3.8981Y-3.0866
X3.9281Y-3.1516
X3.9431Y-2.8366
X3.9881Y-2.5516
X3.9931Y-3.2166
X3.9931Y-3.2716
X4.0107Y-2.9561
X4.0431Y-2.6116
X4.0981Y-2.9816
X4.0981Y-3.0245
X4.1131Y-3.0916
X4.1241Y-3.1306
X4.145Y-3.1536
X4.1781Y-3.0566
X4.2031Y-2.9666
X4.2155Y-3.158
X4.2231Y-2.6266
X4.2281Y-2.9116
X4.2362Y-3.0315
X4.2881Y-3.15
X4.3181Y-3.1616
X4.3531Y-3.1566
X4.3881Y-2.6616
X4.5331Y-2.6566
X4.5381Y-2.8516
X4.5381Y-2.9187
X4.5681Y-3.0316
X4.5981Y-3.2016
X4.6181Y-3.061
X4.6381Y-2.6916
X4.6481Y-3.0366
X4.6598Y-2.6699
X4.6839Y-2.651
X4.6841Y-3.0114
T2
X3.8531Y-3.2441
X3.9213Y-3.3228
X4.6693Y-3.3228
T3
X4.7953Y-2.9272G85X4.7953Y-2.9862
G05
X4.7953Y-3.2224G85X4.7953Y-3.2815
G05
T0
M30
