G04 #@! TF.FileFunction,Copper,L2,Bot,Signal*
%FSLAX46Y46*%
G04 Gerber Fmt 4.6, Leading zero omitted, Abs format (unit mm)*
G04 Created by KiCad (PCBNEW 4.0.5+dfsg1-4) date Thu Nov  2 15:49:47 2017*
%MOMM*%
%LPD*%
G01*
G04 APERTURE LIST*
%ADD10C,0.100000*%
%ADD11R,1.000000X1.800000*%
%ADD12R,0.600000X0.500000*%
%ADD13R,0.300000X0.350000*%
%ADD14R,0.280000X0.430000*%
%ADD15R,0.430000X0.280000*%
%ADD16R,0.800000X0.750000*%
%ADD17O,1.200000X2.700000*%
%ADD18R,8.300000X2.750000*%
%ADD19C,1.524000*%
%ADD20C,2.000000*%
%ADD21C,0.600000*%
%ADD22C,0.500000*%
%ADD23C,0.177800*%
%ADD24C,0.254000*%
G04 APERTURE END LIST*
D10*
D11*
X112876000Y-84876000D03*
X115376000Y-84876000D03*
D12*
X104898000Y-76494000D03*
X105998000Y-76494000D03*
D13*
X104728000Y-75351000D03*
X105288000Y-75351000D03*
X104702000Y-77637000D03*
X105262000Y-77637000D03*
D14*
X106004000Y-78526000D03*
X105484000Y-78526000D03*
D15*
X107649000Y-79040000D03*
X107649000Y-78520000D03*
D16*
X101287000Y-62651000D03*
X99787000Y-62651000D03*
D17*
X121800000Y-82600000D03*
X121800000Y-75100000D03*
D10*
G36*
X110945242Y-73241821D02*
X110474487Y-67260317D01*
X116854758Y-66758179D01*
X117325513Y-72739683D01*
X110945242Y-73241821D01*
X110945242Y-73241821D01*
G37*
D18*
X109500000Y-60400000D03*
D19*
X99600000Y-84400000D03*
X97870000Y-82400000D03*
X118600000Y-84400000D03*
D20*
X103350000Y-80900000D03*
D21*
X116793000Y-81320000D03*
X107268000Y-66715000D03*
X102696000Y-66334000D03*
X101426000Y-83098000D03*
X98632000Y-66715000D03*
X111459000Y-67604000D03*
X99775000Y-80050000D03*
X106125000Y-77637000D03*
X106760000Y-75351000D03*
X115142000Y-67477000D03*
X116031000Y-77002000D03*
X98759000Y-76875000D03*
X100156000Y-72049000D03*
X101870519Y-75085707D03*
X115269000Y-74135200D03*
X115269000Y-72430000D03*
X107600000Y-77000000D03*
X108919000Y-80010000D03*
X107395000Y-73954000D03*
X105283300Y-80100800D03*
X110570000Y-80177000D03*
X107072454Y-80214286D03*
X101426000Y-81701000D03*
X104753400Y-79516600D03*
X118970552Y-67335422D03*
X118974981Y-76489728D03*
X118358989Y-67816011D03*
X118063000Y-77129000D03*
X117809000Y-68366000D03*
X117301000Y-77750000D03*
X101299000Y-64810000D03*
X99013000Y-78399000D03*
X104093000Y-76821200D03*
X104093000Y-75732000D03*
X104474000Y-78526000D03*
X109681000Y-80304000D03*
D22*
X98632000Y-66715000D02*
X98632000Y-63781000D01*
D23*
X99762000Y-62651000D02*
X99787000Y-62651000D01*
D22*
X98632000Y-63781000D02*
X99762000Y-62651000D01*
D23*
X101426000Y-83098000D02*
X99775000Y-81447000D01*
X99775000Y-81447000D02*
X99775000Y-80050000D01*
X99812000Y-62651000D02*
X99787000Y-62651000D01*
X98632000Y-66715000D02*
X98632000Y-70525000D01*
X98632000Y-70525000D02*
X100156000Y-72049000D01*
X116031000Y-77002000D02*
X116031000Y-74897200D01*
X116031000Y-74897200D02*
X115269000Y-74135200D01*
X107649000Y-78520000D02*
X107649000Y-77049000D01*
X107649000Y-77049000D02*
X107600000Y-77000000D01*
X101870519Y-77954481D02*
X99775000Y-80050000D01*
X101870519Y-75085707D02*
X101870519Y-77954481D01*
X113237000Y-69337000D02*
X113900000Y-70000000D01*
X105262000Y-77637000D02*
X106125000Y-77637000D01*
X106379000Y-75351000D02*
X106760000Y-75351000D01*
X105288000Y-75351000D02*
X106379000Y-75351000D01*
X115269000Y-74208000D02*
X115269000Y-74135200D01*
X114844736Y-72430000D02*
X115269000Y-72430000D01*
X108919000Y-80010000D02*
X108041800Y-79132800D01*
X108041800Y-79132800D02*
X108041800Y-79040000D01*
X108919000Y-79917200D02*
X108919000Y-79958401D01*
X107649000Y-79040000D02*
X108041800Y-79040000D01*
X107649000Y-79040000D02*
X107256200Y-79040000D01*
X107033299Y-78817099D02*
X107033299Y-78350801D01*
X107256200Y-79040000D02*
X107033299Y-78817099D01*
D22*
X101287000Y-62651000D02*
X105617000Y-62651000D01*
X105617000Y-62651000D02*
X108149000Y-62651000D01*
X105617000Y-67451610D02*
X105617000Y-62651000D01*
X107395000Y-69229610D02*
X105617000Y-67451610D01*
X107395000Y-73954000D02*
X107395000Y-69229610D01*
D23*
X107395000Y-73954000D02*
X107395000Y-75010684D01*
X107395000Y-75010684D02*
X107326701Y-75078983D01*
X107326701Y-75078983D02*
X107326701Y-75926581D01*
X107326701Y-75926581D02*
X106759282Y-76494000D01*
X105736515Y-79647585D02*
X105583299Y-79800801D01*
X105583299Y-79800801D02*
X105283300Y-80100800D01*
X101287000Y-62651000D02*
X101864800Y-62651000D01*
X105998000Y-76494000D02*
X106759282Y-76494000D01*
X106759282Y-76494000D02*
X107013282Y-76748000D01*
X105283300Y-80100800D02*
X106858100Y-78526000D01*
X106858100Y-78526000D02*
X107033299Y-78350801D01*
X106004000Y-78526000D02*
X106858100Y-78526000D01*
D22*
X108149000Y-62651000D02*
X109500000Y-61300000D01*
D23*
X107013282Y-76748000D02*
X107033299Y-76727983D01*
X107033299Y-78350801D02*
X107033299Y-77272017D01*
X107033299Y-77272017D02*
X107033299Y-76727983D01*
X109414000Y-61254000D02*
X109420000Y-61260000D01*
X110570000Y-80177000D02*
X115269000Y-84876000D01*
X115269000Y-84876000D02*
X115376000Y-84876000D01*
X111734168Y-84876000D02*
X107072454Y-80214286D01*
X112876000Y-84876000D02*
X111734168Y-84876000D01*
X101426000Y-80949282D02*
X101426000Y-81701000D01*
X104753400Y-79516600D02*
X102858682Y-79516600D01*
X102858682Y-79516600D02*
X101426000Y-80949282D01*
X104753400Y-79516600D02*
X104753400Y-79256600D01*
X104753400Y-79256600D02*
X105484000Y-78526000D01*
X118974981Y-76489728D02*
X118974981Y-67339851D01*
X118974981Y-67339851D02*
X118970552Y-67335422D01*
X118063000Y-77129000D02*
X118063000Y-76562991D01*
X118063000Y-76562991D02*
X118375701Y-76250290D01*
X118375701Y-76250290D02*
X118375701Y-67832723D01*
X118375701Y-67832723D02*
X118358989Y-67816011D01*
X118358989Y-68077271D02*
X118358989Y-67816011D01*
X118389700Y-68107982D02*
X118358989Y-68077271D01*
X117301000Y-77750000D02*
X117301000Y-73141382D01*
X117301000Y-73141382D02*
X117809000Y-72633382D01*
X117809000Y-68790264D02*
X117809000Y-68366000D01*
X117809000Y-72633382D02*
X117809000Y-68790264D01*
X117823000Y-68380000D02*
X117809000Y-68366000D01*
X100428017Y-71482299D02*
X100428017Y-65680983D01*
X100428017Y-65680983D02*
X101299000Y-64810000D01*
X99013000Y-78399000D02*
X100722701Y-76689299D01*
X100722701Y-76689299D02*
X100722701Y-71776983D01*
X100722701Y-71776983D02*
X100428017Y-71482299D01*
X101303818Y-64941818D02*
X101299000Y-64937000D01*
X101299000Y-64937000D02*
X101299000Y-64810000D01*
X104093000Y-75732000D02*
X104136000Y-75732000D01*
X104136000Y-75732000D02*
X104898000Y-76494000D01*
X104702000Y-77637000D02*
X104702000Y-77430200D01*
X104702000Y-77430200D02*
X104093000Y-76821200D01*
X104898000Y-76494000D02*
X104702000Y-76690000D01*
X104702000Y-76690000D02*
X104702000Y-77637000D01*
X104728000Y-75351000D02*
X104728000Y-76324000D01*
X104728000Y-76324000D02*
X104898000Y-76494000D01*
X104093000Y-76821200D02*
X104093000Y-75732000D01*
X104474000Y-78526000D02*
X104093000Y-78145000D01*
X104093000Y-78145000D02*
X104093000Y-76821200D01*
X104898000Y-76494000D02*
X104420200Y-76494000D01*
X104420200Y-76494000D02*
X104093000Y-76821200D01*
X104093000Y-75658200D02*
X104093000Y-75732000D01*
X104728000Y-75351000D02*
X104400200Y-75351000D01*
X104400200Y-75351000D02*
X104093000Y-75658200D01*
X104702000Y-77637000D02*
X104702000Y-78298000D01*
X104702000Y-78298000D02*
X104474000Y-78526000D01*
X109681000Y-80304000D02*
X109381001Y-80603999D01*
X109381001Y-80603999D02*
X108300885Y-80603999D01*
X105322818Y-80900000D02*
X104764213Y-80900000D01*
X108300885Y-80603999D02*
X107344471Y-79647585D01*
X107344471Y-79647585D02*
X106575233Y-79647585D01*
X106575233Y-79647585D02*
X105322818Y-80900000D01*
X104764213Y-80900000D02*
X103350000Y-80900000D01*
D24*
G36*
X121111000Y-71516472D02*
X120746734Y-71365215D01*
X120255421Y-71364786D01*
X119801343Y-71552408D01*
X119698881Y-71654691D01*
X119698881Y-67929501D01*
X119762744Y-67865749D01*
X119905390Y-67522221D01*
X119905714Y-67150255D01*
X119763669Y-66806479D01*
X119500879Y-66543230D01*
X119157351Y-66400584D01*
X118785385Y-66400260D01*
X118441609Y-66542305D01*
X118178360Y-66805095D01*
X118141329Y-66894275D01*
X117830046Y-67022894D01*
X117566797Y-67285684D01*
X117538585Y-67353627D01*
X117497711Y-66834277D01*
X117477891Y-66582437D01*
X117363204Y-66357352D01*
X117171111Y-66193290D01*
X116930856Y-66115226D01*
X113899670Y-66353786D01*
X113753865Y-66524502D01*
X114016644Y-69863427D01*
X114036582Y-69861858D01*
X114056511Y-70115075D01*
X114036573Y-70116644D01*
X114299352Y-73455570D01*
X114470068Y-73601375D01*
X116577100Y-73435548D01*
X116577100Y-77151500D01*
X116508808Y-77219673D01*
X116366162Y-77563201D01*
X116365838Y-77935167D01*
X116507883Y-78278943D01*
X116770673Y-78542192D01*
X117114201Y-78684838D01*
X117486167Y-78685162D01*
X117829943Y-78543117D01*
X118093192Y-78280327D01*
X118182976Y-78064105D01*
X118248167Y-78064162D01*
X118591943Y-77922117D01*
X118855192Y-77659327D01*
X118952614Y-77424709D01*
X119160148Y-77424890D01*
X119503924Y-77282845D01*
X119767173Y-77020055D01*
X119909819Y-76676527D01*
X119910143Y-76304561D01*
X119768098Y-75960785D01*
X119698881Y-75891447D01*
X119698881Y-73545561D01*
X119799515Y-73646371D01*
X120253266Y-73834785D01*
X120661252Y-73835141D01*
X120659009Y-73838498D01*
X120565000Y-74311112D01*
X120565000Y-75888888D01*
X120659009Y-76361502D01*
X120883600Y-76697627D01*
X120883600Y-81002373D01*
X120659009Y-81338498D01*
X120565000Y-81811112D01*
X120565000Y-83388888D01*
X120659009Y-83861502D01*
X120926723Y-84262165D01*
X121111000Y-84385295D01*
X121111000Y-85690000D01*
X119167935Y-85690000D01*
X119331143Y-85622397D01*
X119400608Y-85380213D01*
X118600000Y-84579605D01*
X117799392Y-85380213D01*
X117868857Y-85622397D01*
X118058346Y-85690000D01*
X116523440Y-85690000D01*
X116523440Y-84192302D01*
X117190856Y-84192302D01*
X117218638Y-84747368D01*
X117377603Y-85131143D01*
X117619787Y-85200608D01*
X118420395Y-84400000D01*
X118779605Y-84400000D01*
X119580213Y-85200608D01*
X119822397Y-85131143D01*
X120009144Y-84607698D01*
X119981362Y-84052632D01*
X119822397Y-83668857D01*
X119580213Y-83599392D01*
X118779605Y-84400000D01*
X118420395Y-84400000D01*
X117619787Y-83599392D01*
X117377603Y-83668857D01*
X117190856Y-84192302D01*
X116523440Y-84192302D01*
X116523440Y-83976000D01*
X116479162Y-83740683D01*
X116340090Y-83524559D01*
X116186752Y-83419787D01*
X117799392Y-83419787D01*
X118600000Y-84220395D01*
X119400608Y-83419787D01*
X119331143Y-83177603D01*
X118807698Y-82990856D01*
X118252632Y-83018638D01*
X117868857Y-83177603D01*
X117799392Y-83419787D01*
X116186752Y-83419787D01*
X116127890Y-83379569D01*
X115876000Y-83328560D01*
X114876000Y-83328560D01*
X114766006Y-83349257D01*
X111505078Y-80088328D01*
X111505162Y-79991833D01*
X111363117Y-79648057D01*
X111100327Y-79384808D01*
X110756799Y-79242162D01*
X110384833Y-79241838D01*
X110041057Y-79383883D01*
X110000574Y-79424295D01*
X109867799Y-79369162D01*
X109600184Y-79368929D01*
X109449327Y-79217808D01*
X109105799Y-79075162D01*
X109007827Y-79075077D01*
X108714289Y-78781539D01*
X108710596Y-78762975D01*
X108553675Y-78528125D01*
X108499000Y-78491593D01*
X108499000Y-78392998D01*
X108397252Y-78392998D01*
X108499000Y-78291250D01*
X108499000Y-78253691D01*
X108402327Y-78020302D01*
X108223699Y-77841673D01*
X107990310Y-77745000D01*
X107915250Y-77745000D01*
X107776002Y-77884248D01*
X107776002Y-77745000D01*
X107757199Y-77745000D01*
X107757199Y-76727983D01*
X107722664Y-76554367D01*
X107838573Y-76438458D01*
X107838576Y-76438456D01*
X107973769Y-76236125D01*
X107995498Y-76203605D01*
X108050602Y-75926581D01*
X108050601Y-75926576D01*
X108050601Y-75307457D01*
X108063796Y-75287709D01*
X108118900Y-75010684D01*
X108118900Y-74552500D01*
X108187192Y-74484327D01*
X108329838Y-74140799D01*
X108330162Y-73768833D01*
X108280000Y-73647431D01*
X108280000Y-70585760D01*
X110099242Y-70585760D01*
X110302289Y-73165723D01*
X110322109Y-73417563D01*
X110436796Y-73642648D01*
X110628889Y-73806710D01*
X110869144Y-73884774D01*
X113900330Y-73646214D01*
X114046135Y-73475498D01*
X113783356Y-70136573D01*
X110245047Y-70415044D01*
X110099242Y-70585760D01*
X108280000Y-70585760D01*
X108280000Y-69229615D01*
X108280001Y-69229610D01*
X108223810Y-68947126D01*
X108212633Y-68890935D01*
X108020790Y-68603820D01*
X108020787Y-68603818D01*
X106601188Y-67184218D01*
X109831535Y-67184218D01*
X109851355Y-67436058D01*
X110054402Y-70016022D01*
X110225118Y-70161827D01*
X113763427Y-69883356D01*
X113500648Y-66544430D01*
X113329932Y-66398625D01*
X110298746Y-66637185D01*
X110073661Y-66751871D01*
X109909598Y-66943964D01*
X109831535Y-67184218D01*
X106601188Y-67184218D01*
X106502000Y-67085030D01*
X106502000Y-66080000D01*
X121111000Y-66080000D01*
X121111000Y-71516472D01*
X121111000Y-71516472D01*
G37*
X121111000Y-71516472D02*
X120746734Y-71365215D01*
X120255421Y-71364786D01*
X119801343Y-71552408D01*
X119698881Y-71654691D01*
X119698881Y-67929501D01*
X119762744Y-67865749D01*
X119905390Y-67522221D01*
X119905714Y-67150255D01*
X119763669Y-66806479D01*
X119500879Y-66543230D01*
X119157351Y-66400584D01*
X118785385Y-66400260D01*
X118441609Y-66542305D01*
X118178360Y-66805095D01*
X118141329Y-66894275D01*
X117830046Y-67022894D01*
X117566797Y-67285684D01*
X117538585Y-67353627D01*
X117497711Y-66834277D01*
X117477891Y-66582437D01*
X117363204Y-66357352D01*
X117171111Y-66193290D01*
X116930856Y-66115226D01*
X113899670Y-66353786D01*
X113753865Y-66524502D01*
X114016644Y-69863427D01*
X114036582Y-69861858D01*
X114056511Y-70115075D01*
X114036573Y-70116644D01*
X114299352Y-73455570D01*
X114470068Y-73601375D01*
X116577100Y-73435548D01*
X116577100Y-77151500D01*
X116508808Y-77219673D01*
X116366162Y-77563201D01*
X116365838Y-77935167D01*
X116507883Y-78278943D01*
X116770673Y-78542192D01*
X117114201Y-78684838D01*
X117486167Y-78685162D01*
X117829943Y-78543117D01*
X118093192Y-78280327D01*
X118182976Y-78064105D01*
X118248167Y-78064162D01*
X118591943Y-77922117D01*
X118855192Y-77659327D01*
X118952614Y-77424709D01*
X119160148Y-77424890D01*
X119503924Y-77282845D01*
X119767173Y-77020055D01*
X119909819Y-76676527D01*
X119910143Y-76304561D01*
X119768098Y-75960785D01*
X119698881Y-75891447D01*
X119698881Y-73545561D01*
X119799515Y-73646371D01*
X120253266Y-73834785D01*
X120661252Y-73835141D01*
X120659009Y-73838498D01*
X120565000Y-74311112D01*
X120565000Y-75888888D01*
X120659009Y-76361502D01*
X120883600Y-76697627D01*
X120883600Y-81002373D01*
X120659009Y-81338498D01*
X120565000Y-81811112D01*
X120565000Y-83388888D01*
X120659009Y-83861502D01*
X120926723Y-84262165D01*
X121111000Y-84385295D01*
X121111000Y-85690000D01*
X119167935Y-85690000D01*
X119331143Y-85622397D01*
X119400608Y-85380213D01*
X118600000Y-84579605D01*
X117799392Y-85380213D01*
X117868857Y-85622397D01*
X118058346Y-85690000D01*
X116523440Y-85690000D01*
X116523440Y-84192302D01*
X117190856Y-84192302D01*
X117218638Y-84747368D01*
X117377603Y-85131143D01*
X117619787Y-85200608D01*
X118420395Y-84400000D01*
X118779605Y-84400000D01*
X119580213Y-85200608D01*
X119822397Y-85131143D01*
X120009144Y-84607698D01*
X119981362Y-84052632D01*
X119822397Y-83668857D01*
X119580213Y-83599392D01*
X118779605Y-84400000D01*
X118420395Y-84400000D01*
X117619787Y-83599392D01*
X117377603Y-83668857D01*
X117190856Y-84192302D01*
X116523440Y-84192302D01*
X116523440Y-83976000D01*
X116479162Y-83740683D01*
X116340090Y-83524559D01*
X116186752Y-83419787D01*
X117799392Y-83419787D01*
X118600000Y-84220395D01*
X119400608Y-83419787D01*
X119331143Y-83177603D01*
X118807698Y-82990856D01*
X118252632Y-83018638D01*
X117868857Y-83177603D01*
X117799392Y-83419787D01*
X116186752Y-83419787D01*
X116127890Y-83379569D01*
X115876000Y-83328560D01*
X114876000Y-83328560D01*
X114766006Y-83349257D01*
X111505078Y-80088328D01*
X111505162Y-79991833D01*
X111363117Y-79648057D01*
X111100327Y-79384808D01*
X110756799Y-79242162D01*
X110384833Y-79241838D01*
X110041057Y-79383883D01*
X110000574Y-79424295D01*
X109867799Y-79369162D01*
X109600184Y-79368929D01*
X109449327Y-79217808D01*
X109105799Y-79075162D01*
X109007827Y-79075077D01*
X108714289Y-78781539D01*
X108710596Y-78762975D01*
X108553675Y-78528125D01*
X108499000Y-78491593D01*
X108499000Y-78392998D01*
X108397252Y-78392998D01*
X108499000Y-78291250D01*
X108499000Y-78253691D01*
X108402327Y-78020302D01*
X108223699Y-77841673D01*
X107990310Y-77745000D01*
X107915250Y-77745000D01*
X107776002Y-77884248D01*
X107776002Y-77745000D01*
X107757199Y-77745000D01*
X107757199Y-76727983D01*
X107722664Y-76554367D01*
X107838573Y-76438458D01*
X107838576Y-76438456D01*
X107973769Y-76236125D01*
X107995498Y-76203605D01*
X108050602Y-75926581D01*
X108050601Y-75926576D01*
X108050601Y-75307457D01*
X108063796Y-75287709D01*
X108118900Y-75010684D01*
X108118900Y-74552500D01*
X108187192Y-74484327D01*
X108329838Y-74140799D01*
X108330162Y-73768833D01*
X108280000Y-73647431D01*
X108280000Y-70585760D01*
X110099242Y-70585760D01*
X110302289Y-73165723D01*
X110322109Y-73417563D01*
X110436796Y-73642648D01*
X110628889Y-73806710D01*
X110869144Y-73884774D01*
X113900330Y-73646214D01*
X114046135Y-73475498D01*
X113783356Y-70136573D01*
X110245047Y-70415044D01*
X110099242Y-70585760D01*
X108280000Y-70585760D01*
X108280000Y-69229615D01*
X108280001Y-69229610D01*
X108223810Y-68947126D01*
X108212633Y-68890935D01*
X108020790Y-68603820D01*
X108020787Y-68603818D01*
X106601188Y-67184218D01*
X109831535Y-67184218D01*
X109851355Y-67436058D01*
X110054402Y-70016022D01*
X110225118Y-70161827D01*
X113763427Y-69883356D01*
X113500648Y-66544430D01*
X113329932Y-66398625D01*
X110298746Y-66637185D01*
X110073661Y-66751871D01*
X109909598Y-66943964D01*
X109831535Y-67184218D01*
X106601188Y-67184218D01*
X106502000Y-67085030D01*
X106502000Y-66080000D01*
X121111000Y-66080000D01*
X121111000Y-71516472D01*
G36*
X99704117Y-71482294D02*
X99704116Y-71482299D01*
X99718305Y-71553629D01*
X99759221Y-71759324D01*
X99831390Y-71867333D01*
X99916142Y-71994174D01*
X99998801Y-72076833D01*
X99998801Y-76389450D01*
X98924328Y-77463922D01*
X98827833Y-77463838D01*
X98484057Y-77605883D01*
X98220808Y-77868673D01*
X98078162Y-78212201D01*
X98077838Y-78584167D01*
X98219883Y-78927943D01*
X98482673Y-79191192D01*
X98826201Y-79333838D01*
X99198167Y-79334162D01*
X99541943Y-79192117D01*
X99805192Y-78929327D01*
X99947838Y-78585799D01*
X99947923Y-78487826D01*
X101234573Y-77201176D01*
X101234576Y-77201174D01*
X101391497Y-76966324D01*
X101446601Y-76689299D01*
X101446601Y-71776983D01*
X101391497Y-71499958D01*
X101234576Y-71265108D01*
X101151917Y-71182449D01*
X101151917Y-66080000D01*
X104732000Y-66080000D01*
X104732000Y-67451605D01*
X104731999Y-67451610D01*
X104769891Y-67642100D01*
X104799367Y-67790285D01*
X104941371Y-68002810D01*
X104991210Y-68077400D01*
X106510000Y-69596189D01*
X106510000Y-73647178D01*
X106460162Y-73767201D01*
X106459838Y-74139167D01*
X106601883Y-74482943D01*
X106671100Y-74552281D01*
X106671100Y-74782210D01*
X106657905Y-74801958D01*
X106657905Y-74801959D01*
X106602800Y-75078983D01*
X106602801Y-75078988D01*
X106602801Y-75626732D01*
X106568944Y-75660588D01*
X106549890Y-75647569D01*
X106298000Y-75596560D01*
X106072310Y-75596560D01*
X105914250Y-75438500D01*
X105525440Y-75438500D01*
X105525440Y-75263500D01*
X105914250Y-75263500D01*
X106073000Y-75104750D01*
X106073000Y-75049690D01*
X105976327Y-74816301D01*
X105797698Y-74637673D01*
X105564309Y-74541000D01*
X105521750Y-74541000D01*
X105363000Y-74699750D01*
X105363000Y-74757054D01*
X105342090Y-74724559D01*
X105129890Y-74579569D01*
X105083406Y-74570156D01*
X105054250Y-74541000D01*
X105011691Y-74541000D01*
X104987964Y-74550828D01*
X104878000Y-74528560D01*
X104578000Y-74528560D01*
X104342683Y-74572838D01*
X104194893Y-74667938D01*
X104123175Y-74682204D01*
X103951555Y-74796876D01*
X103907833Y-74796838D01*
X103564057Y-74938883D01*
X103300808Y-75201673D01*
X103158162Y-75545201D01*
X103157838Y-75917167D01*
X103299883Y-76260943D01*
X103315310Y-76276397D01*
X103300808Y-76290873D01*
X103158162Y-76634401D01*
X103157838Y-77006367D01*
X103299883Y-77350143D01*
X103369100Y-77419481D01*
X103369100Y-78144995D01*
X103369099Y-78145000D01*
X103412045Y-78360900D01*
X103424204Y-78422025D01*
X103536441Y-78590000D01*
X103538940Y-78593741D01*
X103538838Y-78711167D01*
X103572527Y-78792700D01*
X102858682Y-78792700D01*
X102581657Y-78847804D01*
X102346807Y-79004725D01*
X102346805Y-79004728D01*
X100914125Y-80437407D01*
X100757204Y-80672257D01*
X100750503Y-80705943D01*
X100702099Y-80949282D01*
X100702100Y-80949287D01*
X100702100Y-81102500D01*
X100633808Y-81170673D01*
X100491162Y-81514201D01*
X100490838Y-81886167D01*
X100632883Y-82229943D01*
X100895673Y-82493192D01*
X101239201Y-82635838D01*
X101611167Y-82636162D01*
X101954943Y-82494117D01*
X102218192Y-82231327D01*
X102262430Y-82124791D01*
X102422637Y-82285278D01*
X103023352Y-82534716D01*
X103673795Y-82535284D01*
X104274943Y-82286894D01*
X104735278Y-81827363D01*
X104819763Y-81623900D01*
X105322813Y-81623900D01*
X105322818Y-81623901D01*
X105553881Y-81577939D01*
X105599843Y-81568796D01*
X105834693Y-81411875D01*
X106391240Y-80855328D01*
X106542127Y-81006478D01*
X106885655Y-81149124D01*
X106983627Y-81149209D01*
X111222291Y-85387872D01*
X111222293Y-85387875D01*
X111457143Y-85544796D01*
X111728560Y-85598784D01*
X111728560Y-85690000D01*
X100136207Y-85690000D01*
X100390303Y-85585010D01*
X100783629Y-85192370D01*
X100996757Y-84679100D01*
X100997242Y-84123339D01*
X100785010Y-83609697D01*
X100392370Y-83216371D01*
X99879100Y-83003243D01*
X99323339Y-83002758D01*
X99092811Y-83098010D01*
X99266757Y-82679100D01*
X99267242Y-82123339D01*
X99055010Y-81609697D01*
X98662370Y-81216371D01*
X98149100Y-81003243D01*
X97593339Y-81002758D01*
X97489000Y-81045870D01*
X97489000Y-73635838D01*
X97499515Y-73646371D01*
X97953266Y-73834785D01*
X98444579Y-73835214D01*
X98898657Y-73647592D01*
X99246371Y-73300485D01*
X99434785Y-72846734D01*
X99435214Y-72355421D01*
X99247592Y-71901343D01*
X98900485Y-71553629D01*
X98446734Y-71365215D01*
X97955421Y-71364786D01*
X97501343Y-71552408D01*
X97489000Y-71564729D01*
X97489000Y-66080000D01*
X99704117Y-66080000D01*
X99704117Y-71482294D01*
X99704117Y-71482294D01*
G37*
X99704117Y-71482294D02*
X99704116Y-71482299D01*
X99718305Y-71553629D01*
X99759221Y-71759324D01*
X99831390Y-71867333D01*
X99916142Y-71994174D01*
X99998801Y-72076833D01*
X99998801Y-76389450D01*
X98924328Y-77463922D01*
X98827833Y-77463838D01*
X98484057Y-77605883D01*
X98220808Y-77868673D01*
X98078162Y-78212201D01*
X98077838Y-78584167D01*
X98219883Y-78927943D01*
X98482673Y-79191192D01*
X98826201Y-79333838D01*
X99198167Y-79334162D01*
X99541943Y-79192117D01*
X99805192Y-78929327D01*
X99947838Y-78585799D01*
X99947923Y-78487826D01*
X101234573Y-77201176D01*
X101234576Y-77201174D01*
X101391497Y-76966324D01*
X101446601Y-76689299D01*
X101446601Y-71776983D01*
X101391497Y-71499958D01*
X101234576Y-71265108D01*
X101151917Y-71182449D01*
X101151917Y-66080000D01*
X104732000Y-66080000D01*
X104732000Y-67451605D01*
X104731999Y-67451610D01*
X104769891Y-67642100D01*
X104799367Y-67790285D01*
X104941371Y-68002810D01*
X104991210Y-68077400D01*
X106510000Y-69596189D01*
X106510000Y-73647178D01*
X106460162Y-73767201D01*
X106459838Y-74139167D01*
X106601883Y-74482943D01*
X106671100Y-74552281D01*
X106671100Y-74782210D01*
X106657905Y-74801958D01*
X106657905Y-74801959D01*
X106602800Y-75078983D01*
X106602801Y-75078988D01*
X106602801Y-75626732D01*
X106568944Y-75660588D01*
X106549890Y-75647569D01*
X106298000Y-75596560D01*
X106072310Y-75596560D01*
X105914250Y-75438500D01*
X105525440Y-75438500D01*
X105525440Y-75263500D01*
X105914250Y-75263500D01*
X106073000Y-75104750D01*
X106073000Y-75049690D01*
X105976327Y-74816301D01*
X105797698Y-74637673D01*
X105564309Y-74541000D01*
X105521750Y-74541000D01*
X105363000Y-74699750D01*
X105363000Y-74757054D01*
X105342090Y-74724559D01*
X105129890Y-74579569D01*
X105083406Y-74570156D01*
X105054250Y-74541000D01*
X105011691Y-74541000D01*
X104987964Y-74550828D01*
X104878000Y-74528560D01*
X104578000Y-74528560D01*
X104342683Y-74572838D01*
X104194893Y-74667938D01*
X104123175Y-74682204D01*
X103951555Y-74796876D01*
X103907833Y-74796838D01*
X103564057Y-74938883D01*
X103300808Y-75201673D01*
X103158162Y-75545201D01*
X103157838Y-75917167D01*
X103299883Y-76260943D01*
X103315310Y-76276397D01*
X103300808Y-76290873D01*
X103158162Y-76634401D01*
X103157838Y-77006367D01*
X103299883Y-77350143D01*
X103369100Y-77419481D01*
X103369100Y-78144995D01*
X103369099Y-78145000D01*
X103412045Y-78360900D01*
X103424204Y-78422025D01*
X103536441Y-78590000D01*
X103538940Y-78593741D01*
X103538838Y-78711167D01*
X103572527Y-78792700D01*
X102858682Y-78792700D01*
X102581657Y-78847804D01*
X102346807Y-79004725D01*
X102346805Y-79004728D01*
X100914125Y-80437407D01*
X100757204Y-80672257D01*
X100750503Y-80705943D01*
X100702099Y-80949282D01*
X100702100Y-80949287D01*
X100702100Y-81102500D01*
X100633808Y-81170673D01*
X100491162Y-81514201D01*
X100490838Y-81886167D01*
X100632883Y-82229943D01*
X100895673Y-82493192D01*
X101239201Y-82635838D01*
X101611167Y-82636162D01*
X101954943Y-82494117D01*
X102218192Y-82231327D01*
X102262430Y-82124791D01*
X102422637Y-82285278D01*
X103023352Y-82534716D01*
X103673795Y-82535284D01*
X104274943Y-82286894D01*
X104735278Y-81827363D01*
X104819763Y-81623900D01*
X105322813Y-81623900D01*
X105322818Y-81623901D01*
X105553881Y-81577939D01*
X105599843Y-81568796D01*
X105834693Y-81411875D01*
X106391240Y-80855328D01*
X106542127Y-81006478D01*
X106885655Y-81149124D01*
X106983627Y-81149209D01*
X111222291Y-85387872D01*
X111222293Y-85387875D01*
X111457143Y-85544796D01*
X111728560Y-85598784D01*
X111728560Y-85690000D01*
X100136207Y-85690000D01*
X100390303Y-85585010D01*
X100783629Y-85192370D01*
X100996757Y-84679100D01*
X100997242Y-84123339D01*
X100785010Y-83609697D01*
X100392370Y-83216371D01*
X99879100Y-83003243D01*
X99323339Y-83002758D01*
X99092811Y-83098010D01*
X99266757Y-82679100D01*
X99267242Y-82123339D01*
X99055010Y-81609697D01*
X98662370Y-81216371D01*
X98149100Y-81003243D01*
X97593339Y-81002758D01*
X97489000Y-81045870D01*
X97489000Y-73635838D01*
X97499515Y-73646371D01*
X97953266Y-73834785D01*
X98444579Y-73835214D01*
X98898657Y-73647592D01*
X99246371Y-73300485D01*
X99434785Y-72846734D01*
X99435214Y-72355421D01*
X99247592Y-71901343D01*
X98900485Y-71553629D01*
X98446734Y-71365215D01*
X97955421Y-71364786D01*
X97501343Y-71552408D01*
X97489000Y-71564729D01*
X97489000Y-66080000D01*
X99704117Y-66080000D01*
X99704117Y-71482294D01*
G36*
X106309399Y-77697054D02*
X106144000Y-77663560D01*
X105864000Y-77663560D01*
X105739595Y-77686969D01*
X105624000Y-77663560D01*
X105499440Y-77663560D01*
X105499440Y-77549500D01*
X105888250Y-77549500D01*
X106046310Y-77391440D01*
X106298000Y-77391440D01*
X106309399Y-77389295D01*
X106309399Y-77697054D01*
X106309399Y-77697054D01*
G37*
X106309399Y-77697054D02*
X106144000Y-77663560D01*
X105864000Y-77663560D01*
X105739595Y-77686969D01*
X105624000Y-77663560D01*
X105499440Y-77663560D01*
X105499440Y-77549500D01*
X105888250Y-77549500D01*
X106046310Y-77391440D01*
X106298000Y-77391440D01*
X106309399Y-77389295D01*
X106309399Y-77697054D01*
M02*
