%FSLAX45Y45*%
G04 Gerber Fmt 4.5, Leading zero omitted, Abs format (unit mm)*
G04 Created by KiCad (PCBNEW 4.0.5+dfsg1-4) date Thu Nov  2 15:49:50 2017*
%MOMM*%
%LPD*%
G01*
G04 APERTURE LIST*
%ADD10C,0.127000*%
%ADD11C,0.150000*%
%ADD12C,0.200000*%
%ADD13C,0.300000*%
G04 APERTURE END LIST*
D10*
D11*
X9660000Y-5879020D02*
X9660000Y-8640000D01*
X12220320Y-5879020D02*
X9660000Y-5879020D01*
X12220320Y-7250620D02*
X12220320Y-5879020D01*
X12159360Y-7319200D02*
X12220320Y-7250620D01*
X12159360Y-8360600D02*
X12159360Y-7319200D01*
X12220320Y-8360600D02*
X12159360Y-8360600D01*
X12220320Y-8640000D02*
X12220320Y-8360600D01*
X9660000Y-8640000D02*
X12220320Y-8640000D01*
D12*
X9843200Y-6651500D02*
X9883200Y-6691500D01*
X9883200Y-6651500D02*
X9843200Y-6691500D01*
X9855900Y-7667500D02*
X9895900Y-7707500D01*
X9895900Y-7667500D02*
X9855900Y-7707500D01*
X9881300Y-7819900D02*
X9921300Y-7859900D01*
X9921300Y-7819900D02*
X9881300Y-7859900D01*
X9957500Y-7985000D02*
X9997500Y-8025000D01*
X9997500Y-7985000D02*
X9957500Y-8025000D01*
X9995600Y-7184900D02*
X10035600Y-7224900D01*
X10035600Y-7184900D02*
X9995600Y-7224900D01*
X10109900Y-6461000D02*
X10149900Y-6501000D01*
X10149900Y-6461000D02*
X10109900Y-6501000D01*
X10122600Y-8150100D02*
X10162600Y-8190100D01*
X10162600Y-8150100D02*
X10122600Y-8190100D01*
X10122600Y-8289800D02*
X10162600Y-8329800D01*
X10162600Y-8289800D02*
X10122600Y-8329800D01*
X10167052Y-7488571D02*
X10207052Y-7528571D01*
X10207052Y-7488571D02*
X10167052Y-7528571D01*
X10249600Y-6613400D02*
X10289600Y-6653400D01*
X10289600Y-6613400D02*
X10249600Y-6653400D01*
X10389300Y-7553200D02*
X10429300Y-7593200D01*
X10429300Y-7553200D02*
X10389300Y-7593200D01*
X10389300Y-7662120D02*
X10429300Y-7702120D01*
X10429300Y-7662120D02*
X10389300Y-7702120D01*
X10427400Y-7832600D02*
X10467400Y-7872600D01*
X10467400Y-7832600D02*
X10427400Y-7872600D01*
X10455340Y-7931660D02*
X10495340Y-7971660D01*
X10495340Y-7931660D02*
X10455340Y-7971660D01*
X10508330Y-7990080D02*
X10548330Y-8030080D01*
X10548330Y-7990080D02*
X10508330Y-8030080D01*
X10592500Y-7743700D02*
X10632500Y-7783700D01*
X10632500Y-7743700D02*
X10592500Y-7783700D01*
X10656000Y-7515100D02*
X10696000Y-7555100D01*
X10696000Y-7515100D02*
X10656000Y-7555100D01*
X10687245Y-8001429D02*
X10727245Y-8041429D01*
X10727245Y-8001429D02*
X10687245Y-8041429D01*
X10706800Y-6651500D02*
X10746800Y-6691500D01*
X10746800Y-6651500D02*
X10706800Y-6691500D01*
X10719500Y-7375400D02*
X10759500Y-7415400D01*
X10759500Y-7375400D02*
X10719500Y-7415400D01*
X10740000Y-7680000D02*
X10780000Y-7720000D01*
X10780000Y-7680000D02*
X10740000Y-7720000D01*
X10871900Y-7981000D02*
X10911900Y-8021000D01*
X10911900Y-7981000D02*
X10871900Y-8021000D01*
X10948100Y-8010400D02*
X10988100Y-8050400D01*
X10988100Y-8010400D02*
X10948100Y-8050400D01*
X11037000Y-7997700D02*
X11077000Y-8037700D01*
X11077000Y-7997700D02*
X11037000Y-8037700D01*
X11125900Y-6740400D02*
X11165900Y-6780400D01*
X11165900Y-6740400D02*
X11125900Y-6780400D01*
X11494200Y-6727700D02*
X11534200Y-6767700D01*
X11534200Y-6727700D02*
X11494200Y-6767700D01*
X11506900Y-7223000D02*
X11546900Y-7263000D01*
X11546900Y-7223000D02*
X11506900Y-7263000D01*
X11506900Y-7393520D02*
X11546900Y-7433520D01*
X11546900Y-7393520D02*
X11506900Y-7433520D01*
X11583100Y-7680200D02*
X11623100Y-7720200D01*
X11623100Y-7680200D02*
X11583100Y-7720200D01*
X11659300Y-8112000D02*
X11699300Y-8152000D01*
X11699300Y-8112000D02*
X11659300Y-8152000D01*
X11710100Y-7755000D02*
X11750100Y-7795000D01*
X11750100Y-7755000D02*
X11710100Y-7795000D01*
X11760900Y-6816600D02*
X11800900Y-6856600D01*
X11800900Y-6816600D02*
X11760900Y-6856600D01*
X11786300Y-7692900D02*
X11826300Y-7732900D01*
X11826300Y-7692900D02*
X11786300Y-7732900D01*
X11815899Y-6761601D02*
X11855899Y-6801601D01*
X11855899Y-6761601D02*
X11815899Y-6801601D01*
X11877055Y-6713542D02*
X11917055Y-6753542D01*
X11917055Y-6713542D02*
X11877055Y-6753542D01*
X11877498Y-7628973D02*
X11917498Y-7668973D01*
X11917498Y-7628973D02*
X11877498Y-7668973D01*
X9825100Y-8240000D02*
G75*
G03X9825100Y-8240000I-38100J0D01*
G01*
X9998100Y-8440000D02*
G75*
G03X9998100Y-8440000I-38100J0D01*
G01*
X11898100Y-8440000D02*
G75*
G03X11898100Y-8440000I-38100J0D01*
G01*
X12180000Y-7470000D02*
X12180000Y-7550000D01*
X12140000Y-7510000D02*
X12220000Y-7510000D01*
X12150000Y-7435000D02*
X12150000Y-7585000D01*
X12210000Y-7435000D02*
X12210000Y-7585000D01*
X12150000Y-7585000D02*
G75*
G03X12210000Y-7585000I30000J0D01*
G01*
X12210000Y-7435000D02*
G75*
G03X12150000Y-7435000I-30000J0D01*
G01*
X12180000Y-8220000D02*
X12180000Y-8300000D01*
X12140000Y-8260000D02*
X12220000Y-8260000D01*
X12150000Y-8185000D02*
X12150000Y-8335000D01*
X12210000Y-8185000D02*
X12210000Y-8335000D01*
X12150000Y-8335000D02*
G75*
G03X12210000Y-8335000I30000J0D01*
G01*
X12210000Y-8185000D02*
G75*
G03X12150000Y-8185000I-30000J0D01*
G01*
D13*
X9923929Y-9113214D02*
X9923929Y-8813214D01*
X9995357Y-8813214D01*
X10038214Y-8827500D01*
X10066786Y-8856072D01*
X10081071Y-8884643D01*
X10095357Y-8941786D01*
X10095357Y-8984643D01*
X10081071Y-9041786D01*
X10066786Y-9070357D01*
X10038214Y-9098929D01*
X9995357Y-9113214D01*
X9923929Y-9113214D01*
X10223929Y-9113214D02*
X10223929Y-8913214D01*
X10223929Y-8970357D02*
X10238214Y-8941786D01*
X10252500Y-8927500D01*
X10281071Y-8913214D01*
X10309643Y-8913214D01*
X10409643Y-9113214D02*
X10409643Y-8913214D01*
X10409643Y-8813214D02*
X10395357Y-8827500D01*
X10409643Y-8841786D01*
X10423929Y-8827500D01*
X10409643Y-8813214D01*
X10409643Y-8841786D01*
X10595357Y-9113214D02*
X10566786Y-9098929D01*
X10552500Y-9070357D01*
X10552500Y-8813214D01*
X10752500Y-9113214D02*
X10723929Y-9098929D01*
X10709643Y-9070357D01*
X10709643Y-8813214D01*
X11095357Y-9113214D02*
X11095357Y-8813214D01*
X11195357Y-9027500D01*
X11295357Y-8813214D01*
X11295357Y-9113214D01*
X11566786Y-9113214D02*
X11566786Y-8956072D01*
X11552500Y-8927500D01*
X11523928Y-8913214D01*
X11466786Y-8913214D01*
X11438214Y-8927500D01*
X11566786Y-9098929D02*
X11538214Y-9113214D01*
X11466786Y-9113214D01*
X11438214Y-9098929D01*
X11423928Y-9070357D01*
X11423928Y-9041786D01*
X11438214Y-9013214D01*
X11466786Y-8998929D01*
X11538214Y-8998929D01*
X11566786Y-8984643D01*
X11709643Y-8913214D02*
X11709643Y-9213214D01*
X11709643Y-8927500D02*
X11738214Y-8913214D01*
X11795357Y-8913214D01*
X11823928Y-8927500D01*
X11838214Y-8941786D01*
X11852500Y-8970357D01*
X11852500Y-9056072D01*
X11838214Y-9084643D01*
X11823928Y-9098929D01*
X11795357Y-9113214D01*
X11738214Y-9113214D01*
X11709643Y-9098929D01*
X11981071Y-9084643D02*
X11995357Y-9098929D01*
X11981071Y-9113214D01*
X11966786Y-9098929D01*
X11981071Y-9084643D01*
X11981071Y-9113214D01*
X11981071Y-8927500D02*
X11995357Y-8941786D01*
X11981071Y-8956072D01*
X11966786Y-8941786D01*
X11981071Y-8927500D01*
X11981071Y-8956072D01*
X9612500Y-9587500D02*
X9652500Y-9627500D01*
X9652500Y-9587500D02*
X9612500Y-9627500D01*
X9981071Y-9443214D02*
X10009643Y-9443214D01*
X10038214Y-9457500D01*
X10052500Y-9471786D01*
X10066786Y-9500357D01*
X10081071Y-9557500D01*
X10081071Y-9628929D01*
X10066786Y-9686072D01*
X10052500Y-9714643D01*
X10038214Y-9728929D01*
X10009643Y-9743214D01*
X9981071Y-9743214D01*
X9952500Y-9728929D01*
X9938214Y-9714643D01*
X9923929Y-9686072D01*
X9909643Y-9628929D01*
X9909643Y-9557500D01*
X9923929Y-9500357D01*
X9938214Y-9471786D01*
X9952500Y-9457500D01*
X9981071Y-9443214D01*
X10209643Y-9714643D02*
X10223929Y-9728929D01*
X10209643Y-9743214D01*
X10195357Y-9728929D01*
X10209643Y-9714643D01*
X10209643Y-9743214D01*
X10481071Y-9543214D02*
X10481071Y-9743214D01*
X10409643Y-9428929D02*
X10338214Y-9643214D01*
X10523928Y-9643214D01*
X10695357Y-9443214D02*
X10723929Y-9443214D01*
X10752500Y-9457500D01*
X10766786Y-9471786D01*
X10781071Y-9500357D01*
X10795357Y-9557500D01*
X10795357Y-9628929D01*
X10781071Y-9686072D01*
X10766786Y-9714643D01*
X10752500Y-9728929D01*
X10723929Y-9743214D01*
X10695357Y-9743214D01*
X10666786Y-9728929D01*
X10652500Y-9714643D01*
X10638214Y-9686072D01*
X10623929Y-9628929D01*
X10623929Y-9557500D01*
X10638214Y-9500357D01*
X10652500Y-9471786D01*
X10666786Y-9457500D01*
X10695357Y-9443214D01*
X10923929Y-9743214D02*
X10923929Y-9543214D01*
X10923929Y-9571786D02*
X10938214Y-9557500D01*
X10966786Y-9543214D01*
X11009643Y-9543214D01*
X11038214Y-9557500D01*
X11052500Y-9586072D01*
X11052500Y-9743214D01*
X11052500Y-9586072D02*
X11066786Y-9557500D01*
X11095357Y-9543214D01*
X11138214Y-9543214D01*
X11166786Y-9557500D01*
X11181071Y-9586072D01*
X11181071Y-9743214D01*
X11323928Y-9743214D02*
X11323928Y-9543214D01*
X11323928Y-9571786D02*
X11338214Y-9557500D01*
X11366786Y-9543214D01*
X11409643Y-9543214D01*
X11438214Y-9557500D01*
X11452500Y-9586072D01*
X11452500Y-9743214D01*
X11452500Y-9586072D02*
X11466786Y-9557500D01*
X11495357Y-9543214D01*
X11538214Y-9543214D01*
X11566786Y-9557500D01*
X11581071Y-9586072D01*
X11581071Y-9743214D01*
X12166786Y-9428929D02*
X11909643Y-9814643D01*
X12552500Y-9443214D02*
X12581071Y-9443214D01*
X12609643Y-9457500D01*
X12623928Y-9471786D01*
X12638214Y-9500357D01*
X12652500Y-9557500D01*
X12652500Y-9628929D01*
X12638214Y-9686072D01*
X12623928Y-9714643D01*
X12609643Y-9728929D01*
X12581071Y-9743214D01*
X12552500Y-9743214D01*
X12523928Y-9728929D01*
X12509643Y-9714643D01*
X12495357Y-9686072D01*
X12481071Y-9628929D01*
X12481071Y-9557500D01*
X12495357Y-9500357D01*
X12509643Y-9471786D01*
X12523928Y-9457500D01*
X12552500Y-9443214D01*
X12781071Y-9714643D02*
X12795357Y-9728929D01*
X12781071Y-9743214D01*
X12766786Y-9728929D01*
X12781071Y-9714643D01*
X12781071Y-9743214D01*
X12981071Y-9443214D02*
X13009643Y-9443214D01*
X13038214Y-9457500D01*
X13052500Y-9471786D01*
X13066785Y-9500357D01*
X13081071Y-9557500D01*
X13081071Y-9628929D01*
X13066785Y-9686072D01*
X13052500Y-9714643D01*
X13038214Y-9728929D01*
X13009643Y-9743214D01*
X12981071Y-9743214D01*
X12952500Y-9728929D01*
X12938214Y-9714643D01*
X12923928Y-9686072D01*
X12909643Y-9628929D01*
X12909643Y-9557500D01*
X12923928Y-9500357D01*
X12938214Y-9471786D01*
X12952500Y-9457500D01*
X12981071Y-9443214D01*
X13366785Y-9743214D02*
X13195357Y-9743214D01*
X13281071Y-9743214D02*
X13281071Y-9443214D01*
X13252500Y-9486072D01*
X13223928Y-9514643D01*
X13195357Y-9528929D01*
X13623928Y-9443214D02*
X13566785Y-9443214D01*
X13538214Y-9457500D01*
X13523928Y-9471786D01*
X13495357Y-9514643D01*
X13481071Y-9571786D01*
X13481071Y-9686072D01*
X13495357Y-9714643D01*
X13509643Y-9728929D01*
X13538214Y-9743214D01*
X13595357Y-9743214D01*
X13623928Y-9728929D01*
X13638214Y-9714643D01*
X13652500Y-9686072D01*
X13652500Y-9614643D01*
X13638214Y-9586072D01*
X13623928Y-9571786D01*
X13595357Y-9557500D01*
X13538214Y-9557500D01*
X13509643Y-9571786D01*
X13495357Y-9586072D01*
X13481071Y-9614643D01*
X13766786Y-9443214D02*
X13766786Y-9500357D01*
X13881071Y-9443214D02*
X13881071Y-9500357D01*
X14323928Y-9857500D02*
X14309643Y-9843214D01*
X14281071Y-9800357D01*
X14266785Y-9771786D01*
X14252500Y-9728929D01*
X14238214Y-9657500D01*
X14238214Y-9600357D01*
X14252500Y-9528929D01*
X14266785Y-9486072D01*
X14281071Y-9457500D01*
X14309643Y-9414643D01*
X14323928Y-9400357D01*
X14409643Y-9443214D02*
X14595357Y-9443214D01*
X14495357Y-9557500D01*
X14538214Y-9557500D01*
X14566785Y-9571786D01*
X14581071Y-9586072D01*
X14595357Y-9614643D01*
X14595357Y-9686072D01*
X14581071Y-9714643D01*
X14566785Y-9728929D01*
X14538214Y-9743214D01*
X14452500Y-9743214D01*
X14423928Y-9728929D01*
X14409643Y-9714643D01*
X14852500Y-9443214D02*
X14795357Y-9443214D01*
X14766785Y-9457500D01*
X14752500Y-9471786D01*
X14723928Y-9514643D01*
X14709643Y-9571786D01*
X14709643Y-9686072D01*
X14723928Y-9714643D01*
X14738214Y-9728929D01*
X14766785Y-9743214D01*
X14823928Y-9743214D01*
X14852500Y-9728929D01*
X14866785Y-9714643D01*
X14881071Y-9686072D01*
X14881071Y-9614643D01*
X14866785Y-9586072D01*
X14852500Y-9571786D01*
X14823928Y-9557500D01*
X14766785Y-9557500D01*
X14738214Y-9571786D01*
X14723928Y-9586072D01*
X14709643Y-9614643D01*
X15238214Y-9743214D02*
X15238214Y-9443214D01*
X15366785Y-9743214D02*
X15366785Y-9586072D01*
X15352500Y-9557500D01*
X15323928Y-9543214D01*
X15281071Y-9543214D01*
X15252500Y-9557500D01*
X15238214Y-9571786D01*
X15552500Y-9743214D02*
X15523928Y-9728929D01*
X15509643Y-9714643D01*
X15495357Y-9686072D01*
X15495357Y-9600357D01*
X15509643Y-9571786D01*
X15523928Y-9557500D01*
X15552500Y-9543214D01*
X15595357Y-9543214D01*
X15623928Y-9557500D01*
X15638214Y-9571786D01*
X15652500Y-9600357D01*
X15652500Y-9686072D01*
X15638214Y-9714643D01*
X15623928Y-9728929D01*
X15595357Y-9743214D01*
X15552500Y-9743214D01*
X15823928Y-9743214D02*
X15795357Y-9728929D01*
X15781071Y-9700357D01*
X15781071Y-9443214D01*
X16052500Y-9728929D02*
X16023928Y-9743214D01*
X15966786Y-9743214D01*
X15938214Y-9728929D01*
X15923928Y-9700357D01*
X15923928Y-9586072D01*
X15938214Y-9557500D01*
X15966786Y-9543214D01*
X16023928Y-9543214D01*
X16052500Y-9557500D01*
X16066786Y-9586072D01*
X16066786Y-9614643D01*
X15923928Y-9643214D01*
X16181071Y-9728929D02*
X16209643Y-9743214D01*
X16266786Y-9743214D01*
X16295357Y-9728929D01*
X16309643Y-9700357D01*
X16309643Y-9686072D01*
X16295357Y-9657500D01*
X16266786Y-9643214D01*
X16223928Y-9643214D01*
X16195357Y-9628929D01*
X16181071Y-9600357D01*
X16181071Y-9586072D01*
X16195357Y-9557500D01*
X16223928Y-9543214D01*
X16266786Y-9543214D01*
X16295357Y-9557500D01*
X16409643Y-9857500D02*
X16423928Y-9843214D01*
X16452500Y-9800357D01*
X16466786Y-9771786D01*
X16481071Y-9728929D01*
X16495357Y-9657500D01*
X16495357Y-9600357D01*
X16481071Y-9528929D01*
X16466786Y-9486072D01*
X16452500Y-9457500D01*
X16423928Y-9414643D01*
X16409643Y-9400357D01*
X9652500Y-10003500D02*
G75*
G03X9652500Y-10003500I-38100J0D01*
G01*
X9981071Y-9839214D02*
X10009643Y-9839214D01*
X10038214Y-9853500D01*
X10052500Y-9867786D01*
X10066786Y-9896357D01*
X10081071Y-9953500D01*
X10081071Y-10024929D01*
X10066786Y-10082072D01*
X10052500Y-10110643D01*
X10038214Y-10124929D01*
X10009643Y-10139214D01*
X9981071Y-10139214D01*
X9952500Y-10124929D01*
X9938214Y-10110643D01*
X9923929Y-10082072D01*
X9909643Y-10024929D01*
X9909643Y-9953500D01*
X9923929Y-9896357D01*
X9938214Y-9867786D01*
X9952500Y-9853500D01*
X9981071Y-9839214D01*
X10209643Y-10110643D02*
X10223929Y-10124929D01*
X10209643Y-10139214D01*
X10195357Y-10124929D01*
X10209643Y-10110643D01*
X10209643Y-10139214D01*
X10323928Y-9839214D02*
X10523928Y-9839214D01*
X10395357Y-10139214D01*
X10766786Y-9839214D02*
X10709643Y-9839214D01*
X10681071Y-9853500D01*
X10666786Y-9867786D01*
X10638214Y-9910643D01*
X10623929Y-9967786D01*
X10623929Y-10082072D01*
X10638214Y-10110643D01*
X10652500Y-10124929D01*
X10681071Y-10139214D01*
X10738214Y-10139214D01*
X10766786Y-10124929D01*
X10781071Y-10110643D01*
X10795357Y-10082072D01*
X10795357Y-10010643D01*
X10781071Y-9982072D01*
X10766786Y-9967786D01*
X10738214Y-9953500D01*
X10681071Y-9953500D01*
X10652500Y-9967786D01*
X10638214Y-9982072D01*
X10623929Y-10010643D01*
X10923929Y-10139214D02*
X10923929Y-9939214D01*
X10923929Y-9967786D02*
X10938214Y-9953500D01*
X10966786Y-9939214D01*
X11009643Y-9939214D01*
X11038214Y-9953500D01*
X11052500Y-9982072D01*
X11052500Y-10139214D01*
X11052500Y-9982072D02*
X11066786Y-9953500D01*
X11095357Y-9939214D01*
X11138214Y-9939214D01*
X11166786Y-9953500D01*
X11181071Y-9982072D01*
X11181071Y-10139214D01*
X11323928Y-10139214D02*
X11323928Y-9939214D01*
X11323928Y-9967786D02*
X11338214Y-9953500D01*
X11366786Y-9939214D01*
X11409643Y-9939214D01*
X11438214Y-9953500D01*
X11452500Y-9982072D01*
X11452500Y-10139214D01*
X11452500Y-9982072D02*
X11466786Y-9953500D01*
X11495357Y-9939214D01*
X11538214Y-9939214D01*
X11566786Y-9953500D01*
X11581071Y-9982072D01*
X11581071Y-10139214D01*
X12166786Y-9824929D02*
X11909643Y-10210643D01*
X12552500Y-9839214D02*
X12581071Y-9839214D01*
X12609643Y-9853500D01*
X12623928Y-9867786D01*
X12638214Y-9896357D01*
X12652500Y-9953500D01*
X12652500Y-10024929D01*
X12638214Y-10082072D01*
X12623928Y-10110643D01*
X12609643Y-10124929D01*
X12581071Y-10139214D01*
X12552500Y-10139214D01*
X12523928Y-10124929D01*
X12509643Y-10110643D01*
X12495357Y-10082072D01*
X12481071Y-10024929D01*
X12481071Y-9953500D01*
X12495357Y-9896357D01*
X12509643Y-9867786D01*
X12523928Y-9853500D01*
X12552500Y-9839214D01*
X12781071Y-10110643D02*
X12795357Y-10124929D01*
X12781071Y-10139214D01*
X12766786Y-10124929D01*
X12781071Y-10110643D01*
X12781071Y-10139214D01*
X12981071Y-9839214D02*
X13009643Y-9839214D01*
X13038214Y-9853500D01*
X13052500Y-9867786D01*
X13066785Y-9896357D01*
X13081071Y-9953500D01*
X13081071Y-10024929D01*
X13066785Y-10082072D01*
X13052500Y-10110643D01*
X13038214Y-10124929D01*
X13009643Y-10139214D01*
X12981071Y-10139214D01*
X12952500Y-10124929D01*
X12938214Y-10110643D01*
X12923928Y-10082072D01*
X12909643Y-10024929D01*
X12909643Y-9953500D01*
X12923928Y-9896357D01*
X12938214Y-9867786D01*
X12952500Y-9853500D01*
X12981071Y-9839214D01*
X13181071Y-9839214D02*
X13366785Y-9839214D01*
X13266785Y-9953500D01*
X13309643Y-9953500D01*
X13338214Y-9967786D01*
X13352500Y-9982072D01*
X13366785Y-10010643D01*
X13366785Y-10082072D01*
X13352500Y-10110643D01*
X13338214Y-10124929D01*
X13309643Y-10139214D01*
X13223928Y-10139214D01*
X13195357Y-10124929D01*
X13181071Y-10110643D01*
X13552500Y-9839214D02*
X13581071Y-9839214D01*
X13609643Y-9853500D01*
X13623928Y-9867786D01*
X13638214Y-9896357D01*
X13652500Y-9953500D01*
X13652500Y-10024929D01*
X13638214Y-10082072D01*
X13623928Y-10110643D01*
X13609643Y-10124929D01*
X13581071Y-10139214D01*
X13552500Y-10139214D01*
X13523928Y-10124929D01*
X13509643Y-10110643D01*
X13495357Y-10082072D01*
X13481071Y-10024929D01*
X13481071Y-9953500D01*
X13495357Y-9896357D01*
X13509643Y-9867786D01*
X13523928Y-9853500D01*
X13552500Y-9839214D01*
X13766786Y-9839214D02*
X13766786Y-9896357D01*
X13881071Y-9839214D02*
X13881071Y-9896357D01*
X14323928Y-10253500D02*
X14309643Y-10239214D01*
X14281071Y-10196357D01*
X14266785Y-10167786D01*
X14252500Y-10124929D01*
X14238214Y-10053500D01*
X14238214Y-9996357D01*
X14252500Y-9924929D01*
X14266785Y-9882072D01*
X14281071Y-9853500D01*
X14309643Y-9810643D01*
X14323928Y-9796357D01*
X14409643Y-9839214D02*
X14595357Y-9839214D01*
X14495357Y-9953500D01*
X14538214Y-9953500D01*
X14566785Y-9967786D01*
X14581071Y-9982072D01*
X14595357Y-10010643D01*
X14595357Y-10082072D01*
X14581071Y-10110643D01*
X14566785Y-10124929D01*
X14538214Y-10139214D01*
X14452500Y-10139214D01*
X14423928Y-10124929D01*
X14409643Y-10110643D01*
X14952500Y-10139214D02*
X14952500Y-9839214D01*
X15081071Y-10139214D02*
X15081071Y-9982072D01*
X15066785Y-9953500D01*
X15038214Y-9939214D01*
X14995357Y-9939214D01*
X14966785Y-9953500D01*
X14952500Y-9967786D01*
X15266785Y-10139214D02*
X15238214Y-10124929D01*
X15223928Y-10110643D01*
X15209643Y-10082072D01*
X15209643Y-9996357D01*
X15223928Y-9967786D01*
X15238214Y-9953500D01*
X15266785Y-9939214D01*
X15309643Y-9939214D01*
X15338214Y-9953500D01*
X15352500Y-9967786D01*
X15366785Y-9996357D01*
X15366785Y-10082072D01*
X15352500Y-10110643D01*
X15338214Y-10124929D01*
X15309643Y-10139214D01*
X15266785Y-10139214D01*
X15538214Y-10139214D02*
X15509643Y-10124929D01*
X15495357Y-10096357D01*
X15495357Y-9839214D01*
X15766786Y-10124929D02*
X15738214Y-10139214D01*
X15681071Y-10139214D01*
X15652500Y-10124929D01*
X15638214Y-10096357D01*
X15638214Y-9982072D01*
X15652500Y-9953500D01*
X15681071Y-9939214D01*
X15738214Y-9939214D01*
X15766786Y-9953500D01*
X15781071Y-9982072D01*
X15781071Y-10010643D01*
X15638214Y-10039214D01*
X15895357Y-10124929D02*
X15923928Y-10139214D01*
X15981071Y-10139214D01*
X16009643Y-10124929D01*
X16023928Y-10096357D01*
X16023928Y-10082072D01*
X16009643Y-10053500D01*
X15981071Y-10039214D01*
X15938214Y-10039214D01*
X15909643Y-10024929D01*
X15895357Y-9996357D01*
X15895357Y-9982072D01*
X15909643Y-9953500D01*
X15938214Y-9939214D01*
X15981071Y-9939214D01*
X16009643Y-9953500D01*
X16123928Y-10253500D02*
X16138214Y-10239214D01*
X16166786Y-10196357D01*
X16181071Y-10167786D01*
X16195357Y-10124929D01*
X16209643Y-10053500D01*
X16209643Y-9996357D01*
X16195357Y-9924929D01*
X16181071Y-9882072D01*
X16166786Y-9853500D01*
X16138214Y-9810643D01*
X16123928Y-9796357D01*
X9612500Y-10359500D02*
X9612500Y-10439500D01*
X9572500Y-10399500D02*
X9652500Y-10399500D01*
X9981071Y-10235214D02*
X10009643Y-10235214D01*
X10038214Y-10249500D01*
X10052500Y-10263786D01*
X10066786Y-10292357D01*
X10081071Y-10349500D01*
X10081071Y-10420929D01*
X10066786Y-10478072D01*
X10052500Y-10506643D01*
X10038214Y-10520929D01*
X10009643Y-10535214D01*
X9981071Y-10535214D01*
X9952500Y-10520929D01*
X9938214Y-10506643D01*
X9923929Y-10478072D01*
X9909643Y-10420929D01*
X9909643Y-10349500D01*
X9923929Y-10292357D01*
X9938214Y-10263786D01*
X9952500Y-10249500D01*
X9981071Y-10235214D01*
X10209643Y-10506643D02*
X10223929Y-10520929D01*
X10209643Y-10535214D01*
X10195357Y-10520929D01*
X10209643Y-10506643D01*
X10209643Y-10535214D01*
X10395357Y-10363786D02*
X10366786Y-10349500D01*
X10352500Y-10335214D01*
X10338214Y-10306643D01*
X10338214Y-10292357D01*
X10352500Y-10263786D01*
X10366786Y-10249500D01*
X10395357Y-10235214D01*
X10452500Y-10235214D01*
X10481071Y-10249500D01*
X10495357Y-10263786D01*
X10509643Y-10292357D01*
X10509643Y-10306643D01*
X10495357Y-10335214D01*
X10481071Y-10349500D01*
X10452500Y-10363786D01*
X10395357Y-10363786D01*
X10366786Y-10378072D01*
X10352500Y-10392357D01*
X10338214Y-10420929D01*
X10338214Y-10478072D01*
X10352500Y-10506643D01*
X10366786Y-10520929D01*
X10395357Y-10535214D01*
X10452500Y-10535214D01*
X10481071Y-10520929D01*
X10495357Y-10506643D01*
X10509643Y-10478072D01*
X10509643Y-10420929D01*
X10495357Y-10392357D01*
X10481071Y-10378072D01*
X10452500Y-10363786D01*
X10695357Y-10235214D02*
X10723929Y-10235214D01*
X10752500Y-10249500D01*
X10766786Y-10263786D01*
X10781071Y-10292357D01*
X10795357Y-10349500D01*
X10795357Y-10420929D01*
X10781071Y-10478072D01*
X10766786Y-10506643D01*
X10752500Y-10520929D01*
X10723929Y-10535214D01*
X10695357Y-10535214D01*
X10666786Y-10520929D01*
X10652500Y-10506643D01*
X10638214Y-10478072D01*
X10623929Y-10420929D01*
X10623929Y-10349500D01*
X10638214Y-10292357D01*
X10652500Y-10263786D01*
X10666786Y-10249500D01*
X10695357Y-10235214D01*
X10923929Y-10535214D02*
X10923929Y-10335214D01*
X10923929Y-10363786D02*
X10938214Y-10349500D01*
X10966786Y-10335214D01*
X11009643Y-10335214D01*
X11038214Y-10349500D01*
X11052500Y-10378072D01*
X11052500Y-10535214D01*
X11052500Y-10378072D02*
X11066786Y-10349500D01*
X11095357Y-10335214D01*
X11138214Y-10335214D01*
X11166786Y-10349500D01*
X11181071Y-10378072D01*
X11181071Y-10535214D01*
X11323928Y-10535214D02*
X11323928Y-10335214D01*
X11323928Y-10363786D02*
X11338214Y-10349500D01*
X11366786Y-10335214D01*
X11409643Y-10335214D01*
X11438214Y-10349500D01*
X11452500Y-10378072D01*
X11452500Y-10535214D01*
X11452500Y-10378072D02*
X11466786Y-10349500D01*
X11495357Y-10335214D01*
X11538214Y-10335214D01*
X11566786Y-10349500D01*
X11581071Y-10378072D01*
X11581071Y-10535214D01*
X12166786Y-10220929D02*
X11909643Y-10606643D01*
X12552500Y-10235214D02*
X12581071Y-10235214D01*
X12609643Y-10249500D01*
X12623928Y-10263786D01*
X12638214Y-10292357D01*
X12652500Y-10349500D01*
X12652500Y-10420929D01*
X12638214Y-10478072D01*
X12623928Y-10506643D01*
X12609643Y-10520929D01*
X12581071Y-10535214D01*
X12552500Y-10535214D01*
X12523928Y-10520929D01*
X12509643Y-10506643D01*
X12495357Y-10478072D01*
X12481071Y-10420929D01*
X12481071Y-10349500D01*
X12495357Y-10292357D01*
X12509643Y-10263786D01*
X12523928Y-10249500D01*
X12552500Y-10235214D01*
X12781071Y-10506643D02*
X12795357Y-10520929D01*
X12781071Y-10535214D01*
X12766786Y-10520929D01*
X12781071Y-10506643D01*
X12781071Y-10535214D01*
X12981071Y-10235214D02*
X13009643Y-10235214D01*
X13038214Y-10249500D01*
X13052500Y-10263786D01*
X13066785Y-10292357D01*
X13081071Y-10349500D01*
X13081071Y-10420929D01*
X13066785Y-10478072D01*
X13052500Y-10506643D01*
X13038214Y-10520929D01*
X13009643Y-10535214D01*
X12981071Y-10535214D01*
X12952500Y-10520929D01*
X12938214Y-10506643D01*
X12923928Y-10478072D01*
X12909643Y-10420929D01*
X12909643Y-10349500D01*
X12923928Y-10292357D01*
X12938214Y-10263786D01*
X12952500Y-10249500D01*
X12981071Y-10235214D01*
X13181071Y-10235214D02*
X13366785Y-10235214D01*
X13266785Y-10349500D01*
X13309643Y-10349500D01*
X13338214Y-10363786D01*
X13352500Y-10378072D01*
X13366785Y-10406643D01*
X13366785Y-10478072D01*
X13352500Y-10506643D01*
X13338214Y-10520929D01*
X13309643Y-10535214D01*
X13223928Y-10535214D01*
X13195357Y-10520929D01*
X13181071Y-10506643D01*
X13652500Y-10535214D02*
X13481071Y-10535214D01*
X13566785Y-10535214D02*
X13566785Y-10235214D01*
X13538214Y-10278072D01*
X13509643Y-10306643D01*
X13481071Y-10320929D01*
X13766786Y-10235214D02*
X13766786Y-10292357D01*
X13881071Y-10235214D02*
X13881071Y-10292357D01*
X14323928Y-10649500D02*
X14309643Y-10635214D01*
X14281071Y-10592357D01*
X14266785Y-10563786D01*
X14252500Y-10520929D01*
X14238214Y-10449500D01*
X14238214Y-10392357D01*
X14252500Y-10320929D01*
X14266785Y-10278072D01*
X14281071Y-10249500D01*
X14309643Y-10206643D01*
X14323928Y-10192357D01*
X14495357Y-10235214D02*
X14523928Y-10235214D01*
X14552500Y-10249500D01*
X14566785Y-10263786D01*
X14581071Y-10292357D01*
X14595357Y-10349500D01*
X14595357Y-10420929D01*
X14581071Y-10478072D01*
X14566785Y-10506643D01*
X14552500Y-10520929D01*
X14523928Y-10535214D01*
X14495357Y-10535214D01*
X14466785Y-10520929D01*
X14452500Y-10506643D01*
X14438214Y-10478072D01*
X14423928Y-10420929D01*
X14423928Y-10349500D01*
X14438214Y-10292357D01*
X14452500Y-10263786D01*
X14466785Y-10249500D01*
X14495357Y-10235214D01*
X14952500Y-10535214D02*
X14952500Y-10235214D01*
X15081071Y-10535214D02*
X15081071Y-10378072D01*
X15066785Y-10349500D01*
X15038214Y-10335214D01*
X14995357Y-10335214D01*
X14966785Y-10349500D01*
X14952500Y-10363786D01*
X15266785Y-10535214D02*
X15238214Y-10520929D01*
X15223928Y-10506643D01*
X15209643Y-10478072D01*
X15209643Y-10392357D01*
X15223928Y-10363786D01*
X15238214Y-10349500D01*
X15266785Y-10335214D01*
X15309643Y-10335214D01*
X15338214Y-10349500D01*
X15352500Y-10363786D01*
X15366785Y-10392357D01*
X15366785Y-10478072D01*
X15352500Y-10506643D01*
X15338214Y-10520929D01*
X15309643Y-10535214D01*
X15266785Y-10535214D01*
X15538214Y-10535214D02*
X15509643Y-10520929D01*
X15495357Y-10492357D01*
X15495357Y-10235214D01*
X15766786Y-10520929D02*
X15738214Y-10535214D01*
X15681071Y-10535214D01*
X15652500Y-10520929D01*
X15638214Y-10492357D01*
X15638214Y-10378072D01*
X15652500Y-10349500D01*
X15681071Y-10335214D01*
X15738214Y-10335214D01*
X15766786Y-10349500D01*
X15781071Y-10378072D01*
X15781071Y-10406643D01*
X15638214Y-10435214D01*
X15895357Y-10520929D02*
X15923928Y-10535214D01*
X15981071Y-10535214D01*
X16009643Y-10520929D01*
X16023928Y-10492357D01*
X16023928Y-10478072D01*
X16009643Y-10449500D01*
X15981071Y-10435214D01*
X15938214Y-10435214D01*
X15909643Y-10420929D01*
X15895357Y-10392357D01*
X15895357Y-10378072D01*
X15909643Y-10349500D01*
X15938214Y-10335214D01*
X15981071Y-10335214D01*
X16009643Y-10349500D01*
X16381071Y-10420929D02*
X16609643Y-10420929D01*
X16495357Y-10535214D02*
X16495357Y-10306643D01*
X16966786Y-10263786D02*
X16981071Y-10249500D01*
X17009643Y-10235214D01*
X17081071Y-10235214D01*
X17109643Y-10249500D01*
X17123928Y-10263786D01*
X17138214Y-10292357D01*
X17138214Y-10320929D01*
X17123928Y-10363786D01*
X16952500Y-10535214D01*
X17138214Y-10535214D01*
X17481071Y-10520929D02*
X17509643Y-10535214D01*
X17566786Y-10535214D01*
X17595357Y-10520929D01*
X17609643Y-10492357D01*
X17609643Y-10478072D01*
X17595357Y-10449500D01*
X17566786Y-10435214D01*
X17523928Y-10435214D01*
X17495357Y-10420929D01*
X17481071Y-10392357D01*
X17481071Y-10378072D01*
X17495357Y-10349500D01*
X17523928Y-10335214D01*
X17566786Y-10335214D01*
X17595357Y-10349500D01*
X17781071Y-10535214D02*
X17752500Y-10520929D01*
X17738214Y-10492357D01*
X17738214Y-10235214D01*
X17938214Y-10535214D02*
X17909643Y-10520929D01*
X17895357Y-10506643D01*
X17881071Y-10478072D01*
X17881071Y-10392357D01*
X17895357Y-10363786D01*
X17909643Y-10349500D01*
X17938214Y-10335214D01*
X17981071Y-10335214D01*
X18009643Y-10349500D01*
X18023928Y-10363786D01*
X18038214Y-10392357D01*
X18038214Y-10478072D01*
X18023928Y-10506643D01*
X18009643Y-10520929D01*
X17981071Y-10535214D01*
X17938214Y-10535214D01*
X18123928Y-10335214D02*
X18238214Y-10335214D01*
X18166786Y-10235214D02*
X18166786Y-10492357D01*
X18181071Y-10520929D01*
X18209643Y-10535214D01*
X18238214Y-10535214D01*
X18323929Y-10520929D02*
X18352500Y-10535214D01*
X18409643Y-10535214D01*
X18438214Y-10520929D01*
X18452500Y-10492357D01*
X18452500Y-10478072D01*
X18438214Y-10449500D01*
X18409643Y-10435214D01*
X18366786Y-10435214D01*
X18338214Y-10420929D01*
X18323929Y-10392357D01*
X18323929Y-10378072D01*
X18338214Y-10349500D01*
X18366786Y-10335214D01*
X18409643Y-10335214D01*
X18438214Y-10349500D01*
X18552500Y-10649500D02*
X18566786Y-10635214D01*
X18595357Y-10592357D01*
X18609643Y-10563786D01*
X18623928Y-10520929D01*
X18638214Y-10449500D01*
X18638214Y-10392357D01*
X18623928Y-10320929D01*
X18609643Y-10278072D01*
X18595357Y-10249500D01*
X18566786Y-10206643D01*
X18552500Y-10192357D01*
M02*
