M48
;DRILL file {KiCad 4.0.7-e2-6376~58~ubuntu16.04.1} date Wed Jan 31 13:52:26 2018
;FORMAT={3:3/ absolute / metric / suppress leading zeros}
FMAT,2
METRIC,TZ
T1C0.400
T2C0.762
T3C0.800
T4C1.000
T5C1.200
%
G90
G05
M71
T1
X98632Y-66715
X98759Y-76875
X99013Y-78399
X99775Y-80050
X100156Y-72049
X101299Y-64810
X101426Y-81701
X101426Y-83098
X101871Y-75086
X102696Y-66334
X104093Y-75732
X104093Y-76821
X104474Y-78526
X104753Y-79517
X105283Y-80101
X106125Y-77637
X106760Y-75351
X107072Y-80214
X107268Y-66715
X107395Y-73954
X107600Y-77000
X108919Y-80010
X109681Y-80304
X110570Y-80177
X111459Y-67604
X115142Y-67477
X115269Y-72430
X115269Y-74135
X116031Y-77002
X116793Y-81320
X117301Y-77750
X117809Y-68366
X118063Y-77129
X118359Y-67816
X118971Y-67335
X118975Y-76490
T2
X97870Y-82400
X99600Y-84400
X118600Y-84400
T4
X101900Y-59100
X116900Y-59100
T5
X98200Y-72600
X120500Y-72600
T3
X121800Y-74350G85X121800Y-75850
G05
X121800Y-81850G85X121800Y-83350
G05
T0
M30
